<?xml version="1.0" encoding="UTF-8" standalone="no"?>
<!DOCTYPE svg PUBLIC "-//W3C//DTD SVG 1.1//EN"
 "http://www.w3.org/Graphics/SVG/1.1/DTD/svg11.dtd">
<!-- Generated by graphviz version 2.40.1 (20161225.0304)
 -->
<!-- Title: inheritance41faf8be4b Pages: 1 -->
<svg width="576pt" height="34pt"
 viewBox="0.00 0.00 576.00 33.67" xmlns="http://www.w3.org/2000/svg" xmlns:xlink="http://www.w3.org/1999/xlink">
<g id="graph0" class="graph" transform="scale(.526 .526) rotate(0) translate(4 60)">
<title>inheritance41faf8be4b</title>
<polygon fill="#ffffff" stroke="transparent" points="-4,4 -4,-60 1091,-60 1091,4 -4,4"/>
<!-- pyGHDL.dom.Aggregates.OthersAggregateElement -->
<g id="node1" class="node">
<title>pyGHDL.dom.Aggregates.OthersAggregateElement</title>
<g id="a_node1"><a xlink:href="../pyGHDL/pyGHDL.dom.Aggregates.html#pyGHDL.dom.Aggregates.OthersAggregateElement" xlink:title="pyGHDL.dom.Aggregates.OthersAggregateElement" target="_top">
<polygon fill="none" stroke="#000000" stroke-width=".5" points="1087,-37 821,-37 821,-18 1087,-18 1087,-37"/>
<text text-anchor="middle" x="954" y="-25" font-family="Vera Sans, DejaVu Sans, Liberation Sans, Arial, Helvetica, sans" font-size="10.00" fill="#000000">pyGHDL.dom.Aggregates.OthersAggregateElement</text>
</a>
</g>
</g>
<!-- pyVHDLModel.VHDLModel.OthersAggregateElement -->
<g id="node2" class="node">
<title>pyVHDLModel.VHDLModel.OthersAggregateElement</title>
<polygon fill="none" stroke="#000000" stroke-width=".5" points="785,-56 515,-56 515,-37 785,-37 785,-56"/>
<text text-anchor="middle" x="650" y="-44" font-family="Vera Sans, DejaVu Sans, Liberation Sans, Arial, Helvetica, sans" font-size="10.00" fill="#000000">pyVHDLModel.VHDLModel.OthersAggregateElement</text>
</g>
<!-- pyVHDLModel.VHDLModel.OthersAggregateElement&#45;&gt;pyGHDL.dom.Aggregates.OthersAggregateElement -->
<g id="edge1" class="edge">
<title>pyVHDLModel.VHDLModel.OthersAggregateElement&#45;&gt;pyGHDL.dom.Aggregates.OthersAggregateElement</title>
<path fill="none" stroke="#000000" stroke-width=".5" d="M785.1092,-38.0557C795.3299,-37.4169 805.6538,-36.7716 815.8929,-36.1317"/>
<polygon fill="#000000" stroke="#000000" stroke-width=".5" points="816.0306,-37.8766 820.9117,-35.818 815.8122,-34.3834 816.0306,-37.8766"/>
</g>
<!-- pyGHDL.dom.DOMMixin -->
<g id="node3" class="node">
<title>pyGHDL.dom.DOMMixin</title>
<g id="a_node3"><a xlink:href="../pyGHDL.dom.html#pyGHDL.dom.DOMMixin" xlink:title="pyGHDL.dom.DOMMixin" target="_top">
<polygon fill="none" stroke="#000000" stroke-width=".5" points="717,-19 583,-19 583,0 717,0 717,-19"/>
<text text-anchor="middle" x="650" y="-7" font-family="Vera Sans, DejaVu Sans, Liberation Sans, Arial, Helvetica, sans" font-size="10.00" fill="#000000">pyGHDL.dom.DOMMixin</text>
</a>
</g>
</g>
<!-- pyGHDL.dom.DOMMixin&#45;&gt;pyGHDL.dom.Aggregates.OthersAggregateElement -->
<g id="edge2" class="edge">
<title>pyGHDL.dom.DOMMixin&#45;&gt;pyGHDL.dom.Aggregates.OthersAggregateElement</title>
<path fill="none" stroke="#000000" stroke-width=".5" d="M717.0904,-13.4725C746.2554,-15.1993 781.561,-17.2898 815.911,-19.3237"/>
<polygon fill="#000000" stroke="#000000" stroke-width=".5" points="815.8765,-21.0746 820.9713,-19.6233 816.0835,-17.5807 815.8765,-21.0746"/>
</g>
<!-- pyVHDLModel.VHDLModel.AggregateElement -->
<g id="node4" class="node">
<title>pyVHDLModel.VHDLModel.AggregateElement</title>
<g id="a_node4"><a xlink:title="A ``AggregateElement`` is a base&#45;class for all aggregate elements.">
<polygon fill="none" stroke="#000000" stroke-width=".5" points="479,-56 241,-56 241,-37 479,-37 479,-56"/>
<text text-anchor="middle" x="360" y="-44" font-family="Vera Sans, DejaVu Sans, Liberation Sans, Arial, Helvetica, sans" font-size="10.00" fill="#000000">pyVHDLModel.VHDLModel.AggregateElement</text>
</a>
</g>
</g>
<!-- pyVHDLModel.VHDLModel.AggregateElement&#45;&gt;pyVHDLModel.VHDLModel.OthersAggregateElement -->
<g id="edge4" class="edge">
<title>pyVHDLModel.VHDLModel.AggregateElement&#45;&gt;pyVHDLModel.VHDLModel.OthersAggregateElement</title>
<path fill="none" stroke="#000000" stroke-width=".5" d="M479.2095,-46.5C489.2786,-46.5 499.519,-46.5 509.7282,-46.5"/>
<polygon fill="#000000" stroke="#000000" stroke-width=".5" points="509.7366,-48.2501 514.7366,-46.5 509.7366,-44.7501 509.7366,-48.2501"/>
</g>
<!-- pyVHDLModel.VHDLModel.ModelEntity -->
<g id="node5" class="node">
<title>pyVHDLModel.VHDLModel.ModelEntity</title>
<g id="a_node5"><a xlink:title="``ModelEntity`` is the base class for all classes in the VHDL language model,">
<polygon fill="none" stroke="#000000" stroke-width=".5" points="205,-56 0,-56 0,-37 205,-37 205,-56"/>
<text text-anchor="middle" x="102.5" y="-44" font-family="Vera Sans, DejaVu Sans, Liberation Sans, Arial, Helvetica, sans" font-size="10.00" fill="#000000">pyVHDLModel.VHDLModel.ModelEntity</text>
</a>
</g>
</g>
<!-- pyVHDLModel.VHDLModel.ModelEntity&#45;&gt;pyVHDLModel.VHDLModel.AggregateElement -->
<g id="edge3" class="edge">
<title>pyVHDLModel.VHDLModel.ModelEntity&#45;&gt;pyVHDLModel.VHDLModel.AggregateElement</title>
<path fill="none" stroke="#000000" stroke-width=".5" d="M205.0107,-46.5C215.1351,-46.5 225.4855,-46.5 235.797,-46.5"/>
<polygon fill="#000000" stroke="#000000" stroke-width=".5" points="235.8547,-48.2501 240.8547,-46.5 235.8547,-44.7501 235.8547,-48.2501"/>
</g>
</g>
</svg>
