<?xml version="1.0" encoding="UTF-8" standalone="no"?>
<!DOCTYPE svg PUBLIC "-//W3C//DTD SVG 1.1//EN"
 "http://www.w3.org/Graphics/SVG/1.1/DTD/svg11.dtd">
<!-- Generated by graphviz version 2.40.1 (20161225.0304)
 -->
<!-- Title: inheritance8a9ff27274 Pages: 1 -->
<svg width="576pt" height="33pt"
 viewBox="0.00 0.00 576.00 33.48" xmlns="http://www.w3.org/2000/svg" xmlns:xlink="http://www.w3.org/1999/xlink">
<g id="graph0" class="graph" transform="scale(.5232 .5232) rotate(0) translate(4 60)">
<title>inheritance8a9ff27274</title>
<polygon fill="#ffffff" stroke="transparent" points="-4,4 -4,-60 1097,-60 1097,4 -4,4"/>
<!-- pyGHDL.dom.Aggregates.NamedAggregateElement -->
<g id="node1" class="node">
<title>pyGHDL.dom.Aggregates.NamedAggregateElement</title>
<g id="a_node1"><a xlink:href="../pyGHDL/pyGHDL.dom.Aggregates.html#pyGHDL.dom.Aggregates.NamedAggregateElement" xlink:title="pyGHDL.dom.Aggregates.NamedAggregateElement" target="_top">
<polygon fill="none" stroke="#000000" stroke-width=".5" points="1093,-37 824,-37 824,-18 1093,-18 1093,-37"/>
<text text-anchor="middle" x="958.5" y="-25" font-family="Vera Sans, DejaVu Sans, Liberation Sans, Arial, Helvetica, sans" font-size="10.00" fill="#000000">pyGHDL.dom.Aggregates.NamedAggregateElement</text>
</a>
</g>
</g>
<!-- pyVHDLModel.VHDLModel.NamedAggregateElement -->
<g id="node2" class="node">
<title>pyVHDLModel.VHDLModel.NamedAggregateElement</title>
<polygon fill="none" stroke="#000000" stroke-width=".5" points="788,-56 515,-56 515,-37 788,-37 788,-56"/>
<text text-anchor="middle" x="651.5" y="-44" font-family="Vera Sans, DejaVu Sans, Liberation Sans, Arial, Helvetica, sans" font-size="10.00" fill="#000000">pyVHDLModel.VHDLModel.NamedAggregateElement</text>
</g>
<!-- pyVHDLModel.VHDLModel.NamedAggregateElement&#45;&gt;pyGHDL.dom.Aggregates.NamedAggregateElement -->
<g id="edge1" class="edge">
<title>pyVHDLModel.VHDLModel.NamedAggregateElement&#45;&gt;pyGHDL.dom.Aggregates.NamedAggregateElement</title>
<path fill="none" stroke="#000000" stroke-width=".5" d="M788.3898,-38.028C798.3296,-37.4128 808.3633,-36.7918 818.3218,-36.1755"/>
<polygon fill="#000000" stroke="#000000" stroke-width=".5" points="818.6393,-37.9093 823.5216,-35.8537 818.423,-34.416 818.6393,-37.9093"/>
</g>
<!-- pyGHDL.dom.DOMMixin -->
<g id="node3" class="node">
<title>pyGHDL.dom.DOMMixin</title>
<g id="a_node3"><a xlink:href="../pyGHDL.dom.html#pyGHDL.dom.DOMMixin" xlink:title="pyGHDL.dom.DOMMixin" target="_top">
<polygon fill="none" stroke="#000000" stroke-width=".5" points="718.5,-19 584.5,-19 584.5,0 718.5,0 718.5,-19"/>
<text text-anchor="middle" x="651.5" y="-7" font-family="Vera Sans, DejaVu Sans, Liberation Sans, Arial, Helvetica, sans" font-size="10.00" fill="#000000">pyGHDL.dom.DOMMixin</text>
</a>
</g>
</g>
<!-- pyGHDL.dom.DOMMixin&#45;&gt;pyGHDL.dom.Aggregates.NamedAggregateElement -->
<g id="edge2" class="edge">
<title>pyGHDL.dom.DOMMixin&#45;&gt;pyGHDL.dom.Aggregates.NamedAggregateElement</title>
<path fill="none" stroke="#000000" stroke-width=".5" d="M718.8725,-13.4502C748.3129,-15.1763 784.003,-17.2689 818.7462,-19.306"/>
<polygon fill="#000000" stroke="#000000" stroke-width=".5" points="818.7706,-21.0603 823.8645,-19.6061 818.9756,-17.5663 818.7706,-21.0603"/>
</g>
<!-- pyVHDLModel.VHDLModel.AggregateElement -->
<g id="node4" class="node">
<title>pyVHDLModel.VHDLModel.AggregateElement</title>
<g id="a_node4"><a xlink:title="A ``AggregateElement`` is a base&#45;class for all aggregate elements.">
<polygon fill="none" stroke="#000000" stroke-width=".5" points="479,-56 241,-56 241,-37 479,-37 479,-56"/>
<text text-anchor="middle" x="360" y="-44" font-family="Vera Sans, DejaVu Sans, Liberation Sans, Arial, Helvetica, sans" font-size="10.00" fill="#000000">pyVHDLModel.VHDLModel.AggregateElement</text>
</a>
</g>
</g>
<!-- pyVHDLModel.VHDLModel.AggregateElement&#45;&gt;pyVHDLModel.VHDLModel.NamedAggregateElement -->
<g id="edge4" class="edge">
<title>pyVHDLModel.VHDLModel.AggregateElement&#45;&gt;pyVHDLModel.VHDLModel.NamedAggregateElement</title>
<path fill="none" stroke="#000000" stroke-width=".5" d="M479.4053,-46.5C489.3132,-46.5 499.3892,-46.5 509.4417,-46.5"/>
<polygon fill="#000000" stroke="#000000" stroke-width=".5" points="509.6954,-48.2501 514.6954,-46.5 509.6953,-44.7501 509.6954,-48.2501"/>
</g>
<!-- pyVHDLModel.VHDLModel.ModelEntity -->
<g id="node5" class="node">
<title>pyVHDLModel.VHDLModel.ModelEntity</title>
<g id="a_node5"><a xlink:title="``ModelEntity`` is the base class for all classes in the VHDL language model,">
<polygon fill="none" stroke="#000000" stroke-width=".5" points="205,-56 0,-56 0,-37 205,-37 205,-56"/>
<text text-anchor="middle" x="102.5" y="-44" font-family="Vera Sans, DejaVu Sans, Liberation Sans, Arial, Helvetica, sans" font-size="10.00" fill="#000000">pyVHDLModel.VHDLModel.ModelEntity</text>
</a>
</g>
</g>
<!-- pyVHDLModel.VHDLModel.ModelEntity&#45;&gt;pyVHDLModel.VHDLModel.AggregateElement -->
<g id="edge3" class="edge">
<title>pyVHDLModel.VHDLModel.ModelEntity&#45;&gt;pyVHDLModel.VHDLModel.AggregateElement</title>
<path fill="none" stroke="#000000" stroke-width=".5" d="M205.0107,-46.5C215.1351,-46.5 225.4855,-46.5 235.797,-46.5"/>
<polygon fill="#000000" stroke="#000000" stroke-width=".5" points="235.8547,-48.2501 240.8547,-46.5 235.8547,-44.7501 235.8547,-48.2501"/>
</g>
</g>
</svg>
