<?xml version="1.0" encoding="UTF-8" standalone="no"?>
<!DOCTYPE svg PUBLIC "-//W3C//DTD SVG 1.1//EN"
 "http://www.w3.org/Graphics/SVG/1.1/DTD/svg11.dtd">
<!-- Generated by graphviz version 2.40.1 (20161225.0304)
 -->
<!-- Title: inheritance4575fca33d Pages: 1 -->
<svg width="576pt" height="45pt"
 viewBox="0.00 0.00 576.00 45.35" xmlns="http://www.w3.org/2000/svg" xmlns:xlink="http://www.w3.org/1999/xlink">
<g id="graph0" class="graph" transform="scale(.4535 .4535) rotate(0) translate(4 96)">
<title>inheritance4575fca33d</title>
<polygon fill="#ffffff" stroke="transparent" points="-4,4 -4,-96 1266,-96 1266,4 -4,4"/>
<!-- pyGHDL.dom.DOMMixin -->
<g id="node1" class="node">
<title>pyGHDL.dom.DOMMixin</title>
<g id="a_node1"><a xlink:href="../pyGHDL.dom.html#pyGHDL.dom.DOMMixin" xlink:title="pyGHDL.dom.DOMMixin" target="_top">
<polygon fill="none" stroke="#000000" stroke-width=".5" points="981,-92 847,-92 847,-73 981,-73 981,-92"/>
<text text-anchor="middle" x="914" y="-80" font-family="Vera Sans, DejaVu Sans, Liberation Sans, Arial, Helvetica, sans" font-size="10.00" fill="#000000">pyGHDL.dom.DOMMixin</text>
</a>
</g>
</g>
<!-- pyGHDL.dom.DesignUnit.PackageBody -->
<g id="node2" class="node">
<title>pyGHDL.dom.DesignUnit.PackageBody</title>
<g id="a_node2"><a xlink:href="../pyGHDL/pyGHDL.dom.DesignUnit.html#pyGHDL.dom.DesignUnit.PackageBody" xlink:title="pyGHDL.dom.DesignUnit.PackageBody" target="_top">
<polygon fill="none" stroke="#000000" stroke-width=".5" points="1262,-73 1056,-73 1056,-54 1262,-54 1262,-73"/>
<text text-anchor="middle" x="1159" y="-61" font-family="Vera Sans, DejaVu Sans, Liberation Sans, Arial, Helvetica, sans" font-size="10.00" fill="#000000">pyGHDL.dom.DesignUnit.PackageBody</text>
</a>
</g>
</g>
<!-- pyGHDL.dom.DOMMixin&#45;&gt;pyGHDL.dom.DesignUnit.PackageBody -->
<g id="edge2" class="edge">
<title>pyGHDL.dom.DOMMixin&#45;&gt;pyGHDL.dom.DesignUnit.PackageBody</title>
<path fill="none" stroke="#000000" stroke-width=".5" d="M981.2714,-77.283C1002.6963,-75.6215 1026.9719,-73.7389 1050.5444,-71.9108"/>
<polygon fill="#000000" stroke="#000000" stroke-width=".5" points="1050.7129,-73.6531 1055.5626,-71.5217 1050.4422,-70.1636 1050.7129,-73.6531"/>
</g>
<!-- pyVHDLModel.VHDLModel.PackageBody -->
<g id="node3" class="node">
<title>pyVHDLModel.VHDLModel.PackageBody</title>
<polygon fill="none" stroke="#000000" stroke-width=".5" points="1020,-55 808,-55 808,-36 1020,-36 1020,-55"/>
<text text-anchor="middle" x="914" y="-43" font-family="Vera Sans, DejaVu Sans, Liberation Sans, Arial, Helvetica, sans" font-size="10.00" fill="#000000">pyVHDLModel.VHDLModel.PackageBody</text>
</g>
<!-- pyVHDLModel.VHDLModel.PackageBody&#45;&gt;pyGHDL.dom.DesignUnit.PackageBody -->
<g id="edge1" class="edge">
<title>pyVHDLModel.VHDLModel.PackageBody&#45;&gt;pyGHDL.dom.DesignUnit.PackageBody</title>
<path fill="none" stroke="#000000" stroke-width=".5" d="M1020.0356,-53.2904C1030.2603,-54.0416 1040.6409,-54.8042 1050.8854,-55.5569"/>
<polygon fill="#000000" stroke="#000000" stroke-width=".5" points="1050.7875,-57.3043 1055.9023,-55.9255 1051.044,-53.8137 1050.7875,-57.3043"/>
</g>
<!-- pyVHDLModel.VHDLModel.DesignUnit -->
<g id="node4" class="node">
<title>pyVHDLModel.VHDLModel.DesignUnit</title>
<g id="a_node4"><a xlink:title="A ``DesignUnit`` is a base&#45;class for all design units.">
<polygon fill="none" stroke="#000000" stroke-width=".5" points="448,-37 247,-37 247,-18 448,-18 448,-37"/>
<text text-anchor="middle" x="347.5" y="-25" font-family="Vera Sans, DejaVu Sans, Liberation Sans, Arial, Helvetica, sans" font-size="10.00" fill="#000000">pyVHDLModel.VHDLModel.DesignUnit</text>
</a>
</g>
</g>
<!-- pyVHDLModel.VHDLModel.SecondaryUnit -->
<g id="node8" class="node">
<title>pyVHDLModel.VHDLModel.SecondaryUnit</title>
<g id="a_node8"><a xlink:title="A ``SecondaryUnit`` is a base&#45;class for all secondary units.">
<polygon fill="none" stroke="#000000" stroke-width=".5" points="737,-37 519,-37 519,-18 737,-18 737,-37"/>
<text text-anchor="middle" x="628" y="-25" font-family="Vera Sans, DejaVu Sans, Liberation Sans, Arial, Helvetica, sans" font-size="10.00" fill="#000000">pyVHDLModel.VHDLModel.SecondaryUnit</text>
</a>
</g>
</g>
<!-- pyVHDLModel.VHDLModel.DesignUnit&#45;&gt;pyVHDLModel.VHDLModel.SecondaryUnit -->
<g id="edge7" class="edge">
<title>pyVHDLModel.VHDLModel.DesignUnit&#45;&gt;pyVHDLModel.VHDLModel.SecondaryUnit</title>
<path fill="none" stroke="#000000" stroke-width=".5" d="M448.3706,-27.5C469.4546,-27.5 491.8306,-27.5 513.3719,-27.5"/>
<polygon fill="#000000" stroke="#000000" stroke-width=".5" points="513.5355,-29.2501 518.5355,-27.5 513.5354,-25.7501 513.5355,-29.2501"/>
</g>
<!-- pyVHDLModel.VHDLModel.ModelEntity -->
<g id="node5" class="node">
<title>pyVHDLModel.VHDLModel.ModelEntity</title>
<g id="a_node5"><a xlink:title="``ModelEntity`` is the base class for all classes in the VHDL language model,">
<polygon fill="none" stroke="#000000" stroke-width=".5" points="208,-56 3,-56 3,-37 208,-37 208,-56"/>
<text text-anchor="middle" x="105.5" y="-44" font-family="Vera Sans, DejaVu Sans, Liberation Sans, Arial, Helvetica, sans" font-size="10.00" fill="#000000">pyVHDLModel.VHDLModel.ModelEntity</text>
</a>
</g>
</g>
<!-- pyVHDLModel.VHDLModel.ModelEntity&#45;&gt;pyVHDLModel.VHDLModel.DesignUnit -->
<g id="edge3" class="edge">
<title>pyVHDLModel.VHDLModel.ModelEntity&#45;&gt;pyVHDLModel.VHDLModel.DesignUnit</title>
<path fill="none" stroke="#000000" stroke-width=".5" d="M208.1298,-38.4423C219.1894,-37.574 230.4586,-36.6892 241.5563,-35.8179"/>
<polygon fill="#000000" stroke="#000000" stroke-width=".5" points="241.7941,-37.5547 246.6417,-35.4186 241.5201,-34.0654 241.7941,-37.5547"/>
</g>
<!-- pyVHDLModel.VHDLModel.NamedEntity -->
<g id="node6" class="node">
<title>pyVHDLModel.VHDLModel.NamedEntity</title>
<g id="a_node6"><a xlink:title="A ``NamedEntity`` is a mixin class for all VHDL entities that have identifiers.">
<polygon fill="none" stroke="#000000" stroke-width=".5" points="211,-19 0,-19 0,0 211,0 211,-19"/>
<text text-anchor="middle" x="105.5" y="-7" font-family="Vera Sans, DejaVu Sans, Liberation Sans, Arial, Helvetica, sans" font-size="10.00" fill="#000000">pyVHDLModel.VHDLModel.NamedEntity</text>
</a>
</g>
</g>
<!-- pyVHDLModel.VHDLModel.NamedEntity&#45;&gt;pyVHDLModel.VHDLModel.DesignUnit -->
<g id="edge4" class="edge">
<title>pyVHDLModel.VHDLModel.NamedEntity&#45;&gt;pyVHDLModel.VHDLModel.DesignUnit</title>
<path fill="none" stroke="#000000" stroke-width=".5" d="M211.2927,-17.3689C221.3651,-18.1181 231.5804,-18.8779 241.6533,-19.6271"/>
<polygon fill="#000000" stroke="#000000" stroke-width=".5" points="241.7902,-21.392 246.9063,-20.0178 242.0499,-17.9017 241.7902,-21.392"/>
</g>
<!-- pyVHDLModel.VHDLModel.MixinDesignUnitWithContext -->
<g id="node7" class="node">
<title>pyVHDLModel.VHDLModel.MixinDesignUnitWithContext</title>
<g id="a_node7"><a xlink:title="A ``DesignUnitWithReferences`` is a base&#45;class for all design units with contexts.">
<polygon fill="none" stroke="#000000" stroke-width=".5" points="772,-74 484,-74 484,-55 772,-55 772,-74"/>
<text text-anchor="middle" x="628" y="-62" font-family="Vera Sans, DejaVu Sans, Liberation Sans, Arial, Helvetica, sans" font-size="10.00" fill="#000000">pyVHDLModel.VHDLModel.MixinDesignUnitWithContext</text>
</a>
</g>
</g>
<!-- pyVHDLModel.VHDLModel.MixinDesignUnitWithContext&#45;&gt;pyVHDLModel.VHDLModel.PackageBody -->
<g id="edge6" class="edge">
<title>pyVHDLModel.VHDLModel.MixinDesignUnitWithContext&#45;&gt;pyVHDLModel.VHDLModel.PackageBody</title>
<path fill="none" stroke="#000000" stroke-width=".5" d="M771.4189,-54.9722C781.9592,-54.2719 792.4964,-53.5719 802.8015,-52.8873"/>
<polygon fill="#000000" stroke="#000000" stroke-width=".5" points="802.9678,-54.6302 807.8407,-52.5525 802.7357,-51.1379 802.9678,-54.6302"/>
</g>
<!-- pyVHDLModel.VHDLModel.SecondaryUnit&#45;&gt;pyVHDLModel.VHDLModel.PackageBody -->
<g id="edge5" class="edge">
<title>pyVHDLModel.VHDLModel.SecondaryUnit&#45;&gt;pyVHDLModel.VHDLModel.PackageBody</title>
<path fill="none" stroke="#000000" stroke-width=".5" d="M737.3485,-34.3821C758.663,-35.7235 781.0349,-37.1316 802.4205,-38.4775"/>
<polygon fill="#000000" stroke="#000000" stroke-width=".5" points="802.4438,-40.2324 807.5439,-38.8 802.6637,-36.7393 802.4438,-40.2324"/>
</g>
</g>
</svg>
