<?xml version="1.0" encoding="UTF-8" standalone="no"?>
<!DOCTYPE svg PUBLIC "-//W3C//DTD SVG 1.1//EN"
 "http://www.w3.org/Graphics/SVG/1.1/DTD/svg11.dtd">
<!-- Generated by graphviz version 2.40.1 (20161225.0304)
 -->
<!-- Title: inheritance3761b947bb Pages: 1 -->
<svg width="576pt" height="19pt"
 viewBox="0.00 0.00 576.00 19.43" xmlns="http://www.w3.org/2000/svg" xmlns:xlink="http://www.w3.org/1999/xlink">
<g id="graph0" class="graph" transform="scale(.3036 .3036) rotate(0) translate(4 60)">
<title>inheritance3761b947bb</title>
<polygon fill="#ffffff" stroke="transparent" points="-4,4 -4,-60 1893,-60 1893,4 -4,4"/>
<!-- pyGHDL.dom.DOMMixin -->
<g id="node1" class="node">
<title>pyGHDL.dom.DOMMixin</title>
<g id="a_node1"><a xlink:href="../pyGHDL.dom.html#pyGHDL.dom.DOMMixin" xlink:title="pyGHDL.dom.DOMMixin" target="_top">
<polygon fill="none" stroke="#000000" stroke-width=".5" points="1516,-56 1382,-56 1382,-37 1516,-37 1516,-56"/>
<text text-anchor="middle" x="1449" y="-44" font-family="Vera Sans, DejaVu Sans, Liberation Sans, Arial, Helvetica, sans" font-size="10.00" fill="#000000">pyGHDL.dom.DOMMixin</text>
</a>
</g>
</g>
<!-- pyGHDL.dom.Expression.ShiftRightLogicExpression -->
<g id="node2" class="node">
<title>pyGHDL.dom.Expression.ShiftRightLogicExpression</title>
<g id="a_node2"><a xlink:href="../pyGHDL/pyGHDL.dom.Expression.html#pyGHDL.dom.Expression.ShiftRightLogicExpression" xlink:title="pyGHDL.dom.Expression.ShiftRightLogicExpression" target="_top">
<polygon fill="none" stroke="#000000" stroke-width=".5" points="1889,-37 1622,-37 1622,-18 1889,-18 1889,-37"/>
<text text-anchor="middle" x="1755.5" y="-25" font-family="Vera Sans, DejaVu Sans, Liberation Sans, Arial, Helvetica, sans" font-size="10.00" fill="#000000">pyGHDL.dom.Expression.ShiftRightLogicExpression</text>
</a>
</g>
</g>
<!-- pyGHDL.dom.DOMMixin&#45;&gt;pyGHDL.dom.Expression.ShiftRightLogicExpression -->
<g id="edge2" class="edge">
<title>pyGHDL.dom.DOMMixin&#45;&gt;pyGHDL.dom.Expression.ShiftRightLogicExpression</title>
<path fill="none" stroke="#000000" stroke-width=".5" d="M1516.2627,-42.3304C1545.8232,-40.4979 1581.6946,-38.2742 1616.5683,-36.1124"/>
<polygon fill="#000000" stroke="#000000" stroke-width=".5" points="1616.8234,-37.85 1621.7055,-35.7939 1616.6068,-34.3567 1616.8234,-37.85"/>
</g>
<!-- pyVHDLModel.VHDLModel.ShiftRightLogicExpression -->
<g id="node3" class="node">
<title>pyVHDLModel.VHDLModel.ShiftRightLogicExpression</title>
<polygon fill="none" stroke="#000000" stroke-width=".5" points="1586,-19 1312,-19 1312,0 1586,0 1586,-19"/>
<text text-anchor="middle" x="1449" y="-7" font-family="Vera Sans, DejaVu Sans, Liberation Sans, Arial, Helvetica, sans" font-size="10.00" fill="#000000">pyVHDLModel.VHDLModel.ShiftRightLogicExpression</text>
</g>
<!-- pyVHDLModel.VHDLModel.ShiftRightLogicExpression&#45;&gt;pyGHDL.dom.Expression.ShiftRightLogicExpression -->
<g id="edge1" class="edge">
<title>pyVHDLModel.VHDLModel.ShiftRightLogicExpression&#45;&gt;pyGHDL.dom.Expression.ShiftRightLogicExpression</title>
<path fill="none" stroke="#000000" stroke-width=".5" d="M1586.1136,-17.5523C1596.1576,-18.1422 1606.2951,-18.7376 1616.3509,-19.3281"/>
<polygon fill="#000000" stroke="#000000" stroke-width=".5" points="1616.507,-21.0902 1621.6011,-19.6364 1616.7123,-17.5962 1616.507,-21.0902"/>
</g>
<!-- pyVHDLModel.VHDLModel.BaseExpression -->
<g id="node4" class="node">
<title>pyVHDLModel.VHDLModel.BaseExpression</title>
<g id="a_node4"><a xlink:title="A ``BaseExpression`` is a base&#45;class for all expressions.">
<polygon fill="none" stroke="#000000" stroke-width=".5" points="465,-19 241,-19 241,0 465,0 465,-19"/>
<text text-anchor="middle" x="353" y="-7" font-family="Vera Sans, DejaVu Sans, Liberation Sans, Arial, Helvetica, sans" font-size="10.00" fill="#000000">pyVHDLModel.VHDLModel.BaseExpression</text>
</a>
</g>
</g>
<!-- pyVHDLModel.VHDLModel.BinaryExpression -->
<g id="node6" class="node">
<title>pyVHDLModel.VHDLModel.BinaryExpression</title>
<g id="a_node6"><a xlink:title="A ``BinaryExpression`` is a base&#45;class for all binary expressions.">
<polygon fill="none" stroke="#000000" stroke-width=".5" points="733,-19 501,-19 501,0 733,0 733,-19"/>
<text text-anchor="middle" x="617" y="-7" font-family="Vera Sans, DejaVu Sans, Liberation Sans, Arial, Helvetica, sans" font-size="10.00" fill="#000000">pyVHDLModel.VHDLModel.BinaryExpression</text>
</a>
</g>
</g>
<!-- pyVHDLModel.VHDLModel.BaseExpression&#45;&gt;pyVHDLModel.VHDLModel.BinaryExpression -->
<g id="edge4" class="edge">
<title>pyVHDLModel.VHDLModel.BaseExpression&#45;&gt;pyVHDLModel.VHDLModel.BinaryExpression</title>
<path fill="none" stroke="#000000" stroke-width=".5" d="M465.3426,-9.5C475.3813,-9.5 485.5751,-9.5 495.6849,-9.5"/>
<polygon fill="#000000" stroke="#000000" stroke-width=".5" points="495.9627,-11.2501 500.9627,-9.5 495.9626,-7.7501 495.9627,-11.2501"/>
</g>
<!-- pyVHDLModel.VHDLModel.ModelEntity -->
<g id="node5" class="node">
<title>pyVHDLModel.VHDLModel.ModelEntity</title>
<g id="a_node5"><a xlink:title="``ModelEntity`` is the base class for all classes in the VHDL language model,">
<polygon fill="none" stroke="#000000" stroke-width=".5" points="205,-19 0,-19 0,0 205,0 205,-19"/>
<text text-anchor="middle" x="102.5" y="-7" font-family="Vera Sans, DejaVu Sans, Liberation Sans, Arial, Helvetica, sans" font-size="10.00" fill="#000000">pyVHDLModel.VHDLModel.ModelEntity</text>
</a>
</g>
</g>
<!-- pyVHDLModel.VHDLModel.ModelEntity&#45;&gt;pyVHDLModel.VHDLModel.BaseExpression -->
<g id="edge3" class="edge">
<title>pyVHDLModel.VHDLModel.ModelEntity&#45;&gt;pyVHDLModel.VHDLModel.BaseExpression</title>
<path fill="none" stroke="#000000" stroke-width=".5" d="M205.1107,-9.5C215.2127,-9.5 225.5179,-9.5 235.7516,-9.5"/>
<polygon fill="#000000" stroke="#000000" stroke-width=".5" points="235.7685,-11.2501 240.7685,-9.5 235.7684,-7.7501 235.7685,-11.2501"/>
</g>
<!-- pyVHDLModel.VHDLModel.ShiftExpression -->
<g id="node7" class="node">
<title>pyVHDLModel.VHDLModel.ShiftExpression</title>
<g id="a_node7"><a xlink:title="A ``ShiftExpression`` is a base&#45;class for all shifting expressions.">
<polygon fill="none" stroke="#000000" stroke-width=".5" points="992,-19 769,-19 769,0 992,0 992,-19"/>
<text text-anchor="middle" x="880.5" y="-7" font-family="Vera Sans, DejaVu Sans, Liberation Sans, Arial, Helvetica, sans" font-size="10.00" fill="#000000">pyVHDLModel.VHDLModel.ShiftExpression</text>
</a>
</g>
</g>
<!-- pyVHDLModel.VHDLModel.BinaryExpression&#45;&gt;pyVHDLModel.VHDLModel.ShiftExpression -->
<g id="edge5" class="edge">
<title>pyVHDLModel.VHDLModel.BinaryExpression&#45;&gt;pyVHDLModel.VHDLModel.ShiftExpression</title>
<path fill="none" stroke="#000000" stroke-width=".5" d="M733.342,-9.5C743.3212,-9.5 753.4199,-9.5 763.405,-9.5"/>
<polygon fill="#000000" stroke="#000000" stroke-width=".5" points="763.615,-11.2501 768.615,-9.5 763.615,-7.7501 763.615,-11.2501"/>
</g>
<!-- pyVHDLModel.VHDLModel.ShiftLogicExpression -->
<g id="node8" class="node">
<title>pyVHDLModel.VHDLModel.ShiftLogicExpression</title>
<polygon fill="none" stroke="#000000" stroke-width=".5" points="1276,-19 1028,-19 1028,0 1276,0 1276,-19"/>
<text text-anchor="middle" x="1152" y="-7" font-family="Vera Sans, DejaVu Sans, Liberation Sans, Arial, Helvetica, sans" font-size="10.00" fill="#000000">pyVHDLModel.VHDLModel.ShiftLogicExpression</text>
</g>
<!-- pyVHDLModel.VHDLModel.ShiftExpression&#45;&gt;pyVHDLModel.VHDLModel.ShiftLogicExpression -->
<g id="edge6" class="edge">
<title>pyVHDLModel.VHDLModel.ShiftExpression&#45;&gt;pyVHDLModel.VHDLModel.ShiftLogicExpression</title>
<path fill="none" stroke="#000000" stroke-width=".5" d="M992.1048,-9.5C1002.0685,-9.5 1012.2116,-9.5 1022.3098,-9.5"/>
<polygon fill="#000000" stroke="#000000" stroke-width=".5" points="1022.5853,-11.2501 1027.5853,-9.5 1022.5852,-7.7501 1022.5853,-11.2501"/>
</g>
<!-- pyVHDLModel.VHDLModel.ShiftLogicExpression&#45;&gt;pyVHDLModel.VHDLModel.ShiftRightLogicExpression -->
<g id="edge7" class="edge">
<title>pyVHDLModel.VHDLModel.ShiftLogicExpression&#45;&gt;pyVHDLModel.VHDLModel.ShiftRightLogicExpression</title>
<path fill="none" stroke="#000000" stroke-width=".5" d="M1276.2339,-9.5C1286.3425,-9.5 1296.6053,-9.5 1306.8281,-9.5"/>
<polygon fill="#000000" stroke="#000000" stroke-width=".5" points="1306.8425,-11.2501 1311.8425,-9.5 1306.8424,-7.7501 1306.8425,-11.2501"/>
</g>
</g>
</svg>
