<?xml version="1.0" encoding="UTF-8" standalone="no"?>
<!DOCTYPE svg PUBLIC "-//W3C//DTD SVG 1.1//EN"
 "http://www.w3.org/Graphics/SVG/1.1/DTD/svg11.dtd">
<!-- Generated by graphviz version 2.40.1 (20161225.0304)
 -->
<!-- Title: inheritanceb3f6728f9c Pages: 1 -->
<svg width="576pt" height="47pt"
 viewBox="0.00 0.00 576.00 47.14" xmlns="http://www.w3.org/2000/svg" xmlns:xlink="http://www.w3.org/1999/xlink">
<g id="graph0" class="graph" transform="scale(.4714 .4714) rotate(0) translate(4 96)">
<title>inheritanceb3f6728f9c</title>
<polygon fill="#ffffff" stroke="transparent" points="-4,4 -4,-96 1218,-96 1218,4 -4,4"/>
<!-- pyGHDL.dom.DOMMixin -->
<g id="node1" class="node">
<title>pyGHDL.dom.DOMMixin</title>
<g id="a_node1"><a xlink:href="../pyGHDL.dom.html#pyGHDL.dom.DOMMixin" xlink:title="pyGHDL.dom.DOMMixin" target="_top">
<polygon fill="none" stroke="#000000" stroke-width=".5" points="969,-92 835,-92 835,-73 969,-73 969,-92"/>
<text text-anchor="middle" x="902" y="-80" font-family="Vera Sans, DejaVu Sans, Liberation Sans, Arial, Helvetica, sans" font-size="10.00" fill="#000000">pyGHDL.dom.DOMMixin</text>
</a>
</g>
</g>
<!-- pyGHDL.dom.DesignUnit.Package -->
<g id="node2" class="node">
<title>pyGHDL.dom.DesignUnit.Package</title>
<g id="a_node2"><a xlink:href="../pyGHDL/pyGHDL.dom.DesignUnit.html#pyGHDL.dom.DesignUnit.Package" xlink:title="pyGHDL.dom.DesignUnit.Package" target="_top">
<polygon fill="none" stroke="#000000" stroke-width=".5" points="1214,-73 1032,-73 1032,-54 1214,-54 1214,-73"/>
<text text-anchor="middle" x="1123" y="-61" font-family="Vera Sans, DejaVu Sans, Liberation Sans, Arial, Helvetica, sans" font-size="10.00" fill="#000000">pyGHDL.dom.DesignUnit.Package</text>
</a>
</g>
</g>
<!-- pyGHDL.dom.DOMMixin&#45;&gt;pyGHDL.dom.DesignUnit.Package -->
<g id="edge2" class="edge">
<title>pyGHDL.dom.DOMMixin&#45;&gt;pyGHDL.dom.DesignUnit.Package</title>
<path fill="none" stroke="#000000" stroke-width=".5" d="M969.2074,-76.722C987.1995,-75.1752 1007.0104,-73.472 1026.2559,-71.8174"/>
<polygon fill="#000000" stroke="#000000" stroke-width=".5" points="1026.8354,-73.5241 1031.6671,-71.3521 1026.5356,-70.0369 1026.8354,-73.5241"/>
</g>
<!-- pyVHDLModel.VHDLModel.Package -->
<g id="node3" class="node">
<title>pyVHDLModel.VHDLModel.Package</title>
<polygon fill="none" stroke="#000000" stroke-width=".5" points="996,-55 808,-55 808,-36 996,-36 996,-55"/>
<text text-anchor="middle" x="902" y="-43" font-family="Vera Sans, DejaVu Sans, Liberation Sans, Arial, Helvetica, sans" font-size="10.00" fill="#000000">pyVHDLModel.VHDLModel.Package</text>
</g>
<!-- pyVHDLModel.VHDLModel.Package&#45;&gt;pyGHDL.dom.DesignUnit.Package -->
<g id="edge1" class="edge">
<title>pyVHDLModel.VHDLModel.Package&#45;&gt;pyGHDL.dom.DesignUnit.Package</title>
<path fill="none" stroke="#000000" stroke-width=".5" d="M996.0444,-53.1597C1006.2414,-53.9902 1016.6297,-54.8364 1026.8513,-55.6689"/>
<polygon fill="#000000" stroke="#000000" stroke-width=".5" points="1026.7287,-57.4146 1031.8542,-56.0764 1027.0128,-53.9262 1026.7287,-57.4146"/>
</g>
<!-- pyVHDLModel.VHDLModel.DesignUnit -->
<g id="node4" class="node">
<title>pyVHDLModel.VHDLModel.DesignUnit</title>
<g id="a_node4"><a xlink:title="A ``DesignUnit`` is a base&#45;class for all design units.">
<polygon fill="none" stroke="#000000" stroke-width=".5" points="448,-37 247,-37 247,-18 448,-18 448,-37"/>
<text text-anchor="middle" x="347.5" y="-25" font-family="Vera Sans, DejaVu Sans, Liberation Sans, Arial, Helvetica, sans" font-size="10.00" fill="#000000">pyVHDLModel.VHDLModel.DesignUnit</text>
</a>
</g>
</g>
<!-- pyVHDLModel.VHDLModel.PrimaryUnit -->
<g id="node8" class="node">
<title>pyVHDLModel.VHDLModel.PrimaryUnit</title>
<g id="a_node8"><a xlink:title="A ``PrimaryUnit`` is a base&#45;class for all primary units.">
<polygon fill="none" stroke="#000000" stroke-width=".5" points="731,-37 525,-37 525,-18 731,-18 731,-37"/>
<text text-anchor="middle" x="628" y="-25" font-family="Vera Sans, DejaVu Sans, Liberation Sans, Arial, Helvetica, sans" font-size="10.00" fill="#000000">pyVHDLModel.VHDLModel.PrimaryUnit</text>
</a>
</g>
</g>
<!-- pyVHDLModel.VHDLModel.DesignUnit&#45;&gt;pyVHDLModel.VHDLModel.PrimaryUnit -->
<g id="edge7" class="edge">
<title>pyVHDLModel.VHDLModel.DesignUnit&#45;&gt;pyVHDLModel.VHDLModel.PrimaryUnit</title>
<path fill="none" stroke="#000000" stroke-width=".5" d="M448.3706,-27.5C471.4418,-27.5 496.0601,-27.5 519.4388,-27.5"/>
<polygon fill="#000000" stroke="#000000" stroke-width=".5" points="519.7208,-29.2501 524.7207,-27.5 519.7207,-25.7501 519.7208,-29.2501"/>
</g>
<!-- pyVHDLModel.VHDLModel.ModelEntity -->
<g id="node5" class="node">
<title>pyVHDLModel.VHDLModel.ModelEntity</title>
<g id="a_node5"><a xlink:title="``ModelEntity`` is the base class for all classes in the VHDL language model,">
<polygon fill="none" stroke="#000000" stroke-width=".5" points="208,-56 3,-56 3,-37 208,-37 208,-56"/>
<text text-anchor="middle" x="105.5" y="-44" font-family="Vera Sans, DejaVu Sans, Liberation Sans, Arial, Helvetica, sans" font-size="10.00" fill="#000000">pyVHDLModel.VHDLModel.ModelEntity</text>
</a>
</g>
</g>
<!-- pyVHDLModel.VHDLModel.ModelEntity&#45;&gt;pyVHDLModel.VHDLModel.DesignUnit -->
<g id="edge3" class="edge">
<title>pyVHDLModel.VHDLModel.ModelEntity&#45;&gt;pyVHDLModel.VHDLModel.DesignUnit</title>
<path fill="none" stroke="#000000" stroke-width=".5" d="M208.1298,-38.4423C219.1894,-37.574 230.4586,-36.6892 241.5563,-35.8179"/>
<polygon fill="#000000" stroke="#000000" stroke-width=".5" points="241.7941,-37.5547 246.6417,-35.4186 241.5201,-34.0654 241.7941,-37.5547"/>
</g>
<!-- pyVHDLModel.VHDLModel.NamedEntity -->
<g id="node6" class="node">
<title>pyVHDLModel.VHDLModel.NamedEntity</title>
<g id="a_node6"><a xlink:title="A ``NamedEntity`` is a mixin class for all VHDL entities that have identifiers.">
<polygon fill="none" stroke="#000000" stroke-width=".5" points="211,-19 0,-19 0,0 211,0 211,-19"/>
<text text-anchor="middle" x="105.5" y="-7" font-family="Vera Sans, DejaVu Sans, Liberation Sans, Arial, Helvetica, sans" font-size="10.00" fill="#000000">pyVHDLModel.VHDLModel.NamedEntity</text>
</a>
</g>
</g>
<!-- pyVHDLModel.VHDLModel.NamedEntity&#45;&gt;pyVHDLModel.VHDLModel.DesignUnit -->
<g id="edge4" class="edge">
<title>pyVHDLModel.VHDLModel.NamedEntity&#45;&gt;pyVHDLModel.VHDLModel.DesignUnit</title>
<path fill="none" stroke="#000000" stroke-width=".5" d="M211.2927,-17.3689C221.3651,-18.1181 231.5804,-18.8779 241.6533,-19.6271"/>
<polygon fill="#000000" stroke="#000000" stroke-width=".5" points="241.7902,-21.392 246.9063,-20.0178 242.0499,-17.9017 241.7902,-21.392"/>
</g>
<!-- pyVHDLModel.VHDLModel.MixinDesignUnitWithContext -->
<g id="node7" class="node">
<title>pyVHDLModel.VHDLModel.MixinDesignUnitWithContext</title>
<g id="a_node7"><a xlink:title="A ``DesignUnitWithReferences`` is a base&#45;class for all design units with contexts.">
<polygon fill="none" stroke="#000000" stroke-width=".5" points="772,-74 484,-74 484,-55 772,-55 772,-74"/>
<text text-anchor="middle" x="628" y="-62" font-family="Vera Sans, DejaVu Sans, Liberation Sans, Arial, Helvetica, sans" font-size="10.00" fill="#000000">pyVHDLModel.VHDLModel.MixinDesignUnitWithContext</text>
</a>
</g>
</g>
<!-- pyVHDLModel.VHDLModel.MixinDesignUnitWithContext&#45;&gt;pyVHDLModel.VHDLModel.Package -->
<g id="edge6" class="edge">
<title>pyVHDLModel.VHDLModel.MixinDesignUnitWithContext&#45;&gt;pyVHDLModel.VHDLModel.Package</title>
<path fill="none" stroke="#000000" stroke-width=".5" d="M765.4014,-54.9722C777.9029,-54.1053 790.3999,-53.2387 802.4761,-52.4013"/>
<polygon fill="#000000" stroke="#000000" stroke-width=".5" points="802.7577,-54.1361 807.6246,-52.0443 802.5155,-50.6444 802.7577,-54.1361"/>
</g>
<!-- pyVHDLModel.VHDLModel.PrimaryUnit&#45;&gt;pyVHDLModel.VHDLModel.Package -->
<g id="edge5" class="edge">
<title>pyVHDLModel.VHDLModel.PrimaryUnit&#45;&gt;pyVHDLModel.VHDLModel.Package</title>
<path fill="none" stroke="#000000" stroke-width=".5" d="M731.1972,-34.2794C754.6089,-35.8174 779.4253,-37.4476 802.6725,-38.9748"/>
<polygon fill="#000000" stroke="#000000" stroke-width=".5" points="802.8149,-40.7379 807.9189,-39.3195 803.0444,-37.2454 802.8149,-40.7379"/>
</g>
</g>
</svg>
