<?xml version="1.0" encoding="UTF-8" standalone="no"?>
<!DOCTYPE svg PUBLIC "-//W3C//DTD SVG 1.1//EN"
 "http://www.w3.org/Graphics/SVG/1.1/DTD/svg11.dtd">
<!-- Generated by graphviz version 2.40.1 (20161225.0304)
 -->
<!-- Title: inheritancedcbbd7a22d Pages: 1 -->
<svg width="576pt" height="23pt"
 viewBox="0.00 0.00 576.00 23.44" xmlns="http://www.w3.org/2000/svg" xmlns:xlink="http://www.w3.org/1999/xlink">
<g id="graph0" class="graph" transform="scale(.3662 .3662) rotate(0) translate(4 60)">
<title>inheritancedcbbd7a22d</title>
<polygon fill="#ffffff" stroke="transparent" points="-4,4 -4,-60 1569,-60 1569,4 -4,4"/>
<!-- pyGHDL.dom.DOMMixin -->
<g id="node1" class="node">
<title>pyGHDL.dom.DOMMixin</title>
<g id="a_node1"><a xlink:href="../pyGHDL.dom.html#pyGHDL.dom.DOMMixin" xlink:title="pyGHDL.dom.DOMMixin" target="_top">
<polygon fill="none" stroke="#000000" stroke-width=".5" points="1241.5,-56 1107.5,-56 1107.5,-37 1241.5,-37 1241.5,-56"/>
<text text-anchor="middle" x="1174.5" y="-44" font-family="Vera Sans, DejaVu Sans, Liberation Sans, Arial, Helvetica, sans" font-size="10.00" fill="#000000">pyGHDL.dom.DOMMixin</text>
</a>
</g>
</g>
<!-- pyGHDL.dom.Expression.UnequalExpression -->
<g id="node2" class="node">
<title>pyGHDL.dom.Expression.UnequalExpression</title>
<g id="a_node2"><a xlink:href="../pyGHDL/pyGHDL.dom.Expression.html#pyGHDL.dom.Expression.UnequalExpression" xlink:title="pyGHDL.dom.Expression.UnequalExpression" target="_top">
<polygon fill="none" stroke="#000000" stroke-width=".5" points="1565,-37 1331,-37 1331,-18 1565,-18 1565,-37"/>
<text text-anchor="middle" x="1448" y="-25" font-family="Vera Sans, DejaVu Sans, Liberation Sans, Arial, Helvetica, sans" font-size="10.00" fill="#000000">pyGHDL.dom.Expression.UnequalExpression</text>
</a>
</g>
</g>
<!-- pyGHDL.dom.DOMMixin&#45;&gt;pyGHDL.dom.Expression.UnequalExpression -->
<g id="edge2" class="edge">
<title>pyGHDL.dom.DOMMixin&#45;&gt;pyGHDL.dom.Expression.UnequalExpression</title>
<path fill="none" stroke="#000000" stroke-width=".5" d="M1241.7559,-41.8277C1267.1736,-40.062 1296.9539,-37.9931 1325.8541,-35.9855"/>
<polygon fill="#000000" stroke="#000000" stroke-width=".5" points="1325.9933,-37.7301 1330.8599,-35.6377 1325.7506,-34.2385 1325.9933,-37.7301"/>
</g>
<!-- pyVHDLModel.VHDLModel.UnequalExpression -->
<g id="node3" class="node">
<title>pyVHDLModel.VHDLModel.UnequalExpression</title>
<polygon fill="none" stroke="#000000" stroke-width=".5" points="1295,-19 1054,-19 1054,0 1295,0 1295,-19"/>
<text text-anchor="middle" x="1174.5" y="-7" font-family="Vera Sans, DejaVu Sans, Liberation Sans, Arial, Helvetica, sans" font-size="10.00" fill="#000000">pyVHDLModel.VHDLModel.UnequalExpression</text>
</g>
<!-- pyVHDLModel.VHDLModel.UnequalExpression&#45;&gt;pyGHDL.dom.Expression.UnequalExpression -->
<g id="edge1" class="edge">
<title>pyVHDLModel.VHDLModel.UnequalExpression&#45;&gt;pyGHDL.dom.Expression.UnequalExpression</title>
<path fill="none" stroke="#000000" stroke-width=".5" d="M1295.2572,-17.4475C1305.2496,-18.1051 1315.3574,-18.7703 1325.3634,-19.4289"/>
<polygon fill="#000000" stroke="#000000" stroke-width=".5" points="1325.4813,-21.1903 1330.5854,-19.7725 1325.7112,-17.6979 1325.4813,-21.1903"/>
</g>
<!-- pyVHDLModel.VHDLModel.BaseExpression -->
<g id="node4" class="node">
<title>pyVHDLModel.VHDLModel.BaseExpression</title>
<g id="a_node4"><a xlink:title="A ``BaseExpression`` is a base&#45;class for all expressions.">
<polygon fill="none" stroke="#000000" stroke-width=".5" points="465,-19 241,-19 241,0 465,0 465,-19"/>
<text text-anchor="middle" x="353" y="-7" font-family="Vera Sans, DejaVu Sans, Liberation Sans, Arial, Helvetica, sans" font-size="10.00" fill="#000000">pyVHDLModel.VHDLModel.BaseExpression</text>
</a>
</g>
</g>
<!-- pyVHDLModel.VHDLModel.BinaryExpression -->
<g id="node6" class="node">
<title>pyVHDLModel.VHDLModel.BinaryExpression</title>
<g id="a_node6"><a xlink:title="A ``BinaryExpression`` is a base&#45;class for all binary expressions.">
<polygon fill="none" stroke="#000000" stroke-width=".5" points="733,-19 501,-19 501,0 733,0 733,-19"/>
<text text-anchor="middle" x="617" y="-7" font-family="Vera Sans, DejaVu Sans, Liberation Sans, Arial, Helvetica, sans" font-size="10.00" fill="#000000">pyVHDLModel.VHDLModel.BinaryExpression</text>
</a>
</g>
</g>
<!-- pyVHDLModel.VHDLModel.BaseExpression&#45;&gt;pyVHDLModel.VHDLModel.BinaryExpression -->
<g id="edge4" class="edge">
<title>pyVHDLModel.VHDLModel.BaseExpression&#45;&gt;pyVHDLModel.VHDLModel.BinaryExpression</title>
<path fill="none" stroke="#000000" stroke-width=".5" d="M465.3426,-9.5C475.3813,-9.5 485.5751,-9.5 495.6849,-9.5"/>
<polygon fill="#000000" stroke="#000000" stroke-width=".5" points="495.9627,-11.2501 500.9627,-9.5 495.9626,-7.7501 495.9627,-11.2501"/>
</g>
<!-- pyVHDLModel.VHDLModel.ModelEntity -->
<g id="node5" class="node">
<title>pyVHDLModel.VHDLModel.ModelEntity</title>
<g id="a_node5"><a xlink:title="``ModelEntity`` is the base class for all classes in the VHDL language model,">
<polygon fill="none" stroke="#000000" stroke-width=".5" points="205,-19 0,-19 0,0 205,0 205,-19"/>
<text text-anchor="middle" x="102.5" y="-7" font-family="Vera Sans, DejaVu Sans, Liberation Sans, Arial, Helvetica, sans" font-size="10.00" fill="#000000">pyVHDLModel.VHDLModel.ModelEntity</text>
</a>
</g>
</g>
<!-- pyVHDLModel.VHDLModel.ModelEntity&#45;&gt;pyVHDLModel.VHDLModel.BaseExpression -->
<g id="edge3" class="edge">
<title>pyVHDLModel.VHDLModel.ModelEntity&#45;&gt;pyVHDLModel.VHDLModel.BaseExpression</title>
<path fill="none" stroke="#000000" stroke-width=".5" d="M205.1107,-9.5C215.2127,-9.5 225.5179,-9.5 235.7516,-9.5"/>
<polygon fill="#000000" stroke="#000000" stroke-width=".5" points="235.7685,-11.2501 240.7685,-9.5 235.7684,-7.7501 235.7685,-11.2501"/>
</g>
<!-- pyVHDLModel.VHDLModel.RelationalExpression -->
<g id="node7" class="node">
<title>pyVHDLModel.VHDLModel.RelationalExpression</title>
<g id="a_node7"><a xlink:title="A ``RelationalExpression`` is a base&#45;class for all shifting expressions.">
<polygon fill="none" stroke="#000000" stroke-width=".5" points="1018,-19 769,-19 769,0 1018,0 1018,-19"/>
<text text-anchor="middle" x="893.5" y="-7" font-family="Vera Sans, DejaVu Sans, Liberation Sans, Arial, Helvetica, sans" font-size="10.00" fill="#000000">pyVHDLModel.VHDLModel.RelationalExpression</text>
</a>
</g>
</g>
<!-- pyVHDLModel.VHDLModel.BinaryExpression&#45;&gt;pyVHDLModel.VHDLModel.RelationalExpression -->
<g id="edge5" class="edge">
<title>pyVHDLModel.VHDLModel.BinaryExpression&#45;&gt;pyVHDLModel.VHDLModel.RelationalExpression</title>
<path fill="none" stroke="#000000" stroke-width=".5" d="M733.0591,-9.5C743.2195,-9.5 753.544,-9.5 763.8055,-9.5"/>
<polygon fill="#000000" stroke="#000000" stroke-width=".5" points="763.837,-11.2501 768.8369,-9.5 763.8369,-7.7501 763.837,-11.2501"/>
</g>
<!-- pyVHDLModel.VHDLModel.RelationalExpression&#45;&gt;pyVHDLModel.VHDLModel.UnequalExpression -->
<g id="edge6" class="edge">
<title>pyVHDLModel.VHDLModel.RelationalExpression&#45;&gt;pyVHDLModel.VHDLModel.UnequalExpression</title>
<path fill="none" stroke="#000000" stroke-width=".5" d="M1018.3871,-9.5C1028.3728,-9.5 1038.465,-9.5 1048.4585,-9.5"/>
<polygon fill="#000000" stroke="#000000" stroke-width=".5" points="1048.6745,-11.2501 1053.6744,-9.5 1048.6744,-7.7501 1048.6745,-11.2501"/>
</g>
</g>
</svg>
