<?xml version="1.0" encoding="UTF-8" standalone="no"?>
<!DOCTYPE svg PUBLIC "-//W3C//DTD SVG 1.1//EN"
 "http://www.w3.org/Graphics/SVG/1.1/DTD/svg11.dtd">
<!-- Generated by graphviz version 2.40.1 (20161225.0304)
 -->
<!-- Title: inheritancead6e118d80 Pages: 1 -->
<svg width="576pt" height="46pt"
 viewBox="0.00 0.00 576.00 45.92" xmlns="http://www.w3.org/2000/svg" xmlns:xlink="http://www.w3.org/1999/xlink">
<g id="graph0" class="graph" transform="scale(.3328 .3328) rotate(0) translate(4 134)">
<title>inheritancead6e118d80</title>
<polygon fill="#ffffff" stroke="transparent" points="-4,4 -4,-134 1727,-134 1727,4 -4,4"/>
<!-- pyGHDL.dom.DOMMixin -->
<g id="node1" class="node">
<title>pyGHDL.dom.DOMMixin</title>
<g id="a_node1"><a xlink:href="../pyGHDL.dom.html#pyGHDL.dom.DOMMixin" xlink:title="pyGHDL.dom.DOMMixin" target="_top">
<polygon fill="none" stroke="#000000" stroke-width=".5" points="1287.5,-93 1153.5,-93 1153.5,-74 1287.5,-74 1287.5,-93"/>
<text text-anchor="middle" x="1220.5" y="-81" font-family="Vera Sans, DejaVu Sans, Liberation Sans, Arial, Helvetica, sans" font-size="10.00" fill="#000000">pyGHDL.dom.DOMMixin</text>
</a>
</g>
</g>
<!-- pyGHDL.dom.InterfaceItem.ParameterConstantInterfaceItem -->
<g id="node2" class="node">
<title>pyGHDL.dom.InterfaceItem.ParameterConstantInterfaceItem</title>
<g id="a_node2"><a xlink:href="../pyGHDL/pyGHDL.dom.InterfaceItem.html#pyGHDL.dom.InterfaceItem.ParameterConstantInterfaceItem" xlink:title="pyGHDL.dom.InterfaceItem.ParameterConstantInterfaceItem" target="_top">
<polygon fill="none" stroke="#000000" stroke-width=".5" points="1723,-74 1410,-74 1410,-55 1723,-55 1723,-74"/>
<text text-anchor="middle" x="1566.5" y="-62" font-family="Vera Sans, DejaVu Sans, Liberation Sans, Arial, Helvetica, sans" font-size="10.00" fill="#000000">pyGHDL.dom.InterfaceItem.ParameterConstantInterfaceItem</text>
</a>
</g>
</g>
<!-- pyGHDL.dom.DOMMixin&#45;&gt;pyGHDL.dom.InterfaceItem.ParameterConstantInterfaceItem -->
<g id="edge2" class="edge">
<title>pyGHDL.dom.DOMMixin&#45;&gt;pyGHDL.dom.InterfaceItem.ParameterConstantInterfaceItem</title>
<path fill="none" stroke="#000000" stroke-width=".5" d="M1287.6225,-79.8141C1321.2368,-77.9682 1363.5163,-75.6465 1404.9196,-73.3729"/>
<polygon fill="#000000" stroke="#000000" stroke-width=".5" points="1405.0674,-75.1175 1409.9638,-73.0959 1404.8754,-71.6228 1405.0674,-75.1175"/>
</g>
<!-- pyVHDLModel.VHDLModel.ParameterConstantInterfaceItem -->
<g id="node3" class="node">
<title>pyVHDLModel.VHDLModel.ParameterConstantInterfaceItem</title>
<polygon fill="none" stroke="#000000" stroke-width=".5" points="1374,-56 1067,-56 1067,-37 1374,-37 1374,-56"/>
<text text-anchor="middle" x="1220.5" y="-44" font-family="Vera Sans, DejaVu Sans, Liberation Sans, Arial, Helvetica, sans" font-size="10.00" fill="#000000">pyVHDLModel.VHDLModel.ParameterConstantInterfaceItem</text>
</g>
<!-- pyVHDLModel.VHDLModel.ParameterConstantInterfaceItem&#45;&gt;pyGHDL.dom.InterfaceItem.ParameterConstantInterfaceItem -->
<g id="edge1" class="edge">
<title>pyVHDLModel.VHDLModel.ParameterConstantInterfaceItem&#45;&gt;pyGHDL.dom.InterfaceItem.ParameterConstantInterfaceItem</title>
<path fill="none" stroke="#000000" stroke-width=".5" d="M1374.0236,-54.4868C1384.2683,-55.0197 1394.6052,-55.5575 1404.8882,-56.0925"/>
<polygon fill="#000000" stroke="#000000" stroke-width=".5" points="1404.8471,-57.8426 1409.9313,-56.3548 1405.029,-54.3473 1404.8471,-57.8426"/>
</g>
<!-- pyVHDLModel.VHDLModel.BaseConstant -->
<g id="node4" class="node">
<title>pyVHDLModel.VHDLModel.BaseConstant</title>
<polygon fill="none" stroke="#000000" stroke-width=".5" points="697,-111 482,-111 482,-92 697,-92 697,-111"/>
<text text-anchor="middle" x="589.5" y="-99" font-family="Vera Sans, DejaVu Sans, Liberation Sans, Arial, Helvetica, sans" font-size="10.00" fill="#000000">pyVHDLModel.VHDLModel.BaseConstant</text>
</g>
<!-- pyVHDLModel.VHDLModel.Constant -->
<g id="node6" class="node">
<title>pyVHDLModel.VHDLModel.Constant</title>
<polygon fill="none" stroke="#000000" stroke-width=".5" points="995,-93 804,-93 804,-74 995,-74 995,-93"/>
<text text-anchor="middle" x="899.5" y="-81" font-family="Vera Sans, DejaVu Sans, Liberation Sans, Arial, Helvetica, sans" font-size="10.00" fill="#000000">pyVHDLModel.VHDLModel.Constant</text>
</g>
<!-- pyVHDLModel.VHDLModel.BaseConstant&#45;&gt;pyVHDLModel.VHDLModel.Constant -->
<g id="edge4" class="edge">
<title>pyVHDLModel.VHDLModel.BaseConstant&#45;&gt;pyVHDLModel.VHDLModel.Constant</title>
<path fill="none" stroke="#000000" stroke-width=".5" d="M697.053,-95.255C730.0027,-93.3418 766.1182,-91.2447 798.6071,-89.3583"/>
<polygon fill="#000000" stroke="#000000" stroke-width=".5" points="798.8991,-91.0944 803.7892,-89.0574 798.6962,-87.6003 798.8991,-91.0944"/>
</g>
<!-- pyVHDLModel.VHDLModel.Obj -->
<g id="node5" class="node">
<title>pyVHDLModel.VHDLModel.Obj</title>
<polygon fill="none" stroke="#000000" stroke-width=".5" points="411,-111 247,-111 247,-92 411,-92 411,-111"/>
<text text-anchor="middle" x="329" y="-99" font-family="Vera Sans, DejaVu Sans, Liberation Sans, Arial, Helvetica, sans" font-size="10.00" fill="#000000">pyVHDLModel.VHDLModel.Obj</text>
</g>
<!-- pyVHDLModel.VHDLModel.Obj&#45;&gt;pyVHDLModel.VHDLModel.BaseConstant -->
<g id="edge3" class="edge">
<title>pyVHDLModel.VHDLModel.Obj&#45;&gt;pyVHDLModel.VHDLModel.BaseConstant</title>
<path fill="none" stroke="#000000" stroke-width=".5" d="M411.0663,-101.5C431.7764,-101.5 454.3784,-101.5 476.3226,-101.5"/>
<polygon fill="#000000" stroke="#000000" stroke-width=".5" points="476.5863,-103.2501 481.5863,-101.5 476.5863,-99.7501 476.5863,-103.2501"/>
</g>
<!-- pyVHDLModel.VHDLModel.Constant&#45;&gt;pyVHDLModel.VHDLModel.ParameterConstantInterfaceItem -->
<g id="edge8" class="edge">
<title>pyVHDLModel.VHDLModel.Constant&#45;&gt;pyVHDLModel.VHDLModel.ParameterConstantInterfaceItem</title>
<path fill="none" stroke="#000000" stroke-width=".5" d="M982.1655,-73.9716C1028.3175,-68.6519 1085.7988,-62.0263 1132.7472,-56.6148"/>
<polygon fill="#000000" stroke="#000000" stroke-width=".5" points="1133.0695,-58.3393 1137.8362,-56.0282 1132.6686,-54.8624 1133.0695,-58.3393"/>
</g>
<!-- pyVHDLModel.VHDLModel.WithDefaultExpressionMixin -->
<g id="node7" class="node">
<title>pyVHDLModel.VHDLModel.WithDefaultExpressionMixin</title>
<g id="a_node7"><a xlink:title="A ``WithDefaultExpression`` is a mixin class for all objects declarations">
<polygon fill="none" stroke="#000000" stroke-width=".5" points="732,-74 447,-74 447,-55 732,-55 732,-74"/>
<text text-anchor="middle" x="589.5" y="-62" font-family="Vera Sans, DejaVu Sans, Liberation Sans, Arial, Helvetica, sans" font-size="10.00" fill="#000000">pyVHDLModel.VHDLModel.WithDefaultExpressionMixin</text>
</a>
</g>
</g>
<!-- pyVHDLModel.VHDLModel.WithDefaultExpressionMixin&#45;&gt;pyVHDLModel.VHDLModel.Constant -->
<g id="edge5" class="edge">
<title>pyVHDLModel.VHDLModel.WithDefaultExpressionMixin&#45;&gt;pyVHDLModel.VHDLModel.Constant</title>
<path fill="none" stroke="#000000" stroke-width=".5" d="M732.2506,-73.2492C754.7588,-74.6288 777.6137,-76.0295 798.9007,-77.3342"/>
<polygon fill="#000000" stroke="#000000" stroke-width=".5" points="798.8915,-79.0869 803.9892,-77.6461 799.1056,-75.5934 798.8915,-79.0869"/>
</g>
<!-- pyVHDLModel.VHDLModel.InterfaceItem -->
<g id="node8" class="node">
<title>pyVHDLModel.VHDLModel.InterfaceItem</title>
<g id="a_node8"><a xlink:title="An ``InterfaceItem`` is a base&#45;class for all mixin&#45;classes for all interface">
<polygon fill="none" stroke="#000000" stroke-width=".5" points="696,-19 483,-19 483,0 696,0 696,-19"/>
<text text-anchor="middle" x="589.5" y="-7" font-family="Vera Sans, DejaVu Sans, Liberation Sans, Arial, Helvetica, sans" font-size="10.00" fill="#000000">pyVHDLModel.VHDLModel.InterfaceItem</text>
</a>
</g>
</g>
<!-- pyVHDLModel.VHDLModel.ParameterInterfaceItem -->
<g id="node12" class="node">
<title>pyVHDLModel.VHDLModel.ParameterInterfaceItem</title>
<g id="a_node12"><a xlink:title="A ``ParameterInterfaceItem`` is a mixin class for all parameter interface items.">
<polygon fill="none" stroke="#000000" stroke-width=".5" points="1031,-19 768,-19 768,0 1031,0 1031,-19"/>
<text text-anchor="middle" x="899.5" y="-7" font-family="Vera Sans, DejaVu Sans, Liberation Sans, Arial, Helvetica, sans" font-size="10.00" fill="#000000">pyVHDLModel.VHDLModel.ParameterInterfaceItem</text>
</a>
</g>
</g>
<!-- pyVHDLModel.VHDLModel.InterfaceItem&#45;&gt;pyVHDLModel.VHDLModel.ParameterInterfaceItem -->
<g id="edge11" class="edge">
<title>pyVHDLModel.VHDLModel.InterfaceItem&#45;&gt;pyVHDLModel.VHDLModel.ParameterInterfaceItem</title>
<path fill="none" stroke="#000000" stroke-width=".5" d="M696.1844,-9.5C717.6774,-9.5 740.5476,-9.5 762.9,-9.5"/>
<polygon fill="#000000" stroke="#000000" stroke-width=".5" points="762.9619,-11.2501 767.9619,-9.5 762.9618,-7.7501 762.9619,-11.2501"/>
</g>
<!-- pyVHDLModel.VHDLModel.InterfaceItemWithMode -->
<g id="node9" class="node">
<title>pyVHDLModel.VHDLModel.InterfaceItemWithMode</title>
<g id="a_node9"><a xlink:title="An ``InterfaceItemWithMode`` is a mixin&#45;class to provide a ``Mode`` to">
<polygon fill="none" stroke="#000000" stroke-width=".5" points="1030.5,-56 768.5,-56 768.5,-37 1030.5,-37 1030.5,-56"/>
<text text-anchor="middle" x="899.5" y="-44" font-family="Vera Sans, DejaVu Sans, Liberation Sans, Arial, Helvetica, sans" font-size="10.00" fill="#000000">pyVHDLModel.VHDLModel.InterfaceItemWithMode</text>
</a>
</g>
</g>
<!-- pyVHDLModel.VHDLModel.InterfaceItemWithMode&#45;&gt;pyVHDLModel.VHDLModel.ParameterConstantInterfaceItem -->
<g id="edge10" class="edge">
<title>pyVHDLModel.VHDLModel.InterfaceItemWithMode&#45;&gt;pyVHDLModel.VHDLModel.ParameterConstantInterfaceItem</title>
<path fill="none" stroke="#000000" stroke-width=".5" d="M1030.526,-46.5C1040.8056,-46.5 1051.2523,-46.5 1061.6895,-46.5"/>
<polygon fill="#000000" stroke="#000000" stroke-width=".5" points="1061.8117,-48.2501 1066.8117,-46.5 1061.8117,-44.7501 1061.8117,-48.2501"/>
</g>
<!-- pyVHDLModel.VHDLModel.ModelEntity -->
<g id="node10" class="node">
<title>pyVHDLModel.VHDLModel.ModelEntity</title>
<g id="a_node10"><a xlink:title="``ModelEntity`` is the base class for all classes in the VHDL language model,">
<polygon fill="none" stroke="#000000" stroke-width=".5" points="208,-130 3,-130 3,-111 208,-111 208,-130"/>
<text text-anchor="middle" x="105.5" y="-118" font-family="Vera Sans, DejaVu Sans, Liberation Sans, Arial, Helvetica, sans" font-size="10.00" fill="#000000">pyVHDLModel.VHDLModel.ModelEntity</text>
</a>
</g>
</g>
<!-- pyVHDLModel.VHDLModel.ModelEntity&#45;&gt;pyVHDLModel.VHDLModel.Obj -->
<g id="edge6" class="edge">
<title>pyVHDLModel.VHDLModel.ModelEntity&#45;&gt;pyVHDLModel.VHDLModel.Obj</title>
<path fill="none" stroke="#000000" stroke-width=".5" d="M208.0921,-111.7785C219.3372,-110.8226 230.7068,-109.856 241.7413,-108.918"/>
<polygon fill="#000000" stroke="#000000" stroke-width=".5" points="241.9522,-110.6564 246.786,-108.4891 241.6557,-107.169 241.9522,-110.6564"/>
</g>
<!-- pyVHDLModel.VHDLModel.NamedEntity -->
<g id="node11" class="node">
<title>pyVHDLModel.VHDLModel.NamedEntity</title>
<g id="a_node11"><a xlink:title="A ``NamedEntity`` is a mixin class for all VHDL entities that have identifiers.">
<polygon fill="none" stroke="#000000" stroke-width=".5" points="211,-93 0,-93 0,-74 211,-74 211,-93"/>
<text text-anchor="middle" x="105.5" y="-81" font-family="Vera Sans, DejaVu Sans, Liberation Sans, Arial, Helvetica, sans" font-size="10.00" fill="#000000">pyVHDLModel.VHDLModel.NamedEntity</text>
</a>
</g>
</g>
<!-- pyVHDLModel.VHDLModel.NamedEntity&#45;&gt;pyVHDLModel.VHDLModel.Obj -->
<g id="edge7" class="edge">
<title>pyVHDLModel.VHDLModel.NamedEntity&#45;&gt;pyVHDLModel.VHDLModel.Obj</title>
<path fill="none" stroke="#000000" stroke-width=".5" d="M211.0324,-91.9993C221.2346,-92.8209 231.5062,-93.6482 241.5056,-94.4535"/>
<polygon fill="#000000" stroke="#000000" stroke-width=".5" points="241.5836,-96.2153 246.708,-94.8725 241.8646,-92.7266 241.5836,-96.2153"/>
</g>
<!-- pyVHDLModel.VHDLModel.ParameterInterfaceItem&#45;&gt;pyVHDLModel.VHDLModel.ParameterConstantInterfaceItem -->
<g id="edge9" class="edge">
<title>pyVHDLModel.VHDLModel.ParameterInterfaceItem&#45;&gt;pyVHDLModel.VHDLModel.ParameterConstantInterfaceItem</title>
<path fill="none" stroke="#000000" stroke-width=".5" d="M982.1655,-19.0284C1028.3175,-24.3481 1085.7988,-30.9737 1132.7472,-36.3852"/>
<polygon fill="#000000" stroke="#000000" stroke-width=".5" points="1132.6686,-38.1376 1137.8362,-36.9718 1133.0695,-34.6607 1132.6686,-38.1376"/>
</g>
</g>
</svg>
