<?xml version="1.0" encoding="UTF-8" standalone="no"?>
<!DOCTYPE svg PUBLIC "-//W3C//DTD SVG 1.1//EN"
 "http://www.w3.org/Graphics/SVG/1.1/DTD/svg11.dtd">
<!-- Generated by graphviz version 2.40.1 (20161225.0304)
 -->
<!-- Title: inheritance56d7938ba6 Pages: 1 -->
<svg width="576pt" height="29pt"
 viewBox="0.00 0.00 576.00 28.80" xmlns="http://www.w3.org/2000/svg" xmlns:xlink="http://www.w3.org/1999/xlink">
<g id="graph0" class="graph" transform="scale(.45 .45) rotate(0) translate(4 60)">
<title>inheritance56d7938ba6</title>
<polygon fill="#ffffff" stroke="transparent" points="-4,4 -4,-60 1276,-60 1276,4 -4,4"/>
<!-- pyGHDL.dom.DOMMixin -->
<g id="node1" class="node">
<title>pyGHDL.dom.DOMMixin</title>
<g id="a_node1"><a xlink:href="../pyGHDL.dom.html#pyGHDL.dom.DOMMixin" xlink:title="pyGHDL.dom.DOMMixin" target="_top">
<polygon fill="none" stroke="#000000" stroke-width=".5" points="953,-56 819,-56 819,-37 953,-37 953,-56"/>
<text text-anchor="middle" x="886" y="-44" font-family="Vera Sans, DejaVu Sans, Liberation Sans, Arial, Helvetica, sans" font-size="10.00" fill="#000000">pyGHDL.dom.DOMMixin</text>
</a>
</g>
</g>
<!-- pyGHDL.dom.Expression.IdentityExpression -->
<g id="node2" class="node">
<title>pyGHDL.dom.Expression.IdentityExpression</title>
<g id="a_node2"><a xlink:href="../pyGHDL/pyGHDL.dom.Expression.html#pyGHDL.dom.Expression.IdentityExpression" xlink:title="pyGHDL.dom.Expression.IdentityExpression" target="_top">
<polygon fill="none" stroke="#000000" stroke-width=".5" points="1272,-37 1041,-37 1041,-18 1272,-18 1272,-37"/>
<text text-anchor="middle" x="1156.5" y="-25" font-family="Vera Sans, DejaVu Sans, Liberation Sans, Arial, Helvetica, sans" font-size="10.00" fill="#000000">pyGHDL.dom.Expression.IdentityExpression</text>
</a>
</g>
</g>
<!-- pyGHDL.dom.DOMMixin&#45;&gt;pyGHDL.dom.Expression.IdentityExpression -->
<g id="edge2" class="edge">
<title>pyGHDL.dom.DOMMixin&#45;&gt;pyGHDL.dom.Expression.IdentityExpression</title>
<path fill="none" stroke="#000000" stroke-width=".5" d="M953.2127,-41.779C978.1802,-40.0252 1007.3304,-37.9777 1035.6311,-35.9899"/>
<polygon fill="#000000" stroke="#000000" stroke-width=".5" points="1036.0393,-37.7156 1040.9044,-35.6195 1035.794,-34.2242 1036.0393,-37.7156"/>
</g>
<!-- pyVHDLModel.VHDLModel.IdentityExpression -->
<g id="node3" class="node">
<title>pyVHDLModel.VHDLModel.IdentityExpression</title>
<polygon fill="none" stroke="#000000" stroke-width=".5" points="1005,-19 767,-19 767,0 1005,0 1005,-19"/>
<text text-anchor="middle" x="886" y="-7" font-family="Vera Sans, DejaVu Sans, Liberation Sans, Arial, Helvetica, sans" font-size="10.00" fill="#000000">pyVHDLModel.VHDLModel.IdentityExpression</text>
</g>
<!-- pyVHDLModel.VHDLModel.IdentityExpression&#45;&gt;pyGHDL.dom.Expression.IdentityExpression -->
<g id="edge1" class="edge">
<title>pyVHDLModel.VHDLModel.IdentityExpression&#45;&gt;pyGHDL.dom.Expression.IdentityExpression</title>
<path fill="none" stroke="#000000" stroke-width=".5" d="M1005.0389,-17.4213C1015.2709,-18.1021 1025.6285,-18.7914 1035.8728,-19.4731"/>
<polygon fill="#000000" stroke="#000000" stroke-width=".5" points="1035.7865,-21.2211 1040.8917,-19.807 1036.019,-17.7288 1035.7865,-21.2211"/>
</g>
<!-- pyVHDLModel.VHDLModel.BaseExpression -->
<g id="node4" class="node">
<title>pyVHDLModel.VHDLModel.BaseExpression</title>
<g id="a_node4"><a xlink:title="A ``BaseExpression`` is a base&#45;class for all expressions.">
<polygon fill="none" stroke="#000000" stroke-width=".5" points="465,-19 241,-19 241,0 465,0 465,-19"/>
<text text-anchor="middle" x="353" y="-7" font-family="Vera Sans, DejaVu Sans, Liberation Sans, Arial, Helvetica, sans" font-size="10.00" fill="#000000">pyVHDLModel.VHDLModel.BaseExpression</text>
</a>
</g>
</g>
<!-- pyVHDLModel.VHDLModel.UnaryExpression -->
<g id="node6" class="node">
<title>pyVHDLModel.VHDLModel.UnaryExpression</title>
<g id="a_node6"><a xlink:title="A ``UnaryExpression`` is a base&#45;class for all unary expressions.">
<polygon fill="none" stroke="#000000" stroke-width=".5" points="731,-19 501,-19 501,0 731,0 731,-19"/>
<text text-anchor="middle" x="616" y="-7" font-family="Vera Sans, DejaVu Sans, Liberation Sans, Arial, Helvetica, sans" font-size="10.00" fill="#000000">pyVHDLModel.VHDLModel.UnaryExpression</text>
</a>
</g>
</g>
<!-- pyVHDLModel.VHDLModel.BaseExpression&#45;&gt;pyVHDLModel.VHDLModel.UnaryExpression -->
<g id="edge5" class="edge">
<title>pyVHDLModel.VHDLModel.BaseExpression&#45;&gt;pyVHDLModel.VHDLModel.UnaryExpression</title>
<path fill="none" stroke="#000000" stroke-width=".5" d="M465.2985,-9.5C475.2853,-9.5 485.4231,-9.5 495.4748,-9.5"/>
<polygon fill="#000000" stroke="#000000" stroke-width=".5" points="495.7221,-11.2501 500.7221,-9.5 495.7221,-7.7501 495.7221,-11.2501"/>
</g>
<!-- pyVHDLModel.VHDLModel.ModelEntity -->
<g id="node5" class="node">
<title>pyVHDLModel.VHDLModel.ModelEntity</title>
<g id="a_node5"><a xlink:title="``ModelEntity`` is the base class for all classes in the VHDL language model,">
<polygon fill="none" stroke="#000000" stroke-width=".5" points="205,-19 0,-19 0,0 205,0 205,-19"/>
<text text-anchor="middle" x="102.5" y="-7" font-family="Vera Sans, DejaVu Sans, Liberation Sans, Arial, Helvetica, sans" font-size="10.00" fill="#000000">pyVHDLModel.VHDLModel.ModelEntity</text>
</a>
</g>
</g>
<!-- pyVHDLModel.VHDLModel.ModelEntity&#45;&gt;pyVHDLModel.VHDLModel.BaseExpression -->
<g id="edge3" class="edge">
<title>pyVHDLModel.VHDLModel.ModelEntity&#45;&gt;pyVHDLModel.VHDLModel.BaseExpression</title>
<path fill="none" stroke="#000000" stroke-width=".5" d="M205.1107,-9.5C215.2127,-9.5 225.5179,-9.5 235.7516,-9.5"/>
<polygon fill="#000000" stroke="#000000" stroke-width=".5" points="235.7685,-11.2501 240.7685,-9.5 235.7684,-7.7501 235.7685,-11.2501"/>
</g>
<!-- pyVHDLModel.VHDLModel.UnaryExpression&#45;&gt;pyVHDLModel.VHDLModel.IdentityExpression -->
<g id="edge4" class="edge">
<title>pyVHDLModel.VHDLModel.UnaryExpression&#45;&gt;pyVHDLModel.VHDLModel.IdentityExpression</title>
<path fill="none" stroke="#000000" stroke-width=".5" d="M731.2875,-9.5C741.296,-9.5 751.4522,-9.5 761.5297,-9.5"/>
<polygon fill="#000000" stroke="#000000" stroke-width=".5" points="761.7912,-11.2501 766.7912,-9.5 761.7912,-7.7501 761.7912,-11.2501"/>
</g>
</g>
</svg>
