<?xml version="1.0" encoding="UTF-8" standalone="no"?>
<!DOCTYPE svg PUBLIC "-//W3C//DTD SVG 1.1//EN"
 "http://www.w3.org/Graphics/SVG/1.1/DTD/svg11.dtd">
<!-- Generated by graphviz version 2.40.1 (20161225.0304)
 -->
<!-- Title: inheritance4604c22496 Pages: 1 -->
<svg width="576pt" height="42pt"
 viewBox="0.00 0.00 576.00 41.65" xmlns="http://www.w3.org/2000/svg" xmlns:xlink="http://www.w3.org/1999/xlink">
<g id="graph0" class="graph" transform="scale(.5079 .5079) rotate(0) translate(4 78)">
<title>inheritance4604c22496</title>
<polygon fill="#ffffff" stroke="transparent" points="-4,4 -4,-78 1130,-78 1130,4 -4,4"/>
<!-- pyGHDL.dom.DOMMixin -->
<g id="node1" class="node">
<title>pyGHDL.dom.DOMMixin</title>
<g id="a_node1"><a xlink:href="../pyGHDL.dom.html#pyGHDL.dom.DOMMixin" xlink:title="pyGHDL.dom.DOMMixin" target="_top">
<polygon fill="none" stroke="#000000" stroke-width=".5" points="885.5,-74 751.5,-74 751.5,-55 885.5,-55 885.5,-74"/>
<text text-anchor="middle" x="818.5" y="-62" font-family="Vera Sans, DejaVu Sans, Liberation Sans, Arial, Helvetica, sans" font-size="10.00" fill="#000000">pyGHDL.dom.DOMMixin</text>
</a>
</g>
</g>
<!-- pyGHDL.dom.DesignUnit.Context -->
<g id="node2" class="node">
<title>pyGHDL.dom.DesignUnit.Context</title>
<g id="a_node2"><a xlink:href="../pyGHDL/pyGHDL.dom.DesignUnit.html#pyGHDL.dom.DesignUnit.Context" xlink:title="pyGHDL.dom.DesignUnit.Context" target="_top">
<polygon fill="none" stroke="#000000" stroke-width=".5" points="1126,-55 947,-55 947,-36 1126,-36 1126,-55"/>
<text text-anchor="middle" x="1036.5" y="-43" font-family="Vera Sans, DejaVu Sans, Liberation Sans, Arial, Helvetica, sans" font-size="10.00" fill="#000000">pyGHDL.dom.DesignUnit.Context</text>
</a>
</g>
</g>
<!-- pyGHDL.dom.DOMMixin&#45;&gt;pyGHDL.dom.DesignUnit.Context -->
<g id="edge2" class="edge">
<title>pyGHDL.dom.DOMMixin&#45;&gt;pyGHDL.dom.DesignUnit.Context</title>
<path fill="none" stroke="#000000" stroke-width=".5" d="M885.686,-58.6443C903.2964,-57.1095 922.6232,-55.425 941.3915,-53.7893"/>
<polygon fill="#000000" stroke="#000000" stroke-width=".5" points="941.8393,-55.507 946.6684,-53.3294 941.5353,-52.0202 941.8393,-55.507"/>
</g>
<!-- pyVHDLModel.VHDLModel.Context -->
<g id="node3" class="node">
<title>pyVHDLModel.VHDLModel.Context</title>
<polygon fill="none" stroke="#000000" stroke-width=".5" points="911,-37 726,-37 726,-18 911,-18 911,-37"/>
<text text-anchor="middle" x="818.5" y="-25" font-family="Vera Sans, DejaVu Sans, Liberation Sans, Arial, Helvetica, sans" font-size="10.00" fill="#000000">pyVHDLModel.VHDLModel.Context</text>
</g>
<!-- pyVHDLModel.VHDLModel.Context&#45;&gt;pyGHDL.dom.DesignUnit.Context -->
<g id="edge1" class="edge">
<title>pyVHDLModel.VHDLModel.Context&#45;&gt;pyGHDL.dom.DesignUnit.Context</title>
<path fill="none" stroke="#000000" stroke-width=".5" d="M911.2677,-35.1597C921.3336,-35.9908 931.5884,-36.8376 941.6783,-37.6707"/>
<polygon fill="#000000" stroke="#000000" stroke-width=".5" points="941.8107,-39.4375 946.9377,-38.105 942.0987,-35.9494 941.8107,-39.4375"/>
</g>
<!-- pyVHDLModel.VHDLModel.PrimaryUnit -->
<g id="node4" class="node">
<title>pyVHDLModel.VHDLModel.PrimaryUnit</title>
<g id="a_node4"><a xlink:title="A ``PrimaryUnit`` is a base&#45;class for all primary units.">
<polygon fill="none" stroke="#000000" stroke-width=".5" points="690,-37 484,-37 484,-18 690,-18 690,-37"/>
<text text-anchor="middle" x="587" y="-25" font-family="Vera Sans, DejaVu Sans, Liberation Sans, Arial, Helvetica, sans" font-size="10.00" fill="#000000">pyVHDLModel.VHDLModel.PrimaryUnit</text>
</a>
</g>
</g>
<!-- pyVHDLModel.VHDLModel.PrimaryUnit&#45;&gt;pyVHDLModel.VHDLModel.Context -->
<g id="edge3" class="edge">
<title>pyVHDLModel.VHDLModel.PrimaryUnit&#45;&gt;pyVHDLModel.VHDLModel.Context</title>
<path fill="none" stroke="#000000" stroke-width=".5" d="M690.2247,-27.5C700.2869,-27.5 710.4768,-27.5 720.4856,-27.5"/>
<polygon fill="#000000" stroke="#000000" stroke-width=".5" points="720.7013,-29.2501 725.7013,-27.5 720.7013,-25.7501 720.7013,-29.2501"/>
</g>
<!-- pyVHDLModel.VHDLModel.DesignUnit -->
<g id="node5" class="node">
<title>pyVHDLModel.VHDLModel.DesignUnit</title>
<g id="a_node5"><a xlink:title="A ``DesignUnit`` is a base&#45;class for all design units.">
<polygon fill="none" stroke="#000000" stroke-width=".5" points="448,-37 247,-37 247,-18 448,-18 448,-37"/>
<text text-anchor="middle" x="347.5" y="-25" font-family="Vera Sans, DejaVu Sans, Liberation Sans, Arial, Helvetica, sans" font-size="10.00" fill="#000000">pyVHDLModel.VHDLModel.DesignUnit</text>
</a>
</g>
</g>
<!-- pyVHDLModel.VHDLModel.DesignUnit&#45;&gt;pyVHDLModel.VHDLModel.PrimaryUnit -->
<g id="edge6" class="edge">
<title>pyVHDLModel.VHDLModel.DesignUnit&#45;&gt;pyVHDLModel.VHDLModel.PrimaryUnit</title>
<path fill="none" stroke="#000000" stroke-width=".5" d="M448.0286,-27.5C458.0574,-27.5 468.271,-27.5 478.3779,-27.5"/>
<polygon fill="#000000" stroke="#000000" stroke-width=".5" points="478.652,-29.2501 483.6519,-27.5 478.6519,-25.7501 478.652,-29.2501"/>
</g>
<!-- pyVHDLModel.VHDLModel.ModelEntity -->
<g id="node6" class="node">
<title>pyVHDLModel.VHDLModel.ModelEntity</title>
<g id="a_node6"><a xlink:title="``ModelEntity`` is the base class for all classes in the VHDL language model,">
<polygon fill="none" stroke="#000000" stroke-width=".5" points="208,-56 3,-56 3,-37 208,-37 208,-56"/>
<text text-anchor="middle" x="105.5" y="-44" font-family="Vera Sans, DejaVu Sans, Liberation Sans, Arial, Helvetica, sans" font-size="10.00" fill="#000000">pyVHDLModel.VHDLModel.ModelEntity</text>
</a>
</g>
</g>
<!-- pyVHDLModel.VHDLModel.ModelEntity&#45;&gt;pyVHDLModel.VHDLModel.DesignUnit -->
<g id="edge4" class="edge">
<title>pyVHDLModel.VHDLModel.ModelEntity&#45;&gt;pyVHDLModel.VHDLModel.DesignUnit</title>
<path fill="none" stroke="#000000" stroke-width=".5" d="M208.1298,-38.4423C219.1894,-37.574 230.4586,-36.6892 241.5563,-35.8179"/>
<polygon fill="#000000" stroke="#000000" stroke-width=".5" points="241.7941,-37.5547 246.6417,-35.4186 241.5201,-34.0654 241.7941,-37.5547"/>
</g>
<!-- pyVHDLModel.VHDLModel.NamedEntity -->
<g id="node7" class="node">
<title>pyVHDLModel.VHDLModel.NamedEntity</title>
<g id="a_node7"><a xlink:title="A ``NamedEntity`` is a mixin class for all VHDL entities that have identifiers.">
<polygon fill="none" stroke="#000000" stroke-width=".5" points="211,-19 0,-19 0,0 211,0 211,-19"/>
<text text-anchor="middle" x="105.5" y="-7" font-family="Vera Sans, DejaVu Sans, Liberation Sans, Arial, Helvetica, sans" font-size="10.00" fill="#000000">pyVHDLModel.VHDLModel.NamedEntity</text>
</a>
</g>
</g>
<!-- pyVHDLModel.VHDLModel.NamedEntity&#45;&gt;pyVHDLModel.VHDLModel.DesignUnit -->
<g id="edge5" class="edge">
<title>pyVHDLModel.VHDLModel.NamedEntity&#45;&gt;pyVHDLModel.VHDLModel.DesignUnit</title>
<path fill="none" stroke="#000000" stroke-width=".5" d="M211.2927,-17.3689C221.3651,-18.1181 231.5804,-18.8779 241.6533,-19.6271"/>
<polygon fill="#000000" stroke="#000000" stroke-width=".5" points="241.7902,-21.392 246.9063,-20.0178 242.0499,-17.9017 241.7902,-21.392"/>
</g>
</g>
</svg>
