<?xml version="1.0" encoding="UTF-8" standalone="no"?>
<!DOCTYPE svg PUBLIC "-//W3C//DTD SVG 1.1//EN"
 "http://www.w3.org/Graphics/SVG/1.1/DTD/svg11.dtd">
<!-- Generated by graphviz version 2.40.1 (20161225.0304)
 -->
<!-- Title: inheritance72c1710d0b Pages: 1 -->
<svg width="576pt" height="43pt"
 viewBox="0.00 0.00 576.00 43.28" xmlns="http://www.w3.org/2000/svg" xmlns:xlink="http://www.w3.org/1999/xlink">
<g id="graph0" class="graph" transform="scale(.4328 .4328) rotate(0) translate(4 96)">
<title>inheritance72c1710d0b</title>
<polygon fill="#ffffff" stroke="transparent" points="-4,4 -4,-96 1327,-96 1327,4 -4,4"/>
<!-- pyGHDL.dom.DOMMixin -->
<g id="node1" class="node">
<title>pyGHDL.dom.DOMMixin</title>
<g id="a_node1"><a xlink:href="../pyGHDL.dom.html#pyGHDL.dom.DOMMixin" xlink:title="pyGHDL.dom.DOMMixin" target="_top">
<polygon fill="none" stroke="#000000" stroke-width=".5" points="986.5,-92 852.5,-92 852.5,-73 986.5,-73 986.5,-92"/>
<text text-anchor="middle" x="919.5" y="-80" font-family="Vera Sans, DejaVu Sans, Liberation Sans, Arial, Helvetica, sans" font-size="10.00" fill="#000000">pyGHDL.dom.DOMMixin</text>
</a>
</g>
</g>
<!-- pyGHDL.dom.DesignUnit.PackageInstantiation -->
<g id="node2" class="node">
<title>pyGHDL.dom.DesignUnit.PackageInstantiation</title>
<g id="a_node2"><a xlink:href="../pyGHDL/pyGHDL.dom.DesignUnit.html#pyGHDL.dom.DesignUnit.PackageInstantiation" xlink:title="pyGHDL.dom.DesignUnit.PackageInstantiation" target="_top">
<polygon fill="none" stroke="#000000" stroke-width=".5" points="1323,-73 1080,-73 1080,-54 1323,-54 1323,-73"/>
<text text-anchor="middle" x="1201.5" y="-61" font-family="Vera Sans, DejaVu Sans, Liberation Sans, Arial, Helvetica, sans" font-size="10.00" fill="#000000">pyGHDL.dom.DesignUnit.PackageInstantiation</text>
</a>
</g>
</g>
<!-- pyGHDL.dom.DOMMixin&#45;&gt;pyGHDL.dom.DesignUnit.PackageInstantiation -->
<g id="edge2" class="edge">
<title>pyGHDL.dom.DOMMixin&#45;&gt;pyGHDL.dom.DesignUnit.PackageInstantiation</title>
<path fill="none" stroke="#000000" stroke-width=".5" d="M986.6878,-77.9732C1013.0989,-76.1937 1044.3218,-74.09 1074.6613,-72.0459"/>
<polygon fill="#000000" stroke="#000000" stroke-width=".5" points="1075.0459,-73.774 1079.9169,-71.6918 1074.8105,-70.2819 1075.0459,-73.774"/>
</g>
<!-- pyVHDLModel.VHDLModel.PackageInstantiation -->
<g id="node3" class="node">
<title>pyVHDLModel.VHDLModel.PackageInstantiation</title>
<polygon fill="none" stroke="#000000" stroke-width=".5" points="1044,-55 795,-55 795,-36 1044,-36 1044,-55"/>
<text text-anchor="middle" x="919.5" y="-43" font-family="Vera Sans, DejaVu Sans, Liberation Sans, Arial, Helvetica, sans" font-size="10.00" fill="#000000">pyVHDLModel.VHDLModel.PackageInstantiation</text>
</g>
<!-- pyVHDLModel.VHDLModel.PackageInstantiation&#45;&gt;pyGHDL.dom.DesignUnit.PackageInstantiation -->
<g id="edge1" class="edge">
<title>pyVHDLModel.VHDLModel.PackageInstantiation&#45;&gt;pyGHDL.dom.DesignUnit.PackageInstantiation</title>
<path fill="none" stroke="#000000" stroke-width=".5" d="M1044.0102,-53.4475C1054.2808,-54.103 1064.6698,-54.7662 1074.9551,-55.4227"/>
<polygon fill="#000000" stroke="#000000" stroke-width=".5" points="1074.8935,-57.1722 1079.9949,-55.7444 1075.1166,-53.6793 1074.8935,-57.1722"/>
</g>
<!-- pyVHDLModel.VHDLModel.DesignUnit -->
<g id="node4" class="node">
<title>pyVHDLModel.VHDLModel.DesignUnit</title>
<g id="a_node4"><a xlink:title="A ``DesignUnit`` is a base&#45;class for all design units.">
<polygon fill="none" stroke="#000000" stroke-width=".5" points="448,-37 247,-37 247,-18 448,-18 448,-37"/>
<text text-anchor="middle" x="347.5" y="-25" font-family="Vera Sans, DejaVu Sans, Liberation Sans, Arial, Helvetica, sans" font-size="10.00" fill="#000000">pyVHDLModel.VHDLModel.DesignUnit</text>
</a>
</g>
</g>
<!-- pyVHDLModel.VHDLModel.PrimaryUnit -->
<g id="node8" class="node">
<title>pyVHDLModel.VHDLModel.PrimaryUnit</title>
<g id="a_node8"><a xlink:title="A ``PrimaryUnit`` is a base&#45;class for all primary units.">
<polygon fill="none" stroke="#000000" stroke-width=".5" points="724.5,-37 518.5,-37 518.5,-18 724.5,-18 724.5,-37"/>
<text text-anchor="middle" x="621.5" y="-25" font-family="Vera Sans, DejaVu Sans, Liberation Sans, Arial, Helvetica, sans" font-size="10.00" fill="#000000">pyVHDLModel.VHDLModel.PrimaryUnit</text>
</a>
</g>
</g>
<!-- pyVHDLModel.VHDLModel.DesignUnit&#45;&gt;pyVHDLModel.VHDLModel.PrimaryUnit -->
<g id="edge7" class="edge">
<title>pyVHDLModel.VHDLModel.DesignUnit&#45;&gt;pyVHDLModel.VHDLModel.PrimaryUnit</title>
<path fill="none" stroke="#000000" stroke-width=".5" d="M448.3602,-27.5C469.4087,-27.5 491.683,-27.5 512.9948,-27.5"/>
<polygon fill="#000000" stroke="#000000" stroke-width=".5" points="513.1008,-29.2501 518.1007,-27.5 513.1007,-25.7501 513.1008,-29.2501"/>
</g>
<!-- pyVHDLModel.VHDLModel.ModelEntity -->
<g id="node5" class="node">
<title>pyVHDLModel.VHDLModel.ModelEntity</title>
<g id="a_node5"><a xlink:title="``ModelEntity`` is the base class for all classes in the VHDL language model,">
<polygon fill="none" stroke="#000000" stroke-width=".5" points="208,-56 3,-56 3,-37 208,-37 208,-56"/>
<text text-anchor="middle" x="105.5" y="-44" font-family="Vera Sans, DejaVu Sans, Liberation Sans, Arial, Helvetica, sans" font-size="10.00" fill="#000000">pyVHDLModel.VHDLModel.ModelEntity</text>
</a>
</g>
</g>
<!-- pyVHDLModel.VHDLModel.ModelEntity&#45;&gt;pyVHDLModel.VHDLModel.DesignUnit -->
<g id="edge3" class="edge">
<title>pyVHDLModel.VHDLModel.ModelEntity&#45;&gt;pyVHDLModel.VHDLModel.DesignUnit</title>
<path fill="none" stroke="#000000" stroke-width=".5" d="M208.1298,-38.4423C219.1894,-37.574 230.4586,-36.6892 241.5563,-35.8179"/>
<polygon fill="#000000" stroke="#000000" stroke-width=".5" points="241.7941,-37.5547 246.6417,-35.4186 241.5201,-34.0654 241.7941,-37.5547"/>
</g>
<!-- pyVHDLModel.VHDLModel.NamedEntity -->
<g id="node6" class="node">
<title>pyVHDLModel.VHDLModel.NamedEntity</title>
<g id="a_node6"><a xlink:title="A ``NamedEntity`` is a mixin class for all VHDL entities that have identifiers.">
<polygon fill="none" stroke="#000000" stroke-width=".5" points="211,-19 0,-19 0,0 211,0 211,-19"/>
<text text-anchor="middle" x="105.5" y="-7" font-family="Vera Sans, DejaVu Sans, Liberation Sans, Arial, Helvetica, sans" font-size="10.00" fill="#000000">pyVHDLModel.VHDLModel.NamedEntity</text>
</a>
</g>
</g>
<!-- pyVHDLModel.VHDLModel.NamedEntity&#45;&gt;pyVHDLModel.VHDLModel.DesignUnit -->
<g id="edge4" class="edge">
<title>pyVHDLModel.VHDLModel.NamedEntity&#45;&gt;pyVHDLModel.VHDLModel.DesignUnit</title>
<path fill="none" stroke="#000000" stroke-width=".5" d="M211.2927,-17.3689C221.3651,-18.1181 231.5804,-18.8779 241.6533,-19.6271"/>
<polygon fill="#000000" stroke="#000000" stroke-width=".5" points="241.7902,-21.392 246.9063,-20.0178 242.0499,-17.9017 241.7902,-21.392"/>
</g>
<!-- pyVHDLModel.VHDLModel.GenericEntityInstantiation -->
<g id="node7" class="node">
<title>pyVHDLModel.VHDLModel.GenericEntityInstantiation</title>
<polygon fill="none" stroke="#000000" stroke-width=".5" points="759,-74 484,-74 484,-55 759,-55 759,-74"/>
<text text-anchor="middle" x="621.5" y="-62" font-family="Vera Sans, DejaVu Sans, Liberation Sans, Arial, Helvetica, sans" font-size="10.00" fill="#000000">pyVHDLModel.VHDLModel.GenericEntityInstantiation</text>
</g>
<!-- pyVHDLModel.VHDLModel.GenericEntityInstantiation&#45;&gt;pyVHDLModel.VHDLModel.PackageInstantiation -->
<g id="edge6" class="edge">
<title>pyVHDLModel.VHDLModel.GenericEntityInstantiation&#45;&gt;pyVHDLModel.VHDLModel.PackageInstantiation</title>
<path fill="none" stroke="#000000" stroke-width=".5" d="M759.1601,-55.723C769.2897,-55.0772 779.4895,-54.4268 789.5709,-53.7841"/>
<polygon fill="#000000" stroke="#000000" stroke-width=".5" points="789.9525,-55.5134 794.831,-53.4487 789.7297,-52.0205 789.9525,-55.5134"/>
</g>
<!-- pyVHDLModel.VHDLModel.PrimaryUnit&#45;&gt;pyVHDLModel.VHDLModel.PackageInstantiation -->
<g id="edge5" class="edge">
<title>pyVHDLModel.VHDLModel.PrimaryUnit&#45;&gt;pyVHDLModel.VHDLModel.PackageInstantiation</title>
<path fill="none" stroke="#000000" stroke-width=".5" d="M724.8896,-33.745C745.8216,-35.0094 768.0826,-36.354 789.7883,-37.6651"/>
<polygon fill="#000000" stroke="#000000" stroke-width=".5" points="789.9005,-39.4249 794.9969,-37.9797 790.1116,-35.9313 789.9005,-39.4249"/>
</g>
</g>
</svg>
