<?xml version="1.0" encoding="UTF-8" standalone="no"?>
<!DOCTYPE svg PUBLIC "-//W3C//DTD SVG 1.1//EN"
 "http://www.w3.org/Graphics/SVG/1.1/DTD/svg11.dtd">
<!-- Generated by graphviz version 2.40.1 (20161225.0304)
 -->
<!-- Title: inheritancefbb3032652 Pages: 1 -->
<svg width="576pt" height="33pt"
 viewBox="0.00 0.00 576.00 32.80" xmlns="http://www.w3.org/2000/svg" xmlns:xlink="http://www.w3.org/1999/xlink">
<g id="graph0" class="graph" transform="scale(.5125 .5125) rotate(0) translate(4 60)">
<title>inheritancefbb3032652</title>
<polygon fill="#ffffff" stroke="transparent" points="-4,4 -4,-60 1120,-60 1120,4 -4,4"/>
<!-- pyGHDL.dom.DOMMixin -->
<g id="node1" class="node">
<title>pyGHDL.dom.DOMMixin</title>
<g id="a_node1"><a xlink:href="../pyGHDL.dom.html#pyGHDL.dom.DOMMixin" xlink:title="pyGHDL.dom.DOMMixin" target="_top">
<polygon fill="none" stroke="#000000" stroke-width=".5" points="880.5,-56 746.5,-56 746.5,-37 880.5,-37 880.5,-56"/>
<text text-anchor="middle" x="813.5" y="-44" font-family="Vera Sans, DejaVu Sans, Liberation Sans, Arial, Helvetica, sans" font-size="10.00" fill="#000000">pyGHDL.dom.DOMMixin</text>
</a>
</g>
</g>
<!-- pyGHDL.dom.Literal.NullLiteral -->
<g id="node2" class="node">
<title>pyGHDL.dom.Literal.NullLiteral</title>
<g id="a_node2"><a xlink:href="../pyGHDL/pyGHDL.dom.Literal.html#pyGHDL.dom.Literal.NullLiteral" xlink:title="pyGHDL.dom.Literal.NullLiteral" target="_top">
<polygon fill="none" stroke="#000000" stroke-width=".5" points="1116,-37 948,-37 948,-18 1116,-18 1116,-37"/>
<text text-anchor="middle" x="1032" y="-25" font-family="Vera Sans, DejaVu Sans, Liberation Sans, Arial, Helvetica, sans" font-size="10.00" fill="#000000">pyGHDL.dom.Literal.NullLiteral</text>
</a>
</g>
</g>
<!-- pyGHDL.dom.DOMMixin&#45;&gt;pyGHDL.dom.Literal.NullLiteral -->
<g id="edge2" class="edge">
<title>pyGHDL.dom.DOMMixin&#45;&gt;pyGHDL.dom.Literal.NullLiteral</title>
<path fill="none" stroke="#000000" stroke-width=".5" d="M880.5421,-40.6703C900.0864,-38.9707 921.7603,-37.0861 942.4582,-35.2862"/>
<polygon fill="#000000" stroke="#000000" stroke-width=".5" points="942.8678,-37.0073 947.6974,-34.8307 942.5646,-33.5205 942.8678,-37.0073"/>
</g>
<!-- pyVHDLModel.VHDLModel.NullLiteral -->
<g id="node3" class="node">
<title>pyVHDLModel.VHDLModel.NullLiteral</title>
<polygon fill="none" stroke="#000000" stroke-width=".5" points="912,-19 715,-19 715,0 912,0 912,-19"/>
<text text-anchor="middle" x="813.5" y="-7" font-family="Vera Sans, DejaVu Sans, Liberation Sans, Arial, Helvetica, sans" font-size="10.00" fill="#000000">pyVHDLModel.VHDLModel.NullLiteral</text>
</g>
<!-- pyVHDLModel.VHDLModel.NullLiteral&#45;&gt;pyGHDL.dom.Literal.NullLiteral -->
<g id="edge1" class="edge">
<title>pyVHDLModel.VHDLModel.NullLiteral&#45;&gt;pyGHDL.dom.Literal.NullLiteral</title>
<path fill="none" stroke="#000000" stroke-width=".5" d="M912.2024,-17.6311C922.3146,-18.4641 932.5484,-19.3072 942.5531,-20.1314"/>
<polygon fill="#000000" stroke="#000000" stroke-width=".5" points="942.6353,-21.894 947.7621,-20.5605 942.9227,-18.4058 942.6353,-21.894"/>
</g>
<!-- pyVHDLModel.VHDLModel.BaseExpression -->
<g id="node4" class="node">
<title>pyVHDLModel.VHDLModel.BaseExpression</title>
<g id="a_node4"><a xlink:title="A ``BaseExpression`` is a base&#45;class for all expressions.">
<polygon fill="none" stroke="#000000" stroke-width=".5" points="465,-19 241,-19 241,0 465,0 465,-19"/>
<text text-anchor="middle" x="353" y="-7" font-family="Vera Sans, DejaVu Sans, Liberation Sans, Arial, Helvetica, sans" font-size="10.00" fill="#000000">pyVHDLModel.VHDLModel.BaseExpression</text>
</a>
</g>
</g>
<!-- pyVHDLModel.VHDLModel.Literal -->
<g id="node6" class="node">
<title>pyVHDLModel.VHDLModel.Literal</title>
<g id="a_node6"><a xlink:title="A ``Literal`` is a base&#45;class for all literals.">
<polygon fill="none" stroke="#000000" stroke-width=".5" points="679,-19 501,-19 501,0 679,0 679,-19"/>
<text text-anchor="middle" x="590" y="-7" font-family="Vera Sans, DejaVu Sans, Liberation Sans, Arial, Helvetica, sans" font-size="10.00" fill="#000000">pyVHDLModel.VHDLModel.Literal</text>
</a>
</g>
</g>
<!-- pyVHDLModel.VHDLModel.BaseExpression&#45;&gt;pyVHDLModel.VHDLModel.Literal -->
<g id="edge4" class="edge">
<title>pyVHDLModel.VHDLModel.BaseExpression&#45;&gt;pyVHDLModel.VHDLModel.Literal</title>
<path fill="none" stroke="#000000" stroke-width=".5" d="M465.2536,-9.5C475.4419,-9.5 485.692,-9.5 495.7014,-9.5"/>
<polygon fill="#000000" stroke="#000000" stroke-width=".5" points="495.9123,-11.2501 500.9122,-9.5 495.9122,-7.7501 495.9123,-11.2501"/>
</g>
<!-- pyVHDLModel.VHDLModel.ModelEntity -->
<g id="node5" class="node">
<title>pyVHDLModel.VHDLModel.ModelEntity</title>
<g id="a_node5"><a xlink:title="``ModelEntity`` is the base class for all classes in the VHDL language model,">
<polygon fill="none" stroke="#000000" stroke-width=".5" points="205,-19 0,-19 0,0 205,0 205,-19"/>
<text text-anchor="middle" x="102.5" y="-7" font-family="Vera Sans, DejaVu Sans, Liberation Sans, Arial, Helvetica, sans" font-size="10.00" fill="#000000">pyVHDLModel.VHDLModel.ModelEntity</text>
</a>
</g>
</g>
<!-- pyVHDLModel.VHDLModel.ModelEntity&#45;&gt;pyVHDLModel.VHDLModel.BaseExpression -->
<g id="edge3" class="edge">
<title>pyVHDLModel.VHDLModel.ModelEntity&#45;&gt;pyVHDLModel.VHDLModel.BaseExpression</title>
<path fill="none" stroke="#000000" stroke-width=".5" d="M205.1107,-9.5C215.2127,-9.5 225.5179,-9.5 235.7516,-9.5"/>
<polygon fill="#000000" stroke="#000000" stroke-width=".5" points="235.7685,-11.2501 240.7685,-9.5 235.7684,-7.7501 235.7685,-11.2501"/>
</g>
<!-- pyVHDLModel.VHDLModel.Literal&#45;&gt;pyVHDLModel.VHDLModel.NullLiteral -->
<g id="edge5" class="edge">
<title>pyVHDLModel.VHDLModel.Literal&#45;&gt;pyVHDLModel.VHDLModel.NullLiteral</title>
<path fill="none" stroke="#000000" stroke-width=".5" d="M679.2967,-9.5C689.2366,-9.5 699.4236,-9.5 709.5256,-9.5"/>
<polygon fill="#000000" stroke="#000000" stroke-width=".5" points="709.7988,-11.2501 714.7987,-9.5 709.7987,-7.7501 709.7988,-11.2501"/>
</g>
</g>
</svg>
