<?xml version="1.0" encoding="UTF-8" standalone="no"?>
<!DOCTYPE svg PUBLIC "-//W3C//DTD SVG 1.1//EN"
 "http://www.w3.org/Graphics/SVG/1.1/DTD/svg11.dtd">
<!-- Generated by graphviz version 2.40.1 (20161225.0304)
 -->
<!-- Title: inheritance12e704066c Pages: 1 -->
<svg width="576pt" height="23pt"
 viewBox="0.00 0.00 576.00 23.41" xmlns="http://www.w3.org/2000/svg" xmlns:xlink="http://www.w3.org/1999/xlink">
<g id="graph0" class="graph" transform="scale(.3657 .3657) rotate(0) translate(4 60)">
<title>inheritance12e704066c</title>
<polygon fill="#ffffff" stroke="transparent" points="-4,4 -4,-60 1571,-60 1571,4 -4,4"/>
<!-- pyGHDL.dom.DOMMixin -->
<g id="node1" class="node">
<title>pyGHDL.dom.DOMMixin</title>
<g id="a_node1"><a xlink:href="../pyGHDL.dom.html#pyGHDL.dom.DOMMixin" xlink:title="pyGHDL.dom.DOMMixin" target="_top">
<polygon fill="none" stroke="#000000" stroke-width=".5" points="1245.5,-56 1111.5,-56 1111.5,-37 1245.5,-37 1245.5,-56"/>
<text text-anchor="middle" x="1178.5" y="-44" font-family="Vera Sans, DejaVu Sans, Liberation Sans, Arial, Helvetica, sans" font-size="10.00" fill="#000000">pyGHDL.dom.DOMMixin</text>
</a>
</g>
</g>
<!-- pyGHDL.dom.Expression.MultiplyExpression -->
<g id="node2" class="node">
<title>pyGHDL.dom.Expression.MultiplyExpression</title>
<g id="a_node2"><a xlink:href="../pyGHDL/pyGHDL.dom.Expression.html#pyGHDL.dom.Expression.MultiplyExpression" xlink:title="pyGHDL.dom.Expression.MultiplyExpression" target="_top">
<polygon fill="none" stroke="#000000" stroke-width=".5" points="1567,-37 1334,-37 1334,-18 1567,-18 1567,-37"/>
<text text-anchor="middle" x="1450.5" y="-25" font-family="Vera Sans, DejaVu Sans, Liberation Sans, Arial, Helvetica, sans" font-size="10.00" fill="#000000">pyGHDL.dom.Expression.MultiplyExpression</text>
</a>
</g>
</g>
<!-- pyGHDL.dom.DOMMixin&#45;&gt;pyGHDL.dom.Expression.MultiplyExpression -->
<g id="edge2" class="edge">
<title>pyGHDL.dom.DOMMixin&#45;&gt;pyGHDL.dom.Expression.MultiplyExpression</title>
<path fill="none" stroke="#000000" stroke-width=".5" d="M1245.736,-41.8034C1270.839,-40.0498 1300.1837,-38 1328.6879,-36.0089"/>
<polygon fill="#000000" stroke="#000000" stroke-width=".5" points="1329.1334,-37.7322 1333.9993,-35.6379 1328.8895,-34.2407 1329.1334,-37.7322"/>
</g>
<!-- pyVHDLModel.VHDLModel.MultiplyExpression -->
<g id="node3" class="node">
<title>pyVHDLModel.VHDLModel.MultiplyExpression</title>
<polygon fill="none" stroke="#000000" stroke-width=".5" points="1298,-19 1059,-19 1059,0 1298,0 1298,-19"/>
<text text-anchor="middle" x="1178.5" y="-7" font-family="Vera Sans, DejaVu Sans, Liberation Sans, Arial, Helvetica, sans" font-size="10.00" fill="#000000">pyVHDLModel.VHDLModel.MultiplyExpression</text>
</g>
<!-- pyVHDLModel.VHDLModel.MultiplyExpression&#45;&gt;pyGHDL.dom.Expression.MultiplyExpression -->
<g id="edge1" class="edge">
<title>pyVHDLModel.VHDLModel.MultiplyExpression&#45;&gt;pyGHDL.dom.Expression.MultiplyExpression</title>
<path fill="none" stroke="#000000" stroke-width=".5" d="M1298.199,-17.4213C1308.2728,-18.0879 1318.4677,-18.7626 1328.5583,-19.4303"/>
<polygon fill="#000000" stroke="#000000" stroke-width=".5" points="1328.7196,-21.1947 1333.8243,-19.7788 1328.9508,-17.7024 1328.7196,-21.1947"/>
</g>
<!-- pyVHDLModel.VHDLModel.BaseExpression -->
<g id="node4" class="node">
<title>pyVHDLModel.VHDLModel.BaseExpression</title>
<g id="a_node4"><a xlink:title="A ``BaseExpression`` is a base&#45;class for all expressions.">
<polygon fill="none" stroke="#000000" stroke-width=".5" points="465,-19 241,-19 241,0 465,0 465,-19"/>
<text text-anchor="middle" x="353" y="-7" font-family="Vera Sans, DejaVu Sans, Liberation Sans, Arial, Helvetica, sans" font-size="10.00" fill="#000000">pyVHDLModel.VHDLModel.BaseExpression</text>
</a>
</g>
</g>
<!-- pyVHDLModel.VHDLModel.BinaryExpression -->
<g id="node6" class="node">
<title>pyVHDLModel.VHDLModel.BinaryExpression</title>
<g id="a_node6"><a xlink:title="A ``BinaryExpression`` is a base&#45;class for all binary expressions.">
<polygon fill="none" stroke="#000000" stroke-width=".5" points="733,-19 501,-19 501,0 733,0 733,-19"/>
<text text-anchor="middle" x="617" y="-7" font-family="Vera Sans, DejaVu Sans, Liberation Sans, Arial, Helvetica, sans" font-size="10.00" fill="#000000">pyVHDLModel.VHDLModel.BinaryExpression</text>
</a>
</g>
</g>
<!-- pyVHDLModel.VHDLModel.BaseExpression&#45;&gt;pyVHDLModel.VHDLModel.BinaryExpression -->
<g id="edge4" class="edge">
<title>pyVHDLModel.VHDLModel.BaseExpression&#45;&gt;pyVHDLModel.VHDLModel.BinaryExpression</title>
<path fill="none" stroke="#000000" stroke-width=".5" d="M465.3426,-9.5C475.3813,-9.5 485.5751,-9.5 495.6849,-9.5"/>
<polygon fill="#000000" stroke="#000000" stroke-width=".5" points="495.9627,-11.2501 500.9627,-9.5 495.9626,-7.7501 495.9627,-11.2501"/>
</g>
<!-- pyVHDLModel.VHDLModel.ModelEntity -->
<g id="node5" class="node">
<title>pyVHDLModel.VHDLModel.ModelEntity</title>
<g id="a_node5"><a xlink:title="``ModelEntity`` is the base class for all classes in the VHDL language model,">
<polygon fill="none" stroke="#000000" stroke-width=".5" points="205,-19 0,-19 0,0 205,0 205,-19"/>
<text text-anchor="middle" x="102.5" y="-7" font-family="Vera Sans, DejaVu Sans, Liberation Sans, Arial, Helvetica, sans" font-size="10.00" fill="#000000">pyVHDLModel.VHDLModel.ModelEntity</text>
</a>
</g>
</g>
<!-- pyVHDLModel.VHDLModel.ModelEntity&#45;&gt;pyVHDLModel.VHDLModel.BaseExpression -->
<g id="edge3" class="edge">
<title>pyVHDLModel.VHDLModel.ModelEntity&#45;&gt;pyVHDLModel.VHDLModel.BaseExpression</title>
<path fill="none" stroke="#000000" stroke-width=".5" d="M205.1107,-9.5C215.2127,-9.5 225.5179,-9.5 235.7516,-9.5"/>
<polygon fill="#000000" stroke="#000000" stroke-width=".5" points="235.7685,-11.2501 240.7685,-9.5 235.7684,-7.7501 235.7685,-11.2501"/>
</g>
<!-- pyVHDLModel.VHDLModel.MultiplyingExpression -->
<g id="node7" class="node">
<title>pyVHDLModel.VHDLModel.MultiplyingExpression</title>
<g id="a_node7"><a xlink:title="A ``MultiplyingExpression`` is a base&#45;class for all multiplying expressions.">
<polygon fill="none" stroke="#000000" stroke-width=".5" points="1023,-19 769,-19 769,0 1023,0 1023,-19"/>
<text text-anchor="middle" x="896" y="-7" font-family="Vera Sans, DejaVu Sans, Liberation Sans, Arial, Helvetica, sans" font-size="10.00" fill="#000000">pyVHDLModel.VHDLModel.MultiplyingExpression</text>
</a>
</g>
</g>
<!-- pyVHDLModel.VHDLModel.BinaryExpression&#45;&gt;pyVHDLModel.VHDLModel.MultiplyingExpression -->
<g id="edge6" class="edge">
<title>pyVHDLModel.VHDLModel.BinaryExpression&#45;&gt;pyVHDLModel.VHDLModel.MultiplyingExpression</title>
<path fill="none" stroke="#000000" stroke-width=".5" d="M733.3008,-9.5C743.2323,-9.5 753.3251,-9.5 763.3703,-9.5"/>
<polygon fill="#000000" stroke="#000000" stroke-width=".5" points="763.6179,-11.2501 768.6178,-9.5 763.6178,-7.7501 763.6179,-11.2501"/>
</g>
<!-- pyVHDLModel.VHDLModel.MultiplyingExpression&#45;&gt;pyVHDLModel.VHDLModel.MultiplyExpression -->
<g id="edge5" class="edge">
<title>pyVHDLModel.VHDLModel.MultiplyingExpression&#45;&gt;pyVHDLModel.VHDLModel.MultiplyExpression</title>
<path fill="none" stroke="#000000" stroke-width=".5" d="M1023.2009,-9.5C1033.3025,-9.5 1043.501,-9.5 1053.5869,-9.5"/>
<polygon fill="#000000" stroke="#000000" stroke-width=".5" points="1053.8498,-11.2501 1058.8497,-9.5 1053.8497,-7.7501 1053.8498,-11.2501"/>
</g>
</g>
</svg>
