<?xml version="1.0" encoding="UTF-8" standalone="no"?>
<!DOCTYPE svg PUBLIC "-//W3C//DTD SVG 1.1//EN"
 "http://www.w3.org/Graphics/SVG/1.1/DTD/svg11.dtd">
<!-- Generated by graphviz version 2.40.1 (20161225.0304)
 -->
<!-- Title: inheritancedb3f043219 Pages: 1 -->
<svg width="576pt" height="26pt"
 viewBox="0.00 0.00 576.00 26.16" xmlns="http://www.w3.org/2000/svg" xmlns:xlink="http://www.w3.org/1999/xlink">
<g id="graph0" class="graph" transform="scale(.4088 .4088) rotate(0) translate(4 60)">
<title>inheritancedb3f043219</title>
<polygon fill="#ffffff" stroke="transparent" points="-4,4 -4,-60 1405,-60 1405,4 -4,4"/>
<!-- pyGHDL.dom.DOMMixin -->
<g id="node1" class="node">
<title>pyGHDL.dom.DOMMixin</title>
<g id="a_node1"><a xlink:href="../pyGHDL.dom.html#pyGHDL.dom.DOMMixin" xlink:title="pyGHDL.dom.DOMMixin" target="_top">
<polygon fill="none" stroke="#000000" stroke-width=".5" points="1143,-56 1009,-56 1009,-37 1143,-37 1143,-56"/>
<text text-anchor="middle" x="1076" y="-44" font-family="Vera Sans, DejaVu Sans, Liberation Sans, Arial, Helvetica, sans" font-size="10.00" fill="#000000">pyGHDL.dom.DOMMixin</text>
</a>
</g>
</g>
<!-- pyGHDL.dom.Literal.IntegerLiteral -->
<g id="node2" class="node">
<title>pyGHDL.dom.Literal.IntegerLiteral</title>
<g id="a_node2"><a xlink:href="../pyGHDL/pyGHDL.dom.Literal.html#pyGHDL.dom.Literal.IntegerLiteral" xlink:title="pyGHDL.dom.Literal.IntegerLiteral" target="_top">
<polygon fill="none" stroke="#000000" stroke-width=".5" points="1401,-37 1218,-37 1218,-18 1401,-18 1401,-37"/>
<text text-anchor="middle" x="1309.5" y="-25" font-family="Vera Sans, DejaVu Sans, Liberation Sans, Arial, Helvetica, sans" font-size="10.00" fill="#000000">pyGHDL.dom.Literal.IntegerLiteral</text>
</a>
</g>
</g>
<!-- pyGHDL.dom.DOMMixin&#45;&gt;pyGHDL.dom.Literal.IntegerLiteral -->
<g id="edge2" class="edge">
<title>pyGHDL.dom.DOMMixin&#45;&gt;pyGHDL.dom.Literal.IntegerLiteral</title>
<path fill="none" stroke="#000000" stroke-width=".5" d="M1143.2246,-41.0299C1164.7684,-39.2769 1189.074,-37.2991 1212.3149,-35.408"/>
<polygon fill="#000000" stroke="#000000" stroke-width=".5" points="1212.7266,-37.1304 1217.5681,-34.9805 1212.4426,-33.6419 1212.7266,-37.1304"/>
</g>
<!-- pyVHDLModel.VHDLModel.IntegerLiteral -->
<g id="node3" class="node">
<title>pyVHDLModel.VHDLModel.IntegerLiteral</title>
<polygon fill="none" stroke="#000000" stroke-width=".5" points="1182,-19 970,-19 970,0 1182,0 1182,-19"/>
<text text-anchor="middle" x="1076" y="-7" font-family="Vera Sans, DejaVu Sans, Liberation Sans, Arial, Helvetica, sans" font-size="10.00" fill="#000000">pyVHDLModel.VHDLModel.IntegerLiteral</text>
</g>
<!-- pyVHDLModel.VHDLModel.IntegerLiteral&#45;&gt;pyGHDL.dom.Literal.IntegerLiteral -->
<g id="edge1" class="edge">
<title>pyVHDLModel.VHDLModel.IntegerLiteral&#45;&gt;pyGHDL.dom.Literal.IntegerLiteral</title>
<path fill="none" stroke="#000000" stroke-width=".5" d="M1182.1597,-17.6836C1192.3162,-18.4666 1202.5804,-19.2578 1212.6416,-20.0334"/>
<polygon fill="#000000" stroke="#000000" stroke-width=".5" points="1212.7631,-21.7979 1217.8828,-20.4374 1213.0322,-18.3082 1212.7631,-21.7979"/>
</g>
<!-- pyVHDLModel.VHDLModel.BaseExpression -->
<g id="node4" class="node">
<title>pyVHDLModel.VHDLModel.BaseExpression</title>
<g id="a_node4"><a xlink:title="A ``BaseExpression`` is a base&#45;class for all expressions.">
<polygon fill="none" stroke="#000000" stroke-width=".5" points="465,-19 241,-19 241,0 465,0 465,-19"/>
<text text-anchor="middle" x="353" y="-7" font-family="Vera Sans, DejaVu Sans, Liberation Sans, Arial, Helvetica, sans" font-size="10.00" fill="#000000">pyVHDLModel.VHDLModel.BaseExpression</text>
</a>
</g>
</g>
<!-- pyVHDLModel.VHDLModel.Literal -->
<g id="node7" class="node">
<title>pyVHDLModel.VHDLModel.Literal</title>
<g id="a_node7"><a xlink:title="A ``Literal`` is a base&#45;class for all literals.">
<polygon fill="none" stroke="#000000" stroke-width=".5" points="679,-19 501,-19 501,0 679,0 679,-19"/>
<text text-anchor="middle" x="590" y="-7" font-family="Vera Sans, DejaVu Sans, Liberation Sans, Arial, Helvetica, sans" font-size="10.00" fill="#000000">pyVHDLModel.VHDLModel.Literal</text>
</a>
</g>
</g>
<!-- pyVHDLModel.VHDLModel.BaseExpression&#45;&gt;pyVHDLModel.VHDLModel.Literal -->
<g id="edge5" class="edge">
<title>pyVHDLModel.VHDLModel.BaseExpression&#45;&gt;pyVHDLModel.VHDLModel.Literal</title>
<path fill="none" stroke="#000000" stroke-width=".5" d="M465.2536,-9.5C475.4419,-9.5 485.692,-9.5 495.7014,-9.5"/>
<polygon fill="#000000" stroke="#000000" stroke-width=".5" points="495.9123,-11.2501 500.9122,-9.5 495.9122,-7.7501 495.9123,-11.2501"/>
</g>
<!-- pyVHDLModel.VHDLModel.ModelEntity -->
<g id="node5" class="node">
<title>pyVHDLModel.VHDLModel.ModelEntity</title>
<g id="a_node5"><a xlink:title="``ModelEntity`` is the base class for all classes in the VHDL language model,">
<polygon fill="none" stroke="#000000" stroke-width=".5" points="205,-19 0,-19 0,0 205,0 205,-19"/>
<text text-anchor="middle" x="102.5" y="-7" font-family="Vera Sans, DejaVu Sans, Liberation Sans, Arial, Helvetica, sans" font-size="10.00" fill="#000000">pyVHDLModel.VHDLModel.ModelEntity</text>
</a>
</g>
</g>
<!-- pyVHDLModel.VHDLModel.ModelEntity&#45;&gt;pyVHDLModel.VHDLModel.BaseExpression -->
<g id="edge3" class="edge">
<title>pyVHDLModel.VHDLModel.ModelEntity&#45;&gt;pyVHDLModel.VHDLModel.BaseExpression</title>
<path fill="none" stroke="#000000" stroke-width=".5" d="M205.1107,-9.5C215.2127,-9.5 225.5179,-9.5 235.7516,-9.5"/>
<polygon fill="#000000" stroke="#000000" stroke-width=".5" points="235.7685,-11.2501 240.7685,-9.5 235.7684,-7.7501 235.7685,-11.2501"/>
</g>
<!-- pyVHDLModel.VHDLModel.NumericLiteral -->
<g id="node6" class="node">
<title>pyVHDLModel.VHDLModel.NumericLiteral</title>
<g id="a_node6"><a xlink:title="A ``NumericLiteral`` is a base&#45;class for all numeric literals.">
<polygon fill="none" stroke="#000000" stroke-width=".5" points="934,-19 715,-19 715,0 934,0 934,-19"/>
<text text-anchor="middle" x="824.5" y="-7" font-family="Vera Sans, DejaVu Sans, Liberation Sans, Arial, Helvetica, sans" font-size="10.00" fill="#000000">pyVHDLModel.VHDLModel.NumericLiteral</text>
</a>
</g>
</g>
<!-- pyVHDLModel.VHDLModel.NumericLiteral&#45;&gt;pyVHDLModel.VHDLModel.IntegerLiteral -->
<g id="edge4" class="edge">
<title>pyVHDLModel.VHDLModel.NumericLiteral&#45;&gt;pyVHDLModel.VHDLModel.IntegerLiteral</title>
<path fill="none" stroke="#000000" stroke-width=".5" d="M934.0799,-9.5C944.318,-9.5 954.7015,-9.5 964.9529,-9.5"/>
<polygon fill="#000000" stroke="#000000" stroke-width=".5" points="964.9735,-11.2501 969.9735,-9.5 964.9735,-7.7501 964.9735,-11.2501"/>
</g>
<!-- pyVHDLModel.VHDLModel.Literal&#45;&gt;pyVHDLModel.VHDLModel.NumericLiteral -->
<g id="edge6" class="edge">
<title>pyVHDLModel.VHDLModel.Literal&#45;&gt;pyVHDLModel.VHDLModel.NumericLiteral</title>
<path fill="none" stroke="#000000" stroke-width=".5" d="M679.3234,-9.5C689.3342,-9.5 699.6334,-9.5 709.9054,-9.5"/>
<polygon fill="#000000" stroke="#000000" stroke-width=".5" points="709.9445,-11.2501 714.9444,-9.5 709.9444,-7.7501 709.9445,-11.2501"/>
</g>
</g>
</svg>
