<?xml version="1.0" encoding="UTF-8" standalone="no"?>
<!DOCTYPE svg PUBLIC "-//W3C//DTD SVG 1.1//EN"
 "http://www.w3.org/Graphics/SVG/1.1/DTD/svg11.dtd">
<!-- Generated by graphviz version 2.40.1 (20161225.0304)
 -->
<!-- Title: inheritance7957d3aa8f Pages: 1 -->
<svg width="576pt" height="24pt"
 viewBox="0.00 0.00 576.00 23.93" xmlns="http://www.w3.org/2000/svg" xmlns:xlink="http://www.w3.org/1999/xlink">
<g id="graph0" class="graph" transform="scale(.8862 .8862) rotate(0) translate(4 23)">
<title>inheritance7957d3aa8f</title>
<polygon fill="#ffffff" stroke="transparent" points="-4,4 -4,-23 646,-23 646,4 -4,4"/>
<!-- pyGHDL.dom.NonStandard.Design -->
<g id="node1" class="node">
<title>pyGHDL.dom.NonStandard.Design</title>
<g id="a_node1"><a xlink:href="../pyGHDL/pyGHDL.dom.NonStandard.html#pyGHDL.dom.NonStandard.Design" xlink:title="pyGHDL.dom.NonStandard.Design" target="_top">
<polygon fill="none" stroke="#000000" stroke-width=".5" points="642,-19 458,-19 458,0 642,0 642,-19"/>
<text text-anchor="middle" x="550" y="-7" font-family="Vera Sans, DejaVu Sans, Liberation Sans, Arial, Helvetica, sans" font-size="10.00" fill="#000000">pyGHDL.dom.NonStandard.Design</text>
</a>
</g>
</g>
<!-- pyVHDLModel.VHDLModel.Design -->
<g id="node2" class="node">
<title>pyVHDLModel.VHDLModel.Design</title>
<g id="a_node2"><a xlink:title="A ``Design`` represents all loaded files (see :class:`~pyVHDLModel.VHDLModel.Document`)">
<polygon fill="none" stroke="#000000" stroke-width=".5" points="422,-19 241,-19 241,0 422,0 422,-19"/>
<text text-anchor="middle" x="331.5" y="-7" font-family="Vera Sans, DejaVu Sans, Liberation Sans, Arial, Helvetica, sans" font-size="10.00" fill="#000000">pyVHDLModel.VHDLModel.Design</text>
</a>
</g>
</g>
<!-- pyVHDLModel.VHDLModel.Design&#45;&gt;pyGHDL.dom.NonStandard.Design -->
<g id="edge1" class="edge">
<title>pyVHDLModel.VHDLModel.Design&#45;&gt;pyGHDL.dom.NonStandard.Design</title>
<path fill="none" stroke="#000000" stroke-width=".5" d="M422.2654,-9.5C432.2501,-9.5 442.4469,-9.5 452.5091,-9.5"/>
<polygon fill="#000000" stroke="#000000" stroke-width=".5" points="452.757,-11.2501 457.7569,-9.5 452.7569,-7.7501 452.757,-11.2501"/>
</g>
<!-- pyVHDLModel.VHDLModel.ModelEntity -->
<g id="node3" class="node">
<title>pyVHDLModel.VHDLModel.ModelEntity</title>
<g id="a_node3"><a xlink:title="``ModelEntity`` is the base class for all classes in the VHDL language model,">
<polygon fill="none" stroke="#000000" stroke-width=".5" points="205,-19 0,-19 0,0 205,0 205,-19"/>
<text text-anchor="middle" x="102.5" y="-7" font-family="Vera Sans, DejaVu Sans, Liberation Sans, Arial, Helvetica, sans" font-size="10.00" fill="#000000">pyVHDLModel.VHDLModel.ModelEntity</text>
</a>
</g>
</g>
<!-- pyVHDLModel.VHDLModel.ModelEntity&#45;&gt;pyVHDLModel.VHDLModel.Design -->
<g id="edge2" class="edge">
<title>pyVHDLModel.VHDLModel.ModelEntity&#45;&gt;pyVHDLModel.VHDLModel.Design</title>
<path fill="none" stroke="#000000" stroke-width=".5" d="M205.2776,-9.5C215.4028,-9.5 225.6516,-9.5 235.7028,-9.5"/>
<polygon fill="#000000" stroke="#000000" stroke-width=".5" points="235.9392,-11.2501 240.9392,-9.5 235.9392,-7.7501 235.9392,-11.2501"/>
</g>
</g>
</svg>
