<?xml version="1.0" encoding="UTF-8" standalone="no"?>
<!DOCTYPE svg PUBLIC "-//W3C//DTD SVG 1.1//EN"
 "http://www.w3.org/Graphics/SVG/1.1/DTD/svg11.dtd">
<!-- Generated by graphviz version 2.40.1 (20161225.0304)
 -->
<!-- Title: inheritance3fc22781b4 Pages: 1 -->
<svg width="576pt" height="25pt"
 viewBox="0.00 0.00 576.00 25.41" xmlns="http://www.w3.org/2000/svg" xmlns:xlink="http://www.w3.org/1999/xlink">
<g id="graph0" class="graph" transform="scale(.9412 .9412) rotate(0) translate(4 23)">
<title>inheritance3fc22781b4</title>
<polygon fill="#ffffff" stroke="transparent" points="-4,4 -4,-23 608,-23 608,4 -4,4"/>
<!-- pyGHDL.dom.Range.Range -->
<g id="node1" class="node">
<title>pyGHDL.dom.Range.Range</title>
<g id="a_node1"><a xlink:href="../pyGHDL/pyGHDL.dom.Range.html#pyGHDL.dom.Range.Range" xlink:title="pyGHDL.dom.Range.Range" target="_top">
<polygon fill="none" stroke="#000000" stroke-width=".5" points="604,-19 455,-19 455,0 604,0 604,-19"/>
<text text-anchor="middle" x="529.5" y="-7" font-family="Vera Sans, DejaVu Sans, Liberation Sans, Arial, Helvetica, sans" font-size="10.00" fill="#000000">pyGHDL.dom.Range.Range</text>
</a>
</g>
</g>
<!-- pyVHDLModel.VHDLModel.Range -->
<g id="node2" class="node">
<title>pyVHDLModel.VHDLModel.Range</title>
<polygon fill="none" stroke="#000000" stroke-width=".5" points="419,-19 241,-19 241,0 419,0 419,-19"/>
<text text-anchor="middle" x="330" y="-7" font-family="Vera Sans, DejaVu Sans, Liberation Sans, Arial, Helvetica, sans" font-size="10.00" fill="#000000">pyVHDLModel.VHDLModel.Range</text>
</g>
<!-- pyVHDLModel.VHDLModel.Range&#45;&gt;pyGHDL.dom.Range.Range -->
<g id="edge1" class="edge">
<title>pyVHDLModel.VHDLModel.Range&#45;&gt;pyGHDL.dom.Range.Range</title>
<path fill="none" stroke="#000000" stroke-width=".5" d="M419.2468,-9.5C429.4066,-9.5 439.7134,-9.5 449.7393,-9.5"/>
<polygon fill="#000000" stroke="#000000" stroke-width=".5" points="449.9543,-11.2501 454.9543,-9.5 449.9542,-7.7501 449.9543,-11.2501"/>
</g>
<!-- pyVHDLModel.VHDLModel.ModelEntity -->
<g id="node3" class="node">
<title>pyVHDLModel.VHDLModel.ModelEntity</title>
<g id="a_node3"><a xlink:title="``ModelEntity`` is the base class for all classes in the VHDL language model,">
<polygon fill="none" stroke="#000000" stroke-width=".5" points="205,-19 0,-19 0,0 205,0 205,-19"/>
<text text-anchor="middle" x="102.5" y="-7" font-family="Vera Sans, DejaVu Sans, Liberation Sans, Arial, Helvetica, sans" font-size="10.00" fill="#000000">pyVHDLModel.VHDLModel.ModelEntity</text>
</a>
</g>
</g>
<!-- pyVHDLModel.VHDLModel.ModelEntity&#45;&gt;pyVHDLModel.VHDLModel.Range -->
<g id="edge2" class="edge">
<title>pyVHDLModel.VHDLModel.ModelEntity&#45;&gt;pyVHDLModel.VHDLModel.Range</title>
<path fill="none" stroke="#000000" stroke-width=".5" d="M205.2679,-9.5C215.3955,-9.5 225.6404,-9.5 235.6773,-9.5"/>
<polygon fill="#000000" stroke="#000000" stroke-width=".5" points="235.9053,-11.2501 240.9052,-9.5 235.9052,-7.7501 235.9053,-11.2501"/>
</g>
</g>
</svg>
