<?xml version="1.0" encoding="UTF-8" standalone="no"?>
<!DOCTYPE svg PUBLIC "-//W3C//DTD SVG 1.1//EN"
 "http://www.w3.org/Graphics/SVG/1.1/DTD/svg11.dtd">
<!-- Generated by graphviz version 2.40.1 (20161225.0304)
 -->
<!-- Title: inheritanceea6b871de0 Pages: 1 -->
<svg width="576pt" height="53pt"
 viewBox="0.00 0.00 576.00 52.97" xmlns="http://www.w3.org/2000/svg" xmlns:xlink="http://www.w3.org/1999/xlink">
<g id="graph0" class="graph" transform="scale(.8276 .8276) rotate(0) translate(4 60)">
<title>inheritanceea6b871de0</title>
<polygon fill="#ffffff" stroke="transparent" points="-4,4 -4,-60 692,-60 692,4 -4,4"/>
<!-- pyGHDL.dom.DOMMixin -->
<g id="node1" class="node">
<title>pyGHDL.dom.DOMMixin</title>
<g id="a_node1"><a xlink:href="../pyGHDL.dom.html#pyGHDL.dom.DOMMixin" xlink:title="pyGHDL.dom.DOMMixin" target="_top">
<polygon fill="none" stroke="#000000" stroke-width=".5" points="395.5,-56 261.5,-56 261.5,-37 395.5,-37 395.5,-56"/>
<text text-anchor="middle" x="328.5" y="-44" font-family="Vera Sans, DejaVu Sans, Liberation Sans, Arial, Helvetica, sans" font-size="10.00" fill="#000000">pyGHDL.dom.DOMMixin</text>
</a>
</g>
</g>
<!-- pyGHDL.dom.Names.ParenthesisName -->
<g id="node2" class="node">
<title>pyGHDL.dom.Names.ParenthesisName</title>
<g id="a_node2"><a xlink:href="../pyGHDL/pyGHDL.dom.Names.html#pyGHDL.dom.Names.ParenthesisName" xlink:title="pyGHDL.dom.Names.ParenthesisName" target="_top">
<polygon fill="none" stroke="#000000" stroke-width=".5" points="688,-37 481,-37 481,-18 688,-18 688,-37"/>
<text text-anchor="middle" x="584.5" y="-25" font-family="Vera Sans, DejaVu Sans, Liberation Sans, Arial, Helvetica, sans" font-size="10.00" fill="#000000">pyGHDL.dom.Names.ParenthesisName</text>
</a>
</g>
</g>
<!-- pyGHDL.dom.DOMMixin&#45;&gt;pyGHDL.dom.Names.ParenthesisName -->
<g id="edge2" class="edge">
<title>pyGHDL.dom.DOMMixin&#45;&gt;pyGHDL.dom.Names.ParenthesisName</title>
<path fill="none" stroke="#000000" stroke-width=".5" d="M395.761,-41.508C420.1667,-39.6966 448.4076,-37.6006 475.4888,-35.5907"/>
<polygon fill="#000000" stroke="#000000" stroke-width=".5" points="475.674,-37.3318 480.5307,-35.2165 475.4149,-33.8414 475.674,-37.3318"/>
</g>
<!-- pyVHDLModel.VHDLModel.ParenthesisName -->
<g id="node3" class="node">
<title>pyVHDLModel.VHDLModel.ParenthesisName</title>
<polygon fill="none" stroke="#000000" stroke-width=".5" points="445,-19 212,-19 212,0 445,0 445,-19"/>
<text text-anchor="middle" x="328.5" y="-7" font-family="Vera Sans, DejaVu Sans, Liberation Sans, Arial, Helvetica, sans" font-size="10.00" fill="#000000">pyVHDLModel.VHDLModel.ParenthesisName</text>
</g>
<!-- pyVHDLModel.VHDLModel.ParenthesisName&#45;&gt;pyGHDL.dom.Names.ParenthesisName -->
<g id="edge1" class="edge">
<title>pyVHDLModel.VHDLModel.ParenthesisName&#45;&gt;pyGHDL.dom.Names.ParenthesisName</title>
<path fill="none" stroke="#000000" stroke-width=".5" d="M445.2629,-17.7099C455.3695,-18.4205 465.5702,-19.1377 475.6105,-19.8437"/>
<polygon fill="#000000" stroke="#000000" stroke-width=".5" points="475.7345,-21.6067 480.8449,-20.2118 475.98,-18.1153 475.7345,-21.6067"/>
</g>
<!-- pyVHDLModel.VHDLModel.Name -->
<g id="node4" class="node">
<title>pyVHDLModel.VHDLModel.Name</title>
<g id="a_node4"><a xlink:title="``Name`` is the base class for all *names* in the VHDL language model.">
<polygon fill="none" stroke="#000000" stroke-width=".5" points="176,-19 0,-19 0,0 176,0 176,-19"/>
<text text-anchor="middle" x="88" y="-7" font-family="Vera Sans, DejaVu Sans, Liberation Sans, Arial, Helvetica, sans" font-size="10.00" fill="#000000">pyVHDLModel.VHDLModel.Name</text>
</a>
</g>
</g>
<!-- pyVHDLModel.VHDLModel.Name&#45;&gt;pyVHDLModel.VHDLModel.ParenthesisName -->
<g id="edge3" class="edge">
<title>pyVHDLModel.VHDLModel.Name&#45;&gt;pyVHDLModel.VHDLModel.ParenthesisName</title>
<path fill="none" stroke="#000000" stroke-width=".5" d="M176.1877,-9.5C186.2108,-9.5 196.5544,-9.5 206.9113,-9.5"/>
<polygon fill="#000000" stroke="#000000" stroke-width=".5" points="206.9954,-11.2501 211.9953,-9.5 206.9953,-7.7501 206.9954,-11.2501"/>
</g>
</g>
</svg>
