<?xml version="1.0" encoding="UTF-8" standalone="no"?>
<!DOCTYPE svg PUBLIC "-//W3C//DTD SVG 1.1//EN"
 "http://www.w3.org/Graphics/SVG/1.1/DTD/svg11.dtd">
<!-- Generated by graphviz version 2.40.1 (20161225.0304)
 -->
<!-- Title: inheritancec35a4f900e Pages: 1 -->
<svg width="576pt" height="23pt"
 viewBox="0.00 0.00 576.00 23.21" xmlns="http://www.w3.org/2000/svg" xmlns:xlink="http://www.w3.org/1999/xlink">
<g id="graph0" class="graph" transform="scale(.3627 .3627) rotate(0) translate(4 60)">
<title>inheritancec35a4f900e</title>
<polygon fill="#ffffff" stroke="transparent" points="-4,4 -4,-60 1584,-60 1584,4 -4,4"/>
<!-- pyGHDL.dom.DOMMixin -->
<g id="node1" class="node">
<title>pyGHDL.dom.DOMMixin</title>
<g id="a_node1"><a xlink:href="../pyGHDL.dom.html#pyGHDL.dom.DOMMixin" xlink:title="pyGHDL.dom.DOMMixin" target="_top">
<polygon fill="none" stroke="#000000" stroke-width=".5" points="1234,-56 1100,-56 1100,-37 1234,-37 1234,-56"/>
<text text-anchor="middle" x="1167" y="-44" font-family="Vera Sans, DejaVu Sans, Liberation Sans, Arial, Helvetica, sans" font-size="10.00" fill="#000000">pyGHDL.dom.DOMMixin</text>
</a>
</g>
</g>
<!-- pyGHDL.dom.Expression.SubtractionExpression -->
<g id="node2" class="node">
<title>pyGHDL.dom.Expression.SubtractionExpression</title>
<g id="a_node2"><a xlink:href="../pyGHDL/pyGHDL.dom.Expression.html#pyGHDL.dom.Expression.SubtractionExpression" xlink:title="pyGHDL.dom.Expression.SubtractionExpression" target="_top">
<polygon fill="none" stroke="#000000" stroke-width=".5" points="1580,-37 1331,-37 1331,-18 1580,-18 1580,-37"/>
<text text-anchor="middle" x="1455.5" y="-25" font-family="Vera Sans, DejaVu Sans, Liberation Sans, Arial, Helvetica, sans" font-size="10.00" fill="#000000">pyGHDL.dom.Expression.SubtractionExpression</text>
</a>
</g>
</g>
<!-- pyGHDL.dom.DOMMixin&#45;&gt;pyGHDL.dom.Expression.SubtractionExpression -->
<g id="edge2" class="edge">
<title>pyGHDL.dom.DOMMixin&#45;&gt;pyGHDL.dom.Expression.SubtractionExpression</title>
<path fill="none" stroke="#000000" stroke-width=".5" d="M1234.2763,-42.0693C1261.6186,-40.2686 1294.1788,-38.1243 1325.7972,-36.0419"/>
<polygon fill="#000000" stroke="#000000" stroke-width=".5" points="1325.9886,-37.7832 1330.8628,-35.7083 1325.7585,-34.2908 1325.9886,-37.7832"/>
</g>
<!-- pyVHDLModel.VHDLModel.SubtractionExpression -->
<g id="node3" class="node">
<title>pyVHDLModel.VHDLModel.SubtractionExpression</title>
<polygon fill="none" stroke="#000000" stroke-width=".5" points="1295,-19 1039,-19 1039,0 1295,0 1295,-19"/>
<text text-anchor="middle" x="1167" y="-7" font-family="Vera Sans, DejaVu Sans, Liberation Sans, Arial, Helvetica, sans" font-size="10.00" fill="#000000">pyVHDLModel.VHDLModel.SubtractionExpression</text>
</g>
<!-- pyVHDLModel.VHDLModel.SubtractionExpression&#45;&gt;pyGHDL.dom.Expression.SubtractionExpression -->
<g id="edge1" class="edge">
<title>pyVHDLModel.VHDLModel.SubtractionExpression&#45;&gt;pyGHDL.dom.Expression.SubtractionExpression</title>
<path fill="none" stroke="#000000" stroke-width=".5" d="M1295.2204,-17.4999C1305.4373,-18.1373 1315.7628,-18.7816 1325.9885,-19.4196"/>
<polygon fill="#000000" stroke="#000000" stroke-width=".5" points="1325.9002,-21.1674 1330.9995,-19.7322 1326.1182,-17.6742 1325.9002,-21.1674"/>
</g>
<!-- pyVHDLModel.VHDLModel.AddingExpression -->
<g id="node4" class="node">
<title>pyVHDLModel.VHDLModel.AddingExpression</title>
<g id="a_node4"><a xlink:title="A ``AddingExpression`` is a base&#45;class for all adding expressions.">
<polygon fill="none" stroke="#000000" stroke-width=".5" points="1003,-19 769,-19 769,0 1003,0 1003,-19"/>
<text text-anchor="middle" x="886" y="-7" font-family="Vera Sans, DejaVu Sans, Liberation Sans, Arial, Helvetica, sans" font-size="10.00" fill="#000000">pyVHDLModel.VHDLModel.AddingExpression</text>
</a>
</g>
</g>
<!-- pyVHDLModel.VHDLModel.AddingExpression&#45;&gt;pyVHDLModel.VHDLModel.SubtractionExpression -->
<g id="edge6" class="edge">
<title>pyVHDLModel.VHDLModel.AddingExpression&#45;&gt;pyVHDLModel.VHDLModel.SubtractionExpression</title>
<path fill="none" stroke="#000000" stroke-width=".5" d="M1003.1345,-9.5C1013.2289,-9.5 1023.4889,-9.5 1033.698,-9.5"/>
<polygon fill="#000000" stroke="#000000" stroke-width=".5" points="1033.7047,-11.2501 1038.7047,-9.5 1033.7047,-7.7501 1033.7047,-11.2501"/>
</g>
<!-- pyVHDLModel.VHDLModel.BinaryExpression -->
<g id="node5" class="node">
<title>pyVHDLModel.VHDLModel.BinaryExpression</title>
<g id="a_node5"><a xlink:title="A ``BinaryExpression`` is a base&#45;class for all binary expressions.">
<polygon fill="none" stroke="#000000" stroke-width=".5" points="733,-19 501,-19 501,0 733,0 733,-19"/>
<text text-anchor="middle" x="617" y="-7" font-family="Vera Sans, DejaVu Sans, Liberation Sans, Arial, Helvetica, sans" font-size="10.00" fill="#000000">pyVHDLModel.VHDLModel.BinaryExpression</text>
</a>
</g>
</g>
<!-- pyVHDLModel.VHDLModel.BinaryExpression&#45;&gt;pyVHDLModel.VHDLModel.AddingExpression -->
<g id="edge3" class="edge">
<title>pyVHDLModel.VHDLModel.BinaryExpression&#45;&gt;pyVHDLModel.VHDLModel.AddingExpression</title>
<path fill="none" stroke="#000000" stroke-width=".5" d="M733.032,-9.5C743.0824,-9.5 753.273,-9.5 763.3737,-9.5"/>
<polygon fill="#000000" stroke="#000000" stroke-width=".5" points="763.6463,-11.2501 768.6462,-9.5 763.6462,-7.7501 763.6463,-11.2501"/>
</g>
<!-- pyVHDLModel.VHDLModel.BaseExpression -->
<g id="node6" class="node">
<title>pyVHDLModel.VHDLModel.BaseExpression</title>
<g id="a_node6"><a xlink:title="A ``BaseExpression`` is a base&#45;class for all expressions.">
<polygon fill="none" stroke="#000000" stroke-width=".5" points="465,-19 241,-19 241,0 465,0 465,-19"/>
<text text-anchor="middle" x="353" y="-7" font-family="Vera Sans, DejaVu Sans, Liberation Sans, Arial, Helvetica, sans" font-size="10.00" fill="#000000">pyVHDLModel.VHDLModel.BaseExpression</text>
</a>
</g>
</g>
<!-- pyVHDLModel.VHDLModel.BaseExpression&#45;&gt;pyVHDLModel.VHDLModel.BinaryExpression -->
<g id="edge5" class="edge">
<title>pyVHDLModel.VHDLModel.BaseExpression&#45;&gt;pyVHDLModel.VHDLModel.BinaryExpression</title>
<path fill="none" stroke="#000000" stroke-width=".5" d="M465.3426,-9.5C475.3813,-9.5 485.5751,-9.5 495.6849,-9.5"/>
<polygon fill="#000000" stroke="#000000" stroke-width=".5" points="495.9627,-11.2501 500.9627,-9.5 495.9626,-7.7501 495.9627,-11.2501"/>
</g>
<!-- pyVHDLModel.VHDLModel.ModelEntity -->
<g id="node7" class="node">
<title>pyVHDLModel.VHDLModel.ModelEntity</title>
<g id="a_node7"><a xlink:title="``ModelEntity`` is the base class for all classes in the VHDL language model,">
<polygon fill="none" stroke="#000000" stroke-width=".5" points="205,-19 0,-19 0,0 205,0 205,-19"/>
<text text-anchor="middle" x="102.5" y="-7" font-family="Vera Sans, DejaVu Sans, Liberation Sans, Arial, Helvetica, sans" font-size="10.00" fill="#000000">pyVHDLModel.VHDLModel.ModelEntity</text>
</a>
</g>
</g>
<!-- pyVHDLModel.VHDLModel.ModelEntity&#45;&gt;pyVHDLModel.VHDLModel.BaseExpression -->
<g id="edge4" class="edge">
<title>pyVHDLModel.VHDLModel.ModelEntity&#45;&gt;pyVHDLModel.VHDLModel.BaseExpression</title>
<path fill="none" stroke="#000000" stroke-width=".5" d="M205.1107,-9.5C215.2127,-9.5 225.5179,-9.5 235.7516,-9.5"/>
<polygon fill="#000000" stroke="#000000" stroke-width=".5" points="235.7685,-11.2501 240.7685,-9.5 235.7684,-7.7501 235.7685,-11.2501"/>
</g>
</g>
</svg>
