<?xml version="1.0" encoding="UTF-8" standalone="no"?>
<!DOCTYPE svg PUBLIC "-//W3C//DTD SVG 1.1//EN"
 "http://www.w3.org/Graphics/SVG/1.1/DTD/svg11.dtd">
<!-- Generated by graphviz version 2.40.1 (20161225.0304)
 -->
<!-- Title: inheritancea747b28ffd Pages: 1 -->
<svg width="576pt" height="60pt"
 viewBox="0.00 0.00 576.00 59.79" xmlns="http://www.w3.org/2000/svg" xmlns:xlink="http://www.w3.org/1999/xlink">
<g id="graph0" class="graph" transform="scale(.7291 .7291) rotate(0) translate(4 78)">
<title>inheritancea747b28ffd</title>
<polygon fill="#ffffff" stroke="transparent" points="-4,4 -4,-78 786,-78 786,4 -4,4"/>
<!-- pyGHDL.dom.DOMMixin -->
<g id="node1" class="node">
<title>pyGHDL.dom.DOMMixin</title>
<g id="a_node1"><a xlink:href="../pyGHDL.dom.html#pyGHDL.dom.DOMMixin" xlink:title="pyGHDL.dom.DOMMixin" target="_top">
<polygon fill="none" stroke="#000000" stroke-width=".5" points="596,-74 462,-74 462,-55 596,-55 596,-74"/>
<text text-anchor="middle" x="529" y="-62" font-family="Vera Sans, DejaVu Sans, Liberation Sans, Arial, Helvetica, sans" font-size="10.00" fill="#000000">pyGHDL.dom.DOMMixin</text>
</a>
</g>
</g>
<!-- pyGHDL.dom.Object.File -->
<g id="node2" class="node">
<title>pyGHDL.dom.Object.File</title>
<g id="a_node2"><a xlink:href="../pyGHDL/pyGHDL.dom.Object.html#pyGHDL.dom.Object.File" xlink:title="pyGHDL.dom.Object.File" target="_top">
<polygon fill="none" stroke="#000000" stroke-width=".5" points="782,-55 647,-55 647,-36 782,-36 782,-55"/>
<text text-anchor="middle" x="714.5" y="-43" font-family="Vera Sans, DejaVu Sans, Liberation Sans, Arial, Helvetica, sans" font-size="10.00" fill="#000000">pyGHDL.dom.Object.File</text>
</a>
</g>
</g>
<!-- pyGHDL.dom.DOMMixin&#45;&gt;pyGHDL.dom.Object.File -->
<g id="edge2" class="edge">
<title>pyGHDL.dom.DOMMixin&#45;&gt;pyGHDL.dom.Object.File</title>
<path fill="none" stroke="#000000" stroke-width=".5" d="M596.232,-57.6137C611.0437,-56.0966 626.7967,-54.4831 641.8129,-52.945"/>
<polygon fill="#000000" stroke="#000000" stroke-width=".5" points="642.0791,-54.677 646.8747,-52.4266 641.7224,-51.1952 642.0791,-54.677"/>
</g>
<!-- pyVHDLModel.VHDLModel.File -->
<g id="node3" class="node">
<title>pyVHDLModel.VHDLModel.File</title>
<polygon fill="none" stroke="#000000" stroke-width=".5" points="611,-37 447,-37 447,-18 611,-18 611,-37"/>
<text text-anchor="middle" x="529" y="-25" font-family="Vera Sans, DejaVu Sans, Liberation Sans, Arial, Helvetica, sans" font-size="10.00" fill="#000000">pyVHDLModel.VHDLModel.File</text>
</g>
<!-- pyVHDLModel.VHDLModel.File&#45;&gt;pyGHDL.dom.Object.File -->
<g id="edge1" class="edge">
<title>pyVHDLModel.VHDLModel.File&#45;&gt;pyGHDL.dom.Object.File</title>
<path fill="none" stroke="#000000" stroke-width=".5" d="M611.1731,-35.4737C621.3236,-36.4586 631.6454,-37.4602 641.6436,-38.4304"/>
<polygon fill="#000000" stroke="#000000" stroke-width=".5" points="641.6941,-40.1934 646.8398,-38.9346 642.0322,-36.7098 641.6941,-40.1934"/>
</g>
<!-- pyVHDLModel.VHDLModel.Obj -->
<g id="node4" class="node">
<title>pyVHDLModel.VHDLModel.Obj</title>
<polygon fill="none" stroke="#000000" stroke-width=".5" points="411,-37 247,-37 247,-18 411,-18 411,-37"/>
<text text-anchor="middle" x="329" y="-25" font-family="Vera Sans, DejaVu Sans, Liberation Sans, Arial, Helvetica, sans" font-size="10.00" fill="#000000">pyVHDLModel.VHDLModel.Obj</text>
</g>
<!-- pyVHDLModel.VHDLModel.Obj&#45;&gt;pyVHDLModel.VHDLModel.File -->
<g id="edge3" class="edge">
<title>pyVHDLModel.VHDLModel.Obj&#45;&gt;pyVHDLModel.VHDLModel.File</title>
<path fill="none" stroke="#000000" stroke-width=".5" d="M411.2135,-27.5C421.2139,-27.5 431.4596,-27.5 441.5328,-27.5"/>
<polygon fill="#000000" stroke="#000000" stroke-width=".5" points="441.7826,-29.2501 446.7826,-27.5 441.7826,-25.7501 441.7826,-29.2501"/>
</g>
<!-- pyVHDLModel.VHDLModel.ModelEntity -->
<g id="node5" class="node">
<title>pyVHDLModel.VHDLModel.ModelEntity</title>
<g id="a_node5"><a xlink:title="``ModelEntity`` is the base class for all classes in the VHDL language model,">
<polygon fill="none" stroke="#000000" stroke-width=".5" points="208,-56 3,-56 3,-37 208,-37 208,-56"/>
<text text-anchor="middle" x="105.5" y="-44" font-family="Vera Sans, DejaVu Sans, Liberation Sans, Arial, Helvetica, sans" font-size="10.00" fill="#000000">pyVHDLModel.VHDLModel.ModelEntity</text>
</a>
</g>
</g>
<!-- pyVHDLModel.VHDLModel.ModelEntity&#45;&gt;pyVHDLModel.VHDLModel.Obj -->
<g id="edge4" class="edge">
<title>pyVHDLModel.VHDLModel.ModelEntity&#45;&gt;pyVHDLModel.VHDLModel.Obj</title>
<path fill="none" stroke="#000000" stroke-width=".5" d="M208.0921,-37.7785C219.3372,-36.8226 230.7068,-35.856 241.7413,-34.918"/>
<polygon fill="#000000" stroke="#000000" stroke-width=".5" points="241.9522,-36.6564 246.786,-34.4891 241.6557,-33.169 241.9522,-36.6564"/>
</g>
<!-- pyVHDLModel.VHDLModel.NamedEntity -->
<g id="node6" class="node">
<title>pyVHDLModel.VHDLModel.NamedEntity</title>
<g id="a_node6"><a xlink:title="A ``NamedEntity`` is a mixin class for all VHDL entities that have identifiers.">
<polygon fill="none" stroke="#000000" stroke-width=".5" points="211,-19 0,-19 0,0 211,0 211,-19"/>
<text text-anchor="middle" x="105.5" y="-7" font-family="Vera Sans, DejaVu Sans, Liberation Sans, Arial, Helvetica, sans" font-size="10.00" fill="#000000">pyVHDLModel.VHDLModel.NamedEntity</text>
</a>
</g>
</g>
<!-- pyVHDLModel.VHDLModel.NamedEntity&#45;&gt;pyVHDLModel.VHDLModel.Obj -->
<g id="edge5" class="edge">
<title>pyVHDLModel.VHDLModel.NamedEntity&#45;&gt;pyVHDLModel.VHDLModel.Obj</title>
<path fill="none" stroke="#000000" stroke-width=".5" d="M211.0324,-17.9993C221.2346,-18.8209 231.5062,-19.6482 241.5056,-20.4535"/>
<polygon fill="#000000" stroke="#000000" stroke-width=".5" points="241.5836,-22.2153 246.708,-20.8725 241.8646,-18.7266 241.5836,-22.2153"/>
</g>
</g>
</svg>
