<?xml version="1.0" encoding="UTF-8" standalone="no"?>
<!DOCTYPE svg PUBLIC "-//W3C//DTD SVG 1.1//EN"
 "http://www.w3.org/Graphics/SVG/1.1/DTD/svg11.dtd">
<!-- Generated by graphviz version 2.40.1 (20161225.0304)
 -->
<!-- Title: inheritance668588a692 Pages: 1 -->
<svg width="576pt" height="42pt"
 viewBox="0.00 0.00 576.00 41.50" xmlns="http://www.w3.org/2000/svg" xmlns:xlink="http://www.w3.org/1999/xlink">
<g id="graph0" class="graph" transform="scale(.5062 .5062) rotate(0) translate(4 78)">
<title>inheritance668588a692</title>
<polygon fill="#ffffff" stroke="transparent" points="-4,4 -4,-78 1134,-78 1134,4 -4,4"/>
<!-- pyGHDL.dom.DOMMixin -->
<g id="node1" class="node">
<title>pyGHDL.dom.DOMMixin</title>
<g id="a_node1"><a xlink:href="../pyGHDL.dom.html#pyGHDL.dom.DOMMixin" xlink:title="pyGHDL.dom.DOMMixin" target="_top">
<polygon fill="none" stroke="#000000" stroke-width=".5" points="874,-74 740,-74 740,-55 874,-55 874,-74"/>
<text text-anchor="middle" x="807" y="-62" font-family="Vera Sans, DejaVu Sans, Liberation Sans, Arial, Helvetica, sans" font-size="10.00" fill="#000000">pyGHDL.dom.DOMMixin</text>
</a>
</g>
</g>
<!-- pyGHDL.dom.Type.ProtectedType -->
<g id="node2" class="node">
<title>pyGHDL.dom.Type.ProtectedType</title>
<g id="a_node2"><a xlink:href="../pyGHDL/pyGHDL.dom.Type.html#pyGHDL.dom.Type.ProtectedType" xlink:title="pyGHDL.dom.Type.ProtectedType" target="_top">
<polygon fill="none" stroke="#000000" stroke-width=".5" points="1130,-55 951,-55 951,-36 1130,-36 1130,-55"/>
<text text-anchor="middle" x="1040.5" y="-43" font-family="Vera Sans, DejaVu Sans, Liberation Sans, Arial, Helvetica, sans" font-size="10.00" fill="#000000">pyGHDL.dom.Type.ProtectedType</text>
</a>
</g>
</g>
<!-- pyGHDL.dom.DOMMixin&#45;&gt;pyGHDL.dom.Type.ProtectedType -->
<g id="edge2" class="edge">
<title>pyGHDL.dom.DOMMixin&#45;&gt;pyGHDL.dom.Type.ProtectedType</title>
<path fill="none" stroke="#000000" stroke-width=".5" d="M874.2246,-59.0299C896.4878,-57.2183 921.7004,-55.1668 945.6395,-53.2188"/>
<polygon fill="#000000" stroke="#000000" stroke-width=".5" points="945.8854,-54.9547 950.727,-52.8049 945.6015,-51.4662 945.8854,-54.9547"/>
</g>
<!-- pyVHDLModel.VHDLModel.ProtectedType -->
<g id="node3" class="node">
<title>pyVHDLModel.VHDLModel.ProtectedType</title>
<polygon fill="none" stroke="#000000" stroke-width=".5" points="915,-37 699,-37 699,-18 915,-18 915,-37"/>
<text text-anchor="middle" x="807" y="-25" font-family="Vera Sans, DejaVu Sans, Liberation Sans, Arial, Helvetica, sans" font-size="10.00" fill="#000000">pyVHDLModel.VHDLModel.ProtectedType</text>
</g>
<!-- pyVHDLModel.VHDLModel.ProtectedType&#45;&gt;pyGHDL.dom.Type.ProtectedType -->
<g id="edge1" class="edge">
<title>pyVHDLModel.VHDLModel.ProtectedType&#45;&gt;pyGHDL.dom.Type.ProtectedType</title>
<path fill="none" stroke="#000000" stroke-width=".5" d="M915.2058,-35.8413C925.3645,-36.6245 935.61,-37.4143 945.6324,-38.1869"/>
<polygon fill="#000000" stroke="#000000" stroke-width=".5" points="945.7317,-39.9496 950.8515,-38.5892 946.0008,-36.46 945.7317,-39.9496"/>
</g>
<!-- pyVHDLModel.VHDLModel.BaseType -->
<g id="node4" class="node">
<title>pyVHDLModel.VHDLModel.BaseType</title>
<g id="a_node4"><a xlink:title="``BaseType`` is the base class of all type entities in this model.">
<polygon fill="none" stroke="#000000" stroke-width=".5" points="441,-37 247,-37 247,-18 441,-18 441,-37"/>
<text text-anchor="middle" x="344" y="-25" font-family="Vera Sans, DejaVu Sans, Liberation Sans, Arial, Helvetica, sans" font-size="10.00" fill="#000000">pyVHDLModel.VHDLModel.BaseType</text>
</a>
</g>
</g>
<!-- pyVHDLModel.VHDLModel.FullType -->
<g id="node7" class="node">
<title>pyVHDLModel.VHDLModel.FullType</title>
<polygon fill="none" stroke="#000000" stroke-width=".5" points="663,-37 477,-37 477,-18 663,-18 663,-37"/>
<text text-anchor="middle" x="570" y="-25" font-family="Vera Sans, DejaVu Sans, Liberation Sans, Arial, Helvetica, sans" font-size="10.00" fill="#000000">pyVHDLModel.VHDLModel.FullType</text>
</g>
<!-- pyVHDLModel.VHDLModel.BaseType&#45;&gt;pyVHDLModel.VHDLModel.FullType -->
<g id="edge5" class="edge">
<title>pyVHDLModel.VHDLModel.BaseType&#45;&gt;pyVHDLModel.VHDLModel.FullType</title>
<path fill="none" stroke="#000000" stroke-width=".5" d="M441.1559,-27.5C451.2418,-27.5 461.4995,-27.5 471.599,-27.5"/>
<polygon fill="#000000" stroke="#000000" stroke-width=".5" points="471.8642,-29.2501 476.8642,-27.5 471.8641,-25.7501 471.8642,-29.2501"/>
</g>
<!-- pyVHDLModel.VHDLModel.ModelEntity -->
<g id="node5" class="node">
<title>pyVHDLModel.VHDLModel.ModelEntity</title>
<g id="a_node5"><a xlink:title="``ModelEntity`` is the base class for all classes in the VHDL language model,">
<polygon fill="none" stroke="#000000" stroke-width=".5" points="208,-56 3,-56 3,-37 208,-37 208,-56"/>
<text text-anchor="middle" x="105.5" y="-44" font-family="Vera Sans, DejaVu Sans, Liberation Sans, Arial, Helvetica, sans" font-size="10.00" fill="#000000">pyVHDLModel.VHDLModel.ModelEntity</text>
</a>
</g>
</g>
<!-- pyVHDLModel.VHDLModel.ModelEntity&#45;&gt;pyVHDLModel.VHDLModel.BaseType -->
<g id="edge3" class="edge">
<title>pyVHDLModel.VHDLModel.ModelEntity&#45;&gt;pyVHDLModel.VHDLModel.BaseType</title>
<path fill="none" stroke="#000000" stroke-width=".5" d="M208.0296,-38.332C219.1971,-37.4424 230.5642,-36.5368 241.7286,-35.6474"/>
<polygon fill="#000000" stroke="#000000" stroke-width=".5" points="241.9972,-37.3816 246.8424,-35.24 241.7192,-33.8927 241.9972,-37.3816"/>
</g>
<!-- pyVHDLModel.VHDLModel.NamedEntity -->
<g id="node6" class="node">
<title>pyVHDLModel.VHDLModel.NamedEntity</title>
<g id="a_node6"><a xlink:title="A ``NamedEntity`` is a mixin class for all VHDL entities that have identifiers.">
<polygon fill="none" stroke="#000000" stroke-width=".5" points="211,-19 0,-19 0,0 211,0 211,-19"/>
<text text-anchor="middle" x="105.5" y="-7" font-family="Vera Sans, DejaVu Sans, Liberation Sans, Arial, Helvetica, sans" font-size="10.00" fill="#000000">pyVHDLModel.VHDLModel.NamedEntity</text>
</a>
</g>
</g>
<!-- pyVHDLModel.VHDLModel.NamedEntity&#45;&gt;pyVHDLModel.VHDLModel.BaseType -->
<g id="edge4" class="edge">
<title>pyVHDLModel.VHDLModel.NamedEntity&#45;&gt;pyVHDLModel.VHDLModel.BaseType</title>
<path fill="none" stroke="#000000" stroke-width=".5" d="M211.1511,-17.4737C221.2309,-18.2344 231.4421,-19.0051 241.4914,-19.7635"/>
<polygon fill="#000000" stroke="#000000" stroke-width=".5" points="241.6127,-21.5275 246.7302,-20.1589 241.8761,-18.0375 241.6127,-21.5275"/>
</g>
<!-- pyVHDLModel.VHDLModel.FullType&#45;&gt;pyVHDLModel.VHDLModel.ProtectedType -->
<g id="edge6" class="edge">
<title>pyVHDLModel.VHDLModel.FullType&#45;&gt;pyVHDLModel.VHDLModel.ProtectedType</title>
<path fill="none" stroke="#000000" stroke-width=".5" d="M663.3285,-27.5C673.3471,-27.5 683.6175,-27.5 693.8348,-27.5"/>
<polygon fill="#000000" stroke="#000000" stroke-width=".5" points="693.845,-29.2501 698.845,-27.5 693.845,-25.7501 693.845,-29.2501"/>
</g>
</g>
</svg>
