<?xml version="1.0" encoding="UTF-8" standalone="no"?>
<!DOCTYPE svg PUBLIC "-//W3C//DTD SVG 1.1//EN"
 "http://www.w3.org/Graphics/SVG/1.1/DTD/svg11.dtd">
<!-- Generated by graphviz version 2.40.1 (20161225.0304)
 -->
<!-- Title: inheritance57e6b79fa7 Pages: 1 -->
<svg width="576pt" height="51pt"
 viewBox="0.00 0.00 576.00 51.45" xmlns="http://www.w3.org/2000/svg" xmlns:xlink="http://www.w3.org/1999/xlink">
<g id="graph0" class="graph" transform="scale(.6275 .6275) rotate(0) translate(4 78)">
<title>inheritance57e6b79fa7</title>
<polygon fill="#ffffff" stroke="transparent" points="-4,4 -4,-78 914,-78 914,4 -4,4"/>
<!-- pyGHDL.dom.DOMMixin -->
<g id="node1" class="node">
<title>pyGHDL.dom.DOMMixin</title>
<g id="a_node1"><a xlink:href="../pyGHDL.dom.html#pyGHDL.dom.DOMMixin" xlink:title="pyGHDL.dom.DOMMixin" target="_top">
<polygon fill="none" stroke="#000000" stroke-width=".5" points="660,-74 526,-74 526,-55 660,-55 660,-74"/>
<text text-anchor="middle" x="593" y="-62" font-family="Vera Sans, DejaVu Sans, Liberation Sans, Arial, Helvetica, sans" font-size="10.00" fill="#000000">pyGHDL.dom.DOMMixin</text>
</a>
</g>
</g>
<!-- pyGHDL.dom.Subprogram.Function -->
<g id="node2" class="node">
<title>pyGHDL.dom.Subprogram.Function</title>
<g id="a_node2"><a xlink:href="../pyGHDL/pyGHDL.dom.Subprogram.html#pyGHDL.dom.Subprogram.Function" xlink:title="pyGHDL.dom.Subprogram.Function" target="_top">
<polygon fill="none" stroke="#000000" stroke-width=".5" points="910,-55 723,-55 723,-36 910,-36 910,-55"/>
<text text-anchor="middle" x="816.5" y="-43" font-family="Vera Sans, DejaVu Sans, Liberation Sans, Arial, Helvetica, sans" font-size="10.00" fill="#000000">pyGHDL.dom.Subprogram.Function</text>
</a>
</g>
</g>
<!-- pyGHDL.dom.DOMMixin&#45;&gt;pyGHDL.dom.Subprogram.Function -->
<g id="edge2" class="edge">
<title>pyGHDL.dom.DOMMixin&#45;&gt;pyGHDL.dom.Subprogram.Function</title>
<path fill="none" stroke="#000000" stroke-width=".5" d="M660.0574,-58.7994C678.0396,-57.2707 697.8703,-55.5848 717.1981,-53.9418"/>
<polygon fill="#000000" stroke="#000000" stroke-width=".5" points="717.8005,-55.647 722.6342,-53.4796 717.5039,-52.1595 717.8005,-55.647"/>
</g>
<!-- pyVHDLModel.VHDLModel.Function -->
<g id="node3" class="node">
<title>pyVHDLModel.VHDLModel.Function</title>
<polygon fill="none" stroke="#000000" stroke-width=".5" points="687,-37 499,-37 499,-18 687,-18 687,-37"/>
<text text-anchor="middle" x="593" y="-25" font-family="Vera Sans, DejaVu Sans, Liberation Sans, Arial, Helvetica, sans" font-size="10.00" fill="#000000">pyVHDLModel.VHDLModel.Function</text>
</g>
<!-- pyVHDLModel.VHDLModel.Function&#45;&gt;pyGHDL.dom.Subprogram.Function -->
<g id="edge1" class="edge">
<title>pyVHDLModel.VHDLModel.Function&#45;&gt;pyGHDL.dom.Subprogram.Function</title>
<path fill="none" stroke="#000000" stroke-width=".5" d="M687.1364,-35.0815C697.2861,-35.8989 707.6346,-36.7323 717.8357,-37.5539"/>
<polygon fill="#000000" stroke="#000000" stroke-width=".5" points="717.7058,-39.299 722.8302,-37.9561 717.9868,-35.8103 717.7058,-39.299"/>
</g>
<!-- pyVHDLModel.VHDLModel.SubProgramm -->
<g id="node4" class="node">
<title>pyVHDLModel.VHDLModel.SubProgramm</title>
<polygon fill="none" stroke="#000000" stroke-width=".5" points="463,-37 247,-37 247,-18 463,-18 463,-37"/>
<text text-anchor="middle" x="355" y="-25" font-family="Vera Sans, DejaVu Sans, Liberation Sans, Arial, Helvetica, sans" font-size="10.00" fill="#000000">pyVHDLModel.VHDLModel.SubProgramm</text>
</g>
<!-- pyVHDLModel.VHDLModel.SubProgramm&#45;&gt;pyVHDLModel.VHDLModel.Function -->
<g id="edge3" class="edge">
<title>pyVHDLModel.VHDLModel.SubProgramm&#45;&gt;pyVHDLModel.VHDLModel.Function</title>
<path fill="none" stroke="#000000" stroke-width=".5" d="M463.2056,-27.5C473.3487,-27.5 483.5972,-27.5 493.6532,-27.5"/>
<polygon fill="#000000" stroke="#000000" stroke-width=".5" points="493.8927,-29.2501 498.8927,-27.5 493.8927,-25.7501 493.8927,-29.2501"/>
</g>
<!-- pyVHDLModel.VHDLModel.ModelEntity -->
<g id="node5" class="node">
<title>pyVHDLModel.VHDLModel.ModelEntity</title>
<g id="a_node5"><a xlink:title="``ModelEntity`` is the base class for all classes in the VHDL language model,">
<polygon fill="none" stroke="#000000" stroke-width=".5" points="208,-56 3,-56 3,-37 208,-37 208,-56"/>
<text text-anchor="middle" x="105.5" y="-44" font-family="Vera Sans, DejaVu Sans, Liberation Sans, Arial, Helvetica, sans" font-size="10.00" fill="#000000">pyVHDLModel.VHDLModel.ModelEntity</text>
</a>
</g>
</g>
<!-- pyVHDLModel.VHDLModel.ModelEntity&#45;&gt;pyVHDLModel.VHDLModel.SubProgramm -->
<g id="edge4" class="edge">
<title>pyVHDLModel.VHDLModel.ModelEntity&#45;&gt;pyVHDLModel.VHDLModel.SubProgramm</title>
<path fill="none" stroke="#000000" stroke-width=".5" d="M208.0613,-38.6897C219.134,-37.8465 230.4476,-36.9849 241.6381,-36.1328"/>
<polygon fill="#000000" stroke="#000000" stroke-width=".5" points="241.917,-37.8667 246.7696,-35.742 241.6512,-34.3768 241.917,-37.8667"/>
</g>
<!-- pyVHDLModel.VHDLModel.NamedEntity -->
<g id="node6" class="node">
<title>pyVHDLModel.VHDLModel.NamedEntity</title>
<g id="a_node6"><a xlink:title="A ``NamedEntity`` is a mixin class for all VHDL entities that have identifiers.">
<polygon fill="none" stroke="#000000" stroke-width=".5" points="211,-19 0,-19 0,0 211,0 211,-19"/>
<text text-anchor="middle" x="105.5" y="-7" font-family="Vera Sans, DejaVu Sans, Liberation Sans, Arial, Helvetica, sans" font-size="10.00" fill="#000000">pyVHDLModel.VHDLModel.NamedEntity</text>
</a>
</g>
</g>
<!-- pyVHDLModel.VHDLModel.NamedEntity&#45;&gt;pyVHDLModel.VHDLModel.SubProgramm -->
<g id="edge5" class="edge">
<title>pyVHDLModel.VHDLModel.NamedEntity&#45;&gt;pyVHDLModel.VHDLModel.SubProgramm</title>
<path fill="none" stroke="#000000" stroke-width=".5" d="M211.3105,-17.1336C221.2633,-17.8517 231.3808,-18.5816 241.4015,-19.3045"/>
<polygon fill="#000000" stroke="#000000" stroke-width=".5" points="241.5185,-21.0674 246.6315,-19.6818 241.7704,-17.5765 241.5185,-21.0674"/>
</g>
</g>
</svg>
