<?xml version="1.0" encoding="UTF-8" standalone="no"?>
<!DOCTYPE svg PUBLIC "-//W3C//DTD SVG 1.1//EN"
 "http://www.w3.org/Graphics/SVG/1.1/DTD/svg11.dtd">
<!-- Generated by graphviz version 2.40.1 (20161225.0304)
 -->
<!-- Title: inheritance72bd48b9e8 Pages: 1 -->
<svg width="576pt" height="52pt"
 viewBox="0.00 0.00 576.00 52.25" xmlns="http://www.w3.org/2000/svg" xmlns:xlink="http://www.w3.org/1999/xlink">
<g id="graph0" class="graph" transform="scale(.6372 .6372) rotate(0) translate(4 78)">
<title>inheritance72bd48b9e8</title>
<polygon fill="#ffffff" stroke="transparent" points="-4,4 -4,-78 900,-78 900,4 -4,4"/>
<!-- pyGHDL.dom.DOMMixin -->
<g id="node1" class="node">
<title>pyGHDL.dom.DOMMixin</title>
<g id="a_node1"><a xlink:href="../pyGHDL.dom.html#pyGHDL.dom.DOMMixin" xlink:title="pyGHDL.dom.DOMMixin" target="_top">
<polygon fill="none" stroke="#000000" stroke-width=".5" points="624.5,-74 490.5,-74 490.5,-55 624.5,-55 624.5,-74"/>
<text text-anchor="middle" x="557.5" y="-62" font-family="Vera Sans, DejaVu Sans, Liberation Sans, Arial, Helvetica, sans" font-size="10.00" fill="#000000">pyGHDL.dom.DOMMixin</text>
</a>
</g>
</g>
<!-- pyGHDL.dom.Object.SharedVariable -->
<g id="node2" class="node">
<title>pyGHDL.dom.Object.SharedVariable</title>
<g id="a_node2"><a xlink:href="../pyGHDL/pyGHDL.dom.Object.html#pyGHDL.dom.Object.SharedVariable" xlink:title="pyGHDL.dom.Object.SharedVariable" target="_top">
<polygon fill="none" stroke="#000000" stroke-width=".5" points="896,-55 704,-55 704,-36 896,-36 896,-55"/>
<text text-anchor="middle" x="800" y="-43" font-family="Vera Sans, DejaVu Sans, Liberation Sans, Arial, Helvetica, sans" font-size="10.00" fill="#000000">pyGHDL.dom.Object.SharedVariable</text>
</a>
</g>
</g>
<!-- pyGHDL.dom.DOMMixin&#45;&gt;pyGHDL.dom.Object.SharedVariable -->
<g id="edge2" class="edge">
<title>pyGHDL.dom.DOMMixin&#45;&gt;pyGHDL.dom.Object.SharedVariable</title>
<path fill="none" stroke="#000000" stroke-width=".5" d="M624.7277,-59.2327C647.4976,-57.4486 673.4624,-55.4143 698.3027,-53.468"/>
<polygon fill="#000000" stroke="#000000" stroke-width=".5" points="698.7367,-55.1895 703.5847,-53.0542 698.4632,-51.7002 698.7367,-55.1895"/>
</g>
<!-- pyVHDLModel.VHDLModel.SharedVariable -->
<g id="node3" class="node">
<title>pyVHDLModel.VHDLModel.SharedVariable</title>
<polygon fill="none" stroke="#000000" stroke-width=".5" points="668,-37 447,-37 447,-18 668,-18 668,-37"/>
<text text-anchor="middle" x="557.5" y="-25" font-family="Vera Sans, DejaVu Sans, Liberation Sans, Arial, Helvetica, sans" font-size="10.00" fill="#000000">pyVHDLModel.VHDLModel.SharedVariable</text>
</g>
<!-- pyVHDLModel.VHDLModel.SharedVariable&#45;&gt;pyGHDL.dom.Object.SharedVariable -->
<g id="edge1" class="edge">
<title>pyVHDLModel.VHDLModel.SharedVariable&#45;&gt;pyGHDL.dom.Object.SharedVariable</title>
<path fill="none" stroke="#000000" stroke-width=".5" d="M668.1055,-35.7099C678.211,-36.46 688.4158,-37.2175 698.4364,-37.9613"/>
<polygon fill="#000000" stroke="#000000" stroke-width=".5" points="698.5423,-39.7239 703.6582,-38.3489 698.8015,-36.2335 698.5423,-39.7239"/>
</g>
<!-- pyVHDLModel.VHDLModel.ModelEntity -->
<g id="node4" class="node">
<title>pyVHDLModel.VHDLModel.ModelEntity</title>
<g id="a_node4"><a xlink:title="``ModelEntity`` is the base class for all classes in the VHDL language model,">
<polygon fill="none" stroke="#000000" stroke-width=".5" points="208,-56 3,-56 3,-37 208,-37 208,-56"/>
<text text-anchor="middle" x="105.5" y="-44" font-family="Vera Sans, DejaVu Sans, Liberation Sans, Arial, Helvetica, sans" font-size="10.00" fill="#000000">pyVHDLModel.VHDLModel.ModelEntity</text>
</a>
</g>
</g>
<!-- pyVHDLModel.VHDLModel.Obj -->
<g id="node6" class="node">
<title>pyVHDLModel.VHDLModel.Obj</title>
<polygon fill="none" stroke="#000000" stroke-width=".5" points="411,-37 247,-37 247,-18 411,-18 411,-37"/>
<text text-anchor="middle" x="329" y="-25" font-family="Vera Sans, DejaVu Sans, Liberation Sans, Arial, Helvetica, sans" font-size="10.00" fill="#000000">pyVHDLModel.VHDLModel.Obj</text>
</g>
<!-- pyVHDLModel.VHDLModel.ModelEntity&#45;&gt;pyVHDLModel.VHDLModel.Obj -->
<g id="edge3" class="edge">
<title>pyVHDLModel.VHDLModel.ModelEntity&#45;&gt;pyVHDLModel.VHDLModel.Obj</title>
<path fill="none" stroke="#000000" stroke-width=".5" d="M208.0921,-37.7785C219.3372,-36.8226 230.7068,-35.856 241.7413,-34.918"/>
<polygon fill="#000000" stroke="#000000" stroke-width=".5" points="241.9522,-36.6564 246.786,-34.4891 241.6557,-33.169 241.9522,-36.6564"/>
</g>
<!-- pyVHDLModel.VHDLModel.NamedEntity -->
<g id="node5" class="node">
<title>pyVHDLModel.VHDLModel.NamedEntity</title>
<g id="a_node5"><a xlink:title="A ``NamedEntity`` is a mixin class for all VHDL entities that have identifiers.">
<polygon fill="none" stroke="#000000" stroke-width=".5" points="211,-19 0,-19 0,0 211,0 211,-19"/>
<text text-anchor="middle" x="105.5" y="-7" font-family="Vera Sans, DejaVu Sans, Liberation Sans, Arial, Helvetica, sans" font-size="10.00" fill="#000000">pyVHDLModel.VHDLModel.NamedEntity</text>
</a>
</g>
</g>
<!-- pyVHDLModel.VHDLModel.NamedEntity&#45;&gt;pyVHDLModel.VHDLModel.Obj -->
<g id="edge4" class="edge">
<title>pyVHDLModel.VHDLModel.NamedEntity&#45;&gt;pyVHDLModel.VHDLModel.Obj</title>
<path fill="none" stroke="#000000" stroke-width=".5" d="M211.0324,-17.9993C221.2346,-18.8209 231.5062,-19.6482 241.5056,-20.4535"/>
<polygon fill="#000000" stroke="#000000" stroke-width=".5" points="241.5836,-22.2153 246.708,-20.8725 241.8646,-18.7266 241.5836,-22.2153"/>
</g>
<!-- pyVHDLModel.VHDLModel.Obj&#45;&gt;pyVHDLModel.VHDLModel.SharedVariable -->
<g id="edge5" class="edge">
<title>pyVHDLModel.VHDLModel.Obj&#45;&gt;pyVHDLModel.VHDLModel.SharedVariable</title>
<path fill="none" stroke="#000000" stroke-width=".5" d="M411.1709,-27.5C421.0668,-27.5 431.3121,-27.5 441.5754,-27.5"/>
<polygon fill="#000000" stroke="#000000" stroke-width=".5" points="441.6138,-29.2501 446.6137,-27.5 441.6137,-25.7501 441.6138,-29.2501"/>
</g>
</g>
</svg>
