<?xml version="1.0" encoding="UTF-8" standalone="no"?>
<!DOCTYPE svg PUBLIC "-//W3C//DTD SVG 1.1//EN"
 "http://www.w3.org/Graphics/SVG/1.1/DTD/svg11.dtd">
<!-- Generated by graphviz version 2.40.1 (20161225.0304)
 -->
<!-- Title: inheritance2d884852a7 Pages: 1 -->
<svg width="576pt" height="20pt"
 viewBox="0.00 0.00 576.00 20.09" xmlns="http://www.w3.org/2000/svg" xmlns:xlink="http://www.w3.org/1999/xlink">
<g id="graph0" class="graph" transform="scale(.3139 .3139) rotate(0) translate(4 60)">
<title>inheritance2d884852a7</title>
<polygon fill="#ffffff" stroke="transparent" points="-4,4 -4,-60 1831,-60 1831,4 -4,4"/>
<!-- pyGHDL.dom.DOMMixin -->
<g id="node1" class="node">
<title>pyGHDL.dom.DOMMixin</title>
<g id="a_node1"><a xlink:href="../pyGHDL.dom.html#pyGHDL.dom.DOMMixin" xlink:title="pyGHDL.dom.DOMMixin" target="_top">
<polygon fill="none" stroke="#000000" stroke-width=".5" points="1488.5,-56 1354.5,-56 1354.5,-37 1488.5,-37 1488.5,-56"/>
<text text-anchor="middle" x="1421.5" y="-44" font-family="Vera Sans, DejaVu Sans, Liberation Sans, Arial, Helvetica, sans" font-size="10.00" fill="#000000">pyGHDL.dom.DOMMixin</text>
</a>
</g>
</g>
<!-- pyGHDL.dom.Expression.RotateLeftExpression -->
<g id="node2" class="node">
<title>pyGHDL.dom.Expression.RotateLeftExpression</title>
<g id="a_node2"><a xlink:href="../pyGHDL/pyGHDL.dom.Expression.html#pyGHDL.dom.Expression.RotateLeftExpression" xlink:title="pyGHDL.dom.Expression.RotateLeftExpression" target="_top">
<polygon fill="none" stroke="#000000" stroke-width=".5" points="1827,-37 1583,-37 1583,-18 1827,-18 1827,-37"/>
<text text-anchor="middle" x="1705" y="-25" font-family="Vera Sans, DejaVu Sans, Liberation Sans, Arial, Helvetica, sans" font-size="10.00" fill="#000000">pyGHDL.dom.Expression.RotateLeftExpression</text>
</a>
</g>
</g>
<!-- pyGHDL.dom.DOMMixin&#45;&gt;pyGHDL.dom.Expression.RotateLeftExpression -->
<g id="edge2" class="edge">
<title>pyGHDL.dom.DOMMixin&#45;&gt;pyGHDL.dom.Expression.RotateLeftExpression</title>
<path fill="none" stroke="#000000" stroke-width=".5" d="M1488.6855,-41.9973C1515.3086,-40.213 1546.8374,-38.1 1577.4713,-36.0469"/>
<polygon fill="#000000" stroke="#000000" stroke-width=".5" points="1577.9061,-37.7718 1582.7778,-35.6913 1577.672,-34.2796 1577.9061,-37.7718"/>
</g>
<!-- pyVHDLModel.VHDLModel.RotateLeftExpression -->
<g id="node3" class="node">
<title>pyVHDLModel.VHDLModel.RotateLeftExpression</title>
<polygon fill="none" stroke="#000000" stroke-width=".5" points="1547,-19 1296,-19 1296,0 1547,0 1547,-19"/>
<text text-anchor="middle" x="1421.5" y="-7" font-family="Vera Sans, DejaVu Sans, Liberation Sans, Arial, Helvetica, sans" font-size="10.00" fill="#000000">pyVHDLModel.VHDLModel.RotateLeftExpression</text>
</g>
<!-- pyVHDLModel.VHDLModel.RotateLeftExpression&#45;&gt;pyGHDL.dom.Expression.RotateLeftExpression -->
<g id="edge1" class="edge">
<title>pyVHDLModel.VHDLModel.RotateLeftExpression&#45;&gt;pyGHDL.dom.Expression.RotateLeftExpression</title>
<path fill="none" stroke="#000000" stroke-width=".5" d="M1547.0853,-17.4737C1557.2677,-18.1202 1567.5628,-18.7738 1577.7568,-19.4211"/>
<polygon fill="#000000" stroke="#000000" stroke-width=".5" points="1577.6512,-21.1678 1582.7521,-19.7382 1577.8731,-17.6748 1577.6512,-21.1678"/>
</g>
<!-- pyVHDLModel.VHDLModel.BaseExpression -->
<g id="node4" class="node">
<title>pyVHDLModel.VHDLModel.BaseExpression</title>
<g id="a_node4"><a xlink:title="A ``BaseExpression`` is a base&#45;class for all expressions.">
<polygon fill="none" stroke="#000000" stroke-width=".5" points="465,-19 241,-19 241,0 465,0 465,-19"/>
<text text-anchor="middle" x="353" y="-7" font-family="Vera Sans, DejaVu Sans, Liberation Sans, Arial, Helvetica, sans" font-size="10.00" fill="#000000">pyVHDLModel.VHDLModel.BaseExpression</text>
</a>
</g>
</g>
<!-- pyVHDLModel.VHDLModel.BinaryExpression -->
<g id="node6" class="node">
<title>pyVHDLModel.VHDLModel.BinaryExpression</title>
<g id="a_node6"><a xlink:title="A ``BinaryExpression`` is a base&#45;class for all binary expressions.">
<polygon fill="none" stroke="#000000" stroke-width=".5" points="733,-19 501,-19 501,0 733,0 733,-19"/>
<text text-anchor="middle" x="617" y="-7" font-family="Vera Sans, DejaVu Sans, Liberation Sans, Arial, Helvetica, sans" font-size="10.00" fill="#000000">pyVHDLModel.VHDLModel.BinaryExpression</text>
</a>
</g>
</g>
<!-- pyVHDLModel.VHDLModel.BaseExpression&#45;&gt;pyVHDLModel.VHDLModel.BinaryExpression -->
<g id="edge4" class="edge">
<title>pyVHDLModel.VHDLModel.BaseExpression&#45;&gt;pyVHDLModel.VHDLModel.BinaryExpression</title>
<path fill="none" stroke="#000000" stroke-width=".5" d="M465.3426,-9.5C475.3813,-9.5 485.5751,-9.5 495.6849,-9.5"/>
<polygon fill="#000000" stroke="#000000" stroke-width=".5" points="495.9627,-11.2501 500.9627,-9.5 495.9626,-7.7501 495.9627,-11.2501"/>
</g>
<!-- pyVHDLModel.VHDLModel.ModelEntity -->
<g id="node5" class="node">
<title>pyVHDLModel.VHDLModel.ModelEntity</title>
<g id="a_node5"><a xlink:title="``ModelEntity`` is the base class for all classes in the VHDL language model,">
<polygon fill="none" stroke="#000000" stroke-width=".5" points="205,-19 0,-19 0,0 205,0 205,-19"/>
<text text-anchor="middle" x="102.5" y="-7" font-family="Vera Sans, DejaVu Sans, Liberation Sans, Arial, Helvetica, sans" font-size="10.00" fill="#000000">pyVHDLModel.VHDLModel.ModelEntity</text>
</a>
</g>
</g>
<!-- pyVHDLModel.VHDLModel.ModelEntity&#45;&gt;pyVHDLModel.VHDLModel.BaseExpression -->
<g id="edge3" class="edge">
<title>pyVHDLModel.VHDLModel.ModelEntity&#45;&gt;pyVHDLModel.VHDLModel.BaseExpression</title>
<path fill="none" stroke="#000000" stroke-width=".5" d="M205.1107,-9.5C215.2127,-9.5 225.5179,-9.5 235.7516,-9.5"/>
<polygon fill="#000000" stroke="#000000" stroke-width=".5" points="235.7685,-11.2501 240.7685,-9.5 235.7684,-7.7501 235.7685,-11.2501"/>
</g>
<!-- pyVHDLModel.VHDLModel.ShiftExpression -->
<g id="node8" class="node">
<title>pyVHDLModel.VHDLModel.ShiftExpression</title>
<g id="a_node8"><a xlink:title="A ``ShiftExpression`` is a base&#45;class for all shifting expressions.">
<polygon fill="none" stroke="#000000" stroke-width=".5" points="992,-19 769,-19 769,0 992,0 992,-19"/>
<text text-anchor="middle" x="880.5" y="-7" font-family="Vera Sans, DejaVu Sans, Liberation Sans, Arial, Helvetica, sans" font-size="10.00" fill="#000000">pyVHDLModel.VHDLModel.ShiftExpression</text>
</a>
</g>
</g>
<!-- pyVHDLModel.VHDLModel.BinaryExpression&#45;&gt;pyVHDLModel.VHDLModel.ShiftExpression -->
<g id="edge7" class="edge">
<title>pyVHDLModel.VHDLModel.BinaryExpression&#45;&gt;pyVHDLModel.VHDLModel.ShiftExpression</title>
<path fill="none" stroke="#000000" stroke-width=".5" d="M733.342,-9.5C743.3212,-9.5 753.4199,-9.5 763.405,-9.5"/>
<polygon fill="#000000" stroke="#000000" stroke-width=".5" points="763.615,-11.2501 768.615,-9.5 763.615,-7.7501 763.615,-11.2501"/>
</g>
<!-- pyVHDLModel.VHDLModel.RotateExpression -->
<g id="node7" class="node">
<title>pyVHDLModel.VHDLModel.RotateExpression</title>
<polygon fill="none" stroke="#000000" stroke-width=".5" points="1260,-19 1028,-19 1028,0 1260,0 1260,-19"/>
<text text-anchor="middle" x="1144" y="-7" font-family="Vera Sans, DejaVu Sans, Liberation Sans, Arial, Helvetica, sans" font-size="10.00" fill="#000000">pyVHDLModel.VHDLModel.RotateExpression</text>
</g>
<!-- pyVHDLModel.VHDLModel.RotateExpression&#45;&gt;pyVHDLModel.VHDLModel.RotateLeftExpression -->
<g id="edge6" class="edge">
<title>pyVHDLModel.VHDLModel.RotateExpression&#45;&gt;pyVHDLModel.VHDLModel.RotateLeftExpression</title>
<path fill="none" stroke="#000000" stroke-width=".5" d="M1260.0771,-9.5C1270.0685,-9.5 1280.2212,-9.5 1290.3202,-9.5"/>
<polygon fill="#000000" stroke="#000000" stroke-width=".5" points="1290.5954,-11.2501 1295.5954,-9.5 1290.5953,-7.7501 1290.5954,-11.2501"/>
</g>
<!-- pyVHDLModel.VHDLModel.ShiftExpression&#45;&gt;pyVHDLModel.VHDLModel.RotateExpression -->
<g id="edge5" class="edge">
<title>pyVHDLModel.VHDLModel.ShiftExpression&#45;&gt;pyVHDLModel.VHDLModel.RotateExpression</title>
<path fill="none" stroke="#000000" stroke-width=".5" d="M992.2477,-9.5C1002.3733,-9.5 1012.6602,-9.5 1022.8617,-9.5"/>
<polygon fill="#000000" stroke="#000000" stroke-width=".5" points="1022.8619,-11.2501 1027.8618,-9.5 1022.8618,-7.7501 1022.8619,-11.2501"/>
</g>
</g>
</svg>
