<?xml version="1.0" encoding="UTF-8" standalone="no"?>
<!DOCTYPE svg PUBLIC "-//W3C//DTD SVG 1.1//EN"
 "http://www.w3.org/Graphics/SVG/1.1/DTD/svg11.dtd">
<!-- Generated by graphviz version 2.40.1 (20161225.0304)
 -->
<!-- Title: inheritance740215f14c Pages: 1 -->
<svg width="576pt" height="30pt"
 viewBox="0.00 0.00 576.00 29.68" xmlns="http://www.w3.org/2000/svg" xmlns:xlink="http://www.w3.org/1999/xlink">
<g id="graph0" class="graph" transform="scale(.4638 .4638) rotate(0) translate(4 60)">
<title>inheritance740215f14c</title>
<polygon fill="#ffffff" stroke="transparent" points="-4,4 -4,-60 1238,-60 1238,4 -4,4"/>
<!-- pyGHDL.dom.DOMMixin -->
<g id="node1" class="node">
<title>pyGHDL.dom.DOMMixin</title>
<g id="a_node1"><a xlink:href="../pyGHDL.dom.html#pyGHDL.dom.DOMMixin" xlink:title="pyGHDL.dom.DOMMixin" target="_top">
<polygon fill="none" stroke="#000000" stroke-width=".5" points="918,-56 784,-56 784,-37 918,-37 918,-56"/>
<text text-anchor="middle" x="851" y="-44" font-family="Vera Sans, DejaVu Sans, Liberation Sans, Arial, Helvetica, sans" font-size="10.00" fill="#000000">pyGHDL.dom.DOMMixin</text>
</a>
</g>
</g>
<!-- pyGHDL.dom.Expression.SubtypeAllocation -->
<g id="node2" class="node">
<title>pyGHDL.dom.Expression.SubtypeAllocation</title>
<g id="a_node2"><a xlink:href="../pyGHDL/pyGHDL.dom.Expression.html#pyGHDL.dom.Expression.SubtypeAllocation" xlink:title="pyGHDL.dom.Expression.SubtypeAllocation" target="_top">
<polygon fill="none" stroke="#000000" stroke-width=".5" points="1234,-37 1005,-37 1005,-18 1234,-18 1234,-37"/>
<text text-anchor="middle" x="1119.5" y="-25" font-family="Vera Sans, DejaVu Sans, Liberation Sans, Arial, Helvetica, sans" font-size="10.00" fill="#000000">pyGHDL.dom.Expression.SubtypeAllocation</text>
</a>
</g>
</g>
<!-- pyGHDL.dom.DOMMixin&#45;&gt;pyGHDL.dom.Expression.SubtypeAllocation -->
<g id="edge2" class="edge">
<title>pyGHDL.dom.DOMMixin&#45;&gt;pyGHDL.dom.Expression.SubtypeAllocation</title>
<path fill="none" stroke="#000000" stroke-width=".5" d="M918.0613,-41.7545C942.7736,-40.0058 971.5783,-37.9675 999.5459,-35.9884"/>
<polygon fill="#000000" stroke="#000000" stroke-width=".5" points="999.8932,-37.7183 1004.7571,-35.6196 999.6461,-34.227 999.8932,-37.7183"/>
</g>
<!-- pyVHDLModel.VHDLModel.SubtypeAllocation -->
<g id="node3" class="node">
<title>pyVHDLModel.VHDLModel.SubtypeAllocation</title>
<polygon fill="none" stroke="#000000" stroke-width=".5" points="969,-19 733,-19 733,0 969,0 969,-19"/>
<text text-anchor="middle" x="851" y="-7" font-family="Vera Sans, DejaVu Sans, Liberation Sans, Arial, Helvetica, sans" font-size="10.00" fill="#000000">pyVHDLModel.VHDLModel.SubtypeAllocation</text>
</g>
<!-- pyVHDLModel.VHDLModel.SubtypeAllocation&#45;&gt;pyGHDL.dom.Expression.SubtypeAllocation -->
<g id="edge1" class="edge">
<title>pyVHDLModel.VHDLModel.SubtypeAllocation&#45;&gt;pyGHDL.dom.Expression.SubtypeAllocation</title>
<path fill="none" stroke="#000000" stroke-width=".5" d="M969.1587,-17.4213C979.2228,-18.0959 989.4092,-18.7788 999.4873,-19.4545"/>
<polygon fill="#000000" stroke="#000000" stroke-width=".5" points="999.6406,-21.2186 1004.7465,-19.807 999.8748,-17.7264 999.6406,-21.2186"/>
</g>
<!-- pyVHDLModel.VHDLModel.Allocation -->
<g id="node4" class="node">
<title>pyVHDLModel.VHDLModel.Allocation</title>
<polygon fill="none" stroke="#000000" stroke-width=".5" points="697,-19 501,-19 501,0 697,0 697,-19"/>
<text text-anchor="middle" x="599" y="-7" font-family="Vera Sans, DejaVu Sans, Liberation Sans, Arial, Helvetica, sans" font-size="10.00" fill="#000000">pyVHDLModel.VHDLModel.Allocation</text>
</g>
<!-- pyVHDLModel.VHDLModel.Allocation&#45;&gt;pyVHDLModel.VHDLModel.SubtypeAllocation -->
<g id="edge5" class="edge">
<title>pyVHDLModel.VHDLModel.Allocation&#45;&gt;pyVHDLModel.VHDLModel.SubtypeAllocation</title>
<path fill="none" stroke="#000000" stroke-width=".5" d="M697.1514,-9.5C707.2463,-9.5 717.5923,-9.5 727.9122,-9.5"/>
<polygon fill="#000000" stroke="#000000" stroke-width=".5" points="727.9751,-11.2501 732.975,-9.5 727.975,-7.7501 727.9751,-11.2501"/>
</g>
<!-- pyVHDLModel.VHDLModel.BaseExpression -->
<g id="node5" class="node">
<title>pyVHDLModel.VHDLModel.BaseExpression</title>
<g id="a_node5"><a xlink:title="A ``BaseExpression`` is a base&#45;class for all expressions.">
<polygon fill="none" stroke="#000000" stroke-width=".5" points="465,-19 241,-19 241,0 465,0 465,-19"/>
<text text-anchor="middle" x="353" y="-7" font-family="Vera Sans, DejaVu Sans, Liberation Sans, Arial, Helvetica, sans" font-size="10.00" fill="#000000">pyVHDLModel.VHDLModel.BaseExpression</text>
</a>
</g>
</g>
<!-- pyVHDLModel.VHDLModel.BaseExpression&#45;&gt;pyVHDLModel.VHDLModel.Allocation -->
<g id="edge3" class="edge">
<title>pyVHDLModel.VHDLModel.BaseExpression&#45;&gt;pyVHDLModel.VHDLModel.Allocation</title>
<path fill="none" stroke="#000000" stroke-width=".5" d="M465.2018,-9.5C475.3453,-9.5 485.5874,-9.5 495.6495,-9.5"/>
<polygon fill="#000000" stroke="#000000" stroke-width=".5" points="495.8934,-11.2501 500.8934,-9.5 495.8933,-7.7501 495.8934,-11.2501"/>
</g>
<!-- pyVHDLModel.VHDLModel.ModelEntity -->
<g id="node6" class="node">
<title>pyVHDLModel.VHDLModel.ModelEntity</title>
<g id="a_node6"><a xlink:title="``ModelEntity`` is the base class for all classes in the VHDL language model,">
<polygon fill="none" stroke="#000000" stroke-width=".5" points="205,-19 0,-19 0,0 205,0 205,-19"/>
<text text-anchor="middle" x="102.5" y="-7" font-family="Vera Sans, DejaVu Sans, Liberation Sans, Arial, Helvetica, sans" font-size="10.00" fill="#000000">pyVHDLModel.VHDLModel.ModelEntity</text>
</a>
</g>
</g>
<!-- pyVHDLModel.VHDLModel.ModelEntity&#45;&gt;pyVHDLModel.VHDLModel.BaseExpression -->
<g id="edge4" class="edge">
<title>pyVHDLModel.VHDLModel.ModelEntity&#45;&gt;pyVHDLModel.VHDLModel.BaseExpression</title>
<path fill="none" stroke="#000000" stroke-width=".5" d="M205.1107,-9.5C215.2127,-9.5 225.5179,-9.5 235.7516,-9.5"/>
<polygon fill="#000000" stroke="#000000" stroke-width=".5" points="235.7685,-11.2501 240.7685,-9.5 235.7684,-7.7501 235.7685,-11.2501"/>
</g>
</g>
</svg>
