<?xml version="1.0" encoding="UTF-8" standalone="no"?>
<!DOCTYPE svg PUBLIC "-//W3C//DTD SVG 1.1//EN"
 "http://www.w3.org/Graphics/SVG/1.1/DTD/svg11.dtd">
<!-- Generated by graphviz version 2.40.1 (20161225.0304)
 -->
<!-- Title: inheritance94298e98bb Pages: 1 -->
<svg width="576pt" height="33pt"
 viewBox="0.00 0.00 576.00 32.53" xmlns="http://www.w3.org/2000/svg" xmlns:xlink="http://www.w3.org/1999/xlink">
<g id="graph0" class="graph" transform="scale(.3967 .3967) rotate(0) translate(4 78)">
<title>inheritance94298e98bb</title>
<polygon fill="#ffffff" stroke="transparent" points="-4,4 -4,-78 1448,-78 1448,4 -4,4"/>
<!-- pyGHDL.dom.DOMMixin -->
<g id="node1" class="node">
<title>pyGHDL.dom.DOMMixin</title>
<g id="a_node1"><a xlink:href="../pyGHDL.dom.html#pyGHDL.dom.DOMMixin" xlink:title="pyGHDL.dom.DOMMixin" target="_top">
<polygon fill="none" stroke="#000000" stroke-width=".5" points="1158.5,-74 1024.5,-74 1024.5,-55 1158.5,-55 1158.5,-74"/>
<text text-anchor="middle" x="1091.5" y="-62" font-family="Vera Sans, DejaVu Sans, Liberation Sans, Arial, Helvetica, sans" font-size="10.00" fill="#000000">pyGHDL.dom.DOMMixin</text>
</a>
</g>
</g>
<!-- pyGHDL.dom.PSL.VerificationProperty -->
<g id="node2" class="node">
<title>pyGHDL.dom.PSL.VerificationProperty</title>
<g id="a_node2"><a xlink:href="../pyGHDL/pyGHDL.dom.PSL.html#pyGHDL.dom.PSL.VerificationProperty" xlink:title="pyGHDL.dom.PSL.VerificationProperty" target="_top">
<polygon fill="none" stroke="#000000" stroke-width=".5" points="1444,-55 1244,-55 1244,-36 1444,-36 1444,-55"/>
<text text-anchor="middle" x="1344" y="-43" font-family="Vera Sans, DejaVu Sans, Liberation Sans, Arial, Helvetica, sans" font-size="10.00" fill="#000000">pyGHDL.dom.PSL.VerificationProperty</text>
</a>
</g>
</g>
<!-- pyGHDL.dom.DOMMixin&#45;&gt;pyGHDL.dom.PSL.VerificationProperty -->
<g id="edge2" class="edge">
<title>pyGHDL.dom.DOMMixin&#45;&gt;pyGHDL.dom.PSL.VerificationProperty</title>
<path fill="none" stroke="#000000" stroke-width=".5" d="M1158.5024,-59.4582C1183.1224,-57.6056 1211.6299,-55.4605 1238.7991,-53.4161"/>
<polygon fill="#000000" stroke="#000000" stroke-width=".5" points="1239.0008,-55.156 1243.8554,-53.0356 1238.7382,-51.6658 1239.0008,-55.156"/>
</g>
<!-- pyVHDLModel.PSLModel.VerificationProperty -->
<g id="node3" class="node">
<title>pyVHDLModel.PSLModel.VerificationProperty</title>
<polygon fill="none" stroke="#000000" stroke-width=".5" points="1208,-37 975,-37 975,-18 1208,-18 1208,-37"/>
<text text-anchor="middle" x="1091.5" y="-25" font-family="Vera Sans, DejaVu Sans, Liberation Sans, Arial, Helvetica, sans" font-size="10.00" fill="#000000">pyVHDLModel.PSLModel.VerificationProperty</text>
</g>
<!-- pyVHDLModel.PSLModel.VerificationProperty&#45;&gt;pyGHDL.dom.PSL.VerificationProperty -->
<g id="edge1" class="edge">
<title>pyVHDLModel.PSLModel.VerificationProperty&#45;&gt;pyGHDL.dom.PSL.VerificationProperty</title>
<path fill="none" stroke="#000000" stroke-width=".5" d="M1208.1416,-35.815C1218.265,-36.5367 1228.4713,-37.2643 1238.498,-37.9791"/>
<polygon fill="#000000" stroke="#000000" stroke-width=".5" points="1238.6118,-39.7415 1243.7236,-38.3516 1238.8607,-36.2504 1238.6118,-39.7415"/>
</g>
<!-- pyVHDLModel.PSLModel.PSLPrimaryUnit -->
<g id="node4" class="node">
<title>pyVHDLModel.PSLModel.PSLPrimaryUnit</title>
<polygon fill="none" stroke="#000000" stroke-width=".5" points="939,-37 726,-37 726,-18 939,-18 939,-37"/>
<text text-anchor="middle" x="832.5" y="-25" font-family="Vera Sans, DejaVu Sans, Liberation Sans, Arial, Helvetica, sans" font-size="10.00" fill="#000000">pyVHDLModel.PSLModel.PSLPrimaryUnit</text>
</g>
<!-- pyVHDLModel.PSLModel.PSLPrimaryUnit&#45;&gt;pyVHDLModel.PSLModel.VerificationProperty -->
<g id="edge4" class="edge">
<title>pyVHDLModel.PSLModel.PSLPrimaryUnit&#45;&gt;pyVHDLModel.PSLModel.VerificationProperty</title>
<path fill="none" stroke="#000000" stroke-width=".5" d="M939.3405,-27.5C949.308,-27.5 959.4604,-27.5 969.5514,-27.5"/>
<polygon fill="#000000" stroke="#000000" stroke-width=".5" points="969.8215,-29.2501 974.8214,-27.5 969.8214,-25.7501 969.8215,-29.2501"/>
</g>
<!-- pyVHDLModel.VHDLModel.PrimaryUnit -->
<g id="node5" class="node">
<title>pyVHDLModel.VHDLModel.PrimaryUnit</title>
<g id="a_node5"><a xlink:title="A ``PrimaryUnit`` is a base&#45;class for all primary units.">
<polygon fill="none" stroke="#000000" stroke-width=".5" points="690,-37 484,-37 484,-18 690,-18 690,-37"/>
<text text-anchor="middle" x="587" y="-25" font-family="Vera Sans, DejaVu Sans, Liberation Sans, Arial, Helvetica, sans" font-size="10.00" fill="#000000">pyVHDLModel.VHDLModel.PrimaryUnit</text>
</a>
</g>
</g>
<!-- pyVHDLModel.VHDLModel.PrimaryUnit&#45;&gt;pyVHDLModel.PSLModel.PSLPrimaryUnit -->
<g id="edge3" class="edge">
<title>pyVHDLModel.VHDLModel.PrimaryUnit&#45;&gt;pyVHDLModel.PSLModel.PSLPrimaryUnit</title>
<path fill="none" stroke="#000000" stroke-width=".5" d="M690.047,-27.5C700.1959,-27.5 710.5293,-27.5 720.7599,-27.5"/>
<polygon fill="#000000" stroke="#000000" stroke-width=".5" points="720.7727,-29.2501 725.7727,-27.5 720.7727,-25.7501 720.7727,-29.2501"/>
</g>
<!-- pyVHDLModel.VHDLModel.DesignUnit -->
<g id="node6" class="node">
<title>pyVHDLModel.VHDLModel.DesignUnit</title>
<g id="a_node6"><a xlink:title="A ``DesignUnit`` is a base&#45;class for all design units.">
<polygon fill="none" stroke="#000000" stroke-width=".5" points="448,-37 247,-37 247,-18 448,-18 448,-37"/>
<text text-anchor="middle" x="347.5" y="-25" font-family="Vera Sans, DejaVu Sans, Liberation Sans, Arial, Helvetica, sans" font-size="10.00" fill="#000000">pyVHDLModel.VHDLModel.DesignUnit</text>
</a>
</g>
</g>
<!-- pyVHDLModel.VHDLModel.DesignUnit&#45;&gt;pyVHDLModel.VHDLModel.PrimaryUnit -->
<g id="edge7" class="edge">
<title>pyVHDLModel.VHDLModel.DesignUnit&#45;&gt;pyVHDLModel.VHDLModel.PrimaryUnit</title>
<path fill="none" stroke="#000000" stroke-width=".5" d="M448.0286,-27.5C458.0574,-27.5 468.271,-27.5 478.3779,-27.5"/>
<polygon fill="#000000" stroke="#000000" stroke-width=".5" points="478.652,-29.2501 483.6519,-27.5 478.6519,-25.7501 478.652,-29.2501"/>
</g>
<!-- pyVHDLModel.VHDLModel.ModelEntity -->
<g id="node7" class="node">
<title>pyVHDLModel.VHDLModel.ModelEntity</title>
<g id="a_node7"><a xlink:title="``ModelEntity`` is the base class for all classes in the VHDL language model,">
<polygon fill="none" stroke="#000000" stroke-width=".5" points="208,-56 3,-56 3,-37 208,-37 208,-56"/>
<text text-anchor="middle" x="105.5" y="-44" font-family="Vera Sans, DejaVu Sans, Liberation Sans, Arial, Helvetica, sans" font-size="10.00" fill="#000000">pyVHDLModel.VHDLModel.ModelEntity</text>
</a>
</g>
</g>
<!-- pyVHDLModel.VHDLModel.ModelEntity&#45;&gt;pyVHDLModel.VHDLModel.DesignUnit -->
<g id="edge5" class="edge">
<title>pyVHDLModel.VHDLModel.ModelEntity&#45;&gt;pyVHDLModel.VHDLModel.DesignUnit</title>
<path fill="none" stroke="#000000" stroke-width=".5" d="M208.1298,-38.4423C219.1894,-37.574 230.4586,-36.6892 241.5563,-35.8179"/>
<polygon fill="#000000" stroke="#000000" stroke-width=".5" points="241.7941,-37.5547 246.6417,-35.4186 241.5201,-34.0654 241.7941,-37.5547"/>
</g>
<!-- pyVHDLModel.VHDLModel.NamedEntity -->
<g id="node8" class="node">
<title>pyVHDLModel.VHDLModel.NamedEntity</title>
<g id="a_node8"><a xlink:title="A ``NamedEntity`` is a mixin class for all VHDL entities that have identifiers.">
<polygon fill="none" stroke="#000000" stroke-width=".5" points="211,-19 0,-19 0,0 211,0 211,-19"/>
<text text-anchor="middle" x="105.5" y="-7" font-family="Vera Sans, DejaVu Sans, Liberation Sans, Arial, Helvetica, sans" font-size="10.00" fill="#000000">pyVHDLModel.VHDLModel.NamedEntity</text>
</a>
</g>
</g>
<!-- pyVHDLModel.VHDLModel.NamedEntity&#45;&gt;pyVHDLModel.VHDLModel.DesignUnit -->
<g id="edge6" class="edge">
<title>pyVHDLModel.VHDLModel.NamedEntity&#45;&gt;pyVHDLModel.VHDLModel.DesignUnit</title>
<path fill="none" stroke="#000000" stroke-width=".5" d="M211.2927,-17.3689C221.3651,-18.1181 231.5804,-18.8779 241.6533,-19.6271"/>
<polygon fill="#000000" stroke="#000000" stroke-width=".5" points="241.7902,-21.392 246.9063,-20.0178 242.0499,-17.9017 241.7902,-21.392"/>
</g>
</g>
</svg>
