<?xml version="1.0" encoding="UTF-8" standalone="no"?>
<!DOCTYPE svg PUBLIC "-//W3C//DTD SVG 1.1//EN"
 "http://www.w3.org/Graphics/SVG/1.1/DTD/svg11.dtd">
<!-- Generated by graphviz version 2.40.1 (20161225.0304)
 -->
<!-- Title: inheritancef42d467a5f Pages: 1 -->
<svg width="576pt" height="55pt"
 viewBox="0.00 0.00 576.00 55.27" xmlns="http://www.w3.org/2000/svg" xmlns:xlink="http://www.w3.org/1999/xlink">
<g id="graph0" class="graph" transform="scale(.8636 .8636) rotate(0) translate(4 60)">
<title>inheritancef42d467a5f</title>
<polygon fill="#ffffff" stroke="transparent" points="-4,4 -4,-60 663,-60 663,4 -4,4"/>
<!-- pyGHDL.dom.DOMMixin -->
<g id="node1" class="node">
<title>pyGHDL.dom.DOMMixin</title>
<g id="a_node1"><a xlink:href="../pyGHDL.dom.html#pyGHDL.dom.DOMMixin" xlink:title="pyGHDL.dom.DOMMixin" target="_top">
<polygon fill="none" stroke="#000000" stroke-width=".5" points="388,-56 254,-56 254,-37 388,-37 388,-56"/>
<text text-anchor="middle" x="321" y="-44" font-family="Vera Sans, DejaVu Sans, Liberation Sans, Arial, Helvetica, sans" font-size="10.00" fill="#000000">pyGHDL.dom.DOMMixin</text>
</a>
</g>
</g>
<!-- pyGHDL.dom.Names.SelectedName -->
<g id="node2" class="node">
<title>pyGHDL.dom.Names.SelectedName</title>
<g id="a_node2"><a xlink:href="../pyGHDL/pyGHDL.dom.Names.html#pyGHDL.dom.Names.SelectedName" xlink:title="pyGHDL.dom.Names.SelectedName" target="_top">
<polygon fill="none" stroke="#000000" stroke-width=".5" points="659,-37 466,-37 466,-18 659,-18 659,-37"/>
<text text-anchor="middle" x="562.5" y="-25" font-family="Vera Sans, DejaVu Sans, Liberation Sans, Arial, Helvetica, sans" font-size="10.00" fill="#000000">pyGHDL.dom.Names.SelectedName</text>
</a>
</g>
</g>
<!-- pyGHDL.dom.DOMMixin&#45;&gt;pyGHDL.dom.Names.SelectedName -->
<g id="edge2" class="edge">
<title>pyGHDL.dom.DOMMixin&#45;&gt;pyGHDL.dom.Names.SelectedName</title>
<path fill="none" stroke="#000000" stroke-width=".5" d="M388.2712,-41.2074C410.6825,-39.4442 436.1738,-37.4387 460.6088,-35.5163"/>
<polygon fill="#000000" stroke="#000000" stroke-width=".5" points="460.9581,-37.2443 465.8054,-35.1074 460.6835,-33.7551 460.9581,-37.2443"/>
</g>
<!-- pyVHDLModel.VHDLModel.SelectedName -->
<g id="node3" class="node">
<title>pyVHDLModel.VHDLModel.SelectedName</title>
<polygon fill="none" stroke="#000000" stroke-width=".5" points="430,-19 212,-19 212,0 430,0 430,-19"/>
<text text-anchor="middle" x="321" y="-7" font-family="Vera Sans, DejaVu Sans, Liberation Sans, Arial, Helvetica, sans" font-size="10.00" fill="#000000">pyVHDLModel.VHDLModel.SelectedName</text>
</g>
<!-- pyVHDLModel.VHDLModel.SelectedName&#45;&gt;pyGHDL.dom.Names.SelectedName -->
<g id="edge1" class="edge">
<title>pyVHDLModel.VHDLModel.SelectedName&#45;&gt;pyGHDL.dom.Names.SelectedName</title>
<path fill="none" stroke="#000000" stroke-width=".5" d="M430.0921,-17.6311C440.2043,-18.3848 450.4266,-19.1467 460.4717,-19.8954"/>
<polygon fill="#000000" stroke="#000000" stroke-width=".5" points="460.5907,-21.659 465.707,-20.2856 460.8509,-18.1687 460.5907,-21.659"/>
</g>
<!-- pyVHDLModel.VHDLModel.Name -->
<g id="node4" class="node">
<title>pyVHDLModel.VHDLModel.Name</title>
<g id="a_node4"><a xlink:title="``Name`` is the base class for all *names* in the VHDL language model.">
<polygon fill="none" stroke="#000000" stroke-width=".5" points="176,-19 0,-19 0,0 176,0 176,-19"/>
<text text-anchor="middle" x="88" y="-7" font-family="Vera Sans, DejaVu Sans, Liberation Sans, Arial, Helvetica, sans" font-size="10.00" fill="#000000">pyVHDLModel.VHDLModel.Name</text>
</a>
</g>
</g>
<!-- pyVHDLModel.VHDLModel.Name&#45;&gt;pyVHDLModel.VHDLModel.SelectedName -->
<g id="edge3" class="edge">
<title>pyVHDLModel.VHDLModel.Name&#45;&gt;pyVHDLModel.VHDLModel.SelectedName</title>
<path fill="none" stroke="#000000" stroke-width=".5" d="M176.0873,-9.5C186.1654,-9.5 196.5455,-9.5 206.9004,-9.5"/>
<polygon fill="#000000" stroke="#000000" stroke-width=".5" points="206.9802,-11.2501 211.9802,-9.5 206.9802,-7.7501 206.9802,-11.2501"/>
</g>
</g>
</svg>
