<?xml version="1.0" encoding="UTF-8" standalone="no"?>
<!DOCTYPE svg PUBLIC "-//W3C//DTD SVG 1.1//EN"
 "http://www.w3.org/Graphics/SVG/1.1/DTD/svg11.dtd">
<!-- Generated by graphviz version 2.40.1 (20161225.0304)
 -->
<!-- Title: inheritance7a8a17389e Pages: 1 -->
<svg width="576pt" height="30pt"
 viewBox="0.00 0.00 576.00 30.47" xmlns="http://www.w3.org/2000/svg" xmlns:xlink="http://www.w3.org/1999/xlink">
<g id="graph0" class="graph" transform="scale(.476 .476) rotate(0) translate(4 60)">
<title>inheritance7a8a17389e</title>
<polygon fill="#ffffff" stroke="transparent" points="-4,4 -4,-60 1206,-60 1206,4 -4,4"/>
<!-- pyGHDL.dom.DOMMixin -->
<g id="node1" class="node">
<title>pyGHDL.dom.DOMMixin</title>
<g id="a_node1"><a xlink:href="../pyGHDL.dom.html#pyGHDL.dom.DOMMixin" xlink:title="pyGHDL.dom.DOMMixin" target="_top">
<polygon fill="none" stroke="#000000" stroke-width=".5" points="902,-56 768,-56 768,-37 902,-37 902,-56"/>
<text text-anchor="middle" x="835" y="-44" font-family="Vera Sans, DejaVu Sans, Liberation Sans, Arial, Helvetica, sans" font-size="10.00" fill="#000000">pyGHDL.dom.DOMMixin</text>
</a>
</g>
</g>
<!-- pyGHDL.dom.Literal.EnumerationLiteral -->
<g id="node2" class="node">
<title>pyGHDL.dom.Literal.EnumerationLiteral</title>
<g id="a_node2"><a xlink:href="../pyGHDL/pyGHDL.dom.Literal.html#pyGHDL.dom.Literal.EnumerationLiteral" xlink:title="pyGHDL.dom.Literal.EnumerationLiteral" target="_top">
<polygon fill="none" stroke="#000000" stroke-width=".5" points="1202,-37 991,-37 991,-18 1202,-18 1202,-37"/>
<text text-anchor="middle" x="1096.5" y="-25" font-family="Vera Sans, DejaVu Sans, Liberation Sans, Arial, Helvetica, sans" font-size="10.00" fill="#000000">pyGHDL.dom.Literal.EnumerationLiteral</text>
</a>
</g>
</g>
<!-- pyGHDL.dom.DOMMixin&#45;&gt;pyGHDL.dom.Literal.EnumerationLiteral -->
<g id="edge2" class="edge">
<title>pyGHDL.dom.DOMMixin&#45;&gt;pyGHDL.dom.Literal.EnumerationLiteral</title>
<path fill="none" stroke="#000000" stroke-width=".5" d="M902.0032,-41.6317C927.4321,-39.7841 957.1201,-37.627 985.5324,-35.5627"/>
<polygon fill="#000000" stroke="#000000" stroke-width=".5" points="985.9614,-37.2862 990.8214,-35.1784 985.7077,-33.7954 985.9614,-37.2862"/>
</g>
<!-- pyVHDLModel.VHDLModel.EnumerationLiteral -->
<g id="node3" class="node">
<title>pyVHDLModel.VHDLModel.EnumerationLiteral</title>
<polygon fill="none" stroke="#000000" stroke-width=".5" points="955,-19 715,-19 715,0 955,0 955,-19"/>
<text text-anchor="middle" x="835" y="-7" font-family="Vera Sans, DejaVu Sans, Liberation Sans, Arial, Helvetica, sans" font-size="10.00" fill="#000000">pyVHDLModel.VHDLModel.EnumerationLiteral</text>
</g>
<!-- pyVHDLModel.VHDLModel.EnumerationLiteral&#45;&gt;pyGHDL.dom.Literal.EnumerationLiteral -->
<g id="edge1" class="edge">
<title>pyVHDLModel.VHDLModel.EnumerationLiteral&#45;&gt;pyGHDL.dom.Literal.EnumerationLiteral</title>
<path fill="none" stroke="#000000" stroke-width=".5" d="M955.0351,-17.7625C965.3043,-18.4693 975.6623,-19.1823 985.8533,-19.8838"/>
<polygon fill="#000000" stroke="#000000" stroke-width=".5" points="985.7333,-21.6296 990.8417,-20.2272 985.9737,-18.1378 985.7333,-21.6296"/>
</g>
<!-- pyVHDLModel.VHDLModel.BaseExpression -->
<g id="node4" class="node">
<title>pyVHDLModel.VHDLModel.BaseExpression</title>
<g id="a_node4"><a xlink:title="A ``BaseExpression`` is a base&#45;class for all expressions.">
<polygon fill="none" stroke="#000000" stroke-width=".5" points="465,-19 241,-19 241,0 465,0 465,-19"/>
<text text-anchor="middle" x="353" y="-7" font-family="Vera Sans, DejaVu Sans, Liberation Sans, Arial, Helvetica, sans" font-size="10.00" fill="#000000">pyVHDLModel.VHDLModel.BaseExpression</text>
</a>
</g>
</g>
<!-- pyVHDLModel.VHDLModel.Literal -->
<g id="node6" class="node">
<title>pyVHDLModel.VHDLModel.Literal</title>
<g id="a_node6"><a xlink:title="A ``Literal`` is a base&#45;class for all literals.">
<polygon fill="none" stroke="#000000" stroke-width=".5" points="679,-19 501,-19 501,0 679,0 679,-19"/>
<text text-anchor="middle" x="590" y="-7" font-family="Vera Sans, DejaVu Sans, Liberation Sans, Arial, Helvetica, sans" font-size="10.00" fill="#000000">pyVHDLModel.VHDLModel.Literal</text>
</a>
</g>
</g>
<!-- pyVHDLModel.VHDLModel.BaseExpression&#45;&gt;pyVHDLModel.VHDLModel.Literal -->
<g id="edge5" class="edge">
<title>pyVHDLModel.VHDLModel.BaseExpression&#45;&gt;pyVHDLModel.VHDLModel.Literal</title>
<path fill="none" stroke="#000000" stroke-width=".5" d="M465.2536,-9.5C475.4419,-9.5 485.692,-9.5 495.7014,-9.5"/>
<polygon fill="#000000" stroke="#000000" stroke-width=".5" points="495.9123,-11.2501 500.9122,-9.5 495.9122,-7.7501 495.9123,-11.2501"/>
</g>
<!-- pyVHDLModel.VHDLModel.ModelEntity -->
<g id="node5" class="node">
<title>pyVHDLModel.VHDLModel.ModelEntity</title>
<g id="a_node5"><a xlink:title="``ModelEntity`` is the base class for all classes in the VHDL language model,">
<polygon fill="none" stroke="#000000" stroke-width=".5" points="205,-19 0,-19 0,0 205,0 205,-19"/>
<text text-anchor="middle" x="102.5" y="-7" font-family="Vera Sans, DejaVu Sans, Liberation Sans, Arial, Helvetica, sans" font-size="10.00" fill="#000000">pyVHDLModel.VHDLModel.ModelEntity</text>
</a>
</g>
</g>
<!-- pyVHDLModel.VHDLModel.ModelEntity&#45;&gt;pyVHDLModel.VHDLModel.BaseExpression -->
<g id="edge3" class="edge">
<title>pyVHDLModel.VHDLModel.ModelEntity&#45;&gt;pyVHDLModel.VHDLModel.BaseExpression</title>
<path fill="none" stroke="#000000" stroke-width=".5" d="M205.1107,-9.5C215.2127,-9.5 225.5179,-9.5 235.7516,-9.5"/>
<polygon fill="#000000" stroke="#000000" stroke-width=".5" points="235.7685,-11.2501 240.7685,-9.5 235.7684,-7.7501 235.7685,-11.2501"/>
</g>
<!-- pyVHDLModel.VHDLModel.Literal&#45;&gt;pyVHDLModel.VHDLModel.EnumerationLiteral -->
<g id="edge4" class="edge">
<title>pyVHDLModel.VHDLModel.Literal&#45;&gt;pyVHDLModel.VHDLModel.EnumerationLiteral</title>
<path fill="none" stroke="#000000" stroke-width=".5" d="M679.1437,-9.5C689.1379,-9.5 699.4528,-9.5 709.7934,-9.5"/>
<polygon fill="#000000" stroke="#000000" stroke-width=".5" points="709.8705,-11.2501 714.8705,-9.5 709.8704,-7.7501 709.8705,-11.2501"/>
</g>
</g>
</svg>
