<?xml version="1.0" encoding="UTF-8" standalone="no"?>
<!DOCTYPE svg PUBLIC "-//W3C//DTD SVG 1.1//EN"
 "http://www.w3.org/Graphics/SVG/1.1/DTD/svg11.dtd">
<!-- Generated by graphviz version 2.40.1 (20161225.0304)
 -->
<!-- Title: inheritancededccd7a28 Pages: 1 -->
<svg width="576pt" height="40pt"
 viewBox="0.00 0.00 576.00 39.91" xmlns="http://www.w3.org/2000/svg" xmlns:xlink="http://www.w3.org/1999/xlink">
<g id="graph0" class="graph" transform="scale(.4808 .4808) rotate(0) translate(4 79)">
<title>inheritancededccd7a28</title>
<polygon fill="#ffffff" stroke="transparent" points="-4,4 -4,-79 1194,-79 1194,4 -4,4"/>
<!-- pyGHDL.dom.DOMMixin -->
<g id="node1" class="node">
<title>pyGHDL.dom.DOMMixin</title>
<g id="a_node1"><a xlink:href="../pyGHDL.dom.html#pyGHDL.dom.DOMMixin" xlink:title="pyGHDL.dom.DOMMixin" target="_top">
<polygon fill="none" stroke="#000000" stroke-width=".5" points="963,-74 829,-74 829,-55 963,-55 963,-74"/>
<text text-anchor="middle" x="896" y="-62" font-family="Vera Sans, DejaVu Sans, Liberation Sans, Arial, Helvetica, sans" font-size="10.00" fill="#000000">pyGHDL.dom.DOMMixin</text>
</a>
</g>
</g>
<!-- pyGHDL.dom.DesignUnit.Entity -->
<g id="node2" class="node">
<title>pyGHDL.dom.DesignUnit.Entity</title>
<g id="a_node2"><a xlink:href="../pyGHDL/pyGHDL.dom.DesignUnit.html#pyGHDL.dom.DesignUnit.Entity" xlink:title="pyGHDL.dom.DesignUnit.Entity" target="_top">
<polygon fill="none" stroke="#000000" stroke-width=".5" points="1190,-55 1020,-55 1020,-36 1190,-36 1190,-55"/>
<text text-anchor="middle" x="1105" y="-43" font-family="Vera Sans, DejaVu Sans, Liberation Sans, Arial, Helvetica, sans" font-size="10.00" fill="#000000">pyGHDL.dom.DesignUnit.Entity</text>
</a>
</g>
</g>
<!-- pyGHDL.dom.DOMMixin&#45;&gt;pyGHDL.dom.DesignUnit.Entity -->
<g id="edge2" class="edge">
<title>pyGHDL.dom.DOMMixin&#45;&gt;pyGHDL.dom.DesignUnit.Entity</title>
<path fill="none" stroke="#000000" stroke-width=".5" d="M963.2793,-58.3837C979.609,-56.8992 997.3335,-55.2879 1014.5407,-53.7236"/>
<polygon fill="#000000" stroke="#000000" stroke-width=".5" points="1015.0412,-55.4354 1019.8622,-53.2398 1014.7243,-51.9498 1015.0412,-55.4354"/>
</g>
<!-- pyVHDLModel.VHDLModel.Entity -->
<g id="node3" class="node">
<title>pyVHDLModel.VHDLModel.Entity</title>
<polygon fill="none" stroke="#000000" stroke-width=".5" points="984,-37 808,-37 808,-18 984,-18 984,-37"/>
<text text-anchor="middle" x="896" y="-25" font-family="Vera Sans, DejaVu Sans, Liberation Sans, Arial, Helvetica, sans" font-size="10.00" fill="#000000">pyVHDLModel.VHDLModel.Entity</text>
</g>
<!-- pyVHDLModel.VHDLModel.Entity&#45;&gt;pyGHDL.dom.DesignUnit.Entity -->
<g id="edge1" class="edge">
<title>pyVHDLModel.VHDLModel.Entity&#45;&gt;pyGHDL.dom.DesignUnit.Entity</title>
<path fill="none" stroke="#000000" stroke-width=".5" d="M984.0291,-35.0815C994.1914,-35.9567 1004.5669,-36.8503 1014.7581,-37.728"/>
<polygon fill="#000000" stroke="#000000" stroke-width=".5" points="1014.6127,-39.4718 1019.7444,-38.1574 1014.9131,-35.9847 1014.6127,-39.4718"/>
</g>
<!-- pyVHDLModel.VHDLModel.DesignUnit -->
<g id="node4" class="node">
<title>pyVHDLModel.VHDLModel.DesignUnit</title>
<g id="a_node4"><a xlink:title="A ``DesignUnit`` is a base&#45;class for all design units.">
<polygon fill="none" stroke="#000000" stroke-width=".5" points="448,-56 247,-56 247,-37 448,-37 448,-56"/>
<text text-anchor="middle" x="347.5" y="-44" font-family="Vera Sans, DejaVu Sans, Liberation Sans, Arial, Helvetica, sans" font-size="10.00" fill="#000000">pyVHDLModel.VHDLModel.DesignUnit</text>
</a>
</g>
</g>
<!-- pyVHDLModel.VHDLModel.PrimaryUnit -->
<g id="node7" class="node">
<title>pyVHDLModel.VHDLModel.PrimaryUnit</title>
<g id="a_node7"><a xlink:title="A ``PrimaryUnit`` is a base&#45;class for all primary units.">
<polygon fill="none" stroke="#000000" stroke-width=".5" points="731,-56 525,-56 525,-37 731,-37 731,-56"/>
<text text-anchor="middle" x="628" y="-44" font-family="Vera Sans, DejaVu Sans, Liberation Sans, Arial, Helvetica, sans" font-size="10.00" fill="#000000">pyVHDLModel.VHDLModel.PrimaryUnit</text>
</a>
</g>
</g>
<!-- pyVHDLModel.VHDLModel.DesignUnit&#45;&gt;pyVHDLModel.VHDLModel.PrimaryUnit -->
<g id="edge7" class="edge">
<title>pyVHDLModel.VHDLModel.DesignUnit&#45;&gt;pyVHDLModel.VHDLModel.PrimaryUnit</title>
<path fill="none" stroke="#000000" stroke-width=".5" d="M448.3706,-46.5C471.4418,-46.5 496.0601,-46.5 519.4388,-46.5"/>
<polygon fill="#000000" stroke="#000000" stroke-width=".5" points="519.7208,-48.2501 524.7207,-46.5 519.7207,-44.7501 519.7208,-48.2501"/>
</g>
<!-- pyVHDLModel.VHDLModel.ModelEntity -->
<g id="node5" class="node">
<title>pyVHDLModel.VHDLModel.ModelEntity</title>
<g id="a_node5"><a xlink:title="``ModelEntity`` is the base class for all classes in the VHDL language model,">
<polygon fill="none" stroke="#000000" stroke-width=".5" points="208,-75 3,-75 3,-56 208,-56 208,-75"/>
<text text-anchor="middle" x="105.5" y="-63" font-family="Vera Sans, DejaVu Sans, Liberation Sans, Arial, Helvetica, sans" font-size="10.00" fill="#000000">pyVHDLModel.VHDLModel.ModelEntity</text>
</a>
</g>
</g>
<!-- pyVHDLModel.VHDLModel.ModelEntity&#45;&gt;pyVHDLModel.VHDLModel.DesignUnit -->
<g id="edge3" class="edge">
<title>pyVHDLModel.VHDLModel.ModelEntity&#45;&gt;pyVHDLModel.VHDLModel.DesignUnit</title>
<path fill="none" stroke="#000000" stroke-width=".5" d="M208.1298,-57.4423C219.1894,-56.574 230.4586,-55.6892 241.5563,-54.8179"/>
<polygon fill="#000000" stroke="#000000" stroke-width=".5" points="241.7941,-56.5547 246.6417,-54.4186 241.5201,-53.0654 241.7941,-56.5547"/>
</g>
<!-- pyVHDLModel.VHDLModel.NamedEntity -->
<g id="node6" class="node">
<title>pyVHDLModel.VHDLModel.NamedEntity</title>
<g id="a_node6"><a xlink:title="A ``NamedEntity`` is a mixin class for all VHDL entities that have identifiers.">
<polygon fill="none" stroke="#000000" stroke-width=".5" points="211,-38 0,-38 0,-19 211,-19 211,-38"/>
<text text-anchor="middle" x="105.5" y="-26" font-family="Vera Sans, DejaVu Sans, Liberation Sans, Arial, Helvetica, sans" font-size="10.00" fill="#000000">pyVHDLModel.VHDLModel.NamedEntity</text>
</a>
</g>
</g>
<!-- pyVHDLModel.VHDLModel.NamedEntity&#45;&gt;pyVHDLModel.VHDLModel.DesignUnit -->
<g id="edge4" class="edge">
<title>pyVHDLModel.VHDLModel.NamedEntity&#45;&gt;pyVHDLModel.VHDLModel.DesignUnit</title>
<path fill="none" stroke="#000000" stroke-width=".5" d="M211.2927,-36.3689C221.3651,-37.1181 231.5804,-37.8779 241.6533,-38.6271"/>
<polygon fill="#000000" stroke="#000000" stroke-width=".5" points="241.7902,-40.392 246.9063,-39.0178 242.0499,-36.9017 241.7902,-40.392"/>
</g>
<!-- pyVHDLModel.VHDLModel.PrimaryUnit&#45;&gt;pyVHDLModel.VHDLModel.Entity -->
<g id="edge5" class="edge">
<title>pyVHDLModel.VHDLModel.PrimaryUnit&#45;&gt;pyVHDLModel.VHDLModel.Entity</title>
<path fill="none" stroke="#000000" stroke-width=".5" d="M731.2324,-39.1813C754.6742,-37.5194 779.444,-35.7633 802.4571,-34.1318"/>
<polygon fill="#000000" stroke="#000000" stroke-width=".5" points="802.7833,-35.8631 807.647,-33.7638 802.5358,-32.3719 802.7833,-35.8631"/>
</g>
<!-- pyVHDLModel.VHDLModel.MixinDesignUnitWithContext -->
<g id="node8" class="node">
<title>pyVHDLModel.VHDLModel.MixinDesignUnitWithContext</title>
<g id="a_node8"><a xlink:title="A ``DesignUnitWithReferences`` is a base&#45;class for all design units with contexts.">
<polygon fill="none" stroke="#000000" stroke-width=".5" points="772,-19 484,-19 484,0 772,0 772,-19"/>
<text text-anchor="middle" x="628" y="-7" font-family="Vera Sans, DejaVu Sans, Liberation Sans, Arial, Helvetica, sans" font-size="10.00" fill="#000000">pyVHDLModel.VHDLModel.MixinDesignUnitWithContext</text>
</a>
</g>
</g>
<!-- pyVHDLModel.VHDLModel.MixinDesignUnitWithContext&#45;&gt;pyVHDLModel.VHDLModel.Entity -->
<g id="edge6" class="edge">
<title>pyVHDLModel.VHDLModel.MixinDesignUnitWithContext&#45;&gt;pyVHDLModel.VHDLModel.Entity</title>
<path fill="none" stroke="#000000" stroke-width=".5" d="M769.4556,-19.0007C780.7016,-19.7561 791.8774,-20.5067 802.6648,-21.2312"/>
<polygon fill="#000000" stroke="#000000" stroke-width=".5" points="802.8217,-22.9956 807.9278,-21.5847 803.0563,-19.5035 802.8217,-22.9956"/>
</g>
</g>
</svg>
