<?xml version="1.0" encoding="UTF-8" standalone="no"?>
<!DOCTYPE svg PUBLIC "-//W3C//DTD SVG 1.1//EN"
 "http://www.w3.org/Graphics/SVG/1.1/DTD/svg11.dtd">
<!-- Generated by graphviz version 2.40.1 (20161225.0304)
 -->
<!-- Title: inheritance968846f823 Pages: 1 -->
<svg width="576pt" height="57pt"
 viewBox="0.00 0.00 576.00 57.42" xmlns="http://www.w3.org/2000/svg" xmlns:xlink="http://www.w3.org/1999/xlink">
<g id="graph0" class="graph" transform="scale(.8972 .8972) rotate(0) translate(4 60)">
<title>inheritance968846f823</title>
<polygon fill="#ffffff" stroke="transparent" points="-4,4 -4,-60 638,-60 638,4 -4,4"/>
<!-- pyGHDL.dom.DOMMixin -->
<g id="node1" class="node">
<title>pyGHDL.dom.DOMMixin</title>
<g id="a_node1"><a xlink:href="../pyGHDL.dom.html#pyGHDL.dom.DOMMixin" xlink:title="pyGHDL.dom.DOMMixin" target="_top">
<polygon fill="none" stroke="#000000" stroke-width=".5" points="382,-56 248,-56 248,-37 382,-37 382,-56"/>
<text text-anchor="middle" x="315" y="-44" font-family="Vera Sans, DejaVu Sans, Liberation Sans, Arial, Helvetica, sans" font-size="10.00" fill="#000000">pyGHDL.dom.DOMMixin</text>
</a>
</g>
</g>
<!-- pyGHDL.dom.Names.SlicedName -->
<g id="node2" class="node">
<title>pyGHDL.dom.Names.SlicedName</title>
<g id="a_node2"><a xlink:href="../pyGHDL/pyGHDL.dom.Names.html#pyGHDL.dom.Names.SlicedName" xlink:title="pyGHDL.dom.Names.SlicedName" target="_top">
<polygon fill="none" stroke="#000000" stroke-width=".5" points="634,-37 454,-37 454,-18 634,-18 634,-37"/>
<text text-anchor="middle" x="544" y="-25" font-family="Vera Sans, DejaVu Sans, Liberation Sans, Arial, Helvetica, sans" font-size="10.00" fill="#000000">pyGHDL.dom.Names.SlicedName</text>
</a>
</g>
</g>
<!-- pyGHDL.dom.DOMMixin&#45;&gt;pyGHDL.dom.Names.SlicedName -->
<g id="edge2" class="edge">
<title>pyGHDL.dom.DOMMixin&#45;&gt;pyGHDL.dom.Names.SlicedName</title>
<path fill="none" stroke="#000000" stroke-width=".5" d="M382.1602,-40.9278C403.0185,-39.1972 426.4207,-37.2555 448.8087,-35.398"/>
<polygon fill="#000000" stroke="#000000" stroke-width=".5" points="449.0312,-37.1356 453.8694,-34.9781 448.7417,-33.6476 449.0312,-37.1356"/>
</g>
<!-- pyVHDLModel.VHDLModel.SlicedName -->
<g id="node3" class="node">
<title>pyVHDLModel.VHDLModel.SlicedName</title>
<polygon fill="none" stroke="#000000" stroke-width=".5" points="418,-19 212,-19 212,0 418,0 418,-19"/>
<text text-anchor="middle" x="315" y="-7" font-family="Vera Sans, DejaVu Sans, Liberation Sans, Arial, Helvetica, sans" font-size="10.00" fill="#000000">pyVHDLModel.VHDLModel.SlicedName</text>
</g>
<!-- pyVHDLModel.VHDLModel.SlicedName&#45;&gt;pyGHDL.dom.Names.SlicedName -->
<g id="edge1" class="edge">
<title>pyVHDLModel.VHDLModel.SlicedName&#45;&gt;pyGHDL.dom.Names.SlicedName</title>
<path fill="none" stroke="#000000" stroke-width=".5" d="M418.1115,-17.6048C428.2209,-18.3995 438.4499,-19.2035 448.479,-19.9918"/>
<polygon fill="#000000" stroke="#000000" stroke-width=".5" points="448.582,-21.7552 453.7037,-20.4025 448.8563,-18.266 448.582,-21.7552"/>
</g>
<!-- pyVHDLModel.VHDLModel.Name -->
<g id="node4" class="node">
<title>pyVHDLModel.VHDLModel.Name</title>
<g id="a_node4"><a xlink:title="``Name`` is the base class for all *names* in the VHDL language model.">
<polygon fill="none" stroke="#000000" stroke-width=".5" points="176,-19 0,-19 0,0 176,0 176,-19"/>
<text text-anchor="middle" x="88" y="-7" font-family="Vera Sans, DejaVu Sans, Liberation Sans, Arial, Helvetica, sans" font-size="10.00" fill="#000000">pyVHDLModel.VHDLModel.Name</text>
</a>
</g>
</g>
<!-- pyVHDLModel.VHDLModel.Name&#45;&gt;pyVHDLModel.VHDLModel.SlicedName -->
<g id="edge3" class="edge">
<title>pyVHDLModel.VHDLModel.Name&#45;&gt;pyVHDLModel.VHDLModel.SlicedName</title>
<path fill="none" stroke="#000000" stroke-width=".5" d="M176.089,-9.5C186.1564,-9.5 196.5049,-9.5 206.7953,-9.5"/>
<polygon fill="#000000" stroke="#000000" stroke-width=".5" points="206.8408,-11.2501 211.8408,-9.5 206.8408,-7.7501 206.8408,-11.2501"/>
</g>
</g>
</svg>
