<?xml version="1.0" encoding="UTF-8" standalone="no"?>
<!DOCTYPE svg PUBLIC "-//W3C//DTD SVG 1.1//EN"
 "http://www.w3.org/Graphics/SVG/1.1/DTD/svg11.dtd">
<!-- Generated by graphviz version 2.40.1 (20161225.0304)
 -->
<!-- Title: inheritancecb839f9c98 Pages: 1 -->
<svg width="576pt" height="18pt"
 viewBox="0.00 0.00 576.00 18.42" xmlns="http://www.w3.org/2000/svg" xmlns:xlink="http://www.w3.org/1999/xlink">
<g id="graph0" class="graph" transform="scale(.2879 .2879) rotate(0) translate(4 60)">
<title>inheritancecb839f9c98</title>
<polygon fill="#ffffff" stroke="transparent" points="-4,4 -4,-60 1997,-60 1997,4 -4,4"/>
<!-- pyGHDL.dom.DOMMixin -->
<g id="node1" class="node">
<title>pyGHDL.dom.DOMMixin</title>
<g id="a_node1"><a xlink:href="../pyGHDL.dom.html#pyGHDL.dom.DOMMixin" xlink:title="pyGHDL.dom.DOMMixin" target="_top">
<polygon fill="none" stroke="#000000" stroke-width=".5" points="1595,-56 1461,-56 1461,-37 1595,-37 1595,-56"/>
<text text-anchor="middle" x="1528" y="-44" font-family="Vera Sans, DejaVu Sans, Liberation Sans, Arial, Helvetica, sans" font-size="10.00" fill="#000000">pyGHDL.dom.DOMMixin</text>
</a>
</g>
</g>
<!-- pyGHDL.dom.Expression.MatchingLessThanExpression -->
<g id="node2" class="node">
<title>pyGHDL.dom.Expression.MatchingLessThanExpression</title>
<g id="a_node2"><a xlink:href="../pyGHDL/pyGHDL.dom.Expression.html#pyGHDL.dom.Expression.MatchingLessThanExpression" xlink:title="pyGHDL.dom.Expression.MatchingLessThanExpression" target="_top">
<polygon fill="none" stroke="#000000" stroke-width=".5" points="1993,-37 1709,-37 1709,-18 1993,-18 1993,-37"/>
<text text-anchor="middle" x="1851" y="-25" font-family="Vera Sans, DejaVu Sans, Liberation Sans, Arial, Helvetica, sans" font-size="10.00" fill="#000000">pyGHDL.dom.Expression.MatchingLessThanExpression</text>
</a>
</g>
</g>
<!-- pyGHDL.dom.DOMMixin&#45;&gt;pyGHDL.dom.Expression.MatchingLessThanExpression -->
<g id="edge2" class="edge">
<title>pyGHDL.dom.DOMMixin&#45;&gt;pyGHDL.dom.Expression.MatchingLessThanExpression</title>
<path fill="none" stroke="#000000" stroke-width=".5" d="M1595.3182,-42.5401C1626.9024,-40.6822 1665.8739,-38.3898 1703.7869,-36.1596"/>
<polygon fill="#000000" stroke="#000000" stroke-width=".5" points="1703.9978,-37.9003 1708.8864,-35.8596 1703.7922,-34.4063 1703.9978,-37.9003"/>
</g>
<!-- pyVHDLModel.VHDLModel.MatchingLessThanExpression -->
<g id="node3" class="node">
<title>pyVHDLModel.VHDLModel.MatchingLessThanExpression</title>
<polygon fill="none" stroke="#000000" stroke-width=".5" points="1673,-19 1383,-19 1383,0 1673,0 1673,-19"/>
<text text-anchor="middle" x="1528" y="-7" font-family="Vera Sans, DejaVu Sans, Liberation Sans, Arial, Helvetica, sans" font-size="10.00" fill="#000000">pyVHDLModel.VHDLModel.MatchingLessThanExpression</text>
</g>
<!-- pyVHDLModel.VHDLModel.MatchingLessThanExpression&#45;&gt;pyGHDL.dom.Expression.MatchingLessThanExpression -->
<g id="edge1" class="edge">
<title>pyVHDLModel.VHDLModel.MatchingLessThanExpression&#45;&gt;pyGHDL.dom.Expression.MatchingLessThanExpression</title>
<path fill="none" stroke="#000000" stroke-width=".5" d="M1673.4367,-17.6048C1683.4894,-18.165 1693.6259,-18.7299 1703.6884,-19.2907"/>
<polygon fill="#000000" stroke="#000000" stroke-width=".5" points="1703.8532,-21.0525 1708.9428,-19.5835 1704.048,-17.5579 1703.8532,-21.0525"/>
</g>
<!-- pyVHDLModel.VHDLModel.BaseExpression -->
<g id="node4" class="node">
<title>pyVHDLModel.VHDLModel.BaseExpression</title>
<g id="a_node4"><a xlink:title="A ``BaseExpression`` is a base&#45;class for all expressions.">
<polygon fill="none" stroke="#000000" stroke-width=".5" points="465,-19 241,-19 241,0 465,0 465,-19"/>
<text text-anchor="middle" x="353" y="-7" font-family="Vera Sans, DejaVu Sans, Liberation Sans, Arial, Helvetica, sans" font-size="10.00" fill="#000000">pyVHDLModel.VHDLModel.BaseExpression</text>
</a>
</g>
</g>
<!-- pyVHDLModel.VHDLModel.BinaryExpression -->
<g id="node6" class="node">
<title>pyVHDLModel.VHDLModel.BinaryExpression</title>
<g id="a_node6"><a xlink:title="A ``BinaryExpression`` is a base&#45;class for all binary expressions.">
<polygon fill="none" stroke="#000000" stroke-width=".5" points="733,-19 501,-19 501,0 733,0 733,-19"/>
<text text-anchor="middle" x="617" y="-7" font-family="Vera Sans, DejaVu Sans, Liberation Sans, Arial, Helvetica, sans" font-size="10.00" fill="#000000">pyVHDLModel.VHDLModel.BinaryExpression</text>
</a>
</g>
</g>
<!-- pyVHDLModel.VHDLModel.BaseExpression&#45;&gt;pyVHDLModel.VHDLModel.BinaryExpression -->
<g id="edge4" class="edge">
<title>pyVHDLModel.VHDLModel.BaseExpression&#45;&gt;pyVHDLModel.VHDLModel.BinaryExpression</title>
<path fill="none" stroke="#000000" stroke-width=".5" d="M465.3426,-9.5C475.3813,-9.5 485.5751,-9.5 495.6849,-9.5"/>
<polygon fill="#000000" stroke="#000000" stroke-width=".5" points="495.9627,-11.2501 500.9627,-9.5 495.9626,-7.7501 495.9627,-11.2501"/>
</g>
<!-- pyVHDLModel.VHDLModel.ModelEntity -->
<g id="node5" class="node">
<title>pyVHDLModel.VHDLModel.ModelEntity</title>
<g id="a_node5"><a xlink:title="``ModelEntity`` is the base class for all classes in the VHDL language model,">
<polygon fill="none" stroke="#000000" stroke-width=".5" points="205,-19 0,-19 0,0 205,0 205,-19"/>
<text text-anchor="middle" x="102.5" y="-7" font-family="Vera Sans, DejaVu Sans, Liberation Sans, Arial, Helvetica, sans" font-size="10.00" fill="#000000">pyVHDLModel.VHDLModel.ModelEntity</text>
</a>
</g>
</g>
<!-- pyVHDLModel.VHDLModel.ModelEntity&#45;&gt;pyVHDLModel.VHDLModel.BaseExpression -->
<g id="edge3" class="edge">
<title>pyVHDLModel.VHDLModel.ModelEntity&#45;&gt;pyVHDLModel.VHDLModel.BaseExpression</title>
<path fill="none" stroke="#000000" stroke-width=".5" d="M205.1107,-9.5C215.2127,-9.5 225.5179,-9.5 235.7516,-9.5"/>
<polygon fill="#000000" stroke="#000000" stroke-width=".5" points="235.7685,-11.2501 240.7685,-9.5 235.7684,-7.7501 235.7685,-11.2501"/>
</g>
<!-- pyVHDLModel.VHDLModel.RelationalExpression -->
<g id="node8" class="node">
<title>pyVHDLModel.VHDLModel.RelationalExpression</title>
<g id="a_node8"><a xlink:title="A ``RelationalExpression`` is a base&#45;class for all shifting expressions.">
<polygon fill="none" stroke="#000000" stroke-width=".5" points="1018,-19 769,-19 769,0 1018,0 1018,-19"/>
<text text-anchor="middle" x="893.5" y="-7" font-family="Vera Sans, DejaVu Sans, Liberation Sans, Arial, Helvetica, sans" font-size="10.00" fill="#000000">pyVHDLModel.VHDLModel.RelationalExpression</text>
</a>
</g>
</g>
<!-- pyVHDLModel.VHDLModel.BinaryExpression&#45;&gt;pyVHDLModel.VHDLModel.RelationalExpression -->
<g id="edge7" class="edge">
<title>pyVHDLModel.VHDLModel.BinaryExpression&#45;&gt;pyVHDLModel.VHDLModel.RelationalExpression</title>
<path fill="none" stroke="#000000" stroke-width=".5" d="M733.0591,-9.5C743.2195,-9.5 753.544,-9.5 763.8055,-9.5"/>
<polygon fill="#000000" stroke="#000000" stroke-width=".5" points="763.837,-11.2501 768.8369,-9.5 763.8369,-7.7501 763.837,-11.2501"/>
</g>
<!-- pyVHDLModel.VHDLModel.MatchingRelationalExpression -->
<g id="node7" class="node">
<title>pyVHDLModel.VHDLModel.MatchingRelationalExpression</title>
<polygon fill="none" stroke="#000000" stroke-width=".5" points="1347,-19 1054,-19 1054,0 1347,0 1347,-19"/>
<text text-anchor="middle" x="1200.5" y="-7" font-family="Vera Sans, DejaVu Sans, Liberation Sans, Arial, Helvetica, sans" font-size="10.00" fill="#000000">pyVHDLModel.VHDLModel.MatchingRelationalExpression</text>
</g>
<!-- pyVHDLModel.VHDLModel.MatchingRelationalExpression&#45;&gt;pyVHDLModel.VHDLModel.MatchingLessThanExpression -->
<g id="edge5" class="edge">
<title>pyVHDLModel.VHDLModel.MatchingRelationalExpression&#45;&gt;pyVHDLModel.VHDLModel.MatchingLessThanExpression</title>
<path fill="none" stroke="#000000" stroke-width=".5" d="M1347.008,-9.5C1357.2531,-9.5 1367.5894,-9.5 1377.8538,-9.5"/>
<polygon fill="#000000" stroke="#000000" stroke-width=".5" points="1377.8863,-11.2501 1382.8863,-9.5 1377.8862,-7.7501 1377.8863,-11.2501"/>
</g>
<!-- pyVHDLModel.VHDLModel.RelationalExpression&#45;&gt;pyVHDLModel.VHDLModel.MatchingRelationalExpression -->
<g id="edge6" class="edge">
<title>pyVHDLModel.VHDLModel.RelationalExpression&#45;&gt;pyVHDLModel.VHDLModel.MatchingRelationalExpression</title>
<path fill="none" stroke="#000000" stroke-width=".5" d="M1018.3687,-9.5C1028.4262,-9.5 1038.6538,-9.5 1048.8704,-9.5"/>
<polygon fill="#000000" stroke="#000000" stroke-width=".5" points="1048.8841,-11.2501 1053.8841,-9.5 1048.8841,-7.7501 1048.8841,-11.2501"/>
</g>
</g>
</svg>
