<?xml version="1.0" encoding="UTF-8" standalone="no"?>
<!DOCTYPE svg PUBLIC "-//W3C//DTD SVG 1.1//EN"
 "http://www.w3.org/Graphics/SVG/1.1/DTD/svg11.dtd">
<!-- Generated by graphviz version 2.40.1 (20161225.0304)
 -->
<!-- Title: inheritance0862afb825 Pages: 1 -->
<svg width="576pt" height="53pt"
 viewBox="0.00 0.00 576.00 53.07" xmlns="http://www.w3.org/2000/svg" xmlns:xlink="http://www.w3.org/1999/xlink">
<g id="graph0" class="graph" transform="scale(.338 .338) rotate(0) translate(4 153)">
<title>inheritance0862afb825</title>
<polygon fill="#ffffff" stroke="transparent" points="-4,4 -4,-153 1700,-153 1700,4 -4,4"/>
<!-- pyGHDL.dom.DOMMixin -->
<g id="node1" class="node">
<title>pyGHDL.dom.DOMMixin</title>
<g id="a_node1"><a xlink:href="../pyGHDL.dom.html#pyGHDL.dom.DOMMixin" xlink:title="pyGHDL.dom.DOMMixin" target="_top">
<polygon fill="none" stroke="#000000" stroke-width=".5" points="1280,-93 1146,-93 1146,-74 1280,-74 1280,-93"/>
<text text-anchor="middle" x="1213" y="-81" font-family="Vera Sans, DejaVu Sans, Liberation Sans, Arial, Helvetica, sans" font-size="10.00" fill="#000000">pyGHDL.dom.DOMMixin</text>
</a>
</g>
</g>
<!-- pyGHDL.dom.InterfaceItem.GenericConstantInterfaceItem -->
<g id="node2" class="node">
<title>pyGHDL.dom.InterfaceItem.GenericConstantInterfaceItem</title>
<g id="a_node2"><a xlink:href="../pyGHDL/pyGHDL.dom.InterfaceItem.html#pyGHDL.dom.InterfaceItem.GenericConstantInterfaceItem" xlink:title="pyGHDL.dom.InterfaceItem.GenericConstantInterfaceItem" target="_top">
<polygon fill="none" stroke="#000000" stroke-width=".5" points="1696,-74 1396,-74 1396,-55 1696,-55 1696,-74"/>
<text text-anchor="middle" x="1546" y="-62" font-family="Vera Sans, DejaVu Sans, Liberation Sans, Arial, Helvetica, sans" font-size="10.00" fill="#000000">pyGHDL.dom.InterfaceItem.GenericConstantInterfaceItem</text>
</a>
</g>
</g>
<!-- pyGHDL.dom.DOMMixin&#45;&gt;pyGHDL.dom.InterfaceItem.GenericConstantInterfaceItem -->
<g id="edge2" class="edge">
<title>pyGHDL.dom.DOMMixin&#45;&gt;pyGHDL.dom.InterfaceItem.GenericConstantInterfaceItem</title>
<path fill="none" stroke="#000000" stroke-width=".5" d="M1280.3875,-79.6551C1312.3075,-77.8338 1351.8685,-75.5766 1390.6224,-73.3654"/>
<polygon fill="#000000" stroke="#000000" stroke-width=".5" points="1390.9446,-75.0999 1395.8367,-73.0679 1390.7451,-71.6056 1390.9446,-75.0999"/>
</g>
<!-- pyVHDLModel.VHDLModel.GenericConstantInterfaceItem -->
<g id="node3" class="node">
<title>pyVHDLModel.VHDLModel.GenericConstantInterfaceItem</title>
<polygon fill="none" stroke="#000000" stroke-width=".5" points="1360,-56 1066,-56 1066,-37 1360,-37 1360,-56"/>
<text text-anchor="middle" x="1213" y="-44" font-family="Vera Sans, DejaVu Sans, Liberation Sans, Arial, Helvetica, sans" font-size="10.00" fill="#000000">pyVHDLModel.VHDLModel.GenericConstantInterfaceItem</text>
</g>
<!-- pyVHDLModel.VHDLModel.GenericConstantInterfaceItem&#45;&gt;pyGHDL.dom.InterfaceItem.GenericConstantInterfaceItem -->
<g id="edge1" class="edge">
<title>pyVHDLModel.VHDLModel.GenericConstantInterfaceItem&#45;&gt;pyGHDL.dom.InterfaceItem.GenericConstantInterfaceItem</title>
<path fill="none" stroke="#000000" stroke-width=".5" d="M1360.028,-54.4475C1370.2844,-55.0019 1380.6408,-55.5617 1390.9386,-56.1183"/>
<polygon fill="#000000" stroke="#000000" stroke-width=".5" points="1390.9013,-57.8687 1395.9885,-56.3913 1391.0903,-54.3739 1390.9013,-57.8687"/>
</g>
<!-- pyVHDLModel.VHDLModel.BaseConstant -->
<g id="node4" class="node">
<title>pyVHDLModel.VHDLModel.BaseConstant</title>
<polygon fill="none" stroke="#000000" stroke-width=".5" points="697,-130 482,-130 482,-111 697,-111 697,-130"/>
<text text-anchor="middle" x="589.5" y="-118" font-family="Vera Sans, DejaVu Sans, Liberation Sans, Arial, Helvetica, sans" font-size="10.00" fill="#000000">pyVHDLModel.VHDLModel.BaseConstant</text>
</g>
<!-- pyVHDLModel.VHDLModel.Constant -->
<g id="node6" class="node">
<title>pyVHDLModel.VHDLModel.Constant</title>
<polygon fill="none" stroke="#000000" stroke-width=".5" points="994.5,-93 803.5,-93 803.5,-74 994.5,-74 994.5,-93"/>
<text text-anchor="middle" x="899" y="-81" font-family="Vera Sans, DejaVu Sans, Liberation Sans, Arial, Helvetica, sans" font-size="10.00" fill="#000000">pyVHDLModel.VHDLModel.Constant</text>
</g>
<!-- pyVHDLModel.VHDLModel.BaseConstant&#45;&gt;pyVHDLModel.VHDLModel.Constant -->
<g id="edge4" class="edge">
<title>pyVHDLModel.VHDLModel.BaseConstant&#45;&gt;pyVHDLModel.VHDLModel.Constant</title>
<path fill="none" stroke="#000000" stroke-width=".5" d="M669.2039,-110.9716C713.6124,-105.6626 768.9002,-99.0531 814.1159,-93.6477"/>
<polygon fill="#000000" stroke="#000000" stroke-width=".5" points="814.5407,-95.3595 819.2976,-93.0282 814.1252,-91.8842 814.5407,-95.3595"/>
</g>
<!-- pyVHDLModel.VHDLModel.Obj -->
<g id="node5" class="node">
<title>pyVHDLModel.VHDLModel.Obj</title>
<polygon fill="none" stroke="#000000" stroke-width=".5" points="411,-130 247,-130 247,-111 411,-111 411,-130"/>
<text text-anchor="middle" x="329" y="-118" font-family="Vera Sans, DejaVu Sans, Liberation Sans, Arial, Helvetica, sans" font-size="10.00" fill="#000000">pyVHDLModel.VHDLModel.Obj</text>
</g>
<!-- pyVHDLModel.VHDLModel.Obj&#45;&gt;pyVHDLModel.VHDLModel.BaseConstant -->
<g id="edge3" class="edge">
<title>pyVHDLModel.VHDLModel.Obj&#45;&gt;pyVHDLModel.VHDLModel.BaseConstant</title>
<path fill="none" stroke="#000000" stroke-width=".5" d="M411.0663,-120.5C431.7764,-120.5 454.3784,-120.5 476.3226,-120.5"/>
<polygon fill="#000000" stroke="#000000" stroke-width=".5" points="476.5863,-122.2501 481.5863,-120.5 476.5863,-118.7501 476.5863,-122.2501"/>
</g>
<!-- pyVHDLModel.VHDLModel.Constant&#45;&gt;pyVHDLModel.VHDLModel.GenericConstantInterfaceItem -->
<g id="edge6" class="edge">
<title>pyVHDLModel.VHDLModel.Constant&#45;&gt;pyVHDLModel.VHDLModel.GenericConstantInterfaceItem</title>
<path fill="none" stroke="#000000" stroke-width=".5" d="M979.8628,-73.9716C1025.0084,-68.6519 1081.2362,-62.0263 1127.1608,-56.6148"/>
<polygon fill="#000000" stroke="#000000" stroke-width=".5" points="1127.378,-58.3514 1132.1388,-56.0282 1126.9683,-54.8755 1127.378,-58.3514"/>
</g>
<!-- pyVHDLModel.VHDLModel.WithDefaultExpressionMixin -->
<g id="node7" class="node">
<title>pyVHDLModel.VHDLModel.WithDefaultExpressionMixin</title>
<g id="a_node7"><a xlink:title="A ``WithDefaultExpression`` is a mixin class for all objects declarations">
<polygon fill="none" stroke="#000000" stroke-width=".5" points="732,-93 447,-93 447,-74 732,-74 732,-93"/>
<text text-anchor="middle" x="589.5" y="-81" font-family="Vera Sans, DejaVu Sans, Liberation Sans, Arial, Helvetica, sans" font-size="10.00" fill="#000000">pyVHDLModel.VHDLModel.WithDefaultExpressionMixin</text>
</a>
</g>
</g>
<!-- pyVHDLModel.VHDLModel.WithDefaultExpressionMixin&#45;&gt;pyVHDLModel.VHDLModel.Constant -->
<g id="edge5" class="edge">
<title>pyVHDLModel.VHDLModel.WithDefaultExpressionMixin&#45;&gt;pyVHDLModel.VHDLModel.Constant</title>
<path fill="none" stroke="#000000" stroke-width=".5" d="M732.0204,-83.5C754.3454,-83.5 777.012,-83.5 798.1461,-83.5"/>
<polygon fill="#000000" stroke="#000000" stroke-width=".5" points="798.1985,-85.2501 803.1984,-83.5 798.1984,-81.7501 798.1985,-85.2501"/>
</g>
<!-- pyVHDLModel.VHDLModel.GenericInterfaceItem -->
<g id="node8" class="node">
<title>pyVHDLModel.VHDLModel.GenericInterfaceItem</title>
<g id="a_node8"><a xlink:title="A ``GenericInterfaceItem`` is a mixin class for all generic interface items.">
<polygon fill="none" stroke="#000000" stroke-width=".5" points="1024.5,-56 773.5,-56 773.5,-37 1024.5,-37 1024.5,-56"/>
<text text-anchor="middle" x="899" y="-44" font-family="Vera Sans, DejaVu Sans, Liberation Sans, Arial, Helvetica, sans" font-size="10.00" fill="#000000">pyVHDLModel.VHDLModel.GenericInterfaceItem</text>
</a>
</g>
</g>
<!-- pyVHDLModel.VHDLModel.GenericInterfaceItem&#45;&gt;pyVHDLModel.VHDLModel.GenericConstantInterfaceItem -->
<g id="edge7" class="edge">
<title>pyVHDLModel.VHDLModel.GenericInterfaceItem&#45;&gt;pyVHDLModel.VHDLModel.GenericConstantInterfaceItem</title>
<path fill="none" stroke="#000000" stroke-width=".5" d="M1024.9066,-46.5C1036.7006,-46.5 1048.7386,-46.5 1060.7396,-46.5"/>
<polygon fill="#000000" stroke="#000000" stroke-width=".5" points="1060.8798,-48.2501 1065.8798,-46.5 1060.8797,-44.7501 1060.8798,-48.2501"/>
</g>
<!-- pyVHDLModel.VHDLModel.InterfaceItemWithMode -->
<g id="node9" class="node">
<title>pyVHDLModel.VHDLModel.InterfaceItemWithMode</title>
<g id="a_node9"><a xlink:title="An ``InterfaceItemWithMode`` is a mixin&#45;class to provide a ``Mode`` to">
<polygon fill="none" stroke="#000000" stroke-width=".5" points="1030,-19 768,-19 768,0 1030,0 1030,-19"/>
<text text-anchor="middle" x="899" y="-7" font-family="Vera Sans, DejaVu Sans, Liberation Sans, Arial, Helvetica, sans" font-size="10.00" fill="#000000">pyVHDLModel.VHDLModel.InterfaceItemWithMode</text>
</a>
</g>
</g>
<!-- pyVHDLModel.VHDLModel.InterfaceItemWithMode&#45;&gt;pyVHDLModel.VHDLModel.GenericConstantInterfaceItem -->
<g id="edge8" class="edge">
<title>pyVHDLModel.VHDLModel.InterfaceItemWithMode&#45;&gt;pyVHDLModel.VHDLModel.GenericConstantInterfaceItem</title>
<path fill="none" stroke="#000000" stroke-width=".5" d="M979.8628,-19.0284C1025.0084,-24.3481 1081.2362,-30.9737 1127.1608,-36.3852"/>
<polygon fill="#000000" stroke="#000000" stroke-width=".5" points="1126.9683,-38.1245 1132.1388,-36.9718 1127.378,-34.6486 1126.9683,-38.1245"/>
</g>
<!-- pyVHDLModel.VHDLModel.InterfaceItem -->
<g id="node10" class="node">
<title>pyVHDLModel.VHDLModel.InterfaceItem</title>
<g id="a_node10"><a xlink:title="An ``InterfaceItem`` is a base&#45;class for all mixin&#45;classes for all interface">
<polygon fill="none" stroke="#000000" stroke-width=".5" points="696,-56 483,-56 483,-37 696,-37 696,-56"/>
<text text-anchor="middle" x="589.5" y="-44" font-family="Vera Sans, DejaVu Sans, Liberation Sans, Arial, Helvetica, sans" font-size="10.00" fill="#000000">pyVHDLModel.VHDLModel.InterfaceItem</text>
</a>
</g>
</g>
<!-- pyVHDLModel.VHDLModel.InterfaceItem&#45;&gt;pyVHDLModel.VHDLModel.GenericInterfaceItem -->
<g id="edge9" class="edge">
<title>pyVHDLModel.VHDLModel.InterfaceItem&#45;&gt;pyVHDLModel.VHDLModel.GenericInterfaceItem</title>
<path fill="none" stroke="#000000" stroke-width=".5" d="M696.0123,-46.5C719.2749,-46.5 744.1534,-46.5 768.2374,-46.5"/>
<polygon fill="#000000" stroke="#000000" stroke-width=".5" points="768.3638,-48.2501 773.3638,-46.5 768.3637,-44.7501 768.3638,-48.2501"/>
</g>
<!-- pyVHDLModel.VHDLModel.ModelEntity -->
<g id="node11" class="node">
<title>pyVHDLModel.VHDLModel.ModelEntity</title>
<g id="a_node11"><a xlink:title="``ModelEntity`` is the base class for all classes in the VHDL language model,">
<polygon fill="none" stroke="#000000" stroke-width=".5" points="208,-149 3,-149 3,-130 208,-130 208,-149"/>
<text text-anchor="middle" x="105.5" y="-137" font-family="Vera Sans, DejaVu Sans, Liberation Sans, Arial, Helvetica, sans" font-size="10.00" fill="#000000">pyVHDLModel.VHDLModel.ModelEntity</text>
</a>
</g>
</g>
<!-- pyVHDLModel.VHDLModel.ModelEntity&#45;&gt;pyVHDLModel.VHDLModel.Obj -->
<g id="edge10" class="edge">
<title>pyVHDLModel.VHDLModel.ModelEntity&#45;&gt;pyVHDLModel.VHDLModel.Obj</title>
<path fill="none" stroke="#000000" stroke-width=".5" d="M208.0921,-130.7785C219.3372,-129.8226 230.7068,-128.856 241.7413,-127.918"/>
<polygon fill="#000000" stroke="#000000" stroke-width=".5" points="241.9522,-129.6564 246.786,-127.4891 241.6557,-126.169 241.9522,-129.6564"/>
</g>
<!-- pyVHDLModel.VHDLModel.NamedEntity -->
<g id="node12" class="node">
<title>pyVHDLModel.VHDLModel.NamedEntity</title>
<g id="a_node12"><a xlink:title="A ``NamedEntity`` is a mixin class for all VHDL entities that have identifiers.">
<polygon fill="none" stroke="#000000" stroke-width=".5" points="211,-112 0,-112 0,-93 211,-93 211,-112"/>
<text text-anchor="middle" x="105.5" y="-100" font-family="Vera Sans, DejaVu Sans, Liberation Sans, Arial, Helvetica, sans" font-size="10.00" fill="#000000">pyVHDLModel.VHDLModel.NamedEntity</text>
</a>
</g>
</g>
<!-- pyVHDLModel.VHDLModel.NamedEntity&#45;&gt;pyVHDLModel.VHDLModel.Obj -->
<g id="edge11" class="edge">
<title>pyVHDLModel.VHDLModel.NamedEntity&#45;&gt;pyVHDLModel.VHDLModel.Obj</title>
<path fill="none" stroke="#000000" stroke-width=".5" d="M211.0324,-110.9993C221.2346,-111.8209 231.5062,-112.6482 241.5056,-113.4535"/>
<polygon fill="#000000" stroke="#000000" stroke-width=".5" points="241.5836,-115.2153 246.708,-113.8725 241.8646,-111.7266 241.5836,-115.2153"/>
</g>
</g>
</svg>
