<?xml version="1.0" encoding="UTF-8" standalone="no"?>
<!DOCTYPE svg PUBLIC "-//W3C//DTD SVG 1.1//EN"
 "http://www.w3.org/Graphics/SVG/1.1/DTD/svg11.dtd">
<!-- Generated by graphviz version 2.40.1 (20161225.0304)
 -->
<!-- Title: inheritancecb62370f5b Pages: 1 -->
<svg width="576pt" height="25pt"
 viewBox="0.00 0.00 576.00 25.11" xmlns="http://www.w3.org/2000/svg" xmlns:xlink="http://www.w3.org/1999/xlink">
<g id="graph0" class="graph" transform="scale(.3924 .3924) rotate(0) translate(4 60)">
<title>inheritancecb62370f5b</title>
<polygon fill="#ffffff" stroke="transparent" points="-4,4 -4,-60 1464,-60 1464,4 -4,4"/>
<!-- pyGHDL.dom.DOMMixin -->
<g id="node1" class="node">
<title>pyGHDL.dom.DOMMixin</title>
<g id="a_node1"><a xlink:href="../pyGHDL.dom.html#pyGHDL.dom.DOMMixin" xlink:title="pyGHDL.dom.DOMMixin" target="_top">
<polygon fill="none" stroke="#000000" stroke-width=".5" points="1158,-56 1024,-56 1024,-37 1158,-37 1158,-56"/>
<text text-anchor="middle" x="1091" y="-44" font-family="Vera Sans, DejaVu Sans, Liberation Sans, Arial, Helvetica, sans" font-size="10.00" fill="#000000">pyGHDL.dom.DOMMixin</text>
</a>
</g>
</g>
<!-- pyGHDL.dom.Literal.FloatingPointLiteral -->
<g id="node2" class="node">
<title>pyGHDL.dom.Literal.FloatingPointLiteral</title>
<g id="a_node2"><a xlink:href="../pyGHDL/pyGHDL.dom.Literal.html#pyGHDL.dom.Literal.FloatingPointLiteral" xlink:title="pyGHDL.dom.Literal.FloatingPointLiteral" target="_top">
<polygon fill="none" stroke="#000000" stroke-width=".5" points="1460,-37 1248,-37 1248,-18 1460,-18 1460,-37"/>
<text text-anchor="middle" x="1354" y="-25" font-family="Vera Sans, DejaVu Sans, Liberation Sans, Arial, Helvetica, sans" font-size="10.00" fill="#000000">pyGHDL.dom.Literal.FloatingPointLiteral</text>
</a>
</g>
</g>
<!-- pyGHDL.dom.DOMMixin&#45;&gt;pyGHDL.dom.Literal.FloatingPointLiteral -->
<g id="edge2" class="edge">
<title>pyGHDL.dom.DOMMixin&#45;&gt;pyGHDL.dom.Literal.FloatingPointLiteral</title>
<path fill="none" stroke="#000000" stroke-width=".5" d="M1158.0465,-41.6563C1183.8703,-39.7907 1214.0999,-37.6068 1242.9787,-35.5205"/>
<polygon fill="#000000" stroke="#000000" stroke-width=".5" points="1243.1152,-37.2653 1247.9761,-35.1595 1242.8629,-33.7744 1243.1152,-37.2653"/>
</g>
<!-- pyVHDLModel.VHDLModel.FloatingPointLiteral -->
<g id="node3" class="node">
<title>pyVHDLModel.VHDLModel.FloatingPointLiteral</title>
<polygon fill="none" stroke="#000000" stroke-width=".5" points="1212,-19 970,-19 970,0 1212,0 1212,-19"/>
<text text-anchor="middle" x="1091" y="-7" font-family="Vera Sans, DejaVu Sans, Liberation Sans, Arial, Helvetica, sans" font-size="10.00" fill="#000000">pyVHDLModel.VHDLModel.FloatingPointLiteral</text>
</g>
<!-- pyVHDLModel.VHDLModel.FloatingPointLiteral&#45;&gt;pyGHDL.dom.Literal.FloatingPointLiteral -->
<g id="edge1" class="edge">
<title>pyVHDLModel.VHDLModel.FloatingPointLiteral&#45;&gt;pyGHDL.dom.Literal.FloatingPointLiteral</title>
<path fill="none" stroke="#000000" stroke-width=".5" d="M1212.1078,-17.7887C1222.2104,-18.4802 1232.3954,-19.1772 1242.4221,-19.8635"/>
<polygon fill="#000000" stroke="#000000" stroke-width=".5" points="1242.5419,-21.6257 1247.6498,-20.2213 1242.781,-18.1339 1242.5419,-21.6257"/>
</g>
<!-- pyVHDLModel.VHDLModel.BaseExpression -->
<g id="node4" class="node">
<title>pyVHDLModel.VHDLModel.BaseExpression</title>
<g id="a_node4"><a xlink:title="A ``BaseExpression`` is a base&#45;class for all expressions.">
<polygon fill="none" stroke="#000000" stroke-width=".5" points="465,-19 241,-19 241,0 465,0 465,-19"/>
<text text-anchor="middle" x="353" y="-7" font-family="Vera Sans, DejaVu Sans, Liberation Sans, Arial, Helvetica, sans" font-size="10.00" fill="#000000">pyVHDLModel.VHDLModel.BaseExpression</text>
</a>
</g>
</g>
<!-- pyVHDLModel.VHDLModel.Literal -->
<g id="node7" class="node">
<title>pyVHDLModel.VHDLModel.Literal</title>
<g id="a_node7"><a xlink:title="A ``Literal`` is a base&#45;class for all literals.">
<polygon fill="none" stroke="#000000" stroke-width=".5" points="679,-19 501,-19 501,0 679,0 679,-19"/>
<text text-anchor="middle" x="590" y="-7" font-family="Vera Sans, DejaVu Sans, Liberation Sans, Arial, Helvetica, sans" font-size="10.00" fill="#000000">pyVHDLModel.VHDLModel.Literal</text>
</a>
</g>
</g>
<!-- pyVHDLModel.VHDLModel.BaseExpression&#45;&gt;pyVHDLModel.VHDLModel.Literal -->
<g id="edge5" class="edge">
<title>pyVHDLModel.VHDLModel.BaseExpression&#45;&gt;pyVHDLModel.VHDLModel.Literal</title>
<path fill="none" stroke="#000000" stroke-width=".5" d="M465.2536,-9.5C475.4419,-9.5 485.692,-9.5 495.7014,-9.5"/>
<polygon fill="#000000" stroke="#000000" stroke-width=".5" points="495.9123,-11.2501 500.9122,-9.5 495.9122,-7.7501 495.9123,-11.2501"/>
</g>
<!-- pyVHDLModel.VHDLModel.ModelEntity -->
<g id="node5" class="node">
<title>pyVHDLModel.VHDLModel.ModelEntity</title>
<g id="a_node5"><a xlink:title="``ModelEntity`` is the base class for all classes in the VHDL language model,">
<polygon fill="none" stroke="#000000" stroke-width=".5" points="205,-19 0,-19 0,0 205,0 205,-19"/>
<text text-anchor="middle" x="102.5" y="-7" font-family="Vera Sans, DejaVu Sans, Liberation Sans, Arial, Helvetica, sans" font-size="10.00" fill="#000000">pyVHDLModel.VHDLModel.ModelEntity</text>
</a>
</g>
</g>
<!-- pyVHDLModel.VHDLModel.ModelEntity&#45;&gt;pyVHDLModel.VHDLModel.BaseExpression -->
<g id="edge3" class="edge">
<title>pyVHDLModel.VHDLModel.ModelEntity&#45;&gt;pyVHDLModel.VHDLModel.BaseExpression</title>
<path fill="none" stroke="#000000" stroke-width=".5" d="M205.1107,-9.5C215.2127,-9.5 225.5179,-9.5 235.7516,-9.5"/>
<polygon fill="#000000" stroke="#000000" stroke-width=".5" points="235.7685,-11.2501 240.7685,-9.5 235.7684,-7.7501 235.7685,-11.2501"/>
</g>
<!-- pyVHDLModel.VHDLModel.NumericLiteral -->
<g id="node6" class="node">
<title>pyVHDLModel.VHDLModel.NumericLiteral</title>
<g id="a_node6"><a xlink:title="A ``NumericLiteral`` is a base&#45;class for all numeric literals.">
<polygon fill="none" stroke="#000000" stroke-width=".5" points="934,-19 715,-19 715,0 934,0 934,-19"/>
<text text-anchor="middle" x="824.5" y="-7" font-family="Vera Sans, DejaVu Sans, Liberation Sans, Arial, Helvetica, sans" font-size="10.00" fill="#000000">pyVHDLModel.VHDLModel.NumericLiteral</text>
</a>
</g>
</g>
<!-- pyVHDLModel.VHDLModel.NumericLiteral&#45;&gt;pyVHDLModel.VHDLModel.FloatingPointLiteral -->
<g id="edge4" class="edge">
<title>pyVHDLModel.VHDLModel.NumericLiteral&#45;&gt;pyVHDLModel.VHDLModel.FloatingPointLiteral</title>
<path fill="none" stroke="#000000" stroke-width=".5" d="M934.0494,-9.5C944.1662,-9.5 954.4712,-9.5 964.7211,-9.5"/>
<polygon fill="#000000" stroke="#000000" stroke-width=".5" points="964.7474,-11.2501 969.7474,-9.5 964.7473,-7.7501 964.7474,-11.2501"/>
</g>
<!-- pyVHDLModel.VHDLModel.Literal&#45;&gt;pyVHDLModel.VHDLModel.NumericLiteral -->
<g id="edge6" class="edge">
<title>pyVHDLModel.VHDLModel.Literal&#45;&gt;pyVHDLModel.VHDLModel.NumericLiteral</title>
<path fill="none" stroke="#000000" stroke-width=".5" d="M679.3234,-9.5C689.3342,-9.5 699.6334,-9.5 709.9054,-9.5"/>
<polygon fill="#000000" stroke="#000000" stroke-width=".5" points="709.9445,-11.2501 714.9444,-9.5 709.9444,-7.7501 709.9445,-11.2501"/>
</g>
</g>
</svg>
