<?xml version="1.0" encoding="UTF-8" standalone="no"?>
<!DOCTYPE svg PUBLIC "-//W3C//DTD SVG 1.1//EN"
 "http://www.w3.org/Graphics/SVG/1.1/DTD/svg11.dtd">
<!-- Generated by graphviz version 2.40.1 (20161225.0304)
 -->
<!-- Title: inheritance9d612f6d42 Pages: 1 -->
<svg width="576pt" height="23pt"
 viewBox="0.00 0.00 576.00 22.85" xmlns="http://www.w3.org/2000/svg" xmlns:xlink="http://www.w3.org/1999/xlink">
<g id="graph0" class="graph" transform="scale(.3571 .3571) rotate(0) translate(4 60)">
<title>inheritance9d612f6d42</title>
<polygon fill="#ffffff" stroke="transparent" points="-4,4 -4,-60 1609,-60 1609,4 -4,4"/>
<!-- pyGHDL.dom.DOMMixin -->
<g id="node1" class="node">
<title>pyGHDL.dom.DOMMixin</title>
<g id="a_node1"><a xlink:href="../pyGHDL.dom.html#pyGHDL.dom.DOMMixin" xlink:title="pyGHDL.dom.DOMMixin" target="_top">
<polygon fill="none" stroke="#000000" stroke-width=".5" points="1251.5,-56 1117.5,-56 1117.5,-37 1251.5,-37 1251.5,-56"/>
<text text-anchor="middle" x="1184.5" y="-44" font-family="Vera Sans, DejaVu Sans, Liberation Sans, Arial, Helvetica, sans" font-size="10.00" fill="#000000">pyGHDL.dom.DOMMixin</text>
</a>
</g>
</g>
<!-- pyGHDL.dom.Expression.GreaterThanExpression -->
<g id="node2" class="node">
<title>pyGHDL.dom.Expression.GreaterThanExpression</title>
<g id="a_node2"><a xlink:href="../pyGHDL/pyGHDL.dom.Expression.html#pyGHDL.dom.Expression.GreaterThanExpression" xlink:title="pyGHDL.dom.Expression.GreaterThanExpression" target="_top">
<polygon fill="none" stroke="#000000" stroke-width=".5" points="1605,-37 1351,-37 1351,-18 1605,-18 1605,-37"/>
<text text-anchor="middle" x="1478" y="-25" font-family="Vera Sans, DejaVu Sans, Liberation Sans, Arial, Helvetica, sans" font-size="10.00" fill="#000000">pyGHDL.dom.Expression.GreaterThanExpression</text>
</a>
</g>
</g>
<!-- pyGHDL.dom.DOMMixin&#45;&gt;pyGHDL.dom.Expression.GreaterThanExpression -->
<g id="edge2" class="edge">
<title>pyGHDL.dom.DOMMixin&#45;&gt;pyGHDL.dom.Expression.GreaterThanExpression</title>
<path fill="none" stroke="#000000" stroke-width=".5" d="M1251.8348,-42.141C1279.7873,-40.3315 1313.2408,-38.1658 1345.7374,-36.0621"/>
<polygon fill="#000000" stroke="#000000" stroke-width=".5" points="1346.0672,-37.7946 1350.9437,-35.7251 1345.841,-34.3019 1346.0672,-37.7946"/>
</g>
<!-- pyVHDLModel.VHDLModel.GreaterThanExpression -->
<g id="node3" class="node">
<title>pyVHDLModel.VHDLModel.GreaterThanExpression</title>
<polygon fill="none" stroke="#000000" stroke-width=".5" points="1315,-19 1054,-19 1054,0 1315,0 1315,-19"/>
<text text-anchor="middle" x="1184.5" y="-7" font-family="Vera Sans, DejaVu Sans, Liberation Sans, Arial, Helvetica, sans" font-size="10.00" fill="#000000">pyVHDLModel.VHDLModel.GreaterThanExpression</text>
</g>
<!-- pyVHDLModel.VHDLModel.GreaterThanExpression&#45;&gt;pyGHDL.dom.Expression.GreaterThanExpression -->
<g id="edge1" class="edge">
<title>pyVHDLModel.VHDLModel.GreaterThanExpression&#45;&gt;pyGHDL.dom.Expression.GreaterThanExpression</title>
<path fill="none" stroke="#000000" stroke-width=".5" d="M1315.3702,-17.5261C1325.3936,-18.1408 1335.517,-18.7617 1345.5503,-19.377"/>
<polygon fill="#000000" stroke="#000000" stroke-width=".5" points="1345.6901,-21.1388 1350.7879,-19.6982 1345.9044,-17.6454 1345.6901,-21.1388"/>
</g>
<!-- pyVHDLModel.VHDLModel.BaseExpression -->
<g id="node4" class="node">
<title>pyVHDLModel.VHDLModel.BaseExpression</title>
<g id="a_node4"><a xlink:title="A ``BaseExpression`` is a base&#45;class for all expressions.">
<polygon fill="none" stroke="#000000" stroke-width=".5" points="465,-19 241,-19 241,0 465,0 465,-19"/>
<text text-anchor="middle" x="353" y="-7" font-family="Vera Sans, DejaVu Sans, Liberation Sans, Arial, Helvetica, sans" font-size="10.00" fill="#000000">pyVHDLModel.VHDLModel.BaseExpression</text>
</a>
</g>
</g>
<!-- pyVHDLModel.VHDLModel.BinaryExpression -->
<g id="node6" class="node">
<title>pyVHDLModel.VHDLModel.BinaryExpression</title>
<g id="a_node6"><a xlink:title="A ``BinaryExpression`` is a base&#45;class for all binary expressions.">
<polygon fill="none" stroke="#000000" stroke-width=".5" points="733,-19 501,-19 501,0 733,0 733,-19"/>
<text text-anchor="middle" x="617" y="-7" font-family="Vera Sans, DejaVu Sans, Liberation Sans, Arial, Helvetica, sans" font-size="10.00" fill="#000000">pyVHDLModel.VHDLModel.BinaryExpression</text>
</a>
</g>
</g>
<!-- pyVHDLModel.VHDLModel.BaseExpression&#45;&gt;pyVHDLModel.VHDLModel.BinaryExpression -->
<g id="edge4" class="edge">
<title>pyVHDLModel.VHDLModel.BaseExpression&#45;&gt;pyVHDLModel.VHDLModel.BinaryExpression</title>
<path fill="none" stroke="#000000" stroke-width=".5" d="M465.3426,-9.5C475.3813,-9.5 485.5751,-9.5 495.6849,-9.5"/>
<polygon fill="#000000" stroke="#000000" stroke-width=".5" points="495.9627,-11.2501 500.9627,-9.5 495.9626,-7.7501 495.9627,-11.2501"/>
</g>
<!-- pyVHDLModel.VHDLModel.ModelEntity -->
<g id="node5" class="node">
<title>pyVHDLModel.VHDLModel.ModelEntity</title>
<g id="a_node5"><a xlink:title="``ModelEntity`` is the base class for all classes in the VHDL language model,">
<polygon fill="none" stroke="#000000" stroke-width=".5" points="205,-19 0,-19 0,0 205,0 205,-19"/>
<text text-anchor="middle" x="102.5" y="-7" font-family="Vera Sans, DejaVu Sans, Liberation Sans, Arial, Helvetica, sans" font-size="10.00" fill="#000000">pyVHDLModel.VHDLModel.ModelEntity</text>
</a>
</g>
</g>
<!-- pyVHDLModel.VHDLModel.ModelEntity&#45;&gt;pyVHDLModel.VHDLModel.BaseExpression -->
<g id="edge3" class="edge">
<title>pyVHDLModel.VHDLModel.ModelEntity&#45;&gt;pyVHDLModel.VHDLModel.BaseExpression</title>
<path fill="none" stroke="#000000" stroke-width=".5" d="M205.1107,-9.5C215.2127,-9.5 225.5179,-9.5 235.7516,-9.5"/>
<polygon fill="#000000" stroke="#000000" stroke-width=".5" points="235.7685,-11.2501 240.7685,-9.5 235.7684,-7.7501 235.7685,-11.2501"/>
</g>
<!-- pyVHDLModel.VHDLModel.RelationalExpression -->
<g id="node7" class="node">
<title>pyVHDLModel.VHDLModel.RelationalExpression</title>
<g id="a_node7"><a xlink:title="A ``RelationalExpression`` is a base&#45;class for all shifting expressions.">
<polygon fill="none" stroke="#000000" stroke-width=".5" points="1018,-19 769,-19 769,0 1018,0 1018,-19"/>
<text text-anchor="middle" x="893.5" y="-7" font-family="Vera Sans, DejaVu Sans, Liberation Sans, Arial, Helvetica, sans" font-size="10.00" fill="#000000">pyVHDLModel.VHDLModel.RelationalExpression</text>
</a>
</g>
</g>
<!-- pyVHDLModel.VHDLModel.BinaryExpression&#45;&gt;pyVHDLModel.VHDLModel.RelationalExpression -->
<g id="edge6" class="edge">
<title>pyVHDLModel.VHDLModel.BinaryExpression&#45;&gt;pyVHDLModel.VHDLModel.RelationalExpression</title>
<path fill="none" stroke="#000000" stroke-width=".5" d="M733.0591,-9.5C743.2195,-9.5 753.544,-9.5 763.8055,-9.5"/>
<polygon fill="#000000" stroke="#000000" stroke-width=".5" points="763.837,-11.2501 768.8369,-9.5 763.8369,-7.7501 763.837,-11.2501"/>
</g>
<!-- pyVHDLModel.VHDLModel.RelationalExpression&#45;&gt;pyVHDLModel.VHDLModel.GreaterThanExpression -->
<g id="edge5" class="edge">
<title>pyVHDLModel.VHDLModel.RelationalExpression&#45;&gt;pyVHDLModel.VHDLModel.GreaterThanExpression</title>
<path fill="none" stroke="#000000" stroke-width=".5" d="M1018.1766,-9.5C1028.1602,-9.5 1038.2774,-9.5 1048.3349,-9.5"/>
<polygon fill="#000000" stroke="#000000" stroke-width=".5" points="1048.5879,-11.2501 1053.5879,-9.5 1048.5879,-7.7501 1048.5879,-11.2501"/>
</g>
</g>
</svg>
