<?xml version="1.0" encoding="UTF-8" standalone="no"?>
<!DOCTYPE svg PUBLIC "-//W3C//DTD SVG 1.1//EN"
 "http://www.w3.org/Graphics/SVG/1.1/DTD/svg11.dtd">
<!-- Generated by graphviz version 2.40.1 (20161225.0304)
 -->
<!-- Title: inheritance11bcd72a94 Pages: 1 -->
<svg width="576pt" height="29pt"
 viewBox="0.00 0.00 576.00 29.42" xmlns="http://www.w3.org/2000/svg" xmlns:xlink="http://www.w3.org/1999/xlink">
<g id="graph0" class="graph" transform="scale(.4597 .4597) rotate(0) translate(4 60)">
<title>inheritance11bcd72a94</title>
<polygon fill="#ffffff" stroke="transparent" points="-4,4 -4,-60 1249,-60 1249,4 -4,4"/>
<!-- pyGHDL.dom.DOMMixin -->
<g id="node1" class="node">
<title>pyGHDL.dom.DOMMixin</title>
<g id="a_node1"><a xlink:href="../pyGHDL.dom.html#pyGHDL.dom.DOMMixin" xlink:title="pyGHDL.dom.DOMMixin" target="_top">
<polygon fill="none" stroke="#000000" stroke-width=".5" points="946,-56 812,-56 812,-37 946,-37 946,-56"/>
<text text-anchor="middle" x="879" y="-44" font-family="Vera Sans, DejaVu Sans, Liberation Sans, Arial, Helvetica, sans" font-size="10.00" fill="#000000">pyGHDL.dom.DOMMixin</text>
</a>
</g>
</g>
<!-- pyGHDL.dom.Expression.TypeConversion -->
<g id="node2" class="node">
<title>pyGHDL.dom.Expression.TypeConversion</title>
<g id="a_node2"><a xlink:href="../pyGHDL/pyGHDL.dom.Expression.html#pyGHDL.dom.Expression.TypeConversion" xlink:title="pyGHDL.dom.Expression.TypeConversion" target="_top">
<polygon fill="none" stroke="#000000" stroke-width=".5" points="1245,-37 1027,-37 1027,-18 1245,-18 1245,-37"/>
<text text-anchor="middle" x="1136" y="-25" font-family="Vera Sans, DejaVu Sans, Liberation Sans, Arial, Helvetica, sans" font-size="10.00" fill="#000000">pyGHDL.dom.Expression.TypeConversion</text>
</a>
</g>
</g>
<!-- pyGHDL.dom.DOMMixin&#45;&gt;pyGHDL.dom.Expression.TypeConversion -->
<g id="edge2" class="edge">
<title>pyGHDL.dom.DOMMixin&#45;&gt;pyGHDL.dom.Expression.TypeConversion</title>
<path fill="none" stroke="#000000" stroke-width=".5" d="M946.188,-41.5328C969.3332,-39.8217 995.9447,-37.8543 1021.7769,-35.9445"/>
<polygon fill="#000000" stroke="#000000" stroke-width=".5" points="1022.0744,-37.6774 1026.9317,-35.5634 1021.8163,-34.1869 1022.0744,-37.6774"/>
</g>
<!-- pyVHDLModel.VHDLModel.TypeConversion -->
<g id="node3" class="node">
<title>pyVHDLModel.VHDLModel.TypeConversion</title>
<polygon fill="none" stroke="#000000" stroke-width=".5" points="991,-19 767,-19 767,0 991,0 991,-19"/>
<text text-anchor="middle" x="879" y="-7" font-family="Vera Sans, DejaVu Sans, Liberation Sans, Arial, Helvetica, sans" font-size="10.00" fill="#000000">pyVHDLModel.VHDLModel.TypeConversion</text>
</g>
<!-- pyVHDLModel.VHDLModel.TypeConversion&#45;&gt;pyGHDL.dom.Expression.TypeConversion -->
<g id="edge1" class="edge">
<title>pyVHDLModel.VHDLModel.TypeConversion&#45;&gt;pyGHDL.dom.Expression.TypeConversion</title>
<path fill="none" stroke="#000000" stroke-width=".5" d="M991.3501,-17.3689C1001.3567,-18.0697 1011.4961,-18.7799 1021.5203,-19.482"/>
<polygon fill="#000000" stroke="#000000" stroke-width=".5" points="1021.6404,-21.2446 1026.7505,-19.8483 1021.885,-17.7531 1021.6404,-21.2446"/>
</g>
<!-- pyVHDLModel.VHDLModel.BaseExpression -->
<g id="node4" class="node">
<title>pyVHDLModel.VHDLModel.BaseExpression</title>
<g id="a_node4"><a xlink:title="A ``BaseExpression`` is a base&#45;class for all expressions.">
<polygon fill="none" stroke="#000000" stroke-width=".5" points="465,-19 241,-19 241,0 465,0 465,-19"/>
<text text-anchor="middle" x="353" y="-7" font-family="Vera Sans, DejaVu Sans, Liberation Sans, Arial, Helvetica, sans" font-size="10.00" fill="#000000">pyVHDLModel.VHDLModel.BaseExpression</text>
</a>
</g>
</g>
<!-- pyVHDLModel.VHDLModel.UnaryExpression -->
<g id="node6" class="node">
<title>pyVHDLModel.VHDLModel.UnaryExpression</title>
<g id="a_node6"><a xlink:title="A ``UnaryExpression`` is a base&#45;class for all unary expressions.">
<polygon fill="none" stroke="#000000" stroke-width=".5" points="731,-19 501,-19 501,0 731,0 731,-19"/>
<text text-anchor="middle" x="616" y="-7" font-family="Vera Sans, DejaVu Sans, Liberation Sans, Arial, Helvetica, sans" font-size="10.00" fill="#000000">pyVHDLModel.VHDLModel.UnaryExpression</text>
</a>
</g>
</g>
<!-- pyVHDLModel.VHDLModel.BaseExpression&#45;&gt;pyVHDLModel.VHDLModel.UnaryExpression -->
<g id="edge5" class="edge">
<title>pyVHDLModel.VHDLModel.BaseExpression&#45;&gt;pyVHDLModel.VHDLModel.UnaryExpression</title>
<path fill="none" stroke="#000000" stroke-width=".5" d="M465.2985,-9.5C475.2853,-9.5 485.4231,-9.5 495.4748,-9.5"/>
<polygon fill="#000000" stroke="#000000" stroke-width=".5" points="495.7221,-11.2501 500.7221,-9.5 495.7221,-7.7501 495.7221,-11.2501"/>
</g>
<!-- pyVHDLModel.VHDLModel.ModelEntity -->
<g id="node5" class="node">
<title>pyVHDLModel.VHDLModel.ModelEntity</title>
<g id="a_node5"><a xlink:title="``ModelEntity`` is the base class for all classes in the VHDL language model,">
<polygon fill="none" stroke="#000000" stroke-width=".5" points="205,-19 0,-19 0,0 205,0 205,-19"/>
<text text-anchor="middle" x="102.5" y="-7" font-family="Vera Sans, DejaVu Sans, Liberation Sans, Arial, Helvetica, sans" font-size="10.00" fill="#000000">pyVHDLModel.VHDLModel.ModelEntity</text>
</a>
</g>
</g>
<!-- pyVHDLModel.VHDLModel.ModelEntity&#45;&gt;pyVHDLModel.VHDLModel.BaseExpression -->
<g id="edge3" class="edge">
<title>pyVHDLModel.VHDLModel.ModelEntity&#45;&gt;pyVHDLModel.VHDLModel.BaseExpression</title>
<path fill="none" stroke="#000000" stroke-width=".5" d="M205.1107,-9.5C215.2127,-9.5 225.5179,-9.5 235.7516,-9.5"/>
<polygon fill="#000000" stroke="#000000" stroke-width=".5" points="235.7685,-11.2501 240.7685,-9.5 235.7684,-7.7501 235.7685,-11.2501"/>
</g>
<!-- pyVHDLModel.VHDLModel.UnaryExpression&#45;&gt;pyVHDLModel.VHDLModel.TypeConversion -->
<g id="edge4" class="edge">
<title>pyVHDLModel.VHDLModel.UnaryExpression&#45;&gt;pyVHDLModel.VHDLModel.TypeConversion</title>
<path fill="none" stroke="#000000" stroke-width=".5" d="M731.3556,-9.5C741.3457,-9.5 751.462,-9.5 761.4691,-9.5"/>
<polygon fill="#000000" stroke="#000000" stroke-width=".5" points="761.6911,-11.2501 766.691,-9.5 761.691,-7.7501 761.6911,-11.2501"/>
</g>
</g>
</svg>
