<?xml version="1.0" encoding="UTF-8" standalone="no"?>
<!DOCTYPE svg PUBLIC "-//W3C//DTD SVG 1.1//EN"
 "http://www.w3.org/Graphics/SVG/1.1/DTD/svg11.dtd">
<!-- Generated by graphviz version 2.40.1 (20161225.0304)
 -->
<!-- Title: inheritanceed1c6525ec Pages: 1 -->
<svg width="576pt" height="51pt"
 viewBox="0.00 0.00 576.00 50.57" xmlns="http://www.w3.org/2000/svg" xmlns:xlink="http://www.w3.org/1999/xlink">
<g id="graph0" class="graph" transform="scale(.6167 .6167) rotate(0) translate(4 78)">
<title>inheritanceed1c6525ec</title>
<polygon fill="#ffffff" stroke="transparent" points="-4,4 -4,-78 930,-78 930,4 -4,4"/>
<!-- pyGHDL.dom.DOMMixin -->
<g id="node1" class="node">
<title>pyGHDL.dom.DOMMixin</title>
<g id="a_node1"><a xlink:href="../pyGHDL.dom.html#pyGHDL.dom.DOMMixin" xlink:title="pyGHDL.dom.DOMMixin" target="_top">
<polygon fill="none" stroke="#000000" stroke-width=".5" points="664,-74 530,-74 530,-55 664,-55 664,-74"/>
<text text-anchor="middle" x="597" y="-62" font-family="Vera Sans, DejaVu Sans, Liberation Sans, Arial, Helvetica, sans" font-size="10.00" fill="#000000">pyGHDL.dom.DOMMixin</text>
</a>
</g>
</g>
<!-- pyGHDL.dom.Subprogram.Procedure -->
<g id="node2" class="node">
<title>pyGHDL.dom.Subprogram.Procedure</title>
<g id="a_node2"><a xlink:href="../pyGHDL/pyGHDL.dom.Subprogram.html#pyGHDL.dom.Subprogram.Procedure" xlink:title="pyGHDL.dom.Subprogram.Procedure" target="_top">
<polygon fill="none" stroke="#000000" stroke-width=".5" points="926,-55 731,-55 731,-36 926,-36 926,-55"/>
<text text-anchor="middle" x="828.5" y="-43" font-family="Vera Sans, DejaVu Sans, Liberation Sans, Arial, Helvetica, sans" font-size="10.00" fill="#000000">pyGHDL.dom.Subprogram.Procedure</text>
</a>
</g>
</g>
<!-- pyGHDL.dom.DOMMixin&#45;&gt;pyGHDL.dom.Subprogram.Procedure -->
<g id="edge2" class="edge">
<title>pyGHDL.dom.DOMMixin&#45;&gt;pyGHDL.dom.Subprogram.Procedure</title>
<path fill="none" stroke="#000000" stroke-width=".5" d="M664.2704,-58.9789C683.5504,-57.3965 705.0207,-55.6344 725.9116,-53.9198"/>
<polygon fill="#000000" stroke="#000000" stroke-width=".5" points="726.0833,-55.6617 730.9234,-53.5084 725.797,-52.1734 726.0833,-55.6617"/>
</g>
<!-- pyVHDLModel.VHDLModel.Procedure -->
<g id="node3" class="node">
<title>pyVHDLModel.VHDLModel.Procedure</title>
<polygon fill="none" stroke="#000000" stroke-width=".5" points="695,-37 499,-37 499,-18 695,-18 695,-37"/>
<text text-anchor="middle" x="597" y="-25" font-family="Vera Sans, DejaVu Sans, Liberation Sans, Arial, Helvetica, sans" font-size="10.00" fill="#000000">pyVHDLModel.VHDLModel.Procedure</text>
</g>
<!-- pyVHDLModel.VHDLModel.Procedure&#45;&gt;pyGHDL.dom.Subprogram.Procedure -->
<g id="edge1" class="edge">
<title>pyVHDLModel.VHDLModel.Procedure&#45;&gt;pyGHDL.dom.Subprogram.Procedure</title>
<path fill="none" stroke="#000000" stroke-width=".5" d="M695.1768,-35.1336C705.3436,-35.9241 715.6955,-36.729 725.9089,-37.5232"/>
<polygon fill="#000000" stroke="#000000" stroke-width=".5" points="725.7896,-39.2691 730.9103,-37.912 726.061,-35.7796 725.7896,-39.2691"/>
</g>
<!-- pyVHDLModel.VHDLModel.ModelEntity -->
<g id="node4" class="node">
<title>pyVHDLModel.VHDLModel.ModelEntity</title>
<g id="a_node4"><a xlink:title="``ModelEntity`` is the base class for all classes in the VHDL language model,">
<polygon fill="none" stroke="#000000" stroke-width=".5" points="208,-56 3,-56 3,-37 208,-37 208,-56"/>
<text text-anchor="middle" x="105.5" y="-44" font-family="Vera Sans, DejaVu Sans, Liberation Sans, Arial, Helvetica, sans" font-size="10.00" fill="#000000">pyVHDLModel.VHDLModel.ModelEntity</text>
</a>
</g>
</g>
<!-- pyVHDLModel.VHDLModel.SubProgramm -->
<g id="node6" class="node">
<title>pyVHDLModel.VHDLModel.SubProgramm</title>
<polygon fill="none" stroke="#000000" stroke-width=".5" points="463,-37 247,-37 247,-18 463,-18 463,-37"/>
<text text-anchor="middle" x="355" y="-25" font-family="Vera Sans, DejaVu Sans, Liberation Sans, Arial, Helvetica, sans" font-size="10.00" fill="#000000">pyVHDLModel.VHDLModel.SubProgramm</text>
</g>
<!-- pyVHDLModel.VHDLModel.ModelEntity&#45;&gt;pyVHDLModel.VHDLModel.SubProgramm -->
<g id="edge4" class="edge">
<title>pyVHDLModel.VHDLModel.ModelEntity&#45;&gt;pyVHDLModel.VHDLModel.SubProgramm</title>
<path fill="none" stroke="#000000" stroke-width=".5" d="M208.0613,-38.6897C219.134,-37.8465 230.4476,-36.9849 241.6381,-36.1328"/>
<polygon fill="#000000" stroke="#000000" stroke-width=".5" points="241.917,-37.8667 246.7696,-35.742 241.6512,-34.3768 241.917,-37.8667"/>
</g>
<!-- pyVHDLModel.VHDLModel.NamedEntity -->
<g id="node5" class="node">
<title>pyVHDLModel.VHDLModel.NamedEntity</title>
<g id="a_node5"><a xlink:title="A ``NamedEntity`` is a mixin class for all VHDL entities that have identifiers.">
<polygon fill="none" stroke="#000000" stroke-width=".5" points="211,-19 0,-19 0,0 211,0 211,-19"/>
<text text-anchor="middle" x="105.5" y="-7" font-family="Vera Sans, DejaVu Sans, Liberation Sans, Arial, Helvetica, sans" font-size="10.00" fill="#000000">pyVHDLModel.VHDLModel.NamedEntity</text>
</a>
</g>
</g>
<!-- pyVHDLModel.VHDLModel.NamedEntity&#45;&gt;pyVHDLModel.VHDLModel.SubProgramm -->
<g id="edge5" class="edge">
<title>pyVHDLModel.VHDLModel.NamedEntity&#45;&gt;pyVHDLModel.VHDLModel.SubProgramm</title>
<path fill="none" stroke="#000000" stroke-width=".5" d="M211.3105,-17.1336C221.2633,-17.8517 231.3808,-18.5816 241.4015,-19.3045"/>
<polygon fill="#000000" stroke="#000000" stroke-width=".5" points="241.5185,-21.0674 246.6315,-19.6818 241.7704,-17.5765 241.5185,-21.0674"/>
</g>
<!-- pyVHDLModel.VHDLModel.SubProgramm&#45;&gt;pyVHDLModel.VHDLModel.Procedure -->
<g id="edge3" class="edge">
<title>pyVHDLModel.VHDLModel.SubProgramm&#45;&gt;pyVHDLModel.VHDLModel.Procedure</title>
<path fill="none" stroke="#000000" stroke-width=".5" d="M463.2593,-27.5C473.333,-27.5 483.5258,-27.5 493.5542,-27.5"/>
<polygon fill="#000000" stroke="#000000" stroke-width=".5" points="493.782,-29.2501 498.7819,-27.5 493.7819,-25.7501 493.782,-29.2501"/>
</g>
</g>
</svg>
