<?xml version="1.0" encoding="UTF-8" standalone="no"?>
<!DOCTYPE svg PUBLIC "-//W3C//DTD SVG 1.1//EN"
 "http://www.w3.org/Graphics/SVG/1.1/DTD/svg11.dtd">
<!-- Generated by graphviz version 2.40.1 (20161225.0304)
 -->
<!-- Title: inheritancebf619089f9 Pages: 1 -->
<svg width="576pt" height="41pt"
 viewBox="0.00 0.00 576.00 41.04" xmlns="http://www.w3.org/2000/svg" xmlns:xlink="http://www.w3.org/1999/xlink">
<g id="graph0" class="graph" transform="scale(.4944 .4944) rotate(0) translate(4 79)">
<title>inheritancebf619089f9</title>
<polygon fill="#ffffff" stroke="transparent" points="-4,4 -4,-79 1161,-79 1161,4 -4,4"/>
<!-- pyGHDL.dom.DOMMixin -->
<g id="node1" class="node">
<title>pyGHDL.dom.DOMMixin</title>
<g id="a_node1"><a xlink:href="../pyGHDL.dom.html#pyGHDL.dom.DOMMixin" xlink:title="pyGHDL.dom.DOMMixin" target="_top">
<polygon fill="none" stroke="#000000" stroke-width=".5" points="930.5,-74 796.5,-74 796.5,-55 930.5,-55 930.5,-74"/>
<text text-anchor="middle" x="863.5" y="-62" font-family="Vera Sans, DejaVu Sans, Liberation Sans, Arial, Helvetica, sans" font-size="10.00" fill="#000000">pyGHDL.dom.DOMMixin</text>
</a>
</g>
</g>
<!-- pyGHDL.dom.Object.Constant -->
<g id="node2" class="node">
<title>pyGHDL.dom.Object.Constant</title>
<g id="a_node2"><a xlink:href="../pyGHDL/pyGHDL.dom.Object.html#pyGHDL.dom.Object.Constant" xlink:title="pyGHDL.dom.Object.Constant" target="_top">
<polygon fill="none" stroke="#000000" stroke-width=".5" points="1157,-55 995,-55 995,-36 1157,-36 1157,-55"/>
<text text-anchor="middle" x="1076" y="-43" font-family="Vera Sans, DejaVu Sans, Liberation Sans, Arial, Helvetica, sans" font-size="10.00" fill="#000000">pyGHDL.dom.Object.Constant</text>
</a>
</g>
</g>
<!-- pyGHDL.dom.DOMMixin&#45;&gt;pyGHDL.dom.Object.Constant -->
<g id="edge2" class="edge">
<title>pyGHDL.dom.DOMMixin&#45;&gt;pyGHDL.dom.Object.Constant</title>
<path fill="none" stroke="#000000" stroke-width=".5" d="M930.7363,-58.4883C949.2974,-56.8287 969.703,-55.0042 989.2035,-53.2606"/>
<polygon fill="#000000" stroke="#000000" stroke-width=".5" points="989.8531,-54.9596 994.6774,-52.7712 989.5414,-51.4735 989.8531,-54.9596"/>
</g>
<!-- pyVHDLModel.VHDLModel.Constant -->
<g id="node3" class="node">
<title>pyVHDLModel.VHDLModel.Constant</title>
<polygon fill="none" stroke="#000000" stroke-width=".5" points="959,-37 768,-37 768,-18 959,-18 959,-37"/>
<text text-anchor="middle" x="863.5" y="-25" font-family="Vera Sans, DejaVu Sans, Liberation Sans, Arial, Helvetica, sans" font-size="10.00" fill="#000000">pyVHDLModel.VHDLModel.Constant</text>
</g>
<!-- pyVHDLModel.VHDLModel.Constant&#45;&gt;pyGHDL.dom.Object.Constant -->
<g id="edge1" class="edge">
<title>pyVHDLModel.VHDLModel.Constant&#45;&gt;pyGHDL.dom.Object.Constant</title>
<path fill="none" stroke="#000000" stroke-width=".5" d="M959.1821,-35.6048C969.3135,-36.463 979.5745,-37.3322 989.5914,-38.1807"/>
<polygon fill="#000000" stroke="#000000" stroke-width=".5" points="989.6755,-39.944 994.8054,-38.6223 989.971,-36.4565 989.6755,-39.944"/>
</g>
<!-- pyVHDLModel.VHDLModel.BaseConstant -->
<g id="node4" class="node">
<title>pyVHDLModel.VHDLModel.BaseConstant</title>
<polygon fill="none" stroke="#000000" stroke-width=".5" points="697,-56 482,-56 482,-37 697,-37 697,-56"/>
<text text-anchor="middle" x="589.5" y="-44" font-family="Vera Sans, DejaVu Sans, Liberation Sans, Arial, Helvetica, sans" font-size="10.00" fill="#000000">pyVHDLModel.VHDLModel.BaseConstant</text>
</g>
<!-- pyVHDLModel.VHDLModel.BaseConstant&#45;&gt;pyVHDLModel.VHDLModel.Constant -->
<g id="edge4" class="edge">
<title>pyVHDLModel.VHDLModel.BaseConstant&#45;&gt;pyVHDLModel.VHDLModel.Constant</title>
<path fill="none" stroke="#000000" stroke-width=".5" d="M697.0056,-39.0452C718.6584,-37.5438 741.343,-35.9707 762.7546,-34.486"/>
<polygon fill="#000000" stroke="#000000" stroke-width=".5" points="763.0116,-36.2225 767.8785,-34.1307 762.7694,-32.7309 763.0116,-36.2225"/>
</g>
<!-- pyVHDLModel.VHDLModel.Obj -->
<g id="node5" class="node">
<title>pyVHDLModel.VHDLModel.Obj</title>
<polygon fill="none" stroke="#000000" stroke-width=".5" points="411,-56 247,-56 247,-37 411,-37 411,-56"/>
<text text-anchor="middle" x="329" y="-44" font-family="Vera Sans, DejaVu Sans, Liberation Sans, Arial, Helvetica, sans" font-size="10.00" fill="#000000">pyVHDLModel.VHDLModel.Obj</text>
</g>
<!-- pyVHDLModel.VHDLModel.Obj&#45;&gt;pyVHDLModel.VHDLModel.BaseConstant -->
<g id="edge3" class="edge">
<title>pyVHDLModel.VHDLModel.Obj&#45;&gt;pyVHDLModel.VHDLModel.BaseConstant</title>
<path fill="none" stroke="#000000" stroke-width=".5" d="M411.0663,-46.5C431.7764,-46.5 454.3784,-46.5 476.3226,-46.5"/>
<polygon fill="#000000" stroke="#000000" stroke-width=".5" points="476.5863,-48.2501 481.5863,-46.5 476.5863,-44.7501 476.5863,-48.2501"/>
</g>
<!-- pyVHDLModel.VHDLModel.WithDefaultExpressionMixin -->
<g id="node6" class="node">
<title>pyVHDLModel.VHDLModel.WithDefaultExpressionMixin</title>
<g id="a_node6"><a xlink:title="A ``WithDefaultExpression`` is a mixin class for all objects declarations">
<polygon fill="none" stroke="#000000" stroke-width=".5" points="732,-19 447,-19 447,0 732,0 732,-19"/>
<text text-anchor="middle" x="589.5" y="-7" font-family="Vera Sans, DejaVu Sans, Liberation Sans, Arial, Helvetica, sans" font-size="10.00" fill="#000000">pyVHDLModel.VHDLModel.WithDefaultExpressionMixin</text>
</a>
</g>
</g>
<!-- pyVHDLModel.VHDLModel.WithDefaultExpressionMixin&#45;&gt;pyVHDLModel.VHDLModel.Constant -->
<g id="edge5" class="edge">
<title>pyVHDLModel.VHDLModel.WithDefaultExpressionMixin&#45;&gt;pyVHDLModel.VHDLModel.Constant</title>
<path fill="none" stroke="#000000" stroke-width=".5" d="M732.1177,-18.869C742.4158,-19.5456 752.6714,-20.2193 762.6514,-20.8749"/>
<polygon fill="#000000" stroke="#000000" stroke-width=".5" points="762.7399,-22.6344 767.8439,-21.216 762.9694,-19.1419 762.7399,-22.6344"/>
</g>
<!-- pyVHDLModel.VHDLModel.ModelEntity -->
<g id="node7" class="node">
<title>pyVHDLModel.VHDLModel.ModelEntity</title>
<g id="a_node7"><a xlink:title="``ModelEntity`` is the base class for all classes in the VHDL language model,">
<polygon fill="none" stroke="#000000" stroke-width=".5" points="208,-75 3,-75 3,-56 208,-56 208,-75"/>
<text text-anchor="middle" x="105.5" y="-63" font-family="Vera Sans, DejaVu Sans, Liberation Sans, Arial, Helvetica, sans" font-size="10.00" fill="#000000">pyVHDLModel.VHDLModel.ModelEntity</text>
</a>
</g>
</g>
<!-- pyVHDLModel.VHDLModel.ModelEntity&#45;&gt;pyVHDLModel.VHDLModel.Obj -->
<g id="edge6" class="edge">
<title>pyVHDLModel.VHDLModel.ModelEntity&#45;&gt;pyVHDLModel.VHDLModel.Obj</title>
<path fill="none" stroke="#000000" stroke-width=".5" d="M208.0921,-56.7785C219.3372,-55.8226 230.7068,-54.856 241.7413,-53.918"/>
<polygon fill="#000000" stroke="#000000" stroke-width=".5" points="241.9522,-55.6564 246.786,-53.4891 241.6557,-52.169 241.9522,-55.6564"/>
</g>
<!-- pyVHDLModel.VHDLModel.NamedEntity -->
<g id="node8" class="node">
<title>pyVHDLModel.VHDLModel.NamedEntity</title>
<g id="a_node8"><a xlink:title="A ``NamedEntity`` is a mixin class for all VHDL entities that have identifiers.">
<polygon fill="none" stroke="#000000" stroke-width=".5" points="211,-38 0,-38 0,-19 211,-19 211,-38"/>
<text text-anchor="middle" x="105.5" y="-26" font-family="Vera Sans, DejaVu Sans, Liberation Sans, Arial, Helvetica, sans" font-size="10.00" fill="#000000">pyVHDLModel.VHDLModel.NamedEntity</text>
</a>
</g>
</g>
<!-- pyVHDLModel.VHDLModel.NamedEntity&#45;&gt;pyVHDLModel.VHDLModel.Obj -->
<g id="edge7" class="edge">
<title>pyVHDLModel.VHDLModel.NamedEntity&#45;&gt;pyVHDLModel.VHDLModel.Obj</title>
<path fill="none" stroke="#000000" stroke-width=".5" d="M211.0324,-36.9993C221.2346,-37.8209 231.5062,-38.6482 241.5056,-39.4535"/>
<polygon fill="#000000" stroke="#000000" stroke-width=".5" points="241.5836,-41.2153 246.708,-39.8725 241.8646,-37.7266 241.5836,-41.2153"/>
</g>
</g>
</svg>
