<?xml version="1.0" encoding="UTF-8" standalone="no"?>
<!DOCTYPE svg PUBLIC "-//W3C//DTD SVG 1.1//EN"
 "http://www.w3.org/Graphics/SVG/1.1/DTD/svg11.dtd">
<!-- Generated by graphviz version 2.40.1 (20161225.0304)
 -->
<!-- Title: inheritancec4822c4574 Pages: 1 -->
<svg width="576pt" height="56pt"
 viewBox="0.00 0.00 576.00 55.77" xmlns="http://www.w3.org/2000/svg" xmlns:xlink="http://www.w3.org/1999/xlink">
<g id="graph0" class="graph" transform="scale(.8714 .8714) rotate(0) translate(4 60)">
<title>inheritancec4822c4574</title>
<polygon fill="#ffffff" stroke="transparent" points="-4,4 -4,-60 657,-60 657,4 -4,4"/>
<!-- pyGHDL.dom.DOMMixin -->
<g id="node1" class="node">
<title>pyGHDL.dom.DOMMixin</title>
<g id="a_node1"><a xlink:href="../pyGHDL.dom.html#pyGHDL.dom.DOMMixin" xlink:title="pyGHDL.dom.DOMMixin" target="_top">
<polygon fill="none" stroke="#000000" stroke-width=".5" points="386.5,-56 252.5,-56 252.5,-37 386.5,-37 386.5,-56"/>
<text text-anchor="middle" x="319.5" y="-44" font-family="Vera Sans, DejaVu Sans, Liberation Sans, Arial, Helvetica, sans" font-size="10.00" fill="#000000">pyGHDL.dom.DOMMixin</text>
</a>
</g>
</g>
<!-- pyGHDL.dom.Names.IndexedName -->
<g id="node2" class="node">
<title>pyGHDL.dom.Names.IndexedName</title>
<g id="a_node2"><a xlink:href="../pyGHDL/pyGHDL.dom.Names.html#pyGHDL.dom.Names.IndexedName" xlink:title="pyGHDL.dom.Names.IndexedName" target="_top">
<polygon fill="none" stroke="#000000" stroke-width=".5" points="653,-37 463,-37 463,-18 653,-18 653,-37"/>
<text text-anchor="middle" x="558" y="-25" font-family="Vera Sans, DejaVu Sans, Liberation Sans, Arial, Helvetica, sans" font-size="10.00" fill="#000000">pyGHDL.dom.Names.IndexedName</text>
</a>
</g>
</g>
<!-- pyGHDL.dom.DOMMixin&#45;&gt;pyGHDL.dom.Names.IndexedName -->
<g id="edge2" class="edge">
<title>pyGHDL.dom.DOMMixin&#45;&gt;pyGHDL.dom.Names.IndexedName</title>
<path fill="none" stroke="#000000" stroke-width=".5" d="M386.5702,-41.1569C408.6944,-39.3944 433.8034,-37.3941 457.8487,-35.4785"/>
<polygon fill="#000000" stroke="#000000" stroke-width=".5" points="458.1169,-37.2128 462.9621,-35.0712 457.8389,-33.7238 458.1169,-37.2128"/>
</g>
<!-- pyVHDLModel.VHDLModel.IndexedName -->
<g id="node3" class="node">
<title>pyVHDLModel.VHDLModel.IndexedName</title>
<polygon fill="none" stroke="#000000" stroke-width=".5" points="427,-19 212,-19 212,0 427,0 427,-19"/>
<text text-anchor="middle" x="319.5" y="-7" font-family="Vera Sans, DejaVu Sans, Liberation Sans, Arial, Helvetica, sans" font-size="10.00" fill="#000000">pyVHDLModel.VHDLModel.IndexedName</text>
</g>
<!-- pyVHDLModel.VHDLModel.IndexedName&#45;&gt;pyGHDL.dom.Names.IndexedName -->
<g id="edge1" class="edge">
<title>pyVHDLModel.VHDLModel.IndexedName&#45;&gt;pyGHDL.dom.Names.IndexedName</title>
<path fill="none" stroke="#000000" stroke-width=".5" d="M427.2369,-17.6311C437.3286,-18.3927 447.5313,-19.1627 457.5523,-19.919"/>
<polygon fill="#000000" stroke="#000000" stroke-width=".5" points="457.657,-21.6818 462.7746,-20.3132 457.9205,-18.1918 457.657,-21.6818"/>
</g>
<!-- pyVHDLModel.VHDLModel.Name -->
<g id="node4" class="node">
<title>pyVHDLModel.VHDLModel.Name</title>
<g id="a_node4"><a xlink:title="``Name`` is the base class for all *names* in the VHDL language model.">
<polygon fill="none" stroke="#000000" stroke-width=".5" points="176,-19 0,-19 0,0 176,0 176,-19"/>
<text text-anchor="middle" x="88" y="-7" font-family="Vera Sans, DejaVu Sans, Liberation Sans, Arial, Helvetica, sans" font-size="10.00" fill="#000000">pyVHDLModel.VHDLModel.Name</text>
</a>
</g>
</g>
<!-- pyVHDLModel.VHDLModel.Name&#45;&gt;pyVHDLModel.VHDLModel.IndexedName -->
<g id="edge3" class="edge">
<title>pyVHDLModel.VHDLModel.Name&#45;&gt;pyVHDLModel.VHDLModel.IndexedName</title>
<path fill="none" stroke="#000000" stroke-width=".5" d="M176.1806,-9.5C186.1732,-9.5 196.4568,-9.5 206.7094,-9.5"/>
<polygon fill="#000000" stroke="#000000" stroke-width=".5" points="206.7387,-11.2501 211.7386,-9.5 206.7386,-7.7501 206.7387,-11.2501"/>
</g>
</g>
</svg>
