<?xml version="1.0" encoding="UTF-8" standalone="no"?>
<!DOCTYPE svg PUBLIC "-//W3C//DTD SVG 1.1//EN"
 "http://www.w3.org/Graphics/SVG/1.1/DTD/svg11.dtd">
<!-- Generated by graphviz version 2.40.1 (20161225.0304)
 -->
<!-- Title: inheritanceeaf4de61db Pages: 1 -->
<svg width="576pt" height="25pt"
 viewBox="0.00 0.00 576.00 24.56" xmlns="http://www.w3.org/2000/svg" xmlns:xlink="http://www.w3.org/1999/xlink">
<g id="graph0" class="graph" transform="scale(.3837 .3837) rotate(0) translate(4 60)">
<title>inheritanceeaf4de61db</title>
<polygon fill="#ffffff" stroke="transparent" points="-4,4 -4,-60 1497,-60 1497,4 -4,4"/>
<!-- pyGHDL.dom.DOMMixin -->
<g id="node1" class="node">
<title>pyGHDL.dom.DOMMixin</title>
<g id="a_node1"><a xlink:href="../pyGHDL.dom.html#pyGHDL.dom.DOMMixin" xlink:title="pyGHDL.dom.DOMMixin" target="_top">
<polygon fill="none" stroke="#000000" stroke-width=".5" points="1213,-56 1079,-56 1079,-37 1213,-37 1213,-56"/>
<text text-anchor="middle" x="1146" y="-44" font-family="Vera Sans, DejaVu Sans, Liberation Sans, Arial, Helvetica, sans" font-size="10.00" fill="#000000">pyGHDL.dom.DOMMixin</text>
</a>
</g>
</g>
<!-- pyGHDL.dom.Expression.OrExpression -->
<g id="node2" class="node">
<title>pyGHDL.dom.Expression.OrExpression</title>
<g id="a_node2"><a xlink:href="../pyGHDL/pyGHDL.dom.Expression.html#pyGHDL.dom.Expression.OrExpression" xlink:title="pyGHDL.dom.Expression.OrExpression" target="_top">
<polygon fill="none" stroke="#000000" stroke-width=".5" points="1493,-37 1288,-37 1288,-18 1493,-18 1493,-37"/>
<text text-anchor="middle" x="1390.5" y="-25" font-family="Vera Sans, DejaVu Sans, Liberation Sans, Arial, Helvetica, sans" font-size="10.00" fill="#000000">pyGHDL.dom.Expression.OrExpression</text>
</a>
</g>
</g>
<!-- pyGHDL.dom.DOMMixin&#45;&gt;pyGHDL.dom.Expression.OrExpression -->
<g id="edge2" class="edge">
<title>pyGHDL.dom.DOMMixin&#45;&gt;pyGHDL.dom.Expression.OrExpression</title>
<path fill="none" stroke="#000000" stroke-width=".5" d="M1213.1341,-41.283C1234.6473,-39.6113 1259.0405,-37.7157 1282.7013,-35.877"/>
<polygon fill="#000000" stroke="#000000" stroke-width=".5" points="1282.8885,-37.6178 1287.7379,-35.4856 1282.6173,-34.1283 1282.8885,-37.6178"/>
</g>
<!-- pyVHDLModel.VHDLModel.OrExpression -->
<g id="node3" class="node">
<title>pyVHDLModel.VHDLModel.OrExpression</title>
<polygon fill="none" stroke="#000000" stroke-width=".5" points="1252,-19 1040,-19 1040,0 1252,0 1252,-19"/>
<text text-anchor="middle" x="1146" y="-7" font-family="Vera Sans, DejaVu Sans, Liberation Sans, Arial, Helvetica, sans" font-size="10.00" fill="#000000">pyVHDLModel.VHDLModel.OrExpression</text>
</g>
<!-- pyVHDLModel.VHDLModel.OrExpression&#45;&gt;pyGHDL.dom.Expression.OrExpression -->
<g id="edge1" class="edge">
<title>pyVHDLModel.VHDLModel.OrExpression&#45;&gt;pyGHDL.dom.Expression.OrExpression</title>
<path fill="none" stroke="#000000" stroke-width=".5" d="M1252.1746,-17.3165C1262.3637,-18.0667 1272.7044,-18.8279 1282.907,-19.579"/>
<polygon fill="#000000" stroke="#000000" stroke-width=".5" points="1282.7881,-21.3249 1287.9031,-19.9469 1283.0452,-17.8344 1282.7881,-21.3249"/>
</g>
<!-- pyVHDLModel.VHDLModel.BaseExpression -->
<g id="node4" class="node">
<title>pyVHDLModel.VHDLModel.BaseExpression</title>
<g id="a_node4"><a xlink:title="A ``BaseExpression`` is a base&#45;class for all expressions.">
<polygon fill="none" stroke="#000000" stroke-width=".5" points="465,-19 241,-19 241,0 465,0 465,-19"/>
<text text-anchor="middle" x="353" y="-7" font-family="Vera Sans, DejaVu Sans, Liberation Sans, Arial, Helvetica, sans" font-size="10.00" fill="#000000">pyVHDLModel.VHDLModel.BaseExpression</text>
</a>
</g>
</g>
<!-- pyVHDLModel.VHDLModel.BinaryExpression -->
<g id="node6" class="node">
<title>pyVHDLModel.VHDLModel.BinaryExpression</title>
<g id="a_node6"><a xlink:title="A ``BinaryExpression`` is a base&#45;class for all binary expressions.">
<polygon fill="none" stroke="#000000" stroke-width=".5" points="733,-19 501,-19 501,0 733,0 733,-19"/>
<text text-anchor="middle" x="617" y="-7" font-family="Vera Sans, DejaVu Sans, Liberation Sans, Arial, Helvetica, sans" font-size="10.00" fill="#000000">pyVHDLModel.VHDLModel.BinaryExpression</text>
</a>
</g>
</g>
<!-- pyVHDLModel.VHDLModel.BaseExpression&#45;&gt;pyVHDLModel.VHDLModel.BinaryExpression -->
<g id="edge4" class="edge">
<title>pyVHDLModel.VHDLModel.BaseExpression&#45;&gt;pyVHDLModel.VHDLModel.BinaryExpression</title>
<path fill="none" stroke="#000000" stroke-width=".5" d="M465.3426,-9.5C475.3813,-9.5 485.5751,-9.5 495.6849,-9.5"/>
<polygon fill="#000000" stroke="#000000" stroke-width=".5" points="495.9627,-11.2501 500.9627,-9.5 495.9626,-7.7501 495.9627,-11.2501"/>
</g>
<!-- pyVHDLModel.VHDLModel.ModelEntity -->
<g id="node5" class="node">
<title>pyVHDLModel.VHDLModel.ModelEntity</title>
<g id="a_node5"><a xlink:title="``ModelEntity`` is the base class for all classes in the VHDL language model,">
<polygon fill="none" stroke="#000000" stroke-width=".5" points="205,-19 0,-19 0,0 205,0 205,-19"/>
<text text-anchor="middle" x="102.5" y="-7" font-family="Vera Sans, DejaVu Sans, Liberation Sans, Arial, Helvetica, sans" font-size="10.00" fill="#000000">pyVHDLModel.VHDLModel.ModelEntity</text>
</a>
</g>
</g>
<!-- pyVHDLModel.VHDLModel.ModelEntity&#45;&gt;pyVHDLModel.VHDLModel.BaseExpression -->
<g id="edge3" class="edge">
<title>pyVHDLModel.VHDLModel.ModelEntity&#45;&gt;pyVHDLModel.VHDLModel.BaseExpression</title>
<path fill="none" stroke="#000000" stroke-width=".5" d="M205.1107,-9.5C215.2127,-9.5 225.5179,-9.5 235.7516,-9.5"/>
<polygon fill="#000000" stroke="#000000" stroke-width=".5" points="235.7685,-11.2501 240.7685,-9.5 235.7684,-7.7501 235.7685,-11.2501"/>
</g>
<!-- pyVHDLModel.VHDLModel.LogicalExpression -->
<g id="node7" class="node">
<title>pyVHDLModel.VHDLModel.LogicalExpression</title>
<g id="a_node7"><a xlink:title="A ``LogicalExpression`` is a base&#45;class for all logical expressions.">
<polygon fill="none" stroke="#000000" stroke-width=".5" points="1004,-19 769,-19 769,0 1004,0 1004,-19"/>
<text text-anchor="middle" x="886.5" y="-7" font-family="Vera Sans, DejaVu Sans, Liberation Sans, Arial, Helvetica, sans" font-size="10.00" fill="#000000">pyVHDLModel.VHDLModel.LogicalExpression</text>
</a>
</g>
</g>
<!-- pyVHDLModel.VHDLModel.BinaryExpression&#45;&gt;pyVHDLModel.VHDLModel.LogicalExpression -->
<g id="edge5" class="edge">
<title>pyVHDLModel.VHDLModel.BinaryExpression&#45;&gt;pyVHDLModel.VHDLModel.LogicalExpression</title>
<path fill="none" stroke="#000000" stroke-width=".5" d="M733.2477,-9.5C743.4091,-9.5 753.7137,-9.5 763.9242,-9.5"/>
<polygon fill="#000000" stroke="#000000" stroke-width=".5" points="763.9281,-11.2501 768.9281,-9.5 763.9281,-7.7501 763.9281,-11.2501"/>
</g>
<!-- pyVHDLModel.VHDLModel.LogicalExpression&#45;&gt;pyVHDLModel.VHDLModel.OrExpression -->
<g id="edge6" class="edge">
<title>pyVHDLModel.VHDLModel.LogicalExpression&#45;&gt;pyVHDLModel.VHDLModel.OrExpression</title>
<path fill="none" stroke="#000000" stroke-width=".5" d="M1004.1018,-9.5C1014.2653,-9.5 1024.5291,-9.5 1034.6408,-9.5"/>
<polygon fill="#000000" stroke="#000000" stroke-width=".5" points="1034.9134,-11.2501 1039.9133,-9.5 1034.9133,-7.7501 1034.9134,-11.2501"/>
</g>
</g>
</svg>
