<?xml version="1.0" encoding="UTF-8" standalone="no"?>
<!DOCTYPE svg PUBLIC "-//W3C//DTD SVG 1.1//EN"
 "http://www.w3.org/Graphics/SVG/1.1/DTD/svg11.dtd">
<!-- Generated by graphviz version 2.40.1 (20161225.0304)
 -->
<!-- Title: inheritance82d6da457a Pages: 1 -->
<svg width="576pt" height="35pt"
 viewBox="0.00 0.00 576.00 34.86" xmlns="http://www.w3.org/2000/svg" xmlns:xlink="http://www.w3.org/1999/xlink">
<g id="graph0" class="graph" transform="scale(.4251 .4251) rotate(0) translate(4 78)">
<title>inheritance82d6da457a</title>
<polygon fill="#ffffff" stroke="transparent" points="-4,4 -4,-78 1351,-78 1351,4 -4,4"/>
<!-- pyGHDL.dom.DOMMixin -->
<g id="node1" class="node">
<title>pyGHDL.dom.DOMMixin</title>
<g id="a_node1"><a xlink:href="../pyGHDL.dom.html#pyGHDL.dom.DOMMixin" xlink:title="pyGHDL.dom.DOMMixin" target="_top">
<polygon fill="none" stroke="#000000" stroke-width=".5" points="1122,-74 988,-74 988,-55 1122,-55 1122,-74"/>
<text text-anchor="middle" x="1055" y="-62" font-family="Vera Sans, DejaVu Sans, Liberation Sans, Arial, Helvetica, sans" font-size="10.00" fill="#000000">pyGHDL.dom.DOMMixin</text>
</a>
</g>
</g>
<!-- pyGHDL.dom.Type.ArrayType -->
<g id="node2" class="node">
<title>pyGHDL.dom.Type.ArrayType</title>
<g id="a_node2"><a xlink:href="../pyGHDL/pyGHDL.dom.Type.html#pyGHDL.dom.Type.ArrayType" xlink:title="pyGHDL.dom.Type.ArrayType" target="_top">
<polygon fill="none" stroke="#000000" stroke-width=".5" points="1347,-55 1189,-55 1189,-36 1347,-36 1347,-55"/>
<text text-anchor="middle" x="1268" y="-43" font-family="Vera Sans, DejaVu Sans, Liberation Sans, Arial, Helvetica, sans" font-size="10.00" fill="#000000">pyGHDL.dom.Type.ArrayType</text>
</a>
</g>
</g>
<!-- pyGHDL.dom.DOMMixin&#45;&gt;pyGHDL.dom.Type.ArrayType -->
<g id="edge2" class="edge">
<title>pyGHDL.dom.DOMMixin&#45;&gt;pyGHDL.dom.Type.ArrayType</title>
<path fill="none" stroke="#000000" stroke-width=".5" d="M1122.1022,-58.5144C1141.6625,-56.7695 1163.2868,-54.8406 1183.762,-53.0142"/>
<polygon fill="#000000" stroke="#000000" stroke-width=".5" points="1184.1162,-54.7396 1188.9409,-52.5522 1183.8051,-51.2535 1184.1162,-54.7396"/>
</g>
<!-- pyVHDLModel.VHDLModel.ArrayType -->
<g id="node3" class="node">
<title>pyVHDLModel.VHDLModel.ArrayType</title>
<polygon fill="none" stroke="#000000" stroke-width=".5" points="1153,-37 957,-37 957,-18 1153,-18 1153,-37"/>
<text text-anchor="middle" x="1055" y="-25" font-family="Vera Sans, DejaVu Sans, Liberation Sans, Arial, Helvetica, sans" font-size="10.00" fill="#000000">pyVHDLModel.VHDLModel.ArrayType</text>
</g>
<!-- pyVHDLModel.VHDLModel.ArrayType&#45;&gt;pyGHDL.dom.Type.ArrayType -->
<g id="edge1" class="edge">
<title>pyVHDLModel.VHDLModel.ArrayType&#45;&gt;pyGHDL.dom.Type.ArrayType</title>
<path fill="none" stroke="#000000" stroke-width=".5" d="M1153.0835,-35.7887C1163.311,-36.653 1173.6426,-37.5261 1183.698,-38.3759"/>
<polygon fill="#000000" stroke="#000000" stroke-width=".5" points="1183.7994,-40.1406 1188.9291,-38.8179 1184.0942,-36.653 1183.7994,-40.1406"/>
</g>
<!-- pyVHDLModel.VHDLModel.CompositeType -->
<g id="node4" class="node">
<title>pyVHDLModel.VHDLModel.CompositeType</title>
<g id="a_node4"><a xlink:title="A ``CompositeType`` is a base&#45;class for all composite types.">
<polygon fill="none" stroke="#000000" stroke-width=".5" points="921,-37 699,-37 699,-18 921,-18 921,-37"/>
<text text-anchor="middle" x="810" y="-25" font-family="Vera Sans, DejaVu Sans, Liberation Sans, Arial, Helvetica, sans" font-size="10.00" fill="#000000">pyVHDLModel.VHDLModel.CompositeType</text>
</a>
</g>
</g>
<!-- pyVHDLModel.VHDLModel.CompositeType&#45;&gt;pyVHDLModel.VHDLModel.ArrayType -->
<g id="edge3" class="edge">
<title>pyVHDLModel.VHDLModel.CompositeType&#45;&gt;pyVHDLModel.VHDLModel.ArrayType</title>
<path fill="none" stroke="#000000" stroke-width=".5" d="M921.0306,-27.5C931.1652,-27.5 941.4056,-27.5 951.4707,-27.5"/>
<polygon fill="#000000" stroke="#000000" stroke-width=".5" points="951.7168,-29.2501 956.7167,-27.5 951.7167,-25.7501 951.7168,-29.2501"/>
</g>
<!-- pyVHDLModel.VHDLModel.BaseType -->
<g id="node5" class="node">
<title>pyVHDLModel.VHDLModel.BaseType</title>
<g id="a_node5"><a xlink:title="``BaseType`` is the base class of all type entities in this model.">
<polygon fill="none" stroke="#000000" stroke-width=".5" points="441,-37 247,-37 247,-18 441,-18 441,-37"/>
<text text-anchor="middle" x="344" y="-25" font-family="Vera Sans, DejaVu Sans, Liberation Sans, Arial, Helvetica, sans" font-size="10.00" fill="#000000">pyVHDLModel.VHDLModel.BaseType</text>
</a>
</g>
</g>
<!-- pyVHDLModel.VHDLModel.FullType -->
<g id="node8" class="node">
<title>pyVHDLModel.VHDLModel.FullType</title>
<polygon fill="none" stroke="#000000" stroke-width=".5" points="663,-37 477,-37 477,-18 663,-18 663,-37"/>
<text text-anchor="middle" x="570" y="-25" font-family="Vera Sans, DejaVu Sans, Liberation Sans, Arial, Helvetica, sans" font-size="10.00" fill="#000000">pyVHDLModel.VHDLModel.FullType</text>
</g>
<!-- pyVHDLModel.VHDLModel.BaseType&#45;&gt;pyVHDLModel.VHDLModel.FullType -->
<g id="edge7" class="edge">
<title>pyVHDLModel.VHDLModel.BaseType&#45;&gt;pyVHDLModel.VHDLModel.FullType</title>
<path fill="none" stroke="#000000" stroke-width=".5" d="M441.1559,-27.5C451.2418,-27.5 461.4995,-27.5 471.599,-27.5"/>
<polygon fill="#000000" stroke="#000000" stroke-width=".5" points="471.8642,-29.2501 476.8642,-27.5 471.8641,-25.7501 471.8642,-29.2501"/>
</g>
<!-- pyVHDLModel.VHDLModel.ModelEntity -->
<g id="node6" class="node">
<title>pyVHDLModel.VHDLModel.ModelEntity</title>
<g id="a_node6"><a xlink:title="``ModelEntity`` is the base class for all classes in the VHDL language model,">
<polygon fill="none" stroke="#000000" stroke-width=".5" points="208,-56 3,-56 3,-37 208,-37 208,-56"/>
<text text-anchor="middle" x="105.5" y="-44" font-family="Vera Sans, DejaVu Sans, Liberation Sans, Arial, Helvetica, sans" font-size="10.00" fill="#000000">pyVHDLModel.VHDLModel.ModelEntity</text>
</a>
</g>
</g>
<!-- pyVHDLModel.VHDLModel.ModelEntity&#45;&gt;pyVHDLModel.VHDLModel.BaseType -->
<g id="edge4" class="edge">
<title>pyVHDLModel.VHDLModel.ModelEntity&#45;&gt;pyVHDLModel.VHDLModel.BaseType</title>
<path fill="none" stroke="#000000" stroke-width=".5" d="M208.0296,-38.332C219.1971,-37.4424 230.5642,-36.5368 241.7286,-35.6474"/>
<polygon fill="#000000" stroke="#000000" stroke-width=".5" points="241.9972,-37.3816 246.8424,-35.24 241.7192,-33.8927 241.9972,-37.3816"/>
</g>
<!-- pyVHDLModel.VHDLModel.NamedEntity -->
<g id="node7" class="node">
<title>pyVHDLModel.VHDLModel.NamedEntity</title>
<g id="a_node7"><a xlink:title="A ``NamedEntity`` is a mixin class for all VHDL entities that have identifiers.">
<polygon fill="none" stroke="#000000" stroke-width=".5" points="211,-19 0,-19 0,0 211,0 211,-19"/>
<text text-anchor="middle" x="105.5" y="-7" font-family="Vera Sans, DejaVu Sans, Liberation Sans, Arial, Helvetica, sans" font-size="10.00" fill="#000000">pyVHDLModel.VHDLModel.NamedEntity</text>
</a>
</g>
</g>
<!-- pyVHDLModel.VHDLModel.NamedEntity&#45;&gt;pyVHDLModel.VHDLModel.BaseType -->
<g id="edge5" class="edge">
<title>pyVHDLModel.VHDLModel.NamedEntity&#45;&gt;pyVHDLModel.VHDLModel.BaseType</title>
<path fill="none" stroke="#000000" stroke-width=".5" d="M211.1511,-17.4737C221.2309,-18.2344 231.4421,-19.0051 241.4914,-19.7635"/>
<polygon fill="#000000" stroke="#000000" stroke-width=".5" points="241.6127,-21.5275 246.7302,-20.1589 241.8761,-18.0375 241.6127,-21.5275"/>
</g>
<!-- pyVHDLModel.VHDLModel.FullType&#45;&gt;pyVHDLModel.VHDLModel.CompositeType -->
<g id="edge6" class="edge">
<title>pyVHDLModel.VHDLModel.FullType&#45;&gt;pyVHDLModel.VHDLModel.CompositeType</title>
<path fill="none" stroke="#000000" stroke-width=".5" d="M663.1338,-27.5C673.2115,-27.5 683.5558,-27.5 693.862,-27.5"/>
<polygon fill="#000000" stroke="#000000" stroke-width=".5" points="693.9171,-29.2501 698.917,-27.5 693.917,-25.7501 693.9171,-29.2501"/>
</g>
</g>
</svg>
