<?xml version="1.0" encoding="UTF-8" standalone="no"?>
<!DOCTYPE svg PUBLIC "-//W3C//DTD SVG 1.1//EN"
 "http://www.w3.org/Graphics/SVG/1.1/DTD/svg11.dtd">
<!-- Generated by graphviz version 2.40.1 (20161225.0304)
 -->
<!-- Title: inheritance0b798aecb0 Pages: 1 -->
<svg width="576pt" height="24pt"
 viewBox="0.00 0.00 576.00 24.40" xmlns="http://www.w3.org/2000/svg" xmlns:xlink="http://www.w3.org/1999/xlink">
<g id="graph0" class="graph" transform="scale(.3812 .3812) rotate(0) translate(4 60)">
<title>inheritance0b798aecb0</title>
<polygon fill="#ffffff" stroke="transparent" points="-4,4 -4,-60 1507,-60 1507,4 -4,4"/>
<!-- pyGHDL.dom.DOMMixin -->
<g id="node1" class="node">
<title>pyGHDL.dom.DOMMixin</title>
<g id="a_node1"><a xlink:href="../pyGHDL.dom.html#pyGHDL.dom.DOMMixin" xlink:title="pyGHDL.dom.DOMMixin" target="_top">
<polygon fill="none" stroke="#000000" stroke-width=".5" points="1215.5,-56 1081.5,-56 1081.5,-37 1215.5,-37 1215.5,-56"/>
<text text-anchor="middle" x="1148.5" y="-44" font-family="Vera Sans, DejaVu Sans, Liberation Sans, Arial, Helvetica, sans" font-size="10.00" fill="#000000">pyGHDL.dom.DOMMixin</text>
</a>
</g>
</g>
<!-- pyGHDL.dom.Expression.XorExpression -->
<g id="node2" class="node">
<title>pyGHDL.dom.Expression.XorExpression</title>
<g id="a_node2"><a xlink:href="../pyGHDL/pyGHDL.dom.Expression.html#pyGHDL.dom.Expression.XorExpression" xlink:title="pyGHDL.dom.Expression.XorExpression" target="_top">
<polygon fill="none" stroke="#000000" stroke-width=".5" points="1503,-37 1293,-37 1293,-18 1503,-18 1503,-37"/>
<text text-anchor="middle" x="1398" y="-25" font-family="Vera Sans, DejaVu Sans, Liberation Sans, Arial, Helvetica, sans" font-size="10.00" fill="#000000">pyGHDL.dom.Expression.XorExpression</text>
</a>
</g>
</g>
<!-- pyGHDL.dom.DOMMixin&#45;&gt;pyGHDL.dom.Expression.XorExpression -->
<g id="edge2" class="edge">
<title>pyGHDL.dom.DOMMixin&#45;&gt;pyGHDL.dom.Expression.XorExpression</title>
<path fill="none" stroke="#000000" stroke-width=".5" d="M1215.6896,-41.3834C1237.7883,-39.7005 1262.9734,-37.7826 1287.4227,-35.9207"/>
<polygon fill="#000000" stroke="#000000" stroke-width=".5" points="1287.7748,-37.6491 1292.6274,-35.5244 1287.509,-34.1592 1287.7748,-37.6491"/>
</g>
<!-- pyVHDLModel.VHDLModel.XorExpression -->
<g id="node3" class="node">
<title>pyVHDLModel.VHDLModel.XorExpression</title>
<polygon fill="none" stroke="#000000" stroke-width=".5" points="1257,-19 1040,-19 1040,0 1257,0 1257,-19"/>
<text text-anchor="middle" x="1148.5" y="-7" font-family="Vera Sans, DejaVu Sans, Liberation Sans, Arial, Helvetica, sans" font-size="10.00" fill="#000000">pyVHDLModel.VHDLModel.XorExpression</text>
</g>
<!-- pyVHDLModel.VHDLModel.XorExpression&#45;&gt;pyGHDL.dom.Expression.XorExpression -->
<g id="edge1" class="edge">
<title>pyVHDLModel.VHDLModel.XorExpression&#45;&gt;pyGHDL.dom.Expression.XorExpression</title>
<path fill="none" stroke="#000000" stroke-width=".5" d="M1257.2085,-17.3427C1267.2729,-18.0688 1277.4788,-18.8051 1287.5585,-19.5323"/>
<polygon fill="#000000" stroke="#000000" stroke-width=".5" points="1287.7037,-21.2972 1292.8167,-19.9116 1287.9556,-17.8063 1287.7037,-21.2972"/>
</g>
<!-- pyVHDLModel.VHDLModel.BaseExpression -->
<g id="node4" class="node">
<title>pyVHDLModel.VHDLModel.BaseExpression</title>
<g id="a_node4"><a xlink:title="A ``BaseExpression`` is a base&#45;class for all expressions.">
<polygon fill="none" stroke="#000000" stroke-width=".5" points="465,-19 241,-19 241,0 465,0 465,-19"/>
<text text-anchor="middle" x="353" y="-7" font-family="Vera Sans, DejaVu Sans, Liberation Sans, Arial, Helvetica, sans" font-size="10.00" fill="#000000">pyVHDLModel.VHDLModel.BaseExpression</text>
</a>
</g>
</g>
<!-- pyVHDLModel.VHDLModel.BinaryExpression -->
<g id="node6" class="node">
<title>pyVHDLModel.VHDLModel.BinaryExpression</title>
<g id="a_node6"><a xlink:title="A ``BinaryExpression`` is a base&#45;class for all binary expressions.">
<polygon fill="none" stroke="#000000" stroke-width=".5" points="733,-19 501,-19 501,0 733,0 733,-19"/>
<text text-anchor="middle" x="617" y="-7" font-family="Vera Sans, DejaVu Sans, Liberation Sans, Arial, Helvetica, sans" font-size="10.00" fill="#000000">pyVHDLModel.VHDLModel.BinaryExpression</text>
</a>
</g>
</g>
<!-- pyVHDLModel.VHDLModel.BaseExpression&#45;&gt;pyVHDLModel.VHDLModel.BinaryExpression -->
<g id="edge4" class="edge">
<title>pyVHDLModel.VHDLModel.BaseExpression&#45;&gt;pyVHDLModel.VHDLModel.BinaryExpression</title>
<path fill="none" stroke="#000000" stroke-width=".5" d="M465.3426,-9.5C475.3813,-9.5 485.5751,-9.5 495.6849,-9.5"/>
<polygon fill="#000000" stroke="#000000" stroke-width=".5" points="495.9627,-11.2501 500.9627,-9.5 495.9626,-7.7501 495.9627,-11.2501"/>
</g>
<!-- pyVHDLModel.VHDLModel.ModelEntity -->
<g id="node5" class="node">
<title>pyVHDLModel.VHDLModel.ModelEntity</title>
<g id="a_node5"><a xlink:title="``ModelEntity`` is the base class for all classes in the VHDL language model,">
<polygon fill="none" stroke="#000000" stroke-width=".5" points="205,-19 0,-19 0,0 205,0 205,-19"/>
<text text-anchor="middle" x="102.5" y="-7" font-family="Vera Sans, DejaVu Sans, Liberation Sans, Arial, Helvetica, sans" font-size="10.00" fill="#000000">pyVHDLModel.VHDLModel.ModelEntity</text>
</a>
</g>
</g>
<!-- pyVHDLModel.VHDLModel.ModelEntity&#45;&gt;pyVHDLModel.VHDLModel.BaseExpression -->
<g id="edge3" class="edge">
<title>pyVHDLModel.VHDLModel.ModelEntity&#45;&gt;pyVHDLModel.VHDLModel.BaseExpression</title>
<path fill="none" stroke="#000000" stroke-width=".5" d="M205.1107,-9.5C215.2127,-9.5 225.5179,-9.5 235.7516,-9.5"/>
<polygon fill="#000000" stroke="#000000" stroke-width=".5" points="235.7685,-11.2501 240.7685,-9.5 235.7684,-7.7501 235.7685,-11.2501"/>
</g>
<!-- pyVHDLModel.VHDLModel.LogicalExpression -->
<g id="node7" class="node">
<title>pyVHDLModel.VHDLModel.LogicalExpression</title>
<g id="a_node7"><a xlink:title="A ``LogicalExpression`` is a base&#45;class for all logical expressions.">
<polygon fill="none" stroke="#000000" stroke-width=".5" points="1004,-19 769,-19 769,0 1004,0 1004,-19"/>
<text text-anchor="middle" x="886.5" y="-7" font-family="Vera Sans, DejaVu Sans, Liberation Sans, Arial, Helvetica, sans" font-size="10.00" fill="#000000">pyVHDLModel.VHDLModel.LogicalExpression</text>
</a>
</g>
</g>
<!-- pyVHDLModel.VHDLModel.BinaryExpression&#45;&gt;pyVHDLModel.VHDLModel.LogicalExpression -->
<g id="edge5" class="edge">
<title>pyVHDLModel.VHDLModel.BinaryExpression&#45;&gt;pyVHDLModel.VHDLModel.LogicalExpression</title>
<path fill="none" stroke="#000000" stroke-width=".5" d="M733.2477,-9.5C743.4091,-9.5 753.7137,-9.5 763.9242,-9.5"/>
<polygon fill="#000000" stroke="#000000" stroke-width=".5" points="763.9281,-11.2501 768.9281,-9.5 763.9281,-7.7501 763.9281,-11.2501"/>
</g>
<!-- pyVHDLModel.VHDLModel.LogicalExpression&#45;&gt;pyVHDLModel.VHDLModel.XorExpression -->
<g id="edge6" class="edge">
<title>pyVHDLModel.VHDLModel.LogicalExpression&#45;&gt;pyVHDLModel.VHDLModel.XorExpression</title>
<path fill="none" stroke="#000000" stroke-width=".5" d="M1004.0883,-9.5C1014.1667,-9.5 1024.3521,-9.5 1034.4024,-9.5"/>
<polygon fill="#000000" stroke="#000000" stroke-width=".5" points="1034.6446,-11.2501 1039.6446,-9.5 1034.6445,-7.7501 1034.6446,-11.2501"/>
</g>
</g>
</svg>
