<?xml version="1.0" encoding="UTF-8" standalone="no"?>
<!DOCTYPE svg PUBLIC "-//W3C//DTD SVG 1.1//EN"
 "http://www.w3.org/Graphics/SVG/1.1/DTD/svg11.dtd">
<!-- Generated by graphviz version 2.40.1 (20161225.0304)
 -->
<!-- Title: inheritancee639b6659b Pages: 1 -->
<svg width="576pt" height="22pt"
 viewBox="0.00 0.00 576.00 22.36" xmlns="http://www.w3.org/2000/svg" xmlns:xlink="http://www.w3.org/1999/xlink">
<g id="graph0" class="graph" transform="scale(.3493 .3493) rotate(0) translate(4 60)">
<title>inheritancee639b6659b</title>
<polygon fill="#ffffff" stroke="transparent" points="-4,4 -4,-60 1645,-60 1645,4 -4,4"/>
<!-- pyGHDL.dom.DOMMixin -->
<g id="node1" class="node">
<title>pyGHDL.dom.DOMMixin</title>
<g id="a_node1"><a xlink:href="../pyGHDL.dom.html#pyGHDL.dom.DOMMixin" xlink:title="pyGHDL.dom.DOMMixin" target="_top">
<polygon fill="none" stroke="#000000" stroke-width=".5" points="1247,-56 1113,-56 1113,-37 1247,-37 1247,-56"/>
<text text-anchor="middle" x="1180" y="-44" font-family="Vera Sans, DejaVu Sans, Liberation Sans, Arial, Helvetica, sans" font-size="10.00" fill="#000000">pyGHDL.dom.DOMMixin</text>
</a>
</g>
</g>
<!-- pyGHDL.dom.Expression.DescendingRangeExpression -->
<g id="node2" class="node">
<title>pyGHDL.dom.Expression.DescendingRangeExpression</title>
<g id="a_node2"><a xlink:href="../pyGHDL/pyGHDL.dom.Expression.html#pyGHDL.dom.Expression.DescendingRangeExpression" xlink:title="pyGHDL.dom.Expression.DescendingRangeExpression" target="_top">
<polygon fill="none" stroke="#000000" stroke-width=".5" points="1641,-37 1360,-37 1360,-18 1641,-18 1641,-37"/>
<text text-anchor="middle" x="1500.5" y="-25" font-family="Vera Sans, DejaVu Sans, Liberation Sans, Arial, Helvetica, sans" font-size="10.00" fill="#000000">pyGHDL.dom.Expression.DescendingRangeExpression</text>
</a>
</g>
</g>
<!-- pyGHDL.dom.DOMMixin&#45;&gt;pyGHDL.dom.Expression.DescendingRangeExpression -->
<g id="edge2" class="edge">
<title>pyGHDL.dom.DOMMixin&#45;&gt;pyGHDL.dom.Expression.DescendingRangeExpression</title>
<path fill="none" stroke="#000000" stroke-width=".5" d="M1247.1873,-42.517C1278.5443,-40.6581 1317.1763,-38.3679 1354.738,-36.1411"/>
<polygon fill="#000000" stroke="#000000" stroke-width=".5" points="1354.9025,-37.8845 1359.7901,-35.8416 1354.6953,-34.3907 1354.9025,-37.8845"/>
</g>
<!-- pyVHDLModel.VHDLModel.DescendingRangeExpression -->
<g id="node3" class="node">
<title>pyVHDLModel.VHDLModel.DescendingRangeExpression</title>
<polygon fill="none" stroke="#000000" stroke-width=".5" points="1324,-19 1036,-19 1036,0 1324,0 1324,-19"/>
<text text-anchor="middle" x="1180" y="-7" font-family="Vera Sans, DejaVu Sans, Liberation Sans, Arial, Helvetica, sans" font-size="10.00" fill="#000000">pyVHDLModel.VHDLModel.DescendingRangeExpression</text>
</g>
<!-- pyVHDLModel.VHDLModel.DescendingRangeExpression&#45;&gt;pyGHDL.dom.Expression.DescendingRangeExpression -->
<g id="edge1" class="edge">
<title>pyVHDLModel.VHDLModel.DescendingRangeExpression&#45;&gt;pyGHDL.dom.Expression.DescendingRangeExpression</title>
<path fill="none" stroke="#000000" stroke-width=".5" d="M1324.3111,-17.6048C1334.3567,-18.169 1344.4867,-18.7379 1354.541,-19.3026"/>
<polygon fill="#000000" stroke="#000000" stroke-width=".5" points="1354.7008,-21.0643 1359.7911,-19.5975 1354.8971,-17.5698 1354.7008,-21.0643"/>
</g>
<!-- pyVHDLModel.VHDLModel.BaseExpression -->
<g id="node4" class="node">
<title>pyVHDLModel.VHDLModel.BaseExpression</title>
<g id="a_node4"><a xlink:title="A ``BaseExpression`` is a base&#45;class for all expressions.">
<polygon fill="none" stroke="#000000" stroke-width=".5" points="465,-19 241,-19 241,0 465,0 465,-19"/>
<text text-anchor="middle" x="353" y="-7" font-family="Vera Sans, DejaVu Sans, Liberation Sans, Arial, Helvetica, sans" font-size="10.00" fill="#000000">pyVHDLModel.VHDLModel.BaseExpression</text>
</a>
</g>
</g>
<!-- pyVHDLModel.VHDLModel.BinaryExpression -->
<g id="node6" class="node">
<title>pyVHDLModel.VHDLModel.BinaryExpression</title>
<g id="a_node6"><a xlink:title="A ``BinaryExpression`` is a base&#45;class for all binary expressions.">
<polygon fill="none" stroke="#000000" stroke-width=".5" points="733,-19 501,-19 501,0 733,0 733,-19"/>
<text text-anchor="middle" x="617" y="-7" font-family="Vera Sans, DejaVu Sans, Liberation Sans, Arial, Helvetica, sans" font-size="10.00" fill="#000000">pyVHDLModel.VHDLModel.BinaryExpression</text>
</a>
</g>
</g>
<!-- pyVHDLModel.VHDLModel.BaseExpression&#45;&gt;pyVHDLModel.VHDLModel.BinaryExpression -->
<g id="edge4" class="edge">
<title>pyVHDLModel.VHDLModel.BaseExpression&#45;&gt;pyVHDLModel.VHDLModel.BinaryExpression</title>
<path fill="none" stroke="#000000" stroke-width=".5" d="M465.3426,-9.5C475.3813,-9.5 485.5751,-9.5 495.6849,-9.5"/>
<polygon fill="#000000" stroke="#000000" stroke-width=".5" points="495.9627,-11.2501 500.9627,-9.5 495.9626,-7.7501 495.9627,-11.2501"/>
</g>
<!-- pyVHDLModel.VHDLModel.ModelEntity -->
<g id="node5" class="node">
<title>pyVHDLModel.VHDLModel.ModelEntity</title>
<g id="a_node5"><a xlink:title="``ModelEntity`` is the base class for all classes in the VHDL language model,">
<polygon fill="none" stroke="#000000" stroke-width=".5" points="205,-19 0,-19 0,0 205,0 205,-19"/>
<text text-anchor="middle" x="102.5" y="-7" font-family="Vera Sans, DejaVu Sans, Liberation Sans, Arial, Helvetica, sans" font-size="10.00" fill="#000000">pyVHDLModel.VHDLModel.ModelEntity</text>
</a>
</g>
</g>
<!-- pyVHDLModel.VHDLModel.ModelEntity&#45;&gt;pyVHDLModel.VHDLModel.BaseExpression -->
<g id="edge3" class="edge">
<title>pyVHDLModel.VHDLModel.ModelEntity&#45;&gt;pyVHDLModel.VHDLModel.BaseExpression</title>
<path fill="none" stroke="#000000" stroke-width=".5" d="M205.1107,-9.5C215.2127,-9.5 225.5179,-9.5 235.7516,-9.5"/>
<polygon fill="#000000" stroke="#000000" stroke-width=".5" points="235.7685,-11.2501 240.7685,-9.5 235.7684,-7.7501 235.7685,-11.2501"/>
</g>
<!-- pyVHDLModel.VHDLModel.RangeExpression -->
<g id="node7" class="node">
<title>pyVHDLModel.VHDLModel.RangeExpression</title>
<polygon fill="none" stroke="#000000" stroke-width=".5" points="1000,-19 769,-19 769,0 1000,0 1000,-19"/>
<text text-anchor="middle" x="884.5" y="-7" font-family="Vera Sans, DejaVu Sans, Liberation Sans, Arial, Helvetica, sans" font-size="10.00" fill="#000000">pyVHDLModel.VHDLModel.RangeExpression</text>
</g>
<!-- pyVHDLModel.VHDLModel.BinaryExpression&#45;&gt;pyVHDLModel.VHDLModel.RangeExpression -->
<g id="edge6" class="edge">
<title>pyVHDLModel.VHDLModel.BinaryExpression&#45;&gt;pyVHDLModel.VHDLModel.RangeExpression</title>
<path fill="none" stroke="#000000" stroke-width=".5" d="M733.1623,-9.5C743.3406,-9.5 753.6571,-9.5 763.8706,-9.5"/>
<polygon fill="#000000" stroke="#000000" stroke-width=".5" points="763.8752,-11.2501 768.8752,-9.5 763.8752,-7.7501 763.8752,-11.2501"/>
</g>
<!-- pyVHDLModel.VHDLModel.RangeExpression&#45;&gt;pyVHDLModel.VHDLModel.DescendingRangeExpression -->
<g id="edge5" class="edge">
<title>pyVHDLModel.VHDLModel.RangeExpression&#45;&gt;pyVHDLModel.VHDLModel.DescendingRangeExpression</title>
<path fill="none" stroke="#000000" stroke-width=".5" d="M1000.0176,-9.5C1010.0335,-9.5 1020.2572,-9.5 1030.4921,-9.5"/>
<polygon fill="#000000" stroke="#000000" stroke-width=".5" points="1030.5165,-11.2501 1035.5165,-9.5 1030.5165,-7.7501 1030.5165,-11.2501"/>
</g>
</g>
</svg>
