<?xml version="1.0" encoding="UTF-8" standalone="no"?>
<!DOCTYPE svg PUBLIC "-//W3C//DTD SVG 1.1//EN"
 "http://www.w3.org/Graphics/SVG/1.1/DTD/svg11.dtd">
<!-- Generated by graphviz version 2.40.1 (20161225.0304)
 -->
<!-- Title: inheritance7406c169a6 Pages: 1 -->
<svg width="576pt" height="42pt"
 viewBox="0.00 0.00 576.00 42.47" xmlns="http://www.w3.org/2000/svg" xmlns:xlink="http://www.w3.org/1999/xlink">
<g id="graph0" class="graph" transform="scale(.518 .518) rotate(0) translate(4 78)">
<title>inheritance7406c169a6</title>
<polygon fill="#ffffff" stroke="transparent" points="-4,4 -4,-78 1108,-78 1108,4 -4,4"/>
<!-- pyGHDL.dom.DOMMixin -->
<g id="node1" class="node">
<title>pyGHDL.dom.DOMMixin</title>
<g id="a_node1"><a xlink:href="../pyGHDL.dom.html#pyGHDL.dom.DOMMixin" xlink:title="pyGHDL.dom.DOMMixin" target="_top">
<polygon fill="none" stroke="#000000" stroke-width=".5" points="867.5,-74 733.5,-74 733.5,-55 867.5,-55 867.5,-74"/>
<text text-anchor="middle" x="800.5" y="-62" font-family="Vera Sans, DejaVu Sans, Liberation Sans, Arial, Helvetica, sans" font-size="10.00" fill="#000000">pyGHDL.dom.DOMMixin</text>
</a>
</g>
</g>
<!-- pyGHDL.dom.Type.AccessType -->
<g id="node2" class="node">
<title>pyGHDL.dom.Type.AccessType</title>
<g id="a_node2"><a xlink:href="../pyGHDL/pyGHDL.dom.Type.html#pyGHDL.dom.Type.AccessType" xlink:title="pyGHDL.dom.Type.AccessType" target="_top">
<polygon fill="none" stroke="#000000" stroke-width=".5" points="1104,-55 938,-55 938,-36 1104,-36 1104,-55"/>
<text text-anchor="middle" x="1021" y="-43" font-family="Vera Sans, DejaVu Sans, Liberation Sans, Arial, Helvetica, sans" font-size="10.00" fill="#000000">pyGHDL.dom.Type.AccessType</text>
</a>
</g>
</g>
<!-- pyGHDL.dom.DOMMixin&#45;&gt;pyGHDL.dom.Type.AccessType -->
<g id="edge2" class="edge">
<title>pyGHDL.dom.DOMMixin&#45;&gt;pyGHDL.dom.Type.AccessType</title>
<path fill="none" stroke="#000000" stroke-width=".5" d="M867.5554,-58.722C888.0828,-56.9532 910.9834,-54.9799 932.6997,-53.1086"/>
<polygon fill="#000000" stroke="#000000" stroke-width=".5" points="933.0667,-54.8336 937.898,-52.6607 932.7662,-51.3465 933.0667,-54.8336"/>
</g>
<!-- pyVHDLModel.VHDLModel.AccessType -->
<g id="node3" class="node">
<title>pyVHDLModel.VHDLModel.AccessType</title>
<polygon fill="none" stroke="#000000" stroke-width=".5" points="902,-37 699,-37 699,-18 902,-18 902,-37"/>
<text text-anchor="middle" x="800.5" y="-25" font-family="Vera Sans, DejaVu Sans, Liberation Sans, Arial, Helvetica, sans" font-size="10.00" fill="#000000">pyVHDLModel.VHDLModel.AccessType</text>
</g>
<!-- pyVHDLModel.VHDLModel.AccessType&#45;&gt;pyGHDL.dom.Type.AccessType -->
<g id="edge1" class="edge">
<title>pyVHDLModel.VHDLModel.AccessType&#45;&gt;pyGHDL.dom.Type.AccessType</title>
<path fill="none" stroke="#000000" stroke-width=".5" d="M902.0371,-35.7887C912.2397,-36.6216 922.5425,-37.4626 932.5929,-38.2831"/>
<polygon fill="#000000" stroke="#000000" stroke-width=".5" points="932.6979,-40.0474 937.8238,-38.7101 932.9827,-36.559 932.6979,-40.0474"/>
</g>
<!-- pyVHDLModel.VHDLModel.FullType -->
<g id="node4" class="node">
<title>pyVHDLModel.VHDLModel.FullType</title>
<polygon fill="none" stroke="#000000" stroke-width=".5" points="663,-37 477,-37 477,-18 663,-18 663,-37"/>
<text text-anchor="middle" x="570" y="-25" font-family="Vera Sans, DejaVu Sans, Liberation Sans, Arial, Helvetica, sans" font-size="10.00" fill="#000000">pyVHDLModel.VHDLModel.FullType</text>
</g>
<!-- pyVHDLModel.VHDLModel.FullType&#45;&gt;pyVHDLModel.VHDLModel.AccessType -->
<g id="edge3" class="edge">
<title>pyVHDLModel.VHDLModel.FullType&#45;&gt;pyVHDLModel.VHDLModel.AccessType</title>
<path fill="none" stroke="#000000" stroke-width=".5" d="M663.0888,-27.5C673.182,-27.5 683.511,-27.5 693.75,-27.5"/>
<polygon fill="#000000" stroke="#000000" stroke-width=".5" points="693.7677,-29.2501 698.7677,-27.5 693.7677,-25.7501 693.7677,-29.2501"/>
</g>
<!-- pyVHDLModel.VHDLModel.BaseType -->
<g id="node5" class="node">
<title>pyVHDLModel.VHDLModel.BaseType</title>
<g id="a_node5"><a xlink:title="``BaseType`` is the base class of all type entities in this model.">
<polygon fill="none" stroke="#000000" stroke-width=".5" points="441,-37 247,-37 247,-18 441,-18 441,-37"/>
<text text-anchor="middle" x="344" y="-25" font-family="Vera Sans, DejaVu Sans, Liberation Sans, Arial, Helvetica, sans" font-size="10.00" fill="#000000">pyVHDLModel.VHDLModel.BaseType</text>
</a>
</g>
</g>
<!-- pyVHDLModel.VHDLModel.BaseType&#45;&gt;pyVHDLModel.VHDLModel.FullType -->
<g id="edge6" class="edge">
<title>pyVHDLModel.VHDLModel.BaseType&#45;&gt;pyVHDLModel.VHDLModel.FullType</title>
<path fill="none" stroke="#000000" stroke-width=".5" d="M441.1559,-27.5C451.2418,-27.5 461.4995,-27.5 471.599,-27.5"/>
<polygon fill="#000000" stroke="#000000" stroke-width=".5" points="471.8642,-29.2501 476.8642,-27.5 471.8641,-25.7501 471.8642,-29.2501"/>
</g>
<!-- pyVHDLModel.VHDLModel.ModelEntity -->
<g id="node6" class="node">
<title>pyVHDLModel.VHDLModel.ModelEntity</title>
<g id="a_node6"><a xlink:title="``ModelEntity`` is the base class for all classes in the VHDL language model,">
<polygon fill="none" stroke="#000000" stroke-width=".5" points="208,-56 3,-56 3,-37 208,-37 208,-56"/>
<text text-anchor="middle" x="105.5" y="-44" font-family="Vera Sans, DejaVu Sans, Liberation Sans, Arial, Helvetica, sans" font-size="10.00" fill="#000000">pyVHDLModel.VHDLModel.ModelEntity</text>
</a>
</g>
</g>
<!-- pyVHDLModel.VHDLModel.ModelEntity&#45;&gt;pyVHDLModel.VHDLModel.BaseType -->
<g id="edge4" class="edge">
<title>pyVHDLModel.VHDLModel.ModelEntity&#45;&gt;pyVHDLModel.VHDLModel.BaseType</title>
<path fill="none" stroke="#000000" stroke-width=".5" d="M208.0296,-38.332C219.1971,-37.4424 230.5642,-36.5368 241.7286,-35.6474"/>
<polygon fill="#000000" stroke="#000000" stroke-width=".5" points="241.9972,-37.3816 246.8424,-35.24 241.7192,-33.8927 241.9972,-37.3816"/>
</g>
<!-- pyVHDLModel.VHDLModel.NamedEntity -->
<g id="node7" class="node">
<title>pyVHDLModel.VHDLModel.NamedEntity</title>
<g id="a_node7"><a xlink:title="A ``NamedEntity`` is a mixin class for all VHDL entities that have identifiers.">
<polygon fill="none" stroke="#000000" stroke-width=".5" points="211,-19 0,-19 0,0 211,0 211,-19"/>
<text text-anchor="middle" x="105.5" y="-7" font-family="Vera Sans, DejaVu Sans, Liberation Sans, Arial, Helvetica, sans" font-size="10.00" fill="#000000">pyVHDLModel.VHDLModel.NamedEntity</text>
</a>
</g>
</g>
<!-- pyVHDLModel.VHDLModel.NamedEntity&#45;&gt;pyVHDLModel.VHDLModel.BaseType -->
<g id="edge5" class="edge">
<title>pyVHDLModel.VHDLModel.NamedEntity&#45;&gt;pyVHDLModel.VHDLModel.BaseType</title>
<path fill="none" stroke="#000000" stroke-width=".5" d="M211.1511,-17.4737C221.2309,-18.2344 231.4421,-19.0051 241.4914,-19.7635"/>
<polygon fill="#000000" stroke="#000000" stroke-width=".5" points="241.6127,-21.5275 246.7302,-20.1589 241.8761,-18.0375 241.6127,-21.5275"/>
</g>
</g>
</svg>
