<?xml version="1.0" encoding="UTF-8" standalone="no"?>
<!DOCTYPE svg PUBLIC "-//W3C//DTD SVG 1.1//EN"
 "http://www.w3.org/Graphics/SVG/1.1/DTD/svg11.dtd">
<!-- Generated by graphviz version 2.40.1 (20161225.0304)
 -->
<!-- Title: inheritancebaebe042c2 Pages: 1 -->
<svg width="576pt" height="57pt"
 viewBox="0.00 0.00 576.00 56.63" xmlns="http://www.w3.org/2000/svg" xmlns:xlink="http://www.w3.org/1999/xlink">
<g id="graph0" class="graph" transform="scale(.8848 .8848) rotate(0) translate(4 60)">
<title>inheritancebaebe042c2</title>
<polygon fill="#ffffff" stroke="transparent" points="-4,4 -4,-60 647,-60 647,4 -4,4"/>
<!-- pyGHDL.dom.DOMMixin -->
<g id="node1" class="node">
<title>pyGHDL.dom.DOMMixin</title>
<g id="a_node1"><a xlink:href="../pyGHDL.dom.html#pyGHDL.dom.DOMMixin" xlink:title="pyGHDL.dom.DOMMixin" target="_top">
<polygon fill="none" stroke="#000000" stroke-width=".5" points="384,-56 250,-56 250,-37 384,-37 384,-56"/>
<text text-anchor="middle" x="317" y="-44" font-family="Vera Sans, DejaVu Sans, Liberation Sans, Arial, Helvetica, sans" font-size="10.00" fill="#000000">pyGHDL.dom.DOMMixin</text>
</a>
</g>
</g>
<!-- pyGHDL.dom.Names.SimpleName -->
<g id="node2" class="node">
<title>pyGHDL.dom.Names.SimpleName</title>
<g id="a_node2"><a xlink:href="../pyGHDL/pyGHDL.dom.Names.html#pyGHDL.dom.Names.SimpleName" xlink:title="pyGHDL.dom.Names.SimpleName" target="_top">
<polygon fill="none" stroke="#000000" stroke-width=".5" points="643,-37 458,-37 458,-18 643,-18 643,-37"/>
<text text-anchor="middle" x="550.5" y="-25" font-family="Vera Sans, DejaVu Sans, Liberation Sans, Arial, Helvetica, sans" font-size="10.00" fill="#000000">pyGHDL.dom.Names.SimpleName</text>
</a>
</g>
</g>
<!-- pyGHDL.dom.DOMMixin&#45;&gt;pyGHDL.dom.Names.SimpleName -->
<g id="edge2" class="edge">
<title>pyGHDL.dom.DOMMixin&#45;&gt;pyGHDL.dom.Names.SimpleName</title>
<path fill="none" stroke="#000000" stroke-width=".5" d="M384.2246,-41.0299C405.5179,-39.2973 429.5091,-37.3451 452.5038,-35.474"/>
<polygon fill="#000000" stroke="#000000" stroke-width=".5" points="452.8607,-37.2008 457.7023,-35.051 452.5768,-33.7124 452.8607,-37.2008"/>
</g>
<!-- pyVHDLModel.VHDLModel.SimpleName -->
<g id="node3" class="node">
<title>pyVHDLModel.VHDLModel.SimpleName</title>
<polygon fill="none" stroke="#000000" stroke-width=".5" points="422,-19 212,-19 212,0 422,0 422,-19"/>
<text text-anchor="middle" x="317" y="-7" font-family="Vera Sans, DejaVu Sans, Liberation Sans, Arial, Helvetica, sans" font-size="10.00" fill="#000000">pyVHDLModel.VHDLModel.SimpleName</text>
</g>
<!-- pyVHDLModel.VHDLModel.SimpleName&#45;&gt;pyGHDL.dom.Names.SimpleName -->
<g id="edge1" class="edge">
<title>pyVHDLModel.VHDLModel.SimpleName&#45;&gt;pyGHDL.dom.Names.SimpleName</title>
<path fill="none" stroke="#000000" stroke-width=".5" d="M422.1377,-17.6048C432.2396,-18.3836 442.4586,-19.1713 452.4882,-19.9445"/>
<polygon fill="#000000" stroke="#000000" stroke-width=".5" points="452.5944,-21.7078 457.7141,-20.3473 452.8634,-18.2181 452.5944,-21.7078"/>
</g>
<!-- pyVHDLModel.VHDLModel.Name -->
<g id="node4" class="node">
<title>pyVHDLModel.VHDLModel.Name</title>
<g id="a_node4"><a xlink:title="``Name`` is the base class for all *names* in the VHDL language model.">
<polygon fill="none" stroke="#000000" stroke-width=".5" points="176,-19 0,-19 0,0 176,0 176,-19"/>
<text text-anchor="middle" x="88" y="-7" font-family="Vera Sans, DejaVu Sans, Liberation Sans, Arial, Helvetica, sans" font-size="10.00" fill="#000000">pyVHDLModel.VHDLModel.Name</text>
</a>
</g>
</g>
<!-- pyVHDLModel.VHDLModel.Name&#45;&gt;pyVHDLModel.VHDLModel.SimpleName -->
<g id="edge3" class="edge">
<title>pyVHDLModel.VHDLModel.Name&#45;&gt;pyVHDLModel.VHDLModel.SimpleName</title>
<path fill="none" stroke="#000000" stroke-width=".5" d="M176.2098,-9.5C186.1714,-9.5 196.4137,-9.5 206.6124,-9.5"/>
<polygon fill="#000000" stroke="#000000" stroke-width=".5" points="206.6141,-11.2501 211.6141,-9.5 206.614,-7.7501 206.6141,-11.2501"/>
</g>
</g>
</svg>
