<?xml version="1.0" encoding="UTF-8" standalone="no"?>
<!DOCTYPE svg PUBLIC "-//W3C//DTD SVG 1.1//EN"
 "http://www.w3.org/Graphics/SVG/1.1/DTD/svg11.dtd">
<!-- Generated by graphviz version 2.40.1 (20161225.0304)
 -->
<!-- Title: inheritance9a35ab62d1 Pages: 1 -->
<svg width="576pt" height="33pt"
 viewBox="0.00 0.00 576.00 33.27" xmlns="http://www.w3.org/2000/svg" xmlns:xlink="http://www.w3.org/1999/xlink">
<g id="graph0" class="graph" transform="scale(.5199 .5199) rotate(0) translate(4 60)">
<title>inheritance9a35ab62d1</title>
<polygon fill="#ffffff" stroke="transparent" points="-4,4 -4,-60 1104,-60 1104,4 -4,4"/>
<!-- pyGHDL.dom.Aggregates.IndexedAggregateElement -->
<g id="node1" class="node">
<title>pyGHDL.dom.Aggregates.IndexedAggregateElement</title>
<g id="a_node1"><a xlink:href="../pyGHDL/pyGHDL.dom.Aggregates.html#pyGHDL.dom.Aggregates.IndexedAggregateElement" xlink:title="pyGHDL.dom.Aggregates.IndexedAggregateElement" target="_top">
<polygon fill="none" stroke="#000000" stroke-width=".5" points="1100,-37 828,-37 828,-18 1100,-18 1100,-37"/>
<text text-anchor="middle" x="964" y="-25" font-family="Vera Sans, DejaVu Sans, Liberation Sans, Arial, Helvetica, sans" font-size="10.00" fill="#000000">pyGHDL.dom.Aggregates.IndexedAggregateElement</text>
</a>
</g>
</g>
<!-- pyVHDLModel.VHDLModel.IndexedAggregateElement -->
<g id="node2" class="node">
<title>pyVHDLModel.VHDLModel.IndexedAggregateElement</title>
<polygon fill="none" stroke="#000000" stroke-width=".5" points="792,-56 515,-56 515,-37 792,-37 792,-56"/>
<text text-anchor="middle" x="653.5" y="-44" font-family="Vera Sans, DejaVu Sans, Liberation Sans, Arial, Helvetica, sans" font-size="10.00" fill="#000000">pyVHDLModel.VHDLModel.IndexedAggregateElement</text>
</g>
<!-- pyVHDLModel.VHDLModel.IndexedAggregateElement&#45;&gt;pyGHDL.dom.Aggregates.IndexedAggregateElement -->
<g id="edge1" class="edge">
<title>pyVHDLModel.VHDLModel.IndexedAggregateElement&#45;&gt;pyGHDL.dom.Aggregates.IndexedAggregateElement</title>
<path fill="none" stroke="#000000" stroke-width=".5" d="M792.403,-38.0003C802.4405,-37.3861 812.5703,-36.7662 822.6219,-36.1512"/>
<polygon fill="#000000" stroke="#000000" stroke-width=".5" points="822.9864,-37.8822 827.8702,-35.83 822.7726,-34.3887 822.9864,-37.8822"/>
</g>
<!-- pyGHDL.dom.DOMMixin -->
<g id="node3" class="node">
<title>pyGHDL.dom.DOMMixin</title>
<g id="a_node3"><a xlink:href="../pyGHDL.dom.html#pyGHDL.dom.DOMMixin" xlink:title="pyGHDL.dom.DOMMixin" target="_top">
<polygon fill="none" stroke="#000000" stroke-width=".5" points="720.5,-19 586.5,-19 586.5,0 720.5,0 720.5,-19"/>
<text text-anchor="middle" x="653.5" y="-7" font-family="Vera Sans, DejaVu Sans, Liberation Sans, Arial, Helvetica, sans" font-size="10.00" fill="#000000">pyGHDL.dom.DOMMixin</text>
</a>
</g>
</g>
<!-- pyGHDL.dom.DOMMixin&#45;&gt;pyGHDL.dom.Aggregates.IndexedAggregateElement -->
<g id="edge2" class="edge">
<title>pyGHDL.dom.DOMMixin&#45;&gt;pyGHDL.dom.Aggregates.IndexedAggregateElement</title>
<path fill="none" stroke="#000000" stroke-width=".5" d="M720.8739,-13.4057C750.7938,-15.1402 787.2066,-17.2511 822.6459,-19.3056"/>
<polygon fill="#000000" stroke="#000000" stroke-width=".5" points="822.7737,-21.0658 827.8666,-19.6082 822.9763,-17.5717 822.7737,-21.0658"/>
</g>
<!-- pyVHDLModel.VHDLModel.AggregateElement -->
<g id="node4" class="node">
<title>pyVHDLModel.VHDLModel.AggregateElement</title>
<g id="a_node4"><a xlink:title="A ``AggregateElement`` is a base&#45;class for all aggregate elements.">
<polygon fill="none" stroke="#000000" stroke-width=".5" points="479,-56 241,-56 241,-37 479,-37 479,-56"/>
<text text-anchor="middle" x="360" y="-44" font-family="Vera Sans, DejaVu Sans, Liberation Sans, Arial, Helvetica, sans" font-size="10.00" fill="#000000">pyVHDLModel.VHDLModel.AggregateElement</text>
</a>
</g>
</g>
<!-- pyVHDLModel.VHDLModel.AggregateElement&#45;&gt;pyVHDLModel.VHDLModel.IndexedAggregateElement -->
<g id="edge4" class="edge">
<title>pyVHDLModel.VHDLModel.AggregateElement&#45;&gt;pyVHDLModel.VHDLModel.IndexedAggregateElement</title>
<path fill="none" stroke="#000000" stroke-width=".5" d="M479.3777,-46.5C489.2434,-46.5 499.2803,-46.5 509.3013,-46.5"/>
<polygon fill="#000000" stroke="#000000" stroke-width=".5" points="509.5393,-48.2501 514.5393,-46.5 509.5392,-44.7501 509.5393,-48.2501"/>
</g>
<!-- pyVHDLModel.VHDLModel.ModelEntity -->
<g id="node5" class="node">
<title>pyVHDLModel.VHDLModel.ModelEntity</title>
<g id="a_node5"><a xlink:title="``ModelEntity`` is the base class for all classes in the VHDL language model,">
<polygon fill="none" stroke="#000000" stroke-width=".5" points="205,-56 0,-56 0,-37 205,-37 205,-56"/>
<text text-anchor="middle" x="102.5" y="-44" font-family="Vera Sans, DejaVu Sans, Liberation Sans, Arial, Helvetica, sans" font-size="10.00" fill="#000000">pyVHDLModel.VHDLModel.ModelEntity</text>
</a>
</g>
</g>
<!-- pyVHDLModel.VHDLModel.ModelEntity&#45;&gt;pyVHDLModel.VHDLModel.AggregateElement -->
<g id="edge3" class="edge">
<title>pyVHDLModel.VHDLModel.ModelEntity&#45;&gt;pyVHDLModel.VHDLModel.AggregateElement</title>
<path fill="none" stroke="#000000" stroke-width=".5" d="M205.0107,-46.5C215.1351,-46.5 225.4855,-46.5 235.797,-46.5"/>
<polygon fill="#000000" stroke="#000000" stroke-width=".5" points="235.8547,-48.2501 240.8547,-46.5 235.8547,-44.7501 235.8547,-48.2501"/>
</g>
</g>
</svg>
