<?xml version="1.0" encoding="UTF-8" standalone="no"?>
<!DOCTYPE svg PUBLIC "-//W3C//DTD SVG 1.1//EN"
 "http://www.w3.org/Graphics/SVG/1.1/DTD/svg11.dtd">
<!-- Generated by graphviz version 2.40.1 (20161225.0304)
 -->
<!-- Title: inheritance5d44514f2b Pages: 1 -->
<svg width="576pt" height="41pt"
 viewBox="0.00 0.00 576.00 40.55" xmlns="http://www.w3.org/2000/svg" xmlns:xlink="http://www.w3.org/1999/xlink">
<g id="graph0" class="graph" transform="scale(.6337 .6337) rotate(0) translate(4 60)">
<title>inheritance5d44514f2b</title>
<polygon fill="#ffffff" stroke="transparent" points="-4,4 -4,-60 905,-60 905,4 -4,4"/>
<!-- pyGHDL.dom.DOMMixin -->
<g id="node1" class="node">
<title>pyGHDL.dom.DOMMixin</title>
<g id="a_node1"><a xlink:href="../pyGHDL.dom.html#pyGHDL.dom.DOMMixin" xlink:title="pyGHDL.dom.DOMMixin" target="_top">
<polygon fill="none" stroke="#000000" stroke-width=".5" points="639.5,-56 505.5,-56 505.5,-37 639.5,-37 639.5,-56"/>
<text text-anchor="middle" x="572.5" y="-44" font-family="Vera Sans, DejaVu Sans, Liberation Sans, Arial, Helvetica, sans" font-size="10.00" fill="#000000">pyGHDL.dom.DOMMixin</text>
</a>
</g>
</g>
<!-- pyGHDL.dom.DesignUnit.UseClause -->
<g id="node2" class="node">
<title>pyGHDL.dom.DesignUnit.UseClause</title>
<g id="a_node2"><a xlink:href="../pyGHDL/pyGHDL.dom.DesignUnit.html#pyGHDL.dom.DesignUnit.UseClause" xlink:title="pyGHDL.dom.DesignUnit.UseClause" target="_top">
<polygon fill="none" stroke="#000000" stroke-width=".5" points="901,-37 708,-37 708,-18 901,-18 901,-37"/>
<text text-anchor="middle" x="804.5" y="-25" font-family="Vera Sans, DejaVu Sans, Liberation Sans, Arial, Helvetica, sans" font-size="10.00" fill="#000000">pyGHDL.dom.DesignUnit.UseClause</text>
</a>
</g>
</g>
<!-- pyGHDL.dom.DOMMixin&#45;&gt;pyGHDL.dom.DesignUnit.UseClause -->
<g id="edge2" class="edge">
<title>pyGHDL.dom.DOMMixin&#45;&gt;pyGHDL.dom.DesignUnit.UseClause</title>
<path fill="none" stroke="#000000" stroke-width=".5" d="M639.604,-41.0044C659.303,-39.3911 681.3046,-37.5893 702.6567,-35.8406"/>
<polygon fill="#000000" stroke="#000000" stroke-width=".5" points="702.9375,-37.5736 707.778,-35.4212 702.6518,-34.0852 702.9375,-37.5736"/>
</g>
<!-- pyVHDLModel.VHDLModel.UseClause -->
<g id="node3" class="node">
<title>pyVHDLModel.VHDLModel.UseClause</title>
<polygon fill="none" stroke="#000000" stroke-width=".5" points="672,-19 473,-19 473,0 672,0 672,-19"/>
<text text-anchor="middle" x="572.5" y="-7" font-family="Vera Sans, DejaVu Sans, Liberation Sans, Arial, Helvetica, sans" font-size="10.00" fill="#000000">pyVHDLModel.VHDLModel.UseClause</text>
</g>
<!-- pyVHDLModel.VHDLModel.UseClause&#45;&gt;pyGHDL.dom.DesignUnit.UseClause -->
<g id="edge1" class="edge">
<title>pyVHDLModel.VHDLModel.UseClause&#45;&gt;pyGHDL.dom.DesignUnit.UseClause</title>
<path fill="none" stroke="#000000" stroke-width=".5" d="M672.2353,-17.2381C682.2752,-18.017 692.4809,-18.8089 702.5436,-19.5896"/>
<polygon fill="#000000" stroke="#000000" stroke-width=".5" points="702.6706,-21.3546 707.7911,-19.9967 702.9414,-17.8651 702.6706,-21.3546"/>
</g>
<!-- pyVHDLModel.VHDLModel.ModelEntity -->
<g id="node4" class="node">
<title>pyVHDLModel.VHDLModel.ModelEntity</title>
<g id="a_node4"><a xlink:title="``ModelEntity`` is the base class for all classes in the VHDL language model,">
<polygon fill="none" stroke="#000000" stroke-width=".5" points="205,-19 0,-19 0,0 205,0 205,-19"/>
<text text-anchor="middle" x="102.5" y="-7" font-family="Vera Sans, DejaVu Sans, Liberation Sans, Arial, Helvetica, sans" font-size="10.00" fill="#000000">pyVHDLModel.VHDLModel.ModelEntity</text>
</a>
</g>
</g>
<!-- pyVHDLModel.VHDLModel.Reference -->
<g id="node5" class="node">
<title>pyVHDLModel.VHDLModel.Reference</title>
<polygon fill="none" stroke="#000000" stroke-width=".5" points="437,-19 241,-19 241,0 437,0 437,-19"/>
<text text-anchor="middle" x="339" y="-7" font-family="Vera Sans, DejaVu Sans, Liberation Sans, Arial, Helvetica, sans" font-size="10.00" fill="#000000">pyVHDLModel.VHDLModel.Reference</text>
</g>
<!-- pyVHDLModel.VHDLModel.ModelEntity&#45;&gt;pyVHDLModel.VHDLModel.Reference -->
<g id="edge3" class="edge">
<title>pyVHDLModel.VHDLModel.ModelEntity&#45;&gt;pyVHDLModel.VHDLModel.Reference</title>
<path fill="none" stroke="#000000" stroke-width=".5" d="M205.2005,-9.5C215.2851,-9.5 225.5233,-9.5 235.6147,-9.5"/>
<polygon fill="#000000" stroke="#000000" stroke-width=".5" points="235.8769,-11.2501 240.8769,-9.5 235.8768,-7.7501 235.8769,-11.2501"/>
</g>
<!-- pyVHDLModel.VHDLModel.Reference&#45;&gt;pyVHDLModel.VHDLModel.UseClause -->
<g id="edge4" class="edge">
<title>pyVHDLModel.VHDLModel.Reference&#45;&gt;pyVHDLModel.VHDLModel.UseClause</title>
<path fill="none" stroke="#000000" stroke-width=".5" d="M437.0101,-9.5C447.1992,-9.5 457.5838,-9.5 467.8426,-9.5"/>
<polygon fill="#000000" stroke="#000000" stroke-width=".5" points="467.8672,-11.2501 472.8672,-9.5 467.8671,-7.7501 467.8672,-11.2501"/>
</g>
</g>
</svg>
