<?xml version="1.0" encoding="UTF-8" standalone="no"?>
<!DOCTYPE svg PUBLIC "-//W3C//DTD SVG 1.1//EN"
 "http://www.w3.org/Graphics/SVG/1.1/DTD/svg11.dtd">
<!-- Generated by graphviz version 2.40.1 (20161225.0304)
 -->
<!-- Title: inheritance05d01d594d Pages: 1 -->
<svg width="576pt" height="33pt"
 viewBox="0.00 0.00 576.00 33.31" xmlns="http://www.w3.org/2000/svg" xmlns:xlink="http://www.w3.org/1999/xlink">
<g id="graph0" class="graph" transform="scale(.4062 .4062) rotate(0) translate(4 78)">
<title>inheritance05d01d594d</title>
<polygon fill="#ffffff" stroke="transparent" points="-4,4 -4,-78 1414,-78 1414,4 -4,4"/>
<!-- pyGHDL.dom.DOMMixin -->
<g id="node1" class="node">
<title>pyGHDL.dom.DOMMixin</title>
<g id="a_node1"><a xlink:href="../pyGHDL.dom.html#pyGHDL.dom.DOMMixin" xlink:title="pyGHDL.dom.DOMMixin" target="_top">
<polygon fill="none" stroke="#000000" stroke-width=".5" points="998.5,-74 864.5,-74 864.5,-55 998.5,-55 998.5,-74"/>
<text text-anchor="middle" x="931.5" y="-62" font-family="Vera Sans, DejaVu Sans, Liberation Sans, Arial, Helvetica, sans" font-size="10.00" fill="#000000">pyGHDL.dom.DOMMixin</text>
</a>
</g>
</g>
<!-- pyGHDL.dom.InterfaceItem.GenericFunctionInterfaceItem -->
<g id="node2" class="node">
<title>pyGHDL.dom.InterfaceItem.GenericFunctionInterfaceItem</title>
<g id="a_node2"><a xlink:href="../pyGHDL/pyGHDL.dom.InterfaceItem.html#pyGHDL.dom.InterfaceItem.GenericFunctionInterfaceItem" xlink:title="pyGHDL.dom.InterfaceItem.GenericFunctionInterfaceItem" target="_top">
<polygon fill="none" stroke="#000000" stroke-width=".5" points="1410,-55 1113,-55 1113,-36 1410,-36 1410,-55"/>
<text text-anchor="middle" x="1261.5" y="-43" font-family="Vera Sans, DejaVu Sans, Liberation Sans, Arial, Helvetica, sans" font-size="10.00" fill="#000000">pyGHDL.dom.InterfaceItem.GenericFunctionInterfaceItem</text>
</a>
</g>
</g>
<!-- pyGHDL.dom.DOMMixin&#45;&gt;pyGHDL.dom.InterfaceItem.GenericFunctionInterfaceItem -->
<g id="edge2" class="edge">
<title>pyGHDL.dom.DOMMixin&#45;&gt;pyGHDL.dom.InterfaceItem.GenericFunctionInterfaceItem</title>
<path fill="none" stroke="#000000" stroke-width=".5" d="M998.6782,-60.6322C1030.2401,-58.815 1069.2758,-56.5675 1107.5186,-54.3656"/>
<polygon fill="#000000" stroke="#000000" stroke-width=".5" points="1107.773,-56.1039 1112.6642,-54.0693 1107.5718,-52.6097 1107.773,-56.1039"/>
</g>
<!-- pyVHDLModel.VHDLModel.GenericFunctionInterfaceItem -->
<g id="node3" class="node">
<title>pyVHDLModel.VHDLModel.GenericFunctionInterfaceItem</title>
<polygon fill="none" stroke="#000000" stroke-width=".5" points="1077,-37 786,-37 786,-18 1077,-18 1077,-37"/>
<text text-anchor="middle" x="931.5" y="-25" font-family="Vera Sans, DejaVu Sans, Liberation Sans, Arial, Helvetica, sans" font-size="10.00" fill="#000000">pyVHDLModel.VHDLModel.GenericFunctionInterfaceItem</text>
</g>
<!-- pyVHDLModel.VHDLModel.GenericFunctionInterfaceItem&#45;&gt;pyGHDL.dom.InterfaceItem.GenericFunctionInterfaceItem -->
<g id="edge1" class="edge">
<title>pyVHDLModel.VHDLModel.GenericFunctionInterfaceItem&#45;&gt;pyGHDL.dom.InterfaceItem.GenericFunctionInterfaceItem</title>
<path fill="none" stroke="#000000" stroke-width=".5" d="M1077.2034,-35.4475C1087.3675,-36.0019 1097.6306,-36.5617 1107.8356,-37.1183"/>
<polygon fill="#000000" stroke="#000000" stroke-width=".5" points="1107.752,-38.8663 1112.8399,-37.3913 1107.9427,-35.3715 1107.752,-38.8663"/>
</g>
<!-- pyVHDLModel.VHDLModel.Function -->
<g id="node4" class="node">
<title>pyVHDLModel.VHDLModel.Function</title>
<polygon fill="none" stroke="#000000" stroke-width=".5" points="718.5,-56 530.5,-56 530.5,-37 718.5,-37 718.5,-56"/>
<text text-anchor="middle" x="624.5" y="-44" font-family="Vera Sans, DejaVu Sans, Liberation Sans, Arial, Helvetica, sans" font-size="10.00" fill="#000000">pyVHDLModel.VHDLModel.Function</text>
</g>
<!-- pyVHDLModel.VHDLModel.Function&#45;&gt;pyVHDLModel.VHDLModel.GenericFunctionInterfaceItem -->
<g id="edge4" class="edge">
<title>pyVHDLModel.VHDLModel.Function&#45;&gt;pyVHDLModel.VHDLModel.GenericFunctionInterfaceItem</title>
<path fill="none" stroke="#000000" stroke-width=".5" d="M718.6965,-40.6703C738.3592,-39.4533 759.5561,-38.1415 780.6851,-36.8338"/>
<polygon fill="#000000" stroke="#000000" stroke-width=".5" points="780.8823,-38.5751 785.7646,-36.5195 780.666,-35.0817 780.8823,-38.5751"/>
</g>
<!-- pyVHDLModel.VHDLModel.SubProgramm -->
<g id="node5" class="node">
<title>pyVHDLModel.VHDLModel.SubProgramm</title>
<polygon fill="none" stroke="#000000" stroke-width=".5" points="463,-56 247,-56 247,-37 463,-37 463,-56"/>
<text text-anchor="middle" x="355" y="-44" font-family="Vera Sans, DejaVu Sans, Liberation Sans, Arial, Helvetica, sans" font-size="10.00" fill="#000000">pyVHDLModel.VHDLModel.SubProgramm</text>
</g>
<!-- pyVHDLModel.VHDLModel.SubProgramm&#45;&gt;pyVHDLModel.VHDLModel.Function -->
<g id="edge3" class="edge">
<title>pyVHDLModel.VHDLModel.SubProgramm&#45;&gt;pyVHDLModel.VHDLModel.Function</title>
<path fill="none" stroke="#000000" stroke-width=".5" d="M463.0631,-46.5C483.5829,-46.5 504.9628,-46.5 525.1951,-46.5"/>
<polygon fill="#000000" stroke="#000000" stroke-width=".5" points="525.313,-48.2501 530.3129,-46.5 525.3129,-44.7501 525.313,-48.2501"/>
</g>
<!-- pyVHDLModel.VHDLModel.GenericInterfaceItem -->
<g id="node6" class="node">
<title>pyVHDLModel.VHDLModel.GenericInterfaceItem</title>
<g id="a_node6"><a xlink:title="A ``GenericInterfaceItem`` is a mixin class for all generic interface items.">
<polygon fill="none" stroke="#000000" stroke-width=".5" points="750,-19 499,-19 499,0 750,0 750,-19"/>
<text text-anchor="middle" x="624.5" y="-7" font-family="Vera Sans, DejaVu Sans, Liberation Sans, Arial, Helvetica, sans" font-size="10.00" fill="#000000">pyVHDLModel.VHDLModel.GenericInterfaceItem</text>
</a>
</g>
</g>
<!-- pyVHDLModel.VHDLModel.GenericInterfaceItem&#45;&gt;pyVHDLModel.VHDLModel.GenericFunctionInterfaceItem -->
<g id="edge5" class="edge">
<title>pyVHDLModel.VHDLModel.GenericInterfaceItem&#45;&gt;pyVHDLModel.VHDLModel.GenericFunctionInterfaceItem</title>
<path fill="none" stroke="#000000" stroke-width=".5" d="M750.2544,-16.8732C760.358,-17.4656 770.6275,-18.0677 780.8799,-18.6689"/>
<polygon fill="#000000" stroke="#000000" stroke-width=".5" points="780.8168,-20.4181 785.9107,-18.9638 781.0217,-16.9241 780.8168,-20.4181"/>
</g>
<!-- pyVHDLModel.VHDLModel.InterfaceItem -->
<g id="node7" class="node">
<title>pyVHDLModel.VHDLModel.InterfaceItem</title>
<g id="a_node7"><a xlink:title="An ``InterfaceItem`` is a base&#45;class for all mixin&#45;classes for all interface">
<polygon fill="none" stroke="#000000" stroke-width=".5" points="461.5,-19 248.5,-19 248.5,0 461.5,0 461.5,-19"/>
<text text-anchor="middle" x="355" y="-7" font-family="Vera Sans, DejaVu Sans, Liberation Sans, Arial, Helvetica, sans" font-size="10.00" fill="#000000">pyVHDLModel.VHDLModel.InterfaceItem</text>
</a>
</g>
</g>
<!-- pyVHDLModel.VHDLModel.InterfaceItem&#45;&gt;pyVHDLModel.VHDLModel.GenericInterfaceItem -->
<g id="edge6" class="edge">
<title>pyVHDLModel.VHDLModel.InterfaceItem&#45;&gt;pyVHDLModel.VHDLModel.GenericInterfaceItem</title>
<path fill="none" stroke="#000000" stroke-width=".5" d="M461.5135,-9.5C472.0079,-9.5 482.7416,-9.5 493.4442,-9.5"/>
<polygon fill="#000000" stroke="#000000" stroke-width=".5" points="493.6945,-11.2501 498.6944,-9.5 493.6944,-7.7501 493.6945,-11.2501"/>
</g>
<!-- pyVHDLModel.VHDLModel.ModelEntity -->
<g id="node8" class="node">
<title>pyVHDLModel.VHDLModel.ModelEntity</title>
<g id="a_node8"><a xlink:title="``ModelEntity`` is the base class for all classes in the VHDL language model,">
<polygon fill="none" stroke="#000000" stroke-width=".5" points="208,-74 3,-74 3,-55 208,-55 208,-74"/>
<text text-anchor="middle" x="105.5" y="-62" font-family="Vera Sans, DejaVu Sans, Liberation Sans, Arial, Helvetica, sans" font-size="10.00" fill="#000000">pyVHDLModel.VHDLModel.ModelEntity</text>
</a>
</g>
</g>
<!-- pyVHDLModel.VHDLModel.ModelEntity&#45;&gt;pyVHDLModel.VHDLModel.SubProgramm -->
<g id="edge7" class="edge">
<title>pyVHDLModel.VHDLModel.ModelEntity&#45;&gt;pyVHDLModel.VHDLModel.SubProgramm</title>
<path fill="none" stroke="#000000" stroke-width=".5" d="M208.0613,-57.1008C219.134,-56.302 230.4476,-55.4857 241.6381,-54.6784"/>
<polygon fill="#000000" stroke="#000000" stroke-width=".5" points="241.9086,-56.4135 246.7696,-54.3082 241.6566,-52.9226 241.9086,-56.4135"/>
</g>
<!-- pyVHDLModel.VHDLModel.NamedEntity -->
<g id="node9" class="node">
<title>pyVHDLModel.VHDLModel.NamedEntity</title>
<g id="a_node9"><a xlink:title="A ``NamedEntity`` is a mixin class for all VHDL entities that have identifiers.">
<polygon fill="none" stroke="#000000" stroke-width=".5" points="211,-37 0,-37 0,-18 211,-18 211,-37"/>
<text text-anchor="middle" x="105.5" y="-25" font-family="Vera Sans, DejaVu Sans, Liberation Sans, Arial, Helvetica, sans" font-size="10.00" fill="#000000">pyVHDLModel.VHDLModel.NamedEntity</text>
</a>
</g>
</g>
<!-- pyVHDLModel.VHDLModel.NamedEntity&#45;&gt;pyVHDLModel.VHDLModel.SubProgramm -->
<g id="edge8" class="edge">
<title>pyVHDLModel.VHDLModel.NamedEntity&#45;&gt;pyVHDLModel.VHDLModel.SubProgramm</title>
<path fill="none" stroke="#000000" stroke-width=".5" d="M211.3105,-35.5577C221.2633,-36.3156 231.3808,-37.0861 241.4015,-37.8492"/>
<polygon fill="#000000" stroke="#000000" stroke-width=".5" points="241.513,-39.6127 246.6315,-38.2475 241.7789,-36.1228 241.513,-39.6127"/>
</g>
</g>
</svg>
