<?xml version="1.0" encoding="UTF-8" standalone="no"?>
<!DOCTYPE svg PUBLIC "-//W3C//DTD SVG 1.1//EN"
 "http://www.w3.org/Graphics/SVG/1.1/DTD/svg11.dtd">
<!-- Generated by graphviz version 2.40.1 (20161225.0304)
 -->
<!-- Title: inheritancebac45984bc Pages: 1 -->
<svg width="576pt" height="23pt"
 viewBox="0.00 0.00 576.00 22.78" xmlns="http://www.w3.org/2000/svg" xmlns:xlink="http://www.w3.org/1999/xlink">
<g id="graph0" class="graph" transform="scale(.356 .356) rotate(0) translate(4 60)">
<title>inheritancebac45984bc</title>
<polygon fill="#ffffff" stroke="transparent" points="-4,4 -4,-60 1614,-60 1614,4 -4,4"/>
<!-- pyGHDL.dom.DOMMixin -->
<g id="node1" class="node">
<title>pyGHDL.dom.DOMMixin</title>
<g id="a_node1"><a xlink:href="../pyGHDL.dom.html#pyGHDL.dom.DOMMixin" xlink:title="pyGHDL.dom.DOMMixin" target="_top">
<polygon fill="none" stroke="#000000" stroke-width=".5" points="1241.5,-56 1107.5,-56 1107.5,-37 1241.5,-37 1241.5,-56"/>
<text text-anchor="middle" x="1174.5" y="-44" font-family="Vera Sans, DejaVu Sans, Liberation Sans, Arial, Helvetica, sans" font-size="10.00" fill="#000000">pyGHDL.dom.DOMMixin</text>
</a>
</g>
</g>
<!-- pyGHDL.dom.Expression.ConcatenationExpression -->
<g id="node2" class="node">
<title>pyGHDL.dom.Expression.ConcatenationExpression</title>
<g id="a_node2"><a xlink:href="../pyGHDL/pyGHDL.dom.Expression.html#pyGHDL.dom.Expression.ConcatenationExpression" xlink:title="pyGHDL.dom.Expression.ConcatenationExpression" target="_top">
<polygon fill="none" stroke="#000000" stroke-width=".5" points="1610,-37 1346,-37 1346,-18 1610,-18 1610,-37"/>
<text text-anchor="middle" x="1478" y="-25" font-family="Vera Sans, DejaVu Sans, Liberation Sans, Arial, Helvetica, sans" font-size="10.00" fill="#000000">pyGHDL.dom.Expression.ConcatenationExpression</text>
</a>
</g>
</g>
<!-- pyGHDL.dom.DOMMixin&#45;&gt;pyGHDL.dom.Expression.ConcatenationExpression -->
<g id="edge2" class="edge">
<title>pyGHDL.dom.DOMMixin&#45;&gt;pyGHDL.dom.Expression.ConcatenationExpression</title>
<path fill="none" stroke="#000000" stroke-width=".5" d="M1241.8565,-42.2833C1271.0684,-40.4545 1306.3981,-38.2428 1340.7302,-36.0935"/>
<polygon fill="#000000" stroke="#000000" stroke-width=".5" points="1340.9066,-37.836 1345.7875,-35.7769 1340.6879,-34.3428 1340.9066,-37.836"/>
</g>
<!-- pyVHDLModel.VHDLModel.ConcatenationExpression -->
<g id="node3" class="node">
<title>pyVHDLModel.VHDLModel.ConcatenationExpression</title>
<polygon fill="none" stroke="#000000" stroke-width=".5" points="1310,-19 1039,-19 1039,0 1310,0 1310,-19"/>
<text text-anchor="middle" x="1174.5" y="-7" font-family="Vera Sans, DejaVu Sans, Liberation Sans, Arial, Helvetica, sans" font-size="10.00" fill="#000000">pyVHDLModel.VHDLModel.ConcatenationExpression</text>
</g>
<!-- pyVHDLModel.VHDLModel.ConcatenationExpression&#45;&gt;pyGHDL.dom.Expression.ConcatenationExpression -->
<g id="edge1" class="edge">
<title>pyVHDLModel.VHDLModel.ConcatenationExpression&#45;&gt;pyGHDL.dom.Expression.ConcatenationExpression</title>
<path fill="none" stroke="#000000" stroke-width=".5" d="M1310.2715,-17.5523C1320.3516,-18.1502 1330.5268,-18.7536 1340.6165,-19.352"/>
<polygon fill="#000000" stroke="#000000" stroke-width=".5" points="1340.7892,-21.1153 1345.884,-19.6645 1340.9964,-17.6214 1340.7892,-21.1153"/>
</g>
<!-- pyVHDLModel.VHDLModel.AddingExpression -->
<g id="node4" class="node">
<title>pyVHDLModel.VHDLModel.AddingExpression</title>
<g id="a_node4"><a xlink:title="A ``AddingExpression`` is a base&#45;class for all adding expressions.">
<polygon fill="none" stroke="#000000" stroke-width=".5" points="1003,-19 769,-19 769,0 1003,0 1003,-19"/>
<text text-anchor="middle" x="886" y="-7" font-family="Vera Sans, DejaVu Sans, Liberation Sans, Arial, Helvetica, sans" font-size="10.00" fill="#000000">pyVHDLModel.VHDLModel.AddingExpression</text>
</a>
</g>
</g>
<!-- pyVHDLModel.VHDLModel.AddingExpression&#45;&gt;pyVHDLModel.VHDLModel.ConcatenationExpression -->
<g id="edge6" class="edge">
<title>pyVHDLModel.VHDLModel.AddingExpression&#45;&gt;pyVHDLModel.VHDLModel.ConcatenationExpression</title>
<path fill="none" stroke="#000000" stroke-width=".5" d="M1003.344,-9.5C1013.3988,-9.5 1023.6344,-9.5 1033.846,-9.5"/>
<polygon fill="#000000" stroke="#000000" stroke-width=".5" points="1033.8561,-11.2501 1038.8561,-9.5 1033.856,-7.7501 1033.8561,-11.2501"/>
</g>
<!-- pyVHDLModel.VHDLModel.BinaryExpression -->
<g id="node5" class="node">
<title>pyVHDLModel.VHDLModel.BinaryExpression</title>
<g id="a_node5"><a xlink:title="A ``BinaryExpression`` is a base&#45;class for all binary expressions.">
<polygon fill="none" stroke="#000000" stroke-width=".5" points="733,-19 501,-19 501,0 733,0 733,-19"/>
<text text-anchor="middle" x="617" y="-7" font-family="Vera Sans, DejaVu Sans, Liberation Sans, Arial, Helvetica, sans" font-size="10.00" fill="#000000">pyVHDLModel.VHDLModel.BinaryExpression</text>
</a>
</g>
</g>
<!-- pyVHDLModel.VHDLModel.BinaryExpression&#45;&gt;pyVHDLModel.VHDLModel.AddingExpression -->
<g id="edge3" class="edge">
<title>pyVHDLModel.VHDLModel.BinaryExpression&#45;&gt;pyVHDLModel.VHDLModel.AddingExpression</title>
<path fill="none" stroke="#000000" stroke-width=".5" d="M733.032,-9.5C743.0824,-9.5 753.273,-9.5 763.3737,-9.5"/>
<polygon fill="#000000" stroke="#000000" stroke-width=".5" points="763.6463,-11.2501 768.6462,-9.5 763.6462,-7.7501 763.6463,-11.2501"/>
</g>
<!-- pyVHDLModel.VHDLModel.BaseExpression -->
<g id="node6" class="node">
<title>pyVHDLModel.VHDLModel.BaseExpression</title>
<g id="a_node6"><a xlink:title="A ``BaseExpression`` is a base&#45;class for all expressions.">
<polygon fill="none" stroke="#000000" stroke-width=".5" points="465,-19 241,-19 241,0 465,0 465,-19"/>
<text text-anchor="middle" x="353" y="-7" font-family="Vera Sans, DejaVu Sans, Liberation Sans, Arial, Helvetica, sans" font-size="10.00" fill="#000000">pyVHDLModel.VHDLModel.BaseExpression</text>
</a>
</g>
</g>
<!-- pyVHDLModel.VHDLModel.BaseExpression&#45;&gt;pyVHDLModel.VHDLModel.BinaryExpression -->
<g id="edge5" class="edge">
<title>pyVHDLModel.VHDLModel.BaseExpression&#45;&gt;pyVHDLModel.VHDLModel.BinaryExpression</title>
<path fill="none" stroke="#000000" stroke-width=".5" d="M465.3426,-9.5C475.3813,-9.5 485.5751,-9.5 495.6849,-9.5"/>
<polygon fill="#000000" stroke="#000000" stroke-width=".5" points="495.9627,-11.2501 500.9627,-9.5 495.9626,-7.7501 495.9627,-11.2501"/>
</g>
<!-- pyVHDLModel.VHDLModel.ModelEntity -->
<g id="node7" class="node">
<title>pyVHDLModel.VHDLModel.ModelEntity</title>
<g id="a_node7"><a xlink:title="``ModelEntity`` is the base class for all classes in the VHDL language model,">
<polygon fill="none" stroke="#000000" stroke-width=".5" points="205,-19 0,-19 0,0 205,0 205,-19"/>
<text text-anchor="middle" x="102.5" y="-7" font-family="Vera Sans, DejaVu Sans, Liberation Sans, Arial, Helvetica, sans" font-size="10.00" fill="#000000">pyVHDLModel.VHDLModel.ModelEntity</text>
</a>
</g>
</g>
<!-- pyVHDLModel.VHDLModel.ModelEntity&#45;&gt;pyVHDLModel.VHDLModel.BaseExpression -->
<g id="edge4" class="edge">
<title>pyVHDLModel.VHDLModel.ModelEntity&#45;&gt;pyVHDLModel.VHDLModel.BaseExpression</title>
<path fill="none" stroke="#000000" stroke-width=".5" d="M205.1107,-9.5C215.2127,-9.5 225.5179,-9.5 235.7516,-9.5"/>
<polygon fill="#000000" stroke="#000000" stroke-width=".5" points="235.7685,-11.2501 240.7685,-9.5 235.7684,-7.7501 235.7685,-11.2501"/>
</g>
</g>
</svg>
