<?xml version="1.0" encoding="UTF-8" standalone="no"?>
<!DOCTYPE svg PUBLIC "-//W3C//DTD SVG 1.1//EN"
 "http://www.w3.org/Graphics/SVG/1.1/DTD/svg11.dtd">
<!-- Generated by graphviz version 2.40.1 (20161225.0304)
 -->
<!-- Title: inheritance8d43c99fd2 Pages: 1 -->
<svg width="576pt" height="45pt"
 viewBox="0.00 0.00 576.00 44.60" xmlns="http://www.w3.org/2000/svg" xmlns:xlink="http://www.w3.org/1999/xlink">
<g id="graph0" class="graph" transform="scale(.5439 .5439) rotate(0) translate(4 78)">
<title>inheritance8d43c99fd2</title>
<polygon fill="#ffffff" stroke="transparent" points="-4,4 -4,-78 1055,-78 1055,4 -4,4"/>
<!-- pyGHDL.dom.DOMMixin -->
<g id="node1" class="node">
<title>pyGHDL.dom.DOMMixin</title>
<g id="a_node1"><a xlink:href="../pyGHDL.dom.html#pyGHDL.dom.DOMMixin" xlink:title="pyGHDL.dom.DOMMixin" target="_top">
<polygon fill="none" stroke="#000000" stroke-width=".5" points="723,-74 589,-74 589,-55 723,-55 723,-74"/>
<text text-anchor="middle" x="656" y="-62" font-family="Vera Sans, DejaVu Sans, Liberation Sans, Arial, Helvetica, sans" font-size="10.00" fill="#000000">pyGHDL.dom.DOMMixin</text>
</a>
</g>
</g>
<!-- pyGHDL.dom.Expression.QualifiedExpression -->
<g id="node2" class="node">
<title>pyGHDL.dom.Expression.QualifiedExpression</title>
<g id="a_node2"><a xlink:href="../pyGHDL/pyGHDL.dom.Expression.html#pyGHDL.dom.Expression.QualifiedExpression" xlink:title="pyGHDL.dom.Expression.QualifiedExpression" target="_top">
<polygon fill="none" stroke="#000000" stroke-width=".5" points="1051,-55 814,-55 814,-36 1051,-36 1051,-55"/>
<text text-anchor="middle" x="932.5" y="-43" font-family="Vera Sans, DejaVu Sans, Liberation Sans, Arial, Helvetica, sans" font-size="10.00" fill="#000000">pyGHDL.dom.Expression.QualifiedExpression</text>
</a>
</g>
</g>
<!-- pyGHDL.dom.DOMMixin&#45;&gt;pyGHDL.dom.Expression.QualifiedExpression -->
<g id="edge2" class="edge">
<title>pyGHDL.dom.DOMMixin&#45;&gt;pyGHDL.dom.Expression.QualifiedExpression</title>
<path fill="none" stroke="#000000" stroke-width=".5" d="M723.2859,-59.8764C749.0504,-58.1059 779.3261,-56.0255 808.7198,-54.0057"/>
<polygon fill="#000000" stroke="#000000" stroke-width=".5" points="808.943,-55.7446 813.8113,-53.6558 808.703,-52.2528 808.943,-55.7446"/>
</g>
<!-- pyVHDLModel.VHDLModel.QualifiedExpression -->
<g id="node3" class="node">
<title>pyVHDLModel.VHDLModel.QualifiedExpression</title>
<polygon fill="none" stroke="#000000" stroke-width=".5" points="778,-37 534,-37 534,-18 778,-18 778,-37"/>
<text text-anchor="middle" x="656" y="-25" font-family="Vera Sans, DejaVu Sans, Liberation Sans, Arial, Helvetica, sans" font-size="10.00" fill="#000000">pyVHDLModel.VHDLModel.QualifiedExpression</text>
</g>
<!-- pyVHDLModel.VHDLModel.QualifiedExpression&#45;&gt;pyGHDL.dom.Expression.QualifiedExpression -->
<g id="edge1" class="edge">
<title>pyVHDLModel.VHDLModel.QualifiedExpression&#45;&gt;pyGHDL.dom.Expression.QualifiedExpression</title>
<path fill="none" stroke="#000000" stroke-width=".5" d="M778.0818,-35.4475C788.2764,-36.1111 798.59,-36.7825 808.7966,-37.447"/>
<polygon fill="#000000" stroke="#000000" stroke-width=".5" points="808.6944,-39.1939 813.7975,-37.7725 808.9218,-35.7013 808.6944,-39.1939"/>
</g>
<!-- pyVHDLModel.VHDLModel.BaseExpression -->
<g id="node4" class="node">
<title>pyVHDLModel.VHDLModel.BaseExpression</title>
<g id="a_node4"><a xlink:title="A ``BaseExpression`` is a base&#45;class for all expressions.">
<polygon fill="none" stroke="#000000" stroke-width=".5" points="481.5,-56 257.5,-56 257.5,-37 481.5,-37 481.5,-56"/>
<text text-anchor="middle" x="369.5" y="-44" font-family="Vera Sans, DejaVu Sans, Liberation Sans, Arial, Helvetica, sans" font-size="10.00" fill="#000000">pyVHDLModel.VHDLModel.BaseExpression</text>
</a>
</g>
</g>
<!-- pyVHDLModel.VHDLModel.BaseExpression&#45;&gt;pyVHDLModel.VHDLModel.QualifiedExpression -->
<g id="edge5" class="edge">
<title>pyVHDLModel.VHDLModel.BaseExpression&#45;&gt;pyVHDLModel.VHDLModel.QualifiedExpression</title>
<path fill="none" stroke="#000000" stroke-width=".5" d="M481.9101,-39.0452C497.2622,-38.0271 513.1104,-36.9761 528.7034,-35.942"/>
<polygon fill="#000000" stroke="#000000" stroke-width=".5" points="529.1073,-37.6692 533.9805,-35.592 528.8756,-34.1768 529.1073,-37.6692"/>
</g>
<!-- pyVHDLModel.VHDLModel.ModelEntity -->
<g id="node5" class="node">
<title>pyVHDLModel.VHDLModel.ModelEntity</title>
<g id="a_node5"><a xlink:title="``ModelEntity`` is the base class for all classes in the VHDL language model,">
<polygon fill="none" stroke="#000000" stroke-width=".5" points="205,-56 0,-56 0,-37 205,-37 205,-56"/>
<text text-anchor="middle" x="102.5" y="-44" font-family="Vera Sans, DejaVu Sans, Liberation Sans, Arial, Helvetica, sans" font-size="10.00" fill="#000000">pyVHDLModel.VHDLModel.ModelEntity</text>
</a>
</g>
</g>
<!-- pyVHDLModel.VHDLModel.ModelEntity&#45;&gt;pyVHDLModel.VHDLModel.BaseExpression -->
<g id="edge3" class="edge">
<title>pyVHDLModel.VHDLModel.ModelEntity&#45;&gt;pyVHDLModel.VHDLModel.BaseExpression</title>
<path fill="none" stroke="#000000" stroke-width=".5" d="M205.3473,-46.5C220.6574,-46.5 236.5362,-46.5 252.1177,-46.5"/>
<polygon fill="#000000" stroke="#000000" stroke-width=".5" points="252.3893,-48.2501 257.3892,-46.5 252.3892,-44.7501 252.3893,-48.2501"/>
</g>
<!-- pyVHDLModel.VHDLModel.ParenthesisExpression -->
<g id="node6" class="node">
<title>pyVHDLModel.VHDLModel.ParenthesisExpression</title>
<polygon fill="none" stroke="#000000" stroke-width=".5" points="498,-19 241,-19 241,0 498,0 498,-19"/>
<text text-anchor="middle" x="369.5" y="-7" font-family="Vera Sans, DejaVu Sans, Liberation Sans, Arial, Helvetica, sans" font-size="10.00" fill="#000000">pyVHDLModel.VHDLModel.ParenthesisExpression</text>
</g>
<!-- pyVHDLModel.VHDLModel.ParenthesisExpression&#45;&gt;pyVHDLModel.VHDLModel.QualifiedExpression -->
<g id="edge6" class="edge">
<title>pyVHDLModel.VHDLModel.ParenthesisExpression&#45;&gt;pyVHDLModel.VHDLModel.QualifiedExpression</title>
<path fill="none" stroke="#000000" stroke-width=".5" d="M498.0842,-17.5786C508.3112,-18.2211 518.639,-18.87 528.8562,-19.5119"/>
<polygon fill="#000000" stroke="#000000" stroke-width=".5" points="528.7621,-21.2594 533.862,-19.8264 528.9816,-17.7662 528.7621,-21.2594"/>
</g>
<!-- pyVHDLModel.VHDLModel.Protocol -->
<g id="node7" class="node">
<title>pyVHDLModel.VHDLModel.Protocol</title>
<polygon fill="none" stroke="#000000" stroke-width=".5" points="196,-19 9,-19 9,0 196,0 196,-19"/>
<text text-anchor="middle" x="102.5" y="-7" font-family="Vera Sans, DejaVu Sans, Liberation Sans, Arial, Helvetica, sans" font-size="10.00" fill="#000000">pyVHDLModel.VHDLModel.Protocol</text>
</g>
<!-- pyVHDLModel.VHDLModel.Protocol&#45;&gt;pyVHDLModel.VHDLModel.ParenthesisExpression -->
<g id="edge4" class="edge">
<title>pyVHDLModel.VHDLModel.Protocol&#45;&gt;pyVHDLModel.VHDLModel.ParenthesisExpression</title>
<path fill="none" stroke="#000000" stroke-width=".5" d="M196.2588,-9.5C208.9934,-9.5 222.2588,-9.5 235.5304,-9.5"/>
<polygon fill="#000000" stroke="#000000" stroke-width=".5" points="235.8147,-11.2501 240.8147,-9.5 235.8146,-7.7501 235.8147,-11.2501"/>
</g>
</g>
</svg>
