<?xml version="1.0" encoding="UTF-8" standalone="no"?>
<!DOCTYPE svg PUBLIC "-//W3C//DTD SVG 1.1//EN"
 "http://www.w3.org/Graphics/SVG/1.1/DTD/svg11.dtd">
<!-- Generated by graphviz version 2.40.1 (20161225.0304)
 -->
<!-- Title: inheritance99d90d8534 Pages: 1 -->
<svg width="576pt" height="19pt"
 viewBox="0.00 0.00 576.00 18.67" xmlns="http://www.w3.org/2000/svg" xmlns:xlink="http://www.w3.org/1999/xlink">
<g id="graph0" class="graph" transform="scale(.2918 .2918) rotate(0) translate(4 60)">
<title>inheritance99d90d8534</title>
<polygon fill="#ffffff" stroke="transparent" points="-4,4 -4,-60 1970,-60 1970,4 -4,4"/>
<!-- pyGHDL.dom.DOMMixin -->
<g id="node1" class="node">
<title>pyGHDL.dom.DOMMixin</title>
<g id="a_node1"><a xlink:href="../pyGHDL.dom.html#pyGHDL.dom.DOMMixin" xlink:title="pyGHDL.dom.DOMMixin" target="_top">
<polygon fill="none" stroke="#000000" stroke-width=".5" points="1554.5,-56 1420.5,-56 1420.5,-37 1554.5,-37 1554.5,-56"/>
<text text-anchor="middle" x="1487.5" y="-44" font-family="Vera Sans, DejaVu Sans, Liberation Sans, Arial, Helvetica, sans" font-size="10.00" fill="#000000">pyGHDL.dom.DOMMixin</text>
</a>
</g>
</g>
<!-- pyGHDL.dom.Expression.ShiftRightArithmeticExpression -->
<g id="node2" class="node">
<title>pyGHDL.dom.Expression.ShiftRightArithmeticExpression</title>
<g id="a_node2"><a xlink:href="../pyGHDL/pyGHDL.dom.Expression.html#pyGHDL.dom.Expression.ShiftRightArithmeticExpression" xlink:title="pyGHDL.dom.Expression.ShiftRightArithmeticExpression" target="_top">
<polygon fill="none" stroke="#000000" stroke-width=".5" points="1966,-37 1673,-37 1673,-18 1966,-18 1966,-37"/>
<text text-anchor="middle" x="1819.5" y="-25" font-family="Vera Sans, DejaVu Sans, Liberation Sans, Arial, Helvetica, sans" font-size="10.00" fill="#000000">pyGHDL.dom.Expression.ShiftRightArithmeticExpression</text>
</a>
</g>
</g>
<!-- pyGHDL.dom.DOMMixin&#45;&gt;pyGHDL.dom.Expression.ShiftRightArithmeticExpression -->
<g id="edge2" class="edge">
<title>pyGHDL.dom.DOMMixin&#45;&gt;pyGHDL.dom.Expression.ShiftRightArithmeticExpression</title>
<path fill="none" stroke="#000000" stroke-width=".5" d="M1554.6852,-42.6551C1587.3252,-40.7871 1627.9792,-38.4605 1667.5594,-36.1954"/>
<polygon fill="#000000" stroke="#000000" stroke-width=".5" points="1667.9915,-37.9236 1672.8833,-35.8907 1667.7915,-34.4293 1667.9915,-37.9236"/>
</g>
<!-- pyVHDLModel.VHDLModel.ShiftRightArithmeticExpression -->
<g id="node3" class="node">
<title>pyVHDLModel.VHDLModel.ShiftRightArithmeticExpression</title>
<polygon fill="none" stroke="#000000" stroke-width=".5" points="1637,-19 1338,-19 1338,0 1637,0 1637,-19"/>
<text text-anchor="middle" x="1487.5" y="-7" font-family="Vera Sans, DejaVu Sans, Liberation Sans, Arial, Helvetica, sans" font-size="10.00" fill="#000000">pyVHDLModel.VHDLModel.ShiftRightArithmeticExpression</text>
</g>
<!-- pyVHDLModel.VHDLModel.ShiftRightArithmeticExpression&#45;&gt;pyGHDL.dom.Expression.ShiftRightArithmeticExpression -->
<g id="edge1" class="edge">
<title>pyVHDLModel.VHDLModel.ShiftRightArithmeticExpression&#45;&gt;pyGHDL.dom.Expression.ShiftRightArithmeticExpression</title>
<path fill="none" stroke="#000000" stroke-width=".5" d="M1637.4734,-17.6311C1647.4972,-18.1745 1657.5997,-18.7223 1667.6329,-19.2662"/>
<polygon fill="#000000" stroke="#000000" stroke-width=".5" points="1667.785,-21.027 1672.8725,-19.5503 1667.9746,-17.5321 1667.785,-21.027"/>
</g>
<!-- pyVHDLModel.VHDLModel.BaseExpression -->
<g id="node4" class="node">
<title>pyVHDLModel.VHDLModel.BaseExpression</title>
<g id="a_node4"><a xlink:title="A ``BaseExpression`` is a base&#45;class for all expressions.">
<polygon fill="none" stroke="#000000" stroke-width=".5" points="465,-19 241,-19 241,0 465,0 465,-19"/>
<text text-anchor="middle" x="353" y="-7" font-family="Vera Sans, DejaVu Sans, Liberation Sans, Arial, Helvetica, sans" font-size="10.00" fill="#000000">pyVHDLModel.VHDLModel.BaseExpression</text>
</a>
</g>
</g>
<!-- pyVHDLModel.VHDLModel.BinaryExpression -->
<g id="node6" class="node">
<title>pyVHDLModel.VHDLModel.BinaryExpression</title>
<g id="a_node6"><a xlink:title="A ``BinaryExpression`` is a base&#45;class for all binary expressions.">
<polygon fill="none" stroke="#000000" stroke-width=".5" points="733,-19 501,-19 501,0 733,0 733,-19"/>
<text text-anchor="middle" x="617" y="-7" font-family="Vera Sans, DejaVu Sans, Liberation Sans, Arial, Helvetica, sans" font-size="10.00" fill="#000000">pyVHDLModel.VHDLModel.BinaryExpression</text>
</a>
</g>
</g>
<!-- pyVHDLModel.VHDLModel.BaseExpression&#45;&gt;pyVHDLModel.VHDLModel.BinaryExpression -->
<g id="edge4" class="edge">
<title>pyVHDLModel.VHDLModel.BaseExpression&#45;&gt;pyVHDLModel.VHDLModel.BinaryExpression</title>
<path fill="none" stroke="#000000" stroke-width=".5" d="M465.3426,-9.5C475.3813,-9.5 485.5751,-9.5 495.6849,-9.5"/>
<polygon fill="#000000" stroke="#000000" stroke-width=".5" points="495.9627,-11.2501 500.9627,-9.5 495.9626,-7.7501 495.9627,-11.2501"/>
</g>
<!-- pyVHDLModel.VHDLModel.ModelEntity -->
<g id="node5" class="node">
<title>pyVHDLModel.VHDLModel.ModelEntity</title>
<g id="a_node5"><a xlink:title="``ModelEntity`` is the base class for all classes in the VHDL language model,">
<polygon fill="none" stroke="#000000" stroke-width=".5" points="205,-19 0,-19 0,0 205,0 205,-19"/>
<text text-anchor="middle" x="102.5" y="-7" font-family="Vera Sans, DejaVu Sans, Liberation Sans, Arial, Helvetica, sans" font-size="10.00" fill="#000000">pyVHDLModel.VHDLModel.ModelEntity</text>
</a>
</g>
</g>
<!-- pyVHDLModel.VHDLModel.ModelEntity&#45;&gt;pyVHDLModel.VHDLModel.BaseExpression -->
<g id="edge3" class="edge">
<title>pyVHDLModel.VHDLModel.ModelEntity&#45;&gt;pyVHDLModel.VHDLModel.BaseExpression</title>
<path fill="none" stroke="#000000" stroke-width=".5" d="M205.1107,-9.5C215.2127,-9.5 225.5179,-9.5 235.7516,-9.5"/>
<polygon fill="#000000" stroke="#000000" stroke-width=".5" points="235.7685,-11.2501 240.7685,-9.5 235.7684,-7.7501 235.7685,-11.2501"/>
</g>
<!-- pyVHDLModel.VHDLModel.ShiftExpression -->
<g id="node8" class="node">
<title>pyVHDLModel.VHDLModel.ShiftExpression</title>
<g id="a_node8"><a xlink:title="A ``ShiftExpression`` is a base&#45;class for all shifting expressions.">
<polygon fill="none" stroke="#000000" stroke-width=".5" points="992,-19 769,-19 769,0 992,0 992,-19"/>
<text text-anchor="middle" x="880.5" y="-7" font-family="Vera Sans, DejaVu Sans, Liberation Sans, Arial, Helvetica, sans" font-size="10.00" fill="#000000">pyVHDLModel.VHDLModel.ShiftExpression</text>
</a>
</g>
</g>
<!-- pyVHDLModel.VHDLModel.BinaryExpression&#45;&gt;pyVHDLModel.VHDLModel.ShiftExpression -->
<g id="edge6" class="edge">
<title>pyVHDLModel.VHDLModel.BinaryExpression&#45;&gt;pyVHDLModel.VHDLModel.ShiftExpression</title>
<path fill="none" stroke="#000000" stroke-width=".5" d="M733.342,-9.5C743.3212,-9.5 753.4199,-9.5 763.405,-9.5"/>
<polygon fill="#000000" stroke="#000000" stroke-width=".5" points="763.615,-11.2501 768.615,-9.5 763.615,-7.7501 763.615,-11.2501"/>
</g>
<!-- pyVHDLModel.VHDLModel.ShiftArithmeticExpression -->
<g id="node7" class="node">
<title>pyVHDLModel.VHDLModel.ShiftArithmeticExpression</title>
<polygon fill="none" stroke="#000000" stroke-width=".5" points="1302,-19 1028,-19 1028,0 1302,0 1302,-19"/>
<text text-anchor="middle" x="1165" y="-7" font-family="Vera Sans, DejaVu Sans, Liberation Sans, Arial, Helvetica, sans" font-size="10.00" fill="#000000">pyVHDLModel.VHDLModel.ShiftArithmeticExpression</text>
</g>
<!-- pyVHDLModel.VHDLModel.ShiftArithmeticExpression&#45;&gt;pyVHDLModel.VHDLModel.ShiftRightArithmeticExpression -->
<g id="edge7" class="edge">
<title>pyVHDLModel.VHDLModel.ShiftArithmeticExpression&#45;&gt;pyVHDLModel.VHDLModel.ShiftRightArithmeticExpression</title>
<path fill="none" stroke="#000000" stroke-width=".5" d="M1302.2367,-9.5C1312.4024,-9.5 1322.6984,-9.5 1332.9581,-9.5"/>
<polygon fill="#000000" stroke="#000000" stroke-width=".5" points="1332.9911,-11.2501 1337.9911,-9.5 1332.9911,-7.7501 1332.9911,-11.2501"/>
</g>
<!-- pyVHDLModel.VHDLModel.ShiftExpression&#45;&gt;pyVHDLModel.VHDLModel.ShiftArithmeticExpression -->
<g id="edge5" class="edge">
<title>pyVHDLModel.VHDLModel.ShiftExpression&#45;&gt;pyVHDLModel.VHDLModel.ShiftArithmeticExpression</title>
<path fill="none" stroke="#000000" stroke-width=".5" d="M992.1254,-9.5C1002.159,-9.5 1012.4059,-9.5 1022.6536,-9.5"/>
<polygon fill="#000000" stroke="#000000" stroke-width=".5" points="1022.6834,-11.2501 1027.6834,-9.5 1022.6833,-7.7501 1022.6834,-11.2501"/>
</g>
</g>
</svg>
