<?xml version="1.0" encoding="UTF-8" standalone="no"?>
<!DOCTYPE svg PUBLIC "-//W3C//DTD SVG 1.1//EN"
 "http://www.w3.org/Graphics/SVG/1.1/DTD/svg11.dtd">
<!-- Generated by graphviz version 2.40.1 (20161225.0304)
 -->
<!-- Title: inheritancef49271e5bb Pages: 1 -->
<svg width="576pt" height="18pt"
 viewBox="0.00 0.00 576.00 18.37" xmlns="http://www.w3.org/2000/svg" xmlns:xlink="http://www.w3.org/1999/xlink">
<g id="graph0" class="graph" transform="scale(.287 .287) rotate(0) translate(4 60)">
<title>inheritancef49271e5bb</title>
<polygon fill="#ffffff" stroke="transparent" points="-4,4 -4,-60 2003,-60 2003,4 -4,4"/>
<!-- pyGHDL.dom.DOMMixin -->
<g id="node1" class="node">
<title>pyGHDL.dom.DOMMixin</title>
<g id="a_node1"><a xlink:href="../pyGHDL.dom.html#pyGHDL.dom.DOMMixin" xlink:title="pyGHDL.dom.DOMMixin" target="_top">
<polygon fill="none" stroke="#000000" stroke-width=".5" points="1596.5,-56 1462.5,-56 1462.5,-37 1596.5,-37 1596.5,-56"/>
<text text-anchor="middle" x="1529.5" y="-44" font-family="Vera Sans, DejaVu Sans, Liberation Sans, Arial, Helvetica, sans" font-size="10.00" fill="#000000">pyGHDL.dom.DOMMixin</text>
</a>
</g>
</g>
<!-- pyGHDL.dom.Expression.MatchingLessEqualExpression -->
<g id="node2" class="node">
<title>pyGHDL.dom.Expression.MatchingLessEqualExpression</title>
<g id="a_node2"><a xlink:href="../pyGHDL/pyGHDL.dom.Expression.html#pyGHDL.dom.Expression.MatchingLessEqualExpression" xlink:title="pyGHDL.dom.Expression.MatchingLessEqualExpression" target="_top">
<polygon fill="none" stroke="#000000" stroke-width=".5" points="1999,-37 1712,-37 1712,-18 1999,-18 1999,-37"/>
<text text-anchor="middle" x="1855.5" y="-25" font-family="Vera Sans, DejaVu Sans, Liberation Sans, Arial, Helvetica, sans" font-size="10.00" fill="#000000">pyGHDL.dom.Expression.MatchingLessEqualExpression</text>
</a>
</g>
</g>
<!-- pyGHDL.dom.DOMMixin&#45;&gt;pyGHDL.dom.Expression.MatchingLessEqualExpression -->
<g id="edge2" class="edge">
<title>pyGHDL.dom.DOMMixin&#45;&gt;pyGHDL.dom.Expression.MatchingLessEqualExpression</title>
<path fill="none" stroke="#000000" stroke-width=".5" d="M1596.6521,-42.5862C1628.5825,-40.7253 1668.1235,-38.4207 1706.6078,-36.1778"/>
<polygon fill="#000000" stroke="#000000" stroke-width=".5" points="1706.8946,-37.9141 1711.7842,-35.8761 1706.6909,-34.42 1706.8946,-37.9141"/>
</g>
<!-- pyVHDLModel.VHDLModel.MatchingLessEqualExpression -->
<g id="node3" class="node">
<title>pyVHDLModel.VHDLModel.MatchingLessEqualExpression</title>
<polygon fill="none" stroke="#000000" stroke-width=".5" points="1676,-19 1383,-19 1383,0 1676,0 1676,-19"/>
<text text-anchor="middle" x="1529.5" y="-7" font-family="Vera Sans, DejaVu Sans, Liberation Sans, Arial, Helvetica, sans" font-size="10.00" fill="#000000">pyVHDLModel.VHDLModel.MatchingLessEqualExpression</text>
</g>
<!-- pyVHDLModel.VHDLModel.MatchingLessEqualExpression&#45;&gt;pyGHDL.dom.Expression.MatchingLessEqualExpression -->
<g id="edge1" class="edge">
<title>pyVHDLModel.VHDLModel.MatchingLessEqualExpression&#45;&gt;pyGHDL.dom.Expression.MatchingLessEqualExpression</title>
<path fill="none" stroke="#000000" stroke-width=".5" d="M1676.2875,-17.6048C1686.3616,-18.1611 1696.5191,-18.7219 1706.6041,-19.2788"/>
<polygon fill="#000000" stroke="#000000" stroke-width=".5" points="1706.7815,-21.0411 1711.8704,-19.5695 1706.9745,-17.5465 1706.7815,-21.0411"/>
</g>
<!-- pyVHDLModel.VHDLModel.BaseExpression -->
<g id="node4" class="node">
<title>pyVHDLModel.VHDLModel.BaseExpression</title>
<g id="a_node4"><a xlink:title="A ``BaseExpression`` is a base&#45;class for all expressions.">
<polygon fill="none" stroke="#000000" stroke-width=".5" points="465,-19 241,-19 241,0 465,0 465,-19"/>
<text text-anchor="middle" x="353" y="-7" font-family="Vera Sans, DejaVu Sans, Liberation Sans, Arial, Helvetica, sans" font-size="10.00" fill="#000000">pyVHDLModel.VHDLModel.BaseExpression</text>
</a>
</g>
</g>
<!-- pyVHDLModel.VHDLModel.BinaryExpression -->
<g id="node6" class="node">
<title>pyVHDLModel.VHDLModel.BinaryExpression</title>
<g id="a_node6"><a xlink:title="A ``BinaryExpression`` is a base&#45;class for all binary expressions.">
<polygon fill="none" stroke="#000000" stroke-width=".5" points="733,-19 501,-19 501,0 733,0 733,-19"/>
<text text-anchor="middle" x="617" y="-7" font-family="Vera Sans, DejaVu Sans, Liberation Sans, Arial, Helvetica, sans" font-size="10.00" fill="#000000">pyVHDLModel.VHDLModel.BinaryExpression</text>
</a>
</g>
</g>
<!-- pyVHDLModel.VHDLModel.BaseExpression&#45;&gt;pyVHDLModel.VHDLModel.BinaryExpression -->
<g id="edge4" class="edge">
<title>pyVHDLModel.VHDLModel.BaseExpression&#45;&gt;pyVHDLModel.VHDLModel.BinaryExpression</title>
<path fill="none" stroke="#000000" stroke-width=".5" d="M465.3426,-9.5C475.3813,-9.5 485.5751,-9.5 495.6849,-9.5"/>
<polygon fill="#000000" stroke="#000000" stroke-width=".5" points="495.9627,-11.2501 500.9627,-9.5 495.9626,-7.7501 495.9627,-11.2501"/>
</g>
<!-- pyVHDLModel.VHDLModel.ModelEntity -->
<g id="node5" class="node">
<title>pyVHDLModel.VHDLModel.ModelEntity</title>
<g id="a_node5"><a xlink:title="``ModelEntity`` is the base class for all classes in the VHDL language model,">
<polygon fill="none" stroke="#000000" stroke-width=".5" points="205,-19 0,-19 0,0 205,0 205,-19"/>
<text text-anchor="middle" x="102.5" y="-7" font-family="Vera Sans, DejaVu Sans, Liberation Sans, Arial, Helvetica, sans" font-size="10.00" fill="#000000">pyVHDLModel.VHDLModel.ModelEntity</text>
</a>
</g>
</g>
<!-- pyVHDLModel.VHDLModel.ModelEntity&#45;&gt;pyVHDLModel.VHDLModel.BaseExpression -->
<g id="edge3" class="edge">
<title>pyVHDLModel.VHDLModel.ModelEntity&#45;&gt;pyVHDLModel.VHDLModel.BaseExpression</title>
<path fill="none" stroke="#000000" stroke-width=".5" d="M205.1107,-9.5C215.2127,-9.5 225.5179,-9.5 235.7516,-9.5"/>
<polygon fill="#000000" stroke="#000000" stroke-width=".5" points="235.7685,-11.2501 240.7685,-9.5 235.7684,-7.7501 235.7685,-11.2501"/>
</g>
<!-- pyVHDLModel.VHDLModel.RelationalExpression -->
<g id="node8" class="node">
<title>pyVHDLModel.VHDLModel.RelationalExpression</title>
<g id="a_node8"><a xlink:title="A ``RelationalExpression`` is a base&#45;class for all shifting expressions.">
<polygon fill="none" stroke="#000000" stroke-width=".5" points="1018,-19 769,-19 769,0 1018,0 1018,-19"/>
<text text-anchor="middle" x="893.5" y="-7" font-family="Vera Sans, DejaVu Sans, Liberation Sans, Arial, Helvetica, sans" font-size="10.00" fill="#000000">pyVHDLModel.VHDLModel.RelationalExpression</text>
</a>
</g>
</g>
<!-- pyVHDLModel.VHDLModel.BinaryExpression&#45;&gt;pyVHDLModel.VHDLModel.RelationalExpression -->
<g id="edge7" class="edge">
<title>pyVHDLModel.VHDLModel.BinaryExpression&#45;&gt;pyVHDLModel.VHDLModel.RelationalExpression</title>
<path fill="none" stroke="#000000" stroke-width=".5" d="M733.0591,-9.5C743.2195,-9.5 753.544,-9.5 763.8055,-9.5"/>
<polygon fill="#000000" stroke="#000000" stroke-width=".5" points="763.837,-11.2501 768.8369,-9.5 763.8369,-7.7501 763.837,-11.2501"/>
</g>
<!-- pyVHDLModel.VHDLModel.MatchingRelationalExpression -->
<g id="node7" class="node">
<title>pyVHDLModel.VHDLModel.MatchingRelationalExpression</title>
<polygon fill="none" stroke="#000000" stroke-width=".5" points="1347,-19 1054,-19 1054,0 1347,0 1347,-19"/>
<text text-anchor="middle" x="1200.5" y="-7" font-family="Vera Sans, DejaVu Sans, Liberation Sans, Arial, Helvetica, sans" font-size="10.00" fill="#000000">pyVHDLModel.VHDLModel.MatchingRelationalExpression</text>
</g>
<!-- pyVHDLModel.VHDLModel.MatchingRelationalExpression&#45;&gt;pyVHDLModel.VHDLModel.MatchingLessEqualExpression -->
<g id="edge5" class="edge">
<title>pyVHDLModel.VHDLModel.MatchingRelationalExpression&#45;&gt;pyVHDLModel.VHDLModel.MatchingLessEqualExpression</title>
<path fill="none" stroke="#000000" stroke-width=".5" d="M1347.1995,-9.5C1357.2679,-9.5 1367.4263,-9.5 1377.5214,-9.5"/>
<polygon fill="#000000" stroke="#000000" stroke-width=".5" points="1377.794,-11.2501 1382.7939,-9.5 1377.7939,-7.7501 1377.794,-11.2501"/>
</g>
<!-- pyVHDLModel.VHDLModel.RelationalExpression&#45;&gt;pyVHDLModel.VHDLModel.MatchingRelationalExpression -->
<g id="edge6" class="edge">
<title>pyVHDLModel.VHDLModel.RelationalExpression&#45;&gt;pyVHDLModel.VHDLModel.MatchingRelationalExpression</title>
<path fill="none" stroke="#000000" stroke-width=".5" d="M1018.3687,-9.5C1028.4262,-9.5 1038.6538,-9.5 1048.8704,-9.5"/>
<polygon fill="#000000" stroke="#000000" stroke-width=".5" points="1048.8841,-11.2501 1053.8841,-9.5 1048.8841,-7.7501 1048.8841,-11.2501"/>
</g>
</g>
</svg>
