<?xml version="1.0" encoding="UTF-8" standalone="no"?>
<!DOCTYPE svg PUBLIC "-//W3C//DTD SVG 1.1//EN"
 "http://www.w3.org/Graphics/SVG/1.1/DTD/svg11.dtd">
<!-- Generated by graphviz version 2.40.1 (20161225.0304)
 -->
<!-- Title: inheritancea34f92a824 Pages: 1 -->
<svg width="576pt" height="41pt"
 viewBox="0.00 0.00 576.00 40.69" xmlns="http://www.w3.org/2000/svg" xmlns:xlink="http://www.w3.org/1999/xlink">
<g id="graph0" class="graph" transform="scale(.6358 .6358) rotate(0) translate(4 60)">
<title>inheritancea34f92a824</title>
<polygon fill="#ffffff" stroke="transparent" points="-4,4 -4,-60 902,-60 902,4 -4,4"/>
<!-- pyGHDL.dom.DOMMixin -->
<g id="node1" class="node">
<title>pyGHDL.dom.DOMMixin</title>
<g id="a_node1"><a xlink:href="../pyGHDL.dom.html#pyGHDL.dom.DOMMixin" xlink:title="pyGHDL.dom.DOMMixin" target="_top">
<polygon fill="none" stroke="#000000" stroke-width=".5" points="634,-56 500,-56 500,-37 634,-37 634,-56"/>
<text text-anchor="middle" x="567" y="-44" font-family="Vera Sans, DejaVu Sans, Liberation Sans, Arial, Helvetica, sans" font-size="10.00" fill="#000000">pyGHDL.dom.DOMMixin</text>
</a>
</g>
</g>
<!-- pyGHDL.dom.Symbol.EntitySymbol -->
<g id="node2" class="node">
<title>pyGHDL.dom.Symbol.EntitySymbol</title>
<g id="a_node2"><a xlink:href="../pyGHDL/pyGHDL.dom.Symbol.html#pyGHDL.dom.Symbol.EntitySymbol" xlink:title="pyGHDL.dom.Symbol.EntitySymbol" target="_top">
<polygon fill="none" stroke="#000000" stroke-width=".5" points="898,-37 709,-37 709,-18 898,-18 898,-37"/>
<text text-anchor="middle" x="803.5" y="-25" font-family="Vera Sans, DejaVu Sans, Liberation Sans, Arial, Helvetica, sans" font-size="10.00" fill="#000000">pyGHDL.dom.Symbol.EntitySymbol</text>
</a>
</g>
</g>
<!-- pyGHDL.dom.DOMMixin&#45;&gt;pyGHDL.dom.Symbol.EntitySymbol -->
<g id="edge2" class="edge">
<title>pyGHDL.dom.DOMMixin&#45;&gt;pyGHDL.dom.Symbol.EntitySymbol</title>
<path fill="none" stroke="#000000" stroke-width=".5" d="M634.1388,-41.1062C655.8127,-39.3649 680.3233,-37.3958 703.8293,-35.5074"/>
<polygon fill="#000000" stroke="#000000" stroke-width=".5" points="703.9848,-37.2506 708.8286,-35.1057 703.7045,-33.7618 703.9848,-37.2506"/>
</g>
<!-- pyVHDLModel.VHDLModel.EntitySymbol -->
<g id="node3" class="node">
<title>pyVHDLModel.VHDLModel.EntitySymbol</title>
<polygon fill="none" stroke="#000000" stroke-width=".5" points="673,-19 461,-19 461,0 673,0 673,-19"/>
<text text-anchor="middle" x="567" y="-7" font-family="Vera Sans, DejaVu Sans, Liberation Sans, Arial, Helvetica, sans" font-size="10.00" fill="#000000">pyVHDLModel.VHDLModel.EntitySymbol</text>
</g>
<!-- pyVHDLModel.VHDLModel.EntitySymbol&#45;&gt;pyGHDL.dom.Symbol.EntitySymbol -->
<g id="edge1" class="edge">
<title>pyVHDLModel.VHDLModel.EntitySymbol&#45;&gt;pyGHDL.dom.Symbol.EntitySymbol</title>
<path fill="none" stroke="#000000" stroke-width=".5" d="M673.1436,-17.5786C683.2868,-18.3506 693.55,-19.1317 703.6305,-19.8989"/>
<polygon fill="#000000" stroke="#000000" stroke-width=".5" points="703.7653,-21.6642 708.8838,-20.2988 704.031,-18.1743 703.7653,-21.6642"/>
</g>
<!-- pyVHDLModel.VHDLModel.Symbol -->
<g id="node4" class="node">
<title>pyVHDLModel.VHDLModel.Symbol</title>
<polygon fill="none" stroke="#000000" stroke-width=".5" points="425,-19 241,-19 241,0 425,0 425,-19"/>
<text text-anchor="middle" x="333" y="-7" font-family="Vera Sans, DejaVu Sans, Liberation Sans, Arial, Helvetica, sans" font-size="10.00" fill="#000000">pyVHDLModel.VHDLModel.Symbol</text>
</g>
<!-- pyVHDLModel.VHDLModel.Symbol&#45;&gt;pyVHDLModel.VHDLModel.EntitySymbol -->
<g id="edge3" class="edge">
<title>pyVHDLModel.VHDLModel.Symbol&#45;&gt;pyVHDLModel.VHDLModel.EntitySymbol</title>
<path fill="none" stroke="#000000" stroke-width=".5" d="M425.1471,-9.5C435.2588,-9.5 445.6301,-9.5 455.9397,-9.5"/>
<polygon fill="#000000" stroke="#000000" stroke-width=".5" points="455.9945,-11.2501 460.9945,-9.5 455.9944,-7.7501 455.9945,-11.2501"/>
</g>
<!-- pyVHDLModel.VHDLModel.ModelEntity -->
<g id="node5" class="node">
<title>pyVHDLModel.VHDLModel.ModelEntity</title>
<g id="a_node5"><a xlink:title="``ModelEntity`` is the base class for all classes in the VHDL language model,">
<polygon fill="none" stroke="#000000" stroke-width=".5" points="205,-19 0,-19 0,0 205,0 205,-19"/>
<text text-anchor="middle" x="102.5" y="-7" font-family="Vera Sans, DejaVu Sans, Liberation Sans, Arial, Helvetica, sans" font-size="10.00" fill="#000000">pyVHDLModel.VHDLModel.ModelEntity</text>
</a>
</g>
</g>
<!-- pyVHDLModel.VHDLModel.ModelEntity&#45;&gt;pyVHDLModel.VHDLModel.Symbol -->
<g id="edge4" class="edge">
<title>pyVHDLModel.VHDLModel.ModelEntity&#45;&gt;pyVHDLModel.VHDLModel.Symbol</title>
<path fill="none" stroke="#000000" stroke-width=".5" d="M205.2788,-9.5C215.3998,-9.5 225.6505,-9.5 235.7139,-9.5"/>
<polygon fill="#000000" stroke="#000000" stroke-width=".5" points="235.9577,-11.2501 240.9577,-9.5 235.9577,-7.7501 235.9577,-11.2501"/>
</g>
</g>
</svg>
