<?xml version="1.0" encoding="UTF-8" standalone="no"?>
<!DOCTYPE svg PUBLIC "-//W3C//DTD SVG 1.1//EN"
 "http://www.w3.org/Graphics/SVG/1.1/DTD/svg11.dtd">
<!-- Generated by graphviz version 2.40.1 (20161225.0304)
 -->
<!-- Title: inheritanceec0550a951 Pages: 1 -->
<svg width="576pt" height="38pt"
 viewBox="0.00 0.00 576.00 37.64" xmlns="http://www.w3.org/2000/svg" xmlns:xlink="http://www.w3.org/1999/xlink">
<g id="graph0" class="graph" transform="scale(.4535 .4535) rotate(0) translate(4 79)">
<title>inheritanceec0550a951</title>
<polygon fill="#ffffff" stroke="transparent" points="-4,4 -4,-79 1266,-79 1266,4 -4,4"/>
<!-- pyGHDL.dom.DOMMixin -->
<g id="node1" class="node">
<title>pyGHDL.dom.DOMMixin</title>
<g id="a_node1"><a xlink:href="../pyGHDL.dom.html#pyGHDL.dom.DOMMixin" xlink:title="pyGHDL.dom.DOMMixin" target="_top">
<polygon fill="none" stroke="#000000" stroke-width=".5" points="981,-74 847,-74 847,-55 981,-55 981,-74"/>
<text text-anchor="middle" x="914" y="-62" font-family="Vera Sans, DejaVu Sans, Liberation Sans, Arial, Helvetica, sans" font-size="10.00" fill="#000000">pyGHDL.dom.DOMMixin</text>
</a>
</g>
</g>
<!-- pyGHDL.dom.DesignUnit.Configuration -->
<g id="node2" class="node">
<title>pyGHDL.dom.DesignUnit.Configuration</title>
<g id="a_node2"><a xlink:href="../pyGHDL/pyGHDL.dom.DesignUnit.html#pyGHDL.dom.DesignUnit.Configuration" xlink:title="pyGHDL.dom.DesignUnit.Configuration" target="_top">
<polygon fill="none" stroke="#000000" stroke-width=".5" points="1262,-55 1056,-55 1056,-36 1262,-36 1262,-55"/>
<text text-anchor="middle" x="1159" y="-43" font-family="Vera Sans, DejaVu Sans, Liberation Sans, Arial, Helvetica, sans" font-size="10.00" fill="#000000">pyGHDL.dom.DesignUnit.Configuration</text>
</a>
</g>
</g>
<!-- pyGHDL.dom.DOMMixin&#45;&gt;pyGHDL.dom.DesignUnit.Configuration -->
<g id="edge2" class="edge">
<title>pyGHDL.dom.DOMMixin&#45;&gt;pyGHDL.dom.DesignUnit.Configuration</title>
<path fill="none" stroke="#000000" stroke-width=".5" d="M981.2714,-59.283C1002.6963,-57.6215 1026.9719,-55.7389 1050.5444,-53.9108"/>
<polygon fill="#000000" stroke="#000000" stroke-width=".5" points="1050.7129,-55.6531 1055.5626,-53.5217 1050.4422,-52.1636 1050.7129,-55.6531"/>
</g>
<!-- pyVHDLModel.VHDLModel.Configuration -->
<g id="node3" class="node">
<title>pyVHDLModel.VHDLModel.Configuration</title>
<polygon fill="none" stroke="#000000" stroke-width=".5" points="1020,-37 808,-37 808,-18 1020,-18 1020,-37"/>
<text text-anchor="middle" x="914" y="-25" font-family="Vera Sans, DejaVu Sans, Liberation Sans, Arial, Helvetica, sans" font-size="10.00" fill="#000000">pyVHDLModel.VHDLModel.Configuration</text>
</g>
<!-- pyVHDLModel.VHDLModel.Configuration&#45;&gt;pyGHDL.dom.DesignUnit.Configuration -->
<g id="edge1" class="edge">
<title>pyVHDLModel.VHDLModel.Configuration&#45;&gt;pyGHDL.dom.DesignUnit.Configuration</title>
<path fill="none" stroke="#000000" stroke-width=".5" d="M1020.0356,-35.2904C1030.2603,-36.0416 1040.6409,-36.8042 1050.8854,-37.5569"/>
<polygon fill="#000000" stroke="#000000" stroke-width=".5" points="1050.7875,-39.3043 1055.9023,-37.9255 1051.044,-35.8137 1050.7875,-39.3043"/>
</g>
<!-- pyVHDLModel.VHDLModel.PrimaryUnit -->
<g id="node4" class="node">
<title>pyVHDLModel.VHDLModel.PrimaryUnit</title>
<g id="a_node4"><a xlink:title="A ``PrimaryUnit`` is a base&#45;class for all primary units.">
<polygon fill="none" stroke="#000000" stroke-width=".5" points="731,-56 525,-56 525,-37 731,-37 731,-56"/>
<text text-anchor="middle" x="628" y="-44" font-family="Vera Sans, DejaVu Sans, Liberation Sans, Arial, Helvetica, sans" font-size="10.00" fill="#000000">pyVHDLModel.VHDLModel.PrimaryUnit</text>
</a>
</g>
</g>
<!-- pyVHDLModel.VHDLModel.PrimaryUnit&#45;&gt;pyVHDLModel.VHDLModel.Configuration -->
<g id="edge3" class="edge">
<title>pyVHDLModel.VHDLModel.PrimaryUnit&#45;&gt;pyVHDLModel.VHDLModel.Configuration</title>
<path fill="none" stroke="#000000" stroke-width=".5" d="M731.2526,-39.6406C754.406,-38.1024 779.0697,-36.4639 802.5403,-34.9047"/>
<polygon fill="#000000" stroke="#000000" stroke-width=".5" points="802.6566,-36.6509 807.5296,-34.5732 802.4245,-33.1586 802.6566,-36.6509"/>
</g>
<!-- pyVHDLModel.VHDLModel.MixinDesignUnitWithContext -->
<g id="node5" class="node">
<title>pyVHDLModel.VHDLModel.MixinDesignUnitWithContext</title>
<g id="a_node5"><a xlink:title="A ``DesignUnitWithReferences`` is a base&#45;class for all design units with contexts.">
<polygon fill="none" stroke="#000000" stroke-width=".5" points="772,-19 484,-19 484,0 772,0 772,-19"/>
<text text-anchor="middle" x="628" y="-7" font-family="Vera Sans, DejaVu Sans, Liberation Sans, Arial, Helvetica, sans" font-size="10.00" fill="#000000">pyVHDLModel.VHDLModel.MixinDesignUnitWithContext</text>
</a>
</g>
</g>
<!-- pyVHDLModel.VHDLModel.MixinDesignUnitWithContext&#45;&gt;pyVHDLModel.VHDLModel.Configuration -->
<g id="edge4" class="edge">
<title>pyVHDLModel.VHDLModel.MixinDesignUnitWithContext&#45;&gt;pyVHDLModel.VHDLModel.Configuration</title>
<path fill="none" stroke="#000000" stroke-width=".5" d="M772.2568,-18.5791C782.4236,-19.219 792.5819,-19.8583 802.5262,-20.4842"/>
<polygon fill="#000000" stroke="#000000" stroke-width=".5" points="802.6057,-22.2425 807.7058,-20.8102 802.8256,-18.7495 802.6057,-22.2425"/>
</g>
<!-- pyVHDLModel.VHDLModel.DesignUnit -->
<g id="node6" class="node">
<title>pyVHDLModel.VHDLModel.DesignUnit</title>
<g id="a_node6"><a xlink:title="A ``DesignUnit`` is a base&#45;class for all design units.">
<polygon fill="none" stroke="#000000" stroke-width=".5" points="448,-56 247,-56 247,-37 448,-37 448,-56"/>
<text text-anchor="middle" x="347.5" y="-44" font-family="Vera Sans, DejaVu Sans, Liberation Sans, Arial, Helvetica, sans" font-size="10.00" fill="#000000">pyVHDLModel.VHDLModel.DesignUnit</text>
</a>
</g>
</g>
<!-- pyVHDLModel.VHDLModel.DesignUnit&#45;&gt;pyVHDLModel.VHDLModel.PrimaryUnit -->
<g id="edge7" class="edge">
<title>pyVHDLModel.VHDLModel.DesignUnit&#45;&gt;pyVHDLModel.VHDLModel.PrimaryUnit</title>
<path fill="none" stroke="#000000" stroke-width=".5" d="M448.3706,-46.5C471.4418,-46.5 496.0601,-46.5 519.4388,-46.5"/>
<polygon fill="#000000" stroke="#000000" stroke-width=".5" points="519.7208,-48.2501 524.7207,-46.5 519.7207,-44.7501 519.7208,-48.2501"/>
</g>
<!-- pyVHDLModel.VHDLModel.ModelEntity -->
<g id="node7" class="node">
<title>pyVHDLModel.VHDLModel.ModelEntity</title>
<g id="a_node7"><a xlink:title="``ModelEntity`` is the base class for all classes in the VHDL language model,">
<polygon fill="none" stroke="#000000" stroke-width=".5" points="208,-75 3,-75 3,-56 208,-56 208,-75"/>
<text text-anchor="middle" x="105.5" y="-63" font-family="Vera Sans, DejaVu Sans, Liberation Sans, Arial, Helvetica, sans" font-size="10.00" fill="#000000">pyVHDLModel.VHDLModel.ModelEntity</text>
</a>
</g>
</g>
<!-- pyVHDLModel.VHDLModel.ModelEntity&#45;&gt;pyVHDLModel.VHDLModel.DesignUnit -->
<g id="edge5" class="edge">
<title>pyVHDLModel.VHDLModel.ModelEntity&#45;&gt;pyVHDLModel.VHDLModel.DesignUnit</title>
<path fill="none" stroke="#000000" stroke-width=".5" d="M208.1298,-57.4423C219.1894,-56.574 230.4586,-55.6892 241.5563,-54.8179"/>
<polygon fill="#000000" stroke="#000000" stroke-width=".5" points="241.7941,-56.5547 246.6417,-54.4186 241.5201,-53.0654 241.7941,-56.5547"/>
</g>
<!-- pyVHDLModel.VHDLModel.NamedEntity -->
<g id="node8" class="node">
<title>pyVHDLModel.VHDLModel.NamedEntity</title>
<g id="a_node8"><a xlink:title="A ``NamedEntity`` is a mixin class for all VHDL entities that have identifiers.">
<polygon fill="none" stroke="#000000" stroke-width=".5" points="211,-38 0,-38 0,-19 211,-19 211,-38"/>
<text text-anchor="middle" x="105.5" y="-26" font-family="Vera Sans, DejaVu Sans, Liberation Sans, Arial, Helvetica, sans" font-size="10.00" fill="#000000">pyVHDLModel.VHDLModel.NamedEntity</text>
</a>
</g>
</g>
<!-- pyVHDLModel.VHDLModel.NamedEntity&#45;&gt;pyVHDLModel.VHDLModel.DesignUnit -->
<g id="edge6" class="edge">
<title>pyVHDLModel.VHDLModel.NamedEntity&#45;&gt;pyVHDLModel.VHDLModel.DesignUnit</title>
<path fill="none" stroke="#000000" stroke-width=".5" d="M211.2927,-36.3689C221.3651,-37.1181 231.5804,-37.8779 241.6533,-38.6271"/>
<polygon fill="#000000" stroke="#000000" stroke-width=".5" points="241.7902,-40.392 246.9063,-39.0178 242.0499,-36.9017 241.7902,-40.392"/>
</g>
</g>
</svg>
