<?xml version="1.0" encoding="UTF-8" standalone="no"?>
<!DOCTYPE svg PUBLIC "-//W3C//DTD SVG 1.1//EN"
 "http://www.w3.org/Graphics/SVG/1.1/DTD/svg11.dtd">
<!-- Generated by graphviz version 2.40.1 (20161225.0304)
 -->
<!-- Title: inheritance2514071e65 Pages: 1 -->
<svg width="576pt" height="53pt"
 viewBox="0.00 0.00 576.00 52.89" xmlns="http://www.w3.org/2000/svg" xmlns:xlink="http://www.w3.org/1999/xlink">
<g id="graph0" class="graph" transform="scale(.3832 .3832) rotate(0) translate(4 134)">
<title>inheritance2514071e65</title>
<polygon fill="#ffffff" stroke="transparent" points="-4,4 -4,-134 1499,-134 1499,4 -4,4"/>
<!-- pyGHDL.dom.DOMMixin -->
<g id="node1" class="node">
<title>pyGHDL.dom.DOMMixin</title>
<g id="a_node1"><a xlink:href="../pyGHDL.dom.html#pyGHDL.dom.DOMMixin" xlink:title="pyGHDL.dom.DOMMixin" target="_top">
<polygon fill="none" stroke="#000000" stroke-width=".5" points="1080.5,-130 946.5,-130 946.5,-111 1080.5,-111 1080.5,-130"/>
<text text-anchor="middle" x="1013.5" y="-118" font-family="Vera Sans, DejaVu Sans, Liberation Sans, Arial, Helvetica, sans" font-size="10.00" fill="#000000">pyGHDL.dom.DOMMixin</text>
</a>
</g>
</g>
<!-- pyGHDL.dom.InterfaceItem.ParameterSignalInterfaceItem -->
<g id="node2" class="node">
<title>pyGHDL.dom.InterfaceItem.ParameterSignalInterfaceItem</title>
<g id="a_node2"><a xlink:href="../pyGHDL/pyGHDL.dom.InterfaceItem.html#pyGHDL.dom.InterfaceItem.ParameterSignalInterfaceItem" xlink:title="pyGHDL.dom.InterfaceItem.ParameterSignalInterfaceItem" target="_top">
<polygon fill="none" stroke="#000000" stroke-width=".5" points="1495,-111 1196,-111 1196,-92 1495,-92 1495,-111"/>
<text text-anchor="middle" x="1345.5" y="-99" font-family="Vera Sans, DejaVu Sans, Liberation Sans, Arial, Helvetica, sans" font-size="10.00" fill="#000000">pyGHDL.dom.InterfaceItem.ParameterSignalInterfaceItem</text>
</a>
</g>
</g>
<!-- pyGHDL.dom.DOMMixin&#45;&gt;pyGHDL.dom.InterfaceItem.ParameterSignalInterfaceItem -->
<g id="edge2" class="edge">
<title>pyGHDL.dom.DOMMixin&#45;&gt;pyGHDL.dom.InterfaceItem.ParameterSignalInterfaceItem</title>
<path fill="none" stroke="#000000" stroke-width=".5" d="M1080.6852,-116.6551C1112.5092,-114.8338 1151.9515,-112.5766 1190.589,-110.3654"/>
<polygon fill="#000000" stroke="#000000" stroke-width=".5" points="1190.8958,-112.1008 1195.7877,-110.0679 1190.6958,-108.6065 1190.8958,-112.1008"/>
</g>
<!-- pyVHDLModel.VHDLModel.ParameterSignalInterfaceItem -->
<g id="node3" class="node">
<title>pyVHDLModel.VHDLModel.ParameterSignalInterfaceItem</title>
<polygon fill="none" stroke="#000000" stroke-width=".5" points="1160,-93 867,-93 867,-74 1160,-74 1160,-93"/>
<text text-anchor="middle" x="1013.5" y="-81" font-family="Vera Sans, DejaVu Sans, Liberation Sans, Arial, Helvetica, sans" font-size="10.00" fill="#000000">pyVHDLModel.VHDLModel.ParameterSignalInterfaceItem</text>
</g>
<!-- pyVHDLModel.VHDLModel.ParameterSignalInterfaceItem&#45;&gt;pyGHDL.dom.InterfaceItem.ParameterSignalInterfaceItem -->
<g id="edge1" class="edge">
<title>pyVHDLModel.VHDLModel.ParameterSignalInterfaceItem&#45;&gt;pyGHDL.dom.InterfaceItem.ParameterSignalInterfaceItem</title>
<path fill="none" stroke="#000000" stroke-width=".5" d="M1160.0865,-91.4475C1170.3121,-92.0019 1180.6374,-92.5617 1190.9043,-93.1183"/>
<polygon fill="#000000" stroke="#000000" stroke-width=".5" points="1190.8515,-94.8679 1195.939,-93.3913 1191.0411,-91.3731 1190.8515,-94.8679"/>
</g>
<!-- pyVHDLModel.VHDLModel.InterfaceItem -->
<g id="node4" class="node">
<title>pyVHDLModel.VHDLModel.InterfaceItem</title>
<g id="a_node4"><a xlink:title="An ``InterfaceItem`` is a base&#45;class for all mixin&#45;classes for all interface">
<polygon fill="none" stroke="#000000" stroke-width=".5" points="496,-93 283,-93 283,-74 496,-74 496,-93"/>
<text text-anchor="middle" x="389.5" y="-81" font-family="Vera Sans, DejaVu Sans, Liberation Sans, Arial, Helvetica, sans" font-size="10.00" fill="#000000">pyVHDLModel.VHDLModel.InterfaceItem</text>
</a>
</g>
</g>
<!-- pyVHDLModel.VHDLModel.ParameterInterfaceItem -->
<g id="node9" class="node">
<title>pyVHDLModel.VHDLModel.ParameterInterfaceItem</title>
<g id="a_node9"><a xlink:title="A ``ParameterInterfaceItem`` is a mixin class for all parameter interface items.">
<polygon fill="none" stroke="#000000" stroke-width=".5" points="831,-93 568,-93 568,-74 831,-74 831,-93"/>
<text text-anchor="middle" x="699.5" y="-81" font-family="Vera Sans, DejaVu Sans, Liberation Sans, Arial, Helvetica, sans" font-size="10.00" fill="#000000">pyVHDLModel.VHDLModel.ParameterInterfaceItem</text>
</a>
</g>
</g>
<!-- pyVHDLModel.VHDLModel.InterfaceItem&#45;&gt;pyVHDLModel.VHDLModel.ParameterInterfaceItem -->
<g id="edge5" class="edge">
<title>pyVHDLModel.VHDLModel.InterfaceItem&#45;&gt;pyVHDLModel.VHDLModel.ParameterInterfaceItem</title>
<path fill="none" stroke="#000000" stroke-width=".5" d="M496.1844,-83.5C517.6774,-83.5 540.5476,-83.5 562.9,-83.5"/>
<polygon fill="#000000" stroke="#000000" stroke-width=".5" points="562.9619,-85.2501 567.9619,-83.5 562.9618,-81.7501 562.9619,-85.2501"/>
</g>
<!-- pyVHDLModel.VHDLModel.InterfaceItemWithMode -->
<g id="node5" class="node">
<title>pyVHDLModel.VHDLModel.InterfaceItemWithMode</title>
<g id="a_node5"><a xlink:title="An ``InterfaceItemWithMode`` is a mixin&#45;class to provide a ``Mode`` to">
<polygon fill="none" stroke="#000000" stroke-width=".5" points="830.5,-130 568.5,-130 568.5,-111 830.5,-111 830.5,-130"/>
<text text-anchor="middle" x="699.5" y="-118" font-family="Vera Sans, DejaVu Sans, Liberation Sans, Arial, Helvetica, sans" font-size="10.00" fill="#000000">pyVHDLModel.VHDLModel.InterfaceItemWithMode</text>
</a>
</g>
</g>
<!-- pyVHDLModel.VHDLModel.InterfaceItemWithMode&#45;&gt;pyVHDLModel.VHDLModel.ParameterSignalInterfaceItem -->
<g id="edge8" class="edge">
<title>pyVHDLModel.VHDLModel.InterfaceItemWithMode&#45;&gt;pyVHDLModel.VHDLModel.ParameterSignalInterfaceItem</title>
<path fill="none" stroke="#000000" stroke-width=".5" d="M780.3628,-110.9716C825.5084,-105.6519 881.7362,-99.0263 927.6608,-93.6148"/>
<polygon fill="#000000" stroke="#000000" stroke-width=".5" points="927.878,-95.3514 932.6388,-93.0282 927.4683,-91.8755 927.878,-95.3514"/>
</g>
<!-- pyVHDLModel.VHDLModel.ModelEntity -->
<g id="node6" class="node">
<title>pyVHDLModel.VHDLModel.ModelEntity</title>
<g id="a_node6"><a xlink:title="``ModelEntity`` is the base class for all classes in the VHDL language model,">
<polygon fill="none" stroke="#000000" stroke-width=".5" points="208,-74 3,-74 3,-55 208,-55 208,-74"/>
<text text-anchor="middle" x="105.5" y="-62" font-family="Vera Sans, DejaVu Sans, Liberation Sans, Arial, Helvetica, sans" font-size="10.00" fill="#000000">pyVHDLModel.VHDLModel.ModelEntity</text>
</a>
</g>
</g>
<!-- pyVHDLModel.VHDLModel.Obj -->
<g id="node8" class="node">
<title>pyVHDLModel.VHDLModel.Obj</title>
<polygon fill="none" stroke="#000000" stroke-width=".5" points="471.5,-56 307.5,-56 307.5,-37 471.5,-37 471.5,-56"/>
<text text-anchor="middle" x="389.5" y="-44" font-family="Vera Sans, DejaVu Sans, Liberation Sans, Arial, Helvetica, sans" font-size="10.00" fill="#000000">pyVHDLModel.VHDLModel.Obj</text>
</g>
<!-- pyVHDLModel.VHDLModel.ModelEntity&#45;&gt;pyVHDLModel.VHDLModel.Obj -->
<g id="edge3" class="edge">
<title>pyVHDLModel.VHDLModel.ModelEntity&#45;&gt;pyVHDLModel.VHDLModel.Obj</title>
<path fill="none" stroke="#000000" stroke-width=".5" d="M208.0305,-58.0016C238.8204,-56.0501 272.2997,-53.9282 302.0215,-52.0444"/>
<polygon fill="#000000" stroke="#000000" stroke-width=".5" points="302.2616,-53.7828 307.1409,-51.7199 302.0402,-50.2898 302.2616,-53.7828"/>
</g>
<!-- pyVHDLModel.VHDLModel.NamedEntity -->
<g id="node7" class="node">
<title>pyVHDLModel.VHDLModel.NamedEntity</title>
<g id="a_node7"><a xlink:title="A ``NamedEntity`` is a mixin class for all VHDL entities that have identifiers.">
<polygon fill="none" stroke="#000000" stroke-width=".5" points="211,-37 0,-37 0,-18 211,-18 211,-37"/>
<text text-anchor="middle" x="105.5" y="-25" font-family="Vera Sans, DejaVu Sans, Liberation Sans, Arial, Helvetica, sans" font-size="10.00" fill="#000000">pyVHDLModel.VHDLModel.NamedEntity</text>
</a>
</g>
</g>
<!-- pyVHDLModel.VHDLModel.NamedEntity&#45;&gt;pyVHDLModel.VHDLModel.Obj -->
<g id="edge4" class="edge">
<title>pyVHDLModel.VHDLModel.NamedEntity&#45;&gt;pyVHDLModel.VHDLModel.Obj</title>
<path fill="none" stroke="#000000" stroke-width=".5" d="M211.2511,-34.5749C241.0926,-36.5713 273.223,-38.7209 301.8746,-40.6377"/>
<polygon fill="#000000" stroke="#000000" stroke-width=".5" points="302.0769,-42.4051 307.1826,-40.9929 302.3106,-38.9129 302.0769,-42.4051"/>
</g>
<!-- pyVHDLModel.VHDLModel.Signal -->
<g id="node10" class="node">
<title>pyVHDLModel.VHDLModel.Signal</title>
<polygon fill="none" stroke="#000000" stroke-width=".5" points="788,-56 611,-56 611,-37 788,-37 788,-56"/>
<text text-anchor="middle" x="699.5" y="-44" font-family="Vera Sans, DejaVu Sans, Liberation Sans, Arial, Helvetica, sans" font-size="10.00" fill="#000000">pyVHDLModel.VHDLModel.Signal</text>
</g>
<!-- pyVHDLModel.VHDLModel.Obj&#45;&gt;pyVHDLModel.VHDLModel.Signal -->
<g id="edge9" class="edge">
<title>pyVHDLModel.VHDLModel.Obj&#45;&gt;pyVHDLModel.VHDLModel.Signal</title>
<path fill="none" stroke="#000000" stroke-width=".5" d="M471.7604,-46.5C512.956,-46.5 563.0171,-46.5 605.7013,-46.5"/>
<polygon fill="#000000" stroke="#000000" stroke-width=".5" points="605.8691,-48.2501 610.8691,-46.5 605.869,-44.7501 605.8691,-48.2501"/>
</g>
<!-- pyVHDLModel.VHDLModel.ParameterInterfaceItem&#45;&gt;pyVHDLModel.VHDLModel.ParameterSignalInterfaceItem -->
<g id="edge7" class="edge">
<title>pyVHDLModel.VHDLModel.ParameterInterfaceItem&#45;&gt;pyVHDLModel.VHDLModel.ParameterSignalInterfaceItem</title>
<path fill="none" stroke="#000000" stroke-width=".5" d="M831.2995,-83.5C841.3955,-83.5 851.6344,-83.5 861.8431,-83.5"/>
<polygon fill="#000000" stroke="#000000" stroke-width=".5" points="861.8515,-85.2501 866.8514,-83.5 861.8514,-81.7501 861.8515,-85.2501"/>
</g>
<!-- pyVHDLModel.VHDLModel.Signal&#45;&gt;pyVHDLModel.VHDLModel.ParameterSignalInterfaceItem -->
<g id="edge6" class="edge">
<title>pyVHDLModel.VHDLModel.Signal&#45;&gt;pyVHDLModel.VHDLModel.ParameterSignalInterfaceItem</title>
<path fill="none" stroke="#000000" stroke-width=".5" d="M780.3628,-56.0284C825.5084,-61.3481 881.7362,-67.9737 927.6608,-73.3852"/>
<polygon fill="#000000" stroke="#000000" stroke-width=".5" points="927.4683,-75.1245 932.6388,-73.9718 927.878,-71.6486 927.4683,-75.1245"/>
</g>
<!-- pyVHDLModel.VHDLModel.WithDefaultExpressionMixin -->
<g id="node11" class="node">
<title>pyVHDLModel.VHDLModel.WithDefaultExpressionMixin</title>
<g id="a_node11"><a xlink:title="A ``WithDefaultExpression`` is a mixin class for all objects declarations">
<polygon fill="none" stroke="#000000" stroke-width=".5" points="532,-19 247,-19 247,0 532,0 532,-19"/>
<text text-anchor="middle" x="389.5" y="-7" font-family="Vera Sans, DejaVu Sans, Liberation Sans, Arial, Helvetica, sans" font-size="10.00" fill="#000000">pyVHDLModel.VHDLModel.WithDefaultExpressionMixin</text>
</a>
</g>
</g>
<!-- pyVHDLModel.VHDLModel.WithDefaultExpressionMixin&#45;&gt;pyVHDLModel.VHDLModel.Signal -->
<g id="edge10" class="edge">
<title>pyVHDLModel.VHDLModel.WithDefaultExpressionMixin&#45;&gt;pyVHDLModel.VHDLModel.Signal</title>
<path fill="none" stroke="#000000" stroke-width=".5" d="M469.3327,-19.0284C513.8129,-24.3374 569.19,-30.9469 614.4788,-36.3523"/>
<polygon fill="#000000" stroke="#000000" stroke-width=".5" points="614.4967,-38.1168 619.6689,-36.9718 614.9115,-34.6414 614.4967,-38.1168"/>
</g>
</g>
</svg>
