<?xml version="1.0" encoding="UTF-8" standalone="no"?>
<!DOCTYPE svg PUBLIC "-//W3C//DTD SVG 1.1//EN"
 "http://www.w3.org/Graphics/SVG/1.1/DTD/svg11.dtd">
<!-- Generated by graphviz version 2.40.1 (20161225.0304)
 -->
<!-- Title: inheritance55a76fa771 Pages: 1 -->
<svg width="576pt" height="33pt"
 viewBox="0.00 0.00 576.00 33.50" xmlns="http://www.w3.org/2000/svg" xmlns:xlink="http://www.w3.org/1999/xlink">
<g id="graph0" class="graph" transform="scale(.4085 .4085) rotate(0) translate(4 78)">
<title>inheritance55a76fa771</title>
<polygon fill="#ffffff" stroke="transparent" points="-4,4 -4,-78 1406,-78 1406,4 -4,4"/>
<!-- pyGHDL.dom.DOMMixin -->
<g id="node1" class="node">
<title>pyGHDL.dom.DOMMixin</title>
<g id="a_node1"><a xlink:href="../pyGHDL.dom.html#pyGHDL.dom.DOMMixin" xlink:title="pyGHDL.dom.DOMMixin" target="_top">
<polygon fill="none" stroke="#000000" stroke-width=".5" points="1148,-74 1014,-74 1014,-55 1148,-55 1148,-74"/>
<text text-anchor="middle" x="1081" y="-62" font-family="Vera Sans, DejaVu Sans, Liberation Sans, Arial, Helvetica, sans" font-size="10.00" fill="#000000">pyGHDL.dom.DOMMixin</text>
</a>
</g>
</g>
<!-- pyGHDL.dom.PSL.VerificationUnit -->
<g id="node2" class="node">
<title>pyGHDL.dom.PSL.VerificationUnit</title>
<g id="a_node2"><a xlink:href="../pyGHDL/pyGHDL.dom.PSL.html#pyGHDL.dom.PSL.VerificationUnit" xlink:title="pyGHDL.dom.PSL.VerificationUnit" target="_top">
<polygon fill="none" stroke="#000000" stroke-width=".5" points="1402,-55 1223,-55 1223,-36 1402,-36 1402,-55"/>
<text text-anchor="middle" x="1312.5" y="-43" font-family="Vera Sans, DejaVu Sans, Liberation Sans, Arial, Helvetica, sans" font-size="10.00" fill="#000000">pyGHDL.dom.PSL.VerificationUnit</text>
</a>
</g>
</g>
<!-- pyGHDL.dom.DOMMixin&#45;&gt;pyGHDL.dom.PSL.VerificationUnit -->
<g id="edge2" class="edge">
<title>pyGHDL.dom.DOMMixin&#45;&gt;pyGHDL.dom.PSL.VerificationUnit</title>
<path fill="none" stroke="#000000" stroke-width=".5" d="M1148.2704,-58.9789C1169.8658,-57.2065 1194.209,-55.2085 1217.4081,-53.3045"/>
<polygon fill="#000000" stroke="#000000" stroke-width=".5" points="1217.8104,-55.0275 1222.6505,-52.8743 1217.524,-51.5392 1217.8104,-55.0275"/>
</g>
<!-- pyVHDLModel.PSLModel.VerificationUnit -->
<g id="node3" class="node">
<title>pyVHDLModel.PSLModel.VerificationUnit</title>
<polygon fill="none" stroke="#000000" stroke-width=".5" points="1187,-37 975,-37 975,-18 1187,-18 1187,-37"/>
<text text-anchor="middle" x="1081" y="-25" font-family="Vera Sans, DejaVu Sans, Liberation Sans, Arial, Helvetica, sans" font-size="10.00" fill="#000000">pyVHDLModel.PSLModel.VerificationUnit</text>
</g>
<!-- pyVHDLModel.PSLModel.VerificationUnit&#45;&gt;pyGHDL.dom.PSL.VerificationUnit -->
<g id="edge1" class="edge">
<title>pyVHDLModel.PSLModel.VerificationUnit&#45;&gt;pyGHDL.dom.PSL.VerificationUnit</title>
<path fill="none" stroke="#000000" stroke-width=".5" d="M1187.2643,-35.7625C1197.3862,-36.5495 1207.6055,-37.3441 1217.6097,-38.1219"/>
<polygon fill="#000000" stroke="#000000" stroke-width=".5" points="1217.6994,-39.8841 1222.8201,-38.527 1217.9708,-36.3946 1217.6994,-39.8841"/>
</g>
<!-- pyVHDLModel.PSLModel.PSLPrimaryUnit -->
<g id="node4" class="node">
<title>pyVHDLModel.PSLModel.PSLPrimaryUnit</title>
<polygon fill="none" stroke="#000000" stroke-width=".5" points="939,-37 726,-37 726,-18 939,-18 939,-37"/>
<text text-anchor="middle" x="832.5" y="-25" font-family="Vera Sans, DejaVu Sans, Liberation Sans, Arial, Helvetica, sans" font-size="10.00" fill="#000000">pyVHDLModel.PSLModel.PSLPrimaryUnit</text>
</g>
<!-- pyVHDLModel.PSLModel.PSLPrimaryUnit&#45;&gt;pyVHDLModel.PSLModel.VerificationUnit -->
<g id="edge4" class="edge">
<title>pyVHDLModel.PSLModel.PSLPrimaryUnit&#45;&gt;pyVHDLModel.PSLModel.VerificationUnit</title>
<path fill="none" stroke="#000000" stroke-width=".5" d="M939.3285,-27.5C949.2983,-27.5 959.4208,-27.5 969.4323,-27.5"/>
<polygon fill="#000000" stroke="#000000" stroke-width=".5" points="969.6562,-29.2501 974.6562,-27.5 969.6562,-25.7501 969.6562,-29.2501"/>
</g>
<!-- pyVHDLModel.VHDLModel.PrimaryUnit -->
<g id="node5" class="node">
<title>pyVHDLModel.VHDLModel.PrimaryUnit</title>
<g id="a_node5"><a xlink:title="A ``PrimaryUnit`` is a base&#45;class for all primary units.">
<polygon fill="none" stroke="#000000" stroke-width=".5" points="690,-37 484,-37 484,-18 690,-18 690,-37"/>
<text text-anchor="middle" x="587" y="-25" font-family="Vera Sans, DejaVu Sans, Liberation Sans, Arial, Helvetica, sans" font-size="10.00" fill="#000000">pyVHDLModel.VHDLModel.PrimaryUnit</text>
</a>
</g>
</g>
<!-- pyVHDLModel.VHDLModel.PrimaryUnit&#45;&gt;pyVHDLModel.PSLModel.PSLPrimaryUnit -->
<g id="edge3" class="edge">
<title>pyVHDLModel.VHDLModel.PrimaryUnit&#45;&gt;pyVHDLModel.PSLModel.PSLPrimaryUnit</title>
<path fill="none" stroke="#000000" stroke-width=".5" d="M690.047,-27.5C700.1959,-27.5 710.5293,-27.5 720.7599,-27.5"/>
<polygon fill="#000000" stroke="#000000" stroke-width=".5" points="720.7727,-29.2501 725.7727,-27.5 720.7727,-25.7501 720.7727,-29.2501"/>
</g>
<!-- pyVHDLModel.VHDLModel.DesignUnit -->
<g id="node6" class="node">
<title>pyVHDLModel.VHDLModel.DesignUnit</title>
<g id="a_node6"><a xlink:title="A ``DesignUnit`` is a base&#45;class for all design units.">
<polygon fill="none" stroke="#000000" stroke-width=".5" points="448,-37 247,-37 247,-18 448,-18 448,-37"/>
<text text-anchor="middle" x="347.5" y="-25" font-family="Vera Sans, DejaVu Sans, Liberation Sans, Arial, Helvetica, sans" font-size="10.00" fill="#000000">pyVHDLModel.VHDLModel.DesignUnit</text>
</a>
</g>
</g>
<!-- pyVHDLModel.VHDLModel.DesignUnit&#45;&gt;pyVHDLModel.VHDLModel.PrimaryUnit -->
<g id="edge7" class="edge">
<title>pyVHDLModel.VHDLModel.DesignUnit&#45;&gt;pyVHDLModel.VHDLModel.PrimaryUnit</title>
<path fill="none" stroke="#000000" stroke-width=".5" d="M448.0286,-27.5C458.0574,-27.5 468.271,-27.5 478.3779,-27.5"/>
<polygon fill="#000000" stroke="#000000" stroke-width=".5" points="478.652,-29.2501 483.6519,-27.5 478.6519,-25.7501 478.652,-29.2501"/>
</g>
<!-- pyVHDLModel.VHDLModel.ModelEntity -->
<g id="node7" class="node">
<title>pyVHDLModel.VHDLModel.ModelEntity</title>
<g id="a_node7"><a xlink:title="``ModelEntity`` is the base class for all classes in the VHDL language model,">
<polygon fill="none" stroke="#000000" stroke-width=".5" points="208,-56 3,-56 3,-37 208,-37 208,-56"/>
<text text-anchor="middle" x="105.5" y="-44" font-family="Vera Sans, DejaVu Sans, Liberation Sans, Arial, Helvetica, sans" font-size="10.00" fill="#000000">pyVHDLModel.VHDLModel.ModelEntity</text>
</a>
</g>
</g>
<!-- pyVHDLModel.VHDLModel.ModelEntity&#45;&gt;pyVHDLModel.VHDLModel.DesignUnit -->
<g id="edge5" class="edge">
<title>pyVHDLModel.VHDLModel.ModelEntity&#45;&gt;pyVHDLModel.VHDLModel.DesignUnit</title>
<path fill="none" stroke="#000000" stroke-width=".5" d="M208.1298,-38.4423C219.1894,-37.574 230.4586,-36.6892 241.5563,-35.8179"/>
<polygon fill="#000000" stroke="#000000" stroke-width=".5" points="241.7941,-37.5547 246.6417,-35.4186 241.5201,-34.0654 241.7941,-37.5547"/>
</g>
<!-- pyVHDLModel.VHDLModel.NamedEntity -->
<g id="node8" class="node">
<title>pyVHDLModel.VHDLModel.NamedEntity</title>
<g id="a_node8"><a xlink:title="A ``NamedEntity`` is a mixin class for all VHDL entities that have identifiers.">
<polygon fill="none" stroke="#000000" stroke-width=".5" points="211,-19 0,-19 0,0 211,0 211,-19"/>
<text text-anchor="middle" x="105.5" y="-7" font-family="Vera Sans, DejaVu Sans, Liberation Sans, Arial, Helvetica, sans" font-size="10.00" fill="#000000">pyVHDLModel.VHDLModel.NamedEntity</text>
</a>
</g>
</g>
<!-- pyVHDLModel.VHDLModel.NamedEntity&#45;&gt;pyVHDLModel.VHDLModel.DesignUnit -->
<g id="edge6" class="edge">
<title>pyVHDLModel.VHDLModel.NamedEntity&#45;&gt;pyVHDLModel.VHDLModel.DesignUnit</title>
<path fill="none" stroke="#000000" stroke-width=".5" d="M211.2927,-17.3689C221.3651,-18.1181 231.5804,-18.8779 241.6533,-19.6271"/>
<polygon fill="#000000" stroke="#000000" stroke-width=".5" points="241.7902,-21.392 246.9063,-20.0178 242.0499,-17.9017 241.7902,-21.392"/>
</g>
</g>
</svg>
