<?xml version="1.0" encoding="UTF-8" standalone="no"?>
<!DOCTYPE svg PUBLIC "-//W3C//DTD SVG 1.1//EN"
 "http://www.w3.org/Graphics/SVG/1.1/DTD/svg11.dtd">
<!-- Generated by graphviz version 2.40.1 (20161225.0304)
 -->
<!-- Title: inheritancea62abb66e0 Pages: 1 -->
<svg width="576pt" height="19pt"
 viewBox="0.00 0.00 576.00 18.80" xmlns="http://www.w3.org/2000/svg" xmlns:xlink="http://www.w3.org/1999/xlink">
<g id="graph0" class="graph" transform="scale(.2937 .2937) rotate(0) translate(4 60)">
<title>inheritancea62abb66e0</title>
<polygon fill="#ffffff" stroke="transparent" points="-4,4 -4,-60 1957,-60 1957,4 -4,4"/>
<!-- pyGHDL.dom.DOMMixin -->
<g id="node1" class="node">
<title>pyGHDL.dom.DOMMixin</title>
<g id="a_node1"><a xlink:href="../pyGHDL.dom.html#pyGHDL.dom.DOMMixin" xlink:title="pyGHDL.dom.DOMMixin" target="_top">
<polygon fill="none" stroke="#000000" stroke-width=".5" points="1551.5,-56 1417.5,-56 1417.5,-37 1551.5,-37 1551.5,-56"/>
<text text-anchor="middle" x="1484.5" y="-44" font-family="Vera Sans, DejaVu Sans, Liberation Sans, Arial, Helvetica, sans" font-size="10.00" fill="#000000">pyGHDL.dom.DOMMixin</text>
</a>
</g>
</g>
<!-- pyGHDL.dom.Expression.ShiftLeftArithmeticExpression -->
<g id="node2" class="node">
<title>pyGHDL.dom.Expression.ShiftLeftArithmeticExpression</title>
<g id="a_node2"><a xlink:href="../pyGHDL/pyGHDL.dom.Expression.html#pyGHDL.dom.Expression.ShiftLeftArithmeticExpression" xlink:title="pyGHDL.dom.Expression.ShiftLeftArithmeticExpression" target="_top">
<polygon fill="none" stroke="#000000" stroke-width=".5" points="1953,-37 1667,-37 1667,-18 1953,-18 1953,-37"/>
<text text-anchor="middle" x="1810" y="-25" font-family="Vera Sans, DejaVu Sans, Liberation Sans, Arial, Helvetica, sans" font-size="10.00" fill="#000000">pyGHDL.dom.Expression.ShiftLeftArithmeticExpression</text>
</a>
</g>
</g>
<!-- pyGHDL.dom.DOMMixin&#45;&gt;pyGHDL.dom.Expression.ShiftLeftArithmeticExpression -->
<g id="edge2" class="edge">
<title>pyGHDL.dom.DOMMixin&#45;&gt;pyGHDL.dom.Expression.ShiftLeftArithmeticExpression</title>
<path fill="none" stroke="#000000" stroke-width=".5" d="M1551.5491,-42.5862C1583.5196,-40.7201 1623.1316,-38.4078 1661.6582,-36.159"/>
<polygon fill="#000000" stroke="#000000" stroke-width=".5" points="1661.9506,-37.895 1666.8401,-35.8565 1661.7466,-34.4009 1661.9506,-37.895"/>
</g>
<!-- pyVHDLModel.VHDLModel.ShiftLeftArithmeticExpression -->
<g id="node3" class="node">
<title>pyVHDLModel.VHDLModel.ShiftLeftArithmeticExpression</title>
<polygon fill="none" stroke="#000000" stroke-width=".5" points="1631,-19 1338,-19 1338,0 1631,0 1631,-19"/>
<text text-anchor="middle" x="1484.5" y="-7" font-family="Vera Sans, DejaVu Sans, Liberation Sans, Arial, Helvetica, sans" font-size="10.00" fill="#000000">pyVHDLModel.VHDLModel.ShiftLeftArithmeticExpression</text>
</g>
<!-- pyVHDLModel.VHDLModel.ShiftLeftArithmeticExpression&#45;&gt;pyGHDL.dom.Expression.ShiftLeftArithmeticExpression -->
<g id="edge1" class="edge">
<title>pyVHDLModel.VHDLModel.ShiftLeftArithmeticExpression&#45;&gt;pyGHDL.dom.Expression.ShiftLeftArithmeticExpression</title>
<path fill="none" stroke="#000000" stroke-width=".5" d="M1631.0624,-17.6048C1641.2858,-18.1702 1651.5953,-18.7403 1661.8273,-19.3061"/>
<polygon fill="#000000" stroke="#000000" stroke-width=".5" points="1661.7543,-21.0547 1666.8433,-19.5835 1661.9476,-17.56 1661.7543,-21.0547"/>
</g>
<!-- pyVHDLModel.VHDLModel.BaseExpression -->
<g id="node4" class="node">
<title>pyVHDLModel.VHDLModel.BaseExpression</title>
<g id="a_node4"><a xlink:title="A ``BaseExpression`` is a base&#45;class for all expressions.">
<polygon fill="none" stroke="#000000" stroke-width=".5" points="465,-19 241,-19 241,0 465,0 465,-19"/>
<text text-anchor="middle" x="353" y="-7" font-family="Vera Sans, DejaVu Sans, Liberation Sans, Arial, Helvetica, sans" font-size="10.00" fill="#000000">pyVHDLModel.VHDLModel.BaseExpression</text>
</a>
</g>
</g>
<!-- pyVHDLModel.VHDLModel.BinaryExpression -->
<g id="node6" class="node">
<title>pyVHDLModel.VHDLModel.BinaryExpression</title>
<g id="a_node6"><a xlink:title="A ``BinaryExpression`` is a base&#45;class for all binary expressions.">
<polygon fill="none" stroke="#000000" stroke-width=".5" points="733,-19 501,-19 501,0 733,0 733,-19"/>
<text text-anchor="middle" x="617" y="-7" font-family="Vera Sans, DejaVu Sans, Liberation Sans, Arial, Helvetica, sans" font-size="10.00" fill="#000000">pyVHDLModel.VHDLModel.BinaryExpression</text>
</a>
</g>
</g>
<!-- pyVHDLModel.VHDLModel.BaseExpression&#45;&gt;pyVHDLModel.VHDLModel.BinaryExpression -->
<g id="edge4" class="edge">
<title>pyVHDLModel.VHDLModel.BaseExpression&#45;&gt;pyVHDLModel.VHDLModel.BinaryExpression</title>
<path fill="none" stroke="#000000" stroke-width=".5" d="M465.3426,-9.5C475.3813,-9.5 485.5751,-9.5 495.6849,-9.5"/>
<polygon fill="#000000" stroke="#000000" stroke-width=".5" points="495.9627,-11.2501 500.9627,-9.5 495.9626,-7.7501 495.9627,-11.2501"/>
</g>
<!-- pyVHDLModel.VHDLModel.ModelEntity -->
<g id="node5" class="node">
<title>pyVHDLModel.VHDLModel.ModelEntity</title>
<g id="a_node5"><a xlink:title="``ModelEntity`` is the base class for all classes in the VHDL language model,">
<polygon fill="none" stroke="#000000" stroke-width=".5" points="205,-19 0,-19 0,0 205,0 205,-19"/>
<text text-anchor="middle" x="102.5" y="-7" font-family="Vera Sans, DejaVu Sans, Liberation Sans, Arial, Helvetica, sans" font-size="10.00" fill="#000000">pyVHDLModel.VHDLModel.ModelEntity</text>
</a>
</g>
</g>
<!-- pyVHDLModel.VHDLModel.ModelEntity&#45;&gt;pyVHDLModel.VHDLModel.BaseExpression -->
<g id="edge3" class="edge">
<title>pyVHDLModel.VHDLModel.ModelEntity&#45;&gt;pyVHDLModel.VHDLModel.BaseExpression</title>
<path fill="none" stroke="#000000" stroke-width=".5" d="M205.1107,-9.5C215.2127,-9.5 225.5179,-9.5 235.7516,-9.5"/>
<polygon fill="#000000" stroke="#000000" stroke-width=".5" points="235.7685,-11.2501 240.7685,-9.5 235.7684,-7.7501 235.7685,-11.2501"/>
</g>
<!-- pyVHDLModel.VHDLModel.ShiftExpression -->
<g id="node8" class="node">
<title>pyVHDLModel.VHDLModel.ShiftExpression</title>
<g id="a_node8"><a xlink:title="A ``ShiftExpression`` is a base&#45;class for all shifting expressions.">
<polygon fill="none" stroke="#000000" stroke-width=".5" points="992,-19 769,-19 769,0 992,0 992,-19"/>
<text text-anchor="middle" x="880.5" y="-7" font-family="Vera Sans, DejaVu Sans, Liberation Sans, Arial, Helvetica, sans" font-size="10.00" fill="#000000">pyVHDLModel.VHDLModel.ShiftExpression</text>
</a>
</g>
</g>
<!-- pyVHDLModel.VHDLModel.BinaryExpression&#45;&gt;pyVHDLModel.VHDLModel.ShiftExpression -->
<g id="edge6" class="edge">
<title>pyVHDLModel.VHDLModel.BinaryExpression&#45;&gt;pyVHDLModel.VHDLModel.ShiftExpression</title>
<path fill="none" stroke="#000000" stroke-width=".5" d="M733.342,-9.5C743.3212,-9.5 753.4199,-9.5 763.405,-9.5"/>
<polygon fill="#000000" stroke="#000000" stroke-width=".5" points="763.615,-11.2501 768.615,-9.5 763.615,-7.7501 763.615,-11.2501"/>
</g>
<!-- pyVHDLModel.VHDLModel.ShiftArithmeticExpression -->
<g id="node7" class="node">
<title>pyVHDLModel.VHDLModel.ShiftArithmeticExpression</title>
<polygon fill="none" stroke="#000000" stroke-width=".5" points="1302,-19 1028,-19 1028,0 1302,0 1302,-19"/>
<text text-anchor="middle" x="1165" y="-7" font-family="Vera Sans, DejaVu Sans, Liberation Sans, Arial, Helvetica, sans" font-size="10.00" fill="#000000">pyVHDLModel.VHDLModel.ShiftArithmeticExpression</text>
</g>
<!-- pyVHDLModel.VHDLModel.ShiftArithmeticExpression&#45;&gt;pyVHDLModel.VHDLModel.ShiftLeftArithmeticExpression -->
<g id="edge7" class="edge">
<title>pyVHDLModel.VHDLModel.ShiftArithmeticExpression&#45;&gt;pyVHDLModel.VHDLModel.ShiftLeftArithmeticExpression</title>
<path fill="none" stroke="#000000" stroke-width=".5" d="M1302.351,-9.5C1312.3608,-9.5 1322.4903,-9.5 1332.5781,-9.5"/>
<polygon fill="#000000" stroke="#000000" stroke-width=".5" points="1332.8488,-11.2501 1337.8487,-9.5 1332.8487,-7.7501 1332.8488,-11.2501"/>
</g>
<!-- pyVHDLModel.VHDLModel.ShiftExpression&#45;&gt;pyVHDLModel.VHDLModel.ShiftArithmeticExpression -->
<g id="edge5" class="edge">
<title>pyVHDLModel.VHDLModel.ShiftExpression&#45;&gt;pyVHDLModel.VHDLModel.ShiftArithmeticExpression</title>
<path fill="none" stroke="#000000" stroke-width=".5" d="M992.1254,-9.5C1002.159,-9.5 1012.4059,-9.5 1022.6536,-9.5"/>
<polygon fill="#000000" stroke="#000000" stroke-width=".5" points="1022.6834,-11.2501 1027.6834,-9.5 1022.6833,-7.7501 1022.6834,-11.2501"/>
</g>
</g>
</svg>
