<?xml version="1.0" encoding="UTF-8" standalone="no"?>
<!DOCTYPE svg PUBLIC "-//W3C//DTD SVG 1.1//EN"
 "http://www.w3.org/Graphics/SVG/1.1/DTD/svg11.dtd">
<!-- Generated by graphviz version 2.40.1 (20161225.0304)
 -->
<!-- Title: inheritancec218379cf0 Pages: 1 -->
<svg width="576pt" height="27pt"
 viewBox="0.00 0.00 576.00 26.66" xmlns="http://www.w3.org/2000/svg" xmlns:xlink="http://www.w3.org/1999/xlink">
<g id="graph0" class="graph" transform="scale(.4165 .4165) rotate(0) translate(4 60)">
<title>inheritancec218379cf0</title>
<polygon fill="#ffffff" stroke="transparent" points="-4,4 -4,-60 1379,-60 1379,4 -4,4"/>
<!-- pyGHDL.dom.DOMMixin -->
<g id="node1" class="node">
<title>pyGHDL.dom.DOMMixin</title>
<g id="a_node1"><a xlink:href="../pyGHDL.dom.html#pyGHDL.dom.DOMMixin" xlink:title="pyGHDL.dom.DOMMixin" target="_top">
<polygon fill="none" stroke="#000000" stroke-width=".5" points="941.5,-56 807.5,-56 807.5,-37 941.5,-37 941.5,-56"/>
<text text-anchor="middle" x="874.5" y="-44" font-family="Vera Sans, DejaVu Sans, Liberation Sans, Arial, Helvetica, sans" font-size="10.00" fill="#000000">pyGHDL.dom.DOMMixin</text>
</a>
</g>
</g>
<!-- pyGHDL.dom.Symbol.IndexedObjectOrFunctionCallSymbol -->
<g id="node2" class="node">
<title>pyGHDL.dom.Symbol.IndexedObjectOrFunctionCallSymbol</title>
<g id="a_node2"><a xlink:href="../pyGHDL/pyGHDL.dom.Symbol.html#pyGHDL.dom.Symbol.IndexedObjectOrFunctionCallSymbol" xlink:title="pyGHDL.dom.Symbol.IndexedObjectOrFunctionCallSymbol" target="_top">
<polygon fill="none" stroke="#000000" stroke-width=".5" points="1375,-37 1073,-37 1073,-18 1375,-18 1375,-37"/>
<text text-anchor="middle" x="1224" y="-25" font-family="Vera Sans, DejaVu Sans, Liberation Sans, Arial, Helvetica, sans" font-size="10.00" fill="#000000">pyGHDL.dom.Symbol.IndexedObjectOrFunctionCallSymbol</text>
</a>
</g>
</g>
<!-- pyGHDL.dom.DOMMixin&#45;&gt;pyGHDL.dom.Symbol.IndexedObjectOrFunctionCallSymbol -->
<g id="edge2" class="edge">
<title>pyGHDL.dom.DOMMixin&#45;&gt;pyGHDL.dom.Symbol.IndexedObjectOrFunctionCallSymbol</title>
<path fill="none" stroke="#000000" stroke-width=".5" d="M941.8871,-42.8366C977.795,-40.8845 1023.5774,-38.3957 1067.763,-35.9936"/>
<polygon fill="#000000" stroke="#000000" stroke-width=".5" points="1067.9663,-37.7352 1072.8639,-35.7163 1067.7762,-34.2404 1067.9663,-37.7352"/>
</g>
<!-- pyVHDLModel.VHDLModel.IndexedObjectOrFunctionCallSymbol -->
<g id="node3" class="node">
<title>pyVHDLModel.VHDLModel.IndexedObjectOrFunctionCallSymbol</title>
<polygon fill="none" stroke="#000000" stroke-width=".5" points="1037,-19 712,-19 712,0 1037,0 1037,-19"/>
<text text-anchor="middle" x="874.5" y="-7" font-family="Vera Sans, DejaVu Sans, Liberation Sans, Arial, Helvetica, sans" font-size="10.00" fill="#000000">pyVHDLModel.VHDLModel.IndexedObjectOrFunctionCallSymbol</text>
</g>
<!-- pyVHDLModel.VHDLModel.IndexedObjectOrFunctionCallSymbol&#45;&gt;pyGHDL.dom.Symbol.IndexedObjectOrFunctionCallSymbol -->
<g id="edge1" class="edge">
<title>pyVHDLModel.VHDLModel.IndexedObjectOrFunctionCallSymbol&#45;&gt;pyGHDL.dom.Symbol.IndexedObjectOrFunctionCallSymbol</title>
<path fill="none" stroke="#000000" stroke-width=".5" d="M1037.2273,-17.8808C1047.3136,-18.4003 1057.4535,-18.9225 1067.5118,-19.4405"/>
<polygon fill="#000000" stroke="#000000" stroke-width=".5" points="1067.68,-21.2014 1072.7635,-19.711 1067.8601,-17.706 1067.68,-21.2014"/>
</g>
<!-- pyVHDLModel.VHDLModel.ObjectSymbol -->
<g id="node4" class="node">
<title>pyVHDLModel.VHDLModel.ObjectSymbol</title>
<polygon fill="none" stroke="#000000" stroke-width=".5" points="676,-19 461,-19 461,0 676,0 676,-19"/>
<text text-anchor="middle" x="568.5" y="-7" font-family="Vera Sans, DejaVu Sans, Liberation Sans, Arial, Helvetica, sans" font-size="10.00" fill="#000000">pyVHDLModel.VHDLModel.ObjectSymbol</text>
</g>
<!-- pyVHDLModel.VHDLModel.ObjectSymbol&#45;&gt;pyVHDLModel.VHDLModel.IndexedObjectOrFunctionCallSymbol -->
<g id="edge3" class="edge">
<title>pyVHDLModel.VHDLModel.ObjectSymbol&#45;&gt;pyVHDLModel.VHDLModel.IndexedObjectOrFunctionCallSymbol</title>
<path fill="none" stroke="#000000" stroke-width=".5" d="M676.3842,-9.5C686.2916,-9.5 696.4761,-9.5 706.7503,-9.5"/>
<polygon fill="#000000" stroke="#000000" stroke-width=".5" points="706.8003,-11.2501 711.8003,-9.5 706.8003,-7.7501 706.8003,-11.2501"/>
</g>
<!-- pyVHDLModel.VHDLModel.ModelEntity -->
<g id="node5" class="node">
<title>pyVHDLModel.VHDLModel.ModelEntity</title>
<g id="a_node5"><a xlink:title="``ModelEntity`` is the base class for all classes in the VHDL language model,">
<polygon fill="none" stroke="#000000" stroke-width=".5" points="205,-19 0,-19 0,0 205,0 205,-19"/>
<text text-anchor="middle" x="102.5" y="-7" font-family="Vera Sans, DejaVu Sans, Liberation Sans, Arial, Helvetica, sans" font-size="10.00" fill="#000000">pyVHDLModel.VHDLModel.ModelEntity</text>
</a>
</g>
</g>
<!-- pyVHDLModel.VHDLModel.Symbol -->
<g id="node6" class="node">
<title>pyVHDLModel.VHDLModel.Symbol</title>
<polygon fill="none" stroke="#000000" stroke-width=".5" points="425,-19 241,-19 241,0 425,0 425,-19"/>
<text text-anchor="middle" x="333" y="-7" font-family="Vera Sans, DejaVu Sans, Liberation Sans, Arial, Helvetica, sans" font-size="10.00" fill="#000000">pyVHDLModel.VHDLModel.Symbol</text>
</g>
<!-- pyVHDLModel.VHDLModel.ModelEntity&#45;&gt;pyVHDLModel.VHDLModel.Symbol -->
<g id="edge5" class="edge">
<title>pyVHDLModel.VHDLModel.ModelEntity&#45;&gt;pyVHDLModel.VHDLModel.Symbol</title>
<path fill="none" stroke="#000000" stroke-width=".5" d="M205.2788,-9.5C215.3998,-9.5 225.6505,-9.5 235.7139,-9.5"/>
<polygon fill="#000000" stroke="#000000" stroke-width=".5" points="235.9577,-11.2501 240.9577,-9.5 235.9577,-7.7501 235.9577,-11.2501"/>
</g>
<!-- pyVHDLModel.VHDLModel.Symbol&#45;&gt;pyVHDLModel.VHDLModel.ObjectSymbol -->
<g id="edge4" class="edge">
<title>pyVHDLModel.VHDLModel.Symbol&#45;&gt;pyVHDLModel.VHDLModel.ObjectSymbol</title>
<path fill="none" stroke="#000000" stroke-width=".5" d="M425.0623,-9.5C435.1509,-9.5 445.504,-9.5 455.8054,-9.5"/>
<polygon fill="#000000" stroke="#000000" stroke-width=".5" points="455.857,-11.2501 460.8569,-9.5 455.8569,-7.7501 455.857,-11.2501"/>
</g>
</g>
</svg>
