<?xml version="1.0" encoding="UTF-8" standalone="no"?>
<!DOCTYPE svg PUBLIC "-//W3C//DTD SVG 1.1//EN"
 "http://www.w3.org/Graphics/SVG/1.1/DTD/svg11.dtd">
<!-- Generated by graphviz version 2.40.1 (20161225.0304)
 -->
<!-- Title: inheritance640f5d715c Pages: 1 -->
<svg width="576pt" height="42pt"
 viewBox="0.00 0.00 576.00 42.32" xmlns="http://www.w3.org/2000/svg" xmlns:xlink="http://www.w3.org/1999/xlink">
<g id="graph0" class="graph" transform="scale(.6613 .6613) rotate(0) translate(4 60)">
<title>inheritance640f5d715c</title>
<polygon fill="#ffffff" stroke="transparent" points="-4,4 -4,-60 867,-60 867,4 -4,4"/>
<!-- pyGHDL.dom.DOMMixin -->
<g id="node1" class="node">
<title>pyGHDL.dom.DOMMixin</title>
<g id="a_node1"><a xlink:href="../pyGHDL.dom.html#pyGHDL.dom.DOMMixin" xlink:title="pyGHDL.dom.DOMMixin" target="_top">
<polygon fill="none" stroke="#000000" stroke-width=".5" points="627,-56 493,-56 493,-37 627,-37 627,-56"/>
<text text-anchor="middle" x="560" y="-44" font-family="Vera Sans, DejaVu Sans, Liberation Sans, Arial, Helvetica, sans" font-size="10.00" fill="#000000">pyGHDL.dom.DOMMixin</text>
</a>
</g>
</g>
<!-- pyGHDL.dom.PSL.DefaultClock -->
<g id="node2" class="node">
<title>pyGHDL.dom.PSL.DefaultClock</title>
<g id="a_node2"><a xlink:href="../pyGHDL/pyGHDL.dom.PSL.html#pyGHDL.dom.PSL.DefaultClock" xlink:title="pyGHDL.dom.PSL.DefaultClock" target="_top">
<polygon fill="none" stroke="#000000" stroke-width=".5" points="863,-37 696,-37 696,-18 863,-18 863,-37"/>
<text text-anchor="middle" x="779.5" y="-25" font-family="Vera Sans, DejaVu Sans, Liberation Sans, Arial, Helvetica, sans" font-size="10.00" fill="#000000">pyGHDL.dom.PSL.DefaultClock</text>
</a>
</g>
</g>
<!-- pyGHDL.dom.DOMMixin&#45;&gt;pyGHDL.dom.PSL.DefaultClock -->
<g id="edge2" class="edge">
<title>pyGHDL.dom.DOMMixin&#45;&gt;pyGHDL.dom.PSL.DefaultClock</title>
<path fill="none" stroke="#000000" stroke-width=".5" d="M627.0499,-40.6961C647.1256,-38.9584 669.4595,-37.0251 690.7053,-35.1861"/>
<polygon fill="#000000" stroke="#000000" stroke-width=".5" points="690.962,-36.9205 695.7924,-34.7458 690.6601,-33.4336 690.962,-36.9205"/>
</g>
<!-- pyVHDLModel.PSLModel.DefaultClock -->
<g id="node3" class="node">
<title>pyVHDLModel.PSLModel.DefaultClock</title>
<polygon fill="none" stroke="#000000" stroke-width=".5" points="660,-19 460,-19 460,0 660,0 660,-19"/>
<text text-anchor="middle" x="560" y="-7" font-family="Vera Sans, DejaVu Sans, Liberation Sans, Arial, Helvetica, sans" font-size="10.00" fill="#000000">pyVHDLModel.PSLModel.DefaultClock</text>
</g>
<!-- pyVHDLModel.PSLModel.DefaultClock&#45;&gt;pyGHDL.dom.PSL.DefaultClock -->
<g id="edge1" class="edge">
<title>pyVHDLModel.PSLModel.DefaultClock&#45;&gt;pyGHDL.dom.PSL.DefaultClock</title>
<path fill="none" stroke="#000000" stroke-width=".5" d="M660.115,-17.7099C670.3212,-18.5468 680.6394,-19.393 690.7128,-20.219"/>
<polygon fill="#000000" stroke="#000000" stroke-width=".5" points="690.83,-21.9844 695.9564,-20.649 691.1162,-18.4962 690.83,-21.9844"/>
</g>
<!-- pyVHDLModel.PSLModel.PSLEntity -->
<g id="node4" class="node">
<title>pyVHDLModel.PSLModel.PSLEntity</title>
<polygon fill="none" stroke="#000000" stroke-width=".5" points="424,-19 241,-19 241,0 424,0 424,-19"/>
<text text-anchor="middle" x="332.5" y="-7" font-family="Vera Sans, DejaVu Sans, Liberation Sans, Arial, Helvetica, sans" font-size="10.00" fill="#000000">pyVHDLModel.PSLModel.PSLEntity</text>
</g>
<!-- pyVHDLModel.PSLModel.PSLEntity&#45;&gt;pyVHDLModel.PSLModel.DefaultClock -->
<g id="edge3" class="edge">
<title>pyVHDLModel.PSLModel.PSLEntity&#45;&gt;pyVHDLModel.PSLModel.DefaultClock</title>
<path fill="none" stroke="#000000" stroke-width=".5" d="M424.0496,-9.5C434.1297,-9.5 444.4518,-9.5 454.6824,-9.5"/>
<polygon fill="#000000" stroke="#000000" stroke-width=".5" points="454.696,-11.2501 459.6959,-9.5 454.6959,-7.7501 454.696,-11.2501"/>
</g>
<!-- pyVHDLModel.VHDLModel.ModelEntity -->
<g id="node5" class="node">
<title>pyVHDLModel.VHDLModel.ModelEntity</title>
<g id="a_node5"><a xlink:title="``ModelEntity`` is the base class for all classes in the VHDL language model,">
<polygon fill="none" stroke="#000000" stroke-width=".5" points="205,-19 0,-19 0,0 205,0 205,-19"/>
<text text-anchor="middle" x="102.5" y="-7" font-family="Vera Sans, DejaVu Sans, Liberation Sans, Arial, Helvetica, sans" font-size="10.00" fill="#000000">pyVHDLModel.VHDLModel.ModelEntity</text>
</a>
</g>
</g>
<!-- pyVHDLModel.VHDLModel.ModelEntity&#45;&gt;pyVHDLModel.PSLModel.PSLEntity -->
<g id="edge4" class="edge">
<title>pyVHDLModel.VHDLModel.ModelEntity&#45;&gt;pyVHDLModel.PSLModel.PSLEntity</title>
<path fill="none" stroke="#000000" stroke-width=".5" d="M205.0559,-9.5C215.1549,-9.5 225.3834,-9.5 235.425,-9.5"/>
<polygon fill="#000000" stroke="#000000" stroke-width=".5" points="235.6574,-11.2501 240.6574,-9.5 235.6573,-7.7501 235.6574,-11.2501"/>
</g>
</g>
</svg>
