<?xml version="1.0" encoding="UTF-8" standalone="no"?>
<!DOCTYPE svg PUBLIC "-//W3C//DTD SVG 1.1//EN"
 "http://www.w3.org/Graphics/SVG/1.1/DTD/svg11.dtd">
<!-- Generated by graphviz version 2.40.1 (20161225.0304)
 -->
<!-- Title: inheritance7b4b7451c5 Pages: 1 -->
<svg width="576pt" height="68pt"
 viewBox="0.00 0.00 576.00 68.35" xmlns="http://www.w3.org/2000/svg" xmlns:xlink="http://www.w3.org/1999/xlink">
<g id="graph0" class="graph" transform="scale(.8336 .8336) rotate(0) translate(4 78)">
<title>inheritance7b4b7451c5</title>
<polygon fill="#ffffff" stroke="transparent" points="-4,4 -4,-78 687,-78 687,4 -4,4"/>
<!-- pyGHDL.dom.DOMMixin -->
<g id="node1" class="node">
<title>pyGHDL.dom.DOMMixin</title>
<g id="a_node1"><a xlink:href="../pyGHDL.dom.html#pyGHDL.dom.DOMMixin" xlink:title="pyGHDL.dom.DOMMixin" target="_top">
<polygon fill="none" stroke="#000000" stroke-width=".5" points="415.5,-74 281.5,-74 281.5,-55 415.5,-55 415.5,-74"/>
<text text-anchor="middle" x="348.5" y="-62" font-family="Vera Sans, DejaVu Sans, Liberation Sans, Arial, Helvetica, sans" font-size="10.00" fill="#000000">pyGHDL.dom.DOMMixin</text>
</a>
</g>
</g>
<!-- pyGHDL.dom.DesignUnit.Component -->
<g id="node2" class="node">
<title>pyGHDL.dom.DesignUnit.Component</title>
<g id="a_node2"><a xlink:href="../pyGHDL/pyGHDL.dom.DesignUnit.html#pyGHDL.dom.DesignUnit.Component" xlink:title="pyGHDL.dom.DesignUnit.Component" target="_top">
<polygon fill="none" stroke="#000000" stroke-width=".5" points="683,-55 486,-55 486,-36 683,-36 683,-55"/>
<text text-anchor="middle" x="584.5" y="-43" font-family="Vera Sans, DejaVu Sans, Liberation Sans, Arial, Helvetica, sans" font-size="10.00" fill="#000000">pyGHDL.dom.DesignUnit.Component</text>
</a>
</g>
</g>
<!-- pyGHDL.dom.DOMMixin&#45;&gt;pyGHDL.dom.DesignUnit.Component -->
<g id="edge2" class="edge">
<title>pyGHDL.dom.DOMMixin&#45;&gt;pyGHDL.dom.DesignUnit.Component</title>
<path fill="none" stroke="#000000" stroke-width=".5" d="M415.8123,-59.0808C436.0781,-57.4492 458.8066,-55.6194 480.8563,-53.8442"/>
<polygon fill="#000000" stroke="#000000" stroke-width=".5" points="481.0028,-55.5882 485.8462,-53.4425 480.7219,-52.0994 481.0028,-55.5882"/>
</g>
<!-- pyVHDLModel.VHDLModel.Component -->
<g id="node3" class="node">
<title>pyVHDLModel.VHDLModel.Component</title>
<polygon fill="none" stroke="#000000" stroke-width=".5" points="450,-37 247,-37 247,-18 450,-18 450,-37"/>
<text text-anchor="middle" x="348.5" y="-25" font-family="Vera Sans, DejaVu Sans, Liberation Sans, Arial, Helvetica, sans" font-size="10.00" fill="#000000">pyVHDLModel.VHDLModel.Component</text>
</g>
<!-- pyVHDLModel.VHDLModel.Component&#45;&gt;pyGHDL.dom.DesignUnit.Component -->
<g id="edge1" class="edge">
<title>pyVHDLModel.VHDLModel.Component&#45;&gt;pyGHDL.dom.DesignUnit.Component</title>
<path fill="none" stroke="#000000" stroke-width=".5" d="M450.2976,-35.2642C460.2836,-36.0259 470.4275,-36.7996 480.4357,-37.5629"/>
<polygon fill="#000000" stroke="#000000" stroke-width=".5" points="480.5368,-39.3256 485.6554,-37.961 480.803,-35.8357 480.5368,-39.3256"/>
</g>
<!-- pyVHDLModel.VHDLModel.ModelEntity -->
<g id="node4" class="node">
<title>pyVHDLModel.VHDLModel.ModelEntity</title>
<g id="a_node4"><a xlink:title="``ModelEntity`` is the base class for all classes in the VHDL language model,">
<polygon fill="none" stroke="#000000" stroke-width=".5" points="208,-56 3,-56 3,-37 208,-37 208,-56"/>
<text text-anchor="middle" x="105.5" y="-44" font-family="Vera Sans, DejaVu Sans, Liberation Sans, Arial, Helvetica, sans" font-size="10.00" fill="#000000">pyVHDLModel.VHDLModel.ModelEntity</text>
</a>
</g>
</g>
<!-- pyVHDLModel.VHDLModel.ModelEntity&#45;&gt;pyVHDLModel.VHDLModel.Component -->
<g id="edge3" class="edge">
<title>pyVHDLModel.VHDLModel.ModelEntity&#45;&gt;pyVHDLModel.VHDLModel.Component</title>
<path fill="none" stroke="#000000" stroke-width=".5" d="M208.2017,-38.4698C219.3222,-37.6003 230.658,-36.714 241.8242,-35.8409"/>
<polygon fill="#000000" stroke="#000000" stroke-width=".5" points="242.093,-37.5753 246.9413,-35.4408 241.8201,-34.086 242.093,-37.5753"/>
</g>
<!-- pyVHDLModel.VHDLModel.NamedEntity -->
<g id="node5" class="node">
<title>pyVHDLModel.VHDLModel.NamedEntity</title>
<g id="a_node5"><a xlink:title="A ``NamedEntity`` is a mixin class for all VHDL entities that have identifiers.">
<polygon fill="none" stroke="#000000" stroke-width=".5" points="211,-19 0,-19 0,0 211,0 211,-19"/>
<text text-anchor="middle" x="105.5" y="-7" font-family="Vera Sans, DejaVu Sans, Liberation Sans, Arial, Helvetica, sans" font-size="10.00" fill="#000000">pyVHDLModel.VHDLModel.NamedEntity</text>
</a>
</g>
</g>
<!-- pyVHDLModel.VHDLModel.NamedEntity&#45;&gt;pyVHDLModel.VHDLModel.Component -->
<g id="edge4" class="edge">
<title>pyVHDLModel.VHDLModel.NamedEntity&#45;&gt;pyVHDLModel.VHDLModel.Component</title>
<path fill="none" stroke="#000000" stroke-width=".5" d="M211.0232,-17.3165C221.2599,-18.0748 231.6505,-18.8445 241.8977,-19.6035"/>
<polygon fill="#000000" stroke="#000000" stroke-width=".5" points="241.7996,-21.351 246.9152,-19.9752 242.0582,-17.8605 241.7996,-21.351"/>
</g>
</g>
</svg>
