<?xml version="1.0" encoding="UTF-8" standalone="no"?>
<!DOCTYPE svg PUBLIC "-//W3C//DTD SVG 1.1//EN"
 "http://www.w3.org/Graphics/SVG/1.1/DTD/svg11.dtd">
<!-- Generated by graphviz version 2.40.1 (20161225.0304)
 -->
<!-- Title: inheritance9afd7b41f8 Pages: 1 -->
<svg width="576pt" height="26pt"
 viewBox="0.00 0.00 576.00 26.13" xmlns="http://www.w3.org/2000/svg" xmlns:xlink="http://www.w3.org/1999/xlink">
<g id="graph0" class="graph" transform="scale(.4082 .4082) rotate(0) translate(4 60)">
<title>inheritance9afd7b41f8</title>
<polygon fill="#ffffff" stroke="transparent" points="-4,4 -4,-60 1407,-60 1407,4 -4,4"/>
<!-- pyGHDL.dom.DOMMixin -->
<g id="node1" class="node">
<title>pyGHDL.dom.DOMMixin</title>
<g id="a_node1"><a xlink:href="../pyGHDL.dom.html#pyGHDL.dom.DOMMixin" xlink:title="pyGHDL.dom.DOMMixin" target="_top">
<polygon fill="none" stroke="#000000" stroke-width=".5" points="955.5,-56 821.5,-56 821.5,-37 955.5,-37 955.5,-56"/>
<text text-anchor="middle" x="888.5" y="-44" font-family="Vera Sans, DejaVu Sans, Liberation Sans, Arial, Helvetica, sans" font-size="10.00" fill="#000000">pyGHDL.dom.DOMMixin</text>
</a>
</g>
</g>
<!-- pyGHDL.dom.Symbol.ConstrainedCompositeSubtypeSymbol -->
<g id="node2" class="node">
<title>pyGHDL.dom.Symbol.ConstrainedCompositeSubtypeSymbol</title>
<g id="a_node2"><a xlink:href="../pyGHDL/pyGHDL.dom.Symbol.html#pyGHDL.dom.Symbol.ConstrainedCompositeSubtypeSymbol" xlink:title="pyGHDL.dom.Symbol.ConstrainedCompositeSubtypeSymbol" target="_top">
<polygon fill="none" stroke="#000000" stroke-width=".5" points="1403,-37 1092,-37 1092,-18 1403,-18 1403,-37"/>
<text text-anchor="middle" x="1247.5" y="-25" font-family="Vera Sans, DejaVu Sans, Liberation Sans, Arial, Helvetica, sans" font-size="10.00" fill="#000000">pyGHDL.dom.Symbol.ConstrainedCompositeSubtypeSymbol</text>
</a>
</g>
</g>
<!-- pyGHDL.dom.DOMMixin&#45;&gt;pyGHDL.dom.Symbol.ConstrainedCompositeSubtypeSymbol -->
<g id="edge2" class="edge">
<title>pyGHDL.dom.DOMMixin&#45;&gt;pyGHDL.dom.Symbol.ConstrainedCompositeSubtypeSymbol</title>
<path fill="none" stroke="#000000" stroke-width=".5" d="M955.604,-42.9485C992.71,-40.9847 1040.5383,-38.4534 1086.699,-36.0104"/>
<polygon fill="#000000" stroke="#000000" stroke-width=".5" points="1086.8371,-37.7556 1091.7376,-35.7437 1086.6521,-34.2605 1086.8371,-37.7556"/>
</g>
<!-- pyVHDLModel.VHDLModel.ConstrainedCompositeSubtypeSymbol -->
<g id="node3" class="node">
<title>pyVHDLModel.VHDLModel.ConstrainedCompositeSubtypeSymbol</title>
<polygon fill="none" stroke="#000000" stroke-width=".5" points="1056,-19 721,-19 721,0 1056,0 1056,-19"/>
<text text-anchor="middle" x="888.5" y="-7" font-family="Vera Sans, DejaVu Sans, Liberation Sans, Arial, Helvetica, sans" font-size="10.00" fill="#000000">pyVHDLModel.VHDLModel.ConstrainedCompositeSubtypeSymbol</text>
</g>
<!-- pyVHDLModel.VHDLModel.ConstrainedCompositeSubtypeSymbol&#45;&gt;pyGHDL.dom.Symbol.ConstrainedCompositeSubtypeSymbol -->
<g id="edge1" class="edge">
<title>pyVHDLModel.VHDLModel.ConstrainedCompositeSubtypeSymbol&#45;&gt;pyGHDL.dom.Symbol.ConstrainedCompositeSubtypeSymbol</title>
<path fill="none" stroke="#000000" stroke-width=".5" d="M1056.1753,-17.9071C1066.2849,-18.414 1076.4447,-18.9234 1086.5257,-19.4289"/>
<polygon fill="#000000" stroke="#000000" stroke-width=".5" points="1086.7082,-21.1901 1091.7896,-19.6928 1086.8835,-17.6945 1086.7082,-21.1901"/>
</g>
<!-- pyVHDLModel.VHDLModel.SubtypeSymbol -->
<g id="node4" class="node">
<title>pyVHDLModel.VHDLModel.SubtypeSymbol</title>
<polygon fill="none" stroke="#000000" stroke-width=".5" points="685,-19 461,-19 461,0 685,0 685,-19"/>
<text text-anchor="middle" x="573" y="-7" font-family="Vera Sans, DejaVu Sans, Liberation Sans, Arial, Helvetica, sans" font-size="10.00" fill="#000000">pyVHDLModel.VHDLModel.SubtypeSymbol</text>
</g>
<!-- pyVHDLModel.VHDLModel.SubtypeSymbol&#45;&gt;pyVHDLModel.VHDLModel.ConstrainedCompositeSubtypeSymbol -->
<g id="edge3" class="edge">
<title>pyVHDLModel.VHDLModel.SubtypeSymbol&#45;&gt;pyVHDLModel.VHDLModel.ConstrainedCompositeSubtypeSymbol</title>
<path fill="none" stroke="#000000" stroke-width=".5" d="M685.1218,-9.5C695.1677,-9.5 705.4836,-9.5 715.8866,-9.5"/>
<polygon fill="#000000" stroke="#000000" stroke-width=".5" points="715.9997,-11.2501 720.9997,-9.5 715.9996,-7.7501 715.9997,-11.2501"/>
</g>
<!-- pyVHDLModel.VHDLModel.ModelEntity -->
<g id="node5" class="node">
<title>pyVHDLModel.VHDLModel.ModelEntity</title>
<g id="a_node5"><a xlink:title="``ModelEntity`` is the base class for all classes in the VHDL language model,">
<polygon fill="none" stroke="#000000" stroke-width=".5" points="205,-19 0,-19 0,0 205,0 205,-19"/>
<text text-anchor="middle" x="102.5" y="-7" font-family="Vera Sans, DejaVu Sans, Liberation Sans, Arial, Helvetica, sans" font-size="10.00" fill="#000000">pyVHDLModel.VHDLModel.ModelEntity</text>
</a>
</g>
</g>
<!-- pyVHDLModel.VHDLModel.Symbol -->
<g id="node6" class="node">
<title>pyVHDLModel.VHDLModel.Symbol</title>
<polygon fill="none" stroke="#000000" stroke-width=".5" points="425,-19 241,-19 241,0 425,0 425,-19"/>
<text text-anchor="middle" x="333" y="-7" font-family="Vera Sans, DejaVu Sans, Liberation Sans, Arial, Helvetica, sans" font-size="10.00" fill="#000000">pyVHDLModel.VHDLModel.Symbol</text>
</g>
<!-- pyVHDLModel.VHDLModel.ModelEntity&#45;&gt;pyVHDLModel.VHDLModel.Symbol -->
<g id="edge5" class="edge">
<title>pyVHDLModel.VHDLModel.ModelEntity&#45;&gt;pyVHDLModel.VHDLModel.Symbol</title>
<path fill="none" stroke="#000000" stroke-width=".5" d="M205.2788,-9.5C215.3998,-9.5 225.6505,-9.5 235.7139,-9.5"/>
<polygon fill="#000000" stroke="#000000" stroke-width=".5" points="235.9577,-11.2501 240.9577,-9.5 235.9577,-7.7501 235.9577,-11.2501"/>
</g>
<!-- pyVHDLModel.VHDLModel.Symbol&#45;&gt;pyVHDLModel.VHDLModel.SubtypeSymbol -->
<g id="edge4" class="edge">
<title>pyVHDLModel.VHDLModel.Symbol&#45;&gt;pyVHDLModel.VHDLModel.SubtypeSymbol</title>
<path fill="none" stroke="#000000" stroke-width=".5" d="M425.1039,-9.5C435.1007,-9.5 445.3711,-9.5 455.6159,-9.5"/>
<polygon fill="#000000" stroke="#000000" stroke-width=".5" points="455.6419,-11.2501 460.6419,-9.5 455.6418,-7.7501 455.6419,-11.2501"/>
</g>
</g>
</svg>
