<?xml version="1.0" encoding="UTF-8" standalone="no"?>
<!DOCTYPE svg PUBLIC "-//W3C//DTD SVG 1.1//EN"
 "http://www.w3.org/Graphics/SVG/1.1/DTD/svg11.dtd">
<!-- Generated by graphviz version 2.40.1 (20161225.0304)
 -->
<!-- Title: inheritance66ed0a96dd Pages: 1 -->
<svg width="576pt" height="22pt"
 viewBox="0.00 0.00 576.00 22.42" xmlns="http://www.w3.org/2000/svg" xmlns:xlink="http://www.w3.org/1999/xlink">
<g id="graph0" class="graph" transform="scale(.3504 .3504) rotate(0) translate(4 60)">
<title>inheritance66ed0a96dd</title>
<polygon fill="#ffffff" stroke="transparent" points="-4,4 -4,-60 1640,-60 1640,4 -4,4"/>
<!-- pyGHDL.dom.DOMMixin -->
<g id="node1" class="node">
<title>pyGHDL.dom.DOMMixin</title>
<g id="a_node1"><a xlink:href="../pyGHDL.dom.html#pyGHDL.dom.DOMMixin" xlink:title="pyGHDL.dom.DOMMixin" target="_top">
<polygon fill="none" stroke="#000000" stroke-width=".5" points="1263,-56 1129,-56 1129,-37 1263,-37 1263,-56"/>
<text text-anchor="middle" x="1196" y="-44" font-family="Vera Sans, DejaVu Sans, Liberation Sans, Arial, Helvetica, sans" font-size="10.00" fill="#000000">pyGHDL.dom.DOMMixin</text>
</a>
</g>
</g>
<!-- pyGHDL.dom.Expression.ExponentiationExpression -->
<g id="node2" class="node">
<title>pyGHDL.dom.Expression.ExponentiationExpression</title>
<g id="a_node2"><a xlink:href="../pyGHDL/pyGHDL.dom.Expression.html#pyGHDL.dom.Expression.ExponentiationExpression" xlink:title="pyGHDL.dom.Expression.ExponentiationExpression" target="_top">
<polygon fill="none" stroke="#000000" stroke-width=".5" points="1636,-37 1369,-37 1369,-18 1636,-18 1636,-37"/>
<text text-anchor="middle" x="1502.5" y="-25" font-family="Vera Sans, DejaVu Sans, Liberation Sans, Arial, Helvetica, sans" font-size="10.00" fill="#000000">pyGHDL.dom.Expression.ExponentiationExpression</text>
</a>
</g>
</g>
<!-- pyGHDL.dom.DOMMixin&#45;&gt;pyGHDL.dom.Expression.ExponentiationExpression -->
<g id="edge2" class="edge">
<title>pyGHDL.dom.DOMMixin&#45;&gt;pyGHDL.dom.Expression.ExponentiationExpression</title>
<path fill="none" stroke="#000000" stroke-width=".5" d="M1263.2627,-42.3304C1292.8232,-40.4979 1328.6946,-38.2742 1363.5683,-36.1124"/>
<polygon fill="#000000" stroke="#000000" stroke-width=".5" points="1363.8234,-37.85 1368.7055,-35.7939 1363.6068,-34.3567 1363.8234,-37.85"/>
</g>
<!-- pyVHDLModel.VHDLModel.ExponentiationExpression -->
<g id="node3" class="node">
<title>pyVHDLModel.VHDLModel.ExponentiationExpression</title>
<polygon fill="none" stroke="#000000" stroke-width=".5" points="1333,-19 1059,-19 1059,0 1333,0 1333,-19"/>
<text text-anchor="middle" x="1196" y="-7" font-family="Vera Sans, DejaVu Sans, Liberation Sans, Arial, Helvetica, sans" font-size="10.00" fill="#000000">pyVHDLModel.VHDLModel.ExponentiationExpression</text>
</g>
<!-- pyVHDLModel.VHDLModel.ExponentiationExpression&#45;&gt;pyGHDL.dom.Expression.ExponentiationExpression -->
<g id="edge1" class="edge">
<title>pyVHDLModel.VHDLModel.ExponentiationExpression&#45;&gt;pyGHDL.dom.Expression.ExponentiationExpression</title>
<path fill="none" stroke="#000000" stroke-width=".5" d="M1333.1136,-17.5523C1343.1576,-18.1422 1353.2951,-18.7376 1363.3509,-19.3281"/>
<polygon fill="#000000" stroke="#000000" stroke-width=".5" points="1363.507,-21.0902 1368.6011,-19.6364 1363.7123,-17.5962 1363.507,-21.0902"/>
</g>
<!-- pyVHDLModel.VHDLModel.BaseExpression -->
<g id="node4" class="node">
<title>pyVHDLModel.VHDLModel.BaseExpression</title>
<g id="a_node4"><a xlink:title="A ``BaseExpression`` is a base&#45;class for all expressions.">
<polygon fill="none" stroke="#000000" stroke-width=".5" points="465,-19 241,-19 241,0 465,0 465,-19"/>
<text text-anchor="middle" x="353" y="-7" font-family="Vera Sans, DejaVu Sans, Liberation Sans, Arial, Helvetica, sans" font-size="10.00" fill="#000000">pyVHDLModel.VHDLModel.BaseExpression</text>
</a>
</g>
</g>
<!-- pyVHDLModel.VHDLModel.BinaryExpression -->
<g id="node6" class="node">
<title>pyVHDLModel.VHDLModel.BinaryExpression</title>
<g id="a_node6"><a xlink:title="A ``BinaryExpression`` is a base&#45;class for all binary expressions.">
<polygon fill="none" stroke="#000000" stroke-width=".5" points="733,-19 501,-19 501,0 733,0 733,-19"/>
<text text-anchor="middle" x="617" y="-7" font-family="Vera Sans, DejaVu Sans, Liberation Sans, Arial, Helvetica, sans" font-size="10.00" fill="#000000">pyVHDLModel.VHDLModel.BinaryExpression</text>
</a>
</g>
</g>
<!-- pyVHDLModel.VHDLModel.BaseExpression&#45;&gt;pyVHDLModel.VHDLModel.BinaryExpression -->
<g id="edge4" class="edge">
<title>pyVHDLModel.VHDLModel.BaseExpression&#45;&gt;pyVHDLModel.VHDLModel.BinaryExpression</title>
<path fill="none" stroke="#000000" stroke-width=".5" d="M465.3426,-9.5C475.3813,-9.5 485.5751,-9.5 495.6849,-9.5"/>
<polygon fill="#000000" stroke="#000000" stroke-width=".5" points="495.9627,-11.2501 500.9627,-9.5 495.9626,-7.7501 495.9627,-11.2501"/>
</g>
<!-- pyVHDLModel.VHDLModel.ModelEntity -->
<g id="node5" class="node">
<title>pyVHDLModel.VHDLModel.ModelEntity</title>
<g id="a_node5"><a xlink:title="``ModelEntity`` is the base class for all classes in the VHDL language model,">
<polygon fill="none" stroke="#000000" stroke-width=".5" points="205,-19 0,-19 0,0 205,0 205,-19"/>
<text text-anchor="middle" x="102.5" y="-7" font-family="Vera Sans, DejaVu Sans, Liberation Sans, Arial, Helvetica, sans" font-size="10.00" fill="#000000">pyVHDLModel.VHDLModel.ModelEntity</text>
</a>
</g>
</g>
<!-- pyVHDLModel.VHDLModel.ModelEntity&#45;&gt;pyVHDLModel.VHDLModel.BaseExpression -->
<g id="edge3" class="edge">
<title>pyVHDLModel.VHDLModel.ModelEntity&#45;&gt;pyVHDLModel.VHDLModel.BaseExpression</title>
<path fill="none" stroke="#000000" stroke-width=".5" d="M205.1107,-9.5C215.2127,-9.5 225.5179,-9.5 235.7516,-9.5"/>
<polygon fill="#000000" stroke="#000000" stroke-width=".5" points="235.7685,-11.2501 240.7685,-9.5 235.7684,-7.7501 235.7685,-11.2501"/>
</g>
<!-- pyVHDLModel.VHDLModel.MultiplyingExpression -->
<g id="node7" class="node">
<title>pyVHDLModel.VHDLModel.MultiplyingExpression</title>
<g id="a_node7"><a xlink:title="A ``MultiplyingExpression`` is a base&#45;class for all multiplying expressions.">
<polygon fill="none" stroke="#000000" stroke-width=".5" points="1023,-19 769,-19 769,0 1023,0 1023,-19"/>
<text text-anchor="middle" x="896" y="-7" font-family="Vera Sans, DejaVu Sans, Liberation Sans, Arial, Helvetica, sans" font-size="10.00" fill="#000000">pyVHDLModel.VHDLModel.MultiplyingExpression</text>
</a>
</g>
</g>
<!-- pyVHDLModel.VHDLModel.BinaryExpression&#45;&gt;pyVHDLModel.VHDLModel.MultiplyingExpression -->
<g id="edge6" class="edge">
<title>pyVHDLModel.VHDLModel.BinaryExpression&#45;&gt;pyVHDLModel.VHDLModel.MultiplyingExpression</title>
<path fill="none" stroke="#000000" stroke-width=".5" d="M733.3008,-9.5C743.2323,-9.5 753.3251,-9.5 763.3703,-9.5"/>
<polygon fill="#000000" stroke="#000000" stroke-width=".5" points="763.6179,-11.2501 768.6178,-9.5 763.6178,-7.7501 763.6179,-11.2501"/>
</g>
<!-- pyVHDLModel.VHDLModel.MultiplyingExpression&#45;&gt;pyVHDLModel.VHDLModel.ExponentiationExpression -->
<g id="edge5" class="edge">
<title>pyVHDLModel.VHDLModel.MultiplyingExpression&#45;&gt;pyVHDLModel.VHDLModel.ExponentiationExpression</title>
<path fill="none" stroke="#000000" stroke-width=".5" d="M1023.227,-9.5C1033.3828,-9.5 1043.6811,-9.5 1053.9299,-9.5"/>
<polygon fill="#000000" stroke="#000000" stroke-width=".5" points="1053.9564,-11.2501 1058.9564,-9.5 1053.9563,-7.7501 1053.9564,-11.2501"/>
</g>
</g>
</svg>
