<?xml version="1.0" encoding="UTF-8" standalone="no"?>
<!DOCTYPE svg PUBLIC "-//W3C//DTD SVG 1.1//EN"
 "http://www.w3.org/Graphics/SVG/1.1/DTD/svg11.dtd">
<!-- Generated by graphviz version 2.40.1 (20161225.0304)
 -->
<!-- Title: inheritanced17c57cb45 Pages: 1 -->
<svg width="576pt" height="40pt"
 viewBox="0.00 0.00 576.00 39.51" xmlns="http://www.w3.org/2000/svg" xmlns:xlink="http://www.w3.org/1999/xlink">
<g id="graph0" class="graph" transform="scale(.6174 .6174) rotate(0) translate(4 60)">
<title>inheritanced17c57cb45</title>
<polygon fill="#ffffff" stroke="transparent" points="-4,4 -4,-60 929,-60 929,4 -4,4"/>
<!-- pyGHDL.dom.DOMMixin -->
<g id="node1" class="node">
<title>pyGHDL.dom.DOMMixin</title>
<g id="a_node1"><a xlink:href="../pyGHDL.dom.html#pyGHDL.dom.DOMMixin" xlink:title="pyGHDL.dom.DOMMixin" target="_top">
<polygon fill="none" stroke="#000000" stroke-width=".5" points="666.5,-56 532.5,-56 532.5,-37 666.5,-37 666.5,-56"/>
<text text-anchor="middle" x="599.5" y="-44" font-family="Vera Sans, DejaVu Sans, Liberation Sans, Arial, Helvetica, sans" font-size="10.00" fill="#000000">pyGHDL.dom.DOMMixin</text>
</a>
</g>
</g>
<!-- pyGHDL.dom.Expression.Aggregate -->
<g id="node2" class="node">
<title>pyGHDL.dom.Expression.Aggregate</title>
<g id="a_node2"><a xlink:href="../pyGHDL/pyGHDL.dom.Expression.html#pyGHDL.dom.Expression.Aggregate" xlink:title="pyGHDL.dom.Expression.Aggregate" target="_top">
<polygon fill="none" stroke="#000000" stroke-width=".5" points="925,-37 734,-37 734,-18 925,-18 925,-37"/>
<text text-anchor="middle" x="829.5" y="-25" font-family="Vera Sans, DejaVu Sans, Liberation Sans, Arial, Helvetica, sans" font-size="10.00" fill="#000000">pyGHDL.dom.Expression.Aggregate</text>
</a>
</g>
</g>
<!-- pyGHDL.dom.DOMMixin&#45;&gt;pyGHDL.dom.Expression.Aggregate -->
<g id="edge2" class="edge">
<title>pyGHDL.dom.DOMMixin&#45;&gt;pyGHDL.dom.Expression.Aggregate</title>
<path fill="none" stroke="#000000" stroke-width=".5" d="M666.6438,-40.9533C686.0387,-39.3512 707.6438,-37.5664 728.6134,-35.8341"/>
<polygon fill="#000000" stroke="#000000" stroke-width=".5" points="728.804,-37.5744 733.643,-35.4186 728.5158,-34.0863 728.804,-37.5744"/>
</g>
<!-- pyVHDLModel.VHDLModel.Aggregate -->
<g id="node3" class="node">
<title>pyVHDLModel.VHDLModel.Aggregate</title>
<polygon fill="none" stroke="#000000" stroke-width=".5" points="698,-19 501,-19 501,0 698,0 698,-19"/>
<text text-anchor="middle" x="599.5" y="-7" font-family="Vera Sans, DejaVu Sans, Liberation Sans, Arial, Helvetica, sans" font-size="10.00" fill="#000000">pyVHDLModel.VHDLModel.Aggregate</text>
</g>
<!-- pyVHDLModel.VHDLModel.Aggregate&#45;&gt;pyGHDL.dom.Expression.Aggregate -->
<g id="edge1" class="edge">
<title>pyVHDLModel.VHDLModel.Aggregate&#45;&gt;pyGHDL.dom.Expression.Aggregate</title>
<path fill="none" stroke="#000000" stroke-width=".5" d="M698.0416,-17.212C708.2053,-18.0074 718.544,-18.8165 728.7315,-19.6138"/>
<polygon fill="#000000" stroke="#000000" stroke-width=".5" points="728.5977,-21.3586 733.719,-20.0041 728.8708,-17.8692 728.5977,-21.3586"/>
</g>
<!-- pyVHDLModel.VHDLModel.BaseExpression -->
<g id="node4" class="node">
<title>pyVHDLModel.VHDLModel.BaseExpression</title>
<g id="a_node4"><a xlink:title="A ``BaseExpression`` is a base&#45;class for all expressions.">
<polygon fill="none" stroke="#000000" stroke-width=".5" points="465,-19 241,-19 241,0 465,0 465,-19"/>
<text text-anchor="middle" x="353" y="-7" font-family="Vera Sans, DejaVu Sans, Liberation Sans, Arial, Helvetica, sans" font-size="10.00" fill="#000000">pyVHDLModel.VHDLModel.BaseExpression</text>
</a>
</g>
</g>
<!-- pyVHDLModel.VHDLModel.BaseExpression&#45;&gt;pyVHDLModel.VHDLModel.Aggregate -->
<g id="edge3" class="edge">
<title>pyVHDLModel.VHDLModel.BaseExpression&#45;&gt;pyVHDLModel.VHDLModel.Aggregate</title>
<path fill="none" stroke="#000000" stroke-width=".5" d="M465.0701,-9.5C475.2505,-9.5 485.5335,-9.5 495.6382,-9.5"/>
<polygon fill="#000000" stroke="#000000" stroke-width=".5" points="495.9046,-11.2501 500.9045,-9.5 495.9045,-7.7501 495.9046,-11.2501"/>
</g>
<!-- pyVHDLModel.VHDLModel.ModelEntity -->
<g id="node5" class="node">
<title>pyVHDLModel.VHDLModel.ModelEntity</title>
<g id="a_node5"><a xlink:title="``ModelEntity`` is the base class for all classes in the VHDL language model,">
<polygon fill="none" stroke="#000000" stroke-width=".5" points="205,-19 0,-19 0,0 205,0 205,-19"/>
<text text-anchor="middle" x="102.5" y="-7" font-family="Vera Sans, DejaVu Sans, Liberation Sans, Arial, Helvetica, sans" font-size="10.00" fill="#000000">pyVHDLModel.VHDLModel.ModelEntity</text>
</a>
</g>
</g>
<!-- pyVHDLModel.VHDLModel.ModelEntity&#45;&gt;pyVHDLModel.VHDLModel.BaseExpression -->
<g id="edge4" class="edge">
<title>pyVHDLModel.VHDLModel.ModelEntity&#45;&gt;pyVHDLModel.VHDLModel.BaseExpression</title>
<path fill="none" stroke="#000000" stroke-width=".5" d="M205.1107,-9.5C215.2127,-9.5 225.5179,-9.5 235.7516,-9.5"/>
<polygon fill="#000000" stroke="#000000" stroke-width=".5" points="235.7685,-11.2501 240.7685,-9.5 235.7684,-7.7501 235.7685,-11.2501"/>
</g>
</g>
</svg>
