<?xml version="1.0" encoding="UTF-8" standalone="no"?>
<!DOCTYPE svg PUBLIC "-//W3C//DTD SVG 1.1//EN"
 "http://www.w3.org/Graphics/SVG/1.1/DTD/svg11.dtd">
<!-- Generated by graphviz version 2.40.1 (20161225.0304)
 -->
<!-- Title: inheritancef5407852c5 Pages: 1 -->
<svg width="576pt" height="29pt"
 viewBox="0.00 0.00 576.00 28.87" xmlns="http://www.w3.org/2000/svg" xmlns:xlink="http://www.w3.org/1999/xlink">
<g id="graph0" class="graph" transform="scale(.4511 .4511) rotate(0) translate(4 60)">
<title>inheritancef5407852c5</title>
<polygon fill="#ffffff" stroke="transparent" points="-4,4 -4,-60 1273,-60 1273,4 -4,4"/>
<!-- pyGHDL.dom.DOMMixin -->
<g id="node1" class="node">
<title>pyGHDL.dom.DOMMixin</title>
<g id="a_node1"><a xlink:href="../pyGHDL.dom.html#pyGHDL.dom.DOMMixin" xlink:title="pyGHDL.dom.DOMMixin" target="_top">
<polygon fill="none" stroke="#000000" stroke-width=".5" points="952,-56 818,-56 818,-37 952,-37 952,-56"/>
<text text-anchor="middle" x="885" y="-44" font-family="Vera Sans, DejaVu Sans, Liberation Sans, Arial, Helvetica, sans" font-size="10.00" fill="#000000">pyGHDL.dom.DOMMixin</text>
</a>
</g>
</g>
<!-- pyGHDL.dom.Expression.InverseExpression -->
<g id="node2" class="node">
<title>pyGHDL.dom.Expression.InverseExpression</title>
<g id="a_node2"><a xlink:href="../pyGHDL/pyGHDL.dom.Expression.html#pyGHDL.dom.Expression.InverseExpression" xlink:title="pyGHDL.dom.Expression.InverseExpression" target="_top">
<polygon fill="none" stroke="#000000" stroke-width=".5" points="1269,-37 1039,-37 1039,-18 1269,-18 1269,-37"/>
<text text-anchor="middle" x="1154" y="-25" font-family="Vera Sans, DejaVu Sans, Liberation Sans, Arial, Helvetica, sans" font-size="10.00" fill="#000000">pyGHDL.dom.Expression.InverseExpression</text>
</a>
</g>
</g>
<!-- pyGHDL.dom.DOMMixin&#45;&gt;pyGHDL.dom.Expression.InverseExpression -->
<g id="edge2" class="edge">
<title>pyGHDL.dom.DOMMixin&#45;&gt;pyGHDL.dom.Expression.InverseExpression</title>
<path fill="none" stroke="#000000" stroke-width=".5" d="M952.1862,-41.7545C976.8712,-40.011 1005.6321,-37.9795 1033.5738,-36.0059"/>
<polygon fill="#000000" stroke="#000000" stroke-width=".5" points="1033.9162,-37.7362 1038.7804,-35.6382 1033.6695,-34.2449 1033.9162,-37.7362"/>
</g>
<!-- pyVHDLModel.VHDLModel.InverseExpression -->
<g id="node3" class="node">
<title>pyVHDLModel.VHDLModel.InverseExpression</title>
<polygon fill="none" stroke="#000000" stroke-width=".5" points="1003,-19 767,-19 767,0 1003,0 1003,-19"/>
<text text-anchor="middle" x="885" y="-7" font-family="Vera Sans, DejaVu Sans, Liberation Sans, Arial, Helvetica, sans" font-size="10.00" fill="#000000">pyVHDLModel.VHDLModel.InverseExpression</text>
</g>
<!-- pyVHDLModel.VHDLModel.InverseExpression&#45;&gt;pyGHDL.dom.Expression.InverseExpression -->
<g id="edge1" class="edge">
<title>pyVHDLModel.VHDLModel.InverseExpression&#45;&gt;pyGHDL.dom.Expression.InverseExpression</title>
<path fill="none" stroke="#000000" stroke-width=".5" d="M1003.3788,-17.4213C1013.3415,-18.0879 1023.4239,-18.7626 1033.4032,-19.4303"/>
<polygon fill="#000000" stroke="#000000" stroke-width=".5" points="1033.5054,-21.191 1038.6111,-19.7788 1033.7392,-17.6988 1033.5054,-21.191"/>
</g>
<!-- pyVHDLModel.VHDLModel.BaseExpression -->
<g id="node4" class="node">
<title>pyVHDLModel.VHDLModel.BaseExpression</title>
<g id="a_node4"><a xlink:title="A ``BaseExpression`` is a base&#45;class for all expressions.">
<polygon fill="none" stroke="#000000" stroke-width=".5" points="465,-19 241,-19 241,0 465,0 465,-19"/>
<text text-anchor="middle" x="353" y="-7" font-family="Vera Sans, DejaVu Sans, Liberation Sans, Arial, Helvetica, sans" font-size="10.00" fill="#000000">pyVHDLModel.VHDLModel.BaseExpression</text>
</a>
</g>
</g>
<!-- pyVHDLModel.VHDLModel.UnaryExpression -->
<g id="node6" class="node">
<title>pyVHDLModel.VHDLModel.UnaryExpression</title>
<g id="a_node6"><a xlink:title="A ``UnaryExpression`` is a base&#45;class for all unary expressions.">
<polygon fill="none" stroke="#000000" stroke-width=".5" points="731,-19 501,-19 501,0 731,0 731,-19"/>
<text text-anchor="middle" x="616" y="-7" font-family="Vera Sans, DejaVu Sans, Liberation Sans, Arial, Helvetica, sans" font-size="10.00" fill="#000000">pyVHDLModel.VHDLModel.UnaryExpression</text>
</a>
</g>
</g>
<!-- pyVHDLModel.VHDLModel.BaseExpression&#45;&gt;pyVHDLModel.VHDLModel.UnaryExpression -->
<g id="edge5" class="edge">
<title>pyVHDLModel.VHDLModel.BaseExpression&#45;&gt;pyVHDLModel.VHDLModel.UnaryExpression</title>
<path fill="none" stroke="#000000" stroke-width=".5" d="M465.2985,-9.5C475.2853,-9.5 485.4231,-9.5 495.4748,-9.5"/>
<polygon fill="#000000" stroke="#000000" stroke-width=".5" points="495.7221,-11.2501 500.7221,-9.5 495.7221,-7.7501 495.7221,-11.2501"/>
</g>
<!-- pyVHDLModel.VHDLModel.ModelEntity -->
<g id="node5" class="node">
<title>pyVHDLModel.VHDLModel.ModelEntity</title>
<g id="a_node5"><a xlink:title="``ModelEntity`` is the base class for all classes in the VHDL language model,">
<polygon fill="none" stroke="#000000" stroke-width=".5" points="205,-19 0,-19 0,0 205,0 205,-19"/>
<text text-anchor="middle" x="102.5" y="-7" font-family="Vera Sans, DejaVu Sans, Liberation Sans, Arial, Helvetica, sans" font-size="10.00" fill="#000000">pyVHDLModel.VHDLModel.ModelEntity</text>
</a>
</g>
</g>
<!-- pyVHDLModel.VHDLModel.ModelEntity&#45;&gt;pyVHDLModel.VHDLModel.BaseExpression -->
<g id="edge3" class="edge">
<title>pyVHDLModel.VHDLModel.ModelEntity&#45;&gt;pyVHDLModel.VHDLModel.BaseExpression</title>
<path fill="none" stroke="#000000" stroke-width=".5" d="M205.1107,-9.5C215.2127,-9.5 225.5179,-9.5 235.7516,-9.5"/>
<polygon fill="#000000" stroke="#000000" stroke-width=".5" points="235.7685,-11.2501 240.7685,-9.5 235.7684,-7.7501 235.7685,-11.2501"/>
</g>
<!-- pyVHDLModel.VHDLModel.UnaryExpression&#45;&gt;pyVHDLModel.VHDLModel.InverseExpression -->
<g id="edge4" class="edge">
<title>pyVHDLModel.VHDLModel.UnaryExpression&#45;&gt;pyVHDLModel.VHDLModel.InverseExpression</title>
<path fill="none" stroke="#000000" stroke-width=".5" d="M731.2508,-9.5C741.4222,-9.5 751.7436,-9.5 761.9757,-9.5"/>
<polygon fill="#000000" stroke="#000000" stroke-width=".5" points="761.9905,-11.2501 766.9905,-9.5 761.9905,-7.7501 761.9905,-11.2501"/>
</g>
</g>
</svg>
