<?xml version="1.0" encoding="UTF-8" standalone="no"?>
<!DOCTYPE svg PUBLIC "-//W3C//DTD SVG 1.1//EN"
 "http://www.w3.org/Graphics/SVG/1.1/DTD/svg11.dtd">
<!-- Generated by graphviz version 2.40.1 (20161225.0304)
 -->
<!-- Title: inheritancef9aede6862 Pages: 1 -->
<svg width="576pt" height="34pt"
 viewBox="0.00 0.00 576.00 33.57" xmlns="http://www.w3.org/2000/svg" xmlns:xlink="http://www.w3.org/1999/xlink">
<g id="graph0" class="graph" transform="scale(.5246 .5246) rotate(0) translate(4 60)">
<title>inheritancef9aede6862</title>
<polygon fill="#ffffff" stroke="transparent" points="-4,4 -4,-60 1094,-60 1094,4 -4,4"/>
<!-- pyGHDL.dom.Aggregates.SimpleAggregateElement -->
<g id="node1" class="node">
<title>pyGHDL.dom.Aggregates.SimpleAggregateElement</title>
<g id="a_node1"><a xlink:href="../pyGHDL/pyGHDL.dom.Aggregates.html#pyGHDL.dom.Aggregates.SimpleAggregateElement" xlink:title="pyGHDL.dom.Aggregates.SimpleAggregateElement" target="_top">
<polygon fill="none" stroke="#000000" stroke-width=".5" points="1090,-37 823,-37 823,-18 1090,-18 1090,-37"/>
<text text-anchor="middle" x="956.5" y="-25" font-family="Vera Sans, DejaVu Sans, Liberation Sans, Arial, Helvetica, sans" font-size="10.00" fill="#000000">pyGHDL.dom.Aggregates.SimpleAggregateElement</text>
</a>
</g>
</g>
<!-- pyVHDLModel.VHDLModel.SimpleAggregateElement -->
<g id="node2" class="node">
<title>pyVHDLModel.VHDLModel.SimpleAggregateElement</title>
<polygon fill="none" stroke="#000000" stroke-width=".5" points="787,-56 515,-56 515,-37 787,-37 787,-56"/>
<text text-anchor="middle" x="651" y="-44" font-family="Vera Sans, DejaVu Sans, Liberation Sans, Arial, Helvetica, sans" font-size="10.00" fill="#000000">pyVHDLModel.VHDLModel.SimpleAggregateElement</text>
</g>
<!-- pyVHDLModel.VHDLModel.SimpleAggregateElement&#45;&gt;pyGHDL.dom.Aggregates.SimpleAggregateElement -->
<g id="edge1" class="edge">
<title>pyVHDLModel.VHDLModel.SimpleAggregateElement&#45;&gt;pyGHDL.dom.Aggregates.SimpleAggregateElement</title>
<path fill="none" stroke="#000000" stroke-width=".5" d="M787.221,-38.028C797.2477,-37.4044 807.3705,-36.7748 817.4139,-36.1502"/>
<polygon fill="#000000" stroke="#000000" stroke-width=".5" points="817.7761,-37.8811 822.6578,-35.8241 817.5588,-34.3879 817.7761,-37.8811"/>
</g>
<!-- pyGHDL.dom.DOMMixin -->
<g id="node3" class="node">
<title>pyGHDL.dom.DOMMixin</title>
<g id="a_node3"><a xlink:href="../pyGHDL.dom.html#pyGHDL.dom.DOMMixin" xlink:title="pyGHDL.dom.DOMMixin" target="_top">
<polygon fill="none" stroke="#000000" stroke-width=".5" points="718,-19 584,-19 584,0 718,0 718,-19"/>
<text text-anchor="middle" x="651" y="-7" font-family="Vera Sans, DejaVu Sans, Liberation Sans, Arial, Helvetica, sans" font-size="10.00" fill="#000000">pyGHDL.dom.DOMMixin</text>
</a>
</g>
</g>
<!-- pyGHDL.dom.DOMMixin&#45;&gt;pyGHDL.dom.Aggregates.SimpleAggregateElement -->
<g id="edge2" class="edge">
<title>pyGHDL.dom.DOMMixin&#45;&gt;pyGHDL.dom.Aggregates.SimpleAggregateElement</title>
<path fill="none" stroke="#000000" stroke-width=".5" d="M718.0433,-13.4502C747.4236,-15.1813 783.0586,-17.2809 817.7254,-19.3234"/>
<polygon fill="#000000" stroke="#000000" stroke-width=".5" points="817.7379,-21.0771 822.8322,-19.6243 817.9439,-17.5832 817.7379,-21.0771"/>
</g>
<!-- pyVHDLModel.VHDLModel.AggregateElement -->
<g id="node4" class="node">
<title>pyVHDLModel.VHDLModel.AggregateElement</title>
<g id="a_node4"><a xlink:title="A ``AggregateElement`` is a base&#45;class for all aggregate elements.">
<polygon fill="none" stroke="#000000" stroke-width=".5" points="479,-56 241,-56 241,-37 479,-37 479,-56"/>
<text text-anchor="middle" x="360" y="-44" font-family="Vera Sans, DejaVu Sans, Liberation Sans, Arial, Helvetica, sans" font-size="10.00" fill="#000000">pyVHDLModel.VHDLModel.AggregateElement</text>
</a>
</g>
</g>
<!-- pyVHDLModel.VHDLModel.AggregateElement&#45;&gt;pyVHDLModel.VHDLModel.SimpleAggregateElement -->
<g id="edge4" class="edge">
<title>pyVHDLModel.VHDLModel.AggregateElement&#45;&gt;pyVHDLModel.VHDLModel.SimpleAggregateElement</title>
<path fill="none" stroke="#000000" stroke-width=".5" d="M479.2005,-46.5C489.317,-46.5 499.6091,-46.5 509.8721,-46.5"/>
<polygon fill="#000000" stroke="#000000" stroke-width=".5" points="509.9071,-48.2501 514.9071,-46.5 509.907,-44.7501 509.9071,-48.2501"/>
</g>
<!-- pyVHDLModel.VHDLModel.ModelEntity -->
<g id="node5" class="node">
<title>pyVHDLModel.VHDLModel.ModelEntity</title>
<g id="a_node5"><a xlink:title="``ModelEntity`` is the base class for all classes in the VHDL language model,">
<polygon fill="none" stroke="#000000" stroke-width=".5" points="205,-56 0,-56 0,-37 205,-37 205,-56"/>
<text text-anchor="middle" x="102.5" y="-44" font-family="Vera Sans, DejaVu Sans, Liberation Sans, Arial, Helvetica, sans" font-size="10.00" fill="#000000">pyVHDLModel.VHDLModel.ModelEntity</text>
</a>
</g>
</g>
<!-- pyVHDLModel.VHDLModel.ModelEntity&#45;&gt;pyVHDLModel.VHDLModel.AggregateElement -->
<g id="edge3" class="edge">
<title>pyVHDLModel.VHDLModel.ModelEntity&#45;&gt;pyVHDLModel.VHDLModel.AggregateElement</title>
<path fill="none" stroke="#000000" stroke-width=".5" d="M205.0107,-46.5C215.1351,-46.5 225.4855,-46.5 235.797,-46.5"/>
<polygon fill="#000000" stroke="#000000" stroke-width=".5" points="235.8547,-48.2501 240.8547,-46.5 235.8547,-44.7501 235.8547,-48.2501"/>
</g>
</g>
</svg>
