<?xml version="1.0" encoding="UTF-8" standalone="no"?>
<!DOCTYPE svg PUBLIC "-//W3C//DTD SVG 1.1//EN"
 "http://www.w3.org/Graphics/SVG/1.1/DTD/svg11.dtd">
<!-- Generated by graphviz version 2.40.1 (20161225.0304)
 -->
<!-- Title: inheritance09b2fe0686 Pages: 1 -->
<svg width="576pt" height="50pt"
 viewBox="0.00 0.00 576.00 50.35" xmlns="http://www.w3.org/2000/svg" xmlns:xlink="http://www.w3.org/1999/xlink">
<g id="graph0" class="graph" transform="scale(.6141 .6141) rotate(0) translate(4 78)">
<title>inheritance09b2fe0686</title>
<polygon fill="#ffffff" stroke="transparent" points="-4,4 -4,-78 934,-78 934,4 -4,4"/>
<!-- pyGHDL.dom.DOMMixin -->
<g id="node1" class="node">
<title>pyGHDL.dom.DOMMixin</title>
<g id="a_node1"><a xlink:href="../pyGHDL.dom.html#pyGHDL.dom.DOMMixin" xlink:title="pyGHDL.dom.DOMMixin" target="_top">
<polygon fill="none" stroke="#000000" stroke-width=".5" points="723.5,-74 589.5,-74 589.5,-55 723.5,-55 723.5,-74"/>
<text text-anchor="middle" x="656.5" y="-62" font-family="Vera Sans, DejaVu Sans, Liberation Sans, Arial, Helvetica, sans" font-size="10.00" fill="#000000">pyGHDL.dom.DOMMixin</text>
</a>
</g>
</g>
<!-- pyGHDL.dom.Object.Signal -->
<g id="node2" class="node">
<title>pyGHDL.dom.Object.Signal</title>
<g id="a_node2"><a xlink:href="../pyGHDL/pyGHDL.dom.Object.html#pyGHDL.dom.Object.Signal" xlink:title="pyGHDL.dom.Object.Signal" target="_top">
<polygon fill="none" stroke="#000000" stroke-width=".5" points="930,-55 781,-55 781,-36 930,-36 930,-55"/>
<text text-anchor="middle" x="855.5" y="-43" font-family="Vera Sans, DejaVu Sans, Liberation Sans, Arial, Helvetica, sans" font-size="10.00" fill="#000000">pyGHDL.dom.Object.Signal</text>
</a>
</g>
</g>
<!-- pyGHDL.dom.DOMMixin&#45;&gt;pyGHDL.dom.Object.Signal -->
<g id="edge2" class="edge">
<title>pyGHDL.dom.DOMMixin&#45;&gt;pyGHDL.dom.Object.Signal</title>
<path fill="none" stroke="#000000" stroke-width=".5" d="M723.5949,-58.094C740.2628,-56.5025 758.2927,-54.7811 775.5112,-53.1371"/>
<polygon fill="#000000" stroke="#000000" stroke-width=".5" points="776.0154,-54.847 780.8264,-52.6296 775.6827,-51.3629 776.0154,-54.847"/>
</g>
<!-- pyVHDLModel.VHDLModel.Signal -->
<g id="node3" class="node">
<title>pyVHDLModel.VHDLModel.Signal</title>
<polygon fill="none" stroke="#000000" stroke-width=".5" points="745,-37 568,-37 568,-18 745,-18 745,-37"/>
<text text-anchor="middle" x="656.5" y="-25" font-family="Vera Sans, DejaVu Sans, Liberation Sans, Arial, Helvetica, sans" font-size="10.00" fill="#000000">pyVHDLModel.VHDLModel.Signal</text>
</g>
<!-- pyVHDLModel.VHDLModel.Signal&#45;&gt;pyGHDL.dom.Object.Signal -->
<g id="edge1" class="edge">
<title>pyVHDLModel.VHDLModel.Signal&#45;&gt;pyGHDL.dom.Object.Signal</title>
<path fill="none" stroke="#000000" stroke-width=".5" d="M745.2331,-35.5261C755.3831,-36.4442 765.6843,-37.376 775.7076,-38.2826"/>
<polygon fill="#000000" stroke="#000000" stroke-width=".5" points="775.7842,-40.0466 780.9215,-38.7542 776.0995,-36.5608 775.7842,-40.0466"/>
</g>
<!-- pyVHDLModel.VHDLModel.ModelEntity -->
<g id="node4" class="node">
<title>pyVHDLModel.VHDLModel.ModelEntity</title>
<g id="a_node4"><a xlink:title="``ModelEntity`` is the base class for all classes in the VHDL language model,">
<polygon fill="none" stroke="#000000" stroke-width=".5" points="208,-74 3,-74 3,-55 208,-55 208,-74"/>
<text text-anchor="middle" x="105.5" y="-62" font-family="Vera Sans, DejaVu Sans, Liberation Sans, Arial, Helvetica, sans" font-size="10.00" fill="#000000">pyVHDLModel.VHDLModel.ModelEntity</text>
</a>
</g>
</g>
<!-- pyVHDLModel.VHDLModel.Obj -->
<g id="node6" class="node">
<title>pyVHDLModel.VHDLModel.Obj</title>
<polygon fill="none" stroke="#000000" stroke-width=".5" points="471.5,-56 307.5,-56 307.5,-37 471.5,-37 471.5,-56"/>
<text text-anchor="middle" x="389.5" y="-44" font-family="Vera Sans, DejaVu Sans, Liberation Sans, Arial, Helvetica, sans" font-size="10.00" fill="#000000">pyVHDLModel.VHDLModel.Obj</text>
</g>
<!-- pyVHDLModel.VHDLModel.ModelEntity&#45;&gt;pyVHDLModel.VHDLModel.Obj -->
<g id="edge3" class="edge">
<title>pyVHDLModel.VHDLModel.ModelEntity&#45;&gt;pyVHDLModel.VHDLModel.Obj</title>
<path fill="none" stroke="#000000" stroke-width=".5" d="M208.0305,-58.0016C238.8204,-56.0501 272.2997,-53.9282 302.0215,-52.0444"/>
<polygon fill="#000000" stroke="#000000" stroke-width=".5" points="302.2616,-53.7828 307.1409,-51.7199 302.0402,-50.2898 302.2616,-53.7828"/>
</g>
<!-- pyVHDLModel.VHDLModel.NamedEntity -->
<g id="node5" class="node">
<title>pyVHDLModel.VHDLModel.NamedEntity</title>
<g id="a_node5"><a xlink:title="A ``NamedEntity`` is a mixin class for all VHDL entities that have identifiers.">
<polygon fill="none" stroke="#000000" stroke-width=".5" points="211,-37 0,-37 0,-18 211,-18 211,-37"/>
<text text-anchor="middle" x="105.5" y="-25" font-family="Vera Sans, DejaVu Sans, Liberation Sans, Arial, Helvetica, sans" font-size="10.00" fill="#000000">pyVHDLModel.VHDLModel.NamedEntity</text>
</a>
</g>
</g>
<!-- pyVHDLModel.VHDLModel.NamedEntity&#45;&gt;pyVHDLModel.VHDLModel.Obj -->
<g id="edge4" class="edge">
<title>pyVHDLModel.VHDLModel.NamedEntity&#45;&gt;pyVHDLModel.VHDLModel.Obj</title>
<path fill="none" stroke="#000000" stroke-width=".5" d="M211.2511,-34.5749C241.0926,-36.5713 273.223,-38.7209 301.8746,-40.6377"/>
<polygon fill="#000000" stroke="#000000" stroke-width=".5" points="302.0769,-42.4051 307.1826,-40.9929 302.3106,-38.9129 302.0769,-42.4051"/>
</g>
<!-- pyVHDLModel.VHDLModel.Obj&#45;&gt;pyVHDLModel.VHDLModel.Signal -->
<g id="edge5" class="edge">
<title>pyVHDLModel.VHDLModel.Obj&#45;&gt;pyVHDLModel.VHDLModel.Signal</title>
<path fill="none" stroke="#000000" stroke-width=".5" d="M471.7874,-40.6443C500.6116,-38.5932 533.1901,-36.2749 562.8729,-34.1626"/>
<polygon fill="#000000" stroke="#000000" stroke-width=".5" points="563.131,-35.8988 567.9941,-33.7982 562.8825,-32.4076 563.131,-35.8988"/>
</g>
<!-- pyVHDLModel.VHDLModel.WithDefaultExpressionMixin -->
<g id="node7" class="node">
<title>pyVHDLModel.VHDLModel.WithDefaultExpressionMixin</title>
<g id="a_node7"><a xlink:title="A ``WithDefaultExpression`` is a mixin class for all objects declarations">
<polygon fill="none" stroke="#000000" stroke-width=".5" points="532,-19 247,-19 247,0 532,0 532,-19"/>
<text text-anchor="middle" x="389.5" y="-7" font-family="Vera Sans, DejaVu Sans, Liberation Sans, Arial, Helvetica, sans" font-size="10.00" fill="#000000">pyVHDLModel.VHDLModel.WithDefaultExpressionMixin</text>
</a>
</g>
</g>
<!-- pyVHDLModel.VHDLModel.WithDefaultExpressionMixin&#45;&gt;pyVHDLModel.VHDLModel.Signal -->
<g id="edge6" class="edge">
<title>pyVHDLModel.VHDLModel.WithDefaultExpressionMixin&#45;&gt;pyVHDLModel.VHDLModel.Signal</title>
<path fill="none" stroke="#000000" stroke-width=".5" d="M530.4277,-19.0007C541.3086,-19.7343 552.1235,-20.4634 562.582,-21.1685"/>
<polygon fill="#000000" stroke="#000000" stroke-width=".5" points="562.5799,-22.9222 567.6863,-21.5126 562.8154,-19.4301 562.5799,-22.9222"/>
</g>
</g>
</svg>
