<?xml version="1.0" encoding="UTF-8" standalone="no"?>
<!DOCTYPE svg PUBLIC "-//W3C//DTD SVG 1.1//EN"
 "http://www.w3.org/Graphics/SVG/1.1/DTD/svg11.dtd">
<!-- Generated by graphviz version 2.40.1 (20161225.0304)
 -->
<!-- Title: inheritance94e9d1640a Pages: 1 -->
<svg width="576pt" height="38pt"
 viewBox="0.00 0.00 576.00 38.00" xmlns="http://www.w3.org/2000/svg" xmlns:xlink="http://www.w3.org/1999/xlink">
<g id="graph0" class="graph" transform="scale(.4579 .4579) rotate(0) translate(4 79)">
<title>inheritance94e9d1640a</title>
<polygon fill="#ffffff" stroke="transparent" points="-4,4 -4,-79 1254,-79 1254,4 -4,4"/>
<!-- pyGHDL.dom.DOMMixin -->
<g id="node1" class="node">
<title>pyGHDL.dom.DOMMixin</title>
<g id="a_node1"><a xlink:href="../pyGHDL.dom.html#pyGHDL.dom.DOMMixin" xlink:title="pyGHDL.dom.DOMMixin" target="_top">
<polygon fill="none" stroke="#000000" stroke-width=".5" points="978,-74 844,-74 844,-55 978,-55 978,-74"/>
<text text-anchor="middle" x="911" y="-62" font-family="Vera Sans, DejaVu Sans, Liberation Sans, Arial, Helvetica, sans" font-size="10.00" fill="#000000">pyGHDL.dom.DOMMixin</text>
</a>
</g>
</g>
<!-- pyGHDL.dom.DesignUnit.Architecture -->
<g id="node2" class="node">
<title>pyGHDL.dom.DesignUnit.Architecture</title>
<g id="a_node2"><a xlink:href="../pyGHDL/pyGHDL.dom.DesignUnit.html#pyGHDL.dom.DesignUnit.Architecture" xlink:title="pyGHDL.dom.DesignUnit.Architecture" target="_top">
<polygon fill="none" stroke="#000000" stroke-width=".5" points="1250,-55 1050,-55 1050,-36 1250,-36 1250,-55"/>
<text text-anchor="middle" x="1150" y="-43" font-family="Vera Sans, DejaVu Sans, Liberation Sans, Arial, Helvetica, sans" font-size="10.00" fill="#000000">pyGHDL.dom.DesignUnit.Architecture</text>
</a>
</g>
</g>
<!-- pyGHDL.dom.DOMMixin&#45;&gt;pyGHDL.dom.DesignUnit.Architecture -->
<g id="edge2" class="edge">
<title>pyGHDL.dom.DOMMixin&#45;&gt;pyGHDL.dom.DesignUnit.Architecture</title>
<path fill="none" stroke="#000000" stroke-width=".5" d="M978.2108,-59.1569C998.8767,-57.514 1022.1413,-55.6645 1044.7191,-53.8696"/>
<polygon fill="#000000" stroke="#000000" stroke-width=".5" points="1044.9831,-55.6042 1049.8286,-53.4634 1044.7056,-52.1152 1044.9831,-55.6042"/>
</g>
<!-- pyVHDLModel.VHDLModel.Architecture -->
<g id="node3" class="node">
<title>pyVHDLModel.VHDLModel.Architecture</title>
<polygon fill="none" stroke="#000000" stroke-width=".5" points="1014,-37 808,-37 808,-18 1014,-18 1014,-37"/>
<text text-anchor="middle" x="911" y="-25" font-family="Vera Sans, DejaVu Sans, Liberation Sans, Arial, Helvetica, sans" font-size="10.00" fill="#000000">pyVHDLModel.VHDLModel.Architecture</text>
</g>
<!-- pyVHDLModel.VHDLModel.Architecture&#45;&gt;pyGHDL.dom.DesignUnit.Architecture -->
<g id="edge1" class="edge">
<title>pyVHDLModel.VHDLModel.Architecture&#45;&gt;pyGHDL.dom.DesignUnit.Architecture</title>
<path fill="none" stroke="#000000" stroke-width=".5" d="M1014.0916,-35.2642C1024.2974,-36.0329 1034.6659,-36.8137 1044.8917,-37.5839"/>
<polygon fill="#000000" stroke="#000000" stroke-width=".5" points="1044.7816,-39.3305 1049.8989,-37.961 1045.0445,-35.8404 1044.7816,-39.3305"/>
</g>
<!-- pyVHDLModel.VHDLModel.SecondaryUnit -->
<g id="node4" class="node">
<title>pyVHDLModel.VHDLModel.SecondaryUnit</title>
<g id="a_node4"><a xlink:title="A ``SecondaryUnit`` is a base&#45;class for all secondary units.">
<polygon fill="none" stroke="#000000" stroke-width=".5" points="737,-56 519,-56 519,-37 737,-37 737,-56"/>
<text text-anchor="middle" x="628" y="-44" font-family="Vera Sans, DejaVu Sans, Liberation Sans, Arial, Helvetica, sans" font-size="10.00" fill="#000000">pyVHDLModel.VHDLModel.SecondaryUnit</text>
</a>
</g>
</g>
<!-- pyVHDLModel.VHDLModel.SecondaryUnit&#45;&gt;pyVHDLModel.VHDLModel.Architecture -->
<g id="edge3" class="edge">
<title>pyVHDLModel.VHDLModel.SecondaryUnit&#45;&gt;pyVHDLModel.VHDLModel.Architecture</title>
<path fill="none" stroke="#000000" stroke-width=".5" d="M737.0104,-39.1813C758.4889,-37.7393 781.0232,-36.2264 802.4853,-34.7854"/>
<polygon fill="#000000" stroke="#000000" stroke-width=".5" points="802.7538,-36.5214 807.6253,-34.4404 802.5193,-33.0293 802.7538,-36.5214"/>
</g>
<!-- pyVHDLModel.VHDLModel.MixinDesignUnitWithContext -->
<g id="node5" class="node">
<title>pyVHDLModel.VHDLModel.MixinDesignUnitWithContext</title>
<g id="a_node5"><a xlink:title="A ``DesignUnitWithReferences`` is a base&#45;class for all design units with contexts.">
<polygon fill="none" stroke="#000000" stroke-width=".5" points="772,-19 484,-19 484,0 772,0 772,-19"/>
<text text-anchor="middle" x="628" y="-7" font-family="Vera Sans, DejaVu Sans, Liberation Sans, Arial, Helvetica, sans" font-size="10.00" fill="#000000">pyVHDLModel.VHDLModel.MixinDesignUnitWithContext</text>
</a>
</g>
</g>
<!-- pyVHDLModel.VHDLModel.MixinDesignUnitWithContext&#45;&gt;pyVHDLModel.VHDLModel.Architecture -->
<g id="edge4" class="edge">
<title>pyVHDLModel.VHDLModel.MixinDesignUnitWithContext&#45;&gt;pyVHDLModel.VHDLModel.Architecture</title>
<path fill="none" stroke="#000000" stroke-width=".5" d="M772.4017,-18.6846C782.6133,-19.3341 792.8048,-19.9823 802.7633,-20.6157"/>
<polygon fill="#000000" stroke="#000000" stroke-width=".5" points="802.8475,-22.3745 807.9486,-20.9455 803.0698,-18.8816 802.8475,-22.3745"/>
</g>
<!-- pyVHDLModel.VHDLModel.DesignUnit -->
<g id="node6" class="node">
<title>pyVHDLModel.VHDLModel.DesignUnit</title>
<g id="a_node6"><a xlink:title="A ``DesignUnit`` is a base&#45;class for all design units.">
<polygon fill="none" stroke="#000000" stroke-width=".5" points="448,-56 247,-56 247,-37 448,-37 448,-56"/>
<text text-anchor="middle" x="347.5" y="-44" font-family="Vera Sans, DejaVu Sans, Liberation Sans, Arial, Helvetica, sans" font-size="10.00" fill="#000000">pyVHDLModel.VHDLModel.DesignUnit</text>
</a>
</g>
</g>
<!-- pyVHDLModel.VHDLModel.DesignUnit&#45;&gt;pyVHDLModel.VHDLModel.SecondaryUnit -->
<g id="edge7" class="edge">
<title>pyVHDLModel.VHDLModel.DesignUnit&#45;&gt;pyVHDLModel.VHDLModel.SecondaryUnit</title>
<path fill="none" stroke="#000000" stroke-width=".5" d="M448.3706,-46.5C469.4546,-46.5 491.8306,-46.5 513.3719,-46.5"/>
<polygon fill="#000000" stroke="#000000" stroke-width=".5" points="513.5355,-48.2501 518.5355,-46.5 513.5354,-44.7501 513.5355,-48.2501"/>
</g>
<!-- pyVHDLModel.VHDLModel.ModelEntity -->
<g id="node7" class="node">
<title>pyVHDLModel.VHDLModel.ModelEntity</title>
<g id="a_node7"><a xlink:title="``ModelEntity`` is the base class for all classes in the VHDL language model,">
<polygon fill="none" stroke="#000000" stroke-width=".5" points="208,-75 3,-75 3,-56 208,-56 208,-75"/>
<text text-anchor="middle" x="105.5" y="-63" font-family="Vera Sans, DejaVu Sans, Liberation Sans, Arial, Helvetica, sans" font-size="10.00" fill="#000000">pyVHDLModel.VHDLModel.ModelEntity</text>
</a>
</g>
</g>
<!-- pyVHDLModel.VHDLModel.ModelEntity&#45;&gt;pyVHDLModel.VHDLModel.DesignUnit -->
<g id="edge5" class="edge">
<title>pyVHDLModel.VHDLModel.ModelEntity&#45;&gt;pyVHDLModel.VHDLModel.DesignUnit</title>
<path fill="none" stroke="#000000" stroke-width=".5" d="M208.1298,-57.4423C219.1894,-56.574 230.4586,-55.6892 241.5563,-54.8179"/>
<polygon fill="#000000" stroke="#000000" stroke-width=".5" points="241.7941,-56.5547 246.6417,-54.4186 241.5201,-53.0654 241.7941,-56.5547"/>
</g>
<!-- pyVHDLModel.VHDLModel.NamedEntity -->
<g id="node8" class="node">
<title>pyVHDLModel.VHDLModel.NamedEntity</title>
<g id="a_node8"><a xlink:title="A ``NamedEntity`` is a mixin class for all VHDL entities that have identifiers.">
<polygon fill="none" stroke="#000000" stroke-width=".5" points="211,-38 0,-38 0,-19 211,-19 211,-38"/>
<text text-anchor="middle" x="105.5" y="-26" font-family="Vera Sans, DejaVu Sans, Liberation Sans, Arial, Helvetica, sans" font-size="10.00" fill="#000000">pyVHDLModel.VHDLModel.NamedEntity</text>
</a>
</g>
</g>
<!-- pyVHDLModel.VHDLModel.NamedEntity&#45;&gt;pyVHDLModel.VHDLModel.DesignUnit -->
<g id="edge6" class="edge">
<title>pyVHDLModel.VHDLModel.NamedEntity&#45;&gt;pyVHDLModel.VHDLModel.DesignUnit</title>
<path fill="none" stroke="#000000" stroke-width=".5" d="M211.2927,-36.3689C221.3651,-37.1181 231.5804,-37.8779 241.6533,-38.6271"/>
<polygon fill="#000000" stroke="#000000" stroke-width=".5" points="241.7902,-40.392 246.9063,-39.0178 242.0499,-36.9017 241.7902,-40.392"/>
</g>
</g>
</svg>
