<?xml version="1.0" encoding="UTF-8" standalone="no"?>
<!DOCTYPE svg PUBLIC "-//W3C//DTD SVG 1.1//EN"
 "http://www.w3.org/Graphics/SVG/1.1/DTD/svg11.dtd">
<!-- Generated by graphviz version 2.40.1 (20161225.0304)
 -->
<!-- Title: inheritance38167ced73 Pages: 1 -->
<svg width="576pt" height="27pt"
 viewBox="0.00 0.00 576.00 26.99" xmlns="http://www.w3.org/2000/svg" xmlns:xlink="http://www.w3.org/1999/xlink">
<g id="graph0" class="graph" transform="scale(.4217 .4217) rotate(0) translate(4 60)">
<title>inheritance38167ced73</title>
<polygon fill="#ffffff" stroke="transparent" points="-4,4 -4,-60 1362,-60 1362,4 -4,4"/>
<!-- pyGHDL.dom.DOMMixin -->
<g id="node1" class="node">
<title>pyGHDL.dom.DOMMixin</title>
<g id="a_node1"><a xlink:href="../pyGHDL.dom.html#pyGHDL.dom.DOMMixin" xlink:title="pyGHDL.dom.DOMMixin" target="_top">
<polygon fill="none" stroke="#000000" stroke-width=".5" points="944,-56 810,-56 810,-37 944,-37 944,-56"/>
<text text-anchor="middle" x="877" y="-44" font-family="Vera Sans, DejaVu Sans, Liberation Sans, Arial, Helvetica, sans" font-size="10.00" fill="#000000">pyGHDL.dom.DOMMixin</text>
</a>
</g>
</g>
<!-- pyGHDL.dom.Symbol.ConstrainedScalarSubtypeSymbol -->
<g id="node2" class="node">
<title>pyGHDL.dom.Symbol.ConstrainedScalarSubtypeSymbol</title>
<g id="a_node2"><a xlink:href="../pyGHDL/pyGHDL.dom.Symbol.html#pyGHDL.dom.Symbol.ConstrainedScalarSubtypeSymbol" xlink:title="pyGHDL.dom.Symbol.ConstrainedScalarSubtypeSymbol" target="_top">
<polygon fill="none" stroke="#000000" stroke-width=".5" points="1358,-37 1069,-37 1069,-18 1358,-18 1358,-37"/>
<text text-anchor="middle" x="1213.5" y="-25" font-family="Vera Sans, DejaVu Sans, Liberation Sans, Arial, Helvetica, sans" font-size="10.00" fill="#000000">pyGHDL.dom.Symbol.ConstrainedScalarSubtypeSymbol</text>
</a>
</g>
</g>
<!-- pyGHDL.dom.DOMMixin&#45;&gt;pyGHDL.dom.Symbol.ConstrainedScalarSubtypeSymbol -->
<g id="edge2" class="edge">
<title>pyGHDL.dom.DOMMixin&#45;&gt;pyGHDL.dom.Symbol.ConstrainedScalarSubtypeSymbol</title>
<path fill="none" stroke="#000000" stroke-width=".5" d="M944.287,-42.7007C978.6596,-40.7599 1021.9535,-38.3154 1063.7118,-35.9576"/>
<polygon fill="#000000" stroke="#000000" stroke-width=".5" points="1063.9026,-37.6997 1068.796,-35.6705 1063.7053,-34.2053 1063.9026,-37.6997"/>
</g>
<!-- pyVHDLModel.VHDLModel.ConstrainedScalarSubtypeSymbol -->
<g id="node3" class="node">
<title>pyVHDLModel.VHDLModel.ConstrainedScalarSubtypeSymbol</title>
<polygon fill="none" stroke="#000000" stroke-width=".5" points="1033,-19 721,-19 721,0 1033,0 1033,-19"/>
<text text-anchor="middle" x="877" y="-7" font-family="Vera Sans, DejaVu Sans, Liberation Sans, Arial, Helvetica, sans" font-size="10.00" fill="#000000">pyVHDLModel.VHDLModel.ConstrainedScalarSubtypeSymbol</text>
</g>
<!-- pyVHDLModel.VHDLModel.ConstrainedScalarSubtypeSymbol&#45;&gt;pyGHDL.dom.Symbol.ConstrainedScalarSubtypeSymbol -->
<g id="edge1" class="edge">
<title>pyVHDLModel.VHDLModel.ConstrainedScalarSubtypeSymbol&#45;&gt;pyGHDL.dom.Symbol.ConstrainedScalarSubtypeSymbol</title>
<path fill="none" stroke="#000000" stroke-width=".5" d="M1033.4286,-17.8677C1043.5132,-18.4071 1053.6548,-18.9496 1063.7074,-19.4873"/>
<polygon fill="#000000" stroke="#000000" stroke-width=".5" points="1063.869,-21.2484 1068.9553,-19.768 1064.056,-17.7534 1063.869,-21.2484"/>
</g>
<!-- pyVHDLModel.VHDLModel.SubtypeSymbol -->
<g id="node4" class="node">
<title>pyVHDLModel.VHDLModel.SubtypeSymbol</title>
<polygon fill="none" stroke="#000000" stroke-width=".5" points="685,-19 461,-19 461,0 685,0 685,-19"/>
<text text-anchor="middle" x="573" y="-7" font-family="Vera Sans, DejaVu Sans, Liberation Sans, Arial, Helvetica, sans" font-size="10.00" fill="#000000">pyVHDLModel.VHDLModel.SubtypeSymbol</text>
</g>
<!-- pyVHDLModel.VHDLModel.SubtypeSymbol&#45;&gt;pyVHDLModel.VHDLModel.ConstrainedScalarSubtypeSymbol -->
<g id="edge3" class="edge">
<title>pyVHDLModel.VHDLModel.SubtypeSymbol&#45;&gt;pyVHDLModel.VHDLModel.ConstrainedScalarSubtypeSymbol</title>
<path fill="none" stroke="#000000" stroke-width=".5" d="M685.3347,-9.5C695.2913,-9.5 705.4921,-9.5 715.7492,-9.5"/>
<polygon fill="#000000" stroke="#000000" stroke-width=".5" points="715.7883,-11.2501 720.7883,-9.5 715.7882,-7.7501 715.7883,-11.2501"/>
</g>
<!-- pyVHDLModel.VHDLModel.ModelEntity -->
<g id="node5" class="node">
<title>pyVHDLModel.VHDLModel.ModelEntity</title>
<g id="a_node5"><a xlink:title="``ModelEntity`` is the base class for all classes in the VHDL language model,">
<polygon fill="none" stroke="#000000" stroke-width=".5" points="205,-19 0,-19 0,0 205,0 205,-19"/>
<text text-anchor="middle" x="102.5" y="-7" font-family="Vera Sans, DejaVu Sans, Liberation Sans, Arial, Helvetica, sans" font-size="10.00" fill="#000000">pyVHDLModel.VHDLModel.ModelEntity</text>
</a>
</g>
</g>
<!-- pyVHDLModel.VHDLModel.Symbol -->
<g id="node6" class="node">
<title>pyVHDLModel.VHDLModel.Symbol</title>
<polygon fill="none" stroke="#000000" stroke-width=".5" points="425,-19 241,-19 241,0 425,0 425,-19"/>
<text text-anchor="middle" x="333" y="-7" font-family="Vera Sans, DejaVu Sans, Liberation Sans, Arial, Helvetica, sans" font-size="10.00" fill="#000000">pyVHDLModel.VHDLModel.Symbol</text>
</g>
<!-- pyVHDLModel.VHDLModel.ModelEntity&#45;&gt;pyVHDLModel.VHDLModel.Symbol -->
<g id="edge5" class="edge">
<title>pyVHDLModel.VHDLModel.ModelEntity&#45;&gt;pyVHDLModel.VHDLModel.Symbol</title>
<path fill="none" stroke="#000000" stroke-width=".5" d="M205.2788,-9.5C215.3998,-9.5 225.6505,-9.5 235.7139,-9.5"/>
<polygon fill="#000000" stroke="#000000" stroke-width=".5" points="235.9577,-11.2501 240.9577,-9.5 235.9577,-7.7501 235.9577,-11.2501"/>
</g>
<!-- pyVHDLModel.VHDLModel.Symbol&#45;&gt;pyVHDLModel.VHDLModel.SubtypeSymbol -->
<g id="edge4" class="edge">
<title>pyVHDLModel.VHDLModel.Symbol&#45;&gt;pyVHDLModel.VHDLModel.SubtypeSymbol</title>
<path fill="none" stroke="#000000" stroke-width=".5" d="M425.1039,-9.5C435.1007,-9.5 445.3711,-9.5 455.6159,-9.5"/>
<polygon fill="#000000" stroke="#000000" stroke-width=".5" points="455.6419,-11.2501 460.6419,-9.5 455.6418,-7.7501 455.6419,-11.2501"/>
</g>
</g>
</svg>
