<?xml version="1.0" encoding="UTF-8" standalone="no"?>
<!DOCTYPE svg PUBLIC "-//W3C//DTD SVG 1.1//EN"
 "http://www.w3.org/Graphics/SVG/1.1/DTD/svg11.dtd">
<!-- Generated by graphviz version 2.40.1 (20161225.0304)
 -->
<!-- Title: inheritance5b6481f739 Pages: 1 -->
<svg width="576pt" height="48pt"
 viewBox="0.00 0.00 576.00 47.75" xmlns="http://www.w3.org/2000/svg" xmlns:xlink="http://www.w3.org/1999/xlink">
<g id="graph0" class="graph" transform="scale(.7461 .7461) rotate(0) translate(4 60)">
<title>inheritance5b6481f739</title>
<polygon fill="#ffffff" stroke="transparent" points="-4,4 -4,-60 768,-60 768,4 -4,4"/>
<!-- pyGHDL.dom.Attribute.AttributeSpecification -->
<g id="node1" class="node">
<title>pyGHDL.dom.Attribute.AttributeSpecification</title>
<g id="a_node1"><a xlink:href="../pyGHDL/pyGHDL.dom.Attribute.html#pyGHDL.dom.Attribute.AttributeSpecification" xlink:title="pyGHDL.dom.Attribute.AttributeSpecification" target="_top">
<polygon fill="none" stroke="#000000" stroke-width=".5" points="764,-37 529,-37 529,-18 764,-18 764,-37"/>
<text text-anchor="middle" x="646.5" y="-25" font-family="Vera Sans, DejaVu Sans, Liberation Sans, Arial, Helvetica, sans" font-size="10.00" fill="#000000">pyGHDL.dom.Attribute.AttributeSpecification</text>
</a>
</g>
</g>
<!-- pyVHDLModel.VHDLModel.AttributeSpecification -->
<g id="node2" class="node">
<title>pyVHDLModel.VHDLModel.AttributeSpecification</title>
<polygon fill="none" stroke="#000000" stroke-width=".5" points="493,-56 241,-56 241,-37 493,-37 493,-56"/>
<text text-anchor="middle" x="367" y="-44" font-family="Vera Sans, DejaVu Sans, Liberation Sans, Arial, Helvetica, sans" font-size="10.00" fill="#000000">pyVHDLModel.VHDLModel.AttributeSpecification</text>
</g>
<!-- pyVHDLModel.VHDLModel.AttributeSpecification&#45;&gt;pyGHDL.dom.Attribute.AttributeSpecification -->
<g id="edge1" class="edge">
<title>pyVHDLModel.VHDLModel.AttributeSpecification&#45;&gt;pyGHDL.dom.Attribute.AttributeSpecification</title>
<path fill="none" stroke="#000000" stroke-width=".5" d="M493.2577,-37.9172C503.3596,-37.2305 513.5563,-36.5373 523.6342,-35.8522"/>
<polygon fill="#000000" stroke="#000000" stroke-width=".5" points="524.0226,-37.58 528.8924,-35.4948 523.7851,-34.088 524.0226,-37.58"/>
</g>
<!-- pyGHDL.dom.DOMMixin -->
<g id="node3" class="node">
<title>pyGHDL.dom.DOMMixin</title>
<g id="a_node3"><a xlink:href="../pyGHDL.dom.html#pyGHDL.dom.DOMMixin" xlink:title="pyGHDL.dom.DOMMixin" target="_top">
<polygon fill="none" stroke="#000000" stroke-width=".5" points="434,-19 300,-19 300,0 434,0 434,-19"/>
<text text-anchor="middle" x="367" y="-7" font-family="Vera Sans, DejaVu Sans, Liberation Sans, Arial, Helvetica, sans" font-size="10.00" fill="#000000">pyGHDL.dom.DOMMixin</text>
</a>
</g>
</g>
<!-- pyGHDL.dom.DOMMixin&#45;&gt;pyGHDL.dom.Attribute.AttributeSpecification -->
<g id="edge2" class="edge">
<title>pyGHDL.dom.DOMMixin&#45;&gt;pyGHDL.dom.Attribute.AttributeSpecification</title>
<path fill="none" stroke="#000000" stroke-width=".5" d="M434.3029,-13.8344C461.1012,-15.5602 492.8122,-17.6024 523.4385,-19.5747"/>
<polygon fill="#000000" stroke="#000000" stroke-width=".5" points="523.6396,-21.3412 528.7417,-19.9163 523.8646,-17.8485 523.6396,-21.3412"/>
</g>
<!-- pyVHDLModel.VHDLModel.ModelEntity -->
<g id="node4" class="node">
<title>pyVHDLModel.VHDLModel.ModelEntity</title>
<g id="a_node4"><a xlink:title="``ModelEntity`` is the base class for all classes in the VHDL language model,">
<polygon fill="none" stroke="#000000" stroke-width=".5" points="205,-56 0,-56 0,-37 205,-37 205,-56"/>
<text text-anchor="middle" x="102.5" y="-44" font-family="Vera Sans, DejaVu Sans, Liberation Sans, Arial, Helvetica, sans" font-size="10.00" fill="#000000">pyVHDLModel.VHDLModel.ModelEntity</text>
</a>
</g>
</g>
<!-- pyVHDLModel.VHDLModel.ModelEntity&#45;&gt;pyVHDLModel.VHDLModel.AttributeSpecification -->
<g id="edge3" class="edge">
<title>pyVHDLModel.VHDLModel.ModelEntity&#45;&gt;pyVHDLModel.VHDLModel.AttributeSpecification</title>
<path fill="none" stroke="#000000" stroke-width=".5" d="M205.1412,-46.5C215.1246,-46.5 225.3453,-46.5 235.5595,-46.5"/>
<polygon fill="#000000" stroke="#000000" stroke-width=".5" points="235.5722,-48.2501 240.5722,-46.5 235.5722,-44.7501 235.5722,-48.2501"/>
</g>
</g>
</svg>
