<?xml version="1.0" encoding="UTF-8" standalone="no"?>
<!DOCTYPE svg PUBLIC "-//W3C//DTD SVG 1.1//EN"
 "http://www.w3.org/Graphics/SVG/1.1/DTD/svg11.dtd">
<!-- Generated by graphviz version 2.40.1 (20161225.0304)
 -->
<!-- Title: inheritanceada18111cd Pages: 1 -->
<svg width="576pt" height="24pt"
 viewBox="0.00 0.00 576.00 23.51" xmlns="http://www.w3.org/2000/svg" xmlns:xlink="http://www.w3.org/1999/xlink">
<g id="graph0" class="graph" transform="scale(.3673 .3673) rotate(0) translate(4 60)">
<title>inheritanceada18111cd</title>
<polygon fill="#ffffff" stroke="transparent" points="-4,4 -4,-60 1564,-60 1564,4 -4,4"/>
<!-- pyGHDL.dom.DOMMixin -->
<g id="node1" class="node">
<title>pyGHDL.dom.DOMMixin</title>
<g id="a_node1"><a xlink:href="../pyGHDL.dom.html#pyGHDL.dom.DOMMixin" xlink:title="pyGHDL.dom.DOMMixin" target="_top">
<polygon fill="none" stroke="#000000" stroke-width=".5" points="1244,-56 1110,-56 1110,-37 1244,-37 1244,-56"/>
<text text-anchor="middle" x="1177" y="-44" font-family="Vera Sans, DejaVu Sans, Liberation Sans, Arial, Helvetica, sans" font-size="10.00" fill="#000000">pyGHDL.dom.DOMMixin</text>
</a>
</g>
</g>
<!-- pyGHDL.dom.Expression.ModuloExpression -->
<g id="node2" class="node">
<title>pyGHDL.dom.Expression.ModuloExpression</title>
<g id="a_node2"><a xlink:href="../pyGHDL/pyGHDL.dom.Expression.html#pyGHDL.dom.Expression.ModuloExpression" xlink:title="pyGHDL.dom.Expression.ModuloExpression" target="_top">
<polygon fill="none" stroke="#000000" stroke-width=".5" points="1560,-37 1331,-37 1331,-18 1560,-18 1560,-37"/>
<text text-anchor="middle" x="1445.5" y="-25" font-family="Vera Sans, DejaVu Sans, Liberation Sans, Arial, Helvetica, sans" font-size="10.00" fill="#000000">pyGHDL.dom.Expression.ModuloExpression</text>
</a>
</g>
</g>
<!-- pyGHDL.dom.DOMMixin&#45;&gt;pyGHDL.dom.Expression.ModuloExpression -->
<g id="edge2" class="edge">
<title>pyGHDL.dom.DOMMixin&#45;&gt;pyGHDL.dom.Expression.ModuloExpression</title>
<path fill="none" stroke="#000000" stroke-width=".5" d="M1244.0613,-41.7545C1268.7736,-40.0058 1297.5783,-37.9675 1325.5459,-35.9884"/>
<polygon fill="#000000" stroke="#000000" stroke-width=".5" points="1325.8932,-37.7183 1330.7571,-35.6196 1325.6461,-34.227 1325.8932,-37.7183"/>
</g>
<!-- pyVHDLModel.VHDLModel.ModuloExpression -->
<g id="node3" class="node">
<title>pyVHDLModel.VHDLModel.ModuloExpression</title>
<polygon fill="none" stroke="#000000" stroke-width=".5" points="1295,-19 1059,-19 1059,0 1295,0 1295,-19"/>
<text text-anchor="middle" x="1177" y="-7" font-family="Vera Sans, DejaVu Sans, Liberation Sans, Arial, Helvetica, sans" font-size="10.00" fill="#000000">pyVHDLModel.VHDLModel.ModuloExpression</text>
</g>
<!-- pyVHDLModel.VHDLModel.ModuloExpression&#45;&gt;pyGHDL.dom.Expression.ModuloExpression -->
<g id="edge1" class="edge">
<title>pyVHDLModel.VHDLModel.ModuloExpression&#45;&gt;pyGHDL.dom.Expression.ModuloExpression</title>
<path fill="none" stroke="#000000" stroke-width=".5" d="M1295.1587,-17.4213C1305.2228,-18.0959 1315.4092,-18.7788 1325.4873,-19.4545"/>
<polygon fill="#000000" stroke="#000000" stroke-width=".5" points="1325.6406,-21.2186 1330.7465,-19.807 1325.8748,-17.7264 1325.6406,-21.2186"/>
</g>
<!-- pyVHDLModel.VHDLModel.BaseExpression -->
<g id="node4" class="node">
<title>pyVHDLModel.VHDLModel.BaseExpression</title>
<g id="a_node4"><a xlink:title="A ``BaseExpression`` is a base&#45;class for all expressions.">
<polygon fill="none" stroke="#000000" stroke-width=".5" points="465,-19 241,-19 241,0 465,0 465,-19"/>
<text text-anchor="middle" x="353" y="-7" font-family="Vera Sans, DejaVu Sans, Liberation Sans, Arial, Helvetica, sans" font-size="10.00" fill="#000000">pyVHDLModel.VHDLModel.BaseExpression</text>
</a>
</g>
</g>
<!-- pyVHDLModel.VHDLModel.BinaryExpression -->
<g id="node6" class="node">
<title>pyVHDLModel.VHDLModel.BinaryExpression</title>
<g id="a_node6"><a xlink:title="A ``BinaryExpression`` is a base&#45;class for all binary expressions.">
<polygon fill="none" stroke="#000000" stroke-width=".5" points="733,-19 501,-19 501,0 733,0 733,-19"/>
<text text-anchor="middle" x="617" y="-7" font-family="Vera Sans, DejaVu Sans, Liberation Sans, Arial, Helvetica, sans" font-size="10.00" fill="#000000">pyVHDLModel.VHDLModel.BinaryExpression</text>
</a>
</g>
</g>
<!-- pyVHDLModel.VHDLModel.BaseExpression&#45;&gt;pyVHDLModel.VHDLModel.BinaryExpression -->
<g id="edge4" class="edge">
<title>pyVHDLModel.VHDLModel.BaseExpression&#45;&gt;pyVHDLModel.VHDLModel.BinaryExpression</title>
<path fill="none" stroke="#000000" stroke-width=".5" d="M465.3426,-9.5C475.3813,-9.5 485.5751,-9.5 495.6849,-9.5"/>
<polygon fill="#000000" stroke="#000000" stroke-width=".5" points="495.9627,-11.2501 500.9627,-9.5 495.9626,-7.7501 495.9627,-11.2501"/>
</g>
<!-- pyVHDLModel.VHDLModel.ModelEntity -->
<g id="node5" class="node">
<title>pyVHDLModel.VHDLModel.ModelEntity</title>
<g id="a_node5"><a xlink:title="``ModelEntity`` is the base class for all classes in the VHDL language model,">
<polygon fill="none" stroke="#000000" stroke-width=".5" points="205,-19 0,-19 0,0 205,0 205,-19"/>
<text text-anchor="middle" x="102.5" y="-7" font-family="Vera Sans, DejaVu Sans, Liberation Sans, Arial, Helvetica, sans" font-size="10.00" fill="#000000">pyVHDLModel.VHDLModel.ModelEntity</text>
</a>
</g>
</g>
<!-- pyVHDLModel.VHDLModel.ModelEntity&#45;&gt;pyVHDLModel.VHDLModel.BaseExpression -->
<g id="edge3" class="edge">
<title>pyVHDLModel.VHDLModel.ModelEntity&#45;&gt;pyVHDLModel.VHDLModel.BaseExpression</title>
<path fill="none" stroke="#000000" stroke-width=".5" d="M205.1107,-9.5C215.2127,-9.5 225.5179,-9.5 235.7516,-9.5"/>
<polygon fill="#000000" stroke="#000000" stroke-width=".5" points="235.7685,-11.2501 240.7685,-9.5 235.7684,-7.7501 235.7685,-11.2501"/>
</g>
<!-- pyVHDLModel.VHDLModel.MultiplyingExpression -->
<g id="node7" class="node">
<title>pyVHDLModel.VHDLModel.MultiplyingExpression</title>
<g id="a_node7"><a xlink:title="A ``MultiplyingExpression`` is a base&#45;class for all multiplying expressions.">
<polygon fill="none" stroke="#000000" stroke-width=".5" points="1023,-19 769,-19 769,0 1023,0 1023,-19"/>
<text text-anchor="middle" x="896" y="-7" font-family="Vera Sans, DejaVu Sans, Liberation Sans, Arial, Helvetica, sans" font-size="10.00" fill="#000000">pyVHDLModel.VHDLModel.MultiplyingExpression</text>
</a>
</g>
</g>
<!-- pyVHDLModel.VHDLModel.BinaryExpression&#45;&gt;pyVHDLModel.VHDLModel.MultiplyingExpression -->
<g id="edge6" class="edge">
<title>pyVHDLModel.VHDLModel.BinaryExpression&#45;&gt;pyVHDLModel.VHDLModel.MultiplyingExpression</title>
<path fill="none" stroke="#000000" stroke-width=".5" d="M733.3008,-9.5C743.2323,-9.5 753.3251,-9.5 763.3703,-9.5"/>
<polygon fill="#000000" stroke="#000000" stroke-width=".5" points="763.6179,-11.2501 768.6178,-9.5 763.6178,-7.7501 763.6179,-11.2501"/>
</g>
<!-- pyVHDLModel.VHDLModel.MultiplyingExpression&#45;&gt;pyVHDLModel.VHDLModel.ModuloExpression -->
<g id="edge5" class="edge">
<title>pyVHDLModel.VHDLModel.MultiplyingExpression&#45;&gt;pyVHDLModel.VHDLModel.ModuloExpression</title>
<path fill="none" stroke="#000000" stroke-width=".5" d="M1023.3453,-9.5C1033.3616,-9.5 1043.4678,-9.5 1053.458,-9.5"/>
<polygon fill="#000000" stroke="#000000" stroke-width=".5" points="1053.6706,-11.2501 1058.6706,-9.5 1053.6705,-7.7501 1053.6706,-11.2501"/>
</g>
</g>
</svg>
