<?xml version="1.0" encoding="UTF-8" standalone="no"?>
<!DOCTYPE svg PUBLIC "-//W3C//DTD SVG 1.1//EN"
 "http://www.w3.org/Graphics/SVG/1.1/DTD/svg11.dtd">
<!-- Generated by graphviz version 2.40.1 (20161225.0304)
 -->
<!-- Title: inheritance25568787b9 Pages: 1 -->
<svg width="576pt" height="61pt"
 viewBox="0.00 0.00 576.00 60.53" xmlns="http://www.w3.org/2000/svg" xmlns:xlink="http://www.w3.org/1999/xlink">
<g id="graph0" class="graph" transform="scale(.9458 .9458) rotate(0) translate(4 60)">
<title>inheritance25568787b9</title>
<polygon fill="#ffffff" stroke="transparent" points="-4,4 -4,-60 605,-60 605,4 -4,4"/>
<!-- pyGHDL.dom.DOMMixin -->
<g id="node1" class="node">
<title>pyGHDL.dom.DOMMixin</title>
<g id="a_node1"><a xlink:href="../pyGHDL.dom.html#pyGHDL.dom.DOMMixin" xlink:title="pyGHDL.dom.DOMMixin" target="_top">
<polygon fill="none" stroke="#000000" stroke-width=".5" points="373.5,-56 239.5,-56 239.5,-37 373.5,-37 373.5,-56"/>
<text text-anchor="middle" x="306.5" y="-44" font-family="Vera Sans, DejaVu Sans, Liberation Sans, Arial, Helvetica, sans" font-size="10.00" fill="#000000">pyGHDL.dom.DOMMixin</text>
</a>
</g>
</g>
<!-- pyGHDL.dom.Names.AllName -->
<g id="node2" class="node">
<title>pyGHDL.dom.Names.AllName</title>
<g id="a_node2"><a xlink:href="../pyGHDL/pyGHDL.dom.Names.html#pyGHDL.dom.Names.AllName" xlink:title="pyGHDL.dom.Names.AllName" target="_top">
<polygon fill="none" stroke="#000000" stroke-width=".5" points="601,-37 437,-37 437,-18 601,-18 601,-37"/>
<text text-anchor="middle" x="519" y="-25" font-family="Vera Sans, DejaVu Sans, Liberation Sans, Arial, Helvetica, sans" font-size="10.00" fill="#000000">pyGHDL.dom.Names.AllName</text>
</a>
</g>
</g>
<!-- pyGHDL.dom.DOMMixin&#45;&gt;pyGHDL.dom.Names.AllName -->
<g id="edge2" class="edge">
<title>pyGHDL.dom.DOMMixin&#45;&gt;pyGHDL.dom.Names.AllName</title>
<path fill="none" stroke="#000000" stroke-width=".5" d="M373.7363,-40.4883C392.0751,-38.8486 412.2145,-37.0479 431.5025,-35.3233"/>
<polygon fill="#000000" stroke="#000000" stroke-width=".5" points="432.0937,-37.0275 436.918,-34.8391 431.7819,-33.5414 432.0937,-37.0275"/>
</g>
<!-- pyVHDLModel.VHDLModel.AllName -->
<g id="node3" class="node">
<title>pyVHDLModel.VHDLModel.AllName</title>
<polygon fill="none" stroke="#000000" stroke-width=".5" points="401,-19 212,-19 212,0 401,0 401,-19"/>
<text text-anchor="middle" x="306.5" y="-7" font-family="Vera Sans, DejaVu Sans, Liberation Sans, Arial, Helvetica, sans" font-size="10.00" fill="#000000">pyVHDLModel.VHDLModel.AllName</text>
</g>
<!-- pyVHDLModel.VHDLModel.AllName&#45;&gt;pyGHDL.dom.Names.AllName -->
<g id="edge1" class="edge">
<title>pyVHDLModel.VHDLModel.AllName&#45;&gt;pyGHDL.dom.Names.AllName</title>
<path fill="none" stroke="#000000" stroke-width=".5" d="M401.2527,-17.5261C411.3373,-18.3803 421.5617,-19.2464 431.5567,-20.093"/>
<polygon fill="#000000" stroke="#000000" stroke-width=".5" points="431.6307,-21.8555 436.7606,-20.5338 431.9262,-18.368 431.6307,-21.8555"/>
</g>
<!-- pyVHDLModel.VHDLModel.Name -->
<g id="node4" class="node">
<title>pyVHDLModel.VHDLModel.Name</title>
<g id="a_node4"><a xlink:title="``Name`` is the base class for all *names* in the VHDL language model.">
<polygon fill="none" stroke="#000000" stroke-width=".5" points="176,-19 0,-19 0,0 176,0 176,-19"/>
<text text-anchor="middle" x="88" y="-7" font-family="Vera Sans, DejaVu Sans, Liberation Sans, Arial, Helvetica, sans" font-size="10.00" fill="#000000">pyVHDLModel.VHDLModel.Name</text>
</a>
</g>
</g>
<!-- pyVHDLModel.VHDLModel.Name&#45;&gt;pyVHDLModel.VHDLModel.AllName -->
<g id="edge3" class="edge">
<title>pyVHDLModel.VHDLModel.Name&#45;&gt;pyVHDLModel.VHDLModel.AllName</title>
<path fill="none" stroke="#000000" stroke-width=".5" d="M176.2425,-9.5C186.3192,-9.5 196.6438,-9.5 206.8555,-9.5"/>
<polygon fill="#000000" stroke="#000000" stroke-width=".5" points="206.8579,-11.2501 211.8579,-9.5 206.8578,-7.7501 206.8579,-11.2501"/>
</g>
</g>
</svg>
