<?xml version="1.0" encoding="UTF-8" standalone="no"?>
<!DOCTYPE svg PUBLIC "-//W3C//DTD SVG 1.1//EN"
 "http://www.w3.org/Graphics/SVG/1.1/DTD/svg11.dtd">
<!-- Generated by graphviz version 2.40.1 (20161225.0304)
 -->
<!-- Title: inheritance78c203a763 Pages: 1 -->
<svg width="576pt" height="40pt"
 viewBox="0.00 0.00 576.00 40.17" xmlns="http://www.w3.org/2000/svg" xmlns:xlink="http://www.w3.org/1999/xlink">
<g id="graph0" class="graph" transform="scale(.4017 .4017) rotate(0) translate(4 96)">
<title>inheritance78c203a763</title>
<polygon fill="#ffffff" stroke="transparent" points="-4,4 -4,-96 1430,-96 1430,4 -4,4"/>
<!-- pyGHDL.dom.DOMMixin -->
<g id="node1" class="node">
<title>pyGHDL.dom.DOMMixin</title>
<g id="a_node1"><a xlink:href="../pyGHDL.dom.html#pyGHDL.dom.DOMMixin" xlink:title="pyGHDL.dom.DOMMixin" target="_top">
<polygon fill="none" stroke="#000000" stroke-width=".5" points="1002.5,-92 868.5,-92 868.5,-73 1002.5,-73 1002.5,-92"/>
<text text-anchor="middle" x="935.5" y="-80" font-family="Vera Sans, DejaVu Sans, Liberation Sans, Arial, Helvetica, sans" font-size="10.00" fill="#000000">pyGHDL.dom.DOMMixin</text>
</a>
</g>
</g>
<!-- pyGHDL.dom.InterfaceItem.GenericProcedureInterfaceItem -->
<g id="node2" class="node">
<title>pyGHDL.dom.InterfaceItem.GenericProcedureInterfaceItem</title>
<g id="a_node2"><a xlink:href="../pyGHDL/pyGHDL.dom.InterfaceItem.html#pyGHDL.dom.InterfaceItem.GenericProcedureInterfaceItem" xlink:title="pyGHDL.dom.InterfaceItem.GenericProcedureInterfaceItem" target="_top">
<polygon fill="none" stroke="#000000" stroke-width=".5" points="1426,-73 1121,-73 1121,-54 1426,-54 1426,-73"/>
<text text-anchor="middle" x="1273.5" y="-61" font-family="Vera Sans, DejaVu Sans, Liberation Sans, Arial, Helvetica, sans" font-size="10.00" fill="#000000">pyGHDL.dom.InterfaceItem.GenericProcedureInterfaceItem</text>
</a>
</g>
</g>
<!-- pyGHDL.dom.DOMMixin&#45;&gt;pyGHDL.dom.InterfaceItem.GenericProcedureInterfaceItem -->
<g id="edge2" class="edge">
<title>pyGHDL.dom.DOMMixin&#45;&gt;pyGHDL.dom.InterfaceItem.GenericProcedureInterfaceItem</title>
<path fill="none" stroke="#000000" stroke-width=".5" d="M1002.682,-78.7235C1035.202,-76.8954 1075.7411,-74.6166 1115.4685,-72.3834"/>
<polygon fill="#000000" stroke="#000000" stroke-width=".5" points="1115.92,-74.1109 1120.8138,-72.083 1115.7235,-70.6164 1115.92,-74.1109"/>
</g>
<!-- pyVHDLModel.VHDLModel.GenericProcedureInterfaceItem -->
<g id="node3" class="node">
<title>pyVHDLModel.VHDLModel.GenericProcedureInterfaceItem</title>
<polygon fill="none" stroke="#000000" stroke-width=".5" points="1085,-55 786,-55 786,-36 1085,-36 1085,-55"/>
<text text-anchor="middle" x="935.5" y="-43" font-family="Vera Sans, DejaVu Sans, Liberation Sans, Arial, Helvetica, sans" font-size="10.00" fill="#000000">pyVHDLModel.VHDLModel.GenericProcedureInterfaceItem</text>
</g>
<!-- pyVHDLModel.VHDLModel.GenericProcedureInterfaceItem&#45;&gt;pyGHDL.dom.InterfaceItem.GenericProcedureInterfaceItem -->
<g id="edge1" class="edge">
<title>pyVHDLModel.VHDLModel.GenericProcedureInterfaceItem&#45;&gt;pyGHDL.dom.InterfaceItem.GenericProcedureInterfaceItem</title>
<path fill="none" stroke="#000000" stroke-width=".5" d="M1085.2278,-53.4737C1095.3949,-54.0151 1105.6563,-54.5616 1115.8622,-55.1051"/>
<polygon fill="#000000" stroke="#000000" stroke-width=".5" points="1115.7813,-56.8532 1120.8673,-55.3716 1115.9675,-53.3581 1115.7813,-56.8532"/>
</g>
<!-- pyVHDLModel.VHDLModel.GenericInterfaceItem -->
<g id="node4" class="node">
<title>pyVHDLModel.VHDLModel.GenericInterfaceItem</title>
<g id="a_node4"><a xlink:title="A ``GenericInterfaceItem`` is a mixin class for all generic interface items.">
<polygon fill="none" stroke="#000000" stroke-width=".5" points="750,-74 499,-74 499,-55 750,-55 750,-74"/>
<text text-anchor="middle" x="624.5" y="-62" font-family="Vera Sans, DejaVu Sans, Liberation Sans, Arial, Helvetica, sans" font-size="10.00" fill="#000000">pyVHDLModel.VHDLModel.GenericInterfaceItem</text>
</a>
</g>
</g>
<!-- pyVHDLModel.VHDLModel.GenericInterfaceItem&#45;&gt;pyVHDLModel.VHDLModel.GenericProcedureInterfaceItem -->
<g id="edge5" class="edge">
<title>pyVHDLModel.VHDLModel.GenericInterfaceItem&#45;&gt;pyVHDLModel.VHDLModel.GenericProcedureInterfaceItem</title>
<path fill="none" stroke="#000000" stroke-width=".5" d="M750.0992,-56.8267C760.2404,-56.2072 770.558,-55.5768 780.8705,-54.9468"/>
<polygon fill="#000000" stroke="#000000" stroke-width=".5" points="781.0478,-56.6893 785.9318,-54.6376 780.8343,-53.1959 781.0478,-56.6893"/>
</g>
<!-- pyVHDLModel.VHDLModel.InterfaceItem -->
<g id="node5" class="node">
<title>pyVHDLModel.VHDLModel.InterfaceItem</title>
<g id="a_node5"><a xlink:title="An ``InterfaceItem`` is a base&#45;class for all mixin&#45;classes for all interface">
<polygon fill="none" stroke="#000000" stroke-width=".5" points="461.5,-74 248.5,-74 248.5,-55 461.5,-55 461.5,-74"/>
<text text-anchor="middle" x="355" y="-62" font-family="Vera Sans, DejaVu Sans, Liberation Sans, Arial, Helvetica, sans" font-size="10.00" fill="#000000">pyVHDLModel.VHDLModel.InterfaceItem</text>
</a>
</g>
</g>
<!-- pyVHDLModel.VHDLModel.InterfaceItem&#45;&gt;pyVHDLModel.VHDLModel.GenericInterfaceItem -->
<g id="edge3" class="edge">
<title>pyVHDLModel.VHDLModel.InterfaceItem&#45;&gt;pyVHDLModel.VHDLModel.GenericInterfaceItem</title>
<path fill="none" stroke="#000000" stroke-width=".5" d="M461.5135,-64.5C472.0079,-64.5 482.7416,-64.5 493.4442,-64.5"/>
<polygon fill="#000000" stroke="#000000" stroke-width=".5" points="493.6945,-66.2501 498.6944,-64.5 493.6944,-62.7501 493.6945,-66.2501"/>
</g>
<!-- pyVHDLModel.VHDLModel.Procedure -->
<g id="node6" class="node">
<title>pyVHDLModel.VHDLModel.Procedure</title>
<polygon fill="none" stroke="#000000" stroke-width=".5" points="722.5,-37 526.5,-37 526.5,-18 722.5,-18 722.5,-37"/>
<text text-anchor="middle" x="624.5" y="-25" font-family="Vera Sans, DejaVu Sans, Liberation Sans, Arial, Helvetica, sans" font-size="10.00" fill="#000000">pyVHDLModel.VHDLModel.Procedure</text>
</g>
<!-- pyVHDLModel.VHDLModel.Procedure&#45;&gt;pyVHDLModel.VHDLModel.GenericProcedureInterfaceItem -->
<g id="edge4" class="edge">
<title>pyVHDLModel.VHDLModel.Procedure&#45;&gt;pyVHDLModel.VHDLModel.GenericProcedureInterfaceItem</title>
<path fill="none" stroke="#000000" stroke-width=".5" d="M722.9023,-33.1953C741.3583,-34.2635 761.0604,-35.4038 780.7465,-36.5432"/>
<polygon fill="#000000" stroke="#000000" stroke-width=".5" points="780.6576,-38.2909 785.7504,-36.8328 780.8599,-34.7967 780.6576,-38.2909"/>
</g>
<!-- pyVHDLModel.VHDLModel.ModelEntity -->
<g id="node7" class="node">
<title>pyVHDLModel.VHDLModel.ModelEntity</title>
<g id="a_node7"><a xlink:title="``ModelEntity`` is the base class for all classes in the VHDL language model,">
<polygon fill="none" stroke="#000000" stroke-width=".5" points="208,-56 3,-56 3,-37 208,-37 208,-56"/>
<text text-anchor="middle" x="105.5" y="-44" font-family="Vera Sans, DejaVu Sans, Liberation Sans, Arial, Helvetica, sans" font-size="10.00" fill="#000000">pyVHDLModel.VHDLModel.ModelEntity</text>
</a>
</g>
</g>
<!-- pyVHDLModel.VHDLModel.SubProgramm -->
<g id="node9" class="node">
<title>pyVHDLModel.VHDLModel.SubProgramm</title>
<polygon fill="none" stroke="#000000" stroke-width=".5" points="463,-37 247,-37 247,-18 463,-18 463,-37"/>
<text text-anchor="middle" x="355" y="-25" font-family="Vera Sans, DejaVu Sans, Liberation Sans, Arial, Helvetica, sans" font-size="10.00" fill="#000000">pyVHDLModel.VHDLModel.SubProgramm</text>
</g>
<!-- pyVHDLModel.VHDLModel.ModelEntity&#45;&gt;pyVHDLModel.VHDLModel.SubProgramm -->
<g id="edge7" class="edge">
<title>pyVHDLModel.VHDLModel.ModelEntity&#45;&gt;pyVHDLModel.VHDLModel.SubProgramm</title>
<path fill="none" stroke="#000000" stroke-width=".5" d="M208.0613,-38.6897C219.134,-37.8465 230.4476,-36.9849 241.6381,-36.1328"/>
<polygon fill="#000000" stroke="#000000" stroke-width=".5" points="241.917,-37.8667 246.7696,-35.742 241.6512,-34.3768 241.917,-37.8667"/>
</g>
<!-- pyVHDLModel.VHDLModel.NamedEntity -->
<g id="node8" class="node">
<title>pyVHDLModel.VHDLModel.NamedEntity</title>
<g id="a_node8"><a xlink:title="A ``NamedEntity`` is a mixin class for all VHDL entities that have identifiers.">
<polygon fill="none" stroke="#000000" stroke-width=".5" points="211,-19 0,-19 0,0 211,0 211,-19"/>
<text text-anchor="middle" x="105.5" y="-7" font-family="Vera Sans, DejaVu Sans, Liberation Sans, Arial, Helvetica, sans" font-size="10.00" fill="#000000">pyVHDLModel.VHDLModel.NamedEntity</text>
</a>
</g>
</g>
<!-- pyVHDLModel.VHDLModel.NamedEntity&#45;&gt;pyVHDLModel.VHDLModel.SubProgramm -->
<g id="edge8" class="edge">
<title>pyVHDLModel.VHDLModel.NamedEntity&#45;&gt;pyVHDLModel.VHDLModel.SubProgramm</title>
<path fill="none" stroke="#000000" stroke-width=".5" d="M211.3105,-17.1336C221.2633,-17.8517 231.3808,-18.5816 241.4015,-19.3045"/>
<polygon fill="#000000" stroke="#000000" stroke-width=".5" points="241.5185,-21.0674 246.6315,-19.6818 241.7704,-17.5765 241.5185,-21.0674"/>
</g>
<!-- pyVHDLModel.VHDLModel.SubProgramm&#45;&gt;pyVHDLModel.VHDLModel.Procedure -->
<g id="edge6" class="edge">
<title>pyVHDLModel.VHDLModel.SubProgramm&#45;&gt;pyVHDLModel.VHDLModel.Procedure</title>
<path fill="none" stroke="#000000" stroke-width=".5" d="M463.0631,-27.5C482.2043,-27.5 502.094,-27.5 521.1024,-27.5"/>
<polygon fill="#000000" stroke="#000000" stroke-width=".5" points="521.439,-29.2501 526.439,-27.5 521.4389,-25.7501 521.439,-29.2501"/>
</g>
</g>
</svg>
