<?xml version="1.0" encoding="UTF-8" standalone="no"?>
<!DOCTYPE svg PUBLIC "-//W3C//DTD SVG 1.1//EN"
 "http://www.w3.org/Graphics/SVG/1.1/DTD/svg11.dtd">
<!-- Generated by graphviz version 2.40.1 (20161225.0304)
 -->
<!-- Title: inheritancec9368e6409 Pages: 1 -->
<svg width="576pt" height="36pt"
 viewBox="0.00 0.00 576.00 36.17" xmlns="http://www.w3.org/2000/svg" xmlns:xlink="http://www.w3.org/1999/xlink">
<g id="graph0" class="graph" transform="scale(.441 .441) rotate(0) translate(4 78)">
<title>inheritancec9368e6409</title>
<polygon fill="#ffffff" stroke="transparent" points="-4,4 -4,-78 1302,-78 1302,4 -4,4"/>
<!-- pyGHDL.dom.DOMMixin -->
<g id="node1" class="node">
<title>pyGHDL.dom.DOMMixin</title>
<g id="a_node1"><a xlink:href="../pyGHDL.dom.html#pyGHDL.dom.DOMMixin" xlink:title="pyGHDL.dom.DOMMixin" target="_top">
<polygon fill="none" stroke="#000000" stroke-width=".5" points="970,-74 836,-74 836,-55 970,-55 970,-74"/>
<text text-anchor="middle" x="903" y="-62" font-family="Vera Sans, DejaVu Sans, Liberation Sans, Arial, Helvetica, sans" font-size="10.00" fill="#000000">pyGHDL.dom.DOMMixin</text>
</a>
</g>
</g>
<!-- pyGHDL.dom.Expression.ParenthesisExpression -->
<g id="node2" class="node">
<title>pyGHDL.dom.Expression.ParenthesisExpression</title>
<g id="a_node2"><a xlink:href="../pyGHDL/pyGHDL.dom.Expression.html#pyGHDL.dom.Expression.ParenthesisExpression" xlink:title="pyGHDL.dom.Expression.ParenthesisExpression" target="_top">
<polygon fill="none" stroke="#000000" stroke-width=".5" points="1298,-55 1048,-55 1048,-36 1298,-36 1298,-55"/>
<text text-anchor="middle" x="1173" y="-43" font-family="Vera Sans, DejaVu Sans, Liberation Sans, Arial, Helvetica, sans" font-size="10.00" fill="#000000">pyGHDL.dom.Expression.ParenthesisExpression</text>
</a>
</g>
</g>
<!-- pyGHDL.dom.DOMMixin&#45;&gt;pyGHDL.dom.Expression.ParenthesisExpression -->
<g id="edge2" class="edge">
<title>pyGHDL.dom.DOMMixin&#45;&gt;pyGHDL.dom.Expression.ParenthesisExpression</title>
<path fill="none" stroke="#000000" stroke-width=".5" d="M970.0885,-59.779C992.1977,-58.2231 1017.5928,-56.4361 1042.7666,-54.6646"/>
<polygon fill="#000000" stroke="#000000" stroke-width=".5" points="1042.9326,-56.4073 1047.7974,-54.3106 1042.6868,-52.9159 1042.9326,-56.4073"/>
</g>
<!-- pyVHDLModel.VHDLModel.SubExpression -->
<g id="node3" class="node">
<title>pyVHDLModel.VHDLModel.SubExpression</title>
<polygon fill="none" stroke="#000000" stroke-width=".5" points="1012,-37 794,-37 794,-18 1012,-18 1012,-37"/>
<text text-anchor="middle" x="903" y="-25" font-family="Vera Sans, DejaVu Sans, Liberation Sans, Arial, Helvetica, sans" font-size="10.00" fill="#000000">pyVHDLModel.VHDLModel.SubExpression</text>
</g>
<!-- pyVHDLModel.VHDLModel.SubExpression&#45;&gt;pyGHDL.dom.Expression.ParenthesisExpression -->
<g id="edge1" class="edge">
<title>pyVHDLModel.VHDLModel.SubExpression&#45;&gt;pyGHDL.dom.Expression.ParenthesisExpression</title>
<path fill="none" stroke="#000000" stroke-width=".5" d="M1012.0411,-34.7694C1022.1031,-35.4402 1032.3651,-36.1243 1042.592,-36.8061"/>
<polygon fill="#000000" stroke="#000000" stroke-width=".5" points="1042.5032,-38.554 1047.6086,-37.1406 1042.7361,-35.0618 1042.5032,-38.554"/>
</g>
<!-- pyVHDLModel.VHDLModel.BaseExpression -->
<g id="node4" class="node">
<title>pyVHDLModel.VHDLModel.BaseExpression</title>
<g id="a_node4"><a xlink:title="A ``BaseExpression`` is a base&#45;class for all expressions.">
<polygon fill="none" stroke="#000000" stroke-width=".5" points="465,-19 241,-19 241,0 465,0 465,-19"/>
<text text-anchor="middle" x="353" y="-7" font-family="Vera Sans, DejaVu Sans, Liberation Sans, Arial, Helvetica, sans" font-size="10.00" fill="#000000">pyVHDLModel.VHDLModel.BaseExpression</text>
</a>
</g>
</g>
<!-- pyVHDLModel.VHDLModel.UnaryExpression -->
<g id="node8" class="node">
<title>pyVHDLModel.VHDLModel.UnaryExpression</title>
<g id="a_node8"><a xlink:title="A ``UnaryExpression`` is a base&#45;class for all unary expressions.">
<polygon fill="none" stroke="#000000" stroke-width=".5" points="744.5,-19 514.5,-19 514.5,0 744.5,0 744.5,-19"/>
<text text-anchor="middle" x="629.5" y="-7" font-family="Vera Sans, DejaVu Sans, Liberation Sans, Arial, Helvetica, sans" font-size="10.00" fill="#000000">pyVHDLModel.VHDLModel.UnaryExpression</text>
</a>
</g>
</g>
<!-- pyVHDLModel.VHDLModel.BaseExpression&#45;&gt;pyVHDLModel.VHDLModel.UnaryExpression -->
<g id="edge7" class="edge">
<title>pyVHDLModel.VHDLModel.BaseExpression&#45;&gt;pyVHDLModel.VHDLModel.UnaryExpression</title>
<path fill="none" stroke="#000000" stroke-width=".5" d="M465.0645,-9.5C479.4636,-9.5 494.2559,-9.5 508.7857,-9.5"/>
<polygon fill="#000000" stroke="#000000" stroke-width=".5" points="509.1257,-11.2501 514.1257,-9.5 509.1256,-7.7501 509.1257,-11.2501"/>
</g>
<!-- pyVHDLModel.VHDLModel.ModelEntity -->
<g id="node5" class="node">
<title>pyVHDLModel.VHDLModel.ModelEntity</title>
<g id="a_node5"><a xlink:title="``ModelEntity`` is the base class for all classes in the VHDL language model,">
<polygon fill="none" stroke="#000000" stroke-width=".5" points="205,-19 0,-19 0,0 205,0 205,-19"/>
<text text-anchor="middle" x="102.5" y="-7" font-family="Vera Sans, DejaVu Sans, Liberation Sans, Arial, Helvetica, sans" font-size="10.00" fill="#000000">pyVHDLModel.VHDLModel.ModelEntity</text>
</a>
</g>
</g>
<!-- pyVHDLModel.VHDLModel.ModelEntity&#45;&gt;pyVHDLModel.VHDLModel.BaseExpression -->
<g id="edge3" class="edge">
<title>pyVHDLModel.VHDLModel.ModelEntity&#45;&gt;pyVHDLModel.VHDLModel.BaseExpression</title>
<path fill="none" stroke="#000000" stroke-width=".5" d="M205.1107,-9.5C215.2127,-9.5 225.5179,-9.5 235.7516,-9.5"/>
<polygon fill="#000000" stroke="#000000" stroke-width=".5" points="235.7685,-11.2501 240.7685,-9.5 235.7684,-7.7501 235.7685,-11.2501"/>
</g>
<!-- pyVHDLModel.VHDLModel.ParenthesisExpression -->
<g id="node6" class="node">
<title>pyVHDLModel.VHDLModel.ParenthesisExpression</title>
<polygon fill="none" stroke="#000000" stroke-width=".5" points="758,-56 501,-56 501,-37 758,-37 758,-56"/>
<text text-anchor="middle" x="629.5" y="-44" font-family="Vera Sans, DejaVu Sans, Liberation Sans, Arial, Helvetica, sans" font-size="10.00" fill="#000000">pyVHDLModel.VHDLModel.ParenthesisExpression</text>
</g>
<!-- pyVHDLModel.VHDLModel.ParenthesisExpression&#45;&gt;pyVHDLModel.VHDLModel.SubExpression -->
<g id="edge6" class="edge">
<title>pyVHDLModel.VHDLModel.ParenthesisExpression&#45;&gt;pyVHDLModel.VHDLModel.SubExpression</title>
<path fill="none" stroke="#000000" stroke-width=".5" d="M758.2414,-37.5564C768.388,-36.8515 778.5936,-36.1425 788.6337,-35.445"/>
<polygon fill="#000000" stroke="#000000" stroke-width=".5" points="789.0011,-37.1738 793.8678,-35.0814 788.7585,-33.6822 789.0011,-37.1738"/>
</g>
<!-- pyVHDLModel.VHDLModel.Protocol -->
<g id="node7" class="node">
<title>pyVHDLModel.VHDLModel.Protocol</title>
<polygon fill="none" stroke="#000000" stroke-width=".5" points="446.5,-56 259.5,-56 259.5,-37 446.5,-37 446.5,-56"/>
<text text-anchor="middle" x="353" y="-44" font-family="Vera Sans, DejaVu Sans, Liberation Sans, Arial, Helvetica, sans" font-size="10.00" fill="#000000">pyVHDLModel.VHDLModel.Protocol</text>
</g>
<!-- pyVHDLModel.VHDLModel.Protocol&#45;&gt;pyVHDLModel.VHDLModel.ParenthesisExpression -->
<g id="edge4" class="edge">
<title>pyVHDLModel.VHDLModel.Protocol&#45;&gt;pyVHDLModel.VHDLModel.ParenthesisExpression</title>
<path fill="none" stroke="#000000" stroke-width=".5" d="M446.6103,-46.5C462.3703,-46.5 478.9972,-46.5 495.5421,-46.5"/>
<polygon fill="#000000" stroke="#000000" stroke-width=".5" points="495.6731,-48.2501 500.6731,-46.5 495.6731,-44.7501 495.6731,-48.2501"/>
</g>
<!-- pyVHDLModel.VHDLModel.UnaryExpression&#45;&gt;pyVHDLModel.VHDLModel.SubExpression -->
<g id="edge5" class="edge">
<title>pyVHDLModel.VHDLModel.UnaryExpression&#45;&gt;pyVHDLModel.VHDLModel.SubExpression</title>
<path fill="none" stroke="#000000" stroke-width=".5" d="M744.6959,-17.0815C759.1282,-18.0313 773.889,-19.0027 788.3134,-19.9521"/>
<polygon fill="#000000" stroke="#000000" stroke-width=".5" points="788.507,-21.7185 793.6112,-20.3007 788.7369,-18.2261 788.507,-21.7185"/>
</g>
</g>
</svg>
