<?xml version="1.0" encoding="UTF-8" standalone="no"?>
<!DOCTYPE svg PUBLIC "-//W3C//DTD SVG 1.1//EN"
 "http://www.w3.org/Graphics/SVG/1.1/DTD/svg11.dtd">
<!-- Generated by graphviz version 2.40.1 (20161225.0304)
 -->
<!-- Title: inheritance9965419403 Pages: 1 -->
<svg width="576pt" height="55pt"
 viewBox="0.00 0.00 576.00 55.10" xmlns="http://www.w3.org/2000/svg" xmlns:xlink="http://www.w3.org/1999/xlink">
<g id="graph0" class="graph" transform="scale(.861 .861) rotate(0) translate(4 60)">
<title>inheritance9965419403</title>
<polygon fill="#ffffff" stroke="transparent" points="-4,4 -4,-60 665,-60 665,4 -4,4"/>
<!-- pyGHDL.dom.DOMMixin -->
<g id="node1" class="node">
<title>pyGHDL.dom.DOMMixin</title>
<g id="a_node1"><a xlink:href="../pyGHDL.dom.html#pyGHDL.dom.DOMMixin" xlink:title="pyGHDL.dom.DOMMixin" target="_top">
<polygon fill="none" stroke="#000000" stroke-width=".5" points="388.5,-56 254.5,-56 254.5,-37 388.5,-37 388.5,-56"/>
<text text-anchor="middle" x="321.5" y="-44" font-family="Vera Sans, DejaVu Sans, Liberation Sans, Arial, Helvetica, sans" font-size="10.00" fill="#000000">pyGHDL.dom.DOMMixin</text>
</a>
</g>
</g>
<!-- pyGHDL.dom.Names.AttributeName -->
<g id="node2" class="node">
<title>pyGHDL.dom.Names.AttributeName</title>
<g id="a_node2"><a xlink:href="../pyGHDL/pyGHDL.dom.Names.html#pyGHDL.dom.Names.AttributeName" xlink:title="pyGHDL.dom.Names.AttributeName" target="_top">
<polygon fill="none" stroke="#000000" stroke-width=".5" points="661,-37 467,-37 467,-18 661,-18 661,-37"/>
<text text-anchor="middle" x="564" y="-25" font-family="Vera Sans, DejaVu Sans, Liberation Sans, Arial, Helvetica, sans" font-size="10.00" fill="#000000">pyGHDL.dom.Names.AttributeName</text>
</a>
</g>
</g>
<!-- pyGHDL.dom.DOMMixin&#45;&gt;pyGHDL.dom.Names.AttributeName -->
<g id="edge2" class="edge">
<title>pyGHDL.dom.DOMMixin&#45;&gt;pyGHDL.dom.Names.AttributeName</title>
<path fill="none" stroke="#000000" stroke-width=".5" d="M388.7277,-41.2327C411.2358,-39.4692 436.8659,-37.461 461.4457,-35.5352"/>
<polygon fill="#000000" stroke="#000000" stroke-width=".5" points="461.8253,-37.2609 466.6733,-35.1256 461.5518,-33.7716 461.8253,-37.2609"/>
</g>
<!-- pyVHDLModel.VHDLModel.AttributeName -->
<g id="node3" class="node">
<title>pyVHDLModel.VHDLModel.AttributeName</title>
<polygon fill="none" stroke="#000000" stroke-width=".5" points="431,-19 212,-19 212,0 431,0 431,-19"/>
<text text-anchor="middle" x="321.5" y="-7" font-family="Vera Sans, DejaVu Sans, Liberation Sans, Arial, Helvetica, sans" font-size="10.00" fill="#000000">pyVHDLModel.VHDLModel.AttributeName</text>
</g>
<!-- pyVHDLModel.VHDLModel.AttributeName&#45;&gt;pyGHDL.dom.Names.AttributeName -->
<g id="edge1" class="edge">
<title>pyVHDLModel.VHDLModel.AttributeName&#45;&gt;pyGHDL.dom.Names.AttributeName</title>
<path fill="none" stroke="#000000" stroke-width=".5" d="M431.0438,-17.6311C441.1979,-18.3848 451.4625,-19.1467 461.5492,-19.8954"/>
<polygon fill="#000000" stroke="#000000" stroke-width=".5" points="461.6903,-21.6606 466.8062,-20.2856 461.9495,-18.1702 461.6903,-21.6606"/>
</g>
<!-- pyVHDLModel.VHDLModel.Name -->
<g id="node4" class="node">
<title>pyVHDLModel.VHDLModel.Name</title>
<g id="a_node4"><a xlink:title="``Name`` is the base class for all *names* in the VHDL language model.">
<polygon fill="none" stroke="#000000" stroke-width=".5" points="176,-19 0,-19 0,0 176,0 176,-19"/>
<text text-anchor="middle" x="88" y="-7" font-family="Vera Sans, DejaVu Sans, Liberation Sans, Arial, Helvetica, sans" font-size="10.00" fill="#000000">pyVHDLModel.VHDLModel.Name</text>
</a>
</g>
</g>
<!-- pyVHDLModel.VHDLModel.Name&#45;&gt;pyVHDLModel.VHDLModel.AttributeName -->
<g id="edge3" class="edge">
<title>pyVHDLModel.VHDLModel.Name&#45;&gt;pyVHDLModel.VHDLModel.AttributeName</title>
<path fill="none" stroke="#000000" stroke-width=".5" d="M176.2763,-9.5C186.265,-9.5 196.5499,-9.5 206.8134,-9.5"/>
<polygon fill="#000000" stroke="#000000" stroke-width=".5" points="206.8488,-11.2501 211.8488,-9.5 206.8488,-7.7501 206.8488,-11.2501"/>
</g>
</g>
</svg>
