<?xml version="1.0" encoding="UTF-8" standalone="no"?>
<!DOCTYPE svg PUBLIC "-//W3C//DTD SVG 1.1//EN"
 "http://www.w3.org/Graphics/SVG/1.1/DTD/svg11.dtd">
<!-- Generated by graphviz version 2.40.1 (20161225.0304)
 -->
<!-- Title: inheritancef3ee9220c6 Pages: 1 -->
<svg width="576pt" height="72pt"
 viewBox="0.00 0.00 576.00 72.22" xmlns="http://www.w3.org/2000/svg" xmlns:xlink="http://www.w3.org/1999/xlink">
<g id="graph0" class="graph" transform="scale(.8807 .8807) rotate(0) translate(4 78)">
<title>inheritancef3ee9220c6</title>
<polygon fill="#ffffff" stroke="transparent" points="-4,4 -4,-78 650,-78 650,4 -4,4"/>
<!-- pyGHDL.dom.Attribute.Attribute -->
<g id="node1" class="node">
<title>pyGHDL.dom.Attribute.Attribute</title>
<g id="a_node1"><a xlink:href="../pyGHDL/pyGHDL.dom.Attribute.html#pyGHDL.dom.Attribute.Attribute" xlink:title="pyGHDL.dom.Attribute.Attribute" target="_top">
<polygon fill="none" stroke="#000000" stroke-width=".5" points="646,-37 473,-37 473,-18 646,-18 646,-37"/>
<text text-anchor="middle" x="559.5" y="-25" font-family="Vera Sans, DejaVu Sans, Liberation Sans, Arial, Helvetica, sans" font-size="10.00" fill="#000000">pyGHDL.dom.Attribute.Attribute</text>
</a>
</g>
</g>
<!-- pyVHDLModel.VHDLModel.Attribute -->
<g id="node2" class="node">
<title>pyVHDLModel.VHDLModel.Attribute</title>
<polygon fill="none" stroke="#000000" stroke-width=".5" points="437,-56 247,-56 247,-37 437,-37 437,-56"/>
<text text-anchor="middle" x="342" y="-44" font-family="Vera Sans, DejaVu Sans, Liberation Sans, Arial, Helvetica, sans" font-size="10.00" fill="#000000">pyVHDLModel.VHDLModel.Attribute</text>
</g>
<!-- pyVHDLModel.VHDLModel.Attribute&#45;&gt;pyGHDL.dom.Attribute.Attribute -->
<g id="edge1" class="edge">
<title>pyVHDLModel.VHDLModel.Attribute&#45;&gt;pyGHDL.dom.Attribute.Attribute</title>
<path fill="none" stroke="#000000" stroke-width=".5" d="M437.0823,-38.194C447.2057,-37.3096 457.4897,-36.4112 467.5758,-35.5302"/>
<polygon fill="#000000" stroke="#000000" stroke-width=".5" points="468.0015,-37.2497 472.8302,-35.0712 467.6969,-33.763 468.0015,-37.2497"/>
</g>
<!-- pyGHDL.dom.DOMMixin -->
<g id="node3" class="node">
<title>pyGHDL.dom.DOMMixin</title>
<g id="a_node3"><a xlink:href="../pyGHDL.dom.html#pyGHDL.dom.DOMMixin" xlink:title="pyGHDL.dom.DOMMixin" target="_top">
<polygon fill="none" stroke="#000000" stroke-width=".5" points="409,-19 275,-19 275,0 409,0 409,-19"/>
<text text-anchor="middle" x="342" y="-7" font-family="Vera Sans, DejaVu Sans, Liberation Sans, Arial, Helvetica, sans" font-size="10.00" fill="#000000">pyGHDL.dom.DOMMixin</text>
</a>
</g>
</g>
<!-- pyGHDL.dom.DOMMixin&#45;&gt;pyGHDL.dom.Attribute.Attribute -->
<g id="edge2" class="edge">
<title>pyGHDL.dom.DOMMixin&#45;&gt;pyGHDL.dom.Attribute.Attribute</title>
<path fill="none" stroke="#000000" stroke-width=".5" d="M409.0319,-15.0475C427.5576,-16.5806 447.987,-18.2713 467.6597,-19.8994"/>
<polygon fill="#000000" stroke="#000000" stroke-width=".5" points="467.516,-21.6434 472.6433,-20.3119 467.8047,-18.1553 467.516,-21.6434"/>
</g>
<!-- pyVHDLModel.VHDLModel.ModelEntity -->
<g id="node4" class="node">
<title>pyVHDLModel.VHDLModel.ModelEntity</title>
<g id="a_node4"><a xlink:title="``ModelEntity`` is the base class for all classes in the VHDL language model,">
<polygon fill="none" stroke="#000000" stroke-width=".5" points="208,-74 3,-74 3,-55 208,-55 208,-74"/>
<text text-anchor="middle" x="105.5" y="-62" font-family="Vera Sans, DejaVu Sans, Liberation Sans, Arial, Helvetica, sans" font-size="10.00" fill="#000000">pyVHDLModel.VHDLModel.ModelEntity</text>
</a>
</g>
</g>
<!-- pyVHDLModel.VHDLModel.ModelEntity&#45;&gt;pyVHDLModel.VHDLModel.Attribute -->
<g id="edge3" class="edge">
<title>pyVHDLModel.VHDLModel.ModelEntity&#45;&gt;pyVHDLModel.VHDLModel.Attribute</title>
<path fill="none" stroke="#000000" stroke-width=".5" d="M208.2005,-56.6835C219.335,-55.836 230.6566,-54.9743 241.7612,-54.1292"/>
<polygon fill="#000000" stroke="#000000" stroke-width=".5" points="241.9939,-55.8666 246.8466,-53.7421 241.7282,-52.3767 241.9939,-55.8666"/>
</g>
<!-- pyVHDLModel.VHDLModel.NamedEntity -->
<g id="node5" class="node">
<title>pyVHDLModel.VHDLModel.NamedEntity</title>
<g id="a_node5"><a xlink:title="A ``NamedEntity`` is a mixin class for all VHDL entities that have identifiers.">
<polygon fill="none" stroke="#000000" stroke-width=".5" points="211,-37 0,-37 0,-18 211,-18 211,-37"/>
<text text-anchor="middle" x="105.5" y="-25" font-family="Vera Sans, DejaVu Sans, Liberation Sans, Arial, Helvetica, sans" font-size="10.00" fill="#000000">pyVHDLModel.VHDLModel.NamedEntity</text>
</a>
</g>
</g>
<!-- pyVHDLModel.VHDLModel.NamedEntity&#45;&gt;pyVHDLModel.VHDLModel.Attribute -->
<g id="edge4" class="edge">
<title>pyVHDLModel.VHDLModel.NamedEntity&#45;&gt;pyVHDLModel.VHDLModel.Attribute</title>
<path fill="none" stroke="#000000" stroke-width=".5" d="M211.2989,-35.9997C221.3531,-36.8074 231.5287,-37.6249 241.5306,-38.4285"/>
<polygon fill="#000000" stroke="#000000" stroke-width=".5" points="241.6194,-40.1912 246.7436,-38.8473 241.8998,-36.7024 241.6194,-40.1912"/>
</g>
</g>
</svg>
