<?xml version="1.0" encoding="UTF-8" standalone="no"?>
<!DOCTYPE svg PUBLIC "-//W3C//DTD SVG 1.1//EN"
 "http://www.w3.org/Graphics/SVG/1.1/DTD/svg11.dtd">
<!-- Generated by graphviz version 2.40.1 (20161225.0304)
 -->
<!-- Title: inheritancebb201c612c Pages: 1 -->
<svg width="576pt" height="20pt"
 viewBox="0.00 0.00 576.00 19.58" xmlns="http://www.w3.org/2000/svg" xmlns:xlink="http://www.w3.org/1999/xlink">
<g id="graph0" class="graph" transform="scale(.3059 .3059) rotate(0) translate(4 60)">
<title>inheritancebb201c612c</title>
<polygon fill="#ffffff" stroke="transparent" points="-4,4 -4,-60 1879,-60 1879,4 -4,4"/>
<!-- pyGHDL.dom.DOMMixin -->
<g id="node1" class="node">
<title>pyGHDL.dom.DOMMixin</title>
<g id="a_node1"><a xlink:href="../pyGHDL.dom.html#pyGHDL.dom.DOMMixin" xlink:title="pyGHDL.dom.DOMMixin" target="_top">
<polygon fill="none" stroke="#000000" stroke-width=".5" points="1512.5,-56 1378.5,-56 1378.5,-37 1512.5,-37 1512.5,-56"/>
<text text-anchor="middle" x="1445.5" y="-44" font-family="Vera Sans, DejaVu Sans, Liberation Sans, Arial, Helvetica, sans" font-size="10.00" fill="#000000">pyGHDL.dom.DOMMixin</text>
</a>
</g>
</g>
<!-- pyGHDL.dom.Expression.ShiftLeftLogicExpression -->
<g id="node2" class="node">
<title>pyGHDL.dom.Expression.ShiftLeftLogicExpression</title>
<g id="a_node2"><a xlink:href="../pyGHDL/pyGHDL.dom.Expression.html#pyGHDL.dom.Expression.ShiftLeftLogicExpression" xlink:title="pyGHDL.dom.Expression.ShiftLeftLogicExpression" target="_top">
<polygon fill="none" stroke="#000000" stroke-width=".5" points="1875,-37 1615,-37 1615,-18 1875,-18 1875,-37"/>
<text text-anchor="middle" x="1745" y="-25" font-family="Vera Sans, DejaVu Sans, Liberation Sans, Arial, Helvetica, sans" font-size="10.00" fill="#000000">pyGHDL.dom.Expression.ShiftLeftLogicExpression</text>
</a>
</g>
</g>
<!-- pyGHDL.dom.DOMMixin&#45;&gt;pyGHDL.dom.Expression.ShiftLeftLogicExpression -->
<g id="edge2" class="edge">
<title>pyGHDL.dom.DOMMixin&#45;&gt;pyGHDL.dom.Expression.ShiftLeftLogicExpression</title>
<path fill="none" stroke="#000000" stroke-width=".5" d="M1512.7136,-42.236C1541.3625,-40.4186 1575.8725,-38.2293 1609.4248,-36.1008"/>
<polygon fill="#000000" stroke="#000000" stroke-width=".5" points="1609.9213,-37.8229 1614.8004,-35.7597 1609.6997,-34.3299 1609.9213,-37.8229"/>
</g>
<!-- pyVHDLModel.VHDLModel.ShiftLeftLogicExpression -->
<g id="node3" class="node">
<title>pyVHDLModel.VHDLModel.ShiftLeftLogicExpression</title>
<polygon fill="none" stroke="#000000" stroke-width=".5" points="1579,-19 1312,-19 1312,0 1579,0 1579,-19"/>
<text text-anchor="middle" x="1445.5" y="-7" font-family="Vera Sans, DejaVu Sans, Liberation Sans, Arial, Helvetica, sans" font-size="10.00" fill="#000000">pyVHDLModel.VHDLModel.ShiftLeftLogicExpression</text>
</g>
<!-- pyVHDLModel.VHDLModel.ShiftLeftLogicExpression&#45;&gt;pyGHDL.dom.Expression.ShiftLeftLogicExpression -->
<g id="edge1" class="edge">
<title>pyVHDLModel.VHDLModel.ShiftLeftLogicExpression&#45;&gt;pyGHDL.dom.Expression.ShiftLeftLogicExpression</title>
<path fill="none" stroke="#000000" stroke-width=".5" d="M1579.0456,-17.5261C1589.2337,-18.1384 1599.523,-18.7568 1609.7219,-19.3698"/>
<polygon fill="#000000" stroke="#000000" stroke-width=".5" points="1609.6245,-21.117 1614.7205,-19.6702 1609.8345,-17.6233 1609.6245,-21.117"/>
</g>
<!-- pyVHDLModel.VHDLModel.BaseExpression -->
<g id="node4" class="node">
<title>pyVHDLModel.VHDLModel.BaseExpression</title>
<g id="a_node4"><a xlink:title="A ``BaseExpression`` is a base&#45;class for all expressions.">
<polygon fill="none" stroke="#000000" stroke-width=".5" points="465,-19 241,-19 241,0 465,0 465,-19"/>
<text text-anchor="middle" x="353" y="-7" font-family="Vera Sans, DejaVu Sans, Liberation Sans, Arial, Helvetica, sans" font-size="10.00" fill="#000000">pyVHDLModel.VHDLModel.BaseExpression</text>
</a>
</g>
</g>
<!-- pyVHDLModel.VHDLModel.BinaryExpression -->
<g id="node6" class="node">
<title>pyVHDLModel.VHDLModel.BinaryExpression</title>
<g id="a_node6"><a xlink:title="A ``BinaryExpression`` is a base&#45;class for all binary expressions.">
<polygon fill="none" stroke="#000000" stroke-width=".5" points="733,-19 501,-19 501,0 733,0 733,-19"/>
<text text-anchor="middle" x="617" y="-7" font-family="Vera Sans, DejaVu Sans, Liberation Sans, Arial, Helvetica, sans" font-size="10.00" fill="#000000">pyVHDLModel.VHDLModel.BinaryExpression</text>
</a>
</g>
</g>
<!-- pyVHDLModel.VHDLModel.BaseExpression&#45;&gt;pyVHDLModel.VHDLModel.BinaryExpression -->
<g id="edge4" class="edge">
<title>pyVHDLModel.VHDLModel.BaseExpression&#45;&gt;pyVHDLModel.VHDLModel.BinaryExpression</title>
<path fill="none" stroke="#000000" stroke-width=".5" d="M465.3426,-9.5C475.3813,-9.5 485.5751,-9.5 495.6849,-9.5"/>
<polygon fill="#000000" stroke="#000000" stroke-width=".5" points="495.9627,-11.2501 500.9627,-9.5 495.9626,-7.7501 495.9627,-11.2501"/>
</g>
<!-- pyVHDLModel.VHDLModel.ModelEntity -->
<g id="node5" class="node">
<title>pyVHDLModel.VHDLModel.ModelEntity</title>
<g id="a_node5"><a xlink:title="``ModelEntity`` is the base class for all classes in the VHDL language model,">
<polygon fill="none" stroke="#000000" stroke-width=".5" points="205,-19 0,-19 0,0 205,0 205,-19"/>
<text text-anchor="middle" x="102.5" y="-7" font-family="Vera Sans, DejaVu Sans, Liberation Sans, Arial, Helvetica, sans" font-size="10.00" fill="#000000">pyVHDLModel.VHDLModel.ModelEntity</text>
</a>
</g>
</g>
<!-- pyVHDLModel.VHDLModel.ModelEntity&#45;&gt;pyVHDLModel.VHDLModel.BaseExpression -->
<g id="edge3" class="edge">
<title>pyVHDLModel.VHDLModel.ModelEntity&#45;&gt;pyVHDLModel.VHDLModel.BaseExpression</title>
<path fill="none" stroke="#000000" stroke-width=".5" d="M205.1107,-9.5C215.2127,-9.5 225.5179,-9.5 235.7516,-9.5"/>
<polygon fill="#000000" stroke="#000000" stroke-width=".5" points="235.7685,-11.2501 240.7685,-9.5 235.7684,-7.7501 235.7685,-11.2501"/>
</g>
<!-- pyVHDLModel.VHDLModel.ShiftExpression -->
<g id="node7" class="node">
<title>pyVHDLModel.VHDLModel.ShiftExpression</title>
<g id="a_node7"><a xlink:title="A ``ShiftExpression`` is a base&#45;class for all shifting expressions.">
<polygon fill="none" stroke="#000000" stroke-width=".5" points="992,-19 769,-19 769,0 992,0 992,-19"/>
<text text-anchor="middle" x="880.5" y="-7" font-family="Vera Sans, DejaVu Sans, Liberation Sans, Arial, Helvetica, sans" font-size="10.00" fill="#000000">pyVHDLModel.VHDLModel.ShiftExpression</text>
</a>
</g>
</g>
<!-- pyVHDLModel.VHDLModel.BinaryExpression&#45;&gt;pyVHDLModel.VHDLModel.ShiftExpression -->
<g id="edge5" class="edge">
<title>pyVHDLModel.VHDLModel.BinaryExpression&#45;&gt;pyVHDLModel.VHDLModel.ShiftExpression</title>
<path fill="none" stroke="#000000" stroke-width=".5" d="M733.342,-9.5C743.3212,-9.5 753.4199,-9.5 763.405,-9.5"/>
<polygon fill="#000000" stroke="#000000" stroke-width=".5" points="763.615,-11.2501 768.615,-9.5 763.615,-7.7501 763.615,-11.2501"/>
</g>
<!-- pyVHDLModel.VHDLModel.ShiftLogicExpression -->
<g id="node8" class="node">
<title>pyVHDLModel.VHDLModel.ShiftLogicExpression</title>
<polygon fill="none" stroke="#000000" stroke-width=".5" points="1276,-19 1028,-19 1028,0 1276,0 1276,-19"/>
<text text-anchor="middle" x="1152" y="-7" font-family="Vera Sans, DejaVu Sans, Liberation Sans, Arial, Helvetica, sans" font-size="10.00" fill="#000000">pyVHDLModel.VHDLModel.ShiftLogicExpression</text>
</g>
<!-- pyVHDLModel.VHDLModel.ShiftExpression&#45;&gt;pyVHDLModel.VHDLModel.ShiftLogicExpression -->
<g id="edge7" class="edge">
<title>pyVHDLModel.VHDLModel.ShiftExpression&#45;&gt;pyVHDLModel.VHDLModel.ShiftLogicExpression</title>
<path fill="none" stroke="#000000" stroke-width=".5" d="M992.1048,-9.5C1002.0685,-9.5 1012.2116,-9.5 1022.3098,-9.5"/>
<polygon fill="#000000" stroke="#000000" stroke-width=".5" points="1022.5853,-11.2501 1027.5853,-9.5 1022.5852,-7.7501 1022.5853,-11.2501"/>
</g>
<!-- pyVHDLModel.VHDLModel.ShiftLogicExpression&#45;&gt;pyVHDLModel.VHDLModel.ShiftLeftLogicExpression -->
<g id="edge6" class="edge">
<title>pyVHDLModel.VHDLModel.ShiftLogicExpression&#45;&gt;pyVHDLModel.VHDLModel.ShiftLeftLogicExpression</title>
<path fill="none" stroke="#000000" stroke-width=".5" d="M1276.045,-9.5C1286.0371,-9.5 1296.1731,-9.5 1306.2616,-9.5"/>
<polygon fill="#000000" stroke="#000000" stroke-width=".5" points="1306.532,-11.2501 1311.5319,-9.5 1306.5319,-7.7501 1306.532,-11.2501"/>
</g>
</g>
</svg>
