<?xml version="1.0" encoding="UTF-8" standalone="no"?>
<!DOCTYPE svg PUBLIC "-//W3C//DTD SVG 1.1//EN"
 "http://www.w3.org/Graphics/SVG/1.1/DTD/svg11.dtd">
<!-- Generated by graphviz version 2.40.1 (20161225.0304)
 -->
<!-- Title: inheritancebf1009b5ff Pages: 1 -->
<svg width="576pt" height="41pt"
 viewBox="0.00 0.00 576.00 40.88" xmlns="http://www.w3.org/2000/svg" xmlns:xlink="http://www.w3.org/1999/xlink">
<g id="graph0" class="graph" transform="scale(.4088 .4088) rotate(0) translate(4 96)">
<title>inheritancebf1009b5ff</title>
<polygon fill="#ffffff" stroke="transparent" points="-4,4 -4,-96 1405,-96 1405,4 -4,4"/>
<!-- pyGHDL.dom.DOMMixin -->
<g id="node1" class="node">
<title>pyGHDL.dom.DOMMixin</title>
<g id="a_node1"><a xlink:href="../pyGHDL.dom.html#pyGHDL.dom.DOMMixin" xlink:title="pyGHDL.dom.DOMMixin" target="_top">
<polygon fill="none" stroke="#000000" stroke-width=".5" points="1126.5,-92 992.5,-92 992.5,-73 1126.5,-73 1126.5,-92"/>
<text text-anchor="middle" x="1059.5" y="-80" font-family="Vera Sans, DejaVu Sans, Liberation Sans, Arial, Helvetica, sans" font-size="10.00" fill="#000000">pyGHDL.dom.DOMMixin</text>
</a>
</g>
</g>
<!-- pyGHDL.dom.Type.EnumeratedType -->
<g id="node2" class="node">
<title>pyGHDL.dom.Type.EnumeratedType</title>
<g id="a_node2"><a xlink:href="../pyGHDL/pyGHDL.dom.Type.html#pyGHDL.dom.Type.EnumeratedType" xlink:title="pyGHDL.dom.Type.EnumeratedType" target="_top">
<polygon fill="none" stroke="#000000" stroke-width=".5" points="1401,-73 1210,-73 1210,-54 1401,-54 1401,-73"/>
<text text-anchor="middle" x="1305.5" y="-61" font-family="Vera Sans, DejaVu Sans, Liberation Sans, Arial, Helvetica, sans" font-size="10.00" fill="#000000">pyGHDL.dom.Type.EnumeratedType</text>
</a>
</g>
</g>
<!-- pyGHDL.dom.DOMMixin&#45;&gt;pyGHDL.dom.Type.EnumeratedType -->
<g id="edge2" class="edge">
<title>pyGHDL.dom.DOMMixin&#45;&gt;pyGHDL.dom.Type.EnumeratedType</title>
<path fill="none" stroke="#000000" stroke-width=".5" d="M1126.7206,-77.3082C1150.7266,-75.454 1178.3291,-73.3221 1204.5495,-71.297"/>
<polygon fill="#000000" stroke="#000000" stroke-width=".5" points="1204.9233,-73.0234 1209.7737,-70.8935 1204.6537,-69.5338 1204.9233,-73.0234"/>
</g>
<!-- pyVHDLModel.VHDLModel.EnumeratedType -->
<g id="node3" class="node">
<title>pyVHDLModel.VHDLModel.EnumeratedType</title>
<polygon fill="none" stroke="#000000" stroke-width=".5" points="1174,-55 945,-55 945,-36 1174,-36 1174,-55"/>
<text text-anchor="middle" x="1059.5" y="-43" font-family="Vera Sans, DejaVu Sans, Liberation Sans, Arial, Helvetica, sans" font-size="10.00" fill="#000000">pyVHDLModel.VHDLModel.EnumeratedType</text>
</g>
<!-- pyVHDLModel.VHDLModel.EnumeratedType&#45;&gt;pyGHDL.dom.Type.EnumeratedType -->
<g id="edge1" class="edge">
<title>pyVHDLModel.VHDLModel.EnumeratedType&#45;&gt;pyGHDL.dom.Type.EnumeratedType</title>
<path fill="none" stroke="#000000" stroke-width=".5" d="M1174.2175,-53.894C1184.3508,-54.6354 1194.5594,-55.3824 1204.5666,-56.1146"/>
<polygon fill="#000000" stroke="#000000" stroke-width=".5" points="1204.6655,-57.8765 1209.7799,-56.4961 1204.9209,-54.3858 1204.6655,-57.8765"/>
</g>
<!-- pyVHDLModel.VHDLModel.BaseType -->
<g id="node4" class="node">
<title>pyVHDLModel.VHDLModel.BaseType</title>
<g id="a_node4"><a xlink:title="``BaseType`` is the base class of all type entities in this model.">
<polygon fill="none" stroke="#000000" stroke-width=".5" points="441,-37 247,-37 247,-18 441,-18 441,-37"/>
<text text-anchor="middle" x="344" y="-25" font-family="Vera Sans, DejaVu Sans, Liberation Sans, Arial, Helvetica, sans" font-size="10.00" fill="#000000">pyVHDLModel.VHDLModel.BaseType</text>
</a>
</g>
</g>
<!-- pyVHDLModel.VHDLModel.FullType -->
<g id="node9" class="node">
<title>pyVHDLModel.VHDLModel.FullType</title>
<polygon fill="none" stroke="#000000" stroke-width=".5" points="663,-37 477,-37 477,-18 663,-18 663,-37"/>
<text text-anchor="middle" x="570" y="-25" font-family="Vera Sans, DejaVu Sans, Liberation Sans, Arial, Helvetica, sans" font-size="10.00" fill="#000000">pyVHDLModel.VHDLModel.FullType</text>
</g>
<!-- pyVHDLModel.VHDLModel.BaseType&#45;&gt;pyVHDLModel.VHDLModel.FullType -->
<g id="edge7" class="edge">
<title>pyVHDLModel.VHDLModel.BaseType&#45;&gt;pyVHDLModel.VHDLModel.FullType</title>
<path fill="none" stroke="#000000" stroke-width=".5" d="M441.1559,-27.5C451.2418,-27.5 461.4995,-27.5 471.599,-27.5"/>
<polygon fill="#000000" stroke="#000000" stroke-width=".5" points="471.8642,-29.2501 476.8642,-27.5 471.8641,-25.7501 471.8642,-29.2501"/>
</g>
<!-- pyVHDLModel.VHDLModel.ModelEntity -->
<g id="node5" class="node">
<title>pyVHDLModel.VHDLModel.ModelEntity</title>
<g id="a_node5"><a xlink:title="``ModelEntity`` is the base class for all classes in the VHDL language model,">
<polygon fill="none" stroke="#000000" stroke-width=".5" points="208,-56 3,-56 3,-37 208,-37 208,-56"/>
<text text-anchor="middle" x="105.5" y="-44" font-family="Vera Sans, DejaVu Sans, Liberation Sans, Arial, Helvetica, sans" font-size="10.00" fill="#000000">pyVHDLModel.VHDLModel.ModelEntity</text>
</a>
</g>
</g>
<!-- pyVHDLModel.VHDLModel.ModelEntity&#45;&gt;pyVHDLModel.VHDLModel.BaseType -->
<g id="edge3" class="edge">
<title>pyVHDLModel.VHDLModel.ModelEntity&#45;&gt;pyVHDLModel.VHDLModel.BaseType</title>
<path fill="none" stroke="#000000" stroke-width=".5" d="M208.0296,-38.332C219.1971,-37.4424 230.5642,-36.5368 241.7286,-35.6474"/>
<polygon fill="#000000" stroke="#000000" stroke-width=".5" points="241.9972,-37.3816 246.8424,-35.24 241.7192,-33.8927 241.9972,-37.3816"/>
</g>
<!-- pyVHDLModel.VHDLModel.NamedEntity -->
<g id="node6" class="node">
<title>pyVHDLModel.VHDLModel.NamedEntity</title>
<g id="a_node6"><a xlink:title="A ``NamedEntity`` is a mixin class for all VHDL entities that have identifiers.">
<polygon fill="none" stroke="#000000" stroke-width=".5" points="211,-19 0,-19 0,0 211,0 211,-19"/>
<text text-anchor="middle" x="105.5" y="-7" font-family="Vera Sans, DejaVu Sans, Liberation Sans, Arial, Helvetica, sans" font-size="10.00" fill="#000000">pyVHDLModel.VHDLModel.NamedEntity</text>
</a>
</g>
</g>
<!-- pyVHDLModel.VHDLModel.NamedEntity&#45;&gt;pyVHDLModel.VHDLModel.BaseType -->
<g id="edge4" class="edge">
<title>pyVHDLModel.VHDLModel.NamedEntity&#45;&gt;pyVHDLModel.VHDLModel.BaseType</title>
<path fill="none" stroke="#000000" stroke-width=".5" d="M211.1511,-17.4737C221.2309,-18.2344 231.4421,-19.0051 241.4914,-19.7635"/>
<polygon fill="#000000" stroke="#000000" stroke-width=".5" points="241.6127,-21.5275 246.7302,-20.1589 241.8761,-18.0375 241.6127,-21.5275"/>
</g>
<!-- pyVHDLModel.VHDLModel.DiscreteType -->
<g id="node7" class="node">
<title>pyVHDLModel.VHDLModel.DiscreteType</title>
<g id="a_node7"><a xlink:title="A ``DiscreteType`` is a mixin class for all discrete types.">
<polygon fill="none" stroke="#000000" stroke-width=".5" points="909,-74 699,-74 699,-55 909,-55 909,-74"/>
<text text-anchor="middle" x="804" y="-62" font-family="Vera Sans, DejaVu Sans, Liberation Sans, Arial, Helvetica, sans" font-size="10.00" fill="#000000">pyVHDLModel.VHDLModel.DiscreteType</text>
</a>
</g>
</g>
<!-- pyVHDLModel.VHDLModel.DiscreteType&#45;&gt;pyVHDLModel.VHDLModel.EnumeratedType -->
<g id="edge6" class="edge">
<title>pyVHDLModel.VHDLModel.DiscreteType&#45;&gt;pyVHDLModel.VHDLModel.EnumeratedType</title>
<path fill="none" stroke="#000000" stroke-width=".5" d="M909.0277,-56.6897C919.2,-55.9333 929.5708,-55.1621 939.871,-54.3961"/>
<polygon fill="#000000" stroke="#000000" stroke-width=".5" points="940.0642,-56.1366 944.9206,-54.0206 939.8046,-52.6463 940.0642,-56.1366"/>
</g>
<!-- pyVHDLModel.VHDLModel.ScalarType -->
<g id="node8" class="node">
<title>pyVHDLModel.VHDLModel.ScalarType</title>
<g id="a_node8"><a xlink:title="A ``ScalarType`` is a base&#45;class for all scalar types.">
<polygon fill="none" stroke="#000000" stroke-width=".5" points="904,-37 704,-37 704,-18 904,-18 904,-37"/>
<text text-anchor="middle" x="804" y="-25" font-family="Vera Sans, DejaVu Sans, Liberation Sans, Arial, Helvetica, sans" font-size="10.00" fill="#000000">pyVHDLModel.VHDLModel.ScalarType</text>
</a>
</g>
</g>
<!-- pyVHDLModel.VHDLModel.ScalarType&#45;&gt;pyVHDLModel.VHDLModel.EnumeratedType -->
<g id="edge5" class="edge">
<title>pyVHDLModel.VHDLModel.ScalarType&#45;&gt;pyVHDLModel.VHDLModel.EnumeratedType</title>
<path fill="none" stroke="#000000" stroke-width=".5" d="M904.247,-34.5624C915.8683,-35.3811 927.8083,-36.2223 939.6572,-37.0571"/>
<polygon fill="#000000" stroke="#000000" stroke-width=".5" points="939.6179,-38.8085 944.7286,-37.4143 939.8639,-35.3172 939.6179,-38.8085"/>
</g>
<!-- pyVHDLModel.VHDLModel.FullType&#45;&gt;pyVHDLModel.VHDLModel.ScalarType -->
<g id="edge8" class="edge">
<title>pyVHDLModel.VHDLModel.FullType&#45;&gt;pyVHDLModel.VHDLModel.ScalarType</title>
<path fill="none" stroke="#000000" stroke-width=".5" d="M663.1554,-27.5C674.8649,-27.5 686.9073,-27.5 698.786,-27.5"/>
<polygon fill="#000000" stroke="#000000" stroke-width=".5" points="698.8654,-29.2501 703.8653,-27.5 698.8653,-25.7501 698.8654,-29.2501"/>
</g>
</g>
</svg>
