<?xml version="1.0" encoding="UTF-8" standalone="no"?>
<!DOCTYPE svg PUBLIC "-//W3C//DTD SVG 1.1//EN"
 "http://www.w3.org/Graphics/SVG/1.1/DTD/svg11.dtd">
<!-- Generated by graphviz version 2.40.1 (20161225.0304)
 -->
<!-- Title: inheritance7467f46b52 Pages: 1 -->
<svg width="576pt" height="27pt"
 viewBox="0.00 0.00 576.00 26.87" xmlns="http://www.w3.org/2000/svg" xmlns:xlink="http://www.w3.org/1999/xlink">
<g id="graph0" class="graph" transform="scale(.4198 .4198) rotate(0) translate(4 60)">
<title>inheritance7467f46b52</title>
<polygon fill="#ffffff" stroke="transparent" points="-4,4 -4,-60 1368,-60 1368,4 -4,4"/>
<!-- pyGHDL.dom.DOMMixin -->
<g id="node1" class="node">
<title>pyGHDL.dom.DOMMixin</title>
<g id="a_node1"><a xlink:href="../pyGHDL.dom.html#pyGHDL.dom.DOMMixin" xlink:title="pyGHDL.dom.DOMMixin" target="_top">
<polygon fill="none" stroke="#000000" stroke-width=".5" points="939,-56 805,-56 805,-37 939,-37 939,-56"/>
<text text-anchor="middle" x="872" y="-44" font-family="Vera Sans, DejaVu Sans, Liberation Sans, Arial, Helvetica, sans" font-size="10.00" fill="#000000">pyGHDL.dom.DOMMixin</text>
</a>
</g>
</g>
<!-- pyGHDL.dom.Symbol.SimpleObjectOrFunctionCallSymbol -->
<g id="node2" class="node">
<title>pyGHDL.dom.Symbol.SimpleObjectOrFunctionCallSymbol</title>
<g id="a_node2"><a xlink:href="../pyGHDL/pyGHDL.dom.Symbol.html#pyGHDL.dom.Symbol.SimpleObjectOrFunctionCallSymbol" xlink:title="pyGHDL.dom.Symbol.SimpleObjectOrFunctionCallSymbol" target="_top">
<polygon fill="none" stroke="#000000" stroke-width=".5" points="1364,-37 1068,-37 1068,-18 1364,-18 1364,-37"/>
<text text-anchor="middle" x="1216" y="-25" font-family="Vera Sans, DejaVu Sans, Liberation Sans, Arial, Helvetica, sans" font-size="10.00" fill="#000000">pyGHDL.dom.Symbol.SimpleObjectOrFunctionCallSymbol</text>
</a>
</g>
</g>
<!-- pyGHDL.dom.DOMMixin&#45;&gt;pyGHDL.dom.Symbol.SimpleObjectOrFunctionCallSymbol -->
<g id="edge2" class="edge">
<title>pyGHDL.dom.DOMMixin&#45;&gt;pyGHDL.dom.Symbol.SimpleObjectOrFunctionCallSymbol</title>
<path fill="none" stroke="#000000" stroke-width=".5" d="M939.1433,-42.7915C974.5384,-40.8365 1019.5135,-38.3525 1062.8697,-35.9578"/>
<polygon fill="#000000" stroke="#000000" stroke-width=".5" points="1062.9788,-37.7045 1067.8747,-35.6813 1062.7857,-34.2098 1062.9788,-37.7045"/>
</g>
<!-- pyVHDLModel.VHDLModel.SimpleObjectOrFunctionCallSymbol -->
<g id="node3" class="node">
<title>pyVHDLModel.VHDLModel.SimpleObjectOrFunctionCallSymbol</title>
<polygon fill="none" stroke="#000000" stroke-width=".5" points="1032,-19 712,-19 712,0 1032,0 1032,-19"/>
<text text-anchor="middle" x="872" y="-7" font-family="Vera Sans, DejaVu Sans, Liberation Sans, Arial, Helvetica, sans" font-size="10.00" fill="#000000">pyVHDLModel.VHDLModel.SimpleObjectOrFunctionCallSymbol</text>
</g>
<!-- pyVHDLModel.VHDLModel.SimpleObjectOrFunctionCallSymbol&#45;&gt;pyGHDL.dom.Symbol.SimpleObjectOrFunctionCallSymbol -->
<g id="edge1" class="edge">
<title>pyVHDLModel.VHDLModel.SimpleObjectOrFunctionCallSymbol&#45;&gt;pyGHDL.dom.Symbol.SimpleObjectOrFunctionCallSymbol</title>
<path fill="none" stroke="#000000" stroke-width=".5" d="M1032.1665,-17.8808C1042.4111,-18.4169 1052.7119,-18.9559 1062.9227,-19.4901"/>
<polygon fill="#000000" stroke="#000000" stroke-width=".5" points="1062.8427,-21.2383 1067.9274,-19.752 1063.0257,-17.743 1062.8427,-21.2383"/>
</g>
<!-- pyVHDLModel.VHDLModel.ModelEntity -->
<g id="node4" class="node">
<title>pyVHDLModel.VHDLModel.ModelEntity</title>
<g id="a_node4"><a xlink:title="``ModelEntity`` is the base class for all classes in the VHDL language model,">
<polygon fill="none" stroke="#000000" stroke-width=".5" points="205,-19 0,-19 0,0 205,0 205,-19"/>
<text text-anchor="middle" x="102.5" y="-7" font-family="Vera Sans, DejaVu Sans, Liberation Sans, Arial, Helvetica, sans" font-size="10.00" fill="#000000">pyVHDLModel.VHDLModel.ModelEntity</text>
</a>
</g>
</g>
<!-- pyVHDLModel.VHDLModel.Symbol -->
<g id="node6" class="node">
<title>pyVHDLModel.VHDLModel.Symbol</title>
<polygon fill="none" stroke="#000000" stroke-width=".5" points="425,-19 241,-19 241,0 425,0 425,-19"/>
<text text-anchor="middle" x="333" y="-7" font-family="Vera Sans, DejaVu Sans, Liberation Sans, Arial, Helvetica, sans" font-size="10.00" fill="#000000">pyVHDLModel.VHDLModel.Symbol</text>
</g>
<!-- pyVHDLModel.VHDLModel.ModelEntity&#45;&gt;pyVHDLModel.VHDLModel.Symbol -->
<g id="edge5" class="edge">
<title>pyVHDLModel.VHDLModel.ModelEntity&#45;&gt;pyVHDLModel.VHDLModel.Symbol</title>
<path fill="none" stroke="#000000" stroke-width=".5" d="M205.2788,-9.5C215.3998,-9.5 225.6505,-9.5 235.7139,-9.5"/>
<polygon fill="#000000" stroke="#000000" stroke-width=".5" points="235.9577,-11.2501 240.9577,-9.5 235.9577,-7.7501 235.9577,-11.2501"/>
</g>
<!-- pyVHDLModel.VHDLModel.ObjectSymbol -->
<g id="node5" class="node">
<title>pyVHDLModel.VHDLModel.ObjectSymbol</title>
<polygon fill="none" stroke="#000000" stroke-width=".5" points="676,-19 461,-19 461,0 676,0 676,-19"/>
<text text-anchor="middle" x="568.5" y="-7" font-family="Vera Sans, DejaVu Sans, Liberation Sans, Arial, Helvetica, sans" font-size="10.00" fill="#000000">pyVHDLModel.VHDLModel.ObjectSymbol</text>
</g>
<!-- pyVHDLModel.VHDLModel.ObjectSymbol&#45;&gt;pyVHDLModel.VHDLModel.SimpleObjectOrFunctionCallSymbol -->
<g id="edge4" class="edge">
<title>pyVHDLModel.VHDLModel.ObjectSymbol&#45;&gt;pyVHDLModel.VHDLModel.SimpleObjectOrFunctionCallSymbol</title>
<path fill="none" stroke="#000000" stroke-width=".5" d="M676.3573,-9.5C686.3139,-9.5 696.5463,-9.5 706.8619,-9.5"/>
<polygon fill="#000000" stroke="#000000" stroke-width=".5" points="706.9318,-11.2501 711.9317,-9.5 706.9317,-7.7501 706.9318,-11.2501"/>
</g>
<!-- pyVHDLModel.VHDLModel.Symbol&#45;&gt;pyVHDLModel.VHDLModel.ObjectSymbol -->
<g id="edge3" class="edge">
<title>pyVHDLModel.VHDLModel.Symbol&#45;&gt;pyVHDLModel.VHDLModel.ObjectSymbol</title>
<path fill="none" stroke="#000000" stroke-width=".5" d="M425.0623,-9.5C435.1509,-9.5 445.504,-9.5 455.8054,-9.5"/>
<polygon fill="#000000" stroke="#000000" stroke-width=".5" points="455.857,-11.2501 460.8569,-9.5 455.8569,-7.7501 455.857,-11.2501"/>
</g>
</g>
</svg>
