<?xml version="1.0" encoding="UTF-8" standalone="no"?>
<!DOCTYPE svg PUBLIC "-//W3C//DTD SVG 1.1//EN"
 "http://www.w3.org/Graphics/SVG/1.1/DTD/svg11.dtd">
<!-- Generated by graphviz version 2.40.1 (20161225.0304)
 -->
<!-- Title: inheritance6041c52f9a Pages: 1 -->
<svg width="576pt" height="41pt"
 viewBox="0.00 0.00 576.00 41.40" xmlns="http://www.w3.org/2000/svg" xmlns:xlink="http://www.w3.org/1999/xlink">
<g id="graph0" class="graph" transform="scale(.5048 .5048) rotate(0) translate(4 78)">
<title>inheritance6041c52f9a</title>
<polygon fill="#ffffff" stroke="transparent" points="-4,4 -4,-78 1137,-78 1137,4 -4,4"/>
<!-- pyGHDL.dom.DOMMixin -->
<g id="node1" class="node">
<title>pyGHDL.dom.DOMMixin</title>
<g id="a_node1"><a xlink:href="../pyGHDL.dom.html#pyGHDL.dom.DOMMixin" xlink:title="pyGHDL.dom.DOMMixin" target="_top">
<polygon fill="none" stroke="#000000" stroke-width=".5" points="863.5,-74 729.5,-74 729.5,-55 863.5,-55 863.5,-74"/>
<text text-anchor="middle" x="796.5" y="-62" font-family="Vera Sans, DejaVu Sans, Liberation Sans, Arial, Helvetica, sans" font-size="10.00" fill="#000000">pyGHDL.dom.DOMMixin</text>
</a>
</g>
</g>
<!-- pyGHDL.dom.Type.IncompleteType -->
<g id="node2" class="node">
<title>pyGHDL.dom.Type.IncompleteType</title>
<g id="a_node2"><a xlink:href="../pyGHDL/pyGHDL.dom.Type.html#pyGHDL.dom.Type.IncompleteType" xlink:title="pyGHDL.dom.Type.IncompleteType" target="_top">
<polygon fill="none" stroke="#000000" stroke-width=".5" points="1133,-55 946,-55 946,-36 1133,-36 1133,-55"/>
<text text-anchor="middle" x="1039.5" y="-43" font-family="Vera Sans, DejaVu Sans, Liberation Sans, Arial, Helvetica, sans" font-size="10.00" fill="#000000">pyGHDL.dom.Type.IncompleteType</text>
</a>
</g>
</g>
<!-- pyGHDL.dom.DOMMixin&#45;&gt;pyGHDL.dom.Type.IncompleteType -->
<g id="edge2" class="edge">
<title>pyGHDL.dom.DOMMixin&#45;&gt;pyGHDL.dom.Type.IncompleteType</title>
<path fill="none" stroke="#000000" stroke-width=".5" d="M863.5441,-59.2579C887.382,-57.394 914.7462,-55.2544 940.6808,-53.2266"/>
<polygon fill="#000000" stroke="#000000" stroke-width=".5" points="940.9989,-54.9572 945.8472,-52.8226 940.726,-51.4678 940.9989,-54.9572"/>
</g>
<!-- pyVHDLModel.VHDLModel.AnonymousType -->
<g id="node3" class="node">
<title>pyVHDLModel.VHDLModel.AnonymousType</title>
<polygon fill="none" stroke="#000000" stroke-width=".5" points="910,-37 683,-37 683,-18 910,-18 910,-37"/>
<text text-anchor="middle" x="796.5" y="-25" font-family="Vera Sans, DejaVu Sans, Liberation Sans, Arial, Helvetica, sans" font-size="10.00" fill="#000000">pyVHDLModel.VHDLModel.AnonymousType</text>
</g>
<!-- pyVHDLModel.VHDLModel.AnonymousType&#45;&gt;pyGHDL.dom.Type.IncompleteType -->
<g id="edge1" class="edge">
<title>pyVHDLModel.VHDLModel.AnonymousType&#45;&gt;pyGHDL.dom.Type.IncompleteType</title>
<path fill="none" stroke="#000000" stroke-width=".5" d="M910.1738,-35.9203C920.3769,-36.6761 930.6539,-37.4373 940.7155,-38.1826"/>
<polygon fill="#000000" stroke="#000000" stroke-width=".5" points="940.8402,-39.9466 945.9558,-38.5708 941.0988,-36.4561 940.8402,-39.9466"/>
</g>
<!-- pyVHDLModel.VHDLModel.Type -->
<g id="node4" class="node">
<title>pyVHDLModel.VHDLModel.Type</title>
<polygon fill="none" stroke="#000000" stroke-width=".5" points="647,-37 477,-37 477,-18 647,-18 647,-37"/>
<text text-anchor="middle" x="562" y="-25" font-family="Vera Sans, DejaVu Sans, Liberation Sans, Arial, Helvetica, sans" font-size="10.00" fill="#000000">pyVHDLModel.VHDLModel.Type</text>
</g>
<!-- pyVHDLModel.VHDLModel.Type&#45;&gt;pyVHDLModel.VHDLModel.AnonymousType -->
<g id="edge3" class="edge">
<title>pyVHDLModel.VHDLModel.Type&#45;&gt;pyVHDLModel.VHDLModel.AnonymousType</title>
<path fill="none" stroke="#000000" stroke-width=".5" d="M647.3232,-27.5C657.2268,-27.5 667.4593,-27.5 677.7075,-27.5"/>
<polygon fill="#000000" stroke="#000000" stroke-width=".5" points="677.7383,-29.2501 682.7383,-27.5 677.7382,-25.7501 677.7383,-29.2501"/>
</g>
<!-- pyVHDLModel.VHDLModel.BaseType -->
<g id="node5" class="node">
<title>pyVHDLModel.VHDLModel.BaseType</title>
<g id="a_node5"><a xlink:title="``BaseType`` is the base class of all type entities in this model.">
<polygon fill="none" stroke="#000000" stroke-width=".5" points="441,-37 247,-37 247,-18 441,-18 441,-37"/>
<text text-anchor="middle" x="344" y="-25" font-family="Vera Sans, DejaVu Sans, Liberation Sans, Arial, Helvetica, sans" font-size="10.00" fill="#000000">pyVHDLModel.VHDLModel.BaseType</text>
</a>
</g>
</g>
<!-- pyVHDLModel.VHDLModel.BaseType&#45;&gt;pyVHDLModel.VHDLModel.Type -->
<g id="edge6" class="edge">
<title>pyVHDLModel.VHDLModel.BaseType&#45;&gt;pyVHDLModel.VHDLModel.Type</title>
<path fill="none" stroke="#000000" stroke-width=".5" d="M441.2051,-27.5C451.3574,-27.5 461.6477,-27.5 471.7182,-27.5"/>
<polygon fill="#000000" stroke="#000000" stroke-width=".5" points="471.9626,-29.2501 476.9626,-27.5 471.9625,-25.7501 471.9626,-29.2501"/>
</g>
<!-- pyVHDLModel.VHDLModel.ModelEntity -->
<g id="node6" class="node">
<title>pyVHDLModel.VHDLModel.ModelEntity</title>
<g id="a_node6"><a xlink:title="``ModelEntity`` is the base class for all classes in the VHDL language model,">
<polygon fill="none" stroke="#000000" stroke-width=".5" points="208,-56 3,-56 3,-37 208,-37 208,-56"/>
<text text-anchor="middle" x="105.5" y="-44" font-family="Vera Sans, DejaVu Sans, Liberation Sans, Arial, Helvetica, sans" font-size="10.00" fill="#000000">pyVHDLModel.VHDLModel.ModelEntity</text>
</a>
</g>
</g>
<!-- pyVHDLModel.VHDLModel.ModelEntity&#45;&gt;pyVHDLModel.VHDLModel.BaseType -->
<g id="edge4" class="edge">
<title>pyVHDLModel.VHDLModel.ModelEntity&#45;&gt;pyVHDLModel.VHDLModel.BaseType</title>
<path fill="none" stroke="#000000" stroke-width=".5" d="M208.0296,-38.332C219.1971,-37.4424 230.5642,-36.5368 241.7286,-35.6474"/>
<polygon fill="#000000" stroke="#000000" stroke-width=".5" points="241.9972,-37.3816 246.8424,-35.24 241.7192,-33.8927 241.9972,-37.3816"/>
</g>
<!-- pyVHDLModel.VHDLModel.NamedEntity -->
<g id="node7" class="node">
<title>pyVHDLModel.VHDLModel.NamedEntity</title>
<g id="a_node7"><a xlink:title="A ``NamedEntity`` is a mixin class for all VHDL entities that have identifiers.">
<polygon fill="none" stroke="#000000" stroke-width=".5" points="211,-19 0,-19 0,0 211,0 211,-19"/>
<text text-anchor="middle" x="105.5" y="-7" font-family="Vera Sans, DejaVu Sans, Liberation Sans, Arial, Helvetica, sans" font-size="10.00" fill="#000000">pyVHDLModel.VHDLModel.NamedEntity</text>
</a>
</g>
</g>
<!-- pyVHDLModel.VHDLModel.NamedEntity&#45;&gt;pyVHDLModel.VHDLModel.BaseType -->
<g id="edge5" class="edge">
<title>pyVHDLModel.VHDLModel.NamedEntity&#45;&gt;pyVHDLModel.VHDLModel.BaseType</title>
<path fill="none" stroke="#000000" stroke-width=".5" d="M211.1511,-17.4737C221.2309,-18.2344 231.4421,-19.0051 241.4914,-19.7635"/>
<polygon fill="#000000" stroke="#000000" stroke-width=".5" points="241.6127,-21.5275 246.7302,-20.1589 241.8761,-18.0375 241.6127,-21.5275"/>
</g>
</g>
</svg>
