<?xml version="1.0" encoding="UTF-8" standalone="no"?>
<!DOCTYPE svg PUBLIC "-//W3C//DTD SVG 1.1//EN"
 "http://www.w3.org/Graphics/SVG/1.1/DTD/svg11.dtd">
<!-- Generated by graphviz version 2.40.1 (20161225.0304)
 -->
<!-- Title: inheritance9e99d5a14f Pages: 1 -->
<svg width="576pt" height="23pt"
 viewBox="0.00 0.00 576.00 23.20" xmlns="http://www.w3.org/2000/svg" xmlns:xlink="http://www.w3.org/1999/xlink">
<g id="graph0" class="graph" transform="scale(.3625 .3625) rotate(0) translate(4 60)">
<title>inheritance9e99d5a14f</title>
<polygon fill="#ffffff" stroke="transparent" points="-4,4 -4,-60 1585,-60 1585,4 -4,4"/>
<!-- pyGHDL.dom.DOMMixin -->
<g id="node1" class="node">
<title>pyGHDL.dom.DOMMixin</title>
<g id="a_node1"><a xlink:href="../pyGHDL.dom.html#pyGHDL.dom.DOMMixin" xlink:title="pyGHDL.dom.DOMMixin" target="_top">
<polygon fill="none" stroke="#000000" stroke-width=".5" points="1245.5,-56 1111.5,-56 1111.5,-37 1245.5,-37 1245.5,-56"/>
<text text-anchor="middle" x="1178.5" y="-44" font-family="Vera Sans, DejaVu Sans, Liberation Sans, Arial, Helvetica, sans" font-size="10.00" fill="#000000">pyGHDL.dom.DOMMixin</text>
</a>
</g>
</g>
<!-- pyGHDL.dom.Expression.LessEqualExpression -->
<g id="node2" class="node">
<title>pyGHDL.dom.Expression.LessEqualExpression</title>
<g id="a_node2"><a xlink:href="../pyGHDL/pyGHDL.dom.Expression.html#pyGHDL.dom.Expression.LessEqualExpression" xlink:title="pyGHDL.dom.Expression.LessEqualExpression" target="_top">
<polygon fill="none" stroke="#000000" stroke-width=".5" points="1581,-37 1339,-37 1339,-18 1581,-18 1581,-37"/>
<text text-anchor="middle" x="1460" y="-25" font-family="Vera Sans, DejaVu Sans, Liberation Sans, Arial, Helvetica, sans" font-size="10.00" fill="#000000">pyGHDL.dom.Expression.LessEqualExpression</text>
</a>
</g>
</g>
<!-- pyGHDL.dom.DOMMixin&#45;&gt;pyGHDL.dom.Expression.LessEqualExpression -->
<g id="edge2" class="edge">
<title>pyGHDL.dom.DOMMixin&#45;&gt;pyGHDL.dom.Expression.LessEqualExpression</title>
<path fill="none" stroke="#000000" stroke-width=".5" d="M1245.5686,-41.9732C1272.0098,-40.1885 1303.2823,-38.0777 1333.6511,-36.028"/>
<polygon fill="#000000" stroke="#000000" stroke-width=".5" points="1334.0408,-37.7558 1338.9115,-35.6729 1333.805,-34.2637 1334.0408,-37.7558"/>
</g>
<!-- pyVHDLModel.VHDLModel.LessEqualExpression -->
<g id="node3" class="node">
<title>pyVHDLModel.VHDLModel.LessEqualExpression</title>
<polygon fill="none" stroke="#000000" stroke-width=".5" points="1303,-19 1054,-19 1054,0 1303,0 1303,-19"/>
<text text-anchor="middle" x="1178.5" y="-7" font-family="Vera Sans, DejaVu Sans, Liberation Sans, Arial, Helvetica, sans" font-size="10.00" fill="#000000">pyVHDLModel.VHDLModel.LessEqualExpression</text>
</g>
<!-- pyVHDLModel.VHDLModel.LessEqualExpression&#45;&gt;pyGHDL.dom.Expression.LessEqualExpression -->
<g id="edge1" class="edge">
<title>pyVHDLModel.VHDLModel.LessEqualExpression&#45;&gt;pyGHDL.dom.Expression.LessEqualExpression</title>
<path fill="none" stroke="#000000" stroke-width=".5" d="M1303.1993,-17.4737C1313.218,-18.1143 1323.3465,-18.7619 1333.3784,-19.4034"/>
<polygon fill="#000000" stroke="#000000" stroke-width=".5" points="1333.513,-21.1655 1338.6145,-19.7382 1333.7364,-17.6726 1333.513,-21.1655"/>
</g>
<!-- pyVHDLModel.VHDLModel.BaseExpression -->
<g id="node4" class="node">
<title>pyVHDLModel.VHDLModel.BaseExpression</title>
<g id="a_node4"><a xlink:title="A ``BaseExpression`` is a base&#45;class for all expressions.">
<polygon fill="none" stroke="#000000" stroke-width=".5" points="465,-19 241,-19 241,0 465,0 465,-19"/>
<text text-anchor="middle" x="353" y="-7" font-family="Vera Sans, DejaVu Sans, Liberation Sans, Arial, Helvetica, sans" font-size="10.00" fill="#000000">pyVHDLModel.VHDLModel.BaseExpression</text>
</a>
</g>
</g>
<!-- pyVHDLModel.VHDLModel.BinaryExpression -->
<g id="node6" class="node">
<title>pyVHDLModel.VHDLModel.BinaryExpression</title>
<g id="a_node6"><a xlink:title="A ``BinaryExpression`` is a base&#45;class for all binary expressions.">
<polygon fill="none" stroke="#000000" stroke-width=".5" points="733,-19 501,-19 501,0 733,0 733,-19"/>
<text text-anchor="middle" x="617" y="-7" font-family="Vera Sans, DejaVu Sans, Liberation Sans, Arial, Helvetica, sans" font-size="10.00" fill="#000000">pyVHDLModel.VHDLModel.BinaryExpression</text>
</a>
</g>
</g>
<!-- pyVHDLModel.VHDLModel.BaseExpression&#45;&gt;pyVHDLModel.VHDLModel.BinaryExpression -->
<g id="edge4" class="edge">
<title>pyVHDLModel.VHDLModel.BaseExpression&#45;&gt;pyVHDLModel.VHDLModel.BinaryExpression</title>
<path fill="none" stroke="#000000" stroke-width=".5" d="M465.3426,-9.5C475.3813,-9.5 485.5751,-9.5 495.6849,-9.5"/>
<polygon fill="#000000" stroke="#000000" stroke-width=".5" points="495.9627,-11.2501 500.9627,-9.5 495.9626,-7.7501 495.9627,-11.2501"/>
</g>
<!-- pyVHDLModel.VHDLModel.ModelEntity -->
<g id="node5" class="node">
<title>pyVHDLModel.VHDLModel.ModelEntity</title>
<g id="a_node5"><a xlink:title="``ModelEntity`` is the base class for all classes in the VHDL language model,">
<polygon fill="none" stroke="#000000" stroke-width=".5" points="205,-19 0,-19 0,0 205,0 205,-19"/>
<text text-anchor="middle" x="102.5" y="-7" font-family="Vera Sans, DejaVu Sans, Liberation Sans, Arial, Helvetica, sans" font-size="10.00" fill="#000000">pyVHDLModel.VHDLModel.ModelEntity</text>
</a>
</g>
</g>
<!-- pyVHDLModel.VHDLModel.ModelEntity&#45;&gt;pyVHDLModel.VHDLModel.BaseExpression -->
<g id="edge3" class="edge">
<title>pyVHDLModel.VHDLModel.ModelEntity&#45;&gt;pyVHDLModel.VHDLModel.BaseExpression</title>
<path fill="none" stroke="#000000" stroke-width=".5" d="M205.1107,-9.5C215.2127,-9.5 225.5179,-9.5 235.7516,-9.5"/>
<polygon fill="#000000" stroke="#000000" stroke-width=".5" points="235.7685,-11.2501 240.7685,-9.5 235.7684,-7.7501 235.7685,-11.2501"/>
</g>
<!-- pyVHDLModel.VHDLModel.RelationalExpression -->
<g id="node7" class="node">
<title>pyVHDLModel.VHDLModel.RelationalExpression</title>
<g id="a_node7"><a xlink:title="A ``RelationalExpression`` is a base&#45;class for all shifting expressions.">
<polygon fill="none" stroke="#000000" stroke-width=".5" points="1018,-19 769,-19 769,0 1018,0 1018,-19"/>
<text text-anchor="middle" x="893.5" y="-7" font-family="Vera Sans, DejaVu Sans, Liberation Sans, Arial, Helvetica, sans" font-size="10.00" fill="#000000">pyVHDLModel.VHDLModel.RelationalExpression</text>
</a>
</g>
</g>
<!-- pyVHDLModel.VHDLModel.BinaryExpression&#45;&gt;pyVHDLModel.VHDLModel.RelationalExpression -->
<g id="edge6" class="edge">
<title>pyVHDLModel.VHDLModel.BinaryExpression&#45;&gt;pyVHDLModel.VHDLModel.RelationalExpression</title>
<path fill="none" stroke="#000000" stroke-width=".5" d="M733.0591,-9.5C743.2195,-9.5 753.544,-9.5 763.8055,-9.5"/>
<polygon fill="#000000" stroke="#000000" stroke-width=".5" points="763.837,-11.2501 768.8369,-9.5 763.8369,-7.7501 763.837,-11.2501"/>
</g>
<!-- pyVHDLModel.VHDLModel.RelationalExpression&#45;&gt;pyVHDLModel.VHDLModel.LessEqualExpression -->
<g id="edge5" class="edge">
<title>pyVHDLModel.VHDLModel.RelationalExpression&#45;&gt;pyVHDLModel.VHDLModel.LessEqualExpression</title>
<path fill="none" stroke="#000000" stroke-width=".5" d="M1018.0905,-9.5C1028.2594,-9.5 1038.552,-9.5 1048.7565,-9.5"/>
<polygon fill="#000000" stroke="#000000" stroke-width=".5" points="1048.7581,-11.2501 1053.758,-9.5 1048.758,-7.7501 1048.7581,-11.2501"/>
</g>
</g>
</svg>
