<?xml version="1.0" encoding="UTF-8" standalone="no"?>
<!DOCTYPE svg PUBLIC "-//W3C//DTD SVG 1.1//EN"
 "http://www.w3.org/Graphics/SVG/1.1/DTD/svg11.dtd">
<!-- Generated by graphviz version 2.40.1 (20161225.0304)
 -->
<!-- Title: inheritance9feaec56e1 Pages: 1 -->
<svg width="576pt" height="32pt"
 viewBox="0.00 0.00 576.00 32.28" xmlns="http://www.w3.org/2000/svg" xmlns:xlink="http://www.w3.org/1999/xlink">
<g id="graph0" class="graph" transform="scale(.5044 .5044) rotate(0) translate(4 60)">
<title>inheritance9feaec56e1</title>
<polygon fill="#ffffff" stroke="transparent" points="-4,4 -4,-60 1138,-60 1138,4 -4,4"/>
<!-- pyGHDL.dom.DOMMixin -->
<g id="node1" class="node">
<title>pyGHDL.dom.DOMMixin</title>
<g id="a_node1"><a xlink:href="../pyGHDL.dom.html#pyGHDL.dom.DOMMixin" xlink:title="pyGHDL.dom.DOMMixin" target="_top">
<polygon fill="none" stroke="#000000" stroke-width=".5" points="885,-56 751,-56 751,-37 885,-37 885,-56"/>
<text text-anchor="middle" x="818" y="-44" font-family="Vera Sans, DejaVu Sans, Liberation Sans, Arial, Helvetica, sans" font-size="10.00" fill="#000000">pyGHDL.dom.DOMMixin</text>
</a>
</g>
</g>
<!-- pyGHDL.dom.Literal.StringLiteral -->
<g id="node2" class="node">
<title>pyGHDL.dom.Literal.StringLiteral</title>
<g id="a_node2"><a xlink:href="../pyGHDL/pyGHDL.dom.Literal.html#pyGHDL.dom.Literal.StringLiteral" xlink:title="pyGHDL.dom.Literal.StringLiteral" target="_top">
<polygon fill="none" stroke="#000000" stroke-width=".5" points="1134,-37 957,-37 957,-18 1134,-18 1134,-37"/>
<text text-anchor="middle" x="1045.5" y="-25" font-family="Vera Sans, DejaVu Sans, Liberation Sans, Arial, Helvetica, sans" font-size="10.00" fill="#000000">pyGHDL.dom.Literal.StringLiteral</text>
</a>
</g>
</g>
<!-- pyGHDL.dom.DOMMixin&#45;&gt;pyGHDL.dom.Literal.StringLiteral -->
<g id="edge2" class="edge">
<title>pyGHDL.dom.DOMMixin&#45;&gt;pyGHDL.dom.Literal.StringLiteral</title>
<path fill="none" stroke="#000000" stroke-width=".5" d="M885.027,-40.9021C905.8638,-39.1619 929.2322,-37.2103 951.5513,-35.3463"/>
<polygon fill="#000000" stroke="#000000" stroke-width=".5" points="951.7587,-37.0851 956.5957,-34.925 951.4674,-33.5973 951.7587,-37.0851"/>
</g>
<!-- pyVHDLModel.VHDLModel.StringLiteral -->
<g id="node3" class="node">
<title>pyVHDLModel.VHDLModel.StringLiteral</title>
<polygon fill="none" stroke="#000000" stroke-width=".5" points="921,-19 715,-19 715,0 921,0 921,-19"/>
<text text-anchor="middle" x="818" y="-7" font-family="Vera Sans, DejaVu Sans, Liberation Sans, Arial, Helvetica, sans" font-size="10.00" fill="#000000">pyVHDLModel.VHDLModel.StringLiteral</text>
</g>
<!-- pyVHDLModel.VHDLModel.StringLiteral&#45;&gt;pyGHDL.dom.Literal.StringLiteral -->
<g id="edge1" class="edge">
<title>pyVHDLModel.VHDLModel.StringLiteral&#45;&gt;pyGHDL.dom.Literal.StringLiteral</title>
<path fill="none" stroke="#000000" stroke-width=".5" d="M921.0998,-17.6573C931.2114,-18.4574 941.4362,-19.2664 951.4509,-20.0587"/>
<polygon fill="#000000" stroke="#000000" stroke-width=".5" points="951.5445,-21.8215 956.667,-20.4715 951.8207,-18.3324 951.5445,-21.8215"/>
</g>
<!-- pyVHDLModel.VHDLModel.BaseExpression -->
<g id="node4" class="node">
<title>pyVHDLModel.VHDLModel.BaseExpression</title>
<g id="a_node4"><a xlink:title="A ``BaseExpression`` is a base&#45;class for all expressions.">
<polygon fill="none" stroke="#000000" stroke-width=".5" points="465,-19 241,-19 241,0 465,0 465,-19"/>
<text text-anchor="middle" x="353" y="-7" font-family="Vera Sans, DejaVu Sans, Liberation Sans, Arial, Helvetica, sans" font-size="10.00" fill="#000000">pyVHDLModel.VHDLModel.BaseExpression</text>
</a>
</g>
</g>
<!-- pyVHDLModel.VHDLModel.Literal -->
<g id="node6" class="node">
<title>pyVHDLModel.VHDLModel.Literal</title>
<g id="a_node6"><a xlink:title="A ``Literal`` is a base&#45;class for all literals.">
<polygon fill="none" stroke="#000000" stroke-width=".5" points="679,-19 501,-19 501,0 679,0 679,-19"/>
<text text-anchor="middle" x="590" y="-7" font-family="Vera Sans, DejaVu Sans, Liberation Sans, Arial, Helvetica, sans" font-size="10.00" fill="#000000">pyVHDLModel.VHDLModel.Literal</text>
</a>
</g>
</g>
<!-- pyVHDLModel.VHDLModel.BaseExpression&#45;&gt;pyVHDLModel.VHDLModel.Literal -->
<g id="edge4" class="edge">
<title>pyVHDLModel.VHDLModel.BaseExpression&#45;&gt;pyVHDLModel.VHDLModel.Literal</title>
<path fill="none" stroke="#000000" stroke-width=".5" d="M465.2536,-9.5C475.4419,-9.5 485.692,-9.5 495.7014,-9.5"/>
<polygon fill="#000000" stroke="#000000" stroke-width=".5" points="495.9123,-11.2501 500.9122,-9.5 495.9122,-7.7501 495.9123,-11.2501"/>
</g>
<!-- pyVHDLModel.VHDLModel.ModelEntity -->
<g id="node5" class="node">
<title>pyVHDLModel.VHDLModel.ModelEntity</title>
<g id="a_node5"><a xlink:title="``ModelEntity`` is the base class for all classes in the VHDL language model,">
<polygon fill="none" stroke="#000000" stroke-width=".5" points="205,-19 0,-19 0,0 205,0 205,-19"/>
<text text-anchor="middle" x="102.5" y="-7" font-family="Vera Sans, DejaVu Sans, Liberation Sans, Arial, Helvetica, sans" font-size="10.00" fill="#000000">pyVHDLModel.VHDLModel.ModelEntity</text>
</a>
</g>
</g>
<!-- pyVHDLModel.VHDLModel.ModelEntity&#45;&gt;pyVHDLModel.VHDLModel.BaseExpression -->
<g id="edge3" class="edge">
<title>pyVHDLModel.VHDLModel.ModelEntity&#45;&gt;pyVHDLModel.VHDLModel.BaseExpression</title>
<path fill="none" stroke="#000000" stroke-width=".5" d="M205.1107,-9.5C215.2127,-9.5 225.5179,-9.5 235.7516,-9.5"/>
<polygon fill="#000000" stroke="#000000" stroke-width=".5" points="235.7685,-11.2501 240.7685,-9.5 235.7684,-7.7501 235.7685,-11.2501"/>
</g>
<!-- pyVHDLModel.VHDLModel.Literal&#45;&gt;pyVHDLModel.VHDLModel.StringLiteral -->
<g id="edge5" class="edge">
<title>pyVHDLModel.VHDLModel.Literal&#45;&gt;pyVHDLModel.VHDLModel.StringLiteral</title>
<path fill="none" stroke="#000000" stroke-width=".5" d="M679.1303,-9.5C689.2197,-9.5 699.5822,-9.5 709.8806,-9.5"/>
<polygon fill="#000000" stroke="#000000" stroke-width=".5" points="709.9296,-11.2501 714.9296,-9.5 709.9295,-7.7501 709.9296,-11.2501"/>
</g>
</g>
</svg>
