<?xml version="1.0" encoding="UTF-8" standalone="no"?>
<!DOCTYPE svg PUBLIC "-//W3C//DTD SVG 1.1//EN"
 "http://www.w3.org/Graphics/SVG/1.1/DTD/svg11.dtd">
<!-- Generated by graphviz version 2.40.1 (20161225.0304)
 -->
<!-- Title: inheritanced1c51ecd68 Pages: 1 -->
<svg width="576pt" height="36pt"
 viewBox="0.00 0.00 576.00 35.87" xmlns="http://www.w3.org/2000/svg" xmlns:xlink="http://www.w3.org/1999/xlink">
<g id="graph0" class="graph" transform="scale(.3551 .3551) rotate(0) translate(4 97)">
<title>inheritanced1c51ecd68</title>
<polygon fill="#ffffff" stroke="transparent" points="-4,4 -4,-97 1618,-97 1618,4 -4,4"/>
<!-- pyGHDL.dom.DOMMixin -->
<g id="node1" class="node">
<title>pyGHDL.dom.DOMMixin</title>
<g id="a_node1"><a xlink:href="../pyGHDL.dom.html#pyGHDL.dom.DOMMixin" xlink:title="pyGHDL.dom.DOMMixin" target="_top">
<polygon fill="none" stroke="#000000" stroke-width=".5" points="1376,-93 1242,-93 1242,-74 1376,-74 1376,-93"/>
<text text-anchor="middle" x="1309" y="-81" font-family="Vera Sans, DejaVu Sans, Liberation Sans, Arial, Helvetica, sans" font-size="10.00" fill="#000000">pyGHDL.dom.DOMMixin</text>
</a>
</g>
</g>
<!-- pyGHDL.dom.Type.IntegerType -->
<g id="node2" class="node">
<title>pyGHDL.dom.Type.IntegerType</title>
<g id="a_node2"><a xlink:href="../pyGHDL/pyGHDL.dom.Type.html#pyGHDL.dom.Type.IntegerType" xlink:title="pyGHDL.dom.Type.IntegerType" target="_top">
<polygon fill="none" stroke="#000000" stroke-width=".5" points="1614,-74 1447,-74 1447,-55 1614,-55 1614,-74"/>
<text text-anchor="middle" x="1530.5" y="-62" font-family="Vera Sans, DejaVu Sans, Liberation Sans, Arial, Helvetica, sans" font-size="10.00" fill="#000000">pyGHDL.dom.Type.IntegerType</text>
</a>
</g>
</g>
<!-- pyGHDL.dom.DOMMixin&#45;&gt;pyGHDL.dom.Type.IntegerType -->
<g id="edge2" class="edge">
<title>pyGHDL.dom.DOMMixin&#45;&gt;pyGHDL.dom.Type.IntegerType</title>
<path fill="none" stroke="#000000" stroke-width=".5" d="M1376.0584,-77.7478C1396.6874,-75.9783 1419.725,-74.0021 1441.5814,-72.1273"/>
<polygon fill="#000000" stroke="#000000" stroke-width=".5" points="1441.9813,-73.8495 1446.8134,-71.6785 1441.6821,-70.3624 1441.9813,-73.8495"/>
</g>
<!-- pyVHDLModel.VHDLModel.IntegerType -->
<g id="node3" class="node">
<title>pyVHDLModel.VHDLModel.IntegerType</title>
<polygon fill="none" stroke="#000000" stroke-width=".5" points="1411,-56 1207,-56 1207,-37 1411,-37 1411,-56"/>
<text text-anchor="middle" x="1309" y="-44" font-family="Vera Sans, DejaVu Sans, Liberation Sans, Arial, Helvetica, sans" font-size="10.00" fill="#000000">pyVHDLModel.VHDLModel.IntegerType</text>
</g>
<!-- pyVHDLModel.VHDLModel.IntegerType&#45;&gt;pyGHDL.dom.Type.IntegerType -->
<g id="edge1" class="edge">
<title>pyVHDLModel.VHDLModel.IntegerType&#45;&gt;pyGHDL.dom.Type.IntegerType</title>
<path fill="none" stroke="#000000" stroke-width=".5" d="M1411.3212,-54.815C1421.4566,-55.6387 1431.6867,-56.47 1441.6693,-57.2813"/>
<polygon fill="#000000" stroke="#000000" stroke-width=".5" points="1441.7398,-59.0427 1446.8652,-57.7035 1442.0234,-55.5542 1441.7398,-59.0427"/>
</g>
<!-- pyVHDLModel.VHDLModel.BaseType -->
<g id="node4" class="node">
<title>pyVHDLModel.VHDLModel.BaseType</title>
<g id="a_node4"><a xlink:title="``BaseType`` is the base class of all type entities in this model.">
<polygon fill="none" stroke="#000000" stroke-width=".5" points="441,-56 247,-56 247,-37 441,-37 441,-56"/>
<text text-anchor="middle" x="344" y="-44" font-family="Vera Sans, DejaVu Sans, Liberation Sans, Arial, Helvetica, sans" font-size="10.00" fill="#000000">pyVHDLModel.VHDLModel.BaseType</text>
</a>
</g>
</g>
<!-- pyVHDLModel.VHDLModel.FullType -->
<g id="node8" class="node">
<title>pyVHDLModel.VHDLModel.FullType</title>
<polygon fill="none" stroke="#000000" stroke-width=".5" points="663,-56 477,-56 477,-37 663,-37 663,-56"/>
<text text-anchor="middle" x="570" y="-44" font-family="Vera Sans, DejaVu Sans, Liberation Sans, Arial, Helvetica, sans" font-size="10.00" fill="#000000">pyVHDLModel.VHDLModel.FullType</text>
</g>
<!-- pyVHDLModel.VHDLModel.BaseType&#45;&gt;pyVHDLModel.VHDLModel.FullType -->
<g id="edge5" class="edge">
<title>pyVHDLModel.VHDLModel.BaseType&#45;&gt;pyVHDLModel.VHDLModel.FullType</title>
<path fill="none" stroke="#000000" stroke-width=".5" d="M441.1559,-46.5C451.2418,-46.5 461.4995,-46.5 471.599,-46.5"/>
<polygon fill="#000000" stroke="#000000" stroke-width=".5" points="471.8642,-48.2501 476.8642,-46.5 471.8641,-44.7501 471.8642,-48.2501"/>
</g>
<!-- pyVHDLModel.VHDLModel.ModelEntity -->
<g id="node5" class="node">
<title>pyVHDLModel.VHDLModel.ModelEntity</title>
<g id="a_node5"><a xlink:title="``ModelEntity`` is the base class for all classes in the VHDL language model,">
<polygon fill="none" stroke="#000000" stroke-width=".5" points="208,-75 3,-75 3,-56 208,-56 208,-75"/>
<text text-anchor="middle" x="105.5" y="-63" font-family="Vera Sans, DejaVu Sans, Liberation Sans, Arial, Helvetica, sans" font-size="10.00" fill="#000000">pyVHDLModel.VHDLModel.ModelEntity</text>
</a>
</g>
</g>
<!-- pyVHDLModel.VHDLModel.ModelEntity&#45;&gt;pyVHDLModel.VHDLModel.BaseType -->
<g id="edge3" class="edge">
<title>pyVHDLModel.VHDLModel.ModelEntity&#45;&gt;pyVHDLModel.VHDLModel.BaseType</title>
<path fill="none" stroke="#000000" stroke-width=".5" d="M208.0296,-57.332C219.1971,-56.4424 230.5642,-55.5368 241.7286,-54.6474"/>
<polygon fill="#000000" stroke="#000000" stroke-width=".5" points="241.9972,-56.3816 246.8424,-54.24 241.7192,-52.8927 241.9972,-56.3816"/>
</g>
<!-- pyVHDLModel.VHDLModel.NamedEntity -->
<g id="node6" class="node">
<title>pyVHDLModel.VHDLModel.NamedEntity</title>
<g id="a_node6"><a xlink:title="A ``NamedEntity`` is a mixin class for all VHDL entities that have identifiers.">
<polygon fill="none" stroke="#000000" stroke-width=".5" points="211,-38 0,-38 0,-19 211,-19 211,-38"/>
<text text-anchor="middle" x="105.5" y="-26" font-family="Vera Sans, DejaVu Sans, Liberation Sans, Arial, Helvetica, sans" font-size="10.00" fill="#000000">pyVHDLModel.VHDLModel.NamedEntity</text>
</a>
</g>
</g>
<!-- pyVHDLModel.VHDLModel.NamedEntity&#45;&gt;pyVHDLModel.VHDLModel.BaseType -->
<g id="edge4" class="edge">
<title>pyVHDLModel.VHDLModel.NamedEntity&#45;&gt;pyVHDLModel.VHDLModel.BaseType</title>
<path fill="none" stroke="#000000" stroke-width=".5" d="M211.1511,-36.4737C221.2309,-37.2344 231.4421,-38.0051 241.4914,-38.7635"/>
<polygon fill="#000000" stroke="#000000" stroke-width=".5" points="241.6127,-40.5275 246.7302,-39.1589 241.8761,-37.0375 241.6127,-40.5275"/>
</g>
<!-- pyVHDLModel.VHDLModel.DiscreteType -->
<g id="node7" class="node">
<title>pyVHDLModel.VHDLModel.DiscreteType</title>
<g id="a_node7"><a xlink:title="A ``DiscreteType`` is a mixin class for all discrete types.">
<polygon fill="none" stroke="#000000" stroke-width=".5" points="1158,-93 948,-93 948,-74 1158,-74 1158,-93"/>
<text text-anchor="middle" x="1053" y="-81" font-family="Vera Sans, DejaVu Sans, Liberation Sans, Arial, Helvetica, sans" font-size="10.00" fill="#000000">pyVHDLModel.VHDLModel.DiscreteType</text>
</a>
</g>
</g>
<!-- pyVHDLModel.VHDLModel.DiscreteType&#45;&gt;pyVHDLModel.VHDLModel.IntegerType -->
<g id="edge8" class="edge">
<title>pyVHDLModel.VHDLModel.DiscreteType&#45;&gt;pyVHDLModel.VHDLModel.IntegerType</title>
<path fill="none" stroke="#000000" stroke-width=".5" d="M1118.9264,-73.9716C1155.364,-68.7052 1200.6567,-62.159 1237.8881,-56.7779"/>
<polygon fill="#000000" stroke="#000000" stroke-width=".5" points="1238.1544,-58.5077 1242.8526,-56.0604 1237.6537,-55.0437 1238.1544,-58.5077"/>
</g>
<!-- pyVHDLModel.VHDLModel.ScalarType -->
<g id="node11" class="node">
<title>pyVHDLModel.VHDLModel.ScalarType</title>
<g id="a_node11"><a xlink:title="A ``ScalarType`` is a base&#45;class for all scalar types.">
<polygon fill="none" stroke="#000000" stroke-width=".5" points="899,-56 699,-56 699,-37 899,-37 899,-56"/>
<text text-anchor="middle" x="799" y="-44" font-family="Vera Sans, DejaVu Sans, Liberation Sans, Arial, Helvetica, sans" font-size="10.00" fill="#000000">pyVHDLModel.VHDLModel.ScalarType</text>
</a>
</g>
</g>
<!-- pyVHDLModel.VHDLModel.FullType&#45;&gt;pyVHDLModel.VHDLModel.ScalarType -->
<g id="edge10" class="edge">
<title>pyVHDLModel.VHDLModel.FullType&#45;&gt;pyVHDLModel.VHDLModel.ScalarType</title>
<path fill="none" stroke="#000000" stroke-width=".5" d="M663.1431,-46.5C673.2525,-46.5 683.5921,-46.5 693.8316,-46.5"/>
<polygon fill="#000000" stroke="#000000" stroke-width=".5" points="693.8488,-48.2501 698.8488,-46.5 693.8487,-44.7501 693.8488,-48.2501"/>
</g>
<!-- pyVHDLModel.VHDLModel.RangedScalarType -->
<g id="node9" class="node">
<title>pyVHDLModel.VHDLModel.RangedScalarType</title>
<g id="a_node9"><a xlink:title="A ``RangedScalarType`` is a base&#45;class for all scalar types with a range.">
<polygon fill="none" stroke="#000000" stroke-width=".5" points="1171,-56 935,-56 935,-37 1171,-37 1171,-56"/>
<text text-anchor="middle" x="1053" y="-44" font-family="Vera Sans, DejaVu Sans, Liberation Sans, Arial, Helvetica, sans" font-size="10.00" fill="#000000">pyVHDLModel.VHDLModel.RangedScalarType</text>
</a>
</g>
</g>
<!-- pyVHDLModel.VHDLModel.RangedScalarType&#45;&gt;pyVHDLModel.VHDLModel.IntegerType -->
<g id="edge6" class="edge">
<title>pyVHDLModel.VHDLModel.RangedScalarType&#45;&gt;pyVHDLModel.VHDLModel.IntegerType</title>
<path fill="none" stroke="#000000" stroke-width=".5" d="M1171.2584,-46.5C1181.4106,-46.5 1191.6449,-46.5 1201.7041,-46.5"/>
<polygon fill="#000000" stroke="#000000" stroke-width=".5" points="1201.947,-48.2501 1206.947,-46.5 1201.947,-44.7501 1201.947,-48.2501"/>
</g>
<!-- pyVHDLModel.VHDLModel.NumericType -->
<g id="node10" class="node">
<title>pyVHDLModel.VHDLModel.NumericType</title>
<g id="a_node10"><a xlink:title="A ``NumericType`` is a mixin class for all numeric types.">
<polygon fill="none" stroke="#000000" stroke-width=".5" points="1158.5,-19 947.5,-19 947.5,0 1158.5,0 1158.5,-19"/>
<text text-anchor="middle" x="1053" y="-7" font-family="Vera Sans, DejaVu Sans, Liberation Sans, Arial, Helvetica, sans" font-size="10.00" fill="#000000">pyVHDLModel.VHDLModel.NumericType</text>
</a>
</g>
</g>
<!-- pyVHDLModel.VHDLModel.NumericType&#45;&gt;pyVHDLModel.VHDLModel.IntegerType -->
<g id="edge7" class="edge">
<title>pyVHDLModel.VHDLModel.NumericType&#45;&gt;pyVHDLModel.VHDLModel.IntegerType</title>
<path fill="none" stroke="#000000" stroke-width=".5" d="M1118.9264,-19.0284C1155.364,-24.2948 1200.6567,-30.841 1237.8881,-36.2221"/>
<polygon fill="#000000" stroke="#000000" stroke-width=".5" points="1237.6537,-37.9563 1242.8526,-36.9396 1238.1544,-34.4923 1237.6537,-37.9563"/>
</g>
<!-- pyVHDLModel.VHDLModel.ScalarType&#45;&gt;pyVHDLModel.VHDLModel.RangedScalarType -->
<g id="edge9" class="edge">
<title>pyVHDLModel.VHDLModel.ScalarType&#45;&gt;pyVHDLModel.VHDLModel.RangedScalarType</title>
<path fill="none" stroke="#000000" stroke-width=".5" d="M899.0229,-46.5C909.1637,-46.5 919.5451,-46.5 929.892,-46.5"/>
<polygon fill="#000000" stroke="#000000" stroke-width=".5" points="929.9674,-48.2501 934.9674,-46.5 929.9673,-44.7501 929.9674,-48.2501"/>
</g>
</g>
</svg>
