<?xml version="1.0" encoding="UTF-8" standalone="no"?>
<!DOCTYPE svg PUBLIC "-//W3C//DTD SVG 1.1//EN"
 "http://www.w3.org/Graphics/SVG/1.1/DTD/svg11.dtd">
<!-- Generated by graphviz version 2.40.1 (20161225.0304)
 -->
<!-- Title: inheritance0bb86eb3ac Pages: 1 -->
<svg width="576pt" height="50pt"
 viewBox="0.00 0.00 576.00 50.22" xmlns="http://www.w3.org/2000/svg" xmlns:xlink="http://www.w3.org/1999/xlink">
<g id="graph0" class="graph" transform="scale(.7847 .7847) rotate(0) translate(4 60)">
<title>inheritance0bb86eb3ac</title>
<polygon fill="#ffffff" stroke="transparent" points="-4,4 -4,-60 730,-60 730,4 -4,4"/>
<!-- pyGHDL.dom.DOMMixin -->
<g id="node1" class="node">
<title>pyGHDL.dom.DOMMixin</title>
<g id="a_node1"><a xlink:href="../pyGHDL.dom.html#pyGHDL.dom.DOMMixin" xlink:title="pyGHDL.dom.DOMMixin" target="_top">
<polygon fill="none" stroke="#000000" stroke-width=".5" points="429.5,-56 295.5,-56 295.5,-37 429.5,-37 429.5,-56"/>
<text text-anchor="middle" x="362.5" y="-44" font-family="Vera Sans, DejaVu Sans, Liberation Sans, Arial, Helvetica, sans" font-size="10.00" fill="#000000">pyGHDL.dom.DOMMixin</text>
</a>
</g>
</g>
<!-- pyGHDL.dom.Type.RecordTypeElement -->
<g id="node2" class="node">
<title>pyGHDL.dom.Type.RecordTypeElement</title>
<g id="a_node2"><a xlink:href="../pyGHDL/pyGHDL.dom.Type.html#pyGHDL.dom.Type.RecordTypeElement" xlink:title="pyGHDL.dom.Type.RecordTypeElement" target="_top">
<polygon fill="none" stroke="#000000" stroke-width=".5" points="726,-37 520,-37 520,-18 726,-18 726,-37"/>
<text text-anchor="middle" x="623" y="-25" font-family="Vera Sans, DejaVu Sans, Liberation Sans, Arial, Helvetica, sans" font-size="10.00" fill="#000000">pyGHDL.dom.Type.RecordTypeElement</text>
</a>
</g>
</g>
<!-- pyGHDL.dom.DOMMixin&#45;&gt;pyGHDL.dom.Type.RecordTypeElement -->
<g id="edge2" class="edge">
<title>pyGHDL.dom.DOMMixin&#45;&gt;pyGHDL.dom.Type.RecordTypeElement</title>
<path fill="none" stroke="#000000" stroke-width=".5" d="M429.5852,-41.607C455.5214,-39.7153 485.8665,-37.5021 514.7288,-35.3969"/>
<polygon fill="#000000" stroke="#000000" stroke-width=".5" points="514.8626,-37.1419 519.722,-35.0328 514.6079,-33.6512 514.8626,-37.1419"/>
</g>
<!-- pyVHDLModel.VHDLModel.RecordTypeElement -->
<g id="node3" class="node">
<title>pyVHDLModel.VHDLModel.RecordTypeElement</title>
<polygon fill="none" stroke="#000000" stroke-width=".5" points="484,-19 241,-19 241,0 484,0 484,-19"/>
<text text-anchor="middle" x="362.5" y="-7" font-family="Vera Sans, DejaVu Sans, Liberation Sans, Arial, Helvetica, sans" font-size="10.00" fill="#000000">pyVHDLModel.VHDLModel.RecordTypeElement</text>
</g>
<!-- pyVHDLModel.VHDLModel.RecordTypeElement&#45;&gt;pyGHDL.dom.Type.RecordTypeElement -->
<g id="edge1" class="edge">
<title>pyVHDLModel.VHDLModel.RecordTypeElement&#45;&gt;pyGHDL.dom.Type.RecordTypeElement</title>
<path fill="none" stroke="#000000" stroke-width=".5" d="M484.3601,-17.9203C494.5087,-18.6215 504.7255,-19.3275 514.7627,-20.021"/>
<polygon fill="#000000" stroke="#000000" stroke-width=".5" points="514.8851,-21.7836 519.9938,-20.3825 515.1264,-18.2919 514.8851,-21.7836"/>
</g>
<!-- pyVHDLModel.VHDLModel.ModelEntity -->
<g id="node4" class="node">
<title>pyVHDLModel.VHDLModel.ModelEntity</title>
<g id="a_node4"><a xlink:title="``ModelEntity`` is the base class for all classes in the VHDL language model,">
<polygon fill="none" stroke="#000000" stroke-width=".5" points="205,-19 0,-19 0,0 205,0 205,-19"/>
<text text-anchor="middle" x="102.5" y="-7" font-family="Vera Sans, DejaVu Sans, Liberation Sans, Arial, Helvetica, sans" font-size="10.00" fill="#000000">pyVHDLModel.VHDLModel.ModelEntity</text>
</a>
</g>
</g>
<!-- pyVHDLModel.VHDLModel.ModelEntity&#45;&gt;pyVHDLModel.VHDLModel.RecordTypeElement -->
<g id="edge3" class="edge">
<title>pyVHDLModel.VHDLModel.ModelEntity&#45;&gt;pyVHDLModel.VHDLModel.RecordTypeElement</title>
<path fill="none" stroke="#000000" stroke-width=".5" d="M205.2589,-9.5C215.2614,-9.5 225.4892,-9.5 235.6907,-9.5"/>
<polygon fill="#000000" stroke="#000000" stroke-width=".5" points="235.6956,-11.2501 240.6955,-9.5 235.6955,-7.7501 235.6956,-11.2501"/>
</g>
</g>
</svg>
