<?xml version="1.0" encoding="UTF-8" standalone="no"?>
<!DOCTYPE svg PUBLIC "-//W3C//DTD SVG 1.1//EN"
 "http://www.w3.org/Graphics/SVG/1.1/DTD/svg11.dtd">
<!-- Generated by graphviz version 2.40.1 (20161225.0304)
 -->
<!-- Title: inheritanceafc53b3af3 Pages: 1 -->
<svg width="576pt" height="29pt"
 viewBox="0.00 0.00 576.00 28.58" xmlns="http://www.w3.org/2000/svg" xmlns:xlink="http://www.w3.org/1999/xlink">
<g id="graph0" class="graph" transform="scale(.4465 .4465) rotate(0) translate(4 60)">
<title>inheritanceafc53b3af3</title>
<polygon fill="#ffffff" stroke="transparent" points="-4,4 -4,-60 1286,-60 1286,4 -4,4"/>
<!-- pyGHDL.dom.DOMMixin -->
<g id="node1" class="node">
<title>pyGHDL.dom.DOMMixin</title>
<g id="a_node1"><a xlink:href="../pyGHDL.dom.html#pyGHDL.dom.DOMMixin" xlink:title="pyGHDL.dom.DOMMixin" target="_top">
<polygon fill="none" stroke="#000000" stroke-width=".5" points="955.5,-56 821.5,-56 821.5,-37 955.5,-37 955.5,-56"/>
<text text-anchor="middle" x="888.5" y="-44" font-family="Vera Sans, DejaVu Sans, Liberation Sans, Arial, Helvetica, sans" font-size="10.00" fill="#000000">pyGHDL.dom.DOMMixin</text>
</a>
</g>
</g>
<!-- pyGHDL.dom.Expression.AbsoluteExpression -->
<g id="node2" class="node">
<title>pyGHDL.dom.Expression.AbsoluteExpression</title>
<g id="a_node2"><a xlink:href="../pyGHDL/pyGHDL.dom.Expression.html#pyGHDL.dom.Expression.AbsoluteExpression" xlink:title="pyGHDL.dom.Expression.AbsoluteExpression" target="_top">
<polygon fill="none" stroke="#000000" stroke-width=".5" points="1282,-37 1046,-37 1046,-18 1282,-18 1282,-37"/>
<text text-anchor="middle" x="1164" y="-25" font-family="Vera Sans, DejaVu Sans, Liberation Sans, Arial, Helvetica, sans" font-size="10.00" fill="#000000">pyGHDL.dom.Expression.AbsoluteExpression</text>
</a>
</g>
</g>
<!-- pyGHDL.dom.DOMMixin&#45;&gt;pyGHDL.dom.Expression.AbsoluteExpression -->
<g id="edge2" class="edge">
<title>pyGHDL.dom.DOMMixin&#45;&gt;pyGHDL.dom.Expression.AbsoluteExpression</title>
<path fill="none" stroke="#000000" stroke-width=".5" d="M955.5426,-41.8764C981.2138,-40.1059 1011.3801,-38.0255 1040.6674,-36.0057"/>
<polygon fill="#000000" stroke="#000000" stroke-width=".5" points="1040.8728,-37.7458 1045.7405,-35.6558 1040.6319,-34.2541 1040.8728,-37.7458"/>
</g>
<!-- pyVHDLModel.VHDLModel.AbsoluteExpression -->
<g id="node3" class="node">
<title>pyVHDLModel.VHDLModel.AbsoluteExpression</title>
<polygon fill="none" stroke="#000000" stroke-width=".5" points="1010,-19 767,-19 767,0 1010,0 1010,-19"/>
<text text-anchor="middle" x="888.5" y="-7" font-family="Vera Sans, DejaVu Sans, Liberation Sans, Arial, Helvetica, sans" font-size="10.00" fill="#000000">pyVHDLModel.VHDLModel.AbsoluteExpression</text>
</g>
<!-- pyVHDLModel.VHDLModel.AbsoluteExpression&#45;&gt;pyGHDL.dom.Expression.AbsoluteExpression -->
<g id="edge1" class="edge">
<title>pyVHDLModel.VHDLModel.AbsoluteExpression&#45;&gt;pyGHDL.dom.Expression.AbsoluteExpression</title>
<path fill="none" stroke="#000000" stroke-width=".5" d="M1010.1403,-17.4475C1020.2057,-18.1051 1030.3875,-18.7703 1040.4666,-19.4289"/>
<polygon fill="#000000" stroke="#000000" stroke-width=".5" points="1040.6233,-21.1927 1045.7268,-19.7725 1040.8516,-17.7002 1040.6233,-21.1927"/>
</g>
<!-- pyVHDLModel.VHDLModel.UnaryExpression -->
<g id="node4" class="node">
<title>pyVHDLModel.VHDLModel.UnaryExpression</title>
<g id="a_node4"><a xlink:title="A ``UnaryExpression`` is a base&#45;class for all unary expressions.">
<polygon fill="none" stroke="#000000" stroke-width=".5" points="731,-19 501,-19 501,0 731,0 731,-19"/>
<text text-anchor="middle" x="616" y="-7" font-family="Vera Sans, DejaVu Sans, Liberation Sans, Arial, Helvetica, sans" font-size="10.00" fill="#000000">pyVHDLModel.VHDLModel.UnaryExpression</text>
</a>
</g>
</g>
<!-- pyVHDLModel.VHDLModel.UnaryExpression&#45;&gt;pyVHDLModel.VHDLModel.AbsoluteExpression -->
<g id="edge3" class="edge">
<title>pyVHDLModel.VHDLModel.UnaryExpression&#45;&gt;pyVHDLModel.VHDLModel.AbsoluteExpression</title>
<path fill="none" stroke="#000000" stroke-width=".5" d="M731.1696,-9.5C741.1889,-9.5 751.364,-9.5 761.4712,-9.5"/>
<polygon fill="#000000" stroke="#000000" stroke-width=".5" points="761.7493,-11.2501 766.7493,-9.5 761.7492,-7.7501 761.7493,-11.2501"/>
</g>
<!-- pyVHDLModel.VHDLModel.BaseExpression -->
<g id="node5" class="node">
<title>pyVHDLModel.VHDLModel.BaseExpression</title>
<g id="a_node5"><a xlink:title="A ``BaseExpression`` is a base&#45;class for all expressions.">
<polygon fill="none" stroke="#000000" stroke-width=".5" points="465,-19 241,-19 241,0 465,0 465,-19"/>
<text text-anchor="middle" x="353" y="-7" font-family="Vera Sans, DejaVu Sans, Liberation Sans, Arial, Helvetica, sans" font-size="10.00" fill="#000000">pyVHDLModel.VHDLModel.BaseExpression</text>
</a>
</g>
</g>
<!-- pyVHDLModel.VHDLModel.BaseExpression&#45;&gt;pyVHDLModel.VHDLModel.UnaryExpression -->
<g id="edge5" class="edge">
<title>pyVHDLModel.VHDLModel.BaseExpression&#45;&gt;pyVHDLModel.VHDLModel.UnaryExpression</title>
<path fill="none" stroke="#000000" stroke-width=".5" d="M465.2985,-9.5C475.2853,-9.5 485.4231,-9.5 495.4748,-9.5"/>
<polygon fill="#000000" stroke="#000000" stroke-width=".5" points="495.7221,-11.2501 500.7221,-9.5 495.7221,-7.7501 495.7221,-11.2501"/>
</g>
<!-- pyVHDLModel.VHDLModel.ModelEntity -->
<g id="node6" class="node">
<title>pyVHDLModel.VHDLModel.ModelEntity</title>
<g id="a_node6"><a xlink:title="``ModelEntity`` is the base class for all classes in the VHDL language model,">
<polygon fill="none" stroke="#000000" stroke-width=".5" points="205,-19 0,-19 0,0 205,0 205,-19"/>
<text text-anchor="middle" x="102.5" y="-7" font-family="Vera Sans, DejaVu Sans, Liberation Sans, Arial, Helvetica, sans" font-size="10.00" fill="#000000">pyVHDLModel.VHDLModel.ModelEntity</text>
</a>
</g>
</g>
<!-- pyVHDLModel.VHDLModel.ModelEntity&#45;&gt;pyVHDLModel.VHDLModel.BaseExpression -->
<g id="edge4" class="edge">
<title>pyVHDLModel.VHDLModel.ModelEntity&#45;&gt;pyVHDLModel.VHDLModel.BaseExpression</title>
<path fill="none" stroke="#000000" stroke-width=".5" d="M205.1107,-9.5C215.2127,-9.5 225.5179,-9.5 235.7516,-9.5"/>
<polygon fill="#000000" stroke="#000000" stroke-width=".5" points="235.7685,-11.2501 240.7685,-9.5 235.7684,-7.7501 235.7685,-11.2501"/>
</g>
</g>
</svg>
