<?xml version="1.0" encoding="UTF-8" standalone="no"?>
<!DOCTYPE svg PUBLIC "-//W3C//DTD SVG 1.1//EN"
 "http://www.w3.org/Graphics/SVG/1.1/DTD/svg11.dtd">
<!-- Generated by graphviz version 2.40.1 (20161225.0304)
 -->
<!-- Title: inheritance1ee7c824f5 Pages: 1 -->
<svg width="576pt" height="23pt"
 viewBox="0.00 0.00 576.00 23.39" xmlns="http://www.w3.org/2000/svg" xmlns:xlink="http://www.w3.org/1999/xlink">
<g id="graph0" class="graph" transform="scale(.3655 .3655) rotate(0) translate(4 60)">
<title>inheritance1ee7c824f5</title>
<polygon fill="#ffffff" stroke="transparent" points="-4,4 -4,-60 1572,-60 1572,4 -4,4"/>
<!-- pyGHDL.dom.DOMMixin -->
<g id="node1" class="node">
<title>pyGHDL.dom.DOMMixin</title>
<g id="a_node1"><a xlink:href="../pyGHDL.dom.html#pyGHDL.dom.DOMMixin" xlink:title="pyGHDL.dom.DOMMixin" target="_top">
<polygon fill="none" stroke="#000000" stroke-width=".5" points="1246,-56 1112,-56 1112,-37 1246,-37 1246,-56"/>
<text text-anchor="middle" x="1179" y="-44" font-family="Vera Sans, DejaVu Sans, Liberation Sans, Arial, Helvetica, sans" font-size="10.00" fill="#000000">pyGHDL.dom.DOMMixin</text>
</a>
</g>
</g>
<!-- pyGHDL.dom.Expression.DivisionExpression -->
<g id="node2" class="node">
<title>pyGHDL.dom.Expression.DivisionExpression</title>
<g id="a_node2"><a xlink:href="../pyGHDL/pyGHDL.dom.Expression.html#pyGHDL.dom.Expression.DivisionExpression" xlink:title="pyGHDL.dom.Expression.DivisionExpression" target="_top">
<polygon fill="none" stroke="#000000" stroke-width=".5" points="1568,-37 1335,-37 1335,-18 1568,-18 1568,-37"/>
<text text-anchor="middle" x="1451.5" y="-25" font-family="Vera Sans, DejaVu Sans, Liberation Sans, Arial, Helvetica, sans" font-size="10.00" fill="#000000">pyGHDL.dom.Expression.DivisionExpression</text>
</a>
</g>
</g>
<!-- pyGHDL.dom.DOMMixin&#45;&gt;pyGHDL.dom.Expression.DivisionExpression -->
<g id="edge2" class="edge">
<title>pyGHDL.dom.DOMMixin&#45;&gt;pyGHDL.dom.Expression.DivisionExpression</title>
<path fill="none" stroke="#000000" stroke-width=".5" d="M1246.01,-41.8277C1271.2301,-40.0693 1300.761,-38.0102 1329.4437,-36.0104"/>
<polygon fill="#000000" stroke="#000000" stroke-width=".5" points="1329.9221,-37.7313 1334.7882,-35.6377 1329.6786,-34.2398 1329.9221,-37.7313"/>
</g>
<!-- pyVHDLModel.VHDLModel.DivisionExpression -->
<g id="node3" class="node">
<title>pyVHDLModel.VHDLModel.DivisionExpression</title>
<polygon fill="none" stroke="#000000" stroke-width=".5" points="1299,-19 1059,-19 1059,0 1299,0 1299,-19"/>
<text text-anchor="middle" x="1179" y="-7" font-family="Vera Sans, DejaVu Sans, Liberation Sans, Arial, Helvetica, sans" font-size="10.00" fill="#000000">pyVHDLModel.VHDLModel.DivisionExpression</text>
</g>
<!-- pyVHDLModel.VHDLModel.DivisionExpression&#45;&gt;pyGHDL.dom.Expression.DivisionExpression -->
<g id="edge1" class="edge">
<title>pyVHDLModel.VHDLModel.DivisionExpression&#45;&gt;pyGHDL.dom.Expression.DivisionExpression</title>
<path fill="none" stroke="#000000" stroke-width=".5" d="M1299.3157,-17.4475C1309.3929,-18.1131 1319.5881,-18.7866 1329.6765,-19.4529"/>
<polygon fill="#000000" stroke="#000000" stroke-width=".5" points="1329.8367,-21.2173 1334.9412,-19.8007 1330.0674,-17.7249 1329.8367,-21.2173"/>
</g>
<!-- pyVHDLModel.VHDLModel.BaseExpression -->
<g id="node4" class="node">
<title>pyVHDLModel.VHDLModel.BaseExpression</title>
<g id="a_node4"><a xlink:title="A ``BaseExpression`` is a base&#45;class for all expressions.">
<polygon fill="none" stroke="#000000" stroke-width=".5" points="465,-19 241,-19 241,0 465,0 465,-19"/>
<text text-anchor="middle" x="353" y="-7" font-family="Vera Sans, DejaVu Sans, Liberation Sans, Arial, Helvetica, sans" font-size="10.00" fill="#000000">pyVHDLModel.VHDLModel.BaseExpression</text>
</a>
</g>
</g>
<!-- pyVHDLModel.VHDLModel.BinaryExpression -->
<g id="node6" class="node">
<title>pyVHDLModel.VHDLModel.BinaryExpression</title>
<g id="a_node6"><a xlink:title="A ``BinaryExpression`` is a base&#45;class for all binary expressions.">
<polygon fill="none" stroke="#000000" stroke-width=".5" points="733,-19 501,-19 501,0 733,0 733,-19"/>
<text text-anchor="middle" x="617" y="-7" font-family="Vera Sans, DejaVu Sans, Liberation Sans, Arial, Helvetica, sans" font-size="10.00" fill="#000000">pyVHDLModel.VHDLModel.BinaryExpression</text>
</a>
</g>
</g>
<!-- pyVHDLModel.VHDLModel.BaseExpression&#45;&gt;pyVHDLModel.VHDLModel.BinaryExpression -->
<g id="edge4" class="edge">
<title>pyVHDLModel.VHDLModel.BaseExpression&#45;&gt;pyVHDLModel.VHDLModel.BinaryExpression</title>
<path fill="none" stroke="#000000" stroke-width=".5" d="M465.3426,-9.5C475.3813,-9.5 485.5751,-9.5 495.6849,-9.5"/>
<polygon fill="#000000" stroke="#000000" stroke-width=".5" points="495.9627,-11.2501 500.9627,-9.5 495.9626,-7.7501 495.9627,-11.2501"/>
</g>
<!-- pyVHDLModel.VHDLModel.ModelEntity -->
<g id="node5" class="node">
<title>pyVHDLModel.VHDLModel.ModelEntity</title>
<g id="a_node5"><a xlink:title="``ModelEntity`` is the base class for all classes in the VHDL language model,">
<polygon fill="none" stroke="#000000" stroke-width=".5" points="205,-19 0,-19 0,0 205,0 205,-19"/>
<text text-anchor="middle" x="102.5" y="-7" font-family="Vera Sans, DejaVu Sans, Liberation Sans, Arial, Helvetica, sans" font-size="10.00" fill="#000000">pyVHDLModel.VHDLModel.ModelEntity</text>
</a>
</g>
</g>
<!-- pyVHDLModel.VHDLModel.ModelEntity&#45;&gt;pyVHDLModel.VHDLModel.BaseExpression -->
<g id="edge3" class="edge">
<title>pyVHDLModel.VHDLModel.ModelEntity&#45;&gt;pyVHDLModel.VHDLModel.BaseExpression</title>
<path fill="none" stroke="#000000" stroke-width=".5" d="M205.1107,-9.5C215.2127,-9.5 225.5179,-9.5 235.7516,-9.5"/>
<polygon fill="#000000" stroke="#000000" stroke-width=".5" points="235.7685,-11.2501 240.7685,-9.5 235.7684,-7.7501 235.7685,-11.2501"/>
</g>
<!-- pyVHDLModel.VHDLModel.MultiplyingExpression -->
<g id="node7" class="node">
<title>pyVHDLModel.VHDLModel.MultiplyingExpression</title>
<g id="a_node7"><a xlink:title="A ``MultiplyingExpression`` is a base&#45;class for all multiplying expressions.">
<polygon fill="none" stroke="#000000" stroke-width=".5" points="1023,-19 769,-19 769,0 1023,0 1023,-19"/>
<text text-anchor="middle" x="896" y="-7" font-family="Vera Sans, DejaVu Sans, Liberation Sans, Arial, Helvetica, sans" font-size="10.00" fill="#000000">pyVHDLModel.VHDLModel.MultiplyingExpression</text>
</a>
</g>
</g>
<!-- pyVHDLModel.VHDLModel.BinaryExpression&#45;&gt;pyVHDLModel.VHDLModel.MultiplyingExpression -->
<g id="edge6" class="edge">
<title>pyVHDLModel.VHDLModel.BinaryExpression&#45;&gt;pyVHDLModel.VHDLModel.MultiplyingExpression</title>
<path fill="none" stroke="#000000" stroke-width=".5" d="M733.3008,-9.5C743.2323,-9.5 753.3251,-9.5 763.3703,-9.5"/>
<polygon fill="#000000" stroke="#000000" stroke-width=".5" points="763.6179,-11.2501 768.6178,-9.5 763.6178,-7.7501 763.6179,-11.2501"/>
</g>
<!-- pyVHDLModel.VHDLModel.MultiplyingExpression&#45;&gt;pyVHDLModel.VHDLModel.DivisionExpression -->
<g id="edge5" class="edge">
<title>pyVHDLModel.VHDLModel.MultiplyingExpression&#45;&gt;pyVHDLModel.VHDLModel.DivisionExpression</title>
<path fill="none" stroke="#000000" stroke-width=".5" d="M1023.0133,-9.5C1033.2417,-9.5 1043.5721,-9.5 1053.7878,-9.5"/>
<polygon fill="#000000" stroke="#000000" stroke-width=".5" points="1053.7926,-11.2501 1058.7926,-9.5 1053.7926,-7.7501 1053.7926,-11.2501"/>
</g>
</g>
</svg>
