<?xml version="1.0" encoding="UTF-8" standalone="no"?>
<!DOCTYPE svg PUBLIC "-//W3C//DTD SVG 1.1//EN"
 "http://www.w3.org/Graphics/SVG/1.1/DTD/svg11.dtd">
<!-- Generated by graphviz version 2.40.1 (20161225.0304)
 -->
<!-- Title: inheritance9bbaf0b9f8 Pages: 1 -->
<svg width="576pt" height="40pt"
 viewBox="0.00 0.00 576.00 40.03" xmlns="http://www.w3.org/2000/svg" xmlns:xlink="http://www.w3.org/1999/xlink">
<g id="graph0" class="graph" transform="scale(.4881 .4881) rotate(0) translate(4 78)">
<title>inheritance9bbaf0b9f8</title>
<polygon fill="#ffffff" stroke="transparent" points="-4,4 -4,-78 1176,-78 1176,4 -4,4"/>
<!-- pyGHDL.dom.DOMMixin -->
<g id="node1" class="node">
<title>pyGHDL.dom.DOMMixin</title>
<g id="a_node1"><a xlink:href="../pyGHDL.dom.html#pyGHDL.dom.DOMMixin" xlink:title="pyGHDL.dom.DOMMixin" target="_top">
<polygon fill="none" stroke="#000000" stroke-width=".5" points="881.5,-74 747.5,-74 747.5,-55 881.5,-55 881.5,-74"/>
<text text-anchor="middle" x="814.5" y="-62" font-family="Vera Sans, DejaVu Sans, Liberation Sans, Arial, Helvetica, sans" font-size="10.00" fill="#000000">pyGHDL.dom.DOMMixin</text>
</a>
</g>
</g>
<!-- pyGHDL.dom.Object.DeferredConstant -->
<g id="node2" class="node">
<title>pyGHDL.dom.Object.DeferredConstant</title>
<g id="a_node2"><a xlink:href="../pyGHDL/pyGHDL.dom.Object.html#pyGHDL.dom.Object.DeferredConstant" xlink:title="pyGHDL.dom.Object.DeferredConstant" target="_top">
<polygon fill="none" stroke="#000000" stroke-width=".5" points="1172,-55 967,-55 967,-36 1172,-36 1172,-55"/>
<text text-anchor="middle" x="1069.5" y="-43" font-family="Vera Sans, DejaVu Sans, Liberation Sans, Arial, Helvetica, sans" font-size="10.00" fill="#000000">pyGHDL.dom.Object.DeferredConstant</text>
</a>
</g>
</g>
<!-- pyGHDL.dom.DOMMixin&#45;&gt;pyGHDL.dom.Object.DeferredConstant -->
<g id="edge2" class="edge">
<title>pyGHDL.dom.DOMMixin&#45;&gt;pyGHDL.dom.Object.DeferredConstant</title>
<path fill="none" stroke="#000000" stroke-width=".5" d="M881.8318,-59.4831C906.2801,-57.6615 934.5581,-55.5545 961.6269,-53.5376"/>
<polygon fill="#000000" stroke="#000000" stroke-width=".5" points="961.8099,-55.2789 966.666,-53.1621 961.5497,-51.7886 961.8099,-55.2789"/>
</g>
<!-- pyVHDLModel.VHDLModel.DeferredConstant -->
<g id="node3" class="node">
<title>pyVHDLModel.VHDLModel.DeferredConstant</title>
<polygon fill="none" stroke="#000000" stroke-width=".5" points="931,-37 698,-37 698,-18 931,-18 931,-37"/>
<text text-anchor="middle" x="814.5" y="-25" font-family="Vera Sans, DejaVu Sans, Liberation Sans, Arial, Helvetica, sans" font-size="10.00" fill="#000000">pyVHDLModel.VHDLModel.DeferredConstant</text>
</g>
<!-- pyVHDLModel.VHDLModel.DeferredConstant&#45;&gt;pyGHDL.dom.Object.DeferredConstant -->
<g id="edge1" class="edge">
<title>pyVHDLModel.VHDLModel.DeferredConstant&#45;&gt;pyGHDL.dom.Object.DeferredConstant</title>
<path fill="none" stroke="#000000" stroke-width=".5" d="M931.1791,-35.7362C941.3415,-36.4535 951.5964,-37.1774 961.6828,-37.8894"/>
<polygon fill="#000000" stroke="#000000" stroke-width=".5" points="961.8298,-39.654 966.9406,-38.2605 962.0763,-36.1627 961.8298,-39.654"/>
</g>
<!-- pyVHDLModel.VHDLModel.BaseConstant -->
<g id="node4" class="node">
<title>pyVHDLModel.VHDLModel.BaseConstant</title>
<polygon fill="none" stroke="#000000" stroke-width=".5" points="662,-37 447,-37 447,-18 662,-18 662,-37"/>
<text text-anchor="middle" x="554.5" y="-25" font-family="Vera Sans, DejaVu Sans, Liberation Sans, Arial, Helvetica, sans" font-size="10.00" fill="#000000">pyVHDLModel.VHDLModel.BaseConstant</text>
</g>
<!-- pyVHDLModel.VHDLModel.BaseConstant&#45;&gt;pyVHDLModel.VHDLModel.DeferredConstant -->
<g id="edge4" class="edge">
<title>pyVHDLModel.VHDLModel.BaseConstant&#45;&gt;pyVHDLModel.VHDLModel.DeferredConstant</title>
<path fill="none" stroke="#000000" stroke-width=".5" d="M662.1288,-27.5C672.2135,-27.5 682.4835,-27.5 692.6859,-27.5"/>
<polygon fill="#000000" stroke="#000000" stroke-width=".5" points="692.6879,-29.2501 697.6879,-27.5 692.6879,-25.7501 692.6879,-29.2501"/>
</g>
<!-- pyVHDLModel.VHDLModel.Obj -->
<g id="node5" class="node">
<title>pyVHDLModel.VHDLModel.Obj</title>
<polygon fill="none" stroke="#000000" stroke-width=".5" points="411,-37 247,-37 247,-18 411,-18 411,-37"/>
<text text-anchor="middle" x="329" y="-25" font-family="Vera Sans, DejaVu Sans, Liberation Sans, Arial, Helvetica, sans" font-size="10.00" fill="#000000">pyVHDLModel.VHDLModel.Obj</text>
</g>
<!-- pyVHDLModel.VHDLModel.Obj&#45;&gt;pyVHDLModel.VHDLModel.BaseConstant -->
<g id="edge3" class="edge">
<title>pyVHDLModel.VHDLModel.Obj&#45;&gt;pyVHDLModel.VHDLModel.BaseConstant</title>
<path fill="none" stroke="#000000" stroke-width=".5" d="M411.0486,-27.5C421.0049,-27.5 431.307,-27.5 441.6106,-27.5"/>
<polygon fill="#000000" stroke="#000000" stroke-width=".5" points="441.6674,-29.2501 446.6673,-27.5 441.6673,-25.7501 441.6674,-29.2501"/>
</g>
<!-- pyVHDLModel.VHDLModel.ModelEntity -->
<g id="node6" class="node">
<title>pyVHDLModel.VHDLModel.ModelEntity</title>
<g id="a_node6"><a xlink:title="``ModelEntity`` is the base class for all classes in the VHDL language model,">
<polygon fill="none" stroke="#000000" stroke-width=".5" points="208,-56 3,-56 3,-37 208,-37 208,-56"/>
<text text-anchor="middle" x="105.5" y="-44" font-family="Vera Sans, DejaVu Sans, Liberation Sans, Arial, Helvetica, sans" font-size="10.00" fill="#000000">pyVHDLModel.VHDLModel.ModelEntity</text>
</a>
</g>
</g>
<!-- pyVHDLModel.VHDLModel.ModelEntity&#45;&gt;pyVHDLModel.VHDLModel.Obj -->
<g id="edge5" class="edge">
<title>pyVHDLModel.VHDLModel.ModelEntity&#45;&gt;pyVHDLModel.VHDLModel.Obj</title>
<path fill="none" stroke="#000000" stroke-width=".5" d="M208.0921,-37.7785C219.3372,-36.8226 230.7068,-35.856 241.7413,-34.918"/>
<polygon fill="#000000" stroke="#000000" stroke-width=".5" points="241.9522,-36.6564 246.786,-34.4891 241.6557,-33.169 241.9522,-36.6564"/>
</g>
<!-- pyVHDLModel.VHDLModel.NamedEntity -->
<g id="node7" class="node">
<title>pyVHDLModel.VHDLModel.NamedEntity</title>
<g id="a_node7"><a xlink:title="A ``NamedEntity`` is a mixin class for all VHDL entities that have identifiers.">
<polygon fill="none" stroke="#000000" stroke-width=".5" points="211,-19 0,-19 0,0 211,0 211,-19"/>
<text text-anchor="middle" x="105.5" y="-7" font-family="Vera Sans, DejaVu Sans, Liberation Sans, Arial, Helvetica, sans" font-size="10.00" fill="#000000">pyVHDLModel.VHDLModel.NamedEntity</text>
</a>
</g>
</g>
<!-- pyVHDLModel.VHDLModel.NamedEntity&#45;&gt;pyVHDLModel.VHDLModel.Obj -->
<g id="edge6" class="edge">
<title>pyVHDLModel.VHDLModel.NamedEntity&#45;&gt;pyVHDLModel.VHDLModel.Obj</title>
<path fill="none" stroke="#000000" stroke-width=".5" d="M211.0324,-17.9993C221.2346,-18.8209 231.5062,-19.6482 241.5056,-20.4535"/>
<polygon fill="#000000" stroke="#000000" stroke-width=".5" points="241.5836,-22.2153 246.708,-20.8725 241.8646,-18.7266 241.5836,-22.2153"/>
</g>
</g>
</svg>
