<?xml version="1.0" encoding="UTF-8" standalone="no"?>
<!DOCTYPE svg PUBLIC "-//W3C//DTD SVG 1.1//EN"
 "http://www.w3.org/Graphics/SVG/1.1/DTD/svg11.dtd">
<!-- Generated by graphviz version 2.40.1 (20161225.0304)
 -->
<!-- Title: inheritancece7fd6dd88 Pages: 1 -->
<svg width="576pt" height="19pt"
 viewBox="0.00 0.00 576.00 18.77" xmlns="http://www.w3.org/2000/svg" xmlns:xlink="http://www.w3.org/1999/xlink">
<g id="graph0" class="graph" transform="scale(.2933 .2933) rotate(0) translate(4 60)">
<title>inheritancece7fd6dd88</title>
<polygon fill="#ffffff" stroke="transparent" points="-4,4 -4,-60 1960,-60 1960,4 -4,4"/>
<!-- pyGHDL.dom.DOMMixin -->
<g id="node1" class="node">
<title>pyGHDL.dom.DOMMixin</title>
<g id="a_node1"><a xlink:href="../pyGHDL.dom.html#pyGHDL.dom.DOMMixin" xlink:title="pyGHDL.dom.DOMMixin" target="_top">
<polygon fill="none" stroke="#000000" stroke-width=".5" points="1586,-56 1452,-56 1452,-37 1586,-37 1586,-56"/>
<text text-anchor="middle" x="1519" y="-44" font-family="Vera Sans, DejaVu Sans, Liberation Sans, Arial, Helvetica, sans" font-size="10.00" fill="#000000">pyGHDL.dom.DOMMixin</text>
</a>
</g>
</g>
<!-- pyGHDL.dom.Expression.MatchingEqualExpression -->
<g id="node2" class="node">
<title>pyGHDL.dom.Expression.MatchingEqualExpression</title>
<g id="a_node2"><a xlink:href="../pyGHDL/pyGHDL.dom.Expression.html#pyGHDL.dom.Expression.MatchingEqualExpression" xlink:title="pyGHDL.dom.Expression.MatchingEqualExpression" target="_top">
<polygon fill="none" stroke="#000000" stroke-width=".5" points="1956,-37 1691,-37 1691,-18 1956,-18 1956,-37"/>
<text text-anchor="middle" x="1823.5" y="-25" font-family="Vera Sans, DejaVu Sans, Liberation Sans, Arial, Helvetica, sans" font-size="10.00" fill="#000000">pyGHDL.dom.Expression.MatchingEqualExpression</text>
</a>
</g>
</g>
<!-- pyGHDL.dom.DOMMixin&#45;&gt;pyGHDL.dom.Expression.MatchingEqualExpression -->
<g id="edge2" class="edge">
<title>pyGHDL.dom.DOMMixin&#45;&gt;pyGHDL.dom.Expression.MatchingEqualExpression</title>
<path fill="none" stroke="#000000" stroke-width=".5" d="M1586.2008,-42.3068C1615.5806,-40.4736 1651.1817,-38.2522 1685.7736,-36.0938"/>
<polygon fill="#000000" stroke="#000000" stroke-width=".5" points="1685.9879,-37.8339 1690.8692,-35.7758 1685.7699,-34.3407 1685.9879,-37.8339"/>
</g>
<!-- pyVHDLModel.VHDLModel.MatchingEqualExpression -->
<g id="node3" class="node">
<title>pyVHDLModel.VHDLModel.MatchingEqualExpression</title>
<polygon fill="none" stroke="#000000" stroke-width=".5" points="1655,-19 1383,-19 1383,0 1655,0 1655,-19"/>
<text text-anchor="middle" x="1519" y="-7" font-family="Vera Sans, DejaVu Sans, Liberation Sans, Arial, Helvetica, sans" font-size="10.00" fill="#000000">pyVHDLModel.VHDLModel.MatchingEqualExpression</text>
</g>
<!-- pyVHDLModel.VHDLModel.MatchingEqualExpression&#45;&gt;pyGHDL.dom.Expression.MatchingEqualExpression -->
<g id="edge1" class="edge">
<title>pyVHDLModel.VHDLModel.MatchingEqualExpression&#45;&gt;pyGHDL.dom.Expression.MatchingEqualExpression</title>
<path fill="none" stroke="#000000" stroke-width=".5" d="M1655.2188,-17.5523C1665.4249,-18.1557 1675.7282,-18.7647 1685.9424,-19.3685"/>
<polygon fill="#000000" stroke="#000000" stroke-width=".5" points="1685.8541,-21.1163 1690.9487,-19.6645 1686.0607,-17.6224 1685.8541,-21.1163"/>
</g>
<!-- pyVHDLModel.VHDLModel.BaseExpression -->
<g id="node4" class="node">
<title>pyVHDLModel.VHDLModel.BaseExpression</title>
<g id="a_node4"><a xlink:title="A ``BaseExpression`` is a base&#45;class for all expressions.">
<polygon fill="none" stroke="#000000" stroke-width=".5" points="465,-19 241,-19 241,0 465,0 465,-19"/>
<text text-anchor="middle" x="353" y="-7" font-family="Vera Sans, DejaVu Sans, Liberation Sans, Arial, Helvetica, sans" font-size="10.00" fill="#000000">pyVHDLModel.VHDLModel.BaseExpression</text>
</a>
</g>
</g>
<!-- pyVHDLModel.VHDLModel.BinaryExpression -->
<g id="node6" class="node">
<title>pyVHDLModel.VHDLModel.BinaryExpression</title>
<g id="a_node6"><a xlink:title="A ``BinaryExpression`` is a base&#45;class for all binary expressions.">
<polygon fill="none" stroke="#000000" stroke-width=".5" points="733,-19 501,-19 501,0 733,0 733,-19"/>
<text text-anchor="middle" x="617" y="-7" font-family="Vera Sans, DejaVu Sans, Liberation Sans, Arial, Helvetica, sans" font-size="10.00" fill="#000000">pyVHDLModel.VHDLModel.BinaryExpression</text>
</a>
</g>
</g>
<!-- pyVHDLModel.VHDLModel.BaseExpression&#45;&gt;pyVHDLModel.VHDLModel.BinaryExpression -->
<g id="edge4" class="edge">
<title>pyVHDLModel.VHDLModel.BaseExpression&#45;&gt;pyVHDLModel.VHDLModel.BinaryExpression</title>
<path fill="none" stroke="#000000" stroke-width=".5" d="M465.3426,-9.5C475.3813,-9.5 485.5751,-9.5 495.6849,-9.5"/>
<polygon fill="#000000" stroke="#000000" stroke-width=".5" points="495.9627,-11.2501 500.9627,-9.5 495.9626,-7.7501 495.9627,-11.2501"/>
</g>
<!-- pyVHDLModel.VHDLModel.ModelEntity -->
<g id="node5" class="node">
<title>pyVHDLModel.VHDLModel.ModelEntity</title>
<g id="a_node5"><a xlink:title="``ModelEntity`` is the base class for all classes in the VHDL language model,">
<polygon fill="none" stroke="#000000" stroke-width=".5" points="205,-19 0,-19 0,0 205,0 205,-19"/>
<text text-anchor="middle" x="102.5" y="-7" font-family="Vera Sans, DejaVu Sans, Liberation Sans, Arial, Helvetica, sans" font-size="10.00" fill="#000000">pyVHDLModel.VHDLModel.ModelEntity</text>
</a>
</g>
</g>
<!-- pyVHDLModel.VHDLModel.ModelEntity&#45;&gt;pyVHDLModel.VHDLModel.BaseExpression -->
<g id="edge3" class="edge">
<title>pyVHDLModel.VHDLModel.ModelEntity&#45;&gt;pyVHDLModel.VHDLModel.BaseExpression</title>
<path fill="none" stroke="#000000" stroke-width=".5" d="M205.1107,-9.5C215.2127,-9.5 225.5179,-9.5 235.7516,-9.5"/>
<polygon fill="#000000" stroke="#000000" stroke-width=".5" points="235.7685,-11.2501 240.7685,-9.5 235.7684,-7.7501 235.7685,-11.2501"/>
</g>
<!-- pyVHDLModel.VHDLModel.RelationalExpression -->
<g id="node8" class="node">
<title>pyVHDLModel.VHDLModel.RelationalExpression</title>
<g id="a_node8"><a xlink:title="A ``RelationalExpression`` is a base&#45;class for all shifting expressions.">
<polygon fill="none" stroke="#000000" stroke-width=".5" points="1018,-19 769,-19 769,0 1018,0 1018,-19"/>
<text text-anchor="middle" x="893.5" y="-7" font-family="Vera Sans, DejaVu Sans, Liberation Sans, Arial, Helvetica, sans" font-size="10.00" fill="#000000">pyVHDLModel.VHDLModel.RelationalExpression</text>
</a>
</g>
</g>
<!-- pyVHDLModel.VHDLModel.BinaryExpression&#45;&gt;pyVHDLModel.VHDLModel.RelationalExpression -->
<g id="edge7" class="edge">
<title>pyVHDLModel.VHDLModel.BinaryExpression&#45;&gt;pyVHDLModel.VHDLModel.RelationalExpression</title>
<path fill="none" stroke="#000000" stroke-width=".5" d="M733.0591,-9.5C743.2195,-9.5 753.544,-9.5 763.8055,-9.5"/>
<polygon fill="#000000" stroke="#000000" stroke-width=".5" points="763.837,-11.2501 768.8369,-9.5 763.8369,-7.7501 763.837,-11.2501"/>
</g>
<!-- pyVHDLModel.VHDLModel.MatchingRelationalExpression -->
<g id="node7" class="node">
<title>pyVHDLModel.VHDLModel.MatchingRelationalExpression</title>
<polygon fill="none" stroke="#000000" stroke-width=".5" points="1347,-19 1054,-19 1054,0 1347,0 1347,-19"/>
<text text-anchor="middle" x="1200.5" y="-7" font-family="Vera Sans, DejaVu Sans, Liberation Sans, Arial, Helvetica, sans" font-size="10.00" fill="#000000">pyVHDLModel.VHDLModel.MatchingRelationalExpression</text>
</g>
<!-- pyVHDLModel.VHDLModel.MatchingRelationalExpression&#45;&gt;pyVHDLModel.VHDLModel.MatchingEqualExpression -->
<g id="edge5" class="edge">
<title>pyVHDLModel.VHDLModel.MatchingRelationalExpression&#45;&gt;pyVHDLModel.VHDLModel.MatchingEqualExpression</title>
<path fill="none" stroke="#000000" stroke-width=".5" d="M1347.1648,-9.5C1357.407,-9.5 1367.7191,-9.5 1377.9301,-9.5"/>
<polygon fill="#000000" stroke="#000000" stroke-width=".5" points="1377.934,-11.2501 1382.934,-9.5 1377.9339,-7.7501 1377.934,-11.2501"/>
</g>
<!-- pyVHDLModel.VHDLModel.RelationalExpression&#45;&gt;pyVHDLModel.VHDLModel.MatchingRelationalExpression -->
<g id="edge6" class="edge">
<title>pyVHDLModel.VHDLModel.RelationalExpression&#45;&gt;pyVHDLModel.VHDLModel.MatchingRelationalExpression</title>
<path fill="none" stroke="#000000" stroke-width=".5" d="M1018.3687,-9.5C1028.4262,-9.5 1038.6538,-9.5 1048.8704,-9.5"/>
<polygon fill="#000000" stroke="#000000" stroke-width=".5" points="1048.8841,-11.2501 1053.8841,-9.5 1048.8841,-7.7501 1048.8841,-11.2501"/>
</g>
</g>
</svg>
