<?xml version="1.0" encoding="UTF-8" standalone="no"?>
<!DOCTYPE svg PUBLIC "-//W3C//DTD SVG 1.1//EN"
 "http://www.w3.org/Graphics/SVG/1.1/DTD/svg11.dtd">
<!-- Generated by graphviz version 2.40.1 (20161225.0304)
 -->
<!-- Title: inheritanceb42b0e7bd0 Pages: 1 -->
<svg width="576pt" height="31pt"
 viewBox="0.00 0.00 576.00 31.24" xmlns="http://www.w3.org/2000/svg" xmlns:xlink="http://www.w3.org/1999/xlink">
<g id="graph0" class="graph" transform="scale(.4881 .4881) rotate(0) translate(4 60)">
<title>inheritanceb42b0e7bd0</title>
<polygon fill="#ffffff" stroke="transparent" points="-4,4 -4,-60 1176,-60 1176,4 -4,4"/>
<!-- pyGHDL.dom.DOMMixin -->
<g id="node1" class="node">
<title>pyGHDL.dom.DOMMixin</title>
<g id="a_node1"><a xlink:href="../pyGHDL.dom.html#pyGHDL.dom.DOMMixin" xlink:title="pyGHDL.dom.DOMMixin" target="_top">
<polygon fill="none" stroke="#000000" stroke-width=".5" points="894.5,-56 760.5,-56 760.5,-37 894.5,-37 894.5,-56"/>
<text text-anchor="middle" x="827.5" y="-44" font-family="Vera Sans, DejaVu Sans, Liberation Sans, Arial, Helvetica, sans" font-size="10.00" fill="#000000">pyGHDL.dom.DOMMixin</text>
</a>
</g>
</g>
<!-- pyGHDL.dom.Literal.CharacterLiteral -->
<g id="node2" class="node">
<title>pyGHDL.dom.Literal.CharacterLiteral</title>
<g id="a_node2"><a xlink:href="../pyGHDL/pyGHDL.dom.Literal.html#pyGHDL.dom.Literal.CharacterLiteral" xlink:title="pyGHDL.dom.Literal.CharacterLiteral" target="_top">
<polygon fill="none" stroke="#000000" stroke-width=".5" points="1172,-37 976,-37 976,-18 1172,-18 1172,-37"/>
<text text-anchor="middle" x="1074" y="-25" font-family="Vera Sans, DejaVu Sans, Liberation Sans, Arial, Helvetica, sans" font-size="10.00" fill="#000000">pyGHDL.dom.Literal.CharacterLiteral</text>
</a>
</g>
</g>
<!-- pyGHDL.dom.DOMMixin&#45;&gt;pyGHDL.dom.Literal.CharacterLiteral -->
<g id="edge2" class="edge">
<title>pyGHDL.dom.DOMMixin&#45;&gt;pyGHDL.dom.Literal.CharacterLiteral</title>
<path fill="none" stroke="#000000" stroke-width=".5" d="M894.5316,-41.3333C918.0549,-39.5201 945.0554,-37.4389 970.849,-35.4508"/>
<polygon fill="#000000" stroke="#000000" stroke-width=".5" points="971.1395,-37.1837 975.9902,-35.0545 970.8705,-33.694 971.1395,-37.1837"/>
</g>
<!-- pyVHDLModel.VHDLModel.CharacterLiteral -->
<g id="node3" class="node">
<title>pyVHDLModel.VHDLModel.CharacterLiteral</title>
<polygon fill="none" stroke="#000000" stroke-width=".5" points="940,-19 715,-19 715,0 940,0 940,-19"/>
<text text-anchor="middle" x="827.5" y="-7" font-family="Vera Sans, DejaVu Sans, Liberation Sans, Arial, Helvetica, sans" font-size="10.00" fill="#000000">pyVHDLModel.VHDLModel.CharacterLiteral</text>
</g>
<!-- pyVHDLModel.VHDLModel.CharacterLiteral&#45;&gt;pyGHDL.dom.Literal.CharacterLiteral -->
<g id="edge1" class="edge">
<title>pyVHDLModel.VHDLModel.CharacterLiteral&#45;&gt;pyGHDL.dom.Literal.CharacterLiteral</title>
<path fill="none" stroke="#000000" stroke-width=".5" d="M940.2898,-17.7362C950.4374,-18.4772 960.6802,-19.2251 970.7405,-19.9598"/>
<polygon fill="#000000" stroke="#000000" stroke-width=".5" points="970.8691,-21.7237 975.9833,-20.3426 971.124,-18.233 970.8691,-21.7237"/>
</g>
<!-- pyVHDLModel.VHDLModel.BaseExpression -->
<g id="node4" class="node">
<title>pyVHDLModel.VHDLModel.BaseExpression</title>
<g id="a_node4"><a xlink:title="A ``BaseExpression`` is a base&#45;class for all expressions.">
<polygon fill="none" stroke="#000000" stroke-width=".5" points="465,-19 241,-19 241,0 465,0 465,-19"/>
<text text-anchor="middle" x="353" y="-7" font-family="Vera Sans, DejaVu Sans, Liberation Sans, Arial, Helvetica, sans" font-size="10.00" fill="#000000">pyVHDLModel.VHDLModel.BaseExpression</text>
</a>
</g>
</g>
<!-- pyVHDLModel.VHDLModel.Literal -->
<g id="node6" class="node">
<title>pyVHDLModel.VHDLModel.Literal</title>
<g id="a_node6"><a xlink:title="A ``Literal`` is a base&#45;class for all literals.">
<polygon fill="none" stroke="#000000" stroke-width=".5" points="679,-19 501,-19 501,0 679,0 679,-19"/>
<text text-anchor="middle" x="590" y="-7" font-family="Vera Sans, DejaVu Sans, Liberation Sans, Arial, Helvetica, sans" font-size="10.00" fill="#000000">pyVHDLModel.VHDLModel.Literal</text>
</a>
</g>
</g>
<!-- pyVHDLModel.VHDLModel.BaseExpression&#45;&gt;pyVHDLModel.VHDLModel.Literal -->
<g id="edge5" class="edge">
<title>pyVHDLModel.VHDLModel.BaseExpression&#45;&gt;pyVHDLModel.VHDLModel.Literal</title>
<path fill="none" stroke="#000000" stroke-width=".5" d="M465.2536,-9.5C475.4419,-9.5 485.692,-9.5 495.7014,-9.5"/>
<polygon fill="#000000" stroke="#000000" stroke-width=".5" points="495.9123,-11.2501 500.9122,-9.5 495.9122,-7.7501 495.9123,-11.2501"/>
</g>
<!-- pyVHDLModel.VHDLModel.ModelEntity -->
<g id="node5" class="node">
<title>pyVHDLModel.VHDLModel.ModelEntity</title>
<g id="a_node5"><a xlink:title="``ModelEntity`` is the base class for all classes in the VHDL language model,">
<polygon fill="none" stroke="#000000" stroke-width=".5" points="205,-19 0,-19 0,0 205,0 205,-19"/>
<text text-anchor="middle" x="102.5" y="-7" font-family="Vera Sans, DejaVu Sans, Liberation Sans, Arial, Helvetica, sans" font-size="10.00" fill="#000000">pyVHDLModel.VHDLModel.ModelEntity</text>
</a>
</g>
</g>
<!-- pyVHDLModel.VHDLModel.ModelEntity&#45;&gt;pyVHDLModel.VHDLModel.BaseExpression -->
<g id="edge3" class="edge">
<title>pyVHDLModel.VHDLModel.ModelEntity&#45;&gt;pyVHDLModel.VHDLModel.BaseExpression</title>
<path fill="none" stroke="#000000" stroke-width=".5" d="M205.1107,-9.5C215.2127,-9.5 225.5179,-9.5 235.7516,-9.5"/>
<polygon fill="#000000" stroke="#000000" stroke-width=".5" points="235.7685,-11.2501 240.7685,-9.5 235.7684,-7.7501 235.7685,-11.2501"/>
</g>
<!-- pyVHDLModel.VHDLModel.Literal&#45;&gt;pyVHDLModel.VHDLModel.CharacterLiteral -->
<g id="edge4" class="edge">
<title>pyVHDLModel.VHDLModel.Literal&#45;&gt;pyVHDLModel.VHDLModel.CharacterLiteral</title>
<path fill="none" stroke="#000000" stroke-width=".5" d="M679.1119,-9.5C689.1791,-9.5 699.5499,-9.5 709.909,-9.5"/>
<polygon fill="#000000" stroke="#000000" stroke-width=".5" points="709.992,-11.2501 714.992,-9.5 709.9919,-7.7501 709.992,-11.2501"/>
</g>
</g>
</svg>
