<?xml version="1.0" encoding="UTF-8" standalone="no"?>
<!DOCTYPE svg PUBLIC "-//W3C//DTD SVG 1.1//EN"
 "http://www.w3.org/Graphics/SVG/1.1/DTD/svg11.dtd">
<!-- Generated by graphviz version 2.40.1 (20161225.0304)
 -->
<!-- Title: inheritance48c7bbe1d0 Pages: 1 -->
<svg width="576pt" height="29pt"
 viewBox="0.00 0.00 576.00 29.35" xmlns="http://www.w3.org/2000/svg" xmlns:xlink="http://www.w3.org/1999/xlink">
<g id="graph0" class="graph" transform="scale(.4586 .4586) rotate(0) translate(4 60)">
<title>inheritance48c7bbe1d0</title>
<polygon fill="#ffffff" stroke="transparent" points="-4,4 -4,-60 1252,-60 1252,4 -4,4"/>
<!-- pyGHDL.dom.DOMMixin -->
<g id="node1" class="node">
<title>pyGHDL.dom.DOMMixin</title>
<g id="a_node1"><a xlink:href="../pyGHDL.dom.html#pyGHDL.dom.DOMMixin" xlink:title="pyGHDL.dom.DOMMixin" target="_top">
<polygon fill="none" stroke="#000000" stroke-width=".5" points="916.5,-56 782.5,-56 782.5,-37 916.5,-37 916.5,-56"/>
<text text-anchor="middle" x="849.5" y="-44" font-family="Vera Sans, DejaVu Sans, Liberation Sans, Arial, Helvetica, sans" font-size="10.00" fill="#000000">pyGHDL.dom.DOMMixin</text>
</a>
</g>
</g>
<!-- pyGHDL.dom.Symbol.SimpleSubtypeSymbol -->
<g id="node2" class="node">
<title>pyGHDL.dom.Symbol.SimpleSubtypeSymbol</title>
<g id="a_node2"><a xlink:href="../pyGHDL/pyGHDL.dom.Symbol.html#pyGHDL.dom.Symbol.SimpleSubtypeSymbol" xlink:title="pyGHDL.dom.Symbol.SimpleSubtypeSymbol" target="_top">
<polygon fill="none" stroke="#000000" stroke-width=".5" points="1248,-37 1014,-37 1014,-18 1248,-18 1248,-37"/>
<text text-anchor="middle" x="1131" y="-25" font-family="Vera Sans, DejaVu Sans, Liberation Sans, Arial, Helvetica, sans" font-size="10.00" fill="#000000">pyGHDL.dom.Symbol.SimpleSubtypeSymbol</text>
</a>
</g>
</g>
<!-- pyGHDL.dom.DOMMixin&#45;&gt;pyGHDL.dom.Symbol.SimpleSubtypeSymbol -->
<g id="edge2" class="edge">
<title>pyGHDL.dom.DOMMixin&#45;&gt;pyGHDL.dom.Symbol.SimpleSubtypeSymbol</title>
<path fill="none" stroke="#000000" stroke-width=".5" d="M916.5686,-41.9732C944.1996,-40.1082 977.1065,-37.8871 1008.7447,-35.7517"/>
<polygon fill="#000000" stroke="#000000" stroke-width=".5" points="1008.9398,-37.4926 1013.8105,-35.4098 1008.704,-34.0005 1008.9398,-37.4926"/>
</g>
<!-- pyVHDLModel.VHDLModel.SimpleSubtypeSymbol -->
<g id="node3" class="node">
<title>pyVHDLModel.VHDLModel.SimpleSubtypeSymbol</title>
<polygon fill="none" stroke="#000000" stroke-width=".5" points="978,-19 721,-19 721,0 978,0 978,-19"/>
<text text-anchor="middle" x="849.5" y="-7" font-family="Vera Sans, DejaVu Sans, Liberation Sans, Arial, Helvetica, sans" font-size="10.00" fill="#000000">pyVHDLModel.VHDLModel.SimpleSubtypeSymbol</text>
</g>
<!-- pyVHDLModel.VHDLModel.SimpleSubtypeSymbol&#45;&gt;pyGHDL.dom.Symbol.SimpleSubtypeSymbol -->
<g id="edge1" class="edge">
<title>pyVHDLModel.VHDLModel.SimpleSubtypeSymbol&#45;&gt;pyGHDL.dom.Symbol.SimpleSubtypeSymbol</title>
<path fill="none" stroke="#000000" stroke-width=".5" d="M978.3045,-17.7362C988.4136,-18.3826 998.6054,-19.0343 1008.6694,-19.6778"/>
<polygon fill="#000000" stroke="#000000" stroke-width=".5" points="1008.818,-21.4408 1013.9195,-20.0135 1009.0414,-17.9479 1008.818,-21.4408"/>
</g>
<!-- pyVHDLModel.VHDLModel.ModelEntity -->
<g id="node4" class="node">
<title>pyVHDLModel.VHDLModel.ModelEntity</title>
<g id="a_node4"><a xlink:title="``ModelEntity`` is the base class for all classes in the VHDL language model,">
<polygon fill="none" stroke="#000000" stroke-width=".5" points="205,-19 0,-19 0,0 205,0 205,-19"/>
<text text-anchor="middle" x="102.5" y="-7" font-family="Vera Sans, DejaVu Sans, Liberation Sans, Arial, Helvetica, sans" font-size="10.00" fill="#000000">pyVHDLModel.VHDLModel.ModelEntity</text>
</a>
</g>
</g>
<!-- pyVHDLModel.VHDLModel.Symbol -->
<g id="node6" class="node">
<title>pyVHDLModel.VHDLModel.Symbol</title>
<polygon fill="none" stroke="#000000" stroke-width=".5" points="425,-19 241,-19 241,0 425,0 425,-19"/>
<text text-anchor="middle" x="333" y="-7" font-family="Vera Sans, DejaVu Sans, Liberation Sans, Arial, Helvetica, sans" font-size="10.00" fill="#000000">pyVHDLModel.VHDLModel.Symbol</text>
</g>
<!-- pyVHDLModel.VHDLModel.ModelEntity&#45;&gt;pyVHDLModel.VHDLModel.Symbol -->
<g id="edge5" class="edge">
<title>pyVHDLModel.VHDLModel.ModelEntity&#45;&gt;pyVHDLModel.VHDLModel.Symbol</title>
<path fill="none" stroke="#000000" stroke-width=".5" d="M205.2788,-9.5C215.3998,-9.5 225.6505,-9.5 235.7139,-9.5"/>
<polygon fill="#000000" stroke="#000000" stroke-width=".5" points="235.9577,-11.2501 240.9577,-9.5 235.9577,-7.7501 235.9577,-11.2501"/>
</g>
<!-- pyVHDLModel.VHDLModel.SubtypeSymbol -->
<g id="node5" class="node">
<title>pyVHDLModel.VHDLModel.SubtypeSymbol</title>
<polygon fill="none" stroke="#000000" stroke-width=".5" points="685,-19 461,-19 461,0 685,0 685,-19"/>
<text text-anchor="middle" x="573" y="-7" font-family="Vera Sans, DejaVu Sans, Liberation Sans, Arial, Helvetica, sans" font-size="10.00" fill="#000000">pyVHDLModel.VHDLModel.SubtypeSymbol</text>
</g>
<!-- pyVHDLModel.VHDLModel.SubtypeSymbol&#45;&gt;pyVHDLModel.VHDLModel.SimpleSubtypeSymbol -->
<g id="edge3" class="edge">
<title>pyVHDLModel.VHDLModel.SubtypeSymbol&#45;&gt;pyVHDLModel.VHDLModel.SimpleSubtypeSymbol</title>
<path fill="none" stroke="#000000" stroke-width=".5" d="M685.0645,-9.5C695.2276,-9.5 705.5866,-9.5 715.9109,-9.5"/>
<polygon fill="#000000" stroke="#000000" stroke-width=".5" points="715.9755,-11.2501 720.9754,-9.5 715.9754,-7.7501 715.9755,-11.2501"/>
</g>
<!-- pyVHDLModel.VHDLModel.Symbol&#45;&gt;pyVHDLModel.VHDLModel.SubtypeSymbol -->
<g id="edge4" class="edge">
<title>pyVHDLModel.VHDLModel.Symbol&#45;&gt;pyVHDLModel.VHDLModel.SubtypeSymbol</title>
<path fill="none" stroke="#000000" stroke-width=".5" d="M425.1039,-9.5C435.1007,-9.5 445.3711,-9.5 455.6159,-9.5"/>
<polygon fill="#000000" stroke="#000000" stroke-width=".5" points="455.6419,-11.2501 460.6419,-9.5 455.6418,-7.7501 455.6419,-11.2501"/>
</g>
</g>
</svg>
