<?xml version="1.0" encoding="UTF-8" standalone="no"?>
<!DOCTYPE svg PUBLIC "-//W3C//DTD SVG 1.1//EN"
 "http://www.w3.org/Graphics/SVG/1.1/DTD/svg11.dtd">
<!-- Generated by graphviz version 2.40.1 (20161225.0304)
 -->
<!-- Title: inheritance6f2f200687 Pages: 1 -->
<svg width="576pt" height="42pt"
 viewBox="0.00 0.00 576.00 41.77" xmlns="http://www.w3.org/2000/svg" xmlns:xlink="http://www.w3.org/1999/xlink">
<g id="graph0" class="graph" transform="scale(.4177 .4177) rotate(0) translate(4 96)">
<title>inheritance6f2f200687</title>
<polygon fill="#ffffff" stroke="transparent" points="-4,4 -4,-96 1375,-96 1375,4 -4,4"/>
<!-- pyGHDL.dom.DOMMixin -->
<g id="node1" class="node">
<title>pyGHDL.dom.DOMMixin</title>
<g id="a_node1"><a xlink:href="../pyGHDL.dom.html#pyGHDL.dom.DOMMixin" xlink:title="pyGHDL.dom.DOMMixin" target="_top">
<polygon fill="none" stroke="#000000" stroke-width=".5" points="986.5,-92 852.5,-92 852.5,-73 986.5,-73 986.5,-92"/>
<text text-anchor="middle" x="919.5" y="-80" font-family="Vera Sans, DejaVu Sans, Liberation Sans, Arial, Helvetica, sans" font-size="10.00" fill="#000000">pyGHDL.dom.DOMMixin</text>
</a>
</g>
</g>
<!-- pyGHDL.dom.InterfaceItem.GenericTypeInterfaceItem -->
<g id="node2" class="node">
<title>pyGHDL.dom.InterfaceItem.GenericTypeInterfaceItem</title>
<g id="a_node2"><a xlink:href="../pyGHDL/pyGHDL.dom.InterfaceItem.html#pyGHDL.dom.InterfaceItem.GenericTypeInterfaceItem" xlink:title="pyGHDL.dom.InterfaceItem.GenericTypeInterfaceItem" target="_top">
<polygon fill="none" stroke="#000000" stroke-width=".5" points="1371,-73 1092,-73 1092,-54 1371,-54 1371,-73"/>
<text text-anchor="middle" x="1231.5" y="-61" font-family="Vera Sans, DejaVu Sans, Liberation Sans, Arial, Helvetica, sans" font-size="10.00" fill="#000000">pyGHDL.dom.InterfaceItem.GenericTypeInterfaceItem</text>
</a>
</g>
</g>
<!-- pyGHDL.dom.DOMMixin&#45;&gt;pyGHDL.dom.InterfaceItem.GenericTypeInterfaceItem -->
<g id="edge2" class="edge">
<title>pyGHDL.dom.DOMMixin&#45;&gt;pyGHDL.dom.InterfaceItem.GenericTypeInterfaceItem</title>
<path fill="none" stroke="#000000" stroke-width=".5" d="M986.8152,-78.4007C1016.1829,-76.6123 1051.8297,-74.4415 1086.7236,-72.3165"/>
<polygon fill="#000000" stroke="#000000" stroke-width=".5" points="1086.9813,-74.0542 1091.8656,-72.0034 1086.7685,-70.5606 1086.9813,-74.0542"/>
</g>
<!-- pyVHDLModel.VHDLModel.GenericTypeInterfaceItem -->
<g id="node3" class="node">
<title>pyVHDLModel.VHDLModel.GenericTypeInterfaceItem</title>
<polygon fill="none" stroke="#000000" stroke-width=".5" points="1056,-55 783,-55 783,-36 1056,-36 1056,-55"/>
<text text-anchor="middle" x="919.5" y="-43" font-family="Vera Sans, DejaVu Sans, Liberation Sans, Arial, Helvetica, sans" font-size="10.00" fill="#000000">pyVHDLModel.VHDLModel.GenericTypeInterfaceItem</text>
</g>
<!-- pyVHDLModel.VHDLModel.GenericTypeInterfaceItem&#45;&gt;pyGHDL.dom.InterfaceItem.GenericTypeInterfaceItem -->
<g id="edge1" class="edge">
<title>pyVHDLModel.VHDLModel.GenericTypeInterfaceItem&#45;&gt;pyGHDL.dom.InterfaceItem.GenericTypeInterfaceItem</title>
<path fill="none" stroke="#000000" stroke-width=".5" d="M1056.3477,-53.3951C1066.3865,-53.9742 1076.5327,-54.5596 1086.6167,-55.1413"/>
<polygon fill="#000000" stroke="#000000" stroke-width=".5" points="1086.7909,-56.9042 1091.8834,-55.4452 1086.9925,-53.41 1086.7909,-56.9042"/>
</g>
<!-- pyVHDLModel.VHDLModel.BaseType -->
<g id="node4" class="node">
<title>pyVHDLModel.VHDLModel.BaseType</title>
<g id="a_node4"><a xlink:title="``BaseType`` is the base class of all type entities in this model.">
<polygon fill="none" stroke="#000000" stroke-width=".5" points="450.5,-37 256.5,-37 256.5,-18 450.5,-18 450.5,-37"/>
<text text-anchor="middle" x="353.5" y="-25" font-family="Vera Sans, DejaVu Sans, Liberation Sans, Arial, Helvetica, sans" font-size="10.00" fill="#000000">pyVHDLModel.VHDLModel.BaseType</text>
</a>
</g>
</g>
<!-- pyVHDLModel.VHDLModel.Type -->
<g id="node9" class="node">
<title>pyVHDLModel.VHDLModel.Type</title>
<polygon fill="none" stroke="#000000" stroke-width=".5" points="706.5,-37 536.5,-37 536.5,-18 706.5,-18 706.5,-37"/>
<text text-anchor="middle" x="621.5" y="-25" font-family="Vera Sans, DejaVu Sans, Liberation Sans, Arial, Helvetica, sans" font-size="10.00" fill="#000000">pyVHDLModel.VHDLModel.Type</text>
</g>
<!-- pyVHDLModel.VHDLModel.BaseType&#45;&gt;pyVHDLModel.VHDLModel.Type -->
<g id="edge8" class="edge">
<title>pyVHDLModel.VHDLModel.BaseType&#45;&gt;pyVHDLModel.VHDLModel.Type</title>
<path fill="none" stroke="#000000" stroke-width=".5" d="M450.6331,-27.5C476.8947,-27.5 505.2049,-27.5 531.0817,-27.5"/>
<polygon fill="#000000" stroke="#000000" stroke-width=".5" points="531.2234,-29.2501 536.2233,-27.5 531.2233,-25.7501 531.2234,-29.2501"/>
</g>
<!-- pyVHDLModel.VHDLModel.ModelEntity -->
<g id="node5" class="node">
<title>pyVHDLModel.VHDLModel.ModelEntity</title>
<g id="a_node5"><a xlink:title="``ModelEntity`` is the base class for all classes in the VHDL language model,">
<polygon fill="none" stroke="#000000" stroke-width=".5" points="208,-56 3,-56 3,-37 208,-37 208,-56"/>
<text text-anchor="middle" x="105.5" y="-44" font-family="Vera Sans, DejaVu Sans, Liberation Sans, Arial, Helvetica, sans" font-size="10.00" fill="#000000">pyVHDLModel.VHDLModel.ModelEntity</text>
</a>
</g>
</g>
<!-- pyVHDLModel.VHDLModel.ModelEntity&#45;&gt;pyVHDLModel.VHDLModel.BaseType -->
<g id="edge3" class="edge">
<title>pyVHDLModel.VHDLModel.ModelEntity&#45;&gt;pyVHDLModel.VHDLModel.BaseType</title>
<path fill="none" stroke="#000000" stroke-width=".5" d="M208.1613,-38.6348C222.4029,-37.5437 237.0316,-36.423 251.2654,-35.3325"/>
<polygon fill="#000000" stroke="#000000" stroke-width=".5" points="251.6384,-37.0591 256.4901,-34.9322 251.371,-33.5694 251.6384,-37.0591"/>
</g>
<!-- pyVHDLModel.VHDLModel.NamedEntity -->
<g id="node6" class="node">
<title>pyVHDLModel.VHDLModel.NamedEntity</title>
<g id="a_node6"><a xlink:title="A ``NamedEntity`` is a mixin class for all VHDL entities that have identifiers.">
<polygon fill="none" stroke="#000000" stroke-width=".5" points="211,-19 0,-19 0,0 211,0 211,-19"/>
<text text-anchor="middle" x="105.5" y="-7" font-family="Vera Sans, DejaVu Sans, Liberation Sans, Arial, Helvetica, sans" font-size="10.00" fill="#000000">pyVHDLModel.VHDLModel.NamedEntity</text>
</a>
</g>
</g>
<!-- pyVHDLModel.VHDLModel.NamedEntity&#45;&gt;pyVHDLModel.VHDLModel.BaseType -->
<g id="edge4" class="edge">
<title>pyVHDLModel.VHDLModel.NamedEntity&#45;&gt;pyVHDLModel.VHDLModel.BaseType</title>
<path fill="none" stroke="#000000" stroke-width=".5" d="M211.0339,-17.1597C224.3019,-18.1227 237.8583,-19.1067 251.0772,-20.0661"/>
<polygon fill="#000000" stroke="#000000" stroke-width=".5" points="251.2085,-21.8301 256.322,-20.4468 251.4619,-18.3393 251.2085,-21.8301"/>
</g>
<!-- pyVHDLModel.VHDLModel.GenericInterfaceItem -->
<g id="node7" class="node">
<title>pyVHDLModel.VHDLModel.GenericInterfaceItem</title>
<g id="a_node7"><a xlink:title="A ``GenericInterfaceItem`` is a mixin class for all generic interface items.">
<polygon fill="none" stroke="#000000" stroke-width=".5" points="747,-74 496,-74 496,-55 747,-55 747,-74"/>
<text text-anchor="middle" x="621.5" y="-62" font-family="Vera Sans, DejaVu Sans, Liberation Sans, Arial, Helvetica, sans" font-size="10.00" fill="#000000">pyVHDLModel.VHDLModel.GenericInterfaceItem</text>
</a>
</g>
</g>
<!-- pyVHDLModel.VHDLModel.GenericInterfaceItem&#45;&gt;pyVHDLModel.VHDLModel.GenericTypeInterfaceItem -->
<g id="edge7" class="edge">
<title>pyVHDLModel.VHDLModel.GenericInterfaceItem&#45;&gt;pyVHDLModel.VHDLModel.GenericTypeInterfaceItem</title>
<path fill="none" stroke="#000000" stroke-width=".5" d="M747.0151,-56.4974C757.1307,-55.8524 767.3944,-55.198 777.6133,-54.5465"/>
<polygon fill="#000000" stroke="#000000" stroke-width=".5" points="777.747,-56.2916 782.6255,-54.2269 777.5242,-52.7987 777.747,-56.2916"/>
</g>
<!-- pyVHDLModel.VHDLModel.InterfaceItem -->
<g id="node8" class="node">
<title>pyVHDLModel.VHDLModel.InterfaceItem</title>
<g id="a_node8"><a xlink:title="An ``InterfaceItem`` is a base&#45;class for all mixin&#45;classes for all interface">
<polygon fill="none" stroke="#000000" stroke-width=".5" points="460,-74 247,-74 247,-55 460,-55 460,-74"/>
<text text-anchor="middle" x="353.5" y="-62" font-family="Vera Sans, DejaVu Sans, Liberation Sans, Arial, Helvetica, sans" font-size="10.00" fill="#000000">pyVHDLModel.VHDLModel.InterfaceItem</text>
</a>
</g>
</g>
<!-- pyVHDLModel.VHDLModel.InterfaceItem&#45;&gt;pyVHDLModel.VHDLModel.GenericInterfaceItem -->
<g id="edge5" class="edge">
<title>pyVHDLModel.VHDLModel.InterfaceItem&#45;&gt;pyVHDLModel.VHDLModel.GenericInterfaceItem</title>
<path fill="none" stroke="#000000" stroke-width=".5" d="M460.1908,-64.5C470.2262,-64.5 480.475,-64.5 490.699,-64.5"/>
<polygon fill="#000000" stroke="#000000" stroke-width=".5" points="490.7151,-66.2501 495.715,-64.5 490.715,-62.7501 490.7151,-66.2501"/>
</g>
<!-- pyVHDLModel.VHDLModel.Type&#45;&gt;pyVHDLModel.VHDLModel.GenericTypeInterfaceItem -->
<g id="edge6" class="edge">
<title>pyVHDLModel.VHDLModel.Type&#45;&gt;pyVHDLModel.VHDLModel.GenericTypeInterfaceItem</title>
<path fill="none" stroke="#000000" stroke-width=".5" d="M706.8948,-32.6581C729.0532,-33.9965 753.522,-35.4745 777.7354,-36.937"/>
<polygon fill="#000000" stroke="#000000" stroke-width=".5" points="777.801,-38.6941 782.8975,-37.2488 778.0121,-35.2005 777.801,-38.6941"/>
</g>
</g>
</svg>
