<?xml version="1.0" encoding="UTF-8" standalone="no"?>
<!DOCTYPE svg PUBLIC "-//W3C//DTD SVG 1.1//EN"
 "http://www.w3.org/Graphics/SVG/1.1/DTD/svg11.dtd">
<!-- Generated by graphviz version 2.40.1 (20161225.0304)
 -->
<!-- Title: inheritance2810648a81 Pages: 1 -->
<svg width="576pt" height="35pt"
 viewBox="0.00 0.00 576.00 35.25" xmlns="http://www.w3.org/2000/svg" xmlns:xlink="http://www.w3.org/1999/xlink">
<g id="graph0" class="graph" transform="scale(.3525 .3525) rotate(0) translate(4 96)">
<title>inheritance2810648a81</title>
<polygon fill="#ffffff" stroke="transparent" points="-4,4 -4,-96 1630,-96 1630,4 -4,4"/>
<!-- pyGHDL.dom.DOMMixin -->
<g id="node1" class="node">
<title>pyGHDL.dom.DOMMixin</title>
<g id="a_node1"><a xlink:href="../pyGHDL.dom.html#pyGHDL.dom.DOMMixin" xlink:title="pyGHDL.dom.DOMMixin" target="_top">
<polygon fill="none" stroke="#000000" stroke-width=".5" points="1379,-92 1245,-92 1245,-73 1379,-73 1379,-92"/>
<text text-anchor="middle" x="1312" y="-80" font-family="Vera Sans, DejaVu Sans, Liberation Sans, Arial, Helvetica, sans" font-size="10.00" fill="#000000">pyGHDL.dom.DOMMixin</text>
</a>
</g>
</g>
<!-- pyGHDL.dom.Type.PhysicalType -->
<g id="node2" class="node">
<title>pyGHDL.dom.Type.PhysicalType</title>
<g id="a_node2"><a xlink:href="../pyGHDL/pyGHDL.dom.Type.html#pyGHDL.dom.Type.PhysicalType" xlink:title="pyGHDL.dom.Type.PhysicalType" target="_top">
<polygon fill="none" stroke="#000000" stroke-width=".5" points="1626,-73 1453,-73 1453,-54 1626,-54 1626,-73"/>
<text text-anchor="middle" x="1539.5" y="-61" font-family="Vera Sans, DejaVu Sans, Liberation Sans, Arial, Helvetica, sans" font-size="10.00" fill="#000000">pyGHDL.dom.Type.PhysicalType</text>
</a>
</g>
</g>
<!-- pyGHDL.dom.DOMMixin&#45;&gt;pyGHDL.dom.Type.PhysicalType -->
<g id="edge2" class="edge">
<title>pyGHDL.dom.DOMMixin&#45;&gt;pyGHDL.dom.Type.PhysicalType</title>
<path fill="none" stroke="#000000" stroke-width=".5" d="M1379.027,-76.9021C1400.4731,-75.111 1424.601,-73.096 1447.5063,-71.183"/>
<polygon fill="#000000" stroke="#000000" stroke-width=".5" points="1447.8437,-72.911 1452.6806,-70.7508 1447.5523,-69.4231 1447.8437,-72.911"/>
</g>
<!-- pyVHDLModel.VHDLModel.PhysicalType -->
<g id="node3" class="node">
<title>pyVHDLModel.VHDLModel.PhysicalType</title>
<polygon fill="none" stroke="#000000" stroke-width=".5" points="1417,-55 1207,-55 1207,-36 1417,-36 1417,-55"/>
<text text-anchor="middle" x="1312" y="-43" font-family="Vera Sans, DejaVu Sans, Liberation Sans, Arial, Helvetica, sans" font-size="10.00" fill="#000000">pyVHDLModel.VHDLModel.PhysicalType</text>
</g>
<!-- pyVHDLModel.VHDLModel.PhysicalType&#45;&gt;pyGHDL.dom.Type.PhysicalType -->
<g id="edge1" class="edge">
<title>pyVHDLModel.VHDLModel.PhysicalType&#45;&gt;pyGHDL.dom.Type.PhysicalType</title>
<path fill="none" stroke="#000000" stroke-width=".5" d="M1417.0929,-53.815C1427.3046,-54.623 1437.6098,-55.4384 1447.6769,-56.2349"/>
<polygon fill="#000000" stroke="#000000" stroke-width=".5" points="1447.7954,-57.9996 1452.9178,-56.6495 1448.0715,-54.5105 1447.7954,-57.9996"/>
</g>
<!-- pyVHDLModel.VHDLModel.BaseType -->
<g id="node4" class="node">
<title>pyVHDLModel.VHDLModel.BaseType</title>
<g id="a_node4"><a xlink:title="``BaseType`` is the base class of all type entities in this model.">
<polygon fill="none" stroke="#000000" stroke-width=".5" points="441,-37 247,-37 247,-18 441,-18 441,-37"/>
<text text-anchor="middle" x="344" y="-25" font-family="Vera Sans, DejaVu Sans, Liberation Sans, Arial, Helvetica, sans" font-size="10.00" fill="#000000">pyVHDLModel.VHDLModel.BaseType</text>
</a>
</g>
</g>
<!-- pyVHDLModel.VHDLModel.FullType -->
<g id="node7" class="node">
<title>pyVHDLModel.VHDLModel.FullType</title>
<polygon fill="none" stroke="#000000" stroke-width=".5" points="663,-37 477,-37 477,-18 663,-18 663,-37"/>
<text text-anchor="middle" x="570" y="-25" font-family="Vera Sans, DejaVu Sans, Liberation Sans, Arial, Helvetica, sans" font-size="10.00" fill="#000000">pyVHDLModel.VHDLModel.FullType</text>
</g>
<!-- pyVHDLModel.VHDLModel.BaseType&#45;&gt;pyVHDLModel.VHDLModel.FullType -->
<g id="edge5" class="edge">
<title>pyVHDLModel.VHDLModel.BaseType&#45;&gt;pyVHDLModel.VHDLModel.FullType</title>
<path fill="none" stroke="#000000" stroke-width=".5" d="M441.1559,-27.5C451.2418,-27.5 461.4995,-27.5 471.599,-27.5"/>
<polygon fill="#000000" stroke="#000000" stroke-width=".5" points="471.8642,-29.2501 476.8642,-27.5 471.8641,-25.7501 471.8642,-29.2501"/>
</g>
<!-- pyVHDLModel.VHDLModel.ModelEntity -->
<g id="node5" class="node">
<title>pyVHDLModel.VHDLModel.ModelEntity</title>
<g id="a_node5"><a xlink:title="``ModelEntity`` is the base class for all classes in the VHDL language model,">
<polygon fill="none" stroke="#000000" stroke-width=".5" points="208,-56 3,-56 3,-37 208,-37 208,-56"/>
<text text-anchor="middle" x="105.5" y="-44" font-family="Vera Sans, DejaVu Sans, Liberation Sans, Arial, Helvetica, sans" font-size="10.00" fill="#000000">pyVHDLModel.VHDLModel.ModelEntity</text>
</a>
</g>
</g>
<!-- pyVHDLModel.VHDLModel.ModelEntity&#45;&gt;pyVHDLModel.VHDLModel.BaseType -->
<g id="edge3" class="edge">
<title>pyVHDLModel.VHDLModel.ModelEntity&#45;&gt;pyVHDLModel.VHDLModel.BaseType</title>
<path fill="none" stroke="#000000" stroke-width=".5" d="M208.0296,-38.332C219.1971,-37.4424 230.5642,-36.5368 241.7286,-35.6474"/>
<polygon fill="#000000" stroke="#000000" stroke-width=".5" points="241.9972,-37.3816 246.8424,-35.24 241.7192,-33.8927 241.9972,-37.3816"/>
</g>
<!-- pyVHDLModel.VHDLModel.NamedEntity -->
<g id="node6" class="node">
<title>pyVHDLModel.VHDLModel.NamedEntity</title>
<g id="a_node6"><a xlink:title="A ``NamedEntity`` is a mixin class for all VHDL entities that have identifiers.">
<polygon fill="none" stroke="#000000" stroke-width=".5" points="211,-19 0,-19 0,0 211,0 211,-19"/>
<text text-anchor="middle" x="105.5" y="-7" font-family="Vera Sans, DejaVu Sans, Liberation Sans, Arial, Helvetica, sans" font-size="10.00" fill="#000000">pyVHDLModel.VHDLModel.NamedEntity</text>
</a>
</g>
</g>
<!-- pyVHDLModel.VHDLModel.NamedEntity&#45;&gt;pyVHDLModel.VHDLModel.BaseType -->
<g id="edge4" class="edge">
<title>pyVHDLModel.VHDLModel.NamedEntity&#45;&gt;pyVHDLModel.VHDLModel.BaseType</title>
<path fill="none" stroke="#000000" stroke-width=".5" d="M211.1511,-17.4737C221.2309,-18.2344 231.4421,-19.0051 241.4914,-19.7635"/>
<polygon fill="#000000" stroke="#000000" stroke-width=".5" points="241.6127,-21.5275 246.7302,-20.1589 241.8761,-18.0375 241.6127,-21.5275"/>
</g>
<!-- pyVHDLModel.VHDLModel.ScalarType -->
<g id="node10" class="node">
<title>pyVHDLModel.VHDLModel.ScalarType</title>
<g id="a_node10"><a xlink:title="A ``ScalarType`` is a base&#45;class for all scalar types.">
<polygon fill="none" stroke="#000000" stroke-width=".5" points="899,-37 699,-37 699,-18 899,-18 899,-37"/>
<text text-anchor="middle" x="799" y="-25" font-family="Vera Sans, DejaVu Sans, Liberation Sans, Arial, Helvetica, sans" font-size="10.00" fill="#000000">pyVHDLModel.VHDLModel.ScalarType</text>
</a>
</g>
</g>
<!-- pyVHDLModel.VHDLModel.FullType&#45;&gt;pyVHDLModel.VHDLModel.ScalarType -->
<g id="edge9" class="edge">
<title>pyVHDLModel.VHDLModel.FullType&#45;&gt;pyVHDLModel.VHDLModel.ScalarType</title>
<path fill="none" stroke="#000000" stroke-width=".5" d="M663.1431,-27.5C673.2525,-27.5 683.5921,-27.5 693.8316,-27.5"/>
<polygon fill="#000000" stroke="#000000" stroke-width=".5" points="693.8488,-29.2501 698.8488,-27.5 693.8487,-25.7501 693.8488,-29.2501"/>
</g>
<!-- pyVHDLModel.VHDLModel.NumericType -->
<g id="node8" class="node">
<title>pyVHDLModel.VHDLModel.NumericType</title>
<g id="a_node8"><a xlink:title="A ``NumericType`` is a mixin class for all numeric types.">
<polygon fill="none" stroke="#000000" stroke-width=".5" points="1158.5,-74 947.5,-74 947.5,-55 1158.5,-55 1158.5,-74"/>
<text text-anchor="middle" x="1053" y="-62" font-family="Vera Sans, DejaVu Sans, Liberation Sans, Arial, Helvetica, sans" font-size="10.00" fill="#000000">pyVHDLModel.VHDLModel.NumericType</text>
</a>
</g>
</g>
<!-- pyVHDLModel.VHDLModel.NumericType&#45;&gt;pyVHDLModel.VHDLModel.PhysicalType -->
<g id="edge7" class="edge">
<title>pyVHDLModel.VHDLModel.NumericType&#45;&gt;pyVHDLModel.VHDLModel.PhysicalType</title>
<path fill="none" stroke="#000000" stroke-width=".5" d="M1158.7188,-56.7446C1172.7959,-55.7119 1187.2614,-54.6507 1201.4185,-53.6122"/>
<polygon fill="#000000" stroke="#000000" stroke-width=".5" points="1201.7605,-55.3419 1206.619,-53.2306 1201.5044,-51.8512 1201.7605,-55.3419"/>
</g>
<!-- pyVHDLModel.VHDLModel.RangedScalarType -->
<g id="node9" class="node">
<title>pyVHDLModel.VHDLModel.RangedScalarType</title>
<g id="a_node9"><a xlink:title="A ``RangedScalarType`` is a base&#45;class for all scalar types with a range.">
<polygon fill="none" stroke="#000000" stroke-width=".5" points="1171,-37 935,-37 935,-18 1171,-18 1171,-37"/>
<text text-anchor="middle" x="1053" y="-25" font-family="Vera Sans, DejaVu Sans, Liberation Sans, Arial, Helvetica, sans" font-size="10.00" fill="#000000">pyVHDLModel.VHDLModel.RangedScalarType</text>
</a>
</g>
</g>
<!-- pyVHDLModel.VHDLModel.RangedScalarType&#45;&gt;pyVHDLModel.VHDLModel.PhysicalType -->
<g id="edge6" class="edge">
<title>pyVHDLModel.VHDLModel.RangedScalarType&#45;&gt;pyVHDLModel.VHDLModel.PhysicalType</title>
<path fill="none" stroke="#000000" stroke-width=".5" d="M1171.1312,-35.7099C1181.2426,-36.4126 1191.4472,-37.1218 1201.4958,-37.8202"/>
<polygon fill="#000000" stroke="#000000" stroke-width=".5" points="1201.6257,-39.5833 1206.735,-38.1843 1201.8684,-36.0918 1201.6257,-39.5833"/>
</g>
<!-- pyVHDLModel.VHDLModel.ScalarType&#45;&gt;pyVHDLModel.VHDLModel.RangedScalarType -->
<g id="edge8" class="edge">
<title>pyVHDLModel.VHDLModel.ScalarType&#45;&gt;pyVHDLModel.VHDLModel.RangedScalarType</title>
<path fill="none" stroke="#000000" stroke-width=".5" d="M899.0229,-27.5C909.1637,-27.5 919.5451,-27.5 929.892,-27.5"/>
<polygon fill="#000000" stroke="#000000" stroke-width=".5" points="929.9674,-29.2501 934.9674,-27.5 929.9673,-25.7501 929.9674,-29.2501"/>
</g>
</g>
</svg>
