<?xml version="1.0" encoding="UTF-8" standalone="no"?>
<!DOCTYPE svg PUBLIC "-//W3C//DTD SVG 1.1//EN"
 "http://www.w3.org/Graphics/SVG/1.1/DTD/svg11.dtd">
<!-- Generated by graphviz version 2.40.1 (20161225.0304)
 -->
<!-- Title: inheritancee5a61e2e0d Pages: 1 -->
<svg width="576pt" height="23pt"
 viewBox="0.00 0.00 576.00 22.53" xmlns="http://www.w3.org/2000/svg" xmlns:xlink="http://www.w3.org/1999/xlink">
<g id="graph0" class="graph" transform="scale(.3521 .3521) rotate(0) translate(4 60)">
<title>inheritancee5a61e2e0d</title>
<polygon fill="#ffffff" stroke="transparent" points="-4,4 -4,-60 1632,-60 1632,4 -4,4"/>
<!-- pyGHDL.dom.DOMMixin -->
<g id="node1" class="node">
<title>pyGHDL.dom.DOMMixin</title>
<g id="a_node1"><a xlink:href="../pyGHDL.dom.html#pyGHDL.dom.DOMMixin" xlink:title="pyGHDL.dom.DOMMixin" target="_top">
<polygon fill="none" stroke="#000000" stroke-width=".5" points="1243.5,-56 1109.5,-56 1109.5,-37 1243.5,-37 1243.5,-56"/>
<text text-anchor="middle" x="1176.5" y="-44" font-family="Vera Sans, DejaVu Sans, Liberation Sans, Arial, Helvetica, sans" font-size="10.00" fill="#000000">pyGHDL.dom.DOMMixin</text>
</a>
</g>
</g>
<!-- pyGHDL.dom.Expression.AscendingRangeExpression -->
<g id="node2" class="node">
<title>pyGHDL.dom.Expression.AscendingRangeExpression</title>
<g id="a_node2"><a xlink:href="../pyGHDL/pyGHDL.dom.Expression.html#pyGHDL.dom.Expression.AscendingRangeExpression" xlink:title="pyGHDL.dom.Expression.AscendingRangeExpression" target="_top">
<polygon fill="none" stroke="#000000" stroke-width=".5" points="1628,-37 1353,-37 1353,-18 1628,-18 1628,-37"/>
<text text-anchor="middle" x="1490.5" y="-25" font-family="Vera Sans, DejaVu Sans, Liberation Sans, Arial, Helvetica, sans" font-size="10.00" fill="#000000">pyGHDL.dom.Expression.AscendingRangeExpression</text>
</a>
</g>
</g>
<!-- pyGHDL.dom.DOMMixin&#45;&gt;pyGHDL.dom.Expression.AscendingRangeExpression -->
<g id="edge2" class="edge">
<title>pyGHDL.dom.DOMMixin&#45;&gt;pyGHDL.dom.Expression.AscendingRangeExpression</title>
<path fill="none" stroke="#000000" stroke-width=".5" d="M1243.8609,-42.424C1274.2616,-40.5845 1311.4057,-38.3369 1347.5488,-36.1499"/>
<polygon fill="#000000" stroke="#000000" stroke-width=".5" points="1347.988,-37.8766 1352.8732,-35.8277 1347.7766,-34.383 1347.988,-37.8766"/>
</g>
<!-- pyVHDLModel.VHDLModel.AscendingRangeExpression -->
<g id="node3" class="node">
<title>pyVHDLModel.VHDLModel.AscendingRangeExpression</title>
<polygon fill="none" stroke="#000000" stroke-width=".5" points="1317,-19 1036,-19 1036,0 1317,0 1317,-19"/>
<text text-anchor="middle" x="1176.5" y="-7" font-family="Vera Sans, DejaVu Sans, Liberation Sans, Arial, Helvetica, sans" font-size="10.00" fill="#000000">pyVHDLModel.VHDLModel.AscendingRangeExpression</text>
</g>
<!-- pyVHDLModel.VHDLModel.AscendingRangeExpression&#45;&gt;pyGHDL.dom.Expression.AscendingRangeExpression -->
<g id="edge1" class="edge">
<title>pyVHDLModel.VHDLModel.AscendingRangeExpression&#45;&gt;pyGHDL.dom.Expression.AscendingRangeExpression</title>
<path fill="none" stroke="#000000" stroke-width=".5" d="M1317.4264,-17.5786C1327.4226,-18.1516 1337.5065,-18.7297 1347.5139,-19.3033"/>
<polygon fill="#000000" stroke="#000000" stroke-width=".5" points="1347.6473,-21.0638 1352.7393,-19.6029 1347.8477,-17.5695 1347.6473,-21.0638"/>
</g>
<!-- pyVHDLModel.VHDLModel.RangeExpression -->
<g id="node4" class="node">
<title>pyVHDLModel.VHDLModel.RangeExpression</title>
<polygon fill="none" stroke="#000000" stroke-width=".5" points="1000,-19 769,-19 769,0 1000,0 1000,-19"/>
<text text-anchor="middle" x="884.5" y="-7" font-family="Vera Sans, DejaVu Sans, Liberation Sans, Arial, Helvetica, sans" font-size="10.00" fill="#000000">pyVHDLModel.VHDLModel.RangeExpression</text>
</g>
<!-- pyVHDLModel.VHDLModel.RangeExpression&#45;&gt;pyVHDLModel.VHDLModel.AscendingRangeExpression -->
<g id="edge3" class="edge">
<title>pyVHDLModel.VHDLModel.RangeExpression&#45;&gt;pyVHDLModel.VHDLModel.AscendingRangeExpression</title>
<path fill="none" stroke="#000000" stroke-width=".5" d="M1000.3255,-9.5C1010.2238,-9.5 1020.3155,-9.5 1030.4078,-9.5"/>
<polygon fill="#000000" stroke="#000000" stroke-width=".5" points="1030.6845,-11.2501 1035.6845,-9.5 1030.6844,-7.7501 1030.6845,-11.2501"/>
</g>
<!-- pyVHDLModel.VHDLModel.BaseExpression -->
<g id="node5" class="node">
<title>pyVHDLModel.VHDLModel.BaseExpression</title>
<g id="a_node5"><a xlink:title="A ``BaseExpression`` is a base&#45;class for all expressions.">
<polygon fill="none" stroke="#000000" stroke-width=".5" points="465,-19 241,-19 241,0 465,0 465,-19"/>
<text text-anchor="middle" x="353" y="-7" font-family="Vera Sans, DejaVu Sans, Liberation Sans, Arial, Helvetica, sans" font-size="10.00" fill="#000000">pyVHDLModel.VHDLModel.BaseExpression</text>
</a>
</g>
</g>
<!-- pyVHDLModel.VHDLModel.BinaryExpression -->
<g id="node7" class="node">
<title>pyVHDLModel.VHDLModel.BinaryExpression</title>
<g id="a_node7"><a xlink:title="A ``BinaryExpression`` is a base&#45;class for all binary expressions.">
<polygon fill="none" stroke="#000000" stroke-width=".5" points="733,-19 501,-19 501,0 733,0 733,-19"/>
<text text-anchor="middle" x="617" y="-7" font-family="Vera Sans, DejaVu Sans, Liberation Sans, Arial, Helvetica, sans" font-size="10.00" fill="#000000">pyVHDLModel.VHDLModel.BinaryExpression</text>
</a>
</g>
</g>
<!-- pyVHDLModel.VHDLModel.BaseExpression&#45;&gt;pyVHDLModel.VHDLModel.BinaryExpression -->
<g id="edge5" class="edge">
<title>pyVHDLModel.VHDLModel.BaseExpression&#45;&gt;pyVHDLModel.VHDLModel.BinaryExpression</title>
<path fill="none" stroke="#000000" stroke-width=".5" d="M465.3426,-9.5C475.3813,-9.5 485.5751,-9.5 495.6849,-9.5"/>
<polygon fill="#000000" stroke="#000000" stroke-width=".5" points="495.9627,-11.2501 500.9627,-9.5 495.9626,-7.7501 495.9627,-11.2501"/>
</g>
<!-- pyVHDLModel.VHDLModel.ModelEntity -->
<g id="node6" class="node">
<title>pyVHDLModel.VHDLModel.ModelEntity</title>
<g id="a_node6"><a xlink:title="``ModelEntity`` is the base class for all classes in the VHDL language model,">
<polygon fill="none" stroke="#000000" stroke-width=".5" points="205,-19 0,-19 0,0 205,0 205,-19"/>
<text text-anchor="middle" x="102.5" y="-7" font-family="Vera Sans, DejaVu Sans, Liberation Sans, Arial, Helvetica, sans" font-size="10.00" fill="#000000">pyVHDLModel.VHDLModel.ModelEntity</text>
</a>
</g>
</g>
<!-- pyVHDLModel.VHDLModel.ModelEntity&#45;&gt;pyVHDLModel.VHDLModel.BaseExpression -->
<g id="edge4" class="edge">
<title>pyVHDLModel.VHDLModel.ModelEntity&#45;&gt;pyVHDLModel.VHDLModel.BaseExpression</title>
<path fill="none" stroke="#000000" stroke-width=".5" d="M205.1107,-9.5C215.2127,-9.5 225.5179,-9.5 235.7516,-9.5"/>
<polygon fill="#000000" stroke="#000000" stroke-width=".5" points="235.7685,-11.2501 240.7685,-9.5 235.7684,-7.7501 235.7685,-11.2501"/>
</g>
<!-- pyVHDLModel.VHDLModel.BinaryExpression&#45;&gt;pyVHDLModel.VHDLModel.RangeExpression -->
<g id="edge6" class="edge">
<title>pyVHDLModel.VHDLModel.BinaryExpression&#45;&gt;pyVHDLModel.VHDLModel.RangeExpression</title>
<path fill="none" stroke="#000000" stroke-width=".5" d="M733.1623,-9.5C743.3406,-9.5 753.6571,-9.5 763.8706,-9.5"/>
<polygon fill="#000000" stroke="#000000" stroke-width=".5" points="763.8752,-11.2501 768.8752,-9.5 763.8752,-7.7501 763.8752,-11.2501"/>
</g>
</g>
</svg>
