<?xml version="1.0" encoding="UTF-8" standalone="no"?>
<!DOCTYPE svg PUBLIC "-//W3C//DTD SVG 1.1//EN"
 "http://www.w3.org/Graphics/SVG/1.1/DTD/svg11.dtd">
<!-- Generated by graphviz version 2.40.1 (20161225.0304)
 -->
<!-- Title: inheritance5a50b8c16b Pages: 1 -->
<svg width="576pt" height="24pt"
 viewBox="0.00 0.00 576.00 24.11" xmlns="http://www.w3.org/2000/svg" xmlns:xlink="http://www.w3.org/1999/xlink">
<g id="graph0" class="graph" transform="scale(.3767 .3767) rotate(0) translate(4 60)">
<title>inheritance5a50b8c16b</title>
<polygon fill="#ffffff" stroke="transparent" points="-4,4 -4,-60 1525,-60 1525,4 -4,4"/>
<!-- pyGHDL.dom.DOMMixin -->
<g id="node1" class="node">
<title>pyGHDL.dom.DOMMixin</title>
<g id="a_node1"><a xlink:href="../pyGHDL.dom.html#pyGHDL.dom.DOMMixin" xlink:title="pyGHDL.dom.DOMMixin" target="_top">
<polygon fill="none" stroke="#000000" stroke-width=".5" points="1220,-56 1086,-56 1086,-37 1220,-37 1220,-56"/>
<text text-anchor="middle" x="1153" y="-44" font-family="Vera Sans, DejaVu Sans, Liberation Sans, Arial, Helvetica, sans" font-size="10.00" fill="#000000">pyGHDL.dom.DOMMixin</text>
</a>
</g>
</g>
<!-- pyGHDL.dom.Expression.NandExpression -->
<g id="node2" class="node">
<title>pyGHDL.dom.Expression.NandExpression</title>
<g id="a_node2"><a xlink:href="../pyGHDL/pyGHDL.dom.Expression.html#pyGHDL.dom.Expression.NandExpression" xlink:title="pyGHDL.dom.Expression.NandExpression" target="_top">
<polygon fill="none" stroke="#000000" stroke-width=".5" points="1521,-37 1302,-37 1302,-18 1521,-18 1521,-37"/>
<text text-anchor="middle" x="1411.5" y="-25" font-family="Vera Sans, DejaVu Sans, Liberation Sans, Arial, Helvetica, sans" font-size="10.00" fill="#000000">pyGHDL.dom.Expression.NandExpression</text>
</a>
</g>
</g>
<!-- pyGHDL.dom.DOMMixin&#45;&gt;pyGHDL.dom.Expression.NandExpression -->
<g id="edge2" class="edge">
<title>pyGHDL.dom.DOMMixin&#45;&gt;pyGHDL.dom.Expression.NandExpression</title>
<path fill="none" stroke="#000000" stroke-width=".5" d="M1220.243,-41.5576C1243.5237,-39.8464 1270.3217,-37.8767 1296.3481,-35.9638"/>
<polygon fill="#000000" stroke="#000000" stroke-width=".5" points="1296.6836,-37.6939 1301.5418,-35.582 1296.427,-34.2033 1296.6836,-37.6939"/>
</g>
<!-- pyVHDLModel.VHDLModel.NandExpression -->
<g id="node3" class="node">
<title>pyVHDLModel.VHDLModel.NandExpression</title>
<polygon fill="none" stroke="#000000" stroke-width=".5" points="1266,-19 1040,-19 1040,0 1266,0 1266,-19"/>
<text text-anchor="middle" x="1153" y="-7" font-family="Vera Sans, DejaVu Sans, Liberation Sans, Arial, Helvetica, sans" font-size="10.00" fill="#000000">pyVHDLModel.VHDLModel.NandExpression</text>
</g>
<!-- pyVHDLModel.VHDLModel.NandExpression&#45;&gt;pyGHDL.dom.Expression.NandExpression -->
<g id="edge1" class="edge">
<title>pyVHDLModel.VHDLModel.NandExpression&#45;&gt;pyGHDL.dom.Expression.NandExpression</title>
<path fill="none" stroke="#000000" stroke-width=".5" d="M1266.0058,-17.3689C1276.0708,-18.0697 1286.2694,-18.7799 1296.3521,-19.482"/>
<polygon fill="#000000" stroke="#000000" stroke-width=".5" points="1296.5033,-21.2466 1301.6129,-19.8483 1296.7465,-17.7551 1296.5033,-21.2466"/>
</g>
<!-- pyVHDLModel.VHDLModel.BaseExpression -->
<g id="node4" class="node">
<title>pyVHDLModel.VHDLModel.BaseExpression</title>
<g id="a_node4"><a xlink:title="A ``BaseExpression`` is a base&#45;class for all expressions.">
<polygon fill="none" stroke="#000000" stroke-width=".5" points="465,-19 241,-19 241,0 465,0 465,-19"/>
<text text-anchor="middle" x="353" y="-7" font-family="Vera Sans, DejaVu Sans, Liberation Sans, Arial, Helvetica, sans" font-size="10.00" fill="#000000">pyVHDLModel.VHDLModel.BaseExpression</text>
</a>
</g>
</g>
<!-- pyVHDLModel.VHDLModel.BinaryExpression -->
<g id="node6" class="node">
<title>pyVHDLModel.VHDLModel.BinaryExpression</title>
<g id="a_node6"><a xlink:title="A ``BinaryExpression`` is a base&#45;class for all binary expressions.">
<polygon fill="none" stroke="#000000" stroke-width=".5" points="733,-19 501,-19 501,0 733,0 733,-19"/>
<text text-anchor="middle" x="617" y="-7" font-family="Vera Sans, DejaVu Sans, Liberation Sans, Arial, Helvetica, sans" font-size="10.00" fill="#000000">pyVHDLModel.VHDLModel.BinaryExpression</text>
</a>
</g>
</g>
<!-- pyVHDLModel.VHDLModel.BaseExpression&#45;&gt;pyVHDLModel.VHDLModel.BinaryExpression -->
<g id="edge4" class="edge">
<title>pyVHDLModel.VHDLModel.BaseExpression&#45;&gt;pyVHDLModel.VHDLModel.BinaryExpression</title>
<path fill="none" stroke="#000000" stroke-width=".5" d="M465.3426,-9.5C475.3813,-9.5 485.5751,-9.5 495.6849,-9.5"/>
<polygon fill="#000000" stroke="#000000" stroke-width=".5" points="495.9627,-11.2501 500.9627,-9.5 495.9626,-7.7501 495.9627,-11.2501"/>
</g>
<!-- pyVHDLModel.VHDLModel.ModelEntity -->
<g id="node5" class="node">
<title>pyVHDLModel.VHDLModel.ModelEntity</title>
<g id="a_node5"><a xlink:title="``ModelEntity`` is the base class for all classes in the VHDL language model,">
<polygon fill="none" stroke="#000000" stroke-width=".5" points="205,-19 0,-19 0,0 205,0 205,-19"/>
<text text-anchor="middle" x="102.5" y="-7" font-family="Vera Sans, DejaVu Sans, Liberation Sans, Arial, Helvetica, sans" font-size="10.00" fill="#000000">pyVHDLModel.VHDLModel.ModelEntity</text>
</a>
</g>
</g>
<!-- pyVHDLModel.VHDLModel.ModelEntity&#45;&gt;pyVHDLModel.VHDLModel.BaseExpression -->
<g id="edge3" class="edge">
<title>pyVHDLModel.VHDLModel.ModelEntity&#45;&gt;pyVHDLModel.VHDLModel.BaseExpression</title>
<path fill="none" stroke="#000000" stroke-width=".5" d="M205.1107,-9.5C215.2127,-9.5 225.5179,-9.5 235.7516,-9.5"/>
<polygon fill="#000000" stroke="#000000" stroke-width=".5" points="235.7685,-11.2501 240.7685,-9.5 235.7684,-7.7501 235.7685,-11.2501"/>
</g>
<!-- pyVHDLModel.VHDLModel.LogicalExpression -->
<g id="node7" class="node">
<title>pyVHDLModel.VHDLModel.LogicalExpression</title>
<g id="a_node7"><a xlink:title="A ``LogicalExpression`` is a base&#45;class for all logical expressions.">
<polygon fill="none" stroke="#000000" stroke-width=".5" points="1004,-19 769,-19 769,0 1004,0 1004,-19"/>
<text text-anchor="middle" x="886.5" y="-7" font-family="Vera Sans, DejaVu Sans, Liberation Sans, Arial, Helvetica, sans" font-size="10.00" fill="#000000">pyVHDLModel.VHDLModel.LogicalExpression</text>
</a>
</g>
</g>
<!-- pyVHDLModel.VHDLModel.BinaryExpression&#45;&gt;pyVHDLModel.VHDLModel.LogicalExpression -->
<g id="edge5" class="edge">
<title>pyVHDLModel.VHDLModel.BinaryExpression&#45;&gt;pyVHDLModel.VHDLModel.LogicalExpression</title>
<path fill="none" stroke="#000000" stroke-width=".5" d="M733.2477,-9.5C743.4091,-9.5 753.7137,-9.5 763.9242,-9.5"/>
<polygon fill="#000000" stroke="#000000" stroke-width=".5" points="763.9281,-11.2501 768.9281,-9.5 763.9281,-7.7501 763.9281,-11.2501"/>
</g>
<!-- pyVHDLModel.VHDLModel.LogicalExpression&#45;&gt;pyVHDLModel.VHDLModel.NandExpression -->
<g id="edge6" class="edge">
<title>pyVHDLModel.VHDLModel.LogicalExpression&#45;&gt;pyVHDLModel.VHDLModel.NandExpression</title>
<path fill="none" stroke="#000000" stroke-width=".5" d="M1004.1665,-9.5C1014.2594,-9.5 1024.4731,-9.5 1034.5719,-9.5"/>
<polygon fill="#000000" stroke="#000000" stroke-width=".5" points="1034.8412,-11.2501 1039.8412,-9.5 1034.8411,-7.7501 1034.8412,-11.2501"/>
</g>
</g>
</svg>
