<?xml version="1.0" encoding="UTF-8" standalone="no"?>
<!DOCTYPE svg PUBLIC "-//W3C//DTD SVG 1.1//EN"
 "http://www.w3.org/Graphics/SVG/1.1/DTD/svg11.dtd">
<!-- Generated by graphviz version 2.40.1 (20161225.0304)
 -->
<!-- Title: inheritancefb0749a69f Pages: 1 -->
<svg width="576pt" height="18pt"
 viewBox="0.00 0.00 576.00 18.10" xmlns="http://www.w3.org/2000/svg" xmlns:xlink="http://www.w3.org/1999/xlink">
<g id="graph0" class="graph" transform="scale(.2828 .2828) rotate(0) translate(4 60)">
<title>inheritancefb0749a69f</title>
<polygon fill="#ffffff" stroke="transparent" points="-4,4 -4,-60 2033,-60 2033,4 -4,4"/>
<!-- pyGHDL.dom.DOMMixin -->
<g id="node1" class="node">
<title>pyGHDL.dom.DOMMixin</title>
<g id="a_node1"><a xlink:href="../pyGHDL.dom.html#pyGHDL.dom.DOMMixin" xlink:title="pyGHDL.dom.DOMMixin" target="_top">
<polygon fill="none" stroke="#000000" stroke-width=".5" points="1604,-56 1470,-56 1470,-37 1604,-37 1604,-56"/>
<text text-anchor="middle" x="1537" y="-44" font-family="Vera Sans, DejaVu Sans, Liberation Sans, Arial, Helvetica, sans" font-size="10.00" fill="#000000">pyGHDL.dom.DOMMixin</text>
</a>
</g>
</g>
<!-- pyGHDL.dom.Expression.MatchingGreaterEqualExpression -->
<g id="node2" class="node">
<title>pyGHDL.dom.Expression.MatchingGreaterEqualExpression</title>
<g id="a_node2"><a xlink:href="../pyGHDL/pyGHDL.dom.Expression.html#pyGHDL.dom.Expression.MatchingGreaterEqualExpression" xlink:title="pyGHDL.dom.Expression.MatchingGreaterEqualExpression" target="_top">
<polygon fill="none" stroke="#000000" stroke-width=".5" points="2029,-37 1727,-37 1727,-18 2029,-18 2029,-37"/>
<text text-anchor="middle" x="1878" y="-25" font-family="Vera Sans, DejaVu Sans, Liberation Sans, Arial, Helvetica, sans" font-size="10.00" fill="#000000">pyGHDL.dom.Expression.MatchingGreaterEqualExpression</text>
</a>
</g>
</g>
<!-- pyGHDL.dom.DOMMixin&#45;&gt;pyGHDL.dom.Expression.MatchingGreaterEqualExpression -->
<g id="edge2" class="edge">
<title>pyGHDL.dom.DOMMixin&#45;&gt;pyGHDL.dom.Expression.MatchingGreaterEqualExpression</title>
<path fill="none" stroke="#000000" stroke-width=".5" d="M1604.3706,-42.7462C1638.1299,-40.8652 1680.5297,-38.5027 1721.8036,-36.203"/>
<polygon fill="#000000" stroke="#000000" stroke-width=".5" points="1721.9359,-37.9485 1726.8308,-35.9229 1721.7411,-34.4539 1721.9359,-37.9485"/>
</g>
<!-- pyVHDLModel.VHDLModel.MatchingGreaterEqualExpression -->
<g id="node3" class="node">
<title>pyVHDLModel.VHDLModel.MatchingGreaterEqualExpression</title>
<polygon fill="none" stroke="#000000" stroke-width=".5" points="1691,-19 1383,-19 1383,0 1691,0 1691,-19"/>
<text text-anchor="middle" x="1537" y="-7" font-family="Vera Sans, DejaVu Sans, Liberation Sans, Arial, Helvetica, sans" font-size="10.00" fill="#000000">pyVHDLModel.VHDLModel.MatchingGreaterEqualExpression</text>
</g>
<!-- pyVHDLModel.VHDLModel.MatchingGreaterEqualExpression&#45;&gt;pyGHDL.dom.Expression.MatchingGreaterEqualExpression -->
<g id="edge1" class="edge">
<title>pyVHDLModel.VHDLModel.MatchingGreaterEqualExpression&#45;&gt;pyGHDL.dom.Expression.MatchingGreaterEqualExpression</title>
<path fill="none" stroke="#000000" stroke-width=".5" d="M1691.0389,-17.6311C1701.2773,-18.1715 1711.5955,-18.7162 1721.8442,-19.2572"/>
<polygon fill="#000000" stroke="#000000" stroke-width=".5" points="1721.7837,-21.0063 1726.8691,-19.5224 1721.9683,-17.5112 1721.7837,-21.0063"/>
</g>
<!-- pyVHDLModel.VHDLModel.BaseExpression -->
<g id="node4" class="node">
<title>pyVHDLModel.VHDLModel.BaseExpression</title>
<g id="a_node4"><a xlink:title="A ``BaseExpression`` is a base&#45;class for all expressions.">
<polygon fill="none" stroke="#000000" stroke-width=".5" points="465,-19 241,-19 241,0 465,0 465,-19"/>
<text text-anchor="middle" x="353" y="-7" font-family="Vera Sans, DejaVu Sans, Liberation Sans, Arial, Helvetica, sans" font-size="10.00" fill="#000000">pyVHDLModel.VHDLModel.BaseExpression</text>
</a>
</g>
</g>
<!-- pyVHDLModel.VHDLModel.BinaryExpression -->
<g id="node6" class="node">
<title>pyVHDLModel.VHDLModel.BinaryExpression</title>
<g id="a_node6"><a xlink:title="A ``BinaryExpression`` is a base&#45;class for all binary expressions.">
<polygon fill="none" stroke="#000000" stroke-width=".5" points="733,-19 501,-19 501,0 733,0 733,-19"/>
<text text-anchor="middle" x="617" y="-7" font-family="Vera Sans, DejaVu Sans, Liberation Sans, Arial, Helvetica, sans" font-size="10.00" fill="#000000">pyVHDLModel.VHDLModel.BinaryExpression</text>
</a>
</g>
</g>
<!-- pyVHDLModel.VHDLModel.BaseExpression&#45;&gt;pyVHDLModel.VHDLModel.BinaryExpression -->
<g id="edge4" class="edge">
<title>pyVHDLModel.VHDLModel.BaseExpression&#45;&gt;pyVHDLModel.VHDLModel.BinaryExpression</title>
<path fill="none" stroke="#000000" stroke-width=".5" d="M465.3426,-9.5C475.3813,-9.5 485.5751,-9.5 495.6849,-9.5"/>
<polygon fill="#000000" stroke="#000000" stroke-width=".5" points="495.9627,-11.2501 500.9627,-9.5 495.9626,-7.7501 495.9627,-11.2501"/>
</g>
<!-- pyVHDLModel.VHDLModel.ModelEntity -->
<g id="node5" class="node">
<title>pyVHDLModel.VHDLModel.ModelEntity</title>
<g id="a_node5"><a xlink:title="``ModelEntity`` is the base class for all classes in the VHDL language model,">
<polygon fill="none" stroke="#000000" stroke-width=".5" points="205,-19 0,-19 0,0 205,0 205,-19"/>
<text text-anchor="middle" x="102.5" y="-7" font-family="Vera Sans, DejaVu Sans, Liberation Sans, Arial, Helvetica, sans" font-size="10.00" fill="#000000">pyVHDLModel.VHDLModel.ModelEntity</text>
</a>
</g>
</g>
<!-- pyVHDLModel.VHDLModel.ModelEntity&#45;&gt;pyVHDLModel.VHDLModel.BaseExpression -->
<g id="edge3" class="edge">
<title>pyVHDLModel.VHDLModel.ModelEntity&#45;&gt;pyVHDLModel.VHDLModel.BaseExpression</title>
<path fill="none" stroke="#000000" stroke-width=".5" d="M205.1107,-9.5C215.2127,-9.5 225.5179,-9.5 235.7516,-9.5"/>
<polygon fill="#000000" stroke="#000000" stroke-width=".5" points="235.7685,-11.2501 240.7685,-9.5 235.7684,-7.7501 235.7685,-11.2501"/>
</g>
<!-- pyVHDLModel.VHDLModel.RelationalExpression -->
<g id="node8" class="node">
<title>pyVHDLModel.VHDLModel.RelationalExpression</title>
<g id="a_node8"><a xlink:title="A ``RelationalExpression`` is a base&#45;class for all shifting expressions.">
<polygon fill="none" stroke="#000000" stroke-width=".5" points="1018,-19 769,-19 769,0 1018,0 1018,-19"/>
<text text-anchor="middle" x="893.5" y="-7" font-family="Vera Sans, DejaVu Sans, Liberation Sans, Arial, Helvetica, sans" font-size="10.00" fill="#000000">pyVHDLModel.VHDLModel.RelationalExpression</text>
</a>
</g>
</g>
<!-- pyVHDLModel.VHDLModel.BinaryExpression&#45;&gt;pyVHDLModel.VHDLModel.RelationalExpression -->
<g id="edge7" class="edge">
<title>pyVHDLModel.VHDLModel.BinaryExpression&#45;&gt;pyVHDLModel.VHDLModel.RelationalExpression</title>
<path fill="none" stroke="#000000" stroke-width=".5" d="M733.0591,-9.5C743.2195,-9.5 753.544,-9.5 763.8055,-9.5"/>
<polygon fill="#000000" stroke="#000000" stroke-width=".5" points="763.837,-11.2501 768.8369,-9.5 763.8369,-7.7501 763.837,-11.2501"/>
</g>
<!-- pyVHDLModel.VHDLModel.MatchingRelationalExpression -->
<g id="node7" class="node">
<title>pyVHDLModel.VHDLModel.MatchingRelationalExpression</title>
<polygon fill="none" stroke="#000000" stroke-width=".5" points="1347,-19 1054,-19 1054,0 1347,0 1347,-19"/>
<text text-anchor="middle" x="1200.5" y="-7" font-family="Vera Sans, DejaVu Sans, Liberation Sans, Arial, Helvetica, sans" font-size="10.00" fill="#000000">pyVHDLModel.VHDLModel.MatchingRelationalExpression</text>
</g>
<!-- pyVHDLModel.VHDLModel.MatchingRelationalExpression&#45;&gt;pyVHDLModel.VHDLModel.MatchingGreaterEqualExpression -->
<g id="edge5" class="edge">
<title>pyVHDLModel.VHDLModel.MatchingRelationalExpression&#45;&gt;pyVHDLModel.VHDLModel.MatchingGreaterEqualExpression</title>
<path fill="none" stroke="#000000" stroke-width=".5" d="M1347.1149,-9.5C1357.3125,-9.5 1367.6179,-9.5 1377.878,-9.5"/>
<polygon fill="#000000" stroke="#000000" stroke-width=".5" points="1377.9104,-11.2501 1382.9104,-9.5 1377.9104,-7.7501 1377.9104,-11.2501"/>
</g>
<!-- pyVHDLModel.VHDLModel.RelationalExpression&#45;&gt;pyVHDLModel.VHDLModel.MatchingRelationalExpression -->
<g id="edge6" class="edge">
<title>pyVHDLModel.VHDLModel.RelationalExpression&#45;&gt;pyVHDLModel.VHDLModel.MatchingRelationalExpression</title>
<path fill="none" stroke="#000000" stroke-width=".5" d="M1018.3687,-9.5C1028.4262,-9.5 1038.6538,-9.5 1048.8704,-9.5"/>
<polygon fill="#000000" stroke="#000000" stroke-width=".5" points="1048.8841,-11.2501 1053.8841,-9.5 1048.8841,-7.7501 1048.8841,-11.2501"/>
</g>
</g>
</svg>
