<?xml version="1.0" encoding="UTF-8" standalone="no"?>
<!DOCTYPE svg PUBLIC "-//W3C//DTD SVG 1.1//EN"
 "http://www.w3.org/Graphics/SVG/1.1/DTD/svg11.dtd">
<!-- Generated by graphviz version 2.40.1 (20161225.0304)
 -->
<!-- Title: inheritanceaf6960959e Pages: 1 -->
<svg width="576pt" height="40pt"
 viewBox="0.00 0.00 576.00 39.79" xmlns="http://www.w3.org/2000/svg" xmlns:xlink="http://www.w3.org/1999/xlink">
<g id="graph0" class="graph" transform="scale(.4853 .4853) rotate(0) translate(4 78)">
<title>inheritanceaf6960959e</title>
<polygon fill="#ffffff" stroke="transparent" points="-4,4 -4,-78 1183,-78 1183,4 -4,4"/>
<!-- pyGHDL.dom.DOMMixin -->
<g id="node1" class="node">
<title>pyGHDL.dom.DOMMixin</title>
<g id="a_node1"><a xlink:href="../pyGHDL.dom.html#pyGHDL.dom.DOMMixin" xlink:title="pyGHDL.dom.DOMMixin" target="_top">
<polygon fill="none" stroke="#000000" stroke-width=".5" points="886.5,-74 752.5,-74 752.5,-55 886.5,-55 886.5,-74"/>
<text text-anchor="middle" x="819.5" y="-62" font-family="Vera Sans, DejaVu Sans, Liberation Sans, Arial, Helvetica, sans" font-size="10.00" fill="#000000">pyGHDL.dom.DOMMixin</text>
</a>
</g>
</g>
<!-- pyGHDL.dom.Type.ProtectedTypeBody -->
<g id="node2" class="node">
<title>pyGHDL.dom.Type.ProtectedTypeBody</title>
<g id="a_node2"><a xlink:href="../pyGHDL/pyGHDL.dom.Type.html#pyGHDL.dom.Type.ProtectedTypeBody" xlink:title="pyGHDL.dom.Type.ProtectedTypeBody" target="_top">
<polygon fill="none" stroke="#000000" stroke-width=".5" points="1179,-55 976,-55 976,-36 1179,-36 1179,-55"/>
<text text-anchor="middle" x="1077.5" y="-43" font-family="Vera Sans, DejaVu Sans, Liberation Sans, Arial, Helvetica, sans" font-size="10.00" fill="#000000">pyGHDL.dom.Type.ProtectedTypeBody</text>
</a>
</g>
</g>
<!-- pyGHDL.dom.DOMMixin&#45;&gt;pyGHDL.dom.Type.ProtectedTypeBody -->
<g id="edge2" class="edge">
<title>pyGHDL.dom.DOMMixin&#45;&gt;pyGHDL.dom.Type.ProtectedTypeBody</title>
<path fill="none" stroke="#000000" stroke-width=".5" d="M886.613,-59.5576C912.1943,-57.6737 942.0309,-55.4764 970.41,-53.3865"/>
<polygon fill="#000000" stroke="#000000" stroke-width=".5" points="970.8328,-55.1102 975.6907,-52.9976 970.5757,-51.6196 970.8328,-55.1102"/>
</g>
<!-- pyVHDLModel.VHDLModel.ProtectedTypeBody -->
<g id="node3" class="node">
<title>pyVHDLModel.VHDLModel.ProtectedTypeBody</title>
<polygon fill="none" stroke="#000000" stroke-width=".5" points="940,-37 699,-37 699,-18 940,-18 940,-37"/>
<text text-anchor="middle" x="819.5" y="-25" font-family="Vera Sans, DejaVu Sans, Liberation Sans, Arial, Helvetica, sans" font-size="10.00" fill="#000000">pyVHDLModel.VHDLModel.ProtectedTypeBody</text>
</g>
<!-- pyVHDLModel.VHDLModel.ProtectedTypeBody&#45;&gt;pyGHDL.dom.Type.ProtectedTypeBody -->
<g id="edge1" class="edge">
<title>pyVHDLModel.VHDLModel.ProtectedTypeBody&#45;&gt;pyGHDL.dom.Type.ProtectedTypeBody</title>
<path fill="none" stroke="#000000" stroke-width=".5" d="M940.1907,-35.9203C950.3535,-36.6293 960.5855,-37.3432 970.6327,-38.0441"/>
<polygon fill="#000000" stroke="#000000" stroke-width=".5" points="970.759,-39.8071 975.8687,-38.4094 971.0026,-36.3156 970.759,-39.8071"/>
</g>
<!-- pyVHDLModel.VHDLModel.BaseType -->
<g id="node4" class="node">
<title>pyVHDLModel.VHDLModel.BaseType</title>
<g id="a_node4"><a xlink:title="``BaseType`` is the base class of all type entities in this model.">
<polygon fill="none" stroke="#000000" stroke-width=".5" points="441,-37 247,-37 247,-18 441,-18 441,-37"/>
<text text-anchor="middle" x="344" y="-25" font-family="Vera Sans, DejaVu Sans, Liberation Sans, Arial, Helvetica, sans" font-size="10.00" fill="#000000">pyVHDLModel.VHDLModel.BaseType</text>
</a>
</g>
</g>
<!-- pyVHDLModel.VHDLModel.FullType -->
<g id="node7" class="node">
<title>pyVHDLModel.VHDLModel.FullType</title>
<polygon fill="none" stroke="#000000" stroke-width=".5" points="663,-37 477,-37 477,-18 663,-18 663,-37"/>
<text text-anchor="middle" x="570" y="-25" font-family="Vera Sans, DejaVu Sans, Liberation Sans, Arial, Helvetica, sans" font-size="10.00" fill="#000000">pyVHDLModel.VHDLModel.FullType</text>
</g>
<!-- pyVHDLModel.VHDLModel.BaseType&#45;&gt;pyVHDLModel.VHDLModel.FullType -->
<g id="edge5" class="edge">
<title>pyVHDLModel.VHDLModel.BaseType&#45;&gt;pyVHDLModel.VHDLModel.FullType</title>
<path fill="none" stroke="#000000" stroke-width=".5" d="M441.1559,-27.5C451.2418,-27.5 461.4995,-27.5 471.599,-27.5"/>
<polygon fill="#000000" stroke="#000000" stroke-width=".5" points="471.8642,-29.2501 476.8642,-27.5 471.8641,-25.7501 471.8642,-29.2501"/>
</g>
<!-- pyVHDLModel.VHDLModel.ModelEntity -->
<g id="node5" class="node">
<title>pyVHDLModel.VHDLModel.ModelEntity</title>
<g id="a_node5"><a xlink:title="``ModelEntity`` is the base class for all classes in the VHDL language model,">
<polygon fill="none" stroke="#000000" stroke-width=".5" points="208,-56 3,-56 3,-37 208,-37 208,-56"/>
<text text-anchor="middle" x="105.5" y="-44" font-family="Vera Sans, DejaVu Sans, Liberation Sans, Arial, Helvetica, sans" font-size="10.00" fill="#000000">pyVHDLModel.VHDLModel.ModelEntity</text>
</a>
</g>
</g>
<!-- pyVHDLModel.VHDLModel.ModelEntity&#45;&gt;pyVHDLModel.VHDLModel.BaseType -->
<g id="edge3" class="edge">
<title>pyVHDLModel.VHDLModel.ModelEntity&#45;&gt;pyVHDLModel.VHDLModel.BaseType</title>
<path fill="none" stroke="#000000" stroke-width=".5" d="M208.0296,-38.332C219.1971,-37.4424 230.5642,-36.5368 241.7286,-35.6474"/>
<polygon fill="#000000" stroke="#000000" stroke-width=".5" points="241.9972,-37.3816 246.8424,-35.24 241.7192,-33.8927 241.9972,-37.3816"/>
</g>
<!-- pyVHDLModel.VHDLModel.NamedEntity -->
<g id="node6" class="node">
<title>pyVHDLModel.VHDLModel.NamedEntity</title>
<g id="a_node6"><a xlink:title="A ``NamedEntity`` is a mixin class for all VHDL entities that have identifiers.">
<polygon fill="none" stroke="#000000" stroke-width=".5" points="211,-19 0,-19 0,0 211,0 211,-19"/>
<text text-anchor="middle" x="105.5" y="-7" font-family="Vera Sans, DejaVu Sans, Liberation Sans, Arial, Helvetica, sans" font-size="10.00" fill="#000000">pyVHDLModel.VHDLModel.NamedEntity</text>
</a>
</g>
</g>
<!-- pyVHDLModel.VHDLModel.NamedEntity&#45;&gt;pyVHDLModel.VHDLModel.BaseType -->
<g id="edge4" class="edge">
<title>pyVHDLModel.VHDLModel.NamedEntity&#45;&gt;pyVHDLModel.VHDLModel.BaseType</title>
<path fill="none" stroke="#000000" stroke-width=".5" d="M211.1511,-17.4737C221.2309,-18.2344 231.4421,-19.0051 241.4914,-19.7635"/>
<polygon fill="#000000" stroke="#000000" stroke-width=".5" points="241.6127,-21.5275 246.7302,-20.1589 241.8761,-18.0375 241.6127,-21.5275"/>
</g>
<!-- pyVHDLModel.VHDLModel.FullType&#45;&gt;pyVHDLModel.VHDLModel.ProtectedTypeBody -->
<g id="edge6" class="edge">
<title>pyVHDLModel.VHDLModel.FullType&#45;&gt;pyVHDLModel.VHDLModel.ProtectedTypeBody</title>
<path fill="none" stroke="#000000" stroke-width=".5" d="M663.2594,-27.5C673.251,-27.5 683.531,-27.5 693.8194,-27.5"/>
<polygon fill="#000000" stroke="#000000" stroke-width=".5" points="693.8696,-29.2501 698.8695,-27.5 693.8695,-25.7501 693.8696,-29.2501"/>
</g>
</g>
</svg>
