<?xml version="1.0" encoding="UTF-8" standalone="no"?>
<!DOCTYPE svg PUBLIC "-//W3C//DTD SVG 1.1//EN"
 "http://www.w3.org/Graphics/SVG/1.1/DTD/svg11.dtd">
<!-- Generated by graphviz version 2.40.1 (20161225.0304)
 -->
<!-- Title: inheritance55fef14a52 Pages: 1 -->
<svg width="576pt" height="35pt"
 viewBox="0.00 0.00 576.00 34.50" xmlns="http://www.w3.org/2000/svg" xmlns:xlink="http://www.w3.org/1999/xlink">
<g id="graph0" class="graph" transform="scale(.4207 .4207) rotate(0) translate(4 78)">
<title>inheritance55fef14a52</title>
<polygon fill="#ffffff" stroke="transparent" points="-4,4 -4,-78 1365,-78 1365,4 -4,4"/>
<!-- pyGHDL.dom.DOMMixin -->
<g id="node1" class="node">
<title>pyGHDL.dom.DOMMixin</title>
<g id="a_node1"><a xlink:href="../pyGHDL.dom.html#pyGHDL.dom.DOMMixin" xlink:title="pyGHDL.dom.DOMMixin" target="_top">
<polygon fill="none" stroke="#000000" stroke-width=".5" points="1125.5,-74 991.5,-74 991.5,-55 1125.5,-55 1125.5,-74"/>
<text text-anchor="middle" x="1058.5" y="-62" font-family="Vera Sans, DejaVu Sans, Liberation Sans, Arial, Helvetica, sans" font-size="10.00" fill="#000000">pyGHDL.dom.DOMMixin</text>
</a>
</g>
</g>
<!-- pyGHDL.dom.Type.RecordType -->
<g id="node2" class="node">
<title>pyGHDL.dom.Type.RecordType</title>
<g id="a_node2"><a xlink:href="../pyGHDL/pyGHDL.dom.Type.html#pyGHDL.dom.Type.RecordType" xlink:title="pyGHDL.dom.Type.RecordType" target="_top">
<polygon fill="none" stroke="#000000" stroke-width=".5" points="1361,-55 1196,-55 1196,-36 1361,-36 1361,-55"/>
<text text-anchor="middle" x="1278.5" y="-43" font-family="Vera Sans, DejaVu Sans, Liberation Sans, Arial, Helvetica, sans" font-size="10.00" fill="#000000">pyGHDL.dom.Type.RecordType</text>
</a>
</g>
</g>
<!-- pyGHDL.dom.DOMMixin&#45;&gt;pyGHDL.dom.Type.RecordType -->
<g id="edge2" class="edge">
<title>pyGHDL.dom.DOMMixin&#45;&gt;pyGHDL.dom.Type.RecordType</title>
<path fill="none" stroke="#000000" stroke-width=".5" d="M1125.7027,-58.6961C1146.175,-56.9281 1168.9904,-54.9576 1190.6163,-53.09"/>
<polygon fill="#000000" stroke="#000000" stroke-width=".5" points="1190.9618,-54.8167 1195.7927,-52.6429 1190.6606,-51.3297 1190.9618,-54.8167"/>
</g>
<!-- pyVHDLModel.VHDLModel.RecordType -->
<g id="node3" class="node">
<title>pyVHDLModel.VHDLModel.RecordType</title>
<polygon fill="none" stroke="#000000" stroke-width=".5" points="1160,-37 957,-37 957,-18 1160,-18 1160,-37"/>
<text text-anchor="middle" x="1058.5" y="-25" font-family="Vera Sans, DejaVu Sans, Liberation Sans, Arial, Helvetica, sans" font-size="10.00" fill="#000000">pyVHDLModel.VHDLModel.RecordType</text>
</g>
<!-- pyVHDLModel.VHDLModel.RecordType&#45;&gt;pyGHDL.dom.Type.RecordType -->
<g id="edge1" class="edge">
<title>pyVHDLModel.VHDLModel.RecordType&#45;&gt;pyGHDL.dom.Type.RecordType</title>
<path fill="none" stroke="#000000" stroke-width=".5" d="M1160.1283,-35.815C1170.2909,-36.6465 1180.5494,-37.4859 1190.5541,-38.3044"/>
<polygon fill="#000000" stroke="#000000" stroke-width=".5" points="1190.6348,-40.0668 1195.7609,-38.7304 1190.9203,-36.5784 1190.6348,-40.0668"/>
</g>
<!-- pyVHDLModel.VHDLModel.BaseType -->
<g id="node4" class="node">
<title>pyVHDLModel.VHDLModel.BaseType</title>
<g id="a_node4"><a xlink:title="``BaseType`` is the base class of all type entities in this model.">
<polygon fill="none" stroke="#000000" stroke-width=".5" points="441,-37 247,-37 247,-18 441,-18 441,-37"/>
<text text-anchor="middle" x="344" y="-25" font-family="Vera Sans, DejaVu Sans, Liberation Sans, Arial, Helvetica, sans" font-size="10.00" fill="#000000">pyVHDLModel.VHDLModel.BaseType</text>
</a>
</g>
</g>
<!-- pyVHDLModel.VHDLModel.FullType -->
<g id="node8" class="node">
<title>pyVHDLModel.VHDLModel.FullType</title>
<polygon fill="none" stroke="#000000" stroke-width=".5" points="663,-37 477,-37 477,-18 663,-18 663,-37"/>
<text text-anchor="middle" x="570" y="-25" font-family="Vera Sans, DejaVu Sans, Liberation Sans, Arial, Helvetica, sans" font-size="10.00" fill="#000000">pyVHDLModel.VHDLModel.FullType</text>
</g>
<!-- pyVHDLModel.VHDLModel.BaseType&#45;&gt;pyVHDLModel.VHDLModel.FullType -->
<g id="edge6" class="edge">
<title>pyVHDLModel.VHDLModel.BaseType&#45;&gt;pyVHDLModel.VHDLModel.FullType</title>
<path fill="none" stroke="#000000" stroke-width=".5" d="M441.1559,-27.5C451.2418,-27.5 461.4995,-27.5 471.599,-27.5"/>
<polygon fill="#000000" stroke="#000000" stroke-width=".5" points="471.8642,-29.2501 476.8642,-27.5 471.8641,-25.7501 471.8642,-29.2501"/>
</g>
<!-- pyVHDLModel.VHDLModel.ModelEntity -->
<g id="node5" class="node">
<title>pyVHDLModel.VHDLModel.ModelEntity</title>
<g id="a_node5"><a xlink:title="``ModelEntity`` is the base class for all classes in the VHDL language model,">
<polygon fill="none" stroke="#000000" stroke-width=".5" points="208,-56 3,-56 3,-37 208,-37 208,-56"/>
<text text-anchor="middle" x="105.5" y="-44" font-family="Vera Sans, DejaVu Sans, Liberation Sans, Arial, Helvetica, sans" font-size="10.00" fill="#000000">pyVHDLModel.VHDLModel.ModelEntity</text>
</a>
</g>
</g>
<!-- pyVHDLModel.VHDLModel.ModelEntity&#45;&gt;pyVHDLModel.VHDLModel.BaseType -->
<g id="edge3" class="edge">
<title>pyVHDLModel.VHDLModel.ModelEntity&#45;&gt;pyVHDLModel.VHDLModel.BaseType</title>
<path fill="none" stroke="#000000" stroke-width=".5" d="M208.0296,-38.332C219.1971,-37.4424 230.5642,-36.5368 241.7286,-35.6474"/>
<polygon fill="#000000" stroke="#000000" stroke-width=".5" points="241.9972,-37.3816 246.8424,-35.24 241.7192,-33.8927 241.9972,-37.3816"/>
</g>
<!-- pyVHDLModel.VHDLModel.NamedEntity -->
<g id="node6" class="node">
<title>pyVHDLModel.VHDLModel.NamedEntity</title>
<g id="a_node6"><a xlink:title="A ``NamedEntity`` is a mixin class for all VHDL entities that have identifiers.">
<polygon fill="none" stroke="#000000" stroke-width=".5" points="211,-19 0,-19 0,0 211,0 211,-19"/>
<text text-anchor="middle" x="105.5" y="-7" font-family="Vera Sans, DejaVu Sans, Liberation Sans, Arial, Helvetica, sans" font-size="10.00" fill="#000000">pyVHDLModel.VHDLModel.NamedEntity</text>
</a>
</g>
</g>
<!-- pyVHDLModel.VHDLModel.NamedEntity&#45;&gt;pyVHDLModel.VHDLModel.BaseType -->
<g id="edge4" class="edge">
<title>pyVHDLModel.VHDLModel.NamedEntity&#45;&gt;pyVHDLModel.VHDLModel.BaseType</title>
<path fill="none" stroke="#000000" stroke-width=".5" d="M211.1511,-17.4737C221.2309,-18.2344 231.4421,-19.0051 241.4914,-19.7635"/>
<polygon fill="#000000" stroke="#000000" stroke-width=".5" points="241.6127,-21.5275 246.7302,-20.1589 241.8761,-18.0375 241.6127,-21.5275"/>
</g>
<!-- pyVHDLModel.VHDLModel.CompositeType -->
<g id="node7" class="node">
<title>pyVHDLModel.VHDLModel.CompositeType</title>
<g id="a_node7"><a xlink:title="A ``CompositeType`` is a base&#45;class for all composite types.">
<polygon fill="none" stroke="#000000" stroke-width=".5" points="921,-37 699,-37 699,-18 921,-18 921,-37"/>
<text text-anchor="middle" x="810" y="-25" font-family="Vera Sans, DejaVu Sans, Liberation Sans, Arial, Helvetica, sans" font-size="10.00" fill="#000000">pyVHDLModel.VHDLModel.CompositeType</text>
</a>
</g>
</g>
<!-- pyVHDLModel.VHDLModel.CompositeType&#45;&gt;pyVHDLModel.VHDLModel.RecordType -->
<g id="edge7" class="edge">
<title>pyVHDLModel.VHDLModel.CompositeType&#45;&gt;pyVHDLModel.VHDLModel.RecordType</title>
<path fill="none" stroke="#000000" stroke-width=".5" d="M921.1671,-27.5C931.2913,-27.5 941.5326,-27.5 951.6182,-27.5"/>
<polygon fill="#000000" stroke="#000000" stroke-width=".5" points="951.8767,-29.2501 956.8766,-27.5 951.8766,-25.7501 951.8767,-29.2501"/>
</g>
<!-- pyVHDLModel.VHDLModel.FullType&#45;&gt;pyVHDLModel.VHDLModel.CompositeType -->
<g id="edge5" class="edge">
<title>pyVHDLModel.VHDLModel.FullType&#45;&gt;pyVHDLModel.VHDLModel.CompositeType</title>
<path fill="none" stroke="#000000" stroke-width=".5" d="M663.1338,-27.5C673.2115,-27.5 683.5558,-27.5 693.862,-27.5"/>
<polygon fill="#000000" stroke="#000000" stroke-width=".5" points="693.9171,-29.2501 698.917,-27.5 693.917,-25.7501 693.9171,-29.2501"/>
</g>
</g>
</svg>
