<?xml version="1.0" encoding="UTF-8" standalone="no"?>
<!DOCTYPE svg PUBLIC "-//W3C//DTD SVG 1.1//EN"
 "http://www.w3.org/Graphics/SVG/1.1/DTD/svg11.dtd">
<!-- Generated by graphviz version 2.40.1 (20161225.0304)
 -->
<!-- Title: inheritancefa0791d00c Pages: 1 -->
<svg width="576pt" height="27pt"
 viewBox="0.00 0.00 576.00 27.19" xmlns="http://www.w3.org/2000/svg" xmlns:xlink="http://www.w3.org/1999/xlink">
<g id="graph0" class="graph" transform="scale(.4248 .4248) rotate(0) translate(4 60)">
<title>inheritancefa0791d00c</title>
<polygon fill="#ffffff" stroke="transparent" points="-4,4 -4,-60 1352,-60 1352,4 -4,4"/>
<!-- pyGHDL.dom.DOMMixin -->
<g id="node1" class="node">
<title>pyGHDL.dom.DOMMixin</title>
<g id="a_node1"><a xlink:href="../pyGHDL.dom.html#pyGHDL.dom.DOMMixin" xlink:title="pyGHDL.dom.DOMMixin" target="_top">
<polygon fill="none" stroke="#000000" stroke-width=".5" points="946.5,-56 812.5,-56 812.5,-37 946.5,-37 946.5,-56"/>
<text text-anchor="middle" x="879.5" y="-44" font-family="Vera Sans, DejaVu Sans, Liberation Sans, Arial, Helvetica, sans" font-size="10.00" fill="#000000">pyGHDL.dom.DOMMixin</text>
</a>
</g>
</g>
<!-- pyGHDL.dom.Expression.QualifiedExpressionAllocation -->
<g id="node2" class="node">
<title>pyGHDL.dom.Expression.QualifiedExpressionAllocation</title>
<g id="a_node2"><a xlink:href="../pyGHDL/pyGHDL.dom.Expression.html#pyGHDL.dom.Expression.QualifiedExpressionAllocation" xlink:title="pyGHDL.dom.Expression.QualifiedExpressionAllocation" target="_top">
<polygon fill="none" stroke="#000000" stroke-width=".5" points="1348,-37 1062,-37 1062,-18 1348,-18 1348,-37"/>
<text text-anchor="middle" x="1205" y="-25" font-family="Vera Sans, DejaVu Sans, Liberation Sans, Arial, Helvetica, sans" font-size="10.00" fill="#000000">pyGHDL.dom.Expression.QualifiedExpressionAllocation</text>
</a>
</g>
</g>
<!-- pyGHDL.dom.DOMMixin&#45;&gt;pyGHDL.dom.Expression.QualifiedExpressionAllocation -->
<g id="edge2" class="edge">
<title>pyGHDL.dom.DOMMixin&#45;&gt;pyGHDL.dom.Expression.QualifiedExpressionAllocation</title>
<path fill="none" stroke="#000000" stroke-width=".5" d="M946.5491,-42.5862C978.5196,-40.7201 1018.1316,-38.4078 1056.6582,-36.159"/>
<polygon fill="#000000" stroke="#000000" stroke-width=".5" points="1056.9506,-37.895 1061.8401,-35.8565 1056.7466,-34.4009 1056.9506,-37.895"/>
</g>
<!-- pyVHDLModel.VHDLModel.QualifiedExpressionAllocation -->
<g id="node3" class="node">
<title>pyVHDLModel.VHDLModel.QualifiedExpressionAllocation</title>
<polygon fill="none" stroke="#000000" stroke-width=".5" points="1026,-19 733,-19 733,0 1026,0 1026,-19"/>
<text text-anchor="middle" x="879.5" y="-7" font-family="Vera Sans, DejaVu Sans, Liberation Sans, Arial, Helvetica, sans" font-size="10.00" fill="#000000">pyVHDLModel.VHDLModel.QualifiedExpressionAllocation</text>
</g>
<!-- pyVHDLModel.VHDLModel.QualifiedExpressionAllocation&#45;&gt;pyGHDL.dom.Expression.QualifiedExpressionAllocation -->
<g id="edge1" class="edge">
<title>pyVHDLModel.VHDLModel.QualifiedExpressionAllocation&#45;&gt;pyGHDL.dom.Expression.QualifiedExpressionAllocation</title>
<path fill="none" stroke="#000000" stroke-width=".5" d="M1026.0624,-17.6048C1036.2858,-18.1702 1046.5953,-18.7403 1056.8273,-19.3061"/>
<polygon fill="#000000" stroke="#000000" stroke-width=".5" points="1056.7543,-21.0547 1061.8433,-19.5835 1056.9476,-17.56 1056.7543,-21.0547"/>
</g>
<!-- pyVHDLModel.VHDLModel.Allocation -->
<g id="node4" class="node">
<title>pyVHDLModel.VHDLModel.Allocation</title>
<polygon fill="none" stroke="#000000" stroke-width=".5" points="697,-19 501,-19 501,0 697,0 697,-19"/>
<text text-anchor="middle" x="599" y="-7" font-family="Vera Sans, DejaVu Sans, Liberation Sans, Arial, Helvetica, sans" font-size="10.00" fill="#000000">pyVHDLModel.VHDLModel.Allocation</text>
</g>
<!-- pyVHDLModel.VHDLModel.Allocation&#45;&gt;pyVHDLModel.VHDLModel.QualifiedExpressionAllocation -->
<g id="edge5" class="edge">
<title>pyVHDLModel.VHDLModel.Allocation&#45;&gt;pyVHDLModel.VHDLModel.QualifiedExpressionAllocation</title>
<path fill="none" stroke="#000000" stroke-width=".5" d="M697.1053,-9.5C707.0164,-9.5 717.237,-9.5 727.5425,-9.5"/>
<polygon fill="#000000" stroke="#000000" stroke-width=".5" points="727.6074,-11.2501 732.6074,-9.5 727.6073,-7.7501 727.6074,-11.2501"/>
</g>
<!-- pyVHDLModel.VHDLModel.BaseExpression -->
<g id="node5" class="node">
<title>pyVHDLModel.VHDLModel.BaseExpression</title>
<g id="a_node5"><a xlink:title="A ``BaseExpression`` is a base&#45;class for all expressions.">
<polygon fill="none" stroke="#000000" stroke-width=".5" points="465,-19 241,-19 241,0 465,0 465,-19"/>
<text text-anchor="middle" x="353" y="-7" font-family="Vera Sans, DejaVu Sans, Liberation Sans, Arial, Helvetica, sans" font-size="10.00" fill="#000000">pyVHDLModel.VHDLModel.BaseExpression</text>
</a>
</g>
</g>
<!-- pyVHDLModel.VHDLModel.BaseExpression&#45;&gt;pyVHDLModel.VHDLModel.Allocation -->
<g id="edge3" class="edge">
<title>pyVHDLModel.VHDLModel.BaseExpression&#45;&gt;pyVHDLModel.VHDLModel.Allocation</title>
<path fill="none" stroke="#000000" stroke-width=".5" d="M465.2018,-9.5C475.3453,-9.5 485.5874,-9.5 495.6495,-9.5"/>
<polygon fill="#000000" stroke="#000000" stroke-width=".5" points="495.8934,-11.2501 500.8934,-9.5 495.8933,-7.7501 495.8934,-11.2501"/>
</g>
<!-- pyVHDLModel.VHDLModel.ModelEntity -->
<g id="node6" class="node">
<title>pyVHDLModel.VHDLModel.ModelEntity</title>
<g id="a_node6"><a xlink:title="``ModelEntity`` is the base class for all classes in the VHDL language model,">
<polygon fill="none" stroke="#000000" stroke-width=".5" points="205,-19 0,-19 0,0 205,0 205,-19"/>
<text text-anchor="middle" x="102.5" y="-7" font-family="Vera Sans, DejaVu Sans, Liberation Sans, Arial, Helvetica, sans" font-size="10.00" fill="#000000">pyVHDLModel.VHDLModel.ModelEntity</text>
</a>
</g>
</g>
<!-- pyVHDLModel.VHDLModel.ModelEntity&#45;&gt;pyVHDLModel.VHDLModel.BaseExpression -->
<g id="edge4" class="edge">
<title>pyVHDLModel.VHDLModel.ModelEntity&#45;&gt;pyVHDLModel.VHDLModel.BaseExpression</title>
<path fill="none" stroke="#000000" stroke-width=".5" d="M205.1107,-9.5C215.2127,-9.5 225.5179,-9.5 235.7516,-9.5"/>
<polygon fill="#000000" stroke="#000000" stroke-width=".5" points="235.7685,-11.2501 240.7685,-9.5 235.7684,-7.7501 235.7685,-11.2501"/>
</g>
</g>
</svg>
