<?xml version="1.0" encoding="UTF-8" standalone="no"?>
<!DOCTYPE svg PUBLIC "-//W3C//DTD SVG 1.1//EN"
 "http://www.w3.org/Graphics/SVG/1.1/DTD/svg11.dtd">
<!-- Generated by graphviz version 2.40.1 (20161225.0304)
 -->
<!-- Title: inheritance7fcc0d7335 Pages: 1 -->
<svg width="576pt" height="55pt"
 viewBox="0.00 0.00 576.00 55.11" xmlns="http://www.w3.org/2000/svg" xmlns:xlink="http://www.w3.org/1999/xlink">
<g id="graph0" class="graph" transform="scale(.6721 .6721) rotate(0) translate(4 78)">
<title>inheritance7fcc0d7335</title>
<polygon fill="#ffffff" stroke="transparent" points="-4,4 -4,-78 853,-78 853,4 -4,4"/>
<!-- pyGHDL.dom.DOMMixin -->
<g id="node1" class="node">
<title>pyGHDL.dom.DOMMixin</title>
<g id="a_node1"><a xlink:href="../pyGHDL.dom.html#pyGHDL.dom.DOMMixin" xlink:title="pyGHDL.dom.DOMMixin" target="_top">
<polygon fill="none" stroke="#000000" stroke-width=".5" points="637.5,-74 503.5,-74 503.5,-55 637.5,-55 637.5,-74"/>
<text text-anchor="middle" x="570.5" y="-62" font-family="Vera Sans, DejaVu Sans, Liberation Sans, Arial, Helvetica, sans" font-size="10.00" fill="#000000">pyGHDL.dom.DOMMixin</text>
</a>
</g>
</g>
<!-- pyGHDL.dom.Type.Subtype -->
<g id="node2" class="node">
<title>pyGHDL.dom.Type.Subtype</title>
<g id="a_node2"><a xlink:href="../pyGHDL/pyGHDL.dom.Type.html#pyGHDL.dom.Type.Subtype" xlink:title="pyGHDL.dom.Type.Subtype" target="_top">
<polygon fill="none" stroke="#000000" stroke-width=".5" points="849,-55 700,-55 700,-36 849,-36 849,-55"/>
<text text-anchor="middle" x="774.5" y="-43" font-family="Vera Sans, DejaVu Sans, Liberation Sans, Arial, Helvetica, sans" font-size="10.00" fill="#000000">pyGHDL.dom.Type.Subtype</text>
</a>
</g>
</g>
<!-- pyGHDL.dom.DOMMixin&#45;&gt;pyGHDL.dom.Type.Subtype -->
<g id="edge2" class="edge">
<title>pyGHDL.dom.DOMMixin&#45;&gt;pyGHDL.dom.Type.Subtype</title>
<path fill="none" stroke="#000000" stroke-width=".5" d="M637.5798,-58.2524C655.8375,-56.5519 675.7928,-54.6933 694.6816,-52.9341"/>
<polygon fill="#000000" stroke="#000000" stroke-width=".5" points="695.1625,-54.6469 699.9786,-52.4407 694.8378,-51.162 695.1625,-54.6469"/>
</g>
<!-- pyVHDLModel.VHDLModel.Subtype -->
<g id="node3" class="node">
<title>pyVHDLModel.VHDLModel.Subtype</title>
<polygon fill="none" stroke="#000000" stroke-width=".5" points="664,-37 477,-37 477,-18 664,-18 664,-37"/>
<text text-anchor="middle" x="570.5" y="-25" font-family="Vera Sans, DejaVu Sans, Liberation Sans, Arial, Helvetica, sans" font-size="10.00" fill="#000000">pyVHDLModel.VHDLModel.Subtype</text>
</g>
<!-- pyVHDLModel.VHDLModel.Subtype&#45;&gt;pyGHDL.dom.Type.Subtype -->
<g id="edge1" class="edge">
<title>pyVHDLModel.VHDLModel.Subtype&#45;&gt;pyGHDL.dom.Type.Subtype</title>
<path fill="none" stroke="#000000" stroke-width=".5" d="M664.1412,-35.7625C674.3094,-36.6596 684.5891,-37.5667 694.5725,-38.4476"/>
<polygon fill="#000000" stroke="#000000" stroke-width=".5" points="694.6296,-40.2093 699.7641,-38.9057 694.9373,-36.7229 694.6296,-40.2093"/>
</g>
<!-- pyVHDLModel.VHDLModel.BaseType -->
<g id="node4" class="node">
<title>pyVHDLModel.VHDLModel.BaseType</title>
<g id="a_node4"><a xlink:title="``BaseType`` is the base class of all type entities in this model.">
<polygon fill="none" stroke="#000000" stroke-width=".5" points="441,-37 247,-37 247,-18 441,-18 441,-37"/>
<text text-anchor="middle" x="344" y="-25" font-family="Vera Sans, DejaVu Sans, Liberation Sans, Arial, Helvetica, sans" font-size="10.00" fill="#000000">pyVHDLModel.VHDLModel.BaseType</text>
</a>
</g>
</g>
<!-- pyVHDLModel.VHDLModel.BaseType&#45;&gt;pyVHDLModel.VHDLModel.Subtype -->
<g id="edge5" class="edge">
<title>pyVHDLModel.VHDLModel.BaseType&#45;&gt;pyVHDLModel.VHDLModel.Subtype</title>
<path fill="none" stroke="#000000" stroke-width=".5" d="M441.0421,-27.5C451.2574,-27.5 461.6524,-27.5 471.8853,-27.5"/>
<polygon fill="#000000" stroke="#000000" stroke-width=".5" points="471.8942,-29.2501 476.8942,-27.5 471.8941,-25.7501 471.8942,-29.2501"/>
</g>
<!-- pyVHDLModel.VHDLModel.ModelEntity -->
<g id="node5" class="node">
<title>pyVHDLModel.VHDLModel.ModelEntity</title>
<g id="a_node5"><a xlink:title="``ModelEntity`` is the base class for all classes in the VHDL language model,">
<polygon fill="none" stroke="#000000" stroke-width=".5" points="208,-56 3,-56 3,-37 208,-37 208,-56"/>
<text text-anchor="middle" x="105.5" y="-44" font-family="Vera Sans, DejaVu Sans, Liberation Sans, Arial, Helvetica, sans" font-size="10.00" fill="#000000">pyVHDLModel.VHDLModel.ModelEntity</text>
</a>
</g>
</g>
<!-- pyVHDLModel.VHDLModel.ModelEntity&#45;&gt;pyVHDLModel.VHDLModel.BaseType -->
<g id="edge3" class="edge">
<title>pyVHDLModel.VHDLModel.ModelEntity&#45;&gt;pyVHDLModel.VHDLModel.BaseType</title>
<path fill="none" stroke="#000000" stroke-width=".5" d="M208.0296,-38.332C219.1971,-37.4424 230.5642,-36.5368 241.7286,-35.6474"/>
<polygon fill="#000000" stroke="#000000" stroke-width=".5" points="241.9972,-37.3816 246.8424,-35.24 241.7192,-33.8927 241.9972,-37.3816"/>
</g>
<!-- pyVHDLModel.VHDLModel.NamedEntity -->
<g id="node6" class="node">
<title>pyVHDLModel.VHDLModel.NamedEntity</title>
<g id="a_node6"><a xlink:title="A ``NamedEntity`` is a mixin class for all VHDL entities that have identifiers.">
<polygon fill="none" stroke="#000000" stroke-width=".5" points="211,-19 0,-19 0,0 211,0 211,-19"/>
<text text-anchor="middle" x="105.5" y="-7" font-family="Vera Sans, DejaVu Sans, Liberation Sans, Arial, Helvetica, sans" font-size="10.00" fill="#000000">pyVHDLModel.VHDLModel.NamedEntity</text>
</a>
</g>
</g>
<!-- pyVHDLModel.VHDLModel.NamedEntity&#45;&gt;pyVHDLModel.VHDLModel.BaseType -->
<g id="edge4" class="edge">
<title>pyVHDLModel.VHDLModel.NamedEntity&#45;&gt;pyVHDLModel.VHDLModel.BaseType</title>
<path fill="none" stroke="#000000" stroke-width=".5" d="M211.1511,-17.4737C221.2309,-18.2344 231.4421,-19.0051 241.4914,-19.7635"/>
<polygon fill="#000000" stroke="#000000" stroke-width=".5" points="241.6127,-21.5275 246.7302,-20.1589 241.8761,-18.0375 241.6127,-21.5275"/>
</g>
</g>
</svg>
