<?xml version="1.0" encoding="UTF-8" standalone="no"?>
<!DOCTYPE svg PUBLIC "-//W3C//DTD SVG 1.1//EN"
 "http://www.w3.org/Graphics/SVG/1.1/DTD/svg11.dtd">
<!-- Generated by graphviz version 2.40.1 (20161225.0304)
 -->
<!-- Title: inheritancee08022425f Pages: 1 -->
<svg width="576pt" height="28pt"
 viewBox="0.00 0.00 576.00 28.49" xmlns="http://www.w3.org/2000/svg" xmlns:xlink="http://www.w3.org/1999/xlink">
<g id="graph0" class="graph" transform="scale(.4451 .4451) rotate(0) translate(4 60)">
<title>inheritancee08022425f</title>
<polygon fill="#ffffff" stroke="transparent" points="-4,4 -4,-60 1290,-60 1290,4 -4,4"/>
<!-- pyGHDL.dom.DOMMixin -->
<g id="node1" class="node">
<title>pyGHDL.dom.DOMMixin</title>
<g id="a_node1"><a xlink:href="../pyGHDL.dom.html#pyGHDL.dom.DOMMixin" xlink:title="pyGHDL.dom.DOMMixin" target="_top">
<polygon fill="none" stroke="#000000" stroke-width=".5" points="956.5,-56 822.5,-56 822.5,-37 956.5,-37 956.5,-56"/>
<text text-anchor="middle" x="889.5" y="-44" font-family="Vera Sans, DejaVu Sans, Liberation Sans, Arial, Helvetica, sans" font-size="10.00" fill="#000000">pyGHDL.dom.DOMMixin</text>
</a>
</g>
</g>
<!-- pyGHDL.dom.Expression.NegationExpression -->
<g id="node2" class="node">
<title>pyGHDL.dom.Expression.NegationExpression</title>
<g id="a_node2"><a xlink:href="../pyGHDL/pyGHDL.dom.Expression.html#pyGHDL.dom.Expression.NegationExpression" xlink:title="pyGHDL.dom.Expression.NegationExpression" target="_top">
<polygon fill="none" stroke="#000000" stroke-width=".5" points="1286,-37 1048,-37 1048,-18 1286,-18 1286,-37"/>
<text text-anchor="middle" x="1167" y="-25" font-family="Vera Sans, DejaVu Sans, Liberation Sans, Arial, Helvetica, sans" font-size="10.00" fill="#000000">pyGHDL.dom.Expression.NegationExpression</text>
</a>
</g>
</g>
<!-- pyGHDL.dom.DOMMixin&#45;&gt;pyGHDL.dom.Expression.NegationExpression -->
<g id="edge2" class="edge">
<title>pyGHDL.dom.DOMMixin&#45;&gt;pyGHDL.dom.Expression.NegationExpression</title>
<path fill="none" stroke="#000000" stroke-width=".5" d="M956.675,-41.9006C982.6041,-40.1253 1013.1255,-38.0356 1042.7548,-36.0069"/>
<polygon fill="#000000" stroke="#000000" stroke-width=".5" points="1043.0184,-37.743 1047.8871,-35.6555 1042.7792,-34.2512 1043.0184,-37.743"/>
</g>
<!-- pyVHDLModel.VHDLModel.NegationExpression -->
<g id="node3" class="node">
<title>pyVHDLModel.VHDLModel.NegationExpression</title>
<polygon fill="none" stroke="#000000" stroke-width=".5" points="1012,-19 767,-19 767,0 1012,0 1012,-19"/>
<text text-anchor="middle" x="889.5" y="-7" font-family="Vera Sans, DejaVu Sans, Liberation Sans, Arial, Helvetica, sans" font-size="10.00" fill="#000000">pyVHDLModel.VHDLModel.NegationExpression</text>
</g>
<!-- pyVHDLModel.VHDLModel.NegationExpression&#45;&gt;pyGHDL.dom.Expression.NegationExpression -->
<g id="edge1" class="edge">
<title>pyVHDLModel.VHDLModel.NegationExpression&#45;&gt;pyGHDL.dom.Expression.NegationExpression</title>
<path fill="none" stroke="#000000" stroke-width=".5" d="M1012.0233,-17.4475C1022.2548,-18.1111 1032.6057,-18.7825 1042.8492,-19.447"/>
<polygon fill="#000000" stroke="#000000" stroke-width=".5" points="1042.7654,-21.1951 1047.8682,-19.7725 1042.992,-17.7025 1042.7654,-21.1951"/>
</g>
<!-- pyVHDLModel.VHDLModel.BaseExpression -->
<g id="node4" class="node">
<title>pyVHDLModel.VHDLModel.BaseExpression</title>
<g id="a_node4"><a xlink:title="A ``BaseExpression`` is a base&#45;class for all expressions.">
<polygon fill="none" stroke="#000000" stroke-width=".5" points="465,-19 241,-19 241,0 465,0 465,-19"/>
<text text-anchor="middle" x="353" y="-7" font-family="Vera Sans, DejaVu Sans, Liberation Sans, Arial, Helvetica, sans" font-size="10.00" fill="#000000">pyVHDLModel.VHDLModel.BaseExpression</text>
</a>
</g>
</g>
<!-- pyVHDLModel.VHDLModel.UnaryExpression -->
<g id="node6" class="node">
<title>pyVHDLModel.VHDLModel.UnaryExpression</title>
<g id="a_node6"><a xlink:title="A ``UnaryExpression`` is a base&#45;class for all unary expressions.">
<polygon fill="none" stroke="#000000" stroke-width=".5" points="731,-19 501,-19 501,0 731,0 731,-19"/>
<text text-anchor="middle" x="616" y="-7" font-family="Vera Sans, DejaVu Sans, Liberation Sans, Arial, Helvetica, sans" font-size="10.00" fill="#000000">pyVHDLModel.VHDLModel.UnaryExpression</text>
</a>
</g>
</g>
<!-- pyVHDLModel.VHDLModel.BaseExpression&#45;&gt;pyVHDLModel.VHDLModel.UnaryExpression -->
<g id="edge5" class="edge">
<title>pyVHDLModel.VHDLModel.BaseExpression&#45;&gt;pyVHDLModel.VHDLModel.UnaryExpression</title>
<path fill="none" stroke="#000000" stroke-width=".5" d="M465.2985,-9.5C475.2853,-9.5 485.4231,-9.5 495.4748,-9.5"/>
<polygon fill="#000000" stroke="#000000" stroke-width=".5" points="495.7221,-11.2501 500.7221,-9.5 495.7221,-7.7501 495.7221,-11.2501"/>
</g>
<!-- pyVHDLModel.VHDLModel.ModelEntity -->
<g id="node5" class="node">
<title>pyVHDLModel.VHDLModel.ModelEntity</title>
<g id="a_node5"><a xlink:title="``ModelEntity`` is the base class for all classes in the VHDL language model,">
<polygon fill="none" stroke="#000000" stroke-width=".5" points="205,-19 0,-19 0,0 205,0 205,-19"/>
<text text-anchor="middle" x="102.5" y="-7" font-family="Vera Sans, DejaVu Sans, Liberation Sans, Arial, Helvetica, sans" font-size="10.00" fill="#000000">pyVHDLModel.VHDLModel.ModelEntity</text>
</a>
</g>
</g>
<!-- pyVHDLModel.VHDLModel.ModelEntity&#45;&gt;pyVHDLModel.VHDLModel.BaseExpression -->
<g id="edge3" class="edge">
<title>pyVHDLModel.VHDLModel.ModelEntity&#45;&gt;pyVHDLModel.VHDLModel.BaseExpression</title>
<path fill="none" stroke="#000000" stroke-width=".5" d="M205.1107,-9.5C215.2127,-9.5 225.5179,-9.5 235.7516,-9.5"/>
<polygon fill="#000000" stroke="#000000" stroke-width=".5" points="235.7685,-11.2501 240.7685,-9.5 235.7684,-7.7501 235.7685,-11.2501"/>
</g>
<!-- pyVHDLModel.VHDLModel.UnaryExpression&#45;&gt;pyVHDLModel.VHDLModel.NegationExpression -->
<g id="edge4" class="edge">
<title>pyVHDLModel.VHDLModel.UnaryExpression&#45;&gt;pyVHDLModel.VHDLModel.NegationExpression</title>
<path fill="none" stroke="#000000" stroke-width=".5" d="M731.1959,-9.5C741.358,-9.5 751.683,-9.5 761.9388,-9.5"/>
<polygon fill="#000000" stroke="#000000" stroke-width=".5" points="761.9669,-11.2501 766.9669,-9.5 761.9668,-7.7501 761.9669,-11.2501"/>
</g>
</g>
</svg>
