<?xml version="1.0" encoding="UTF-8" standalone="no"?>
<!DOCTYPE svg PUBLIC "-//W3C//DTD SVG 1.1//EN"
 "http://www.w3.org/Graphics/SVG/1.1/DTD/svg11.dtd">
<!-- Generated by graphviz version 2.40.1 (20161225.0304)
 -->
<!-- Title: inheritance0b19ab940b Pages: 1 -->
<svg width="576pt" height="52pt"
 viewBox="0.00 0.00 576.00 52.19" xmlns="http://www.w3.org/2000/svg" xmlns:xlink="http://www.w3.org/1999/xlink">
<g id="graph0" class="graph" transform="scale(.3782 .3782) rotate(0) translate(4 134)">
<title>inheritance0b19ab940b</title>
<polygon fill="#ffffff" stroke="transparent" points="-4,4 -4,-134 1519,-134 1519,4 -4,4"/>
<!-- pyGHDL.dom.DOMMixin -->
<g id="node1" class="node">
<title>pyGHDL.dom.DOMMixin</title>
<g id="a_node1"><a xlink:href="../pyGHDL.dom.html#pyGHDL.dom.DOMMixin" xlink:title="pyGHDL.dom.DOMMixin" target="_top">
<polygon fill="none" stroke="#000000" stroke-width=".5" points="1085.5,-130 951.5,-130 951.5,-111 1085.5,-111 1085.5,-130"/>
<text text-anchor="middle" x="1018.5" y="-118" font-family="Vera Sans, DejaVu Sans, Liberation Sans, Arial, Helvetica, sans" font-size="10.00" fill="#000000">pyGHDL.dom.DOMMixin</text>
</a>
</g>
</g>
<!-- pyGHDL.dom.InterfaceItem.ParameterVariableInterfaceItem -->
<g id="node2" class="node">
<title>pyGHDL.dom.InterfaceItem.ParameterVariableInterfaceItem</title>
<g id="a_node2"><a xlink:href="../pyGHDL/pyGHDL.dom.InterfaceItem.html#pyGHDL.dom.InterfaceItem.ParameterVariableInterfaceItem" xlink:title="pyGHDL.dom.InterfaceItem.ParameterVariableInterfaceItem" target="_top">
<polygon fill="none" stroke="#000000" stroke-width=".5" points="1515,-111 1206,-111 1206,-92 1515,-92 1515,-111"/>
<text text-anchor="middle" x="1360.5" y="-99" font-family="Vera Sans, DejaVu Sans, Liberation Sans, Arial, Helvetica, sans" font-size="10.00" fill="#000000">pyGHDL.dom.InterfaceItem.ParameterVariableInterfaceItem</text>
</a>
</g>
</g>
<!-- pyGHDL.dom.DOMMixin&#45;&gt;pyGHDL.dom.InterfaceItem.ParameterVariableInterfaceItem -->
<g id="edge2" class="edge">
<title>pyGHDL.dom.DOMMixin&#45;&gt;pyGHDL.dom.InterfaceItem.ParameterVariableInterfaceItem</title>
<path fill="none" stroke="#000000" stroke-width=".5" d="M1085.6601,-116.7689C1118.6125,-114.9382 1159.8446,-112.6475 1200.2707,-110.4016"/>
<polygon fill="#000000" stroke="#000000" stroke-width=".5" points="1200.815,-112.1242 1205.7102,-110.0994 1200.6208,-108.6296 1200.815,-112.1242"/>
</g>
<!-- pyVHDLModel.VHDLModel.ParameterVariableInterfaceItem -->
<g id="node3" class="node">
<title>pyVHDLModel.VHDLModel.ParameterVariableInterfaceItem</title>
<polygon fill="none" stroke="#000000" stroke-width=".5" points="1170,-93 867,-93 867,-74 1170,-74 1170,-93"/>
<text text-anchor="middle" x="1018.5" y="-81" font-family="Vera Sans, DejaVu Sans, Liberation Sans, Arial, Helvetica, sans" font-size="10.00" fill="#000000">pyVHDLModel.VHDLModel.ParameterVariableInterfaceItem</text>
</g>
<!-- pyVHDLModel.VHDLModel.ParameterVariableInterfaceItem&#45;&gt;pyGHDL.dom.InterfaceItem.ParameterVariableInterfaceItem -->
<g id="edge1" class="edge">
<title>pyVHDLModel.VHDLModel.ParameterVariableInterfaceItem&#45;&gt;pyGHDL.dom.InterfaceItem.ParameterVariableInterfaceItem</title>
<path fill="none" stroke="#000000" stroke-width=".5" d="M1170.4978,-91.4999C1180.5244,-92.0276 1190.6391,-92.56 1200.7019,-93.0896"/>
<polygon fill="#000000" stroke="#000000" stroke-width=".5" points="1200.8736,-94.8509 1205.9587,-93.3662 1201.0576,-91.3558 1200.8736,-94.8509"/>
</g>
<!-- pyVHDLModel.VHDLModel.InterfaceItem -->
<g id="node4" class="node">
<title>pyVHDLModel.VHDLModel.InterfaceItem</title>
<g id="a_node4"><a xlink:title="An ``InterfaceItem`` is a base&#45;class for all mixin&#45;classes for all interface">
<polygon fill="none" stroke="#000000" stroke-width=".5" points="496,-93 283,-93 283,-74 496,-74 496,-93"/>
<text text-anchor="middle" x="389.5" y="-81" font-family="Vera Sans, DejaVu Sans, Liberation Sans, Arial, Helvetica, sans" font-size="10.00" fill="#000000">pyVHDLModel.VHDLModel.InterfaceItem</text>
</a>
</g>
</g>
<!-- pyVHDLModel.VHDLModel.ParameterInterfaceItem -->
<g id="node9" class="node">
<title>pyVHDLModel.VHDLModel.ParameterInterfaceItem</title>
<g id="a_node9"><a xlink:title="A ``ParameterInterfaceItem`` is a mixin class for all parameter interface items.">
<polygon fill="none" stroke="#000000" stroke-width=".5" points="831,-93 568,-93 568,-74 831,-74 831,-93"/>
<text text-anchor="middle" x="699.5" y="-81" font-family="Vera Sans, DejaVu Sans, Liberation Sans, Arial, Helvetica, sans" font-size="10.00" fill="#000000">pyVHDLModel.VHDLModel.ParameterInterfaceItem</text>
</a>
</g>
</g>
<!-- pyVHDLModel.VHDLModel.InterfaceItem&#45;&gt;pyVHDLModel.VHDLModel.ParameterInterfaceItem -->
<g id="edge5" class="edge">
<title>pyVHDLModel.VHDLModel.InterfaceItem&#45;&gt;pyVHDLModel.VHDLModel.ParameterInterfaceItem</title>
<path fill="none" stroke="#000000" stroke-width=".5" d="M496.1844,-83.5C517.6774,-83.5 540.5476,-83.5 562.9,-83.5"/>
<polygon fill="#000000" stroke="#000000" stroke-width=".5" points="562.9619,-85.2501 567.9619,-83.5 562.9618,-81.7501 562.9619,-85.2501"/>
</g>
<!-- pyVHDLModel.VHDLModel.InterfaceItemWithMode -->
<g id="node5" class="node">
<title>pyVHDLModel.VHDLModel.InterfaceItemWithMode</title>
<g id="a_node5"><a xlink:title="An ``InterfaceItemWithMode`` is a mixin&#45;class to provide a ``Mode`` to">
<polygon fill="none" stroke="#000000" stroke-width=".5" points="830.5,-130 568.5,-130 568.5,-111 830.5,-111 830.5,-130"/>
<text text-anchor="middle" x="699.5" y="-118" font-family="Vera Sans, DejaVu Sans, Liberation Sans, Arial, Helvetica, sans" font-size="10.00" fill="#000000">pyVHDLModel.VHDLModel.InterfaceItemWithMode</text>
</a>
</g>
</g>
<!-- pyVHDLModel.VHDLModel.InterfaceItemWithMode&#45;&gt;pyVHDLModel.VHDLModel.ParameterVariableInterfaceItem -->
<g id="edge8" class="edge">
<title>pyVHDLModel.VHDLModel.InterfaceItemWithMode&#45;&gt;pyVHDLModel.VHDLModel.ParameterVariableInterfaceItem</title>
<path fill="none" stroke="#000000" stroke-width=".5" d="M781.6504,-110.9716C827.5149,-105.6519 884.6381,-99.0263 931.2939,-93.6148"/>
<polygon fill="#000000" stroke="#000000" stroke-width=".5" points="931.5861,-95.3427 936.3512,-93.0282 931.1828,-91.866 931.5861,-95.3427"/>
</g>
<!-- pyVHDLModel.VHDLModel.ModelEntity -->
<g id="node6" class="node">
<title>pyVHDLModel.VHDLModel.ModelEntity</title>
<g id="a_node6"><a xlink:title="``ModelEntity`` is the base class for all classes in the VHDL language model,">
<polygon fill="none" stroke="#000000" stroke-width=".5" points="208,-74 3,-74 3,-55 208,-55 208,-74"/>
<text text-anchor="middle" x="105.5" y="-62" font-family="Vera Sans, DejaVu Sans, Liberation Sans, Arial, Helvetica, sans" font-size="10.00" fill="#000000">pyVHDLModel.VHDLModel.ModelEntity</text>
</a>
</g>
</g>
<!-- pyVHDLModel.VHDLModel.Obj -->
<g id="node8" class="node">
<title>pyVHDLModel.VHDLModel.Obj</title>
<polygon fill="none" stroke="#000000" stroke-width=".5" points="471.5,-56 307.5,-56 307.5,-37 471.5,-37 471.5,-56"/>
<text text-anchor="middle" x="389.5" y="-44" font-family="Vera Sans, DejaVu Sans, Liberation Sans, Arial, Helvetica, sans" font-size="10.00" fill="#000000">pyVHDLModel.VHDLModel.Obj</text>
</g>
<!-- pyVHDLModel.VHDLModel.ModelEntity&#45;&gt;pyVHDLModel.VHDLModel.Obj -->
<g id="edge3" class="edge">
<title>pyVHDLModel.VHDLModel.ModelEntity&#45;&gt;pyVHDLModel.VHDLModel.Obj</title>
<path fill="none" stroke="#000000" stroke-width=".5" d="M208.0305,-58.0016C238.8204,-56.0501 272.2997,-53.9282 302.0215,-52.0444"/>
<polygon fill="#000000" stroke="#000000" stroke-width=".5" points="302.2616,-53.7828 307.1409,-51.7199 302.0402,-50.2898 302.2616,-53.7828"/>
</g>
<!-- pyVHDLModel.VHDLModel.NamedEntity -->
<g id="node7" class="node">
<title>pyVHDLModel.VHDLModel.NamedEntity</title>
<g id="a_node7"><a xlink:title="A ``NamedEntity`` is a mixin class for all VHDL entities that have identifiers.">
<polygon fill="none" stroke="#000000" stroke-width=".5" points="211,-37 0,-37 0,-18 211,-18 211,-37"/>
<text text-anchor="middle" x="105.5" y="-25" font-family="Vera Sans, DejaVu Sans, Liberation Sans, Arial, Helvetica, sans" font-size="10.00" fill="#000000">pyVHDLModel.VHDLModel.NamedEntity</text>
</a>
</g>
</g>
<!-- pyVHDLModel.VHDLModel.NamedEntity&#45;&gt;pyVHDLModel.VHDLModel.Obj -->
<g id="edge4" class="edge">
<title>pyVHDLModel.VHDLModel.NamedEntity&#45;&gt;pyVHDLModel.VHDLModel.Obj</title>
<path fill="none" stroke="#000000" stroke-width=".5" d="M211.2511,-34.5749C241.0926,-36.5713 273.223,-38.7209 301.8746,-40.6377"/>
<polygon fill="#000000" stroke="#000000" stroke-width=".5" points="302.0769,-42.4051 307.1826,-40.9929 302.3106,-38.9129 302.0769,-42.4051"/>
</g>
<!-- pyVHDLModel.VHDLModel.Variable -->
<g id="node10" class="node">
<title>pyVHDLModel.VHDLModel.Variable</title>
<polygon fill="none" stroke="#000000" stroke-width=".5" points="793,-56 606,-56 606,-37 793,-37 793,-56"/>
<text text-anchor="middle" x="699.5" y="-44" font-family="Vera Sans, DejaVu Sans, Liberation Sans, Arial, Helvetica, sans" font-size="10.00" fill="#000000">pyVHDLModel.VHDLModel.Variable</text>
</g>
<!-- pyVHDLModel.VHDLModel.Obj&#45;&gt;pyVHDLModel.VHDLModel.Variable -->
<g id="edge9" class="edge">
<title>pyVHDLModel.VHDLModel.Obj&#45;&gt;pyVHDLModel.VHDLModel.Variable</title>
<path fill="none" stroke="#000000" stroke-width=".5" d="M471.7604,-46.5C511.4047,-46.5 559.2594,-46.5 600.8488,-46.5"/>
<polygon fill="#000000" stroke="#000000" stroke-width=".5" points="600.8886,-48.2501 605.8886,-46.5 600.8886,-44.7501 600.8886,-48.2501"/>
</g>
<!-- pyVHDLModel.VHDLModel.ParameterInterfaceItem&#45;&gt;pyVHDLModel.VHDLModel.ParameterVariableInterfaceItem -->
<g id="edge7" class="edge">
<title>pyVHDLModel.VHDLModel.ParameterInterfaceItem&#45;&gt;pyVHDLModel.VHDLModel.ParameterVariableInterfaceItem</title>
<path fill="none" stroke="#000000" stroke-width=".5" d="M831.0912,-83.5C841.2681,-83.5 851.6014,-83.5 861.9184,-83.5"/>
<polygon fill="#000000" stroke="#000000" stroke-width=".5" points="861.9811,-85.2501 866.981,-83.5 861.981,-81.7501 861.9811,-85.2501"/>
</g>
<!-- pyVHDLModel.VHDLModel.Variable&#45;&gt;pyVHDLModel.VHDLModel.ParameterVariableInterfaceItem -->
<g id="edge6" class="edge">
<title>pyVHDLModel.VHDLModel.Variable&#45;&gt;pyVHDLModel.VHDLModel.ParameterVariableInterfaceItem</title>
<path fill="none" stroke="#000000" stroke-width=".5" d="M781.6504,-56.0284C827.5149,-61.3481 884.6381,-67.9737 931.2939,-73.3852"/>
<polygon fill="#000000" stroke="#000000" stroke-width=".5" points="931.1828,-75.134 936.3512,-73.9718 931.5861,-71.6573 931.1828,-75.134"/>
</g>
<!-- pyVHDLModel.VHDLModel.WithDefaultExpressionMixin -->
<g id="node11" class="node">
<title>pyVHDLModel.VHDLModel.WithDefaultExpressionMixin</title>
<g id="a_node11"><a xlink:title="A ``WithDefaultExpression`` is a mixin class for all objects declarations">
<polygon fill="none" stroke="#000000" stroke-width=".5" points="532,-19 247,-19 247,0 532,0 532,-19"/>
<text text-anchor="middle" x="389.5" y="-7" font-family="Vera Sans, DejaVu Sans, Liberation Sans, Arial, Helvetica, sans" font-size="10.00" fill="#000000">pyVHDLModel.VHDLModel.WithDefaultExpressionMixin</text>
</a>
</g>
</g>
<!-- pyVHDLModel.VHDLModel.WithDefaultExpressionMixin&#45;&gt;pyVHDLModel.VHDLModel.Variable -->
<g id="edge10" class="edge">
<title>pyVHDLModel.VHDLModel.WithDefaultExpressionMixin&#45;&gt;pyVHDLModel.VHDLModel.Variable</title>
<path fill="none" stroke="#000000" stroke-width=".5" d="M469.3327,-19.0284C513.8129,-24.3374 569.19,-30.9469 614.4788,-36.3523"/>
<polygon fill="#000000" stroke="#000000" stroke-width=".5" points="614.4967,-38.1168 619.6689,-36.9718 614.9115,-34.6414 614.4967,-38.1168"/>
</g>
</g>
</svg>
