<?xml version="1.0" encoding="UTF-8" standalone="no"?>
<!DOCTYPE svg PUBLIC "-//W3C//DTD SVG 1.1//EN"
 "http://www.w3.org/Graphics/SVG/1.1/DTD/svg11.dtd">
<!-- Generated by graphviz version 2.40.1 (20161225.0304)
 -->
<!-- Title: inheritance43034e364b Pages: 1 -->
<svg width="576pt" height="34pt"
 viewBox="0.00 0.00 576.00 33.62" xmlns="http://www.w3.org/2000/svg" xmlns:xlink="http://www.w3.org/1999/xlink">
<g id="graph0" class="graph" transform="scale(.41 .41) rotate(0) translate(4 78)">
<title>inheritance43034e364b</title>
<polygon fill="#ffffff" stroke="transparent" points="-4,4 -4,-78 1401,-78 1401,4 -4,4"/>
<!-- pyGHDL.dom.DOMMixin -->
<g id="node1" class="node">
<title>pyGHDL.dom.DOMMixin</title>
<g id="a_node1"><a xlink:href="../pyGHDL.dom.html#pyGHDL.dom.DOMMixin" xlink:title="pyGHDL.dom.DOMMixin" target="_top">
<polygon fill="none" stroke="#000000" stroke-width=".5" points="1002,-74 868,-74 868,-55 1002,-55 1002,-74"/>
<text text-anchor="middle" x="935" y="-62" font-family="Vera Sans, DejaVu Sans, Liberation Sans, Arial, Helvetica, sans" font-size="10.00" fill="#000000">pyGHDL.dom.DOMMixin</text>
</a>
</g>
</g>
<!-- pyGHDL.dom.InterfaceItem.ParameterFileInterfaceItem -->
<g id="node2" class="node">
<title>pyGHDL.dom.InterfaceItem.ParameterFileInterfaceItem</title>
<g id="a_node2"><a xlink:href="../pyGHDL/pyGHDL.dom.InterfaceItem.html#pyGHDL.dom.InterfaceItem.ParameterFileInterfaceItem" xlink:title="pyGHDL.dom.InterfaceItem.ParameterFileInterfaceItem" target="_top">
<polygon fill="none" stroke="#000000" stroke-width=".5" points="1397,-55 1111,-55 1111,-36 1397,-36 1397,-55"/>
<text text-anchor="middle" x="1254" y="-43" font-family="Vera Sans, DejaVu Sans, Liberation Sans, Arial, Helvetica, sans" font-size="10.00" fill="#000000">pyGHDL.dom.InterfaceItem.ParameterFileInterfaceItem</text>
</a>
</g>
</g>
<!-- pyGHDL.dom.DOMMixin&#45;&gt;pyGHDL.dom.InterfaceItem.ParameterFileInterfaceItem -->
<g id="edge2" class="edge">
<title>pyGHDL.dom.DOMMixin&#45;&gt;pyGHDL.dom.InterfaceItem.ParameterFileInterfaceItem</title>
<path fill="none" stroke="#000000" stroke-width=".5" d="M1002.2619,-60.4938C1032.4902,-58.6934 1069.4528,-56.4918 1105.6463,-54.3361"/>
<polygon fill="#000000" stroke="#000000" stroke-width=".5" points="1106.0928,-56.0627 1110.9798,-54.0184 1105.8846,-52.5689 1106.0928,-56.0627"/>
</g>
<!-- pyVHDLModel.VHDLModel.ParameterFileInterfaceItem -->
<g id="node3" class="node">
<title>pyVHDLModel.VHDLModel.ParameterFileInterfaceItem</title>
<polygon fill="none" stroke="#000000" stroke-width=".5" points="1075,-37 795,-37 795,-18 1075,-18 1075,-37"/>
<text text-anchor="middle" x="935" y="-25" font-family="Vera Sans, DejaVu Sans, Liberation Sans, Arial, Helvetica, sans" font-size="10.00" fill="#000000">pyVHDLModel.VHDLModel.ParameterFileInterfaceItem</text>
</g>
<!-- pyVHDLModel.VHDLModel.ParameterFileInterfaceItem&#45;&gt;pyGHDL.dom.InterfaceItem.ParameterFileInterfaceItem -->
<g id="edge1" class="edge">
<title>pyVHDLModel.VHDLModel.ParameterFileInterfaceItem&#45;&gt;pyGHDL.dom.InterfaceItem.ParameterFileInterfaceItem</title>
<path fill="none" stroke="#000000" stroke-width=".5" d="M1075.3823,-35.4213C1085.4175,-35.9875 1095.5552,-36.5595 1105.6333,-37.1282"/>
<polygon fill="#000000" stroke="#000000" stroke-width=".5" points="1105.8065,-38.8907 1110.8972,-37.4252 1106.0037,-35.3962 1105.8065,-38.8907"/>
</g>
<!-- pyVHDLModel.VHDLModel.File -->
<g id="node4" class="node">
<title>pyVHDLModel.VHDLModel.File</title>
<polygon fill="none" stroke="#000000" stroke-width=".5" points="709.5,-56 545.5,-56 545.5,-37 709.5,-37 709.5,-56"/>
<text text-anchor="middle" x="627.5" y="-44" font-family="Vera Sans, DejaVu Sans, Liberation Sans, Arial, Helvetica, sans" font-size="10.00" fill="#000000">pyVHDLModel.VHDLModel.File</text>
</g>
<!-- pyVHDLModel.VHDLModel.File&#45;&gt;pyVHDLModel.VHDLModel.ParameterFileInterfaceItem -->
<g id="edge6" class="edge">
<title>pyVHDLModel.VHDLModel.File&#45;&gt;pyVHDLModel.VHDLModel.ParameterFileInterfaceItem</title>
<path fill="none" stroke="#000000" stroke-width=".5" d="M709.5004,-41.4333C734.2052,-39.9068 762.0959,-38.1835 789.6274,-36.4824"/>
<polygon fill="#000000" stroke="#000000" stroke-width=".5" points="789.8805,-38.2202 794.7631,-36.165 789.6646,-34.7268 789.8805,-38.2202"/>
</g>
<!-- pyVHDLModel.VHDLModel.Obj -->
<g id="node5" class="node">
<title>pyVHDLModel.VHDLModel.Obj</title>
<polygon fill="none" stroke="#000000" stroke-width=".5" points="435.5,-56 271.5,-56 271.5,-37 435.5,-37 435.5,-56"/>
<text text-anchor="middle" x="353.5" y="-44" font-family="Vera Sans, DejaVu Sans, Liberation Sans, Arial, Helvetica, sans" font-size="10.00" fill="#000000">pyVHDLModel.VHDLModel.Obj</text>
</g>
<!-- pyVHDLModel.VHDLModel.Obj&#45;&gt;pyVHDLModel.VHDLModel.File -->
<g id="edge3" class="edge">
<title>pyVHDLModel.VHDLModel.Obj&#45;&gt;pyVHDLModel.VHDLModel.File</title>
<path fill="none" stroke="#000000" stroke-width=".5" d="M435.709,-46.5C468.6274,-46.5 506.5986,-46.5 540.0248,-46.5"/>
<polygon fill="#000000" stroke="#000000" stroke-width=".5" points="540.349,-48.2501 545.349,-46.5 540.349,-44.7501 540.349,-48.2501"/>
</g>
<!-- pyVHDLModel.VHDLModel.InterfaceItem -->
<g id="node6" class="node">
<title>pyVHDLModel.VHDLModel.InterfaceItem</title>
<g id="a_node6"><a xlink:title="An ``InterfaceItem`` is a base&#45;class for all mixin&#45;classes for all interface">
<polygon fill="none" stroke="#000000" stroke-width=".5" points="460,-19 247,-19 247,0 460,0 460,-19"/>
<text text-anchor="middle" x="353.5" y="-7" font-family="Vera Sans, DejaVu Sans, Liberation Sans, Arial, Helvetica, sans" font-size="10.00" fill="#000000">pyVHDLModel.VHDLModel.InterfaceItem</text>
</a>
</g>
</g>
<!-- pyVHDLModel.VHDLModel.ParameterInterfaceItem -->
<g id="node9" class="node">
<title>pyVHDLModel.VHDLModel.ParameterInterfaceItem</title>
<g id="a_node9"><a xlink:title="A ``ParameterInterfaceItem`` is a mixin class for all parameter interface items.">
<polygon fill="none" stroke="#000000" stroke-width=".5" points="759,-19 496,-19 496,0 759,0 759,-19"/>
<text text-anchor="middle" x="627.5" y="-7" font-family="Vera Sans, DejaVu Sans, Liberation Sans, Arial, Helvetica, sans" font-size="10.00" fill="#000000">pyVHDLModel.VHDLModel.ParameterInterfaceItem</text>
</a>
</g>
</g>
<!-- pyVHDLModel.VHDLModel.InterfaceItem&#45;&gt;pyVHDLModel.VHDLModel.ParameterInterfaceItem -->
<g id="edge8" class="edge">
<title>pyVHDLModel.VHDLModel.InterfaceItem&#45;&gt;pyVHDLModel.VHDLModel.ParameterInterfaceItem</title>
<path fill="none" stroke="#000000" stroke-width=".5" d="M460.2201,-9.5C470.2924,-9.5 480.5946,-9.5 490.8938,-9.5"/>
<polygon fill="#000000" stroke="#000000" stroke-width=".5" points="490.9486,-11.2501 495.9485,-9.5 490.9485,-7.7501 490.9486,-11.2501"/>
</g>
<!-- pyVHDLModel.VHDLModel.ModelEntity -->
<g id="node7" class="node">
<title>pyVHDLModel.VHDLModel.ModelEntity</title>
<g id="a_node7"><a xlink:title="``ModelEntity`` is the base class for all classes in the VHDL language model,">
<polygon fill="none" stroke="#000000" stroke-width=".5" points="208,-74 3,-74 3,-55 208,-55 208,-74"/>
<text text-anchor="middle" x="105.5" y="-62" font-family="Vera Sans, DejaVu Sans, Liberation Sans, Arial, Helvetica, sans" font-size="10.00" fill="#000000">pyVHDLModel.VHDLModel.ModelEntity</text>
</a>
</g>
</g>
<!-- pyVHDLModel.VHDLModel.ModelEntity&#45;&gt;pyVHDLModel.VHDLModel.Obj -->
<g id="edge4" class="edge">
<title>pyVHDLModel.VHDLModel.ModelEntity&#45;&gt;pyVHDLModel.VHDLModel.Obj</title>
<path fill="none" stroke="#000000" stroke-width=".5" d="M208.1613,-57.0488C227.4062,-55.652 247.3581,-54.2039 266.0869,-52.8445"/>
<polygon fill="#000000" stroke="#000000" stroke-width=".5" points="266.4752,-54.571 271.3353,-52.4636 266.2217,-51.0802 266.4752,-54.571"/>
</g>
<!-- pyVHDLModel.VHDLModel.NamedEntity -->
<g id="node8" class="node">
<title>pyVHDLModel.VHDLModel.NamedEntity</title>
<g id="a_node8"><a xlink:title="A ``NamedEntity`` is a mixin class for all VHDL entities that have identifiers.">
<polygon fill="none" stroke="#000000" stroke-width=".5" points="211,-37 0,-37 0,-18 211,-18 211,-37"/>
<text text-anchor="middle" x="105.5" y="-25" font-family="Vera Sans, DejaVu Sans, Liberation Sans, Arial, Helvetica, sans" font-size="10.00" fill="#000000">pyVHDLModel.VHDLModel.NamedEntity</text>
</a>
</g>
</g>
<!-- pyVHDLModel.VHDLModel.NamedEntity&#45;&gt;pyVHDLModel.VHDLModel.Obj -->
<g id="edge5" class="edge">
<title>pyVHDLModel.VHDLModel.NamedEntity&#45;&gt;pyVHDLModel.VHDLModel.Obj</title>
<path fill="none" stroke="#000000" stroke-width=".5" d="M211.0339,-35.5853C229.4712,-36.9978 248.4656,-38.453 266.3372,-39.8222"/>
<polygon fill="#000000" stroke="#000000" stroke-width=".5" points="266.2277,-41.5689 271.3468,-40.206 266.4951,-38.0791 266.2277,-41.5689"/>
</g>
<!-- pyVHDLModel.VHDLModel.ParameterInterfaceItem&#45;&gt;pyVHDLModel.VHDLModel.ParameterFileInterfaceItem -->
<g id="edge7" class="edge">
<title>pyVHDLModel.VHDLModel.ParameterInterfaceItem&#45;&gt;pyVHDLModel.VHDLModel.ParameterFileInterfaceItem</title>
<path fill="none" stroke="#000000" stroke-width=".5" d="M759.2459,-17.212C769.2404,-17.797 779.3615,-18.3895 789.4357,-18.9792"/>
<polygon fill="#000000" stroke="#000000" stroke-width=".5" points="789.6049,-20.742 794.6986,-19.2872 789.8095,-17.248 789.6049,-20.742"/>
</g>
</g>
</svg>
