<?xml version="1.0" encoding="UTF-8" standalone="no"?>
<!DOCTYPE svg PUBLIC "-//W3C//DTD SVG 1.1//EN"
 "http://www.w3.org/Graphics/SVG/1.1/DTD/svg11.dtd">
<!-- Generated by graphviz version 2.40.1 (20161225.0304)
 -->
<!-- Title: inheritance6377a6d6a7 Pages: 1 -->
<svg width="576pt" height="33pt"
 viewBox="0.00 0.00 576.00 33.39" xmlns="http://www.w3.org/2000/svg" xmlns:xlink="http://www.w3.org/1999/xlink">
<g id="graph0" class="graph" transform="scale(.5217 .5217) rotate(0) translate(4 60)">
<title>inheritance6377a6d6a7</title>
<polygon fill="#ffffff" stroke="transparent" points="-4,4 -4,-60 1100,-60 1100,4 -4,4"/>
<!-- pyGHDL.dom.Aggregates.RangedAggregateElement -->
<g id="node1" class="node">
<title>pyGHDL.dom.Aggregates.RangedAggregateElement</title>
<g id="a_node1"><a xlink:href="../pyGHDL/pyGHDL.dom.Aggregates.html#pyGHDL.dom.Aggregates.RangedAggregateElement" xlink:title="pyGHDL.dom.Aggregates.RangedAggregateElement" target="_top">
<polygon fill="none" stroke="#000000" stroke-width=".5" points="1096,-37 826,-37 826,-18 1096,-18 1096,-37"/>
<text text-anchor="middle" x="961" y="-25" font-family="Vera Sans, DejaVu Sans, Liberation Sans, Arial, Helvetica, sans" font-size="10.00" fill="#000000">pyGHDL.dom.Aggregates.RangedAggregateElement</text>
</a>
</g>
</g>
<!-- pyVHDLModel.VHDLModel.RangedAggregateElement -->
<g id="node2" class="node">
<title>pyVHDLModel.VHDLModel.RangedAggregateElement</title>
<polygon fill="none" stroke="#000000" stroke-width=".5" points="790,-56 515,-56 515,-37 790,-37 790,-56"/>
<text text-anchor="middle" x="652.5" y="-44" font-family="Vera Sans, DejaVu Sans, Liberation Sans, Arial, Helvetica, sans" font-size="10.00" fill="#000000">pyVHDLModel.VHDLModel.RangedAggregateElement</text>
</g>
<!-- pyVHDLModel.VHDLModel.RangedAggregateElement&#45;&gt;pyGHDL.dom.Aggregates.RangedAggregateElement -->
<g id="edge1" class="edge">
<title>pyVHDLModel.VHDLModel.RangedAggregateElement&#45;&gt;pyGHDL.dom.Aggregates.RangedAggregateElement</title>
<path fill="none" stroke="#000000" stroke-width=".5" d="M790.0586,-38.028C800.2767,-37.3987 810.5936,-36.7633 820.8272,-36.133"/>
<polygon fill="#000000" stroke="#000000" stroke-width=".5" points="820.9605,-37.8782 825.8434,-35.8241 820.7453,-34.3848 820.9605,-37.8782"/>
</g>
<!-- pyGHDL.dom.DOMMixin -->
<g id="node3" class="node">
<title>pyGHDL.dom.DOMMixin</title>
<g id="a_node3"><a xlink:href="../pyGHDL.dom.html#pyGHDL.dom.DOMMixin" xlink:title="pyGHDL.dom.DOMMixin" target="_top">
<polygon fill="none" stroke="#000000" stroke-width=".5" points="719.5,-19 585.5,-19 585.5,0 719.5,0 719.5,-19"/>
<text text-anchor="middle" x="652.5" y="-7" font-family="Vera Sans, DejaVu Sans, Liberation Sans, Arial, Helvetica, sans" font-size="10.00" fill="#000000">pyGHDL.dom.DOMMixin</text>
</a>
</g>
</g>
<!-- pyGHDL.dom.DOMMixin&#45;&gt;pyGHDL.dom.Aggregates.RangedAggregateElement -->
<g id="edge2" class="edge">
<title>pyGHDL.dom.DOMMixin&#45;&gt;pyGHDL.dom.Aggregates.RangedAggregateElement</title>
<path fill="none" stroke="#000000" stroke-width=".5" d="M719.8204,-13.4279C749.4764,-15.1583 785.4976,-17.26 820.5594,-19.3057"/>
<polygon fill="#000000" stroke="#000000" stroke-width=".5" points="820.6312,-21.0628 825.7247,-19.6071 820.8351,-17.5688 820.6312,-21.0628"/>
</g>
<!-- pyVHDLModel.VHDLModel.AggregateElement -->
<g id="node4" class="node">
<title>pyVHDLModel.VHDLModel.AggregateElement</title>
<g id="a_node4"><a xlink:title="A ``AggregateElement`` is a base&#45;class for all aggregate elements.">
<polygon fill="none" stroke="#000000" stroke-width=".5" points="479,-56 241,-56 241,-37 479,-37 479,-56"/>
<text text-anchor="middle" x="360" y="-44" font-family="Vera Sans, DejaVu Sans, Liberation Sans, Arial, Helvetica, sans" font-size="10.00" fill="#000000">pyVHDLModel.VHDLModel.AggregateElement</text>
</a>
</g>
</g>
<!-- pyVHDLModel.VHDLModel.AggregateElement&#45;&gt;pyVHDLModel.VHDLModel.RangedAggregateElement -->
<g id="edge4" class="edge">
<title>pyVHDLModel.VHDLModel.AggregateElement&#45;&gt;pyVHDLModel.VHDLModel.RangedAggregateElement</title>
<path fill="none" stroke="#000000" stroke-width=".5" d="M479.3928,-46.5C489.4386,-46.5 499.6594,-46.5 509.8568,-46.5"/>
<polygon fill="#000000" stroke="#000000" stroke-width=".5" points="509.8601,-48.2501 514.8601,-46.5 509.8601,-44.7501 509.8601,-48.2501"/>
</g>
<!-- pyVHDLModel.VHDLModel.ModelEntity -->
<g id="node5" class="node">
<title>pyVHDLModel.VHDLModel.ModelEntity</title>
<g id="a_node5"><a xlink:title="``ModelEntity`` is the base class for all classes in the VHDL language model,">
<polygon fill="none" stroke="#000000" stroke-width=".5" points="205,-56 0,-56 0,-37 205,-37 205,-56"/>
<text text-anchor="middle" x="102.5" y="-44" font-family="Vera Sans, DejaVu Sans, Liberation Sans, Arial, Helvetica, sans" font-size="10.00" fill="#000000">pyVHDLModel.VHDLModel.ModelEntity</text>
</a>
</g>
</g>
<!-- pyVHDLModel.VHDLModel.ModelEntity&#45;&gt;pyVHDLModel.VHDLModel.AggregateElement -->
<g id="edge3" class="edge">
<title>pyVHDLModel.VHDLModel.ModelEntity&#45;&gt;pyVHDLModel.VHDLModel.AggregateElement</title>
<path fill="none" stroke="#000000" stroke-width=".5" d="M205.0107,-46.5C215.1351,-46.5 225.4855,-46.5 235.797,-46.5"/>
<polygon fill="#000000" stroke="#000000" stroke-width=".5" points="235.8547,-48.2501 240.8547,-46.5 235.8547,-44.7501 235.8547,-48.2501"/>
</g>
</g>
</svg>
