<?xml version="1.0" encoding="UTF-8" standalone="no"?>
<!DOCTYPE svg PUBLIC "-//W3C//DTD SVG 1.1//EN"
 "http://www.w3.org/Graphics/SVG/1.1/DTD/svg11.dtd">
<!-- Generated by graphviz version 2.40.1 (20161225.0304)
 -->
<!-- Title: inheritance3ddbbd5ddc Pages: 1 -->
<svg width="576pt" height="49pt"
 viewBox="0.00 0.00 576.00 49.35" xmlns="http://www.w3.org/2000/svg" xmlns:xlink="http://www.w3.org/1999/xlink">
<g id="graph0" class="graph" transform="scale(.6019 .6019) rotate(0) translate(4 78)">
<title>inheritance3ddbbd5ddc</title>
<polygon fill="#ffffff" stroke="transparent" points="-4,4 -4,-78 953,-78 953,4 -4,4"/>
<!-- pyGHDL.dom.DOMMixin -->
<g id="node1" class="node">
<title>pyGHDL.dom.DOMMixin</title>
<g id="a_node1"><a xlink:href="../pyGHDL.dom.html#pyGHDL.dom.DOMMixin" xlink:title="pyGHDL.dom.DOMMixin" target="_top">
<polygon fill="none" stroke="#000000" stroke-width=".5" points="728.5,-74 594.5,-74 594.5,-55 728.5,-55 728.5,-74"/>
<text text-anchor="middle" x="661.5" y="-62" font-family="Vera Sans, DejaVu Sans, Liberation Sans, Arial, Helvetica, sans" font-size="10.00" fill="#000000">pyGHDL.dom.DOMMixin</text>
</a>
</g>
</g>
<!-- pyGHDL.dom.Object.Variable -->
<g id="node2" class="node">
<title>pyGHDL.dom.Object.Variable</title>
<g id="a_node2"><a xlink:href="../pyGHDL/pyGHDL.dom.Object.html#pyGHDL.dom.Object.Variable" xlink:title="pyGHDL.dom.Object.Variable" target="_top">
<polygon fill="none" stroke="#000000" stroke-width=".5" points="949,-55 791,-55 791,-36 949,-36 949,-55"/>
<text text-anchor="middle" x="870" y="-43" font-family="Vera Sans, DejaVu Sans, Liberation Sans, Arial, Helvetica, sans" font-size="10.00" fill="#000000">pyGHDL.dom.Object.Variable</text>
</a>
</g>
</g>
<!-- pyGHDL.dom.DOMMixin&#45;&gt;pyGHDL.dom.Object.Variable -->
<g id="edge2" class="edge">
<title>pyGHDL.dom.DOMMixin&#45;&gt;pyGHDL.dom.Object.Variable</title>
<path fill="none" stroke="#000000" stroke-width=".5" d="M728.6184,-58.3837C746.6817,-56.7376 766.4557,-54.9357 785.3401,-53.2148"/>
<polygon fill="#000000" stroke="#000000" stroke-width=".5" points="785.8202,-54.9284 790.6407,-52.7318 785.5025,-51.4428 785.8202,-54.9284"/>
</g>
<!-- pyVHDLModel.VHDLModel.Variable -->
<g id="node3" class="node">
<title>pyVHDLModel.VHDLModel.Variable</title>
<polygon fill="none" stroke="#000000" stroke-width=".5" points="755,-37 568,-37 568,-18 755,-18 755,-37"/>
<text text-anchor="middle" x="661.5" y="-25" font-family="Vera Sans, DejaVu Sans, Liberation Sans, Arial, Helvetica, sans" font-size="10.00" fill="#000000">pyVHDLModel.VHDLModel.Variable</text>
</g>
<!-- pyVHDLModel.VHDLModel.Variable&#45;&gt;pyGHDL.dom.Object.Variable -->
<g id="edge1" class="edge">
<title>pyVHDLModel.VHDLModel.Variable&#45;&gt;pyGHDL.dom.Object.Variable</title>
<path fill="none" stroke="#000000" stroke-width=".5" d="M755.077,-35.5786C765.2177,-36.454 775.4945,-37.3413 785.5182,-38.2066"/>
<polygon fill="#000000" stroke="#000000" stroke-width=".5" points="785.6029,-39.9703 790.7349,-38.657 785.904,-36.4833 785.6029,-39.9703"/>
</g>
<!-- pyVHDLModel.VHDLModel.ModelEntity -->
<g id="node4" class="node">
<title>pyVHDLModel.VHDLModel.ModelEntity</title>
<g id="a_node4"><a xlink:title="``ModelEntity`` is the base class for all classes in the VHDL language model,">
<polygon fill="none" stroke="#000000" stroke-width=".5" points="208,-74 3,-74 3,-55 208,-55 208,-74"/>
<text text-anchor="middle" x="105.5" y="-62" font-family="Vera Sans, DejaVu Sans, Liberation Sans, Arial, Helvetica, sans" font-size="10.00" fill="#000000">pyVHDLModel.VHDLModel.ModelEntity</text>
</a>
</g>
</g>
<!-- pyVHDLModel.VHDLModel.Obj -->
<g id="node6" class="node">
<title>pyVHDLModel.VHDLModel.Obj</title>
<polygon fill="none" stroke="#000000" stroke-width=".5" points="471.5,-56 307.5,-56 307.5,-37 471.5,-37 471.5,-56"/>
<text text-anchor="middle" x="389.5" y="-44" font-family="Vera Sans, DejaVu Sans, Liberation Sans, Arial, Helvetica, sans" font-size="10.00" fill="#000000">pyVHDLModel.VHDLModel.Obj</text>
</g>
<!-- pyVHDLModel.VHDLModel.ModelEntity&#45;&gt;pyVHDLModel.VHDLModel.Obj -->
<g id="edge3" class="edge">
<title>pyVHDLModel.VHDLModel.ModelEntity&#45;&gt;pyVHDLModel.VHDLModel.Obj</title>
<path fill="none" stroke="#000000" stroke-width=".5" d="M208.0305,-58.0016C238.8204,-56.0501 272.2997,-53.9282 302.0215,-52.0444"/>
<polygon fill="#000000" stroke="#000000" stroke-width=".5" points="302.2616,-53.7828 307.1409,-51.7199 302.0402,-50.2898 302.2616,-53.7828"/>
</g>
<!-- pyVHDLModel.VHDLModel.NamedEntity -->
<g id="node5" class="node">
<title>pyVHDLModel.VHDLModel.NamedEntity</title>
<g id="a_node5"><a xlink:title="A ``NamedEntity`` is a mixin class for all VHDL entities that have identifiers.">
<polygon fill="none" stroke="#000000" stroke-width=".5" points="211,-37 0,-37 0,-18 211,-18 211,-37"/>
<text text-anchor="middle" x="105.5" y="-25" font-family="Vera Sans, DejaVu Sans, Liberation Sans, Arial, Helvetica, sans" font-size="10.00" fill="#000000">pyVHDLModel.VHDLModel.NamedEntity</text>
</a>
</g>
</g>
<!-- pyVHDLModel.VHDLModel.NamedEntity&#45;&gt;pyVHDLModel.VHDLModel.Obj -->
<g id="edge4" class="edge">
<title>pyVHDLModel.VHDLModel.NamedEntity&#45;&gt;pyVHDLModel.VHDLModel.Obj</title>
<path fill="none" stroke="#000000" stroke-width=".5" d="M211.2511,-34.5749C241.0926,-36.5713 273.223,-38.7209 301.8746,-40.6377"/>
<polygon fill="#000000" stroke="#000000" stroke-width=".5" points="302.0769,-42.4051 307.1826,-40.9929 302.3106,-38.9129 302.0769,-42.4051"/>
</g>
<!-- pyVHDLModel.VHDLModel.Obj&#45;&gt;pyVHDLModel.VHDLModel.Variable -->
<g id="edge5" class="edge">
<title>pyVHDLModel.VHDLModel.Obj&#45;&gt;pyVHDLModel.VHDLModel.Variable</title>
<path fill="none" stroke="#000000" stroke-width=".5" d="M471.8471,-40.7478C500.3744,-38.7551 532.6525,-36.5004 562.386,-34.4234"/>
<polygon fill="#000000" stroke="#000000" stroke-width=".5" points="562.6537,-36.1591 567.5196,-34.0648 562.4098,-32.6676 562.6537,-36.1591"/>
</g>
<!-- pyVHDLModel.VHDLModel.WithDefaultExpressionMixin -->
<g id="node7" class="node">
<title>pyVHDLModel.VHDLModel.WithDefaultExpressionMixin</title>
<g id="a_node7"><a xlink:title="A ``WithDefaultExpression`` is a mixin class for all objects declarations">
<polygon fill="none" stroke="#000000" stroke-width=".5" points="532,-19 247,-19 247,0 532,0 532,-19"/>
<text text-anchor="middle" x="389.5" y="-7" font-family="Vera Sans, DejaVu Sans, Liberation Sans, Arial, Helvetica, sans" font-size="10.00" fill="#000000">pyVHDLModel.VHDLModel.WithDefaultExpressionMixin</text>
</a>
</g>
</g>
<!-- pyVHDLModel.VHDLModel.WithDefaultExpressionMixin&#45;&gt;pyVHDLModel.VHDLModel.Variable -->
<g id="edge6" class="edge">
<title>pyVHDLModel.VHDLModel.WithDefaultExpressionMixin&#45;&gt;pyVHDLModel.VHDLModel.Variable</title>
<path fill="none" stroke="#000000" stroke-width=".5" d="M532.2709,-18.9481C542.5379,-19.6275 552.7532,-20.3035 562.6821,-20.9606"/>
<polygon fill="#000000" stroke="#000000" stroke-width=".5" points="562.7423,-22.7183 567.8469,-21.3024 562.9734,-19.2259 562.7423,-22.7183"/>
</g>
</g>
</svg>
