<?xml version="1.0" encoding="UTF-8" standalone="no"?>
<!DOCTYPE svg PUBLIC "-//W3C//DTD SVG 1.1//EN"
 "http://www.w3.org/Graphics/SVG/1.1/DTD/svg11.dtd">
<!-- Generated by graphviz version 2.40.1 (20161225.0304)
 -->
<!-- Title: inheritancefefad20e1c Pages: 1 -->
<svg width="576pt" height="39pt"
 viewBox="0.00 0.00 576.00 38.76" xmlns="http://www.w3.org/2000/svg" xmlns:xlink="http://www.w3.org/1999/xlink">
<g id="graph0" class="graph" transform="scale(.6057 .6057) rotate(0) translate(4 60)">
<title>inheritancefefad20e1c</title>
<polygon fill="#ffffff" stroke="transparent" points="-4,4 -4,-60 947,-60 947,4 -4,4"/>
<!-- pyGHDL.dom.DOMMixin -->
<g id="node1" class="node">
<title>pyGHDL.dom.DOMMixin</title>
<g id="a_node1"><a xlink:href="../pyGHDL.dom.html#pyGHDL.dom.DOMMixin" xlink:title="pyGHDL.dom.DOMMixin" target="_top">
<polygon fill="none" stroke="#000000" stroke-width=".5" points="671,-56 537,-56 537,-37 671,-37 671,-56"/>
<text text-anchor="middle" x="604" y="-44" font-family="Vera Sans, DejaVu Sans, Liberation Sans, Arial, Helvetica, sans" font-size="10.00" fill="#000000">pyGHDL.dom.DOMMixin</text>
</a>
</g>
</g>
<!-- pyGHDL.dom.Expression.FunctionCall -->
<g id="node2" class="node">
<title>pyGHDL.dom.Expression.FunctionCall</title>
<g id="a_node2"><a xlink:href="../pyGHDL/pyGHDL.dom.Expression.html#pyGHDL.dom.Expression.FunctionCall" xlink:title="pyGHDL.dom.Expression.FunctionCall" target="_top">
<polygon fill="none" stroke="#000000" stroke-width=".5" points="943,-37 743,-37 743,-18 943,-18 943,-37"/>
<text text-anchor="middle" x="843" y="-25" font-family="Vera Sans, DejaVu Sans, Liberation Sans, Arial, Helvetica, sans" font-size="10.00" fill="#000000">pyGHDL.dom.Expression.FunctionCall</text>
</a>
</g>
</g>
<!-- pyGHDL.dom.DOMMixin&#45;&gt;pyGHDL.dom.Expression.FunctionCall -->
<g id="edge2" class="edge">
<title>pyGHDL.dom.DOMMixin&#45;&gt;pyGHDL.dom.Expression.FunctionCall</title>
<path fill="none" stroke="#000000" stroke-width=".5" d="M671.2108,-41.1569C691.8767,-39.514 715.1413,-37.6645 737.7191,-35.8696"/>
<polygon fill="#000000" stroke="#000000" stroke-width=".5" points="737.9831,-37.6042 742.8286,-35.4634 737.7056,-34.1152 737.9831,-37.6042"/>
</g>
<!-- pyVHDLModel.VHDLModel.FunctionCall -->
<g id="node3" class="node">
<title>pyVHDLModel.VHDLModel.FunctionCall</title>
<polygon fill="none" stroke="#000000" stroke-width=".5" points="707,-19 501,-19 501,0 707,0 707,-19"/>
<text text-anchor="middle" x="604" y="-7" font-family="Vera Sans, DejaVu Sans, Liberation Sans, Arial, Helvetica, sans" font-size="10.00" fill="#000000">pyVHDLModel.VHDLModel.FunctionCall</text>
</g>
<!-- pyVHDLModel.VHDLModel.FunctionCall&#45;&gt;pyGHDL.dom.Expression.FunctionCall -->
<g id="edge1" class="edge">
<title>pyVHDLModel.VHDLModel.FunctionCall&#45;&gt;pyGHDL.dom.Expression.FunctionCall</title>
<path fill="none" stroke="#000000" stroke-width=".5" d="M707.0916,-17.2642C717.2974,-18.0329 727.6659,-18.8137 737.8917,-19.5839"/>
<polygon fill="#000000" stroke="#000000" stroke-width=".5" points="737.7816,-21.3305 742.8989,-19.961 738.0445,-17.8404 737.7816,-21.3305"/>
</g>
<!-- pyVHDLModel.VHDLModel.BaseExpression -->
<g id="node4" class="node">
<title>pyVHDLModel.VHDLModel.BaseExpression</title>
<g id="a_node4"><a xlink:title="A ``BaseExpression`` is a base&#45;class for all expressions.">
<polygon fill="none" stroke="#000000" stroke-width=".5" points="465,-19 241,-19 241,0 465,0 465,-19"/>
<text text-anchor="middle" x="353" y="-7" font-family="Vera Sans, DejaVu Sans, Liberation Sans, Arial, Helvetica, sans" font-size="10.00" fill="#000000">pyVHDLModel.VHDLModel.BaseExpression</text>
</a>
</g>
</g>
<!-- pyVHDLModel.VHDLModel.BaseExpression&#45;&gt;pyVHDLModel.VHDLModel.FunctionCall -->
<g id="edge4" class="edge">
<title>pyVHDLModel.VHDLModel.BaseExpression&#45;&gt;pyVHDLModel.VHDLModel.FunctionCall</title>
<path fill="none" stroke="#000000" stroke-width=".5" d="M465.2855,-9.5C475.4003,-9.5 485.631,-9.5 495.7107,-9.5"/>
<polygon fill="#000000" stroke="#000000" stroke-width=".5" points="495.9665,-11.2501 500.9665,-9.5 495.9665,-7.7501 495.9665,-11.2501"/>
</g>
<!-- pyVHDLModel.VHDLModel.ModelEntity -->
<g id="node5" class="node">
<title>pyVHDLModel.VHDLModel.ModelEntity</title>
<g id="a_node5"><a xlink:title="``ModelEntity`` is the base class for all classes in the VHDL language model,">
<polygon fill="none" stroke="#000000" stroke-width=".5" points="205,-19 0,-19 0,0 205,0 205,-19"/>
<text text-anchor="middle" x="102.5" y="-7" font-family="Vera Sans, DejaVu Sans, Liberation Sans, Arial, Helvetica, sans" font-size="10.00" fill="#000000">pyVHDLModel.VHDLModel.ModelEntity</text>
</a>
</g>
</g>
<!-- pyVHDLModel.VHDLModel.ModelEntity&#45;&gt;pyVHDLModel.VHDLModel.BaseExpression -->
<g id="edge3" class="edge">
<title>pyVHDLModel.VHDLModel.ModelEntity&#45;&gt;pyVHDLModel.VHDLModel.BaseExpression</title>
<path fill="none" stroke="#000000" stroke-width=".5" d="M205.1107,-9.5C215.2127,-9.5 225.5179,-9.5 235.7516,-9.5"/>
<polygon fill="#000000" stroke="#000000" stroke-width=".5" points="235.7685,-11.2501 240.7685,-9.5 235.7684,-7.7501 235.7685,-11.2501"/>
</g>
</g>
</svg>
