<?xml version="1.0" encoding="UTF-8" standalone="no"?>
<!DOCTYPE svg PUBLIC "-//W3C//DTD SVG 1.1//EN"
 "http://www.w3.org/Graphics/SVG/1.1/DTD/svg11.dtd">
<!-- Generated by graphviz version 2.40.1 (20161225.0304)
 -->
<!-- Title: inheritance7cf5364aca Pages: 1 -->
<svg width="576pt" height="32pt"
 viewBox="0.00 0.00 576.00 31.56" xmlns="http://www.w3.org/2000/svg" xmlns:xlink="http://www.w3.org/1999/xlink">
<g id="graph0" class="graph" transform="scale(.4932 .4932) rotate(0) translate(4 60)">
<title>inheritance7cf5364aca</title>
<polygon fill="#ffffff" stroke="transparent" points="-4,4 -4,-60 1164,-60 1164,4 -4,4"/>
<!-- pyGHDL.dom.DOMMixin -->
<g id="node1" class="node">
<title>pyGHDL.dom.DOMMixin</title>
<g id="a_node1"><a xlink:href="../pyGHDL.dom.html#pyGHDL.dom.DOMMixin" xlink:title="pyGHDL.dom.DOMMixin" target="_top">
<polygon fill="none" stroke="#000000" stroke-width=".5" points="748.5,-56 614.5,-56 614.5,-37 748.5,-37 748.5,-56"/>
<text text-anchor="middle" x="681.5" y="-44" font-family="Vera Sans, DejaVu Sans, Liberation Sans, Arial, Helvetica, sans" font-size="10.00" fill="#000000">pyGHDL.dom.DOMMixin</text>
</a>
</g>
</g>
<!-- pyGHDL.dom.InterfaceItem.GenericPackageInterfaceItem -->
<g id="node2" class="node">
<title>pyGHDL.dom.InterfaceItem.GenericPackageInterfaceItem</title>
<g id="a_node2"><a xlink:href="../pyGHDL/pyGHDL.dom.InterfaceItem.html#pyGHDL.dom.InterfaceItem.GenericPackageInterfaceItem" xlink:title="pyGHDL.dom.InterfaceItem.GenericPackageInterfaceItem" target="_top">
<polygon fill="none" stroke="#000000" stroke-width=".5" points="1160,-37 863,-37 863,-18 1160,-18 1160,-37"/>
<text text-anchor="middle" x="1011.5" y="-25" font-family="Vera Sans, DejaVu Sans, Liberation Sans, Arial, Helvetica, sans" font-size="10.00" fill="#000000">pyGHDL.dom.InterfaceItem.GenericPackageInterfaceItem</text>
</a>
</g>
</g>
<!-- pyGHDL.dom.DOMMixin&#45;&gt;pyGHDL.dom.InterfaceItem.GenericPackageInterfaceItem -->
<g id="edge2" class="edge">
<title>pyGHDL.dom.DOMMixin&#45;&gt;pyGHDL.dom.InterfaceItem.GenericPackageInterfaceItem</title>
<path fill="none" stroke="#000000" stroke-width=".5" d="M748.6782,-42.6322C780.2401,-40.815 819.2758,-38.5675 857.5186,-36.3656"/>
<polygon fill="#000000" stroke="#000000" stroke-width=".5" points="857.773,-38.1039 862.6642,-36.0693 857.5718,-34.6097 857.773,-38.1039"/>
</g>
<!-- pyVHDLModel.VHDLModel.GenericPackageInterfaceItem -->
<g id="node3" class="node">
<title>pyVHDLModel.VHDLModel.GenericPackageInterfaceItem</title>
<polygon fill="none" stroke="#000000" stroke-width=".5" points="827,-19 536,-19 536,0 827,0 827,-19"/>
<text text-anchor="middle" x="681.5" y="-7" font-family="Vera Sans, DejaVu Sans, Liberation Sans, Arial, Helvetica, sans" font-size="10.00" fill="#000000">pyVHDLModel.VHDLModel.GenericPackageInterfaceItem</text>
</g>
<!-- pyVHDLModel.VHDLModel.GenericPackageInterfaceItem&#45;&gt;pyGHDL.dom.InterfaceItem.GenericPackageInterfaceItem -->
<g id="edge1" class="edge">
<title>pyVHDLModel.VHDLModel.GenericPackageInterfaceItem&#45;&gt;pyGHDL.dom.InterfaceItem.GenericPackageInterfaceItem</title>
<path fill="none" stroke="#000000" stroke-width=".5" d="M827.2034,-17.4475C837.3675,-18.0019 847.6306,-18.5617 857.8356,-19.1183"/>
<polygon fill="#000000" stroke="#000000" stroke-width=".5" points="857.752,-20.8663 862.8399,-19.3913 857.9427,-17.3715 857.752,-20.8663"/>
</g>
<!-- pyVHDLModel.VHDLModel.GenericInterfaceItem -->
<g id="node4" class="node">
<title>pyVHDLModel.VHDLModel.GenericInterfaceItem</title>
<g id="a_node4"><a xlink:title="A ``GenericInterfaceItem`` is a mixin class for all generic interface items.">
<polygon fill="none" stroke="#000000" stroke-width=".5" points="500,-19 249,-19 249,0 500,0 500,-19"/>
<text text-anchor="middle" x="374.5" y="-7" font-family="Vera Sans, DejaVu Sans, Liberation Sans, Arial, Helvetica, sans" font-size="10.00" fill="#000000">pyVHDLModel.VHDLModel.GenericInterfaceItem</text>
</a>
</g>
</g>
<!-- pyVHDLModel.VHDLModel.GenericInterfaceItem&#45;&gt;pyVHDLModel.VHDLModel.GenericPackageInterfaceItem -->
<g id="edge4" class="edge">
<title>pyVHDLModel.VHDLModel.GenericInterfaceItem&#45;&gt;pyVHDLModel.VHDLModel.GenericPackageInterfaceItem</title>
<path fill="none" stroke="#000000" stroke-width=".5" d="M500.2544,-9.5C510.358,-9.5 520.6275,-9.5 530.8799,-9.5"/>
<polygon fill="#000000" stroke="#000000" stroke-width=".5" points="530.9107,-11.2501 535.9107,-9.5 530.9106,-7.7501 530.9107,-11.2501"/>
</g>
<!-- pyVHDLModel.VHDLModel.InterfaceItem -->
<g id="node5" class="node">
<title>pyVHDLModel.VHDLModel.InterfaceItem</title>
<g id="a_node5"><a xlink:title="An ``InterfaceItem`` is a base&#45;class for all mixin&#45;classes for all interface">
<polygon fill="none" stroke="#000000" stroke-width=".5" points="213,-19 0,-19 0,0 213,0 213,-19"/>
<text text-anchor="middle" x="106.5" y="-7" font-family="Vera Sans, DejaVu Sans, Liberation Sans, Arial, Helvetica, sans" font-size="10.00" fill="#000000">pyVHDLModel.VHDLModel.InterfaceItem</text>
</a>
</g>
</g>
<!-- pyVHDLModel.VHDLModel.InterfaceItem&#45;&gt;pyVHDLModel.VHDLModel.GenericInterfaceItem -->
<g id="edge3" class="edge">
<title>pyVHDLModel.VHDLModel.InterfaceItem&#45;&gt;pyVHDLModel.VHDLModel.GenericInterfaceItem</title>
<path fill="none" stroke="#000000" stroke-width=".5" d="M213.1908,-9.5C223.2262,-9.5 233.475,-9.5 243.699,-9.5"/>
<polygon fill="#000000" stroke="#000000" stroke-width=".5" points="243.7151,-11.2501 248.715,-9.5 243.715,-7.7501 243.7151,-11.2501"/>
</g>
</g>
</svg>
