<?xml version="1.0" encoding="UTF-8" standalone="no"?>
<!DOCTYPE svg PUBLIC "-//W3C//DTD SVG 1.1//EN"
 "http://www.w3.org/Graphics/SVG/1.1/DTD/svg11.dtd">
<!-- Generated by graphviz version 2.40.1 (20161225.0304)
 -->
<!-- Title: inheritance76d868bf9a Pages: 1 -->
<svg width="576pt" height="21pt"
 viewBox="0.00 0.00 576.00 21.13" xmlns="http://www.w3.org/2000/svg" xmlns:xlink="http://www.w3.org/1999/xlink">
<g id="graph0" class="graph" transform="scale(.3301 .3301) rotate(0) translate(4 60)">
<title>inheritance76d868bf9a</title>
<polygon fill="#ffffff" stroke="transparent" points="-4,4 -4,-60 1741,-60 1741,4 -4,4"/>
<!-- pyGHDL.dom.DOMMixin -->
<g id="node1" class="node">
<title>pyGHDL.dom.DOMMixin</title>
<g id="a_node1"><a xlink:href="../pyGHDL.dom.html#pyGHDL.dom.DOMMixin" xlink:title="pyGHDL.dom.DOMMixin" target="_top">
<polygon fill="none" stroke="#000000" stroke-width=".5" points="1417.5,-56 1283.5,-56 1283.5,-37 1417.5,-37 1417.5,-56"/>
<text text-anchor="middle" x="1350.5" y="-44" font-family="Vera Sans, DejaVu Sans, Liberation Sans, Arial, Helvetica, sans" font-size="10.00" fill="#000000">pyGHDL.dom.DOMMixin</text>
</a>
</g>
</g>
<!-- pyGHDL.dom.Literal.PhysicalIntegerLiteral -->
<g id="node2" class="node">
<title>pyGHDL.dom.Literal.PhysicalIntegerLiteral</title>
<g id="a_node2"><a xlink:href="../pyGHDL/pyGHDL.dom.Literal.html#pyGHDL.dom.Literal.PhysicalIntegerLiteral" xlink:title="pyGHDL.dom.Literal.PhysicalIntegerLiteral" target="_top">
<polygon fill="none" stroke="#000000" stroke-width=".5" points="1737,-37 1513,-37 1513,-18 1737,-18 1737,-37"/>
<text text-anchor="middle" x="1625" y="-25" font-family="Vera Sans, DejaVu Sans, Liberation Sans, Arial, Helvetica, sans" font-size="10.00" fill="#000000">pyGHDL.dom.Literal.PhysicalIntegerLiteral</text>
</a>
</g>
</g>
<!-- pyGHDL.dom.DOMMixin&#45;&gt;pyGHDL.dom.Literal.PhysicalIntegerLiteral -->
<g id="edge2" class="edge">
<title>pyGHDL.dom.DOMMixin&#45;&gt;pyGHDL.dom.Literal.PhysicalIntegerLiteral</title>
<path fill="none" stroke="#000000" stroke-width=".5" d="M1417.6503,-41.8521C1444.7327,-39.9775 1476.7929,-37.7584 1507.5051,-35.6326"/>
<polygon fill="#000000" stroke="#000000" stroke-width=".5" points="1507.9534,-37.3559 1512.8206,-35.2647 1507.7117,-33.8642 1507.9534,-37.3559"/>
</g>
<!-- pyVHDLModel.VHDLModel.PhysicalIntegerLiteral -->
<g id="node3" class="node">
<title>pyVHDLModel.VHDLModel.PhysicalIntegerLiteral</title>
<polygon fill="none" stroke="#000000" stroke-width=".5" points="1477,-19 1224,-19 1224,0 1477,0 1477,-19"/>
<text text-anchor="middle" x="1350.5" y="-7" font-family="Vera Sans, DejaVu Sans, Liberation Sans, Arial, Helvetica, sans" font-size="10.00" fill="#000000">pyVHDLModel.VHDLModel.PhysicalIntegerLiteral</text>
</g>
<!-- pyVHDLModel.VHDLModel.PhysicalIntegerLiteral&#45;&gt;pyGHDL.dom.Literal.PhysicalIntegerLiteral -->
<g id="edge1" class="edge">
<title>pyVHDLModel.VHDLModel.PhysicalIntegerLiteral&#45;&gt;pyGHDL.dom.Literal.PhysicalIntegerLiteral</title>
<path fill="none" stroke="#000000" stroke-width=".5" d="M1477.3044,-17.815C1487.3528,-18.474 1497.4764,-19.1378 1507.4579,-19.7923"/>
<polygon fill="#000000" stroke="#000000" stroke-width=".5" points="1507.5597,-21.5527 1512.6636,-20.1337 1507.7888,-18.0602 1507.5597,-21.5527"/>
</g>
<!-- pyVHDLModel.VHDLModel.BaseExpression -->
<g id="node4" class="node">
<title>pyVHDLModel.VHDLModel.BaseExpression</title>
<g id="a_node4"><a xlink:title="A ``BaseExpression`` is a base&#45;class for all expressions.">
<polygon fill="none" stroke="#000000" stroke-width=".5" points="465,-19 241,-19 241,0 465,0 465,-19"/>
<text text-anchor="middle" x="353" y="-7" font-family="Vera Sans, DejaVu Sans, Liberation Sans, Arial, Helvetica, sans" font-size="10.00" fill="#000000">pyVHDLModel.VHDLModel.BaseExpression</text>
</a>
</g>
</g>
<!-- pyVHDLModel.VHDLModel.Literal -->
<g id="node6" class="node">
<title>pyVHDLModel.VHDLModel.Literal</title>
<g id="a_node6"><a xlink:title="A ``Literal`` is a base&#45;class for all literals.">
<polygon fill="none" stroke="#000000" stroke-width=".5" points="679,-19 501,-19 501,0 679,0 679,-19"/>
<text text-anchor="middle" x="590" y="-7" font-family="Vera Sans, DejaVu Sans, Liberation Sans, Arial, Helvetica, sans" font-size="10.00" fill="#000000">pyVHDLModel.VHDLModel.Literal</text>
</a>
</g>
</g>
<!-- pyVHDLModel.VHDLModel.BaseExpression&#45;&gt;pyVHDLModel.VHDLModel.Literal -->
<g id="edge4" class="edge">
<title>pyVHDLModel.VHDLModel.BaseExpression&#45;&gt;pyVHDLModel.VHDLModel.Literal</title>
<path fill="none" stroke="#000000" stroke-width=".5" d="M465.2536,-9.5C475.4419,-9.5 485.692,-9.5 495.7014,-9.5"/>
<polygon fill="#000000" stroke="#000000" stroke-width=".5" points="495.9123,-11.2501 500.9122,-9.5 495.9122,-7.7501 495.9123,-11.2501"/>
</g>
<!-- pyVHDLModel.VHDLModel.ModelEntity -->
<g id="node5" class="node">
<title>pyVHDLModel.VHDLModel.ModelEntity</title>
<g id="a_node5"><a xlink:title="``ModelEntity`` is the base class for all classes in the VHDL language model,">
<polygon fill="none" stroke="#000000" stroke-width=".5" points="205,-19 0,-19 0,0 205,0 205,-19"/>
<text text-anchor="middle" x="102.5" y="-7" font-family="Vera Sans, DejaVu Sans, Liberation Sans, Arial, Helvetica, sans" font-size="10.00" fill="#000000">pyVHDLModel.VHDLModel.ModelEntity</text>
</a>
</g>
</g>
<!-- pyVHDLModel.VHDLModel.ModelEntity&#45;&gt;pyVHDLModel.VHDLModel.BaseExpression -->
<g id="edge3" class="edge">
<title>pyVHDLModel.VHDLModel.ModelEntity&#45;&gt;pyVHDLModel.VHDLModel.BaseExpression</title>
<path fill="none" stroke="#000000" stroke-width=".5" d="M205.1107,-9.5C215.2127,-9.5 225.5179,-9.5 235.7516,-9.5"/>
<polygon fill="#000000" stroke="#000000" stroke-width=".5" points="235.7685,-11.2501 240.7685,-9.5 235.7684,-7.7501 235.7685,-11.2501"/>
</g>
<!-- pyVHDLModel.VHDLModel.NumericLiteral -->
<g id="node7" class="node">
<title>pyVHDLModel.VHDLModel.NumericLiteral</title>
<g id="a_node7"><a xlink:title="A ``NumericLiteral`` is a base&#45;class for all numeric literals.">
<polygon fill="none" stroke="#000000" stroke-width=".5" points="934,-19 715,-19 715,0 934,0 934,-19"/>
<text text-anchor="middle" x="824.5" y="-7" font-family="Vera Sans, DejaVu Sans, Liberation Sans, Arial, Helvetica, sans" font-size="10.00" fill="#000000">pyVHDLModel.VHDLModel.NumericLiteral</text>
</a>
</g>
</g>
<!-- pyVHDLModel.VHDLModel.Literal&#45;&gt;pyVHDLModel.VHDLModel.NumericLiteral -->
<g id="edge5" class="edge">
<title>pyVHDLModel.VHDLModel.Literal&#45;&gt;pyVHDLModel.VHDLModel.NumericLiteral</title>
<path fill="none" stroke="#000000" stroke-width=".5" d="M679.3234,-9.5C689.3342,-9.5 699.6334,-9.5 709.9054,-9.5"/>
<polygon fill="#000000" stroke="#000000" stroke-width=".5" points="709.9445,-11.2501 714.9444,-9.5 709.9444,-7.7501 709.9445,-11.2501"/>
</g>
<!-- pyVHDLModel.VHDLModel.PhysicalLiteral -->
<g id="node8" class="node">
<title>pyVHDLModel.VHDLModel.PhysicalLiteral</title>
<polygon fill="none" stroke="#000000" stroke-width=".5" points="1188,-19 970,-19 970,0 1188,0 1188,-19"/>
<text text-anchor="middle" x="1079" y="-7" font-family="Vera Sans, DejaVu Sans, Liberation Sans, Arial, Helvetica, sans" font-size="10.00" fill="#000000">pyVHDLModel.VHDLModel.PhysicalLiteral</text>
</g>
<!-- pyVHDLModel.VHDLModel.NumericLiteral&#45;&gt;pyVHDLModel.VHDLModel.PhysicalLiteral -->
<g id="edge7" class="edge">
<title>pyVHDLModel.VHDLModel.NumericLiteral&#45;&gt;pyVHDLModel.VHDLModel.PhysicalLiteral</title>
<path fill="none" stroke="#000000" stroke-width=".5" d="M934.2775,-9.5C944.4514,-9.5 954.7773,-9.5 964.9882,-9.5"/>
<polygon fill="#000000" stroke="#000000" stroke-width=".5" points="964.9905,-11.2501 969.9904,-9.5 964.9904,-7.7501 964.9905,-11.2501"/>
</g>
<!-- pyVHDLModel.VHDLModel.PhysicalLiteral&#45;&gt;pyVHDLModel.VHDLModel.PhysicalIntegerLiteral -->
<g id="edge6" class="edge">
<title>pyVHDLModel.VHDLModel.PhysicalLiteral&#45;&gt;pyVHDLModel.VHDLModel.PhysicalIntegerLiteral</title>
<path fill="none" stroke="#000000" stroke-width=".5" d="M1188.2559,-9.5C1198.1685,-9.5 1208.2773,-9.5 1218.3595,-9.5"/>
<polygon fill="#000000" stroke="#000000" stroke-width=".5" points="1218.6283,-11.2501 1223.6283,-9.5 1218.6282,-7.7501 1218.6283,-11.2501"/>
</g>
</g>
</svg>
