<?xml version="1.0" encoding="UTF-8" standalone="no"?>
<!DOCTYPE svg PUBLIC "-//W3C//DTD SVG 1.1//EN"
 "http://www.w3.org/Graphics/SVG/1.1/DTD/svg11.dtd">
<!-- Generated by graphviz version 2.40.1 (20161225.0304)
 -->
<!-- Title: inheritance99df5465c2 Pages: 1 -->
<svg width="576pt" height="79pt"
 viewBox="0.00 0.00 576.00 79.38" xmlns="http://www.w3.org/2000/svg" xmlns:xlink="http://www.w3.org/1999/xlink">
<g id="graph0" class="graph" transform="scale(.9681 .9681) rotate(0) translate(4 78)">
<title>inheritance99df5465c2</title>
<polygon fill="#ffffff" stroke="transparent" points="-4,4 -4,-78 591,-78 591,4 -4,4"/>
<!-- pyGHDL.dom.DOMMixin -->
<g id="node1" class="node">
<title>pyGHDL.dom.DOMMixin</title>
<g id="a_node1"><a xlink:href="../pyGHDL.dom.html#pyGHDL.dom.DOMMixin" xlink:title="pyGHDL.dom.DOMMixin" target="_top">
<polygon fill="none" stroke="#000000" stroke-width=".5" points="399.5,-74 265.5,-74 265.5,-55 399.5,-55 399.5,-74"/>
<text text-anchor="middle" x="332.5" y="-62" font-family="Vera Sans, DejaVu Sans, Liberation Sans, Arial, Helvetica, sans" font-size="10.00" fill="#000000">pyGHDL.dom.DOMMixin</text>
</a>
</g>
</g>
<!-- pyGHDL.dom.Misc.Alias -->
<g id="node2" class="node">
<title>pyGHDL.dom.Misc.Alias</title>
<g id="a_node2"><a xlink:href="../pyGHDL/pyGHDL.dom.Misc.html#pyGHDL.dom.Misc.Alias" xlink:title="pyGHDL.dom.Misc.Alias" target="_top">
<polygon fill="none" stroke="#000000" stroke-width=".5" points="587,-55 454,-55 454,-36 587,-36 587,-55"/>
<text text-anchor="middle" x="520.5" y="-43" font-family="Vera Sans, DejaVu Sans, Liberation Sans, Arial, Helvetica, sans" font-size="10.00" fill="#000000">pyGHDL.dom.Misc.Alias</text>
</a>
</g>
</g>
<!-- pyGHDL.dom.DOMMixin&#45;&gt;pyGHDL.dom.Misc.Alias -->
<g id="edge2" class="edge">
<title>pyGHDL.dom.DOMMixin&#45;&gt;pyGHDL.dom.Misc.Alias</title>
<path fill="none" stroke="#000000" stroke-width=".5" d="M399.5761,-57.721C415.5354,-56.1081 432.6256,-54.3809 448.7836,-52.7479"/>
<polygon fill="#000000" stroke="#000000" stroke-width=".5" points="448.9673,-54.4884 453.766,-52.2444 448.6153,-51.0061 448.9673,-54.4884"/>
</g>
<!-- pyVHDLModel.VHDLModel.Alias -->
<g id="node3" class="node">
<title>pyVHDLModel.VHDLModel.Alias</title>
<polygon fill="none" stroke="#000000" stroke-width=".5" points="418,-37 247,-37 247,-18 418,-18 418,-37"/>
<text text-anchor="middle" x="332.5" y="-25" font-family="Vera Sans, DejaVu Sans, Liberation Sans, Arial, Helvetica, sans" font-size="10.00" fill="#000000">pyVHDLModel.VHDLModel.Alias</text>
</g>
<!-- pyVHDLModel.VHDLModel.Alias&#45;&gt;pyGHDL.dom.Misc.Alias -->
<g id="edge1" class="edge">
<title>pyVHDLModel.VHDLModel.Alias&#45;&gt;pyGHDL.dom.Misc.Alias</title>
<path fill="none" stroke="#000000" stroke-width=".5" d="M418.2477,-35.7099C428.3912,-36.6811 438.6638,-37.6646 448.5882,-38.6148"/>
<polygon fill="#000000" stroke="#000000" stroke-width=".5" points="448.5997,-40.3738 453.7437,-39.1084 448.9333,-36.8898 448.5997,-40.3738"/>
</g>
<!-- pyVHDLModel.VHDLModel.ModelEntity -->
<g id="node4" class="node">
<title>pyVHDLModel.VHDLModel.ModelEntity</title>
<g id="a_node4"><a xlink:title="``ModelEntity`` is the base class for all classes in the VHDL language model,">
<polygon fill="none" stroke="#000000" stroke-width=".5" points="208,-56 3,-56 3,-37 208,-37 208,-56"/>
<text text-anchor="middle" x="105.5" y="-44" font-family="Vera Sans, DejaVu Sans, Liberation Sans, Arial, Helvetica, sans" font-size="10.00" fill="#000000">pyVHDLModel.VHDLModel.ModelEntity</text>
</a>
</g>
</g>
<!-- pyVHDLModel.VHDLModel.ModelEntity&#45;&gt;pyVHDLModel.VHDLModel.Alias -->
<g id="edge3" class="edge">
<title>pyVHDLModel.VHDLModel.ModelEntity&#45;&gt;pyVHDLModel.VHDLModel.Alias</title>
<path fill="none" stroke="#000000" stroke-width=".5" d="M208.0421,-37.9172C219.2498,-36.9791 230.6015,-36.0289 241.6544,-35.1038"/>
<polygon fill="#000000" stroke="#000000" stroke-width=".5" points="241.8735,-36.8417 246.7101,-34.6807 241.5815,-33.3539 241.8735,-36.8417"/>
</g>
<!-- pyVHDLModel.VHDLModel.NamedEntity -->
<g id="node5" class="node">
<title>pyVHDLModel.VHDLModel.NamedEntity</title>
<g id="a_node5"><a xlink:title="A ``NamedEntity`` is a mixin class for all VHDL entities that have identifiers.">
<polygon fill="none" stroke="#000000" stroke-width=".5" points="211,-19 0,-19 0,0 211,0 211,-19"/>
<text text-anchor="middle" x="105.5" y="-7" font-family="Vera Sans, DejaVu Sans, Liberation Sans, Arial, Helvetica, sans" font-size="10.00" fill="#000000">pyVHDLModel.VHDLModel.NamedEntity</text>
</a>
</g>
</g>
<!-- pyVHDLModel.VHDLModel.NamedEntity&#45;&gt;pyVHDLModel.VHDLModel.Alias -->
<g id="edge4" class="edge">
<title>pyVHDLModel.VHDLModel.NamedEntity&#45;&gt;pyVHDLModel.VHDLModel.Alias</title>
<path fill="none" stroke="#000000" stroke-width=".5" d="M211.0254,-17.8677C221.2792,-18.6807 231.6202,-19.5007 241.7115,-20.3009"/>
<polygon fill="#000000" stroke="#000000" stroke-width=".5" points="241.8414,-22.0666 246.9641,-20.7174 242.1181,-18.5776 241.8414,-22.0666"/>
</g>
</g>
</svg>
